<svg xmlns="http://www.w3.org/2000/svg" viewBox="0 0 515.4 515.1"><title>Asset 18</title><g id="Layer_2" data-name="Layer 2"><g id="Слой_1" data-name="Слой 1"><path d="M515.4,257.7a255.66,255.66,0,0,1-93.6,198c-11.3-22.8-53.6-70.4-101.6-78.2a.6.6,0,0,1-.4-.1c-.1-.1-.2-.1-.3-.2l-10.2-3.7c-2.4-2.1-6.2-3.3-11.3-2.2v-9c27.7-5.1,48.4-25.3,60.9-44.1,32.4-19.2,39.1-71,38.4-94.7,20.3,5.6,51.7-26.2,20.6-63.2-24.9-29.6-47.6-15.6-55.9-4.9-30.5-34.4-78.3-23.9-98.5-14.3-8.1-3.9-29.2,4-38.8,8.4,4.2-31.8-34.6-45.4-64.3-21s-20.3,53.1-11.5,63.9c7,8.7,21.5,10.4,27.9,10.1-12.1,62.9,17.8,102.6,37,117a84.83,84.83,0,0,0,27.7,31.2v20.5c-7-1.5-11,.1-13.2,2.1l-31.8,10.3a.9.9,0,0,0-.6.6v.3c-18.6,4.9-56.3,19.9-69.6,42.3-5.3,9-9.5,15.7-12.9,21.1-5,8-7.8,12.5-9,16.1A255,255,0,0,1,0,257.7C0,115.4,115.4,0,257.7,0S515.4,115.4,515.4,257.7Z" fill="#f2f2f2"/><path d="M241.8,373.5v.1l-.2-.1Z" fill="#f2f2f2"/><path d="M243.8,372.5v.1l-.2-.1Z" fill="#f2f2f2"/><path d="M276.6,427.8a4.59,4.59,0,0,1,4.6-4.6,4.6,4.6,0,1,1,0,9.2A4.59,4.59,0,0,1,276.6,427.8Z" fill="#f2f2f2"/><path d="M284.3,461.4a4.59,4.59,0,0,0-4.6,4.6,4.65,4.65,0,0,0,4.6,4.6,4.59,4.59,0,0,0,4.6-4.6A4.65,4.65,0,0,0,284.3,461.4Zm0,0a4.59,4.59,0,0,0-4.6,4.6,4.65,4.65,0,0,0,4.6,4.6,4.59,4.59,0,0,0,4.6-4.6A4.65,4.65,0,0,0,284.3,461.4Zm0,0a4.59,4.59,0,0,0-4.6,4.6,4.65,4.65,0,0,0,4.6,4.6,4.59,4.59,0,0,0,4.6-4.6A4.65,4.65,0,0,0,284.3,461.4Zm2,38.3a4.59,4.59,0,0,0-4.6,4.6,4.65,4.65,0,0,0,4.6,4.6,4.59,4.59,0,0,0,4.6-4.6A4.53,4.53,0,0,0,286.3,499.7Zm41.1,3.5c-33.2,8.3-49.8,11.8-95.5,9-3.2-.2-6.6-.5-10-1v.2c47,4.6,74.6,1.8,121.6-12.2v-.3C338.6,500.3,333.3,501.7,327.4,503.2Zm-41.1-3.5a4.59,4.59,0,0,0-4.6,4.6,4.65,4.65,0,0,0,4.6,4.6,4.59,4.59,0,0,0,4.6-4.6A4.53,4.53,0,0,0,286.3,499.7Zm-2-38.3a4.59,4.59,0,0,0-4.6,4.6,4.65,4.65,0,0,0,4.6,4.6,4.59,4.59,0,0,0,4.6-4.6A4.65,4.65,0,0,0,284.3,461.4Zm2,38.3a4.59,4.59,0,0,0-4.6,4.6,4.65,4.65,0,0,0,4.6,4.6,4.59,4.59,0,0,0,4.6-4.6A4.53,4.53,0,0,0,286.3,499.7Zm-2-38.3a4.59,4.59,0,0,0-4.6,4.6,4.65,4.65,0,0,0,4.6,4.6,4.59,4.59,0,0,0,4.6-4.6A4.65,4.65,0,0,0,284.3,461.4Z" fill="#f2f2f2"/><path d="M219.9,510.9c-42.4-6.5-94.4-32.3-113.4-46.3,1.2-3.3,4.1-7.9,8.7-15.2,1.7-2.7,3.6-5.7,5.7-9.2s4.5-7.4,7.2-11.9c13.1-22.1,50.8-36.8,68.8-41.5,21.7,31.2,22.3,77.7,22.8,118.8A44.37,44.37,0,0,1,219.9,510.9Z" fill="#ffd14a"/><path d="M276.6,427.8a4.59,4.59,0,0,1,4.6-4.6,4.6,4.6,0,1,1,0,9.2A4.59,4.59,0,0,1,276.6,427.8Z" fill="#ffd14a"/><path d="M284.3,461.4a4.59,4.59,0,0,0-4.6,4.6,4.65,4.65,0,0,0,4.6,4.6,4.59,4.59,0,0,0,4.6-4.6A4.65,4.65,0,0,0,284.3,461.4Zm0,0a4.59,4.59,0,0,0-4.6,4.6,4.65,4.65,0,0,0,4.6,4.6,4.59,4.59,0,0,0,4.6-4.6A4.65,4.65,0,0,0,284.3,461.4Zm0,0a4.59,4.59,0,0,0-4.6,4.6,4.65,4.65,0,0,0,4.6,4.6,4.59,4.59,0,0,0,4.6-4.6A4.65,4.65,0,0,0,284.3,461.4Zm2,38.3a4.59,4.59,0,0,0-4.6,4.6,4.65,4.65,0,0,0,4.6,4.6,4.59,4.59,0,0,0,4.6-4.6A4.53,4.53,0,0,0,286.3,499.7Zm41.1,3.5c-33.2,8.3-49.8,11.8-95.5,9-3.2-.2-6.6-.5-10-1v.2c47,4.6,74.6,1.8,121.6-12.2v-.3C338.6,500.3,333.3,501.7,327.4,503.2Zm-41.1-3.5a4.59,4.59,0,0,0-4.6,4.6,4.65,4.65,0,0,0,4.6,4.6,4.59,4.59,0,0,0,4.6-4.6A4.53,4.53,0,0,0,286.3,499.7Zm-2-38.3a4.59,4.59,0,0,0-4.6,4.6,4.65,4.65,0,0,0,4.6,4.6,4.59,4.59,0,0,0,4.6-4.6A4.65,4.65,0,0,0,284.3,461.4Zm2,38.3a4.59,4.59,0,0,0-4.6,4.6,4.65,4.65,0,0,0,4.6,4.6,4.59,4.59,0,0,0,4.6-4.6A4.53,4.53,0,0,0,286.3,499.7Zm-2-38.3a4.59,4.59,0,0,0-4.6,4.6,4.65,4.65,0,0,0,4.6,4.6,4.59,4.59,0,0,0,4.6-4.6A4.65,4.65,0,0,0,284.3,461.4Z" fill="#ffd14a"/><path d="M419.7,456.1c-9,7.3-16.6,13.2-23.6,18.1A263.41,263.41,0,0,1,355.9,495c-3.3,1.1-6.7,2.2-10.4,3.3-.1-82.4-7.2-93.1-21.3-114.3-.9-1.4-1.9-2.8-2.9-4.3C367.7,388,408.4,433.6,419.7,456.1Z" fill="#ffd14a"/><path d="M396.1,474.2c-13.8,9.7-25.3,15.7-40.2,20.8A246.61,246.61,0,0,0,396.1,474.2Z" fill="#ffd14a"/><path d="M327.4,503.2c-33.2,8.3-49.8,11.8-95.5,9-3.2-.2-6.6-.5-10-1v.2c47,4.6,74.6,1.8,121.6-12.2v-.3C338.6,500.3,333.3,501.7,327.4,503.2Z"/><path d="M241.8,373.5v.1l-.2-.1Z" fill="#3a8a91"/><path d="M243.8,372.5v.1l-.2-.1Z" fill="#3a8a91"/><path d="M276.6,427.8a4.59,4.59,0,0,1,4.6-4.6,4.6,4.6,0,1,1,0,9.2A4.59,4.59,0,0,1,276.6,427.8Z" fill="#3a8a91"/><path d="M284.3,461.4a4.59,4.59,0,0,0-4.6,4.6,4.65,4.65,0,0,0,4.6,4.6,4.59,4.59,0,0,0,4.6-4.6A4.65,4.65,0,0,0,284.3,461.4Zm0,0a4.59,4.59,0,0,0-4.6,4.6,4.65,4.65,0,0,0,4.6,4.6,4.59,4.59,0,0,0,4.6-4.6A4.65,4.65,0,0,0,284.3,461.4Zm0,0a4.59,4.59,0,0,0-4.6,4.6,4.65,4.65,0,0,0,4.6,4.6,4.59,4.59,0,0,0,4.6-4.6A4.65,4.65,0,0,0,284.3,461.4Zm2,38.3a4.59,4.59,0,0,0-4.6,4.6,4.65,4.65,0,0,0,4.6,4.6,4.59,4.59,0,0,0,4.6-4.6A4.53,4.53,0,0,0,286.3,499.7Zm41.1,3.5c-33.2,8.3-49.8,11.8-95.5,9-3.2-.2-6.6-.5-10-1v.2c47,4.6,74.6,1.8,121.6-12.2v-.3C338.6,500.3,333.3,501.7,327.4,503.2Zm-41.1-3.5a4.59,4.59,0,0,0-4.6,4.6,4.65,4.65,0,0,0,4.6,4.6,4.59,4.59,0,0,0,4.6-4.6A4.53,4.53,0,0,0,286.3,499.7Zm-2-38.3a4.59,4.59,0,0,0-4.6,4.6,4.65,4.65,0,0,0,4.6,4.6,4.59,4.59,0,0,0,4.6-4.6A4.65,4.65,0,0,0,284.3,461.4Zm2,38.3a4.59,4.59,0,0,0-4.6,4.6,4.65,4.65,0,0,0,4.6,4.6,4.59,4.59,0,0,0,4.6-4.6A4.53,4.53,0,0,0,286.3,499.7Zm-2-38.3a4.59,4.59,0,0,0-4.6,4.6,4.65,4.65,0,0,0,4.6,4.6,4.59,4.59,0,0,0,4.6-4.6A4.65,4.65,0,0,0,284.3,461.4Z" fill="#3a8a91"/><path d="M322.6,385.2c-1.2-1.8-2.5-3.8-3.9-5.9a.35.35,0,0,0-.1-.2l-3.7-1.3-3.2-1.1c.1.3.3.5.4.8a3.58,3.58,0,0,1,.4,1.1c0,.1.1.2.1.3,2.8,9.5-4.2,23.2-18.9,27.8h-.2a27.66,27.66,0,0,1-4.2.3c-3.9,0-8.4-1.3-13.2-7.3a11.32,11.32,0,0,1-4.1,7.4c-3.8,3.2-9.4,4.6-14.7,4.6a27.4,27.4,0,0,1-7.3-1c-14.4-4.5-24.5-18.9-24.5-29.2v-.4a3.4,3.4,0,0,1,.1-1c0-.4.1-.7.1-1a2.92,2.92,0,0,1,.2-.9,6.39,6.39,0,0,1,.6-1.6l-16,5.2-9.5,3.1-2.4.8c.2.2.3.5.5.7,21.6,31.7,22.2,78.2,22.8,119.3,0,2,.1,3.9.1,5.8,3.4.5,6.7.8,10,1,45.7,2.8,62.3-.7,95.5-9,5.9-1.5,11.3-2.9,16.2-4.3C343.5,416.5,336.5,406,322.6,385.2Zm-48,42.6a6.6,6.6,0,1,1,6.6,6.6A6.59,6.59,0,0,1,274.6,427.8Zm3,38.3a6.6,6.6,0,1,1,6.6,6.6A6.59,6.59,0,0,1,277.6,466.1Zm8.7,44.9a6.6,6.6,0,1,1,6.6-6.6A6.59,6.59,0,0,1,286.3,511Z" fill="#3a8a91"/><path d="M243.6,372.5l.2.1v-.1Zm54.4,1Z"/><path d="M293.2,404.6c-4.6.6-10.4,1.3-16.8-8.1,8.6-3,17.6-12.5,20.7-19.4a4.18,4.18,0,0,0,.4-1c.1-.3.2-.7.3-1s.1-.4.2-.6v-1c4.4-1,8-.3,10.3,1.9a4.35,4.35,0,0,1,.6.7,10.47,10.47,0,0,1,.8,1.1,3.7,3.7,0,0,1,.5,1.1,4.87,4.87,0,0,1,.4,1.1C312.8,386.7,307.9,399.9,293.2,404.6Z" fill="#f2f2f2"/><path d="M270.8,405.5c-5.1,4.3-14.3,5-20.2,3.2-14.5-4.5-23.5-19.2-23.1-28a3.08,3.08,0,0,1,.1-1,3,3,0,0,1,.2-1v-.1a6.25,6.25,0,0,1,1.7-3.1c2.3-2.4,6.4-3.1,12-1.9l.2.1v.9c.2.7.5,1.4.8,2.2a10.37,10.37,0,0,1,.4,1,9.25,9.25,0,0,0,.5,1c3.5,6.8,11.5,15.7,25.5,18.6a8.58,8.58,0,0,0,2.3.2,15.26,15.26,0,0,0,3-.3A9.15,9.15,0,0,1,270.8,405.5Z" fill="#f2f2f2"/><path d="M241.8,373.5v.1l-.2-.1Z" fill="#fff"/><path d="M241.6,373.5l.2.1v-.1Z"/><path d="M296,362.8v11.3l-.3.9c0,.1-.1.3-.1.4a1.42,1.42,0,0,0-.2.6c-.1.3-.3.7-.4,1a43.23,43.23,0,0,1-15.7,16.2c-.8.5-1.6.8-2.4,1.2a14.58,14.58,0,0,1-1.9.7h-.1l-1.2.3a7.84,7.84,0,0,1-1.4.2,8.22,8.22,0,0,1-2.7-.2,35.63,35.63,0,0,1-23.8-16.9,4.05,4.05,0,0,1-.5-.9c-.2-.3-.3-.7-.5-1s-.3-.7-.5-1.1a11.22,11.22,0,0,1-.5-1.3V352.3a76.45,76.45,0,0,0,40.6,11.5A86.32,86.32,0,0,0,296,362.8Z" fill="#ffdbdb"/><path d="M243.8,372.5v.1l-.2-.1Z" fill="#ffdbdb"/><path d="M298,373.5Zm-54.4-1,.2.1v-.1Z"/><path d="M363.5,259.3c-7.5-13.2-39.6-37.7-62.9-55.5-3.2-2.5-6.3-4.8-9.1-7-11.7,24.9-35.4,39.3-70.7,42.8h-.2l-.2-.1c-6.8-2-16.9-2.6-23,2.5-4.5,3.7-6.5,9.9-5.7,18.5,1.2,6.9,6.5,20.3,18.4,22.2l1.9.3-1.4,1.4c-3.1,3.1-3,12.1.3,22.4a82.29,82.29,0,0,0,6.9,15.4,80.47,80.47,0,0,0,24,26.3l1,.7a6.07,6.07,0,0,1,1,.7,73.17,73.17,0,0,0,27.8,10.8,74.78,74.78,0,0,0,24.5.2,3.55,3.55,0,0,0,1-.2,3.55,3.55,0,0,0,1-.2c25.3-4.9,44.7-22.6,57.1-39.9a119.5,119.5,0,0,0,12.4-21.7C367.8,297.2,372.4,275.1,363.5,259.3Zm-152.6,9.5a.87.87,0,0,1-.6.8.6.6,0,0,1-.4.1,1.42,1.42,0,0,1-.6-.2l-5.2-4.2a1,1,0,0,1,1.2-1.6l3.3,2.7a21.7,21.7,0,0,0-4.7-7.8,1,1,0,1,1,1.5-1.3C205.6,257.5,211.2,263.8,210.9,268.8Zm70,39.5a.88.88,0,0,1,1.3-.4c2,1,6.3,2,8.5,1.7,1.6-.2,3.2-.6,3.7-1.7s0-3.2-1.6-5.9c-3.8-6.4-1.7-16.6-.1-21.1a1,1,0,0,1,1.9.7c-1.5,4.2-3.5,13.6-.1,19.4,2,3.4,2.5,5.9,1.7,7.7-1.1,2.2-3.8,2.6-5.2,2.8a5.7,5.7,0,0,1-1.3.1,23.09,23.09,0,0,1-8.4-1.9A1.28,1.28,0,0,1,280.9,308.3Zm-32.9-61c17.7-3.2,27.5,5.5,30.2,10.5a1.49,1.49,0,0,1-.6,2,1.85,1.85,0,0,1-.7.2,1.56,1.56,0,0,1-1.3-.8c-2.4-4.4-11.1-11.9-27-9a1.41,1.41,0,0,1-1.7-1.2A1.36,1.36,0,0,1,248,247.3Zm20,32.4c-2.9-5.9-7.3-5.3-12.9-4.5-3.4.5-6.9,1-10.3-.2a1,1,0,0,1,.7-1.9c3,1,6.3.5,9.4.1,5.6-.8,11.4-1.6,14.9,5.6a1,1,0,0,1-.5,1.3.6.6,0,0,1-.4.1A.94.94,0,0,1,268,279.7Zm33,43.9a35.61,35.61,0,0,1-11.9,2.1c-9.4,0-16.7-4-19.8-6.9a1,1,0,1,1,1.3-1.5c4.1,3.7,15.5,9.4,29.7,4.3a1,1,0,0,1,1.3.6A1.11,1.11,0,0,1,301,323.6Zm38-31.5a1,1,0,0,1-1,.8h-.2a21.46,21.46,0,0,1-5.4-2.1c-4.1-2-8.4-4-12.7-.8a1,1,0,0,1-1.4-.2,1.08,1.08,0,0,1,.2-1.4c5.3-4,10.5-1.5,14.7.6a25.69,25.69,0,0,0,4.9,1.9A1,1,0,0,1,339,292.1Zm11.8-16.3a1.69,1.69,0,0,1-1,.3,1.85,1.85,0,0,1-1.2-.5c-10.1-12.2-21.2-10.6-25.7-8a1.54,1.54,0,0,1-2.1-.6,1.41,1.41,0,0,1,.6-2c5.2-3,18.1-5,29.5,8.7A1.37,1.37,0,0,1,350.8,275.8Z" fill="#ffdbdb"/><path d="M210.9,268.8a.87.87,0,0,1-.6.8.6.6,0,0,1-.4.1,1.42,1.42,0,0,1-.6-.2l-5.2-4.2a1,1,0,0,1,1.2-1.6l3.3,2.7a21.7,21.7,0,0,0-4.7-7.8,1,1,0,1,1,1.5-1.3C205.6,257.5,211.2,263.8,210.9,268.8Z"/><path d="M301,323.6a35.61,35.61,0,0,1-11.9,2.1c-9.4,0-16.7-4-19.8-6.9a1,1,0,1,1,1.3-1.5c4.1,3.7,15.5,9.4,29.7,4.3a1,1,0,0,1,1.3.6A1.11,1.11,0,0,1,301,323.6Z"/><path d="M296.2,308.6c-1.1,2.2-3.8,2.6-5.2,2.8a5.7,5.7,0,0,1-1.3.1,23.09,23.09,0,0,1-8.4-1.9,1,1,0,0,1,.9-1.7c2,1,6.3,2,8.5,1.7,1.6-.2,3.2-.6,3.7-1.7s0-3.2-1.6-5.9c-3.8-6.4-1.7-16.6-.1-21.1a1,1,0,0,1,1.9.7c-1.5,4.2-3.5,13.6-.1,19.4C296.6,304.2,297.1,306.8,296.2,308.6Z"/><path d="M339,292.1a1,1,0,0,1-1,.8h-.2a21.46,21.46,0,0,1-5.4-2.1c-4.1-2-8.4-4-12.7-.8a1,1,0,0,1-1.4-.2,1.08,1.08,0,0,1,.2-1.4c5.3-4,10.5-1.5,14.7.6a25.69,25.69,0,0,0,4.9,1.9A1,1,0,0,1,339,292.1Z"/><path d="M269.3,280.1a.6.6,0,0,1-.4.1,1,1,0,0,1-.9-.6c-2.9-5.9-7.3-5.3-12.9-4.5-3.4.5-6.9,1-10.3-.2a1,1,0,1,1,.7-1.9c3,1,6.3.5,9.4.1,5.6-.8,11.4-1.6,14.9,5.6A1.07,1.07,0,0,1,269.3,280.1Z"/><path d="M350.8,275.8a1.69,1.69,0,0,1-1,.3,1.85,1.85,0,0,1-1.2-.5c-10.1-12.2-21.2-10.6-25.7-8a1.54,1.54,0,0,1-2.1-.6,1.41,1.41,0,0,1,.6-2c5.2-3,18.1-5,29.5,8.7A1.37,1.37,0,0,1,350.8,275.8Z"/><path d="M277.6,259.9a1.85,1.85,0,0,1-.7.2,1.56,1.56,0,0,1-1.3-.8c-2.4-4.4-11.1-11.9-27-9a1.47,1.47,0,0,1-.5-2.9c17.7-3.2,27.5,5.5,30.2,10.5A1.63,1.63,0,0,1,277.6,259.9Z"/><path d="M285.9,427.8a4.6,4.6,0,1,1-9.2,0,4.59,4.59,0,0,1,4.6-4.6A4.65,4.65,0,0,1,285.9,427.8Z" fill="#fff"/><path d="M281.2,421.2a6.6,6.6,0,1,0,6.6,6.6A6.47,6.47,0,0,0,281.2,421.2Zm0,11.2a4.6,4.6,0,1,1,0-9.2,4.65,4.65,0,0,1,4.6,4.6A4.47,4.47,0,0,1,281.2,432.4Z"/><path d="M288.9,466.1a4.6,4.6,0,1,1-9.2,0,4.65,4.65,0,0,1,4.6-4.6A4.53,4.53,0,0,1,288.9,466.1Z" fill="#fff"/><path d="M284.3,459.4a6.6,6.6,0,1,0,6.6,6.6A6.59,6.59,0,0,0,284.3,459.4Zm0,11.3a4.59,4.59,0,0,1-4.6-4.6,4.65,4.65,0,0,1,4.6-4.6,4.59,4.59,0,0,1,4.6,4.6A4.65,4.65,0,0,1,284.3,470.7Z"/><path d="M291,504.3a4.65,4.65,0,0,1-4.6,4.6,4.6,4.6,0,1,1,0-9.2A4.65,4.65,0,0,1,291,504.3Z" fill="#fff"/><path d="M286.3,497.7a6.6,6.6,0,1,0,6.6,6.6A6.59,6.59,0,0,0,286.3,497.7Zm0,11.3a4.6,4.6,0,1,1,4.6-4.6A4.53,4.53,0,0,1,286.3,509Z"/><path d="M421.8,455.7c-11.3-22.8-53.6-70.4-101.6-78.2a.6.6,0,0,1-.4-.1c-.1-.1-.2-.1-.3-.2l-10.2-3.7c-2.4-2.1-6.2-3.3-11.3-2.2v-9c27.7-5.1,48.4-25.3,60.9-44.1,32.4-19.2,39.1-71,38.4-94.7,20.3,5.6,51.7-26.2,20.6-63.2-24.9-29.6-47.6-15.6-55.9-4.9-30.5-34.4-78.3-23.9-98.5-14.3-8.1-3.9-29.2,4-38.8,8.4,4.2-31.8-34.6-45.4-64.3-21s-20.3,53.1-11.5,63.9c7,8.7,21.5,10.4,27.9,10.1-12.1,62.9,17.8,102.6,37,117a84.83,84.83,0,0,0,27.7,31.2v20.5h0c-7-1.5-11,.1-13.2,2.1l-31.8,10.3a.9.9,0,0,0-.6.6v.3c-18.6,4.9-56.3,19.9-69.6,42.3-5.3,9-9.5,15.7-12.9,21.1-5,8-7.8,12.5-9,16.1,0,.1-.1.2-.1.3a1.13,1.13,0,0,0,.3,1.1c6.4,4.8,16.8,11.1,29.5,17.5a266.29,266.29,0,0,0,43.8,18.8c14.1,5,28.6,9,42.1,11a.86.86,0,0,0,.6.3c14.1,1.4,26.4,2.1,38,2.1,28.1,0,52-4.4,86-14.5a2.09,2.09,0,0,0,.6-.4c29.7-8.6,44.6-17.7,76.2-43.3a1,1,0,0,0,.3-1.2C421.8,455.8,421.8,455.8,421.8,455.7ZM308.3,375.3a4.35,4.35,0,0,1,.6.7,10.47,10.47,0,0,1,.8,1.1,3.7,3.7,0,0,1,.5,1.1,4.87,4.87,0,0,1,.4,1.1c2.2,7.4-2.8,20.6-17.5,25.3-4.6.6-10.4,1.3-16.8-8.1,8.6-3,17.6-12.5,20.7-19.4a4.18,4.18,0,0,0,.4-1c.1-.3.2-.7.3-1s.1-.4.2-.6v-1C302.4,372.4,306,373.1,308.3,375.3Zm-64.7-2.8h.2V352.2a76.45,76.45,0,0,0,40.6,11.5,72.71,72.71,0,0,0,11.6-.9v11.3l-.3.9c0,.1-.1.3-.1.4a1.42,1.42,0,0,0-.2.6c-.1.3-.3.7-.4,1a43.23,43.23,0,0,1-15.7,16.2c-.8.5-1.6.8-2.4,1.2a14.58,14.58,0,0,1-1.9.7h-.1l-1.2.3a7.84,7.84,0,0,1-1.4.2,8.22,8.22,0,0,1-2.7-.2,35.63,35.63,0,0,1-23.8-16.9,4.05,4.05,0,0,1-.5-.9c-.2-.3-.3-.7-.5-1s-.3-.7-.5-1.1a11.22,11.22,0,0,1-.5-1.3v-1.5Zm-1.8-24a82.5,82.5,0,0,1-24-26.3,79.51,79.51,0,0,1-6.9-15.4c-3.3-10.3-3.4-19.3-.3-22.4L212,283l-1.9-.3c-11.9-1.8-17.2-15.3-18.4-22.2-.7-8.5,1.2-14.8,5.7-18.5,6.2-5,16.3-4.5,23-2.5l.2.1h.2c35.2-3.5,59-18,70.7-42.8,2.8,2.1,5.9,4.5,9.1,7,23.4,17.9,55.4,42.3,62.9,55.5,8.9,15.8,4.3,37.9,4,39.4a110.87,110.87,0,0,1-12.4,21.7c-12.4,17.3-31.8,35.1-57.1,39.9-.3.1-.7.1-1,.2s-.7.1-1,.2a72.14,72.14,0,0,1-24.5-.2,74.48,74.48,0,0,1-27.8-10.8,6.07,6.07,0,0,1-1-.7A4.05,4.05,0,0,1,241.8,348.5Zm0,24Zm-14.3,8.1a3.08,3.08,0,0,1,.1-1,3,3,0,0,1,.2-1v-.1a6.25,6.25,0,0,1,1.7-3.1c2.3-2.4,6.4-3.1,12-1.9h.2v1.1c.2.7.5,1.4.8,2.2a10.37,10.37,0,0,1,.4,1,9.25,9.25,0,0,0,.5,1c3.5,6.8,11.5,15.7,25.5,18.6a8.58,8.58,0,0,0,2.3.2,15.26,15.26,0,0,0,3-.3,9.38,9.38,0,0,1-3.5,8.4c-5.1,4.3-14.3,5-20.2,3.2C236.2,404.1,227.1,389.4,227.5,380.6Zm-121,83.9c1.2-3.3,4.1-7.9,8.7-15.2,1.7-2.7,3.6-5.7,5.7-9.2s4.5-7.4,7.2-11.9c13.1-22.1,50.8-36.8,68.8-41.5,21.7,31.2,22.3,77.7,22.8,118.8,0,1.8,0,3.7.1,5.5C177.5,504.4,125.6,478.6,106.5,464.5Zm237.1,34.7c-47,14-74.6,16.7-121.6,12.2v-.2c0-1.9,0-3.9-.1-5.8-.5-41.1-1.2-87.6-22.8-119.3a3,3,0,0,0-.5-.7l2.4-.8,9.5-3.1,16-5.2a8.23,8.23,0,0,0-.6,1.6c-.1.3-.1.6-.2.9a3.4,3.4,0,0,0-.1,1c0,.3-.1.7-.1,1v.4c0,10.3,10.2,24.7,24.5,29.2a23.87,23.87,0,0,0,7.3,1c5.3,0,10.9-1.4,14.7-4.6a10.92,10.92,0,0,0,4.1-7.4c4.8,6.1,9.3,7.3,13.2,7.3,1.5,0,2.9-.2,4.2-.3h.2c14.6-4.6,21.7-18.3,18.9-27.8,0-.1-.1-.2-.1-.3a4.87,4.87,0,0,0-.4-1.1,3,3,0,0,0-.4-.8l3.2,1.1,3.7,1.3a.31.31,0,0,1,.1.2c1.4,2.1,2.7,4,3.9,5.9,13.9,20.9,20.9,31.4,21,113.7v.6Zm52.5-25c-13.8,9.7-25.3,15.7-40.2,20.8-3.3,1.1-6.7,2.2-10.4,3.3-.1-82.4-7.2-93.1-21.3-114.3-.9-1.4-1.9-2.8-2.9-4.3,46.3,8.3,87.1,53.9,98.4,76.4C410.7,463.4,403.1,469.3,396.1,474.2Z"/></g></g></svg>