<svg xmlns="http://www.w3.org/2000/svg" viewBox="0 0 515 516.1"><title>Asset 3</title><g id="Layer_2" data-name="Layer 2"><g id="Слой_1" data-name="Слой 1"><path d="M515,257.8a257.65,257.65,0,0,1-123.4,220,77.25,77.25,0,0,0,7-5.3.76.76,0,0,0,.3-.9,1,1,0,0,0-.5-.8c-7.2-3.6-23.6-8.9-46.9-11h-.3c-7.4-.8-20-1.1-20.9-1.1a1.42,1.42,0,0,0-.6.2,222.55,222.55,0,0,0-22.5,1.1c-1.5-.2-18.2-3-19.1-12.9-.3-3.3-.5-9.3-.5-15.9,6,1.9,14.4-.6,18.9-2.6a13.59,13.59,0,0,0,2.8-1.8c2.1-1.6,3.4-2.6,14.1,1.8,13.4,5.4,14.8,4.6,21.4-3.7.6-.8,1.3-1.6,2-2.5,6.3-7.6,15.5-3.2,20.4-.8a14.93,14.93,0,0,0,2.6,1.1c3.9,1.1,17.4-10,21.5-19,.2-.2.8-.5,1.4-.9,4.2-2.6,12.8-8.1,12.8-13.3,0-5.5,1.2-7.5,5.8-10a33.41,33.41,0,0,1,3.8-1.7c3.9-1.6,8.4-3.5,11.6-9.6,2-3.8,1.7-5.3,1.1-7.3-.5-1.6-1.1-3.3,1.2-8.7,2.7-6.5,4-7,4.4-7.1,1-.4,1.1-1,1.1-2.3,0-3.1,0-9,3.2-21.6a23.08,23.08,0,0,1,4-9c1.9-2.7,2-3.8-.9-8.6-4.8-7.8-6.7-30.9-6.2-36.2.3-3.4-2-6.1-4.2-8.6a19.71,19.71,0,0,1-3.6-5.1c-1.4-3-1-3.9.3-6.7a40.59,40.59,0,0,0,2-5.3c1.9-6-2.2-8.5-7.9-11.9-2.1-1.3-4.5-2.8-7-4.6s-3.8-3.4-4-4.7c-.2-1.6,1.3-3.5,3.3-6.1a56.67,56.67,0,0,0,5-6.9c2.1-3.5,2.6-6.4,1.5-8.9-2.2-4.7-9.7-6.8-20.3-8.5-3.6-.6-4.6-1.4-4.9-1.9-.4-.9.8-2.7,2-4.6,2.1-3.2,4.8-7.3,3.7-12.2a12.58,12.58,0,0,0-6.5-9c-2-1.2-3.1-1.8-2.5-4.7,1.1-5.9-5.5-11.7-11.3-16.8a66.28,66.28,0,0,1-5.3-5c-3.9-4.3-11.5-1.9-18.2.1-3.3,1-6.4,2-8.4,1.8-2.7-.2-3.1-2.3-3.3-7.6a41.83,41.83,0,0,0-.8-7.6c-1.8-7.3-23.1-6.6-28.3-6.3-2.6-10.6-21.3-11.8-29.4-11.8a3.94,3.94,0,0,1-2.1-.6,10.37,10.37,0,0,0-4.9-1.1,39.59,39.59,0,0,0-10.1,1.7c-6.4,1.6-7.9,3-9.1,4-.9.8-1.5,1.3-4.4,1.8a31.18,31.18,0,0,1-8.6.1,28.7,28.7,0,0,0-7.8-.1c-2.6.4-4.9,2.3-7.1,4.2-3.8,3.2-5.8,4.4-7.9,2a10.84,10.84,0,0,0-9.5-3.4c-4.7.6-8.9,3.9-11.6,9.1-3,5.8-6,5.9-11.4,6.2a48.24,48.24,0,0,0-10.7,1.4c-5.5,1.4-9.1,4.6-12.3,7.4-4.1,3.7-7.1,6.3-12.5,4-7.3-3.2-16.9-1.1-22.8,2.2-3.7,2-5.9,4.4-6.3,6.8-.8,5.1-4,6-10.4,6-3.5,0-4.8,3.9-6.1,7.8-1.5,4.5-3.1,9.2-7.9,9a8.29,8.29,0,0,0-6.3,2.2c-4.3,4.2-4.3,12.9-4.3,17.6v.7c0,1.7-1.6,2.4-4.4,3.7-3.6,1.5-8.1,3.5-9.2,9.3-.7,3.8.1,7.6.9,11,1.2,5.5,2.2,9.8-3.1,12.9-7.3,4.2-8.1,9.6-9,15.9a58.47,58.47,0,0,1-1.5,7.5c-1.4,5-.1,8.6.8,11.2,1,2.8,1.4,4-.5,5.5-2.3,1.8-2.8,5.8-2.9,8.8-.2,6.9,2.1,16.8,5.6,19.9,2.8,2.5,2.7,3.6,2.3,9.6-.2,2.8-.4,6.6-.4,11.9,0,12.4,10.8,17,17.3,19.7,1.7.7,3.9,1.7,4.1,2.1,0,.5-.1,1.1-.1,1.7-.3,2.7-.7,6,3.4,16.8,2.5,6.6,4.2,7.6,5.8,8h.2c.3.5.3,3.7.3,4.7,0,6.7,2.3,7.7,5.5,8.4,1.7.4,3.4.8,4.6,3,1.9,3.3,1.6,3.9,1,5.1A9.58,9.58,0,0,0,112,395a4.38,4.38,0,0,0,1.3,3.2c3.1,3,10.9,3,17.2,2.9H133c1.8,0,3.1.4,3.9,1.3,1.6,1.7,1.3,5.4,1.1,9.3v.2a5.73,5.73,0,0,0,2.1,5.2c3,2.3,9,2.3,16.5-.1a10.58,10.58,0,0,1,9.4,1,12.3,12.3,0,0,1,5.2,7.7,3,3,0,0,0,1.3,2.5c1.5,1.1,4,.6,8.6-.3,2.1-.4,4.6-.9,7.7-1.4,6.5-1,6.7-.4,7.2,1a7.78,7.78,0,0,0,3.5,4.4c4.1,2.5,7,.5,10-1.8a19.54,19.54,0,0,1,6.7-3.6c6.8-1.7,13.3,1.8,15.3,5a4.35,4.35,0,0,0,.6.7v14.6c-.8,3.7-7,11.5-14.5,13-2.5.5-9.3.2-18-.2-4.4-.2-9.3-.4-14.4-.6a1.05,1.05,0,0,0-.9-.5H163.7a.91.91,0,0,0-.8.4c-20,.5-40.2,2.9-51.4,10.9C44.2,423.3,0,345.6,0,257.6,0,115.3,115.4,0,257.7,0,399.6.2,515,115.5,515,257.8Z" fill="#f2f2f2"/><path d="M440.1,311a26.17,26.17,0,0,0-4.3,9.7c-3.2,12.8-3.2,18.8-3.2,22v.5c-.9.4-2.5,1.3-5.4,8.2-2.5,6.1-1.8,8.3-1.3,10.1.4,1.4.8,2.4-1,5.7-2.9,5.5-6.7,7-10.7,8.7a33.89,33.89,0,0,0-3.9,1.8c-5.3,2.9-6.9,5.6-6.9,11.8,0,4.1-8.7,9.5-11.9,11.6-1.6,1-2.1,1.3-2.1,1.8-4.3,9.2-17,18.6-19.2,17.9a12.13,12.13,0,0,1-2.3-1c-5-2.4-15.6-7.5-22.8,1.3-.7.9-1.4,1.7-2,2.5-6.1,7.6-6.6,8.2-19.1,3.1-11.2-4.5-13.2-3.6-16.1-1.5a16.75,16.75,0,0,1-2.4,1.5c-3.5,1.6-12.5,4.5-18.1,2.3,0-9.4.1-19.6.3-25.4,13.6-7.1,24-18.6,31.1-28.9,14.7-21.2,21.7-46,19.3-52.4-.9-2.4-1.9-4.8-2.9-7-3.2-7.6-5.8-13.5-2.4-16.9s-.2-7.6-3.1-11c-2-2.3-4.1-4.7-3.5-6.1.3-.8.8-1.9,1.4-3.1,2.2-4.4,5.1-10.5,3.7-14.5a5.53,5.53,0,0,0-3-3.2c-3.6-1.7-6.1-.5-8.3.4-2.5,1.1-4.6,2-8.3-.4a27.65,27.65,0,0,1-7.9-7.7,24.31,24.31,0,0,0-5.7-5.9c-3-2-7.2-1.8-11.6-1.5-4.2.2-8.5.5-11.6-1.2s-3.5-4.2-4-6.8-.9-5.5-4.2-7.3c-2.6-1.4-5.8-1.7-8.9-2-4.3-.4-8.3-.9-9.7-3.9-2.8-6.1-12.7-11.6-13.1-11.8a1,1,0,0,0-1.4.7c-.6,3.6-4,11.8-12.3,17a1,1,0,0,0-.4.5c-2.1,5.4-8.6,15.8-18.2,16.2h-.2c-5.8,1.5-16.5,6.5-15.3,14.7a38,38,0,0,0,4.7,13.5c-2.1.2-4.9,1.5-7.7,5.3a41.17,41.17,0,0,1-3.3,4c-4.5,5.4-9.1,10.9-6.4,18.7.9,2.6,2,5,3,7.4,2.8,6.3,4.3,10.2,2,11.4-.6.3-2.2,1.1,0,10.4,4.1,17.2,20.2,56,51.9,71.6v25.5a17.14,17.14,0,0,0-12.2-5,19.15,19.15,0,0,0-4.1.5,20.75,20.75,0,0,0-7.4,3.9c-3.2,2.3-4.9,3.4-7.8,1.7a5.85,5.85,0,0,1-2.7-3.3c-.9-2.7-2.3-3.4-9.4-2.3-3.1.5-5.7,1-7.7,1.4-3.6.7-6.2,1.2-7,.6a1.49,1.49,0,0,1-.5-1.1c-.3-2.8-2.5-6.8-6.1-9.2a12.63,12.63,0,0,0-11.1-1.2c-6.8,2.2-12.2,2.3-14.6.4a3.56,3.56,0,0,1-1.3-3.5V412c.3-4.3.6-8.4-1.6-10.8-1.2-1.3-2.9-1.9-5.3-1.9h-2.5c-5.3.1-13.3.2-15.8-2.3a2.19,2.19,0,0,1-.7-1.7,7.59,7.59,0,0,1,.9-3.9c.9-1.7,1.3-2.9-1.1-7a7.93,7.93,0,0,0-6-4c-2.3-.5-3.9-.9-3.9-6.4,0-5-.2-6.2-2-6.7-.7-.2-2.1-.6-4.5-6.8-3.9-10.4-3.6-13.4-3.3-15.9a11.08,11.08,0,0,0,.2-1.9c0-1.6-2-2.5-5.3-3.9-6.4-2.7-16-6.9-16-17.9,0-5.3.2-9,.4-11.8.4-6.2.5-8.1-3-11.2-2.7-2.4-5.1-11.4-4.9-18.4.1-3.7.9-6.3,2.2-7.3,3.1-2.5,2.1-5.1,1.1-7.8-.9-2.5-2.1-5.6-.8-10a47.35,47.35,0,0,0,1.5-7.7c.9-6,1.6-10.7,8-14.4,6.6-3.8,5.3-9.5,4.1-15-.7-3.3-1.5-6.8-.9-10.2.9-4.8,4.7-6.4,8-7.9,2.9-1.3,5.6-2.4,5.6-5.5v-.6c0-4.1,0-12.6,3.7-16.2a6.19,6.19,0,0,1,4.8-1.7c6.3.3,8.3-5.6,9.9-10.4,1.3-4,2.3-6.4,4.2-6.4,5.7,0,11.3-.6,12.4-7.7.3-1.6,2.2-3.6,5.2-5.3,5.5-3,14.5-5,21.1-2.1s10.5-.6,14.6-4.3c3-2.7,6.4-5.7,11.4-7a49,49,0,0,1,10.3-1.4c5.5-.3,9.5-.5,13.1-7.3,2.4-4.6,6.1-7.5,10.1-8a8.74,8.74,0,0,1,7.8,2.8c3.7,4,7.4.9,10.7-1.9,2-1.7,4.1-3.4,6.1-3.7a25.34,25.34,0,0,1,7.3.1,27.91,27.91,0,0,0,9.1-.1c3.4-.6,4.3-1.4,5.4-2.3s2.4-2.1,8.3-3.6c9.7-2.5,12-1.5,13.7-.7a5.9,5.9,0,0,0,2.9.7c6.1,0,26,.8,27.6,11a1,1,0,0,0,1.1.8c12.4-.8,26.1.5,27.1,4.7a36.08,36.08,0,0,1,.8,7.2c.2,4.7.3,9.1,5.1,9.5,2.3.2,5.4-.8,9.1-1.9,6.1-1.9,13-4,16.1-.7a71.58,71.58,0,0,0,5.5,5.1c5.4,4.8,11.5,10.1,10.6,14.9-.8,4.2,1.4,5.5,3.4,6.8s4.6,2.8,5.6,7.7c.9,4.1-1.5,7.8-3.4,10.7-1.6,2.4-3,4.6-2.2,6.5.7,1.5,2.7,2.5,6.4,3.1,8.7,1.4,16.9,3.3,18.8,7.4.8,1.8.4,4.1-1.3,7a66.42,66.42,0,0,1-4.8,6.7c-2.4,2.9-4.1,5.1-3.7,7.6.2,1.9,1.7,3.8,4.8,6.1,2.6,1.9,5,3.4,7.2,4.7,5.8,3.5,8.4,5.3,7,9.6a41.92,41.92,0,0,1-2,5.1c-1.3,2.9-2,4.5-.3,8.3a28,28,0,0,0,3.9,5.6c2.1,2.4,3.9,4.5,3.7,7.1-.4,4.7,1.2,28.7,6.5,37.4C441.7,308.8,441.5,309.1,440.1,311Z" fill="#2d140f"/><path d="M328.8,460.9c-13.9,40-47.8,49.1-75.9,49.1a148.07,148.07,0,0,1-22.3-1.8c-26-4-40.6-31.5-45.2-47,4.9.2,9.6.4,13.8.5,9.2.4,15.8.7,18.5.2,8.6-1.6,15.3-10.4,16.1-14.6V404.7a64.7,64.7,0,0,0,26.9,5.7,57,57,0,0,0,25.2-5.8c-.2,5.7-.3,14.7-.3,23.2v2.4c0,7,.2,13.4.5,16.9.9,10,15.4,14,21,14.8h.2C314.8,461.3,322,461,328.8,460.9Z" fill="#c06e3d"/><path d="M396.1,472c-4.5,3.5-21.2,16-48.3,26.5-1.3-9,3.5-27.1,6.4-36.3C374.3,464.2,388.8,468.6,396.1,472Z" fill="#c06e3d"/><path d="M162.3,461.1a100.79,100.79,0,0,1-5.9,32.5,293.65,293.65,0,0,1-28-12.7c-8.3-4.3-13.9-7.7-16.2-9.2a3,3,0,0,1,.7-.5C123.8,463.9,143.1,461.6,162.3,461.1Z" fill="#c06e3d"/><path d="M345.8,499.1c0,.1.1.1,0,0-3.1,1.5-13.3,5.7-30.8,9.2-15.2,3.1-35.9,5.8-62.2,5.8H251a173,173,0,0,1-19.8-1.5h-.3c-32.3-4.2-66-15.7-72.8-18.4a102.06,102.06,0,0,0,6-33.2c6.5-.1,12.9,0,19,.1,4.5,15.8,19.6,44.8,47,49,29.9,4.6,82.5,4.3,100.7-49.3,6.9,0,13.3.3,19.3.8h.1c.6.1,1.2.1,1.8.2C349.1,471.6,344.4,490,345.8,499.1Z" fill="#f7c501"/><path d="M336.4,323.1c-.9-2.4-1.9-4.7-2.8-6.9-3.4-7.9-6.3-14.8-1.9-19.1,2-2,0-4.6-3.2-8.3-2.5-2.9-4.9-5.6-3.8-8.2.4-.9.9-2,1.5-3.2,1.9-3.9,4.8-9.7,3.6-13a3.13,3.13,0,0,0-1.9-2c-2.7-1.3-4.6-.5-6.7.5-2.6,1.2-5.6,2.5-10.2-.5a29.8,29.8,0,0,1-8.4-8.2,20.53,20.53,0,0,0-5.2-5.4c-2.4-1.6-6.3-1.4-10.4-1.2-4.4.2-9,.5-12.7-1.5-4-2.1-4.5-5.3-5-8.2-.4-2.5-.8-4.6-3.2-5.9-2.2-1.2-5.3-1.5-8.2-1.8-4.6-.5-9.5-1-11.3-5-1.7-3.7-7.2-7.9-11.1-10.2a29.94,29.94,0,0,1-12.6,16.8c-2.4,5.9-9.4,16.7-19.7,17.1-5.2,1.4-14.7,5.7-13.7,12.5a31.33,31.33,0,0,0,5.7,14.5,1.05,1.05,0,0,1,0,1.3.93.93,0,0,1-1.3.2c-.9-.5-4.1-.8-7.8,4.3-1,1.4-2.2,2.8-3.3,4.2-4.3,5.2-8.4,10-6.1,16.7a77.58,77.58,0,0,0,3,7.2c2.8,6.3,5.2,11.8,1.2,13.9-1,2.3,2.8,20.3,13.7,39.5,6.9,12.1,19.7,30.1,39.4,39.4.7.3,1.3.6,2,.9l2.1.9a60.63,60.63,0,0,0,22.6,4.2,56.19,56.19,0,0,0,25.3-6c.3-.2.7-.3,1-.5a4.67,4.67,0,0,1,1-.5c12.8-7,22.6-17.9,29.4-27.8C332.4,351.9,338.4,328.2,336.4,323.1ZM211.1,278.4a1.06,1.06,0,0,1-1.5-1.5c3.3-3.3,7.8-5,12-5.9a38.63,38.63,0,0,1,10.7-.7,1.1,1.1,0,1,1-.2,2.2,36.68,36.68,0,0,0-10,.6C218.1,273.9,214,275.5,211.1,278.4Zm19.3,32.3c-3.1.1-5.8-4.3-5.9-9.8s2.3-10,5.4-10,5.8,4.3,5.9,9.8S233.5,310.6,230.4,310.7Zm34.8,15.8c-4.2-6-5.9-16.4-6.1-21.1a1,1,0,0,1,.9-1,1.09,1.09,0,0,1,1.1.9c.3,4.5,1.8,14.5,5.8,20a6.68,6.68,0,0,1,1.3,6.1c-1.3,4.3-6.7,6.5-7.7,6.9-.1,0-.2.1-.3.1a.87.87,0,0,1-.9-.6,1,1,0,0,1,.6-1.3c2.7-1,5.8-3.2,6.5-5.6A5.75,5.75,0,0,0,265.2,326.5Zm16.2,27.1a34.12,34.12,0,0,1-6.6,10.9c-3.2,3.5-7.4,6.3-12.5,6.1a23.34,23.34,0,0,1-13.2-5.5c-3.5-2.9-6.1-6.7-6.8-10.2a.87.87,0,0,1,.4-.9.75.75,0,0,1,.9,0c3.6,2.2,10.5,3.8,17.8,3.8s14.5-1.5,18.6-5.2a.77.77,0,0,1,1-.1A1.1,1.1,0,0,1,281.4,353.6ZM296,302.7c-.8,5.4-3.9,9.4-7,9s-4.9-5.2-4.1-10.6,3.9-9.4,7-9S296.8,297.3,296,302.7Zm15-24.8a1.12,1.12,0,0,1-1.5.3,37.24,37.24,0,0,0-9-4.5,21.82,21.82,0,0,0-12.1-.9,1.08,1.08,0,0,1-.5-2.1c4.5-1.2,9.3-.4,13.4.9a34,34,0,0,1,9.6,4.8A1.08,1.08,0,0,1,311,277.9Z" fill="#c06e3d"/><path d="M296,302.7c-.8,5.4-3.9,9.4-7,9s-4.9-5.2-4.1-10.6,3.9-9.4,7-9S296.8,297.3,296,302.7Z"/><path d="M235.8,300.7c.1,5.5-2.3,10-5.4,10s-5.8-4.3-5.9-9.8,2.3-10,5.4-10S235.7,295.2,235.8,300.7Z"/><path d="M233.3,271.4a1.19,1.19,0,0,1-1.2,1,36.68,36.68,0,0,0-10,.6,22.23,22.23,0,0,0-11,5.3,1.06,1.06,0,0,1-1.5-1.5c3.3-3.3,7.8-5,12-5.9a38.63,38.63,0,0,1,10.7-.7A1,1,0,0,1,233.3,271.4Z" fill="#2d140f" fill-rule="evenodd"/><path d="M311,277.9a1.12,1.12,0,0,1-1.5.3,37.24,37.24,0,0,0-9-4.5,21.82,21.82,0,0,0-12.1-.9,1.08,1.08,0,0,1-.5-2.1c4.5-1.2,9.3-.4,13.4.9a34,34,0,0,1,9.6,4.8A1.08,1.08,0,0,1,311,277.9Z" fill="#2d140f" fill-rule="evenodd"/><path d="M268.1,331.4c-1.3,4.3-6.7,6.5-7.7,6.9-.1,0-.2.1-.3.1a.87.87,0,0,1-.9-.6,1,1,0,0,1,.6-1.3c2.7-1,5.8-3.2,6.5-5.6a5,5,0,0,0-1-4.4c-4.2-6-5.9-16.4-6.1-21.1a1,1,0,0,1,.9-1,1.09,1.09,0,0,1,1.1.9c.3,4.5,1.8,14.5,5.8,20A7.24,7.24,0,0,1,268.1,331.4Z"/><path d="M278.6,355.8a31.63,31.63,0,0,1-5.1,7.6c-3,3.3-6.8,5.7-11.2,5.5a21.85,21.85,0,0,1-12.2-5.1,18,18,0,0,1-5.6-7.4c4.2,1.9,10.5,3.1,16.9,3.1C267.6,359.6,274,358.5,278.6,355.8Z" fill="#ae5646" fill-rule="evenodd"/><path d="M440.9,303.6c-4.8-7.8-6.7-30.9-6.2-36.2.3-3.4-2-6.1-4.2-8.6a19.71,19.71,0,0,1-3.6-5.1c-1.4-3-1-3.9.3-6.7a40.59,40.59,0,0,0,2-5.3c1.9-6-2.2-8.5-7.9-11.9-2.1-1.3-4.5-2.8-7-4.6s-3.8-3.4-4-4.7c-.2-1.6,1.3-3.5,3.3-6.1a56.67,56.67,0,0,0,5-6.9c2.1-3.5,2.6-6.4,1.5-8.9-2.2-4.7-9.7-6.8-20.3-8.5-3.6-.6-4.6-1.4-4.9-1.9-.4-.9.8-2.7,2-4.6,2.1-3.2,4.8-7.3,3.7-12.2a12.58,12.58,0,0,0-6.5-9c-2-1.2-3.1-1.8-2.5-4.7,1.1-5.9-5.5-11.7-11.3-16.8a66.28,66.28,0,0,1-5.3-5c-3.9-4.3-11.5-1.9-18.2.1-3.3,1-6.4,2-8.4,1.8-2.7-.2-3.1-2.3-3.3-7.6a41.83,41.83,0,0,0-.8-7.6c-1.8-7.3-23.1-6.6-28.3-6.3-2.6-10.6-21.3-11.8-29.4-11.8a3.94,3.94,0,0,1-2.1-.6,10.37,10.37,0,0,0-4.9-1.1,39.59,39.59,0,0,0-10.1,1.7c-6.4,1.6-7.9,3-9.1,4-.9.8-1.5,1.3-4.4,1.8a31.18,31.18,0,0,1-8.6.1,28.7,28.7,0,0,0-7.8-.1c-2.6.4-4.9,2.3-7.1,4.2-3.8,3.2-5.8,4.4-7.9,2a10.84,10.84,0,0,0-9.5-3.4c-4.7.6-8.9,3.9-11.6,9.1-3,5.8-6,5.9-11.4,6.2a48.24,48.24,0,0,0-10.7,1.4c-5.5,1.4-9.1,4.6-12.3,7.4-4.1,3.7-7.1,6.3-12.5,4-7.3-3.2-16.9-1.1-22.8,2.2-3.7,2-5.9,4.4-6.3,6.8-.8,5.1-4,6-10.4,6-3.5,0-4.8,3.9-6.1,7.8-1.5,4.5-3.1,9.2-7.9,9a8.29,8.29,0,0,0-6.3,2.2c-4.3,4.2-4.3,12.9-4.3,17.6v.7c0,1.7-1.6,2.4-4.4,3.7-3.6,1.5-8.1,3.5-9.2,9.3-.7,3.8.1,7.6.9,11,1.2,5.5,2.2,9.8-3.1,12.9-7.3,4.2-8.1,9.6-9,15.9a58.47,58.47,0,0,1-1.5,7.5c-1.4,5-.1,8.6.8,11.2,1,2.8,1.4,4-.5,5.5-2.3,1.8-2.8,5.8-2.9,8.8-.2,6.9,2.1,16.8,5.6,19.9,2.8,2.5,2.7,3.6,2.3,9.6-.2,2.8-.4,6.6-.4,11.9,0,12.4,10.8,17,17.3,19.7,1.7.7,3.9,1.7,4.1,2.1,0,.5-.1,1.1-.1,1.7-.3,2.7-.7,6,3.4,16.8,2.5,6.6,4.2,7.6,5.8,8h.2c.3.5.3,3.7.3,4.7,0,6.7,2.3,7.7,5.5,8.4,1.7.4,3.4.8,4.6,3,1.9,3.3,1.6,3.9,1,5.1a9.58,9.58,0,0,0-1.1,4.8,4.38,4.38,0,0,0,1.3,3.2c3.1,3,10.9,3,17.2,2.9h2.5c1.8,0,3.1.4,3.9,1.3,1.6,1.7,1.3,5.4,1.1,9.3v.2a5.73,5.73,0,0,0,2.1,5.2c3,2.3,9,2.3,16.5-.1a10.58,10.58,0,0,1,9.4,1,12.3,12.3,0,0,1,5.2,7.7,3,3,0,0,0,1.3,2.5c1.5,1.1,4,.6,8.6-.3,2.1-.4,4.6-.9,7.7-1.4,6.5-1,6.7-.4,7.2,1a7.78,7.78,0,0,0,3.5,4.4c4.1,2.5,7,.5,10-1.8a19.54,19.54,0,0,1,6.7-3.6c6.8-1.7,13.3,1.8,15.3,5a4.35,4.35,0,0,0,.6.7v14.6c-.8,3.7-7,11.5-14.5,13-2.5.5-9.3.2-18-.2-4.4-.2-9.3-.4-14.4-.6a1.05,1.05,0,0,0-.9-.5H163.8a.91.91,0,0,0-.8.4c-20,.5-40.2,2.9-51.4,10.9a14.7,14.7,0,0,0-1.3,1,.91.91,0,0,0-.4.8,1.23,1.23,0,0,0,.4.8c.6.4,50.8,34,121.3,42a173,173,0,0,0,19.8,1.5h.1c3.3.1,6.6.2,9.9.2a239.08,239.08,0,0,0,54-6c.1,0,.3-.1.4-.1,19.4-4,30-8.7,31.8-9.6.1,0,.1-.1.2-.1a210.82,210.82,0,0,0,44-22.8,77.25,77.25,0,0,0,7-5.3.76.76,0,0,0,.3-.9,1,1,0,0,0-.5-.8c-7.2-3.6-23.6-8.9-46.9-11h-.3c-7.4-.8-20-1.1-20.9-1.1a1.42,1.42,0,0,0-.6.2,222.55,222.55,0,0,0-22.5,1.1c-1.5-.2-18.2-3-19.1-12.9-.3-3.3-.5-9.3-.5-15.9,6,1.9,14.4-.6,18.9-2.6a13.59,13.59,0,0,0,2.8-1.8c2.1-1.6,3.4-2.6,14.1,1.8,13.4,5.4,14.8,4.6,21.4-3.7.6-.8,1.3-1.6,2-2.5,6.3-7.6,15.5-3.2,20.4-.8a14.93,14.93,0,0,0,2.6,1.1c3.9,1.1,17.4-10,21.5-19,.2-.2.8-.5,1.4-.9,4.2-2.6,12.8-8.1,12.8-13.3,0-5.5,1.2-7.5,5.8-10a33.41,33.41,0,0,1,3.8-1.7c3.9-1.6,8.4-3.5,11.6-9.6,2-3.8,1.7-5.3,1.1-7.3-.5-1.6-1.1-3.3,1.2-8.7,2.7-6.5,4-7,4.4-7.1,1-.4,1.1-1,1.1-2.3,0-3.1,0-9,3.2-21.6a23.08,23.08,0,0,1,4-9C443.7,309.5,443.8,308.4,440.9,303.6ZM128.4,480.9c-8.3-4.3-13.9-7.7-16.2-9.2a3,3,0,0,1,.7-.5c10.9-7.3,30.2-9.6,49.4-10.1a100.79,100.79,0,0,1-5.9,32.5A293.65,293.65,0,0,1,128.4,480.9ZM396.1,472c-4.5,3.5-21.2,16-48.3,26.5-1.3-9,3.5-27.1,6.4-36.3C374.3,464.2,388.8,468.6,396.1,472Zm-65.2-11.1c6.9,0,13.3.3,19.3.8h.1c.6.1,1.2.1,1.8.2-3.1,9.7-7.8,28.1-6.3,37.2v.1c-3.1,1.4-13.3,5.6-30.8,9.1-15.2,3.1-35.9,5.8-62.2,5.8H251a173,173,0,0,1-19.8-1.5h-.3c-32.3-4.2-66-15.7-72.8-18.4a102.06,102.06,0,0,0,6-33.2c6.5-.1,12.9,0,19,.1,4.5,15.8,19.6,44.8,47,49C260.1,514.8,312.7,514.4,330.9,460.9ZM307,462h.2c7.6-.7,14.8-1,21.6-1.1-13.9,40-47.8,49.1-75.9,49.1a148.07,148.07,0,0,1-22.3-1.8c-26-4-40.6-31.5-45.2-47,4.9.2,9.6.4,13.8.5,9.2.4,15.8.7,18.5.2,8.6-1.6,15.3-10.4,16.1-14.6V404.7a64.7,64.7,0,0,0,26.9,5.7,57,57,0,0,0,25.2-5.8c-.2,5.7-.3,14.7-.3,23.2v2.4c0,7,.2,13.4.5,16.9C287,457.2,301.5,461.3,307,462ZM179.6,309.6c-1-2.3-2.1-4.8-3-7.2-2.3-6.7,1.8-11.6,6.1-16.7,1.1-1.4,2.3-2.7,3.3-4.2,3.7-5,6.9-4.8,7.8-4.3a1.23,1.23,0,0,0,1.3-.2,1.05,1.05,0,0,0,0-1.3c-1.5-1.8-4.6-7.2-5.7-14.5-1-6.8,8.5-11.1,13.7-12.5,10.3-.5,17.3-11.2,19.7-17.1a30.42,30.42,0,0,0,12.6-16.8c3.9,2.3,9.4,6.5,11.1,10.2,1.9,4,6.7,4.5,11.3,5,2.9.3,6,.6,8.2,1.8,2.4,1.3,2.8,3.4,3.2,5.9.5,2.9,1,6.1,5,8.2,3.7,2,8.3,1.7,12.7,1.5,4.1-.2,8-.4,10.4,1.2a20.46,20.46,0,0,1,5.2,5.4,29.8,29.8,0,0,0,8.4,8.2c4.6,3,7.6,1.7,10.2.5,2.1-.9,3.9-1.7,6.7-.5a3.38,3.38,0,0,1,1.9,2c1.2,3.3-1.7,9.1-3.6,13-.6,1.3-1.2,2.4-1.5,3.2-1,2.6,1.3,5.3,3.8,8.2,3.2,3.7,5.2,6.3,3.2,8.3-4.4,4.4-1.4,11.2,1.9,19.1,1,2.2,1.9,4.5,2.8,6.9,1.9,5.1-4,28.8-19.1,50.5-6.8,9.8-16.6,20.8-29.4,27.8a4.67,4.67,0,0,1-1,.5c-.3.2-.7.3-1,.5a56.19,56.19,0,0,1-25.3,6,62.7,62.7,0,0,1-22.6-4.2l-2.1-.9c-.7-.3-1.3-.6-2-.9-19.7-9.3-32.5-27.3-39.4-39.4-10.9-19.3-14.7-37.3-13.7-39.5C184.8,321.4,182.4,316,179.6,309.6ZM440.1,311a26.17,26.17,0,0,0-4.3,9.7c-3.2,12.8-3.2,18.8-3.2,22v.5c-.9.4-2.5,1.3-5.4,8.2-2.5,6.1-1.8,8.3-1.3,10.1.4,1.4.8,2.4-1,5.7-2.9,5.5-6.7,7-10.7,8.7a33.89,33.89,0,0,0-3.9,1.8c-5.3,2.9-6.9,5.6-6.9,11.8,0,4.1-8.7,9.5-11.9,11.6-1.6,1-2.1,1.3-2.1,1.8-4.3,9.2-17,18.6-19.2,17.9a12.13,12.13,0,0,1-2.3-1c-5-2.4-15.6-7.5-22.8,1.3-.7.9-1.4,1.7-2,2.5-6.1,7.6-6.6,8.2-19.1,3.1-11.2-4.5-13.2-3.6-16.1-1.5a16.75,16.75,0,0,1-2.4,1.5c-3.5,1.6-12.5,4.5-18.1,2.3,0-9.4.1-19.6.3-25.4,13.6-7.1,24-18.6,31.1-28.9,14.7-21.2,21.7-46,19.3-52.4-.9-2.4-1.9-4.8-2.9-7-3.2-7.6-5.8-13.5-2.4-16.9s-.2-7.6-3.1-11c-2-2.3-4.1-4.7-3.5-6.1.3-.8.8-1.9,1.4-3.1,2.2-4.4,5.1-10.5,3.7-14.5a5.53,5.53,0,0,0-3-3.2c-3.6-1.7-6.1-.5-8.3.4-2.5,1.1-4.6,2-8.3-.4a27.65,27.65,0,0,1-7.9-7.7,24.31,24.31,0,0,0-5.7-5.9c-3-2-7.2-1.8-11.6-1.5-4.2.2-8.5.5-11.6-1.2s-3.5-4.2-4-6.8-.9-5.5-4.2-7.3c-2.6-1.4-5.8-1.7-8.9-2-4.3-.4-8.3-.9-9.7-3.9-2.8-6.1-12.7-11.6-13.1-11.8a1,1,0,0,0-1.4.7c-.6,3.6-4,11.8-12.3,17a1,1,0,0,0-.4.5c-2.1,5.4-8.6,15.8-18.2,16.2h-.2c-5.8,1.5-16.5,6.5-15.3,14.7a38,38,0,0,0,4.7,13.5c-2.1.2-4.9,1.5-7.7,5.3a41.17,41.17,0,0,1-3.3,4c-4.5,5.4-9.1,10.9-6.4,18.7.9,2.6,2,5,3,7.4,2.8,6.3,4.3,10.2,2,11.4-.6.3-2.2,1.1,0,10.4,4.1,17.2,20.2,56,51.9,71.6v25.5a17.14,17.14,0,0,0-12.2-5,19.15,19.15,0,0,0-4.1.5,20.75,20.75,0,0,0-7.4,3.9c-3.2,2.3-4.9,3.4-7.8,1.7a5.85,5.85,0,0,1-2.7-3.3c-.9-2.7-2.3-3.4-9.4-2.3-3.1.5-5.7,1-7.7,1.4-3.6.7-6.2,1.2-7,.6a1.49,1.49,0,0,1-.5-1.1c-.3-2.8-2.5-6.8-6.1-9.2a12.63,12.63,0,0,0-11.1-1.2c-6.8,2.2-12.2,2.3-14.6.4a3.56,3.56,0,0,1-1.3-3.5V412c.3-4.3.6-8.4-1.6-10.8-1.2-1.3-2.9-1.9-5.3-1.9h-2.5c-5.3.1-13.3.2-15.8-2.3a2.19,2.19,0,0,1-.7-1.7,7.59,7.59,0,0,1,.9-3.9c.9-1.7,1.3-2.9-1.1-7a7.93,7.93,0,0,0-6-4c-2.3-.5-3.9-.9-3.9-6.4,0-5-.2-6.2-2-6.7-.7-.2-2.1-.6-4.5-6.8-3.9-10.4-3.6-13.4-3.3-15.9a11.08,11.08,0,0,0,.2-1.9c0-1.6-2-2.5-5.3-3.9-6.4-2.7-16-6.9-16-17.9,0-5.3.2-9,.4-11.8.4-6.2.5-8.1-3-11.2-2.7-2.4-5.1-11.4-4.9-18.4.1-3.7.9-6.3,2.2-7.3,3.1-2.5,2.1-5.1,1.1-7.8-.9-2.5-2.1-5.6-.8-10a47.35,47.35,0,0,0,1.5-7.7c.9-6,1.6-10.7,8-14.4,6.6-3.8,5.3-9.5,4.1-15-.7-3.3-1.5-6.8-.9-10.2.9-4.8,4.7-6.4,8-7.9,2.9-1.3,5.6-2.4,5.6-5.5v-.6c0-4.1,0-12.6,3.7-16.2a6.19,6.19,0,0,1,4.8-1.7c6.3.3,8.3-5.6,9.9-10.4,1.3-4,2.3-6.4,4.2-6.4,5.7,0,11.3-.6,12.4-7.7.3-1.6,2.2-3.6,5.2-5.3,5.5-3,14.5-5,21.1-2.1s10.5-.6,14.6-4.3c3-2.7,6.4-5.7,11.4-7a49,49,0,0,1,10.3-1.4c5.5-.3,9.5-.5,13.1-7.3,2.4-4.6,6.1-7.5,10.1-8a8.74,8.74,0,0,1,7.8,2.8c3.7,4,7.4.9,10.7-1.9,2-1.7,4.1-3.4,6.1-3.7a25.34,25.34,0,0,1,7.3.1,27.91,27.91,0,0,0,9.1-.1c3.4-.6,4.3-1.4,5.4-2.3s2.4-2.1,8.3-3.6c9.7-2.5,12-1.5,13.7-.7a5.9,5.9,0,0,0,2.9.7c6.1,0,26,.8,27.6,11a1,1,0,0,0,1.1.8c12.4-.8,26.1.5,27.1,4.7a36.08,36.08,0,0,1,.8,7.2c.2,4.7.3,9.1,5.1,9.5,2.3.2,5.4-.8,9.1-1.9,6.1-1.9,13-4,16.1-.7a71.58,71.58,0,0,0,5.5,5.1c5.4,4.8,11.5,10.1,10.6,14.9-.8,4.2,1.4,5.5,3.4,6.8s4.6,2.8,5.6,7.7c.9,4.1-1.5,7.8-3.4,10.7-1.6,2.4-3,4.6-2.2,6.5.7,1.5,2.7,2.5,6.4,3.1,8.7,1.4,16.9,3.3,18.8,7.4.8,1.8.4,4.1-1.3,7a66.42,66.42,0,0,1-4.8,6.7c-2.4,2.9-4.1,5.1-3.7,7.6.2,1.9,1.7,3.8,4.8,6.1,2.6,1.9,5,3.4,7.2,4.7,5.8,3.5,8.4,5.3,7,9.6a41.92,41.92,0,0,1-2,5.1c-1.3,2.9-2,4.5-.3,8.3a28,28,0,0,0,3.9,5.6c2.1,2.4,3.9,4.5,3.7,7.1-.4,4.7,1.2,28.7,6.5,37.4C441.7,308.8,441.5,309.1,440.1,311Z"/><path d="M281.1,352.6a.76.76,0,0,0-1,.1c-4.1,3.6-11.3,5.2-18.6,5.2s-14.2-1.6-17.8-3.8a.75.75,0,0,0-.9,0,1,1,0,0,0-.4.9c.7,3.5,3.2,7.3,6.8,10.2a23.05,23.05,0,0,0,13.2,5.5c5.1.3,9.3-2.5,12.5-6.1a35.22,35.22,0,0,0,6.6-10.9A1.5,1.5,0,0,0,281.1,352.6Zm-18.7,16.3a21.85,21.85,0,0,1-12.2-5.1,18,18,0,0,1-5.6-7.4c4.2,1.9,10.5,3.1,16.9,3.1,6.2,0,12.6-1.1,17.2-3.8a31.63,31.63,0,0,1-5.1,7.6C270.5,366.7,266.8,369.1,262.4,368.9Z"/></g></g></svg>