<svg xmlns="http://www.w3.org/2000/svg" viewBox="0 0 515.4 514.3"><title>Asset 12</title><g id="Layer_2" data-name="Layer 2"><g id="Слой_1" data-name="Слой 1"><path d="M188.3,401.3q-.45,1.5-.9,2.7l1.3-.3A15,15,0,0,1,188.3,401.3Zm0,0q-.45,1.5-.9,2.7l1.3-.3A15,15,0,0,1,188.3,401.3Zm0,0q-.45,1.5-.9,2.7l1.3-.3A15,15,0,0,1,188.3,401.3Zm0,0q-.45,1.5-.9,2.7l1.3-.3A15,15,0,0,1,188.3,401.3Zm0,0q-.45,1.5-.9,2.7l1.3-.3A15,15,0,0,1,188.3,401.3Zm0,0q-.45,1.5-.9,2.7l1.3-.3A15,15,0,0,1,188.3,401.3Zm0,0q-.45,1.5-.9,2.7l1.3-.3A15,15,0,0,1,188.3,401.3ZM177,402.7c-1.1,2-2,3.5-2.8,4.8,1.2-.3,2.3-.7,3.4-1C177.4,405.3,177.2,404,177,402.7Zm11.3-1.4q-.45,1.5-.9,2.7l1.3-.3A15,15,0,0,1,188.3,401.3Zm0,0q-.45,1.5-.9,2.7l1.3-.3A15,15,0,0,1,188.3,401.3Zm0,0q-.45,1.5-.9,2.7l1.3-.3A15,15,0,0,1,188.3,401.3Zm0,0q-.45,1.5-.9,2.7l1.3-.3A15,15,0,0,1,188.3,401.3Zm0,0q-.45,1.5-.9,2.7l1.3-.3A15,15,0,0,1,188.3,401.3Zm0,0q-.45,1.5-.9,2.7l1.3-.3A15,15,0,0,1,188.3,401.3Z" fill="#f2f2f2"/><path d="M409.9,464.9a259.39,259.39,0,0,1-267.3,22.5c25.3,12.3,63.2,25.5,109.2,25.5,49.9,0,92.6-14.7,119.7-27.1A283.76,283.76,0,0,0,409.9,464.9Z" fill="#fff"/><path d="M515.4,257.7a255.4,255.4,0,0,1-96.3,200.2.76.76,0,0,0-.2-.5c-5.5-6.5-36.3-36.8-48.4-41.3-3.8-1.4-10.8-3.5-19.6-5.8.4-2.7.8-6.7,1.1-12.7,6.2,15.7,7.6,15.3,8.4,15,1.3-.4,2.5-3.8,3.3-10,4.5,7.5,6,6.9,6.6,6.7a1,1,0,0,0,.6-.9c.1-2.8.2-6,.3-9.4.7-26,2-69.6-1.8-109.5-.6-6-1.2-11.7-2-17.1,5.9-34.5,3.3-84.1-23-116.1-18.2-22.1-45.2-33.3-80.2-33.3-35.2,0-62.6,11.3-81.6,33.5-28.3,33.1-31.9,85.2-26.3,119.6a.76.76,0,0,0,.2.5c-4.6,34.4-7.3,77.9-9.4,131.6a1,1,0,0,0,.8,1c.6.1,1.8.4,8.7-8.7-1.1,10.1.6,10.4,1.3,10.5,1.3.2,3.3-1.6,5.9-5.5a45.38,45.38,0,0,0,2.1,4.5c-6.6,2.3-13.4,4.9-20.3,7.9-17.7,7.7-33.5,20.8-44,29.5-3.3,2.7-6.1,5.1-8.2,6.6a1.23,1.23,0,0,0-.4.8.75.75,0,0,0,.1.5A255.6,255.6,0,0,1,0,257.5C.1,115.4,115.5,0,257.8,0S515.4,115.4,515.4,257.7Z" fill="#f2f2f2"/><path d="M366.4,265.7c-5.5-34.3-15.2-56.8-28.8-67,0-13.2-4.8-31.9-18.3-45.6-11.9-12-28.2-18-48.6-18a88.56,88.56,0,0,0-50.8,15.7c-11.2,7.9-19.3,18.3-20.3,25.9-22.3,11.5-34.7,41.3-42.2,93.4-4.1-33.8.4-81.3,26.7-112.1,18.6-21.8,45.5-32.8,80.1-32.8,34.4,0,60.9,11,78.7,32.6C367.2,187.1,370.9,232.1,366.4,265.7Z" fill="#4377a5"/><path d="M369.2,398.9c-.1,2.8-.2,5.3-.2,7.7a52.63,52.63,0,0,1-5-7.6,1,1,0,0,0-1.1-.5,1,1,0,0,0-.8.9c-.5,4.3-1.4,9.2-2.1,10.8-1.5-2.1-5.1-10.4-7.9-18.1a.91.91,0,0,0-1.1-.6,1,1,0,0,0-.8,1,154.31,154.31,0,0,1-1.2,17.2c-2.7-.7-5.5-1.4-8.5-2.1a12.67,12.67,0,0,1-1.1-1.3.91.91,0,0,0-1-.3,1.12,1.12,0,0,0-.8.7.37.37,0,0,1-.1.3c-16.2-3.7-35.2-7.1-51.2-7.7-1.9-10.4-2.1-16.6-.9-25.5,37-15,56.7-65.8,57.7-96.8v-2.5c0-28.7-9.6-51.2-15-59.5,6.9-25-8.6-44.6-18.9-52.3a1,1,0,1,0-1.2,1.6c9.9,7.4,24.8,26.2,18.2,50.2-18.8,22.7-52.1,24.6-68.8,22.1-2.2-.3-3.7-.4-4.7-.5H252c0-.1.1-.2.1-.3.7-1.8,2.2-5.8,2.2-14.6,0-2.9-.2-6.3-.6-10.4-2.6-25.6-31.9-31.3-47-30.8a1.08,1.08,0,0,0-1,1c0,20.5-6.1,31.4-12.5,42.8-7,12.3-14.1,25-14.1,50.7V277c.5,24.3,8.8,48.9,22.9,67.8,8.6,11.5,18.8,20.2,30.1,25.8,1.2,10.7,1.1,17.1-.4,28.6h-2.2a191.17,191.17,0,0,0-38.9,4.1c-.4-2.1-.8-4.3-1.1-6.4a1.06,1.06,0,0,0-.9-.9,1,1,0,0,0-1,.7c-.8,2.6-1.8,5.4-2.7,7.9-1.8.4-3.6.9-5.4,1.4-.4-2-.7-4.3-1-6.6a1.06,1.06,0,0,0-.8-.9,1,1,0,0,0-1.1.5c-1.8,3.4-3.9,7-5.5,9.4-1.1.3-2.1.7-3.2,1A39.57,39.57,0,0,1,165,403a.84.84,0,0,0-.8-.6,1,1,0,0,0-1,.5,32.54,32.54,0,0,1-4.8,6.1c-.4-1.6-.1-7.2.6-11.9a1,1,0,0,0-.6-1.1,1.1,1.1,0,0,0-1.2.3,109.69,109.69,0,0,1-8.1,10c2.4-57.3,5.3-98.4,9.4-129.4,0-.3.1-.7.1-1s.1-.7.1-1c1.5-11.1,3.2-20.8,5-29.6,7.9-37.6,19.3-58.3,37.2-67.3a1,1,0,0,0,.5-.8c1.2-13.9,29-40.3,69.1-40.3,19.9,0,35.7,5.9,47.2,17.5,13.3,13.4,17.9,31.9,17.7,44.7a1.23,1.23,0,0,0,.4.8c16.1,11.7,24.8,40,29.3,72.6.1,1,.3,2.1.4,3.2.1.4.1.8.2,1.2C371.4,320.4,370,370.3,369.2,398.9Z" fill="#1eb0b4"/><path d="M416.6,457.8c-8.3,6-75.8,53.2-164.9,53.2-49.5,0-89.5-15.4-114.4-28.3-23.3-12.1-38-24.4-41.7-27.6,2-1.5,4.5-3.6,7.3-5.9,5.2-4.3,11.7-9.7,19.1-15A136.57,136.57,0,0,1,146.4,420c7.1-3.1,14-5.8,20.7-8,.3-.1.7-.2,1-.3a24.13,24.13,0,0,1,2.5-.8,10.93,10.93,0,0,1,1.7-.5c1.9-.6,3.8-1.1,5.6-1.7l1-.3c.3-.1.6-.2,1-.3,1.4-.4,2.8-.7,4.1-1.1l1.2-.3,1.2-.3,2.5-.6a3.55,3.55,0,0,1,1-.2c.3-.1.7-.1,1-.2a182.28,182.28,0,0,1,40.8-4.1c1.2,1.7,3.6,8.4,6.6,17.5.1.3.2.7.3,1s.2.7.3,1c6,18.4,14.1,45.2,19,62a1,1,0,0,0,1,.7,1.09,1.09,0,0,0,1-.7c3.8-13.5,12-41.3,18.3-60.8.1-.3.2-.7.3-1s.2-.7.3-1c3.2-9.7,5.9-17,7.2-18.8,15.8.7,34.6,4,50.7,7.6a3.55,3.55,0,0,0,1,.2,3.55,3.55,0,0,0,1,.2,4.33,4.33,0,0,1,.5.1c.6.1,1.2.3,1.8.4s1.3.3,1.9.5c1.9.5,3.7.9,5.5,1.4.3.1.6.2,1,.3l.9.3c8.6,2.3,15.5,4.4,19.3,5.8C380.7,422,408.9,449,416.6,457.8Z" fill="#ffd14a"/><path d="M284.5,400.3c-.2.3-.3.6-.5.9-1.6,3.1-4.2,10.1-7.1,18.8-.1.3-.2.7-.3,1s-.2.7-.3,1c-6.5,20-14.5,47.4-17.2,56.9-2.8-9.7-11.2-38-17.8-58-.1-.3-.2-.7-.3-1s-.2-.7-.3-1c-2.7-8.2-5-14.7-6.5-17.6a3.6,3.6,0,0,0-.5-.9v-.1c0-.3.1-.7.1-1a107.08,107.08,0,0,0,.5-27.6,70.38,70.38,0,0,0,29.4,6.4,57.81,57.81,0,0,0,19.7-3.4c-1.1,8.4-.8,14.6,1,24.6,0,.2.1.6.1,1Z" fill="#fec2a9"/><path d="M326.9,216.8c-19.6,22.4-52.9,24.3-69.8,21.8-2.1-.3-3.6-.4-4.5-.5-1.3-.1-2.1-.1-2.5-.8s-.2-1.3.2-2.2c.9-2.3,3.1-8.3,1.5-24.1-2.4-23.6-29.3-29.3-44-29-.2,20.4-6.3,31.3-12.8,42.8-6.8,12.1-13.9,24.6-13.9,49.7V277c.8,37.5,20.9,76.5,52.5,92,.7.3,1.4.7,2.1,1s1.6.7,2.3,1a67.38,67.38,0,0,0,25.5,5,54.71,54.71,0,0,0,20-3.7c.4-.1.7-.3,1.1-.4s.7-.3,1.1-.4c35.4-15.1,54.2-64.3,55.2-94.5v-2.5C341.1,247.1,332.2,225.4,326.9,216.8ZM213.1,245.3a1.06,1.06,0,0,1-1.5-1.5c3.3-3.3,7.8-5,12-5.9a38.63,38.63,0,0,1,10.7-.7,1.1,1.1,0,1,1-.2,2.2,36.85,36.85,0,0,0-10,.6A21.83,21.83,0,0,0,213.1,245.3Zm23,29.7a8.65,8.65,0,0,1-.7,1,5.24,5.24,0,0,1-1.1,1,3.72,3.72,0,0,1-2,.7,3.6,3.6,0,0,1-2.2-.7,5.24,5.24,0,0,1-1.1-1,3.59,3.59,0,0,1-.7-1,14.86,14.86,0,0,1-1.9-7.1c-.1-5.5,2.3-10,5.4-10s5.8,4.3,5.9,9.8A13.62,13.62,0,0,1,236.1,275Zm31.1,18.5c-3.1-4.4-4.8-11.3-5.6-16.5,0-.3-.1-.7-.1-1s-.1-.7-.1-1c-.1-1-.2-1.9-.2-2.6a1,1,0,0,1,.9-1,1.09,1.09,0,0,1,1.1.9,15.75,15.75,0,0,0,.3,2.8c0,.3.1.7.1,1s.1.7.1,1c.8,4.9,2.4,11.3,5.2,15.3a6.68,6.68,0,0,1,1.3,6.1c-1.3,4.3-6.7,6.5-7.8,6.9-.1,0-.2.1-.3.1a1,1,0,0,1-.9-.7,1,1,0,0,1,.6-1.3c2.7-1,5.8-3.1,6.5-5.6A5.29,5.29,0,0,0,267.2,293.5Zm16.2,27.1a34.12,34.12,0,0,1-6.6,10.9c-3.2,3.5-7.4,6.3-12.5,6a23.34,23.34,0,0,1-13.2-5.5c-3.6-3-6.1-6.7-6.8-10.2a.87.87,0,0,1,.4-.9.75.75,0,0,1,.9,0c3.6,2.2,10.5,3.8,17.8,3.8s14.5-1.5,18.6-5.2a.77.77,0,0,1,1-.1A1.2,1.2,0,0,1,283.4,320.6Zm14.5-50.9a13.83,13.83,0,0,1-1.8,5.3c-.2.3-.4.7-.6,1a8.74,8.74,0,0,1-.8,1,4.91,4.91,0,0,1-3.8,1.7,4,4,0,0,1-2.6-1.7,8.79,8.79,0,0,1-.6-1,4.18,4.18,0,0,1-.4-1,14.47,14.47,0,0,1-.5-7c.8-5.4,4-9.4,7-9S298.7,264.3,297.9,269.7ZM313,244.8a1.12,1.12,0,0,1-1.5.3,35.42,35.42,0,0,0-9-4.5,22.11,22.11,0,0,0-12.2-.9,1,1,0,0,1-1.3-.8,1.07,1.07,0,0,1,.8-1.3c4.5-1.2,9.3-.4,13.4.9a34,34,0,0,1,9.6,4.8A1.19,1.19,0,0,1,313,244.8Z" fill="#fec2a9"/><path d="M297.9,269.7a13.83,13.83,0,0,1-1.8,5.3c-.2.3-.4.7-.6,1a8.74,8.74,0,0,1-.8,1,4.91,4.91,0,0,1-3.8,1.7,4,4,0,0,1-2.6-1.7,8.79,8.79,0,0,1-.6-1,4.18,4.18,0,0,1-.4-1,14.47,14.47,0,0,1-.5-7c.8-5.4,4-9.4,7-9S298.7,264.3,297.9,269.7Z"/><path d="M237.8,267.7a13.39,13.39,0,0,1-1.7,7.3,8.65,8.65,0,0,1-.7,1,5.24,5.24,0,0,1-1.1,1,3.72,3.72,0,0,1-2,.7,3.6,3.6,0,0,1-2.2-.7,5.24,5.24,0,0,1-1.1-1,3.59,3.59,0,0,1-.7-1,14.86,14.86,0,0,1-1.9-7.1c-.1-5.5,2.3-10,5.4-10S237.6,262.2,237.8,267.7Z"/><path d="M235.3,238.4a1.19,1.19,0,0,1-1.2,1,36.85,36.85,0,0,0-10,.6,22.23,22.23,0,0,0-11,5.3,1.06,1.06,0,0,1-1.5-1.5c3.3-3.3,7.8-5,12-5.9a38.63,38.63,0,0,1,10.7-.7A1.19,1.19,0,0,1,235.3,238.4Z" fill-rule="evenodd"/><path d="M313,244.8a1.12,1.12,0,0,1-1.5.3,35.42,35.42,0,0,0-9-4.5,22.11,22.11,0,0,0-12.2-.9,1,1,0,0,1-1.3-.8,1.07,1.07,0,0,1,.8-1.3c4.5-1.2,9.3-.4,13.4.9a34,34,0,0,1,9.6,4.8A1.19,1.19,0,0,1,313,244.8Z" fill-rule="evenodd"/><path d="M270.1,298.4c-1.3,4.3-6.7,6.5-7.8,6.9-.1,0-.2.1-.3.1a1,1,0,0,1-.9-.7,1,1,0,0,1,.6-1.3c2.7-1,5.8-3.1,6.5-5.6a5,5,0,0,0-1-4.4c-3.1-4.4-4.8-11.3-5.6-16.5,0-.3-.1-.7-.1-1s-.1-.7-.1-1c-.1-1-.2-1.9-.2-2.6a1,1,0,0,1,.9-1,1.09,1.09,0,0,1,1.1.9,15.75,15.75,0,0,0,.3,2.8c0,.3.1.7.1,1s.1.7.1,1c.8,4.9,2.4,11.3,5.2,15.3A6.92,6.92,0,0,1,270.1,298.4Z"/><path d="M283,319.6a.76.76,0,0,0-1,.1c-4.1,3.6-11.3,5.2-18.6,5.2s-14.2-1.6-17.8-3.8a.75.75,0,0,0-.9,0,1,1,0,0,0-.4.9c.6,3.5,3.2,7.3,6.8,10.2a23.05,23.05,0,0,0,13.2,5.5c5.1.3,9.3-2.5,12.5-6a37.28,37.28,0,0,0,6.6-10.9C283.5,320.2,283.4,319.8,283,319.6Zm-18.6,16.3a21.85,21.85,0,0,1-12.2-5.1,19.22,19.22,0,0,1-5.7-7.4c4.2,1.9,10.5,3.1,16.9,3.1,6.2,0,12.6-1.1,17.2-3.8a31.63,31.63,0,0,1-5.1,7.6C272.5,333.7,268.7,336.1,264.4,335.9Z" fill-rule="evenodd"/><path d="M280.6,322.8a31.63,31.63,0,0,1-5.1,7.6c-3,3.3-6.8,5.7-11.2,5.5a21.85,21.85,0,0,1-12.2-5.1,19.22,19.22,0,0,1-5.7-7.4c4.2,1.9,10.5,3.1,16.9,3.1S276,325.5,280.6,322.8Z" fill="#ae5646" fill-rule="evenodd"/><path d="M418.9,457.4c-5.5-6.5-36.3-36.8-48.4-41.3-3.8-1.4-10.8-3.5-19.6-5.8.4-2.7.8-6.7,1.1-12.7,6.2,15.7,7.6,15.3,8.4,15,1.3-.4,2.5-3.8,3.3-10,4.5,7.5,6,6.9,6.6,6.7a1,1,0,0,0,.6-.9c.1-2.8.2-6,.3-9.4.7-26,2-69.6-1.8-109.5-.6-6-1.2-11.7-2-17.1,5.9-34.5,3.3-84.1-23-116.1-18.2-22.1-45.2-33.3-80.2-33.3-35.2,0-62.6,11.3-81.6,33.5-28.3,33.1-31.9,85.2-26.3,119.6a.76.76,0,0,0,.2.5c-4.6,34.4-7.3,77.9-9.4,131.6a1,1,0,0,0,.8,1c.6.1,1.8.4,8.7-8.7-1.1,10.1.6,10.4,1.3,10.5,1.3.2,3.3-1.6,5.9-5.5a45.38,45.38,0,0,0,2.1,4.5c-6.6,2.3-13.4,4.9-20.3,7.9-17.7,7.7-33.5,20.8-44,29.5-3.3,2.7-6.1,5.1-8.2,6.6a1.23,1.23,0,0,0-.4.8.75.75,0,0,0,.1.5c0,.1.1.2.2.3s15.8,14.5,43,28.7c2,1,4,2.1,6.2,3.1,25.3,12.3,63.2,25.5,109.2,25.5,49.9,0,92.6-14.7,119.7-27.1a301.66,301.66,0,0,0,38.5-21c3.1-2.3,6.2-4.6,9.2-7A.76.76,0,0,0,418.9,457.4ZM184.1,157.8C202.7,136,229.6,125,264.2,125c34.4,0,60.9,11,78.7,32.6,24.3,29.5,28,74.5,23.5,108.1-5.5-34.3-15.2-56.8-28.8-67,0-13.2-4.8-31.9-18.3-45.6-11.9-12-28.2-18-48.6-18a88.56,88.56,0,0,0-50.8,15.7c-11.2,7.9-19.3,18.3-20.3,25.9-22.3,11.5-34.7,41.3-42.2,93.4C153.3,236.1,157.9,188.7,184.1,157.8ZM165,403.2a.84.84,0,0,0-.8-.6,1,1,0,0,0-1,.5,32.54,32.54,0,0,1-4.8,6.1c-.4-1.6-.1-7.2.6-11.9a1,1,0,0,0-.6-1.1,1.1,1.1,0,0,0-1.2.3,109.69,109.69,0,0,1-8.1,10c2.4-57.3,5.3-98.4,9.4-129.4,0-.3.1-.7.1-1s.1-.7.1-1c1.5-11.1,3.2-20.8,5-29.6,7.9-37.6,19.3-58.3,37.2-67.3a1,1,0,0,0,.5-.8c1.2-13.9,29-40.3,69.1-40.3,19.9,0,35.7,5.9,47.2,17.5,13.3,13.4,17.9,31.9,17.7,44.7a1.23,1.23,0,0,0,.4.8c16.1,11.7,24.8,40,29.3,72.6.1,1,.3,2.1.4,3.2.1.4.1.8.2,1.2,5.5,43.4,4.1,93.3,3.3,121.9-.1,2.8-.2,5.3-.2,7.7a52.63,52.63,0,0,1-5-7.6,1,1,0,0,0-1.1-.5,1,1,0,0,0-.8.9c-.5,4.3-1.4,9.2-2.1,10.8-1.5-2.1-5.1-10.4-7.9-18.1a.91.91,0,0,0-1.1-.6,1,1,0,0,0-.8,1,154.31,154.31,0,0,1-1.2,17.2c-2.7-.7-5.5-1.4-8.5-2.1a12.67,12.67,0,0,1-1.1-1.3.91.91,0,0,0-1-.3,1.12,1.12,0,0,0-.8.7.37.37,0,0,1-.1.3c-16.2-3.7-35.2-7.1-51.2-7.7-1.9-10.4-2.1-16.6-.9-25.5,37.2-15.1,56.9-65.9,57.9-96.9v-2.5c0-28.7-9.6-51.2-15-59.5,6.9-25-8.6-44.6-18.9-52.3a1,1,0,1,0-1.2,1.6c9.9,7.4,24.8,26.2,18.2,50.2-18.8,22.7-52.1,24.6-68.8,22.1-2.2-.3-3.7-.4-4.7-.5H252c0-.1.1-.2.1-.3.7-1.8,2.2-5.8,2.2-14.6,0-2.9-.2-6.3-.6-10.4-2.6-25.6-31.9-31.3-47-30.8a1.08,1.08,0,0,0-1,1c0,20.5-6.1,31.4-12.5,42.8-7,12.3-14.1,25-14.1,50.7V277c.5,24.3,8.8,48.9,22.9,67.8,8.6,11.5,18.8,20.2,30.1,25.8,1.2,10.7,1.1,17.1-.4,28.6h-2.2a191.17,191.17,0,0,0-38.9,4.1c-.4-2.1-.8-4.3-1.1-6.4a1.06,1.06,0,0,0-.9-.9,1,1,0,0,0-1,.7c-.8,2.6-1.8,5.4-2.7,7.9-1.8.4-3.6.9-5.4,1.4-.4-2-.7-4.3-1-6.6a1.06,1.06,0,0,0-.8-.9,1,1,0,0,0-1.1.5c-1.8,3.4-3.9,7-5.5,9.4-1.1.3-2.1.7-3.2,1A41.13,41.13,0,0,1,165,403.2Zm69.3-31.6a70.38,70.38,0,0,0,29.4,6.4,57.81,57.81,0,0,0,19.7-3.4c-1.1,8.4-.8,14.6,1,24.6.1.3.1.7.2,1v.1c-.2.3-.3.6-.5.9-1.6,3.1-4.2,10.1-7.1,18.8-.1.3-.2.7-.3,1s-.2.7-.3,1c-6.5,20-14.5,47.4-17.2,56.9-2.8-9.7-11.2-38-17.8-58-.1-.3-.2-.7-.3-1s-.2-.7-.3-1c-2.7-8.2-5-14.7-6.5-17.6a3.6,3.6,0,0,0-.5-.9v-.1c0-.3.1-.7.1-1C235.2,388.1,235.3,381.6,234.3,371.6Zm49.4.7a55.1,55.1,0,0,1-20,3.7,67.38,67.38,0,0,1-25.5-5c-.8-.3-1.6-.7-2.3-1s-1.4-.7-2.1-1c-31.7-15.5-51.7-54.5-52.5-92v-2.5c0-25.1,7-37.6,13.9-49.7,6.5-11.5,12.6-22.4,12.8-42.8,14.7-.3,41.6,5.4,44,29,1.6,15.8-.6,21.8-1.5,24.1-.3.9-.6,1.6-.2,2.2s1.2.7,2.5.8a37.36,37.36,0,0,1,4.5.5c16.8,2.5,50.2.6,69.8-21.8,5.3,8.7,14.2,30.3,14.2,57.8v2.5c-1,30.1-19.8,79.4-55.2,94.5-.4.1-.7.3-1.1.4A13,13,0,0,0,283.7,372.3Zm-95,31.4c-.5.1-.9.2-1.3.3.3-.8.6-1.8.9-2.7A15,15,0,0,0,188.7,403.7Zm-11.1,2.8c-1.1.3-2.3.7-3.4,1,.8-1.3,1.7-2.9,2.8-4.8C177.2,404,177.4,405.3,177.6,406.5ZM251.8,511c-49.5,0-89.5-15.4-114.4-28.3-23.3-12.1-38-24.4-41.7-27.6,2-1.5,4.5-3.6,7.3-5.9,5.2-4.3,11.7-9.7,19.1-15A136.57,136.57,0,0,1,146.5,420c7.1-3.1,14-5.8,20.7-8,.3-.1.7-.2,1-.3a24.13,24.13,0,0,1,2.5-.8,10.93,10.93,0,0,1,1.7-.5c1.9-.6,3.8-1.1,5.6-1.7l1-.3c.3-.1.6-.2,1-.3,1.4-.4,2.8-.7,4.1-1.1l1.2-.3,1.2-.3,2.5-.6a3.55,3.55,0,0,1,1-.2c.3-.1.7-.1,1-.2a182.28,182.28,0,0,1,40.8-4.1c1.2,1.7,3.6,8.4,6.6,17.5.1.3.2.7.3,1s.2.7.3,1c6,18.4,14.1,45.2,19,62a1,1,0,0,0,1,.7,1.09,1.09,0,0,0,1-.7c3.8-13.5,12-41.3,18.3-60.8.1-.3.2-.7.3-1s.2-.7.3-1c3.2-9.7,5.9-17,7.2-18.8,15.8.7,34.6,4,50.7,7.6a3.55,3.55,0,0,0,1,.2,3.55,3.55,0,0,0,1,.2,4.33,4.33,0,0,1,.5.1c.6.1,1.2.3,1.8.4s1.3.3,1.9.5c1.9.5,3.7.9,5.5,1.4.3.1.6.2,1,.3l.9.3c8.6,2.3,15.5,4.4,19.3,5.8,11,4.1,39.2,31.1,46.9,39.9C408.4,463.9,340.9,511,251.8,511Z"/></g></g></svg>