<svg xmlns="http://www.w3.org/2000/svg" viewBox="0 0 515.2 514.7"><title>Asset 1</title><g id="Layer_2" data-name="Layer 2"><g id="Слой_1" data-name="Слой 1"><path d="M172.2,301.5h.3A.19.19,0,0,1,172.2,301.5Zm172.5,0h.2C344.8,301.6,344.8,301.5,344.7,301.5Zm0,0h.2C344.8,301.6,344.8,301.5,344.7,301.5Zm-172.5,0h.3A.19.19,0,0,1,172.2,301.5Zm0,0h.3A.19.19,0,0,1,172.2,301.5Zm172.5,0h.2C344.8,301.6,344.8,301.5,344.7,301.5Zm0,0h.2C344.8,301.6,344.8,301.5,344.7,301.5Zm-172.5,0h.3A.19.19,0,0,1,172.2,301.5Zm0,0h.3A.19.19,0,0,1,172.2,301.5Zm172.5,0h.2C344.8,301.6,344.8,301.5,344.7,301.5Zm0,0h.2C344.8,301.6,344.8,301.5,344.7,301.5Zm-172.5,0h.3A.19.19,0,0,1,172.2,301.5Zm0,0h.3A.19.19,0,0,1,172.2,301.5Zm172.5,0h.2C344.8,301.6,344.8,301.5,344.7,301.5Zm0,0h.2C344.8,301.6,344.8,301.5,344.7,301.5Zm-172.5,0h.3A.19.19,0,0,1,172.2,301.5Zm0,0h.3A.19.19,0,0,1,172.2,301.5Zm172.5,0h.2C344.8,301.6,344.8,301.5,344.7,301.5Zm0,0h.2C344.8,301.6,344.8,301.5,344.7,301.5Zm-172.5,0h.3A.19.19,0,0,1,172.2,301.5Zm0,0h.3A.19.19,0,0,1,172.2,301.5Zm172.5,0h.2C344.8,301.6,344.8,301.5,344.7,301.5Zm0,0h.2C344.8,301.6,344.8,301.5,344.7,301.5Zm-172.5,0h.3A.19.19,0,0,1,172.2,301.5Zm0,0h.3A.19.19,0,0,1,172.2,301.5Zm172.5,0h.2C344.8,301.6,344.8,301.5,344.7,301.5Zm0,0h.2C344.8,301.6,344.8,301.5,344.7,301.5Zm-172.5,0h.3A.19.19,0,0,1,172.2,301.5Zm0,0h.3A.19.19,0,0,1,172.2,301.5Zm172.5,0h.2C344.8,301.6,344.8,301.5,344.7,301.5Zm0,0h.2C344.8,301.6,344.8,301.5,344.7,301.5Zm-172.5,0h.3A.19.19,0,0,1,172.2,301.5Zm0,0h.3A.19.19,0,0,1,172.2,301.5Zm172.5,0h.2C344.8,301.6,344.8,301.5,344.7,301.5Zm0,0h.2C344.8,301.6,344.8,301.5,344.7,301.5Zm-172.5,0h.3A.19.19,0,0,1,172.2,301.5Zm0,0h.3A.19.19,0,0,1,172.2,301.5Zm172.5,0h.2C344.8,301.6,344.8,301.5,344.7,301.5Zm0,0h.2C344.8,301.6,344.8,301.5,344.7,301.5Zm-172.5,0h.3A.19.19,0,0,1,172.2,301.5Zm0,0h.3A.19.19,0,0,1,172.2,301.5Zm172.5,0h.2C344.8,301.6,344.8,301.5,344.7,301.5Zm0,0h.2C344.8,301.6,344.8,301.5,344.7,301.5Zm-172.5,0h.3A.19.19,0,0,1,172.2,301.5Zm0,0h.3A.19.19,0,0,1,172.2,301.5Zm90.9,166.2,4.2-5.7Zm.8,2.3.1-.1,4.3-5.9Zm39.3-53.5c.3,0,.7.1,1,.1A3.4,3.4,0,0,1,303.2,416.5Zm9.9,1.3c-.3,0-.6-.1-.8-.1-.4-.1-.8-.1-1.2-.2l.7.1c.3,0,.6.1.8.1.4,0,.7.1,1.1.1Zm.6,0c1,.1,2,.3,3,.4h.2Zm4.9-.3h0Zm.5,1.1a.9.9,0,0,1-.5-.1c.2,0,.3.1.5.1a7.72,7.72,0,0,0,1.5.2A7.72,7.72,0,0,0,319.1,418.6Zm17.4,2.8c-.2,0-.5-.1-.7-.1l1.4.3A2.54,2.54,0,0,0,336.5,421.4Zm8.2-119.9h.2C344.8,301.6,344.8,301.5,344.7,301.5Zm1.5,121.8c-.2,0-.4-.1-.7-.1.3.1.6.1.9.2.9.2,1.8.4,2.6.6A22.91,22.91,0,0,0,346.2,423.3Zm27.3,7.9a.6.6,0,0,0-.4-.1,3.55,3.55,0,0,1,.9.4A2.19,2.19,0,0,0,373.5,431.2Zm-2.5-.9c-.1,0-.1,0-.2-.1s-.3-.1-.4-.2a7.49,7.49,0,0,0-1.6-.5,9.83,9.83,0,0,0-1.6-.5c-.4-.1-.8-.3-1.2-.4-2.1-.7-4.3-1.4-6.6-2-.6-.2-1.3-.3-1.9-.5s-1.2-.3-1.8-.5c-.9-.2-1.8-.5-2.8-.7-.2,0-.3-.1-.4-.1a2.92,2.92,0,0,0-.9-.2c.1,0,.2.1.3.1a.37.37,0,0,1,.3.1h.2a1.42,1.42,0,0,1,.6.2c.2,0,.3.1.5.1.6.2,1.3.3,1.9.5a8.45,8.45,0,0,1,1.7.5c.6.2,1.2.3,1.8.5s1.1.3,1.6.4c.8.2,1.7.5,2.5.7s1.6.5,2.3.7c.4.1.8.3,1.2.4s.8.3,1.1.4c.8.3,1.5.5,2.3.8a6.15,6.15,0,0,0,1.1.3Zm8.4,3.4c-.3-.1-.5-.2-.8-.3l-.6-.3c-.1-.1-.3-.1-.4-.2h.1c.3.1.6.3.9.4A5.9,5.9,0,0,0,379.4,433.7Zm1.2.5h0c.1,0,.1,0,.1.1A.1.1,0,0,1,380.6,434.2Zm4.1,2.2c-.3-.1-.5-.3-.8-.4a3,3,0,0,1,.8.4l.1.1C384.8,436.4,384.8,436.4,384.7,436.4Zm6.9,4.4.3.3c.1.1.3.2.4.3A4.35,4.35,0,0,0,391.6,440.8ZM172.2,301.5h.3A.19.19,0,0,1,172.2,301.5Zm90.9,166.2,4.2-5.7Zm.8,2.3.1-.1,4.3-5.9Zm39.3-53.5c.3,0,.7.1,1,.1A3.4,3.4,0,0,1,303.2,416.5Zm9.9,1.3c-.3,0-.6-.1-.8-.1-.4-.1-.8-.1-1.2-.2l.7.1c.3,0,.6.1.8.1.4,0,.7.1,1.1.1Zm.6,0c1,.1,2,.3,3,.4h.2Zm4.9-.3h0Zm.5,1.1a.9.9,0,0,1-.5-.1c.2,0,.3.1.5.1a7.72,7.72,0,0,0,1.5.2A7.72,7.72,0,0,0,319.1,418.6Zm17.4,2.8c-.2,0-.5-.1-.7-.1l1.4.3A2.54,2.54,0,0,0,336.5,421.4Zm8.2-119.9h.2C344.8,301.6,344.8,301.5,344.7,301.5Zm1.5,121.8c-.2,0-.4-.1-.7-.1.3.1.6.1.9.2.9.2,1.8.4,2.6.6A22.91,22.91,0,0,0,346.2,423.3Zm24.8,7c-.1,0-.1,0-.2-.1s-.3-.1-.4-.2a7.49,7.49,0,0,0-1.6-.5,9.83,9.83,0,0,0-1.6-.5c-.4-.1-.8-.3-1.2-.4-2.1-.7-4.3-1.4-6.6-2-.6-.2-1.3-.3-1.9-.5s-1.2-.3-1.8-.5c-.9-.2-1.8-.5-2.8-.7-.2,0-.3-.1-.4-.1a2.92,2.92,0,0,0-.9-.2c.1,0,.2.1.3.1a.37.37,0,0,1,.3.1h.2a1.42,1.42,0,0,1,.6.2c.2,0,.3.1.5.1.6.2,1.3.3,1.9.5a8.45,8.45,0,0,1,1.7.5c.6.2,1.2.3,1.8.5s1.1.3,1.6.4c.8.2,1.7.5,2.5.7s1.6.5,2.3.7c.4.1.8.3,1.2.4s.8.3,1.1.4c.8.3,1.5.5,2.3.8a6.15,6.15,0,0,0,1.1.3Zm2.5.9a.6.6,0,0,0-.4-.1,3.55,3.55,0,0,1,.9.4A2.19,2.19,0,0,0,373.5,431.2Zm5.9,2.5c-.3-.1-.5-.2-.8-.3l-.6-.3c-.1-.1-.3-.1-.4-.2h.1c.3.1.6.3.9.4A5.9,5.9,0,0,0,379.4,433.7Zm1.2.5h0c.1,0,.1,0,.1.1A.1.1,0,0,1,380.6,434.2Zm4.1,2.2c-.3-.1-.5-.3-.8-.4a3,3,0,0,1,.8.4l.1.1C384.8,436.4,384.8,436.4,384.7,436.4Zm6.9,4.4.3.3c.1.1.3.2.4.3A4.35,4.35,0,0,0,391.6,440.8ZM172.2,301.5h.3A.19.19,0,0,1,172.2,301.5Zm90.9,166.2,4.2-5.7Zm.8,2.3.1-.1,4.3-5.9Zm39.3-53.5c.3,0,.7.1,1,.1A3.4,3.4,0,0,1,303.2,416.5Zm9.9,1.3c-.3,0-.6-.1-.8-.1-.4-.1-.8-.1-1.2-.2l.7.1c.3,0,.6.1.8.1.4,0,.7.1,1.1.1Zm.6,0c1,.1,2,.3,3,.4h.2Zm4.9-.3h0Zm.5,1.1a.9.9,0,0,1-.5-.1c.2,0,.3.1.5.1a7.72,7.72,0,0,0,1.5.2A7.72,7.72,0,0,0,319.1,418.6Zm17.4,2.8c-.2,0-.5-.1-.7-.1l1.4.3A2.54,2.54,0,0,0,336.5,421.4Zm8.2-119.9h.2C344.8,301.6,344.8,301.5,344.7,301.5Zm1.5,121.8c-.2,0-.4-.1-.7-.1.3.1.6.1.9.2.9.2,1.8.4,2.6.6A22.91,22.91,0,0,0,346.2,423.3Zm24.8,7c-.1,0-.1,0-.2-.1s-.3-.1-.4-.2a7.49,7.49,0,0,0-1.6-.5,9.83,9.83,0,0,0-1.6-.5c-.4-.1-.8-.3-1.2-.4-2.1-.7-4.3-1.4-6.6-2-.6-.2-1.3-.3-1.9-.5s-1.2-.3-1.8-.5c-.9-.2-1.8-.5-2.8-.7-.2,0-.3-.1-.4-.1a2.92,2.92,0,0,0-.9-.2c.1,0,.2.1.3.1a.37.37,0,0,1,.3.1h.2a1.42,1.42,0,0,1,.6.2c.2,0,.3.1.5.1.6.2,1.3.3,1.9.5a8.45,8.45,0,0,1,1.7.5c.6.2,1.2.3,1.8.5s1.1.3,1.6.4c.8.2,1.7.5,2.5.7s1.6.5,2.3.7c.4.1.8.3,1.2.4s.8.3,1.1.4c.8.3,1.5.5,2.3.8a6.15,6.15,0,0,0,1.1.3Zm2.5.9a.6.6,0,0,0-.4-.1,3.55,3.55,0,0,1,.9.4A2.19,2.19,0,0,0,373.5,431.2Zm5.9,2.5c-.3-.1-.5-.2-.8-.3l-.6-.3c-.1-.1-.3-.1-.4-.2h.1c.3.1.6.3.9.4A5.9,5.9,0,0,0,379.4,433.7Zm1.2.5h0c.1,0,.1,0,.1.1A.1.1,0,0,1,380.6,434.2Zm4.1,2.2c-.3-.1-.5-.3-.8-.4a3,3,0,0,1,.8.4l.1.1C384.8,436.4,384.8,436.4,384.7,436.4Zm6.9,4.4.3.3c.1.1.3.2.4.3A4.35,4.35,0,0,0,391.6,440.8ZM172.2,301.5h.3A.19.19,0,0,1,172.2,301.5Zm35,118.1c.8-.1,1.6-.3,2.4-.4h.1C209,419.3,208.1,419.4,207.2,419.6Zm6.2-1.1-3.5.6A18.22,18.22,0,0,0,213.4,418.5Zm49.7,49.2,4.2-5.7Zm.8,2.3.1-.1,4.3-5.9Zm39.3-53.5c.3,0,.7.1,1,.1A3.4,3.4,0,0,1,303.2,416.5Zm9.9,1.3c-.3,0-.6-.1-.8-.1-.4-.1-.8-.1-1.2-.2l.7.1c.3,0,.6.1.8.1.4,0,.7.1,1.1.1Zm.6,0c1,.1,2,.3,3,.4h.2Zm4.9-.3h0Zm.5,1.1a.9.9,0,0,1-.5-.1c.2,0,.3.1.5.1a7.72,7.72,0,0,0,1.5.2A7.72,7.72,0,0,0,319.1,418.6Zm17.4,2.8c-.2,0-.5-.1-.7-.1l1.4.3A2.54,2.54,0,0,0,336.5,421.4Zm8.2-119.9h.2C344.8,301.6,344.8,301.5,344.7,301.5Zm1.5,121.8c-.2,0-.4-.1-.7-.1.3.1.6.1.9.2.9.2,1.8.4,2.6.6A22.91,22.91,0,0,0,346.2,423.3Zm24.8,7c-.1,0-.1,0-.2-.1s-.3-.1-.4-.2a7.49,7.49,0,0,0-1.6-.5,9.83,9.83,0,0,0-1.6-.5c-.4-.1-.8-.3-1.2-.4-2.1-.7-4.3-1.4-6.6-2-.6-.2-1.3-.3-1.9-.5s-1.2-.3-1.8-.5c-.9-.2-1.8-.5-2.8-.7-.2,0-.3-.1-.4-.1a2.92,2.92,0,0,0-.9-.2c.1,0,.2.1.3.1a.37.37,0,0,1,.3.1h.2a1.42,1.42,0,0,1,.6.2c.2,0,.3.1.5.1.6.2,1.3.3,1.9.5a8.45,8.45,0,0,1,1.7.5c.6.2,1.2.3,1.8.5s1.1.3,1.6.4c.8.2,1.7.5,2.5.7s1.6.5,2.3.7c.4.1.8.3,1.2.4s.8.3,1.1.4c.8.3,1.5.5,2.3.8a6.15,6.15,0,0,0,1.1.3Zm2.5.9a.6.6,0,0,0-.4-.1,3.55,3.55,0,0,1,.9.4A2.19,2.19,0,0,0,373.5,431.2Zm5.9,2.5c-.3-.1-.5-.2-.8-.3l-.6-.3c-.1-.1-.3-.1-.4-.2h.1c.3.1.6.3.9.4A5.9,5.9,0,0,0,379.4,433.7Zm1.2.5h0c.1,0,.1,0,.1.1A.1.1,0,0,1,380.6,434.2Zm4.1,2.2c-.3-.1-.5-.3-.8-.4a3,3,0,0,1,.8.4l.1.1C384.8,436.4,384.8,436.4,384.7,436.4Zm6.9,4.4.3.3c.1.1.3.2.4.3A4.35,4.35,0,0,0,391.6,440.8ZM257.7,0C115.4,0,0,115.3,0,257.7A255.92,255.92,0,0,0,113.8,471v-.1c.5-1.6,1-3.2,1.6-4.7,6.7-24.1,32.2-35.6,57.4-42,.9-.2,1.8-.4,2.6-.6,4.3-1,8.6-1.9,12.8-2.7.8-.2,1.7-.3,2.5-.5.3-.1.7-.1,1-.2.8-.1,1.7-.3,2.5-.4.2,0,.4-.1.6-.1,1.4-.2,2.7-.5,4-.7a3.08,3.08,0,0,1,1-.1l1.8-.3c1-.2,2-.3,3-.5.3-.1.7-.1,1-.2s.8-.1,1.2-.2l1.8-.3h.3a7.72,7.72,0,0,1,1.5-.2c1.2-.2,2.3-.4,3.3-.5h.1c6.9-1.2,12.6-2.4,13-3.6.9-2.5,1.2-7.5,1.2-13.3,0-6.9-.4-15-.9-21.2-29.2-12.4-44.9-39.8-49.9-56.3-5.4-4.9-15.3-17.5-15.3-31.3,0-8.8,2.3-15.2,6.3-17.7.2-.1.3-.2.5-.3l-2.1-29h-1.7a.91.91,0,0,1-.8-.4c-7.1-8.7-14.4-31.4,8.8-55.6a50,50,0,0,1,5.4-4.6c1.3-16.5,20.1-45.6,84-45.6,40.7,0,59.9,11.8,68.9,21.7,6.8,7.5,10.3,16.9,9.5,25.3a1.49,1.49,0,0,1-.3.7,35.25,35.25,0,0,1,2.8,2.5c22.6,22.6,14.4,46.3,6.9,55.6-.1.1-.2.2-.3.2l-.8,30.8c3.6,2.4,6.9,8.1,6.9,16.2,0,12.2-11.9,25.7-18.5,31.3-4,17.2-18.8,46.2-49.5,57.8-1.7,17.2-1.7,31.4.1,32.6.8.5,6.9,1.2,13.4,2,.3,0,.5.1.8.1a.6.6,0,0,1,.4.1c.4,0,.8.1,1.2.1a14.92,14.92,0,0,0,2.1.2l5.8.7,2,.3c.2,0,.4.1.6.1l1.9.3c.9.1,1.8.3,2.7.4l1.8.3c1.7.2,3.4.5,5.1.8,2.3.4,4.6.7,7,1.1.7.1,1.4.3,2.1.4,1,.2,2,.4,3.1.6.5.1,1,.2,1.6.3l3.3.6a23.81,23.81,0,0,0,2.6.5c.8.2,1.5.3,2.3.5a177.77,177.77,0,0,1,30.2,9.3c.6.3,1.3.6,1.9.9s1.4.7,2.1,1,1.5.8,2.2,1.1c1.1.6,2.1,1.1,3.1,1.7a60.37,60.37,0,0,1,5.6,3.7,6.89,6.89,0,0,1,1.3,1.1,8.64,8.64,0,0,1,1.4,1.3,9.43,9.43,0,0,1,1,1l1,1a38.76,38.76,0,0,1,2.6,3.1c3.4,4,6.5,10.2,9,18.5,64.2-46.6,106-122,106-207.6C515.4,115.4,400,0,257.7,0ZM391.6,440.8l.3.3c.1.1.3.2.4.3A4.35,4.35,0,0,0,391.6,440.8Zm-6.9-4.4c-.3-.1-.5-.3-.8-.4a3,3,0,0,1,.8.4l.1.1C384.8,436.4,384.8,436.4,384.7,436.4Zm-4.1-2.2h0c.1,0,.1,0,.1.1A.1.1,0,0,1,380.6,434.2Zm-1.2-.5c-.3-.1-.5-.2-.8-.3l-.6-.3c-.1-.1-.3-.1-.4-.2h.1c.3.1.6.3.9.4A5.9,5.9,0,0,0,379.4,433.7Zm-5.9-2.5a.6.6,0,0,0-.4-.1,3.55,3.55,0,0,1,.9.4A2.19,2.19,0,0,0,373.5,431.2Zm-2.5-.9c-.1,0-.1,0-.2-.1s-.3-.1-.4-.2a7.49,7.49,0,0,0-1.6-.5,9.83,9.83,0,0,0-1.6-.5c-.4-.1-.8-.3-1.2-.4-2.1-.7-4.3-1.4-6.6-2-.6-.2-1.3-.3-1.9-.5s-1.2-.3-1.8-.5c-.9-.2-1.8-.5-2.8-.7-.2,0-.3-.1-.4-.1a2.92,2.92,0,0,0-.9-.2c.1,0,.2.1.3.1a.37.37,0,0,1,.3.1h.2a1.42,1.42,0,0,1,.6.2c.2,0,.3.1.5.1.6.2,1.3.3,1.9.5a8.45,8.45,0,0,1,1.7.5c.6.2,1.2.3,1.8.5s1.1.3,1.6.4c.8.2,1.7.5,2.5.7s1.6.5,2.3.7c.4.1.8.3,1.2.4s.8.3,1.1.4c.8.3,1.5.5,2.3.8a6.15,6.15,0,0,0,1.1.3Zm-24.8-7c-.2,0-.4-.1-.7-.1.3.1.6.1.9.2.9.2,1.8.4,2.6.6A22.91,22.91,0,0,0,346.2,423.3Zm-1.5-121.8h.2C344.8,301.6,344.8,301.5,344.7,301.5Zm-8.2,119.9c-.2,0-.5-.1-.7-.1l1.4.3A2.54,2.54,0,0,0,336.5,421.4Zm-17.4-2.8a.9.9,0,0,1-.5-.1c.2,0,.3.1.5.1a7.72,7.72,0,0,0,1.5.2A7.72,7.72,0,0,0,319.1,418.6Zm-.5-1.1h0Zm-4.9.3c1,.1,2,.3,3,.4h.2Zm-.6,0c-.3,0-.6-.1-.8-.1-.4-.1-.8-.1-1.2-.2l.7.1c.3,0,.6.1.8.1.4,0,.7.1,1.1.1Zm-9.9-1.3c.3,0,.7.1,1,.1A3.4,3.4,0,0,1,303.2,416.5ZM263.9,470l.1-.1,4.3-5.9Zm-.8-2.3,4.2-5.7Zm-49.7-49.2-3.5.6A18.22,18.22,0,0,0,213.4,418.5Zm-6.2,1.1c.8-.1,1.6-.3,2.4-.4h.1C209,419.3,208.1,419.4,207.2,419.6Zm-35-118.1h.3A.19.19,0,0,1,172.2,301.5ZM391.6,440.8l.3.3c.1.1.3.2.4.3A4.35,4.35,0,0,0,391.6,440.8Zm-6.9-4.4c-.3-.1-.5-.3-.8-.4a3,3,0,0,1,.8.4l.1.1C384.8,436.4,384.8,436.4,384.7,436.4Zm-4.1-2.2h0c.1,0,.1,0,.1.1A.1.1,0,0,1,380.6,434.2Zm-1.2-.5c-.3-.1-.5-.2-.8-.3l-.6-.3c-.1-.1-.3-.1-.4-.2h.1c.3.1.6.3.9.4A5.9,5.9,0,0,0,379.4,433.7Zm-5.9-2.5a.6.6,0,0,0-.4-.1,3.55,3.55,0,0,1,.9.4A2.19,2.19,0,0,0,373.5,431.2Zm-2.5-.9c-.1,0-.1,0-.2-.1s-.3-.1-.4-.2a7.49,7.49,0,0,0-1.6-.5,9.83,9.83,0,0,0-1.6-.5c-.4-.1-.8-.3-1.2-.4-2.1-.7-4.3-1.4-6.6-2-.6-.2-1.3-.3-1.9-.5s-1.2-.3-1.8-.5c-.9-.2-1.8-.5-2.8-.7-.2,0-.3-.1-.4-.1a2.92,2.92,0,0,0-.9-.2c.1,0,.2.1.3.1a.37.37,0,0,1,.3.1h.2a1.42,1.42,0,0,1,.6.2c.2,0,.3.1.5.1.6.2,1.3.3,1.9.5a8.45,8.45,0,0,1,1.7.5c.6.2,1.2.3,1.8.5s1.1.3,1.6.4c.8.2,1.7.5,2.5.7s1.6.5,2.3.7c.4.1.8.3,1.2.4s.8.3,1.1.4c.8.3,1.5.5,2.3.8a6.15,6.15,0,0,0,1.1.3Zm-24.8-7c-.2,0-.4-.1-.7-.1.3.1.6.1.9.2.9.2,1.8.4,2.6.6A22.91,22.91,0,0,0,346.2,423.3Zm-1.5-121.8h.2C344.8,301.6,344.8,301.5,344.7,301.5Zm-8.2,119.9c-.2,0-.5-.1-.7-.1l1.4.3A2.54,2.54,0,0,0,336.5,421.4Zm-17.4-2.8a.9.9,0,0,1-.5-.1c.2,0,.3.1.5.1a7.72,7.72,0,0,0,1.5.2A7.72,7.72,0,0,0,319.1,418.6Zm-.5-1.1h0Zm-4.9.3c1,.1,2,.3,3,.4h.2Zm-.6,0c-.3,0-.6-.1-.8-.1-.4-.1-.8-.1-1.2-.2l.7.1c.3,0,.6.1.8.1.4,0,.7.1,1.1.1Zm-9.9-1.3c.3,0,.7.1,1,.1A3.4,3.4,0,0,1,303.2,416.5ZM263.9,470l.1-.1,4.3-5.9Zm-.8-2.3,4.2-5.7ZM172.2,301.5h.3A.19.19,0,0,1,172.2,301.5ZM391.6,440.8l.3.3c.1.1.3.2.4.3A4.35,4.35,0,0,0,391.6,440.8Zm-6.9-4.4c-.3-.1-.5-.3-.8-.4a3,3,0,0,1,.8.4l.1.1C384.8,436.4,384.8,436.4,384.7,436.4Zm-4.1-2.2h0c.1,0,.1,0,.1.1A.1.1,0,0,1,380.6,434.2Zm-1.2-.5c-.3-.1-.5-.2-.8-.3l-.6-.3c-.1-.1-.3-.1-.4-.2h.1c.3.1.6.3.9.4A5.9,5.9,0,0,0,379.4,433.7Zm-5.9-2.5a.6.6,0,0,0-.4-.1,3.55,3.55,0,0,1,.9.4A2.19,2.19,0,0,0,373.5,431.2Zm-2.5-.9c-.1,0-.1,0-.2-.1s-.3-.1-.4-.2a7.49,7.49,0,0,0-1.6-.5,9.83,9.83,0,0,0-1.6-.5c-.4-.1-.8-.3-1.2-.4-2.1-.7-4.3-1.4-6.6-2-.6-.2-1.3-.3-1.9-.5s-1.2-.3-1.8-.5c-.9-.2-1.8-.5-2.8-.7-.2,0-.3-.1-.4-.1a2.92,2.92,0,0,0-.9-.2c.1,0,.2.1.3.1a.37.37,0,0,1,.3.1h.2a1.42,1.42,0,0,1,.6.2c.2,0,.3.1.5.1.6.2,1.3.3,1.9.5a8.45,8.45,0,0,1,1.7.5c.6.2,1.2.3,1.8.5s1.1.3,1.6.4c.8.2,1.7.5,2.5.7s1.6.5,2.3.7c.4.1.8.3,1.2.4s.8.3,1.1.4c.8.3,1.5.5,2.3.8a6.15,6.15,0,0,0,1.1.3Zm-24.8-7c-.2,0-.4-.1-.7-.1.3.1.6.1.9.2.9.2,1.8.4,2.6.6A22.91,22.91,0,0,0,346.2,423.3Zm-1.5-121.8h.2C344.8,301.6,344.8,301.5,344.7,301.5Zm-8.2,119.9c-.2,0-.5-.1-.7-.1l1.4.3A2.54,2.54,0,0,0,336.5,421.4Zm-17.4-2.8a.9.9,0,0,1-.5-.1c.2,0,.3.1.5.1a7.72,7.72,0,0,0,1.5.2A7.72,7.72,0,0,0,319.1,418.6Zm-.5-1.1h0Zm-4.9.3c1,.1,2,.3,3,.4h.2Zm-.6,0c-.3,0-.6-.1-.8-.1-.4-.1-.8-.1-1.2-.2l.7.1c.3,0,.6.1.8.1.4,0,.7.1,1.1.1Zm-9.9-1.3c.3,0,.7.1,1,.1A3.4,3.4,0,0,1,303.2,416.5ZM263.9,470l.1-.1,4.3-5.9Zm-.8-2.3,4.2-5.7ZM172.2,301.5h.3A.19.19,0,0,1,172.2,301.5ZM391.6,440.8l.3.3c.1.1.3.2.4.3A4.35,4.35,0,0,0,391.6,440.8Zm-6.9-4.4c-.3-.1-.5-.3-.8-.4a3,3,0,0,1,.8.4l.1.1C384.8,436.4,384.8,436.4,384.7,436.4Zm-4.1-2.2h0c.1,0,.1,0,.1.1A.1.1,0,0,1,380.6,434.2Zm-34.4-10.9c-.2,0-.4-.1-.7-.1.3.1.6.1.9.2.9.2,1.8.4,2.6.6A22.91,22.91,0,0,0,346.2,423.3Zm27.3,7.9a.6.6,0,0,0-.4-.1,3.55,3.55,0,0,1,.9.4A2.19,2.19,0,0,0,373.5,431.2Zm-2.5-.9c-.1,0-.1,0-.2-.1s-.3-.1-.4-.2a7.49,7.49,0,0,0-1.6-.5,9.83,9.83,0,0,0-1.6-.5c-.4-.1-.8-.3-1.2-.4-2.1-.7-4.3-1.4-6.6-2-.6-.2-1.3-.3-1.9-.5s-1.2-.3-1.8-.5c-.9-.2-1.8-.5-2.8-.7-.2,0-.3-.1-.4-.1a2.92,2.92,0,0,0-.9-.2c.1,0,.2.1.3.1a.37.37,0,0,1,.3.1h.2a1.42,1.42,0,0,1,.6.2c.2,0,.3.1.5.1.6.2,1.3.3,1.9.5a8.45,8.45,0,0,1,1.7.5c.6.2,1.2.3,1.8.5s1.1.3,1.6.4c.8.2,1.7.5,2.5.7s1.6.5,2.3.7c.4.1.8.3,1.2.4s.8.3,1.1.4c.8.3,1.5.5,2.3.8a6.15,6.15,0,0,0,1.1.3Zm8.4,3.4c-.3-.1-.5-.2-.8-.3l-.6-.3c-.1-.1-.3-.1-.4-.2h.1c.3.1.6.3.9.4A5.9,5.9,0,0,0,379.4,433.7ZM344.7,301.5h.2C344.8,301.6,344.8,301.5,344.7,301.5Zm-8.2,119.9c-.2,0-.5-.1-.7-.1l1.4.3A2.54,2.54,0,0,0,336.5,421.4Zm-17.4-2.8a.9.9,0,0,1-.5-.1c.2,0,.3.1.5.1a7.72,7.72,0,0,0,1.5.2A7.72,7.72,0,0,0,319.1,418.6Zm-.5-1.1h0Zm-4.9.3c1,.1,2,.3,3,.4h.2Zm-.6,0c-.3,0-.6-.1-.8-.1-.4-.1-.8-.1-1.2-.2l.7.1c.3,0,.6.1.8.1.4,0,.7.1,1.1.1Zm-9.9-1.3c.3,0,.7.1,1,.1A3.4,3.4,0,0,1,303.2,416.5ZM263.9,470l.1-.1,4.3-5.9Zm-.8-2.3,4.2-5.7ZM172.2,301.5h.3A.19.19,0,0,1,172.2,301.5Zm0,0h.3A.19.19,0,0,1,172.2,301.5Zm172.5,0h.2C344.8,301.6,344.8,301.5,344.7,301.5Zm0,0h.2C344.8,301.6,344.8,301.5,344.7,301.5Zm-172.5,0h.3A.19.19,0,0,1,172.2,301.5Zm0,0h.3A.19.19,0,0,1,172.2,301.5Zm172.5,0h.2C344.8,301.6,344.8,301.5,344.7,301.5Zm0,0h.2C344.8,301.6,344.8,301.5,344.7,301.5Zm-172.5,0h.3A.19.19,0,0,1,172.2,301.5Zm0,0h.3A.19.19,0,0,1,172.2,301.5Zm172.5,0h.2C344.8,301.6,344.8,301.5,344.7,301.5Zm0,0h.2C344.8,301.6,344.8,301.5,344.7,301.5Zm-172.5,0h.3A.19.19,0,0,1,172.2,301.5Zm0,0h.3A.19.19,0,0,1,172.2,301.5Zm172.5,0h.2C344.8,301.6,344.8,301.5,344.7,301.5Zm0,0h.2C344.8,301.6,344.8,301.5,344.7,301.5Zm-172.5,0h.3A.19.19,0,0,1,172.2,301.5Zm0,0h.3A.19.19,0,0,1,172.2,301.5Zm172.5,0h.2C344.8,301.6,344.8,301.5,344.7,301.5Zm0,0h.2C344.8,301.6,344.8,301.5,344.7,301.5Zm-172.5,0h.3A.19.19,0,0,1,172.2,301.5Zm0,0h.3A.19.19,0,0,1,172.2,301.5Zm172.5,0h.2C344.8,301.6,344.8,301.5,344.7,301.5Zm0,0h.2C344.8,301.6,344.8,301.5,344.7,301.5Zm-172.5,0h.3A.19.19,0,0,1,172.2,301.5Zm0,0h.3A.19.19,0,0,1,172.2,301.5Zm172.5,0h.2C344.8,301.6,344.8,301.5,344.7,301.5Zm0,0h.2C344.8,301.6,344.8,301.5,344.7,301.5Zm-172.5,0h.3A.19.19,0,0,1,172.2,301.5Zm0,0h.3A.19.19,0,0,1,172.2,301.5Zm172.5,0h.2C344.8,301.6,344.8,301.5,344.7,301.5Zm0,0h.2C344.8,301.6,344.8,301.5,344.7,301.5Zm-172.5,0h.3A.19.19,0,0,1,172.2,301.5Zm0,0h.3A.19.19,0,0,1,172.2,301.5Zm172.5,0h.2C344.8,301.6,344.8,301.5,344.7,301.5Zm0,0h.2C344.8,301.6,344.8,301.5,344.7,301.5Zm-172.5,0h.3A.19.19,0,0,1,172.2,301.5Zm0,0h.3A.19.19,0,0,1,172.2,301.5Zm172.5,0h.2C344.8,301.6,344.8,301.5,344.7,301.5Zm0,0h.2C344.8,301.6,344.8,301.5,344.7,301.5Zm-172.5,0h.3A.19.19,0,0,1,172.2,301.5Zm0,0h.3A.19.19,0,0,1,172.2,301.5Zm172.5,0h.2C344.8,301.6,344.8,301.5,344.7,301.5Zm0,0h.2C344.8,301.6,344.8,301.5,344.7,301.5Zm-172.5,0h.3A.19.19,0,0,1,172.2,301.5Z" fill="#f2f2f2"/><path d="M213.4,418.5l-3.5.6A18.22,18.22,0,0,0,213.4,418.5Zm-6.2,1.1c.8-.1,1.6-.3,2.4-.4h.1C209,419.3,208.1,419.4,207.2,419.6Zm184.4,21.2.3.3c.1.1.3.2.4.3A4.35,4.35,0,0,0,391.6,440.8Zm-3.3-2.4Zm-3.6-2c-.3-.1-.5-.3-.8-.4a3,3,0,0,1,.8.4l.1.1C384.8,436.4,384.8,436.4,384.7,436.4Zm-4.1-2.2h0c.1,0,.1,0,.1.1A.1.1,0,0,1,380.6,434.2Zm-1.2-.5c-.3-.1-.5-.2-.8-.3l-.6-.3c.2.1.3.2.5.2C378.9,433.5,379.2,433.6,379.4,433.7Zm-33.2-10.4c-.2,0-.4-.1-.7-.1.3.1.6.1.9.2.9.2,1.8.4,2.6.6A22.91,22.91,0,0,0,346.2,423.3Zm27.3,7.9a.6.6,0,0,0-.4-.1,3.55,3.55,0,0,1,.9.4A2.19,2.19,0,0,0,373.5,431.2Zm-2.5-.9c-.1,0-.1,0-.2-.1s-.3-.1-.4-.2a7.49,7.49,0,0,0-1.6-.5,9.83,9.83,0,0,0-1.6-.5c-.4-.1-.8-.3-1.2-.4-2.1-.7-4.3-1.4-6.6-2-.6-.2-1.3-.3-1.9-.5s-1.2-.3-1.8-.5c-.9-.2-1.8-.5-2.8-.7-.2,0-.3-.1-.4-.1a2.92,2.92,0,0,0-.9-.2c.1,0,.2.1.3.1a.37.37,0,0,1,.3.1h.2a1.42,1.42,0,0,1,.6.2c.2,0,.3.1.5.1.6.2,1.3.3,1.9.5a8.45,8.45,0,0,1,1.7.5c.6.2,1.2.3,1.8.5s1.1.3,1.6.4c.8.2,1.7.5,2.5.7s1.6.5,2.3.7c.4.1.8.3,1.2.4s.8.3,1.1.4c.8.3,1.5.5,2.3.8a6.15,6.15,0,0,0,1.1.3Zm6.6,2.6c.2.1.3.1.4.2C377.9,433,377.8,433,377.6,432.9Zm-35.3-10.4c-.8-.2-1.6-.3-2.4-.5.9.2,1.7.3,2.6.5Zm-4.6-.9Zm-1.2-.2c-.2,0-.5-.1-.7-.1l1.4.3A2.54,2.54,0,0,0,336.5,421.4Zm-17.4-2.8a.9.9,0,0,1-.5-.1c.2,0,.3.1.5.1a7.72,7.72,0,0,0,1.5.2A7.72,7.72,0,0,0,319.1,418.6Zm-.5-1.1h0Zm-4.9.3c1,.1,2,.3,3,.4h.2Zm-.6,0c-.3,0-.6-.1-.8-.1-.4-.1-.8-.1-1.2-.2l.7.1c.3,0,.6.1.8.1.4,0,.7.1,1.1.1Zm-9.9-1.3c.3,0,.7.1,1,.1A3.4,3.4,0,0,1,303.2,416.5ZM263.9,470l.1-.1,4.3-5.9Zm-.8-2.3,4.2-5.7Z" fill="#f4f0dd"/><path d="M213.9,416.5Zm-.5,2-3.5.6A18.22,18.22,0,0,0,213.4,418.5ZM384.5,434c1.1.6,2.1,1.1,3.1,1.7C386.6,435.1,385.5,434.5,384.5,434Zm-36.6-12.4a177.77,177.77,0,0,1,30.2,9.3C369.1,427,358.6,424,347.9,421.6Zm-28.8-3a.9.9,0,0,1-.5-.1c.2,0,.3.1.5.1a7.72,7.72,0,0,0,1.5.2A7.72,7.72,0,0,0,319.1,418.6Zm-.5-1.1h0Zm-4.9.3c1,.1,2,.3,3,.4h.2Zm-.6,0c-.3,0-.6-.1-.8-.1-.4-.1-.8-.1-1.2-.2l.7.1c.3,0,.6.1.8.1.4,0,.7.1,1.1.1Zm-9.9-1.3c.3,0,.7.1,1,.1A3.4,3.4,0,0,1,303.2,416.5Z"/><path d="M300.7,416.2,267.3,462l-4.2,5.7-28.7-30.1L216,418.1c8.3-1.4,12.2-2.6,12.9-4.7,2.1-6.2,1.1-25.2.4-34.3a85.2,85.2,0,0,0,56.8,1.4c-1.1,11.7-2.4,31.1,1.1,33.5C288.2,414.7,291.9,415.2,300.7,416.2Z" fill="#f4f0dd"/><path d="M339,183.5h-.8c-16.2-11.2-48-18.1-84.1-17.7-19,.2-36,2.3-49.9,6.1-9.4,2.6-17.4,5.9-23.6,9.8,2.3-16,21.5-42.2,81.8-42.2,39.9,0,58.7,11.5,67.5,21.1C336.1,167.4,339.4,175.9,339,183.5Z" fill="#7aabd3"/><path d="M350.1,240.3l.2-8.7c-3.3-14.4-22.4-41.8-73-46.1-5-.4-10.4-.6-16.1-.6-4.5,0-8.8.3-12.9.6-53.5,4.4-77.2,31.9-82.5,46.1l.7,10.2h-1a32.52,32.52,0,0,1-6.2-19.6c0-9.5,3.7-21.1,15.2-33.1a33.45,33.45,0,0,1,4.4-3.8l1.2-.9c.5-.3,1-.7,1.5-1,15-9.5,41.5-15.4,72.6-15.7,33.4-.3,63.8,5.8,80.3,15.7.5.3,1.1.7,1.6,1s1,.7,1.5,1a27.68,27.68,0,0,1,4.4,3.7C362.3,209.4,356.7,230.5,350.1,240.3Z" fill="#7aabd3"/><path d="M344.9,301.6h-.2C344.8,301.5,344.8,301.6,344.9,301.6Z"/><path d="M172.2,301.5h.3A.19.19,0,0,1,172.2,301.5Zm172.5,0h.2C344.8,301.6,344.8,301.5,344.7,301.5Zm0,0h.2C344.8,301.6,344.8,301.5,344.7,301.5Zm-172.5,0h.3A.19.19,0,0,1,172.2,301.5Zm0,0h.3A.19.19,0,0,1,172.2,301.5Zm172.5,0h.2C344.8,301.6,344.8,301.5,344.7,301.5Zm0,0h.2C344.8,301.6,344.8,301.5,344.7,301.5Zm-172.5,0h.3A.19.19,0,0,1,172.2,301.5Zm0,0h.3A.19.19,0,0,1,172.2,301.5Zm172.5,0h.2C344.8,301.6,344.8,301.5,344.7,301.5Zm-172.5,0h.3A.19.19,0,0,1,172.2,301.5Zm172.5,0h.2C344.8,301.6,344.8,301.5,344.7,301.5Zm0,0h.2C344.8,301.6,344.8,301.5,344.7,301.5Zm-172.5,0h.3A.19.19,0,0,1,172.2,301.5Zm0,0h.3A.19.19,0,0,1,172.2,301.5Zm172.5,0h.2C344.8,301.6,344.8,301.5,344.7,301.5Zm0,0h.2C344.8,301.6,344.8,301.5,344.7,301.5Zm-172.5,0h.3A.19.19,0,0,1,172.2,301.5Z" fill="#f4f0dd"/><path d="M349.2,277a13.6,13.6,0,0,0-1.7-1.2,4.25,4.25,0,0,0-4.6.1l-.5.5a.1.1,0,0,0-.1.1,14.16,14.16,0,0,0-3.5,7.7,1,1,0,0,1-1,.9h-.1a.6.6,0,0,1-.4-.1,1,1,0,0,1-.8-1.1c.7-6.5,2.3-24.1,1.5-27.1a88.54,88.54,0,0,0-4.3-12.9,4.18,4.18,0,0,1-.4-1c-.2-.3-.3-.7-.5-1-6.1-12.7-15.1-20.3-26.9-22.7-17.6-3.6-21.5,0-26,4.2-3.7,3.5-7.9,7.4-20.1,7.4s-17.8-4.8-22.8-9c-5.8-4.9-10.4-8.8-24.4-2.7-16.9,7.4-24.3,14.9-27.8,22.8-.1.3-.3.7-.4,1s-.3.7-.4,1c-1.7,4.7-2.3,9.6-2.9,14.7l-.1.5c-.7,6.3.3,22.5.3,22.7v.2a5.85,5.85,0,0,1,.2,1.3,1,1,0,0,1-.9,1.1h-.1a1.06,1.06,0,0,1-1-.9,14.51,14.51,0,0,0-3.5-7.7l-1.1-1.1a6.48,6.48,0,0,0-2.9-.7,5.6,5.6,0,0,0-2.7.8,1.38,1.38,0,0,0-.4.3c-3.1,2.3-4.9,8.1-4.9,15.7,0,13.2,9.7,25.4,14.8,30a2.19,2.19,0,0,1,.3.5c4.7,15.9,19.9,42.5,47.9,54.9.3.2.7.3,1,.5s.7.3,1,.4a81,81,0,0,0,30.6,5.8,78,78,0,0,0,26.6-4.4c.4-.1.7-.3,1.1-.4a10.37,10.37,0,0,0,1-.4c29.4-11.6,43.7-39.7,47.4-56.3a2.19,2.19,0,0,1,.3-.5c6.2-5.3,18-18.4,18-30C354.1,284.2,351.8,279.4,349.2,277ZM177.1,306.8h-.2a.52.52,0,0,1-.4-.2c-1-1.5-3.1-3.9-4.4-4a.54.54,0,0,1-.5-.5c0-.2.1-.3.3-.4h.5a7.42,7.42,0,0,1,3.6,2.8,13.32,13.32,0,0,0-1-2.8,23.25,23.25,0,0,0-4.5-6.5.49.49,0,0,1,.7-.7,25.32,25.32,0,0,1,4.9,7.2,15.5,15.5,0,0,1,1.2,4.7C177.5,306.5,177.4,306.7,177.1,306.8Zm19.8-37.3a1.61,1.61,0,0,1-.9.3,1.54,1.54,0,0,1-1-2.7c10.2-8.2,25.5-9,32.3-8.3a1.51,1.51,0,1,1-.4,3C220.7,261.2,206.3,261.9,196.9,269.5ZM233,293.7a1.08,1.08,0,0,1-1.4.2c-2.6-2.1-7.3-4.2-11.6-3.4-3.2.6-6,2.7-8,6.3a1.05,1.05,0,0,1-.9.5.9.9,0,0,1-.5-.1,1,1,0,0,1-.3-1.4c2.4-4.1,5.6-6.5,9.4-7.2,5-1,10.1,1.3,13.2,3.8A.85.85,0,0,1,233,293.7Zm31,21.8c-2.6-3.7-4.2-9.2-5.1-13.9a48.08,48.08,0,0,1-.8-6.4,1,1,0,1,1,2-.2c.1,1.6.4,3.9.8,6.5.8,4.3,2.3,9.4,4.7,12.7,1.3,1.9,1.8,3.7,1.3,5.3-.9,3-4.9,4.5-7.5,5.5-.1,0-.2.1-.3.1a.87.87,0,0,1-.9-.6,1,1,0,0,1,.6-1.3c2.3-.9,5.7-2.1,6.3-4.2C265.4,318,265,316.8,264,315.5Zm-.3,39.7a17.7,17.7,0,0,1-2.3.1,23.27,23.27,0,0,1-16.3-6.3c-4.7-4.3-6.8-9.8-6.8-13.2a.94.94,0,0,1,1-1h45.1a.91.91,0,0,1,.7.3,1.08,1.08,0,0,1,.3.7C285.1,342,280.2,353.9,263.7,355.2Zm48-58a.9.9,0,0,1-.5.1,1.05,1.05,0,0,1-.9-.5c-1.9-3.6-4.5-5.8-7.7-6.6-5.1-1.2-10.9,1.3-14.4,3.8a1.08,1.08,0,0,1-1.4-.2,1.06,1.06,0,0,1,.2-1.4c3.8-2.8,10.3-5.5,16-4.1,3.9.9,6.9,3.5,9,7.7C312.4,296.3,312.2,297,311.7,297.2ZM323,269.6a1.2,1.2,0,0,1-.8.2,1.46,1.46,0,0,1-1.3-.7c-4.6-7-19.1-8.2-27.7-7.3a1.51,1.51,0,0,1-.4-3c8.7-.9,24.8-.2,30.6,8.7A1.46,1.46,0,0,1,323,269.6Zm23.3,25.5a23.25,23.25,0,0,0-4.5,6.5,15.68,15.68,0,0,0-1,2.8c1-1.2,2.3-2.5,3.6-2.8h.6c.1.1.3.2.3.4a.47.47,0,0,1-.5.5c-1.3.1-3.4,2.5-4.4,4a.76.76,0,0,1-.4.2h-.2c-.2-.1-.4-.3-.3-.5a15.5,15.5,0,0,1,1.2-4.7,21.8,21.8,0,0,1,4.9-7.2.48.48,0,0,1,.7,0A1.1,1.1,0,0,1,346.3,295.1Z" fill="#f4f0dd"/><path d="M177.5,306.3a.55.55,0,0,1-.3.5H177a.52.52,0,0,1-.4-.2c-1-1.5-3.1-3.9-4.4-4a.54.54,0,0,1-.5-.5c0-.2.1-.3.3-.4h.5a7.42,7.42,0,0,1,3.6,2.8,13.32,13.32,0,0,0-1-2.8,23.25,23.25,0,0,0-4.5-6.5.49.49,0,0,1,.7-.7,25.32,25.32,0,0,1,4.9,7.2A12.17,12.17,0,0,1,177.5,306.3Z"/><path d="M341.8,301.6a15.68,15.68,0,0,0-1,2.8c1-1.2,2.3-2.5,3.6-2.8h.5c.1.1.3.2.3.4a.47.47,0,0,1-.5.5c-1.3.1-3.4,2.5-4.4,4a.76.76,0,0,1-.4.2h-.2c-.2-.1-.4-.3-.3-.5a15.5,15.5,0,0,1,1.2-4.7,21.8,21.8,0,0,1,4.9-7.2.49.49,0,1,1,.7.7A24.09,24.09,0,0,0,341.8,301.6Z"/><path d="M344.9,301.6h-.2C344.8,301.5,344.8,301.6,344.9,301.6Z"/><path d="M228.6,260.6a1.5,1.5,0,0,1-1.7,1.3c-6.3-.7-20.6.1-30,7.7a1.61,1.61,0,0,1-.9.3,1.54,1.54,0,0,1-1-2.7c10.2-8.2,25.5-9,32.3-8.3A1.5,1.5,0,0,1,228.6,260.6Z"/><path d="M323,269.6a1.2,1.2,0,0,1-.8.2,1.46,1.46,0,0,1-1.3-.7c-4.6-7-19.1-8.2-27.7-7.3a1.51,1.51,0,0,1-.4-3c8.7-.9,24.8-.2,30.6,8.7A1.46,1.46,0,0,1,323,269.6Z"/><path d="M240.4,336.9a19.21,19.21,0,0,0,6.1,10.7,21.86,21.86,0,0,0,17.1,5.6c14.2-1.1,19-10.7,19.8-16.4l-43,.1Zm37.9,5.1c-3,1-26.4,1-31.4,0-4-.8-4.5-3.4-4.3-5.1h39C281.4,338.6,280.5,341.2,278.3,342Z" fill="#ae5646"/><path d="M233,293.7a1.08,1.08,0,0,1-1.4.2c-2.6-2.1-7.3-4.2-11.6-3.4-3.2.6-6,2.7-8,6.3a1.05,1.05,0,0,1-.9.5.9.9,0,0,1-.5-.1,1,1,0,0,1-.3-1.4c2.4-4.1,5.6-6.5,9.4-7.2,5-1,10.1,1.3,13.2,3.8A.85.85,0,0,1,233,293.7Z"/><path d="M311.7,297.2a.9.9,0,0,1-.5.1,1.05,1.05,0,0,1-.9-.5c-1.9-3.6-4.5-5.8-7.7-6.6-5.1-1.2-10.9,1.3-14.4,3.8a1.08,1.08,0,0,1-1.4-.2,1.06,1.06,0,0,1,.2-1.4c3.8-2.8,10.3-5.5,16-4.1,3.9.9,6.9,3.5,9,7.7C312.4,296.3,312.2,297,311.7,297.2Z"/><path d="M281.5,336.9c-.1,1.7-1,4.3-3.3,5.1-3,1-26.4,1-31.4,0-4-.8-4.5-3.4-4.3-5.1Z" fill="#fff"/><path d="M267,319.6c-.9,3-4.9,4.5-7.5,5.5-.1,0-.2.1-.3.1a.87.87,0,0,1-.9-.6,1,1,0,0,1,.6-1.3c2.3-.9,5.7-2.1,6.3-4.2a3.94,3.94,0,0,0-1-3.5c-2.6-3.7-4.2-9.2-5.1-13.9a48.08,48.08,0,0,1-.8-6.4,1,1,0,0,1,2-.2c.1,1.6.4,3.9.8,6.5.8,4.3,2.3,9.4,4.7,12.7A6.82,6.82,0,0,1,267,319.6Z"/><path d="M213.4,418.5l-3.5.6A18.22,18.22,0,0,0,213.4,418.5Zm-6.2,1.1c.8-.1,1.6-.3,2.4-.4h.1C209,419.3,208.1,419.4,207.2,419.6Zm185.5,22,.3.3c.2.2.5.4.7.6C393.4,442.2,393,441.9,392.7,441.6Zm-1.1-.8.3.3c.1.1.3.2.4.3A4.35,4.35,0,0,0,391.6,440.8Zm-3.3-2.4Zm-3.6-2c-.3-.1-.5-.3-.8-.4a3,3,0,0,1,.8.4l.1.1C384.8,436.4,384.8,436.4,384.7,436.4Zm-4.1-2.2c.1,0,.1,0,.1.1A.1.1,0,0,1,380.6,434.2Zm-34.4-10.9c.1,0,.2,0,.2.1.9.2,1.8.4,2.6.6A22.91,22.91,0,0,0,346.2,423.3Zm27.3,7.9a.6.6,0,0,0-.4-.1,3.55,3.55,0,0,1,.9.4A2.19,2.19,0,0,0,373.5,431.2Zm-2.5-.9c-.1,0-.1,0-.2-.1s-.3-.1-.4-.2a7.49,7.49,0,0,0-1.6-.5,9.83,9.83,0,0,0-1.6-.5c-.4-.1-.8-.3-1.2-.4-2.1-.7-4.3-1.4-6.6-2-.6-.2-1.3-.3-1.9-.5s-1.2-.3-1.8-.5c-.9-.2-1.8-.5-2.8-.7-.2,0-.3-.1-.4-.1a2.92,2.92,0,0,0-.9-.2c.1,0,.2.1.3.1a.37.37,0,0,1,.3.1h.2a1.42,1.42,0,0,1,.6.2c.1,0,.3.1.4.1.7.2,1.3.3,1.9.5a8.45,8.45,0,0,1,1.7.5c.6.2,1.2.3,1.8.5s1.1.3,1.6.4c.8.2,1.7.5,2.5.7s1.6.5,2.3.7c.4.1.8.3,1.2.4s.8.3,1.1.4c.8.3,1.5.5,2.3.8a5.27,5.27,0,0,0,1.2.3Zm-32-8.5h0a1,1,0,0,0,.3.1A.37.37,0,0,1,339,421.8Zm-1.4-.2Zm-18.5-3a.9.9,0,0,1-.5-.1c.2,0,.3.1.5.1a7.72,7.72,0,0,0,1.5.2A7.72,7.72,0,0,0,319.1,418.6Zm-5.4-.8c1,.1,2,.3,3,.4h.2Zm-.6,0c-.3,0-.6-.1-.8-.1-.4-.1-.8-.1-1.2-.2l.7.1c.3,0,.6.1.8.1.4,0,.7.1,1.1.1Zm-9.9-1.3c.3,0,.7.1,1,.1A3.4,3.4,0,0,1,303.2,416.5ZM263.9,470l.1-.1,4.3-5.9Z" fill="#4377a5"/><path d="M213.4,418.5l-3.5.6A18.22,18.22,0,0,0,213.4,418.5Zm-4-1.3c-.2,0-.5.1-.7.1h.3a7.72,7.72,0,0,1,1.5-.2C210.1,417.1,209.8,417.2,209.4,417.2Zm-2.2,2.4c.8-.1,1.6-.3,2.4-.4h.1C209,419.3,208.1,419.4,207.2,419.6Zm-.3-2c-.4.1-.8.1-1.2.2.4-.1.8-.1,1.2-.2l1.8-.3Zm184.7,23.2.3.3c.1.1.3.2.4.3A4.35,4.35,0,0,0,391.6,440.8Zm-3.3-2.4Zm-3.6-2c-.3-.1-.5-.3-.8-.4a3,3,0,0,1,.8.4l.1.1C384.8,436.4,384.8,436.4,384.7,436.4Zm-4.1-2.2h0c.1,0,.1,0,.1.1A.1.1,0,0,1,380.6,434.2Zm-34.4-10.9c-.2,0-.4-.1-.7-.1.3.1.6.1.9.2.9.2,1.8.4,2.6.6A22.91,22.91,0,0,0,346.2,423.3Zm27.3,7.9a.6.6,0,0,0-.4-.1,3.55,3.55,0,0,1,.9.4A2.19,2.19,0,0,0,373.5,431.2Zm-2.5-.9c-.1,0-.1,0-.2-.1s-.3-.1-.4-.2a7.49,7.49,0,0,0-1.6-.5,9.83,9.83,0,0,0-1.6-.5c-.4-.1-.8-.3-1.2-.4-2.1-.7-4.3-1.4-6.6-2-.6-.2-1.3-.3-1.9-.5s-1.2-.3-1.8-.5c-.9-.2-1.8-.5-2.8-.7-.2,0-.3-.1-.4-.1a2.92,2.92,0,0,0-.9-.2c.1,0,.2.1.3.1a.37.37,0,0,1,.3.1h.2a1.42,1.42,0,0,1,.6.2c.2,0,.3.1.5.1.6.2,1.3.3,1.9.5a8.45,8.45,0,0,1,1.7.5c.6.2,1.2.3,1.8.5s1.1.3,1.6.4c.8.2,1.7.5,2.5.7s1.6.5,2.3.7c.4.1.8.3,1.2.4s.8.3,1.1.4c.8.3,1.5.5,2.3.8a6.15,6.15,0,0,0,1.1.3Zm-28.7-7.8c-.8-.2-1.6-.3-2.4-.5.9.2,1.7.3,2.6.5Zm-3.3-.7h0a1,1,0,0,0,.3.1A.37.37,0,0,1,339,421.8Zm-1.3-.2Zm-1.2-.2c-.2,0-.5-.1-.7-.1l1.4.3A2.54,2.54,0,0,0,336.5,421.4Zm-17.4-4.8c-.9-.1-1.8-.3-2.7-.4A25.12,25.12,0,0,1,319.1,416.6Zm-.5.9h0Zm-4.9.3c1,.1,2,.3,3,.4h.2Zm-50.6,49.9,4.2-5.7Z"/><path d="M353.6,425c-.1,0-.3-.1-.4-.1C353.3,425,353.4,425,353.6,425Z" fill="#4377a5"/><path d="M373.5,431.2c.2.1.4.1.6.2-.3-.1-.6-.3-.9-.4C373.3,431.1,373.4,431.2,373.5,431.2Z" fill="#4377a5"/><path d="M379.4,433.7a3.55,3.55,0,0,1-.9-.4c-.3-.1-.6-.3-.9-.4h-.1c.2.1.3.1.4.2l.6.3A4.65,4.65,0,0,1,379.4,433.7Z" fill="#4377a5"/><path d="M384.7,436.4l.1.1C384.8,436.4,384.8,436.4,384.7,436.4Z" fill="#4377a5"/><path d="M207.2,419.6c.8-.1,1.6-.3,2.4-.4h.1C209,419.3,208.1,419.4,207.2,419.6Zm6.2-1.1-3.5.6A18.22,18.22,0,0,0,213.4,418.5ZM263.9,470l.1-.1,4.3-5.9Zm39.3-53.5c.3,0,.7.1,1,.1A3.4,3.4,0,0,1,303.2,416.5Zm9.9,1.3c-.3,0-.6-.1-.8-.1-.4-.1-.8-.1-1.2-.2l.7.1c.3,0,.6.1.8.1.4,0,.7.1,1.1.1Zm.6,0c1,.1,2,.3,3,.4h.2Zm4.7-.3h0Z" fill="#236aa9"/><path d="M207.2,419.6c.8-.1,1.6-.3,2.4-.4h.1C209,419.3,208.1,419.4,207.2,419.6Zm6.7-3.1h-.3l-4.1.7-.4.1a7.72,7.72,0,0,1,1.5-.2c1.2-.2,2.3-.4,3.3-.5v-.1Zm50,53.5.1-.1,4.3-5.9Zm38.7-55.6h-.2a.6.6,0,0,1,.4.1c.4,0,.8.1,1.2.1a14.92,14.92,0,0,0,2.1.2Zm8.4,3.1.7.1.5.1C311.8,417.6,311.4,417.6,311,417.5Zm1.2.2.3.1.5.1A1.08,1.08,0,0,0,312.2,417.7Zm6.4-.2h0Zm0,1a1.09,1.09,0,0,1,.5.1C318.9,418.6,318.8,418.5,318.6,418.5Zm.5-1.9c-.1,0-.2-.1-.3-.1l-4.9-.6c.2,0,.4.1.6.1l1.9.3A12.41,12.41,0,0,1,319.1,416.6Z"/><path d="M316.8,418.3l-52.3,71.4-65.2-68.6,10.4-1.8h.2c1.2-.2,2.4-.4,3.5-.6l18.8,19.7,30.2,31.9a1.14,1.14,0,0,0,.8.3,1,1,0,0,0,.7-.4l.1-.1.1-.1,4.3-5.9,34.8-47.4c.3,0,.7.1,1,.1s.7.1,1.1.1h.9a12.25,12.25,0,0,0,1.9.2h.3l1.1.1,1.5.2.7.1c.3,0,.6.1.8.1.4,0,.7.1,1.1.1,1,.1,2,.3,3,.4C316.7,418.2,316.8,418.2,316.8,418.3Z" fill="#236aa9"/><path d="M353.1,424.9c.1,0,.3.1.4.1l2.3.6C355,425.4,354,425.1,353.1,424.9Z" fill="#236aa9"/><path d="M408,467.5A247,247,0,0,1,381.2,483h-.1c-26.3,13.2-69.3,29.9-119,29.9-79,0-114.2-22.2-142.4-40-1.2-.8-2.4-1.5-3.6-2.3.4-1.3.9-2.7,1.3-4a41.89,41.89,0,0,1,7.2-14.3c.6-.8,1.3-1.6,2-2.4,7.8-8.7,19-14.8,31.3-19.2l3.3-1.2c11.8-3.9,24.4-6.4,35.4-8.3l67.1,70.6a1.08,1.08,0,0,0,.7.3h.1a1.23,1.23,0,0,0,.8-.4L319,418.5c.5.1,1,.1,1.5.2s1,.1,1.6.2c.9.1,1.7.3,2.6.4s1.6.3,2.4.4c1.9.3,3.9.6,5.9,1a.76.76,0,0,1,.4.1c.3.1.7.1,1,.2s.7.1,1,.2a.76.76,0,0,1,.4.1l1.4.3c.1,0,.3.1.4.1h.2c.3.1.6.1,1,.2.1,0,.3.1.4.1h.1c.2,0,.3.1.5.1.9.2,1.7.3,2.6.5h.2a5.16,5.16,0,0,0,1.1.2,1.85,1.85,0,0,1,.7.2h.2a4.33,4.33,0,0,1,.5.1.37.37,0,0,1,.3.1c.3.1.6.1.9.2.9.2,1.8.4,2.6.6s1.4.3,2.1.5a4.33,4.33,0,0,1,.5.1c.1,0,.2.1.3.1a.37.37,0,0,1,.3.1h.2a1.42,1.42,0,0,1,.6.2c.2,0,.3.1.5.1.6.2,1.3.3,1.9.5a8.45,8.45,0,0,1,1.7.5c.6.2,1.2.3,1.8.5s1.1.3,1.6.4c.8.2,1.7.5,2.5.7s1.6.5,2.3.7c.4.1.8.3,1.2.4s.8.3,1.1.4c.8.3,1.5.5,2.3.8.4.1.8.3,1.1.4l1.5.6c.1,0,.2.1.4.1a26260164157620.46,26260164157620.46,0,0,0,1.8.8,1.42,1.42,0,0,0,.6.2,4.88,4.88,0,0,0,.7.3h.1c.1,0,.2.1.3.1s.5.2.7.3h.2c.3.1.6.3.9.4s.6.3.9.4c.1,0,.2.1.3.1s.3.1.4.2a497582161915.91,497582161915.91,0,0,1,.2.2h.2c.1.1.3.1.4.2,1,.5,1.9.9,2.8,1.4.3.1.5.3.8.4a.1.1,0,0,1,.1.1c.1,0,.1.1.2.1.3.2.7.4,1,.6.1,0,.1.1.2.1s.2.1.3.2.1.1.2.1a6.73,6.73,0,0,1,1.1.7c.1,0,.1.1.2.1l.1.1a1.38,1.38,0,0,1,.4.3h.1a.1.1,0,0,1,.1.1c.6.4,1.3.9,1.9,1.3.4.3.8.6,1.1.8.1.1.3.2.4.3l.3.3.3.3c.2.2.5.4.7.6s.6.5.8.7a4.62,4.62,0,0,1,.7.7l1.1,1.1a6.47,6.47,0,0,1,.8.9,15.58,15.58,0,0,1,1.6,2c3.4,3.9,6.4,10.1,8.8,18.5C407.8,466.8,407.9,467.2,408,467.5Z" fill="#4377a5"/><path d="M410.1,467.6c-.2-.8-.5-1.6-.7-2.4-2.5-8.3-5.5-14.5-9-18.5a25.13,25.13,0,0,0-2.6-3.1,9.43,9.43,0,0,0-1-1,9.43,9.43,0,0,1-1-1,8.64,8.64,0,0,1-1.4-1.3c-.4-.4-.9-.7-1.3-1.1a45.25,45.25,0,0,0-5.6-3.7,30.71,30.71,0,0,0-3.1-1.7,22.56,22.56,0,0,0-2.2-1.1c-.7-.3-1.4-.7-2.1-1s-1.3-.6-1.9-.9a171.76,171.76,0,0,0-30.2-9.3c-.8-.2-1.5-.3-2.3-.5a23.81,23.81,0,0,0-2.6-.5l-3.3-.6c-.5-.1-1-.2-1.6-.3-1-.2-2-.4-3.1-.6-.7-.1-1.4-.3-2.1-.4-2.4-.4-4.7-.8-7-1.1-1.7-.3-3.4-.5-5.1-.8l-1.8-.3c-.9-.1-1.8-.3-2.7-.4-.7-.1-1.3-.2-1.9-.3-.2,0-.4-.1-.6-.1l-2-.3-5.8-.7a14.92,14.92,0,0,0-2.1-.2,4.87,4.87,0,0,0-1.2-.1c-.2,0-.3,0-.4-.1-.3,0-.5-.1-.8-.1-6.4-.8-12.5-1.5-13.4-2-1.8-1.2-1.8-15.3-.1-32.6,30.7-11.6,45.5-40.5,49.5-57.8,6.5-5.6,18.5-19.1,18.5-31.3,0-8.1-3.3-13.8-6.9-16.2l.8-30.8c.1-.1.2-.1.3-.2,7.5-9.4,15.7-33-6.9-55.6a33.29,33.29,0,0,0-2.8-2.5.91.91,0,0,0,.3-.7c.8-8.4-2.8-17.9-9.5-25.3-9-9.9-28.3-21.7-68.9-21.7-63.9,0-82.7,29.1-84,45.6a50,50,0,0,0-5.4,4.6c-23.2,24.2-15.9,47-8.8,55.6a1.23,1.23,0,0,0,.8.4h1.7l2.1,29c-.2.1-.3.2-.5.3-4,2.5-6.3,8.9-6.3,17.7,0,13.8,9.9,26.4,15.3,31.3,5,16.5,20.8,44,49.9,56.3.5,6.2.9,14.2.9,21.2,0,5.8-.3,10.9-1.2,13.3-.4,1.3-6.1,2.5-13,3.6h-.1c-1.1.2-2.2.4-3.3.5a7.72,7.72,0,0,1-1.5.2h-.3l-1.8.3c-.4.1-.8.1-1.2.2a3.55,3.55,0,0,0-1,.2c-1,.1-2,.3-3,.5l-1.8.3c-.3,0-.6.1-1,.1-1.3.2-2.7.4-4,.7-.2,0-.4.1-.6.1-.8.1-1.7.3-2.5.4-.3.1-.7.1-1,.2-.8.2-1.7.3-2.5.5-4.2.8-8.5,1.7-12.8,2.7-.9.2-1.8.4-2.6.6-25.2,6.4-50.7,17.9-57.4,42-.5,1.6-1.1,3.1-1.6,4.7v.1a1.19,1.19,0,0,0,.4,1.1c1.4.9,2.8,1.8,4.3,2.7,28.5,17.9,64,40.3,143.5,40.3,82.7,0,147-45.8,147.6-46.2C410.1,468.5,410.2,468,410.1,467.6Zm-91.5-50.1h0ZM262.5,139.6c39.9,0,58.7,11.5,67.5,21.1,6.2,6.8,9.5,15.3,9.1,22.9h-.8c-16.2-11.2-48-18.1-84.1-17.7-19,.2-36,2.3-49.9,6.1-9.4,2.6-17.4,5.9-23.6,9.8C183,165.7,202.1,139.6,262.5,139.6Zm-96.7,92,.7,10.2h-1a32.52,32.52,0,0,1-6.2-19.6c0-9.5,3.7-21.1,15.2-33.1a33.45,33.45,0,0,1,4.4-3.8l1.2-.9c.5-.3,1-.7,1.5-1,15-9.5,41.5-15.4,72.6-15.7,33.4-.3,63.8,5.8,80.3,15.7.5.3,1.1.7,1.6,1s1,.7,1.5,1a27.68,27.68,0,0,1,4.4,3.7c20.2,20.2,14.7,41.3,8.1,51.1l.2-8.7c-3.3-14.4-22.4-41.8-73-46.1-5-.4-10.4-.6-16.1-.6-4.5,0-8.8.3-12.9.6C194.9,189.9,171.1,217.4,165.8,231.6Zm62.3,145c-.3-.2-.7-.3-1-.5-28-12.3-43.2-38.9-47.9-54.9-.1-.2-.2-.3-.3-.5-5.1-4.6-14.8-16.8-14.8-30,0-7.6,1.8-13.4,4.9-15.7.1-.1.3-.2.4-.3a5,5,0,0,1,2.7-.8,6.48,6.48,0,0,1,2.9.7,11.41,11.41,0,0,1,1.1,1.1,15.76,15.76,0,0,1,3.5,7.7,1.06,1.06,0,0,0,1,.9h.1a1,1,0,0,0,.9-1.1c-.1-.5-.1-.9-.2-1.3v-.2c0-.2-1.1-16.4-.3-22.7l.1-.5c.6-5.1,1.2-10,2.9-14.7a4.18,4.18,0,0,1,.4-1c.1-.3.3-.7.4-1,3.5-7.9,10.9-15.4,27.8-22.8,14-6.1,18.6-2.2,24.4,2.7,5,4.2,10.6,9,22.8,9s16.4-3.9,20.1-7.4c4.5-4.2,8.4-7.8,26-4.2,11.8,2.4,20.8,10.1,26.9,22.7.2.3.3.7.5,1s.3.7.4,1a75,75,0,0,1,4.3,12.9c.7,2.9-.9,20.5-1.5,27.1a1,1,0,0,0,.8,1.1c.1.1.2.1.4.1h.1a1.06,1.06,0,0,0,1-.9,15.76,15.76,0,0,1,3.5-7.7l.1-.1.5-.5a4.47,4.47,0,0,1,4.6-.1,6.57,6.57,0,0,1,1.7,1.2c2.7,2.4,5,7.2,5,13.7,0,11.6-11.8,24.7-18,30a.55.55,0,0,0-.3.5c-3.7,16.6-17.9,44.7-47.4,56.3-.3.1-.7.3-1,.4s-.7.3-1.1.4a78.46,78.46,0,0,1-26.6,4.4,81.38,81.38,0,0,1-30.6-5.8A3.73,3.73,0,0,1,228.1,376.6Zm.8,36.9c2.1-6.2,1.1-25.2.4-34.3a85.2,85.2,0,0,0,56.8,1.4c-1.1,11.7-2.4,31.1,1.1,33.5,1,.7,4.7,1.2,13.5,2.2l-33.4,45.8-4.1,5.7-28.7-30.1-18.4-19.5C224.2,416.7,228.1,415.6,228.9,413.5Zm-19.2,5.7c-.8.1-1.6.3-2.4.4.9-.1,1.8-.3,2.6-.4h.1l3.5-.6,18.8,19.7,30.2,31.9a1.14,1.14,0,0,0,.8.3,1,1,0,0,0,.7-.4l.1-.1,4.4-6,34.8-47.4c.3,0,.7.1,1,.1s.7.1,1.1.1h.9a12.25,12.25,0,0,0,1.9.2h.3l1.1.1,1.5.2c.4.1.8.1,1.2.2s.6.1.8.1l.6.1,3.2.4-52.3,71.4-65.2-68.6ZM381.2,483h0c-26.4,13.3-69.4,29.9-119.1,29.9-79,0-114.2-22.2-142.4-40-1.2-.8-2.4-1.5-3.6-2.3.4-1.3.9-2.7,1.3-4a41.89,41.89,0,0,1,7.2-14.3c.6-.8,1.3-1.6,2-2.4,7.8-8.7,19-14.8,31.3-19.2l3.3-1.2c11.8-3.9,24.4-6.4,35.4-8.3l67.1,70.6a1.08,1.08,0,0,0,.7.3h.1a1.23,1.23,0,0,0,.8-.4L319,418.5a1.09,1.09,0,0,1-.5-.1,1.09,1.09,0,0,1,.5.1,7.72,7.72,0,0,0,1.5.2c.5.1,1,.1,1.6.2.9.1,1.7.3,2.6.4s1.6.3,2.4.4c1.9.3,3.9.6,5.9,1a.76.76,0,0,1,.4.1c.3.1.7.1,1,.2s.7.1,1,.2a.76.76,0,0,1,.4.1c.2,0,.5.1.7.1s.4.1.7.1c.1,0,.3.1.4.1h.2c.3.1.6.1,1,.2h.1c.1,0,.2,0,.2.1h.1c.2,0,.3.1.5.1.8.2,1.6.3,2.4.5h.4a5.16,5.16,0,0,0,1.1.2,1.85,1.85,0,0,1,.7.2h.2a4.33,4.33,0,0,1,.5.1.37.37,0,0,1,.3.1,1.48,1.48,0,0,0,.7.1l2.9.6c.7.2,1.4.3,2.1.5a4.33,4.33,0,0,1,.5.1c.3.1.6.1.9.2.1,0,.3.1.4.1.9.2,1.8.4,2.8.7.6.2,1.2.3,1.8.5s1.3.3,1.9.5c2.2.6,4.4,1.3,6.6,2,.4.1.8.3,1.2.4s1.1.3,1.6.5a7.49,7.49,0,0,0,1.6.5c.1.1.3.1.4.2s.1,0,.2.1c.8.3,1.7.6,2.5.9.2.1.4.1.6.2a3.55,3.55,0,0,1,.9.4,1.42,1.42,0,0,0,.6.2,4.88,4.88,0,0,0,.7.3h.1c.1,0,.2.1.3.1s.5.2.7.3h.1c.2.1.3.1.4.2l.6.3c.3.1.5.2.8.3.1,0,.2.1.3.1s.3.1.4.2a497582161916.26,497582161916.26,0,0,1,.2.2h.1c.1,0,.1,0,.1.1s.3.1.4.2c1,.5,1.9.9,2.8,1.4.3.1.5.3.8.4l.1.1c.1,0,.1.1.2.1.3.2.7.4,1,.6.1,0,.1.1.2.1s.2.1.3.2.1.1.2.1a6.73,6.73,0,0,1,1.1.7c.1,0,.1.1.2.1l.1.1a1.38,1.38,0,0,1,.4.3h.1a.1.1,0,0,1,.1.1c.6.4,1.3.9,1.9,1.3.3.2.5.4.8.6s.5.4.8.6l.3.3a7,7,0,0,0,1,.8c.3.3.6.5.8.7a4.62,4.62,0,0,1,.7.7l1.1,1.1a6.47,6.47,0,0,1,.8.9,15.58,15.58,0,0,1,1.6,2c3.4,3.9,6.4,10.1,8.8,18.5.1.3.2.7.3,1C405.6,469.1,396.1,475.5,381.2,483Z"/><path d="M285.1,335.2a.91.91,0,0,0-.7-.3H239.3a.94.94,0,0,0-1,1c0,3.4,2.1,8.9,6.8,13.2a23.73,23.73,0,0,0,16.3,6.3,18.48,18.48,0,0,0,2.3-.1c16.5-1.3,21.4-13.2,21.7-19.3A1,1,0,0,0,285.1,335.2Zm-21.5,18a22,22,0,0,1-17.1-5.6,19.21,19.21,0,0,1-6.1-10.7h42.9C282.6,342.6,277.8,352.1,263.6,353.2Z"/></g></g></svg>