<svg xmlns="http://www.w3.org/2000/svg" viewBox="0 0 515.4 515.1"><title>Asset 10</title><g id="Layer_2" data-name="Layer 2"><g id="Слой_1" data-name="Слой 1"><path d="M284.6,389.4h0Zm0,0h0Zm0,0h0Zm113.9,59.2c.5.6.9,1.3,1.4,1.9A23.07,23.07,0,0,1,398.5,448.6Zm-41.9-22c-.1,0-.2-.1-.3-.1s.1.1.3.1l1.2.3A4.22,4.22,0,0,1,356.6,426.6ZM119.3,457.9a15.05,15.05,0,0,0-1.1,2.2A15.05,15.05,0,0,1,119.3,457.9ZM175,425.2c.1,0,.2-.1.3-.1A.37.37,0,0,1,175,425.2Zm108.8-40.8v.6c0-.3.1-.7.1-1A.76.76,0,0,0,283.8,384.4ZM257.7,0C115.4,0,0,115.4,0,257.7A257.27,257.27,0,0,0,112.2,470.4a.76.76,0,0,0,.1-.4c.1-.4.2-.7.3-1.1.3-.9.6-1.6.8-2.3.1-.4.3-.9.4-1.3s.2-.7.3-1,.3-.7.4-1.1c0-.1.1-.3.1-.4s.2-.5.3-.7.3-.6.4-.9c.1-.1.1-.3.2-.4s.1-.3.2-.4c.1-.3.3-.6.4-.9a2.19,2.19,0,0,1,.3-.5,4.67,4.67,0,0,0,.5-1c.2-.3.4-.7.6-1s.5-.8.7-1.2c.5-.8,1-1.6,1.6-2.4l.9-1.2c.2-.3.5-.6.7-.9a6634428825555.06,6634428825555.06,0,0,1,.8-.8c.2-.3.5-.6.7-.9a12.88,12.88,0,0,1,1.6-1.7l1.2-1.2.8-.8a9,9,0,0,1,1-.9l.6-.6a17.41,17.41,0,0,0,1.4-1.2,5.5,5.5,0,0,1,.9-.7,7.63,7.63,0,0,1,1.1-.8c.2-.2.4-.3.6-.5a76.06,76.06,0,0,1,7.3-4.7c.7-.4,1.5-.8,2.2-1.2.1-.1.3-.1.4-.2a.1.1,0,0,0,.1-.1l1.8-.9c2.3-1.1,4.7-2.2,7.1-3.2.8-.3,1.5-.6,2.3-.9.4-.1.7-.3,1.1-.4,1.3-.5,2.6-.9,3.9-1.4.1,0,.3-.1.4-.1a19.32,19.32,0,0,1-.8-8.2c1.3-8.7,4.3-15.3,8.7-20.3A37.24,37.24,0,0,1,182.7,389c12.1-4.4,26.7-4.6,39.7-4.7-.2-3.3-.4-6.4-.6-8.8a81.52,81.52,0,0,1-23.3-12.7c-14.6-11.5-24.3-27.3-30.2-44.9a159.29,159.29,0,0,1-5.8-23.1,19.89,19.89,0,0,1-11.7-4.4c-4.4-3.6-7.8-9.8-7.8-19.7s3.1-16.3,7.2-20.2a19.16,19.16,0,0,1,10.2-5.2,226.46,226.46,0,0,1,3.3-26.7,4.6,4.6,0,0,1-2.9-.5,4.49,4.49,0,0,1-2.1-2.4,10,10,0,0,1-.5-5.1,6.35,6.35,0,0,1-1.9-2.9,5.79,5.79,0,0,1,0-3.2,7.79,7.79,0,0,1,2.6-3.7,7.37,7.37,0,0,1-.8-5.1,9.1,9.1,0,0,1,1.3-2.8,5.84,5.84,0,0,1-2.3-4.8,10.84,10.84,0,0,1,1.2-4.7c-.6-5.6.7-8.7,3-10.1a6.49,6.49,0,0,1,4.3-.7,4.1,4.1,0,0,1,0-2.2,4.78,4.78,0,0,1,1.3-2.3,6.79,6.79,0,0,1-1.1-3.4,4.54,4.54,0,0,1,1.2-3.2,8.84,8.84,0,0,1,4.5-2.5,9.87,9.87,0,0,1,1.9-4.5,5,5,0,0,1,3.5-1.8,8.54,8.54,0,0,1,4.7,1.3c-.2-4.5,1.1-7.4,3.3-9a8.59,8.59,0,0,1,6.2-1.6c-.4-4.5,1.1-7.4,3.4-9.1a11.54,11.54,0,0,1,7.1-2,10.69,10.69,0,0,1,2.9-3.3,4.34,4.34,0,0,1,3.6-.6,6.21,6.21,0,0,1,2.9,1.5,5,5,0,0,1,.2-1.2,5.09,5.09,0,0,1,2-2.7,7.43,7.43,0,0,1,4.5-1,5.73,5.73,0,0,1,1.4-2.7,3.3,3.3,0,0,1,2.7-1,5.51,5.51,0,0,1,2.5,1c.2.2.4.3.6.5a7.93,7.93,0,0,1,2-3.1,5.75,5.75,0,0,1,3.7-1.7,10.73,10.73,0,0,1,6,1.5,13.08,13.08,0,0,1,7.4-3.2,5.75,5.75,0,0,1,4.8,2.1,10.47,10.47,0,0,1,.8,1.1,8.62,8.62,0,0,1,2.2-3.3,4.71,4.71,0,0,1,4.3-1.2,9.29,9.29,0,0,1,3.8,2,17,17,0,0,1,1.9,1.9,7,7,0,0,1,2.3-2.5,5.57,5.57,0,0,1,3.9-.8,10.91,10.91,0,0,1,5.6,3,7.17,7.17,0,0,1,3.4-1,4,4,0,0,1,2.9,1.1,5.18,5.18,0,0,1,1.3,2.4v.1a11.76,11.76,0,0,1,3.1-2.3,5.11,5.11,0,0,1,4.2.1,7.27,7.27,0,0,1,2.8,2.7,22.56,22.56,0,0,1,1.1,2.2,8.94,8.94,0,0,1,3.7-1,5.13,5.13,0,0,1,3.5,1.2,8.3,8.3,0,0,1,2.7,4.3,12.32,12.32,0,0,1,6.2-.4,7.11,7.11,0,0,1,4.4,2.7,11,11,0,0,1,2,7.3,5.23,5.23,0,0,1,1.8.3,3.39,3.39,0,0,1,1.9,1.6,4.84,4.84,0,0,1,.7,1.8,11.08,11.08,0,0,1,3-1.6,4.75,4.75,0,0,1,3.9.7c1.8,1.1,2.9,3.3,3.5,5.1a4.16,4.16,0,0,1,2.5.4,3.9,3.9,0,0,1,2,2,8,8,0,0,1,.8,4,5.67,5.67,0,0,1,4.3,3.5,5.2,5.2,0,0,1,.2,3c3.4-.2,5.6.5,6.8,2a4.79,4.79,0,0,1,.8,4.1c2.7.8,4.1,2.2,4.5,4a5.39,5.39,0,0,1-.8,3.8,4.27,4.27,0,0,1,1.3,1.4,3.39,3.39,0,0,1,.3,2.4,5,5,0,0,1-1.3,2.2,4.18,4.18,0,0,1,1.1,1.5,6.59,6.59,0,0,1,.3,3.1,12.58,12.58,0,0,1-1.7,4.6,5.65,5.65,0,0,1,2.2,4.6,10.31,10.31,0,0,1-.9,4.1,10.52,10.52,0,0,1,2.7,11.9,17.75,17.75,0,0,1,.3,5.7,6.2,6.2,0,0,1-1.2,2.9,3.55,3.55,0,0,1-1.6,1.1,260.34,260.34,0,0,1,3.7,27.6,19.83,19.83,0,0,1,10.2,4.8c4.2,3.8,7.3,10.1,6.8,20s-3.9,16-8.2,19.7a19,19,0,0,1-10.6,4.7,154.75,154.75,0,0,1-5.5,22.8c-5.8,17.6-15.3,33.4-29.8,44.9a83.17,83.17,0,0,1-32.5,15.4c-.2,1.7-.3,3.5-.5,5.4,11.4-1.3,27.7-.2,41.8,5.6,14.5,6,26.8,17,28.7,35.6.8.2,1.7.5,2.5.7s1.7.5,2.5.7a17.23,17.23,0,0,1,2.1.7c.8.3,1.6.5,2.4.8s1.4.5,2.1.7,1.5.5,2.3.8c.3.1.7.3,1,.4s.8.3,1.2.4,1,.4,1.6.6a3.55,3.55,0,0,1,.9.4c2,.8,3.9,1.7,5.7,2.6.5.3,1,.5,1.5.8l2.7,1.5a5.58,5.58,0,0,1,.8.5c1,.6,2,1.2,2.9,1.8a17,17,0,0,1,1.4,1c.3.2.5.4.8.6.6.5,1.3,1,1.9,1.5.2.1.3.3.5.4.3.3.7.6,1,.9l.9.9.6.6.5.5c.2.3.5.5.7.8,0,.1.1.1.1.2a5.72,5.72,0,0,0,.7.8c.1.1.2.3.3.4s.3.4.5.6.4.5.6.8a5.55,5.55,0,0,1,.6.8l.6.9c.1.1.1.2.2.3a.1.1,0,0,0,.1.1,8.79,8.79,0,0,1,.6,1c.2.3.3.5.5.8a10.91,10.91,0,0,0,.6,1.1c.3.5.5.9.8,1.4l.6,1.2a.37.37,0,0,1,.1.3,6.12,6.12,0,0,1,.5,1.2c0,.1.1.1.1.2.2.4.3.8.5,1.2s.4,1.1.7,1.7a5.64,5.64,0,0,1,.4,1.2c.2.5.3,1,.5,1.5s.3.9.5,1.4.3.9.4,1.4.3,1,.5,1.5A257.33,257.33,0,0,0,515.4,257.9C515.4,115.3,400,0,257.7,0ZM160.2,428.3Zm-.6,1.2c.2,0,.3-.1.5-.2A1.69,1.69,0,0,1,159.6,429.5Zm.2-2.2c-.1,0-.1,0-.2.1.1,0,.2,0,.2-.1l.9-.3A9.44,9.44,0,0,1,159.8,427.3Zm-.6,1.3c.1,0,.3-.1.4-.1C159.5,428.5,159.3,428.6,159.2,428.6Zm239.3,20c.5.6.9,1.3,1.4,1.9A23.07,23.07,0,0,1,398.5,448.6ZM284.6,389.4h0Zm113.9,59.2c.5.6.9,1.3,1.4,1.9A23.07,23.07,0,0,1,398.5,448.6ZM241.9,513.9l7.1.3Zm42.7-124.5h0Z" fill="#f2f2f2"/><path d="M371.1,270.2c-.5,9.4-3.7,15-7.5,18.3a16.79,16.79,0,0,1-9,4.1,214.26,214.26,0,0,0,1.6-45.1,17.37,17.37,0,0,1,8.7,4.3C368.6,255.2,371.5,260.9,371.1,270.2Z" fill="#82443a"/><path d="M162.4,292.4a17.87,17.87,0,0,1-10.1-3.9c-3.9-3.2-7.1-8.8-7.1-18.2s3-15.3,6.6-18.8a18.23,18.23,0,0,1,8.6-4.6A205.75,205.75,0,0,0,162.4,292.4Z" fill="#82443a"/><path d="M329.4,418.8c-10.2-1.7-19.7-2.9-27.2-3.8l-2.5-.3c-3.4-.4-6.4-.8-8.6-1.1-1.4-.2-2.5-.4-3.4-.6a5.76,5.76,0,0,0-1-.2c-.3-.1-.3-.1-.4-.1a1.24,1.24,0,0,1-.2-.3c-.1-.2-.2-.5-.4-.9a19.38,19.38,0,0,1-.5-3.3,82.55,82.55,0,0,1-.2-10.3c.1-2.7.2-5.6.4-8.4,11.1.1,26.5,1.7,37,6.2,5.4,2.3,9.2,5.3,10.6,9C334.5,408.2,333.8,412.8,329.4,418.8Z" fill="#7a62b6"/><path d="M223,406.2a30.18,30.18,0,0,1-1,7c0,.1-.2.4-1,.8a16.46,16.46,0,0,1-3.2,1.1c-2.8.7-6.6,1.4-11.2,2.2-1.3.2-2.7.4-4.1.7-1.9.3-4,.6-6.1,1-5.1-4.9-6.8-8.9-6.6-12.2s2.5-6.1,6.1-8.5c7-4.7,18.4-7.5,27-8.6.1,2,.2,4,.2,6C223.2,399.4,223.2,403.1,223,406.2Z" fill="#7a62b6"/><path d="M328,420.6a217.34,217.34,0,0,1-32.4,33.3,137.68,137.68,0,0,1-16.9,12.2c-4.8,2.8-9.1,4.7-12.5,5.4-1.6-4.6-5.1-8.6-9.6-12.3a143.08,143.08,0,0,0-17.7-11.6c-1.5-.9-3-1.7-4.5-2.6-11.8-6.7-24.8-14.2-35.9-24.3,1.6-.3,3.1-.5,4.5-.7s2.8-.4,4.1-.7c4.6-.8,8.5-1.5,11.4-2.2a21.19,21.19,0,0,0,3.6-1.3,3.41,3.41,0,0,0,2-1.9,31.68,31.68,0,0,0,1.1-7.6c.2-3.2.2-6.9.1-10.7,0-2-.1-4.1-.2-6.2v-1a3.4,3.4,0,0,0-.1-1c-.2-4.3-.5-8.4-.8-11.6a111.37,111.37,0,0,0,34.8,5.1,118.3,118.3,0,0,0,25.5-2.6c-.2,1.8-.4,3.7-.5,5.7,0,.1-.1.3-.1.4v.6c-.1.8-.1,1.6-.2,2.4a3.4,3.4,0,0,1-.1,1,3.4,3.4,0,0,0-.1,1c-.2,2.8-.3,5.7-.4,8.3a86.41,86.41,0,0,0,.2,10.5,17.87,17.87,0,0,0,.6,3.7,3.92,3.92,0,0,0,.5,1.3,2.19,2.19,0,0,0,.9,1,3.55,3.55,0,0,0,.9.4,10.38,10.38,0,0,0,1.2.3c.9.2,2.1.4,3.5.6,2.3.3,5.3.7,8.7,1.1l2.5.3C309.2,417.8,318.3,419,328,420.6Z" fill="#82443a"/><path d="M406.1,467.8c-.1,0-.1.1-.2.1-.5.3-1.2.8-2.1,1.4-1.9,1.3-4.7,3-8.3,5.2a292.65,292.65,0,0,1-30.9,15.8c-26.3,11.5-62.9,22.9-104.4,22.9-6.1,0-11.9-.1-17.5-.4-.6,0-1.2-.1-1.8-.1l-5.5-.3c-.8-.1-1.7-.1-2.5-.2l-3.2-.3c-1.4-.1-2.7-.2-4.1-.4-.7-.1-1.4-.1-2.1-.2s-1.2-.1-1.8-.2-1.2-.1-1.8-.2l-2.4-.3c-1.1-.1-2.3-.3-3.4-.4-2.5-.3-4.9-.7-7.2-1.1l-1.7-.3c-.8-.1-1.6-.3-2.4-.4-2.5-.5-4.9-.9-7.3-1.5l-1.5-.3c-1.2-.3-2.3-.5-3.5-.8-.5-.1-1.1-.3-1.6-.4-1-.2-1.9-.5-2.9-.7s-1.8-.5-2.7-.7c-.6-.2-1.3-.3-1.9-.5a20.16,20.16,0,0,1-2.3-.7c-.8-.3-1.5-.4-2.2-.7-1.1-.3-2.2-.7-3.2-1-.5-.2-1.1-.3-1.6-.5a9.83,9.83,0,0,0-1.6-.5c-.1,0-.2-.1-.3-.1-6.4-2.3-12.6-4.8-18.7-7.6-.1,0-.2-.1-.3-.1-.7-.3-1.3-.6-2-.9l-1.8-.9-2.4-1.2c-.8-.4-1.6-.8-2.3-1.2s-1.3-.7-2-1c-.9-.5-1.7-.9-2.6-1.4-.6-.3-1.1-.6-1.7-.9-1.8-1-3.6-2.1-5.3-3.1l-1.5-.9c-4.2-2.5-8.2-5-12-7.4-1.2-.8-2.4-1.5-3.6-2.3.5-1.5.9-2.8,1.3-3.9v-.1a5.64,5.64,0,0,1,.4-1.2c0-.1.1-.3.1-.4.1-.3.2-.7.3-1s.2-.7.3-1,.3-.8.5-1.2a25648603422737.32,25648603422737.32,0,0,1,1-2.2c.3-.7.7-1.4,1.1-2.2.1-.3.3-.5.4-.8a2.09,2.09,0,0,1,.4-.6,2.19,2.19,0,0,1,.3-.5,1,1,0,0,1,.4-.5c.3-.4.6-.9.9-1.3s.6-.9.9-1.3l1.2-1.5c.4-.5.8-.9,1.1-1.3,1-1.1,2-2.2,3.1-3.2.4-.3.7-.7,1.1-1a12.67,12.67,0,0,1,1.3-1.1l1.8-1.5c.5-.4,1-.7,1.5-1.1.3-.2.5-.4.8-.6.6-.4,1.3-.9,1.9-1.3a8.79,8.79,0,0,1,1-.6c.7-.4,1.3-.8,2-1.2.4-.2.8-.5,1.2-.7s.6-.3.9-.5h.1a5.9,5.9,0,0,1,.8-.4l.1-.1a124139240566418.23,124139240566418.23,0,0,0,2.2-1,11.73,11.73,0,0,1,1.1-.5l1.2-.6,1.2-.6,3.6-1.5c.4-.2.8-.3,1.2-.5h.1l1.5-.6c1.7-.6,3.4-1.3,5.2-1.8,2.3,5.7,7.1,11.6,13.6,17,10.4,8.7,25.4,16.6,42.9,21.9,13.9,4.2,23.9,7.8,30.8,10.9s10.7,5.7,12.3,7.7a1,1,0,0,0,.9.4c16.5-1.8,41.5-5.9,61.9-15.2,20-9.1,35.9-23.4,34.7-45.6l1.2.3c2.3.6,4.6,1.3,6.8,2.1,1.3.4,2.6.8,3.8,1.3.6.2,1.2.4,1.7.6a8.65,8.65,0,0,1,1.7.7l1.5.6c.3.1.5.2.8.3s.7.3,1.1.5.7.3,1.1.5a20,20,0,0,1,2.1,1c.3.1.5.3.8.4s.5.3.8.4c.1,0,.2.1.3.1.6.3,1.1.6,1.7.9s1,.5,1.4.8c.1,0,.1,0,.1.1.3.2.6.3.9.5s.5.3.8.5a6.73,6.73,0,0,1,1.1.7c.1,0,.1.1.2.1a6.07,6.07,0,0,1,1,.7l.9.6c.3.2.5.4.8.6a8.74,8.74,0,0,1,1,.8,5.5,5.5,0,0,1,.9.7,5.72,5.72,0,0,1,.8.7c.3.2.5.5.8.7a17415375666905.61,17415375666905.61,0,0,0,1.4,1.4,4.62,4.62,0,0,1,.7.7,11640779564692.75,11640779564692.75,0,0,1,1,1.2c.1.2.3.3.4.5s.4.5.6.8l.1.1C400.8,452.8,403.8,459.9,406.1,467.8Z" fill="#7a62b6"/><path d="M354.5,426.1l-.1-.8V425c0-.4-.1-.7-.1-1-2.1-17.2-13.5-27.5-27.4-33.2s-30.1-6.7-41.2-5.4c-.1.7-.1,1.4-.2,2.1a3.4,3.4,0,0,1-.1,1c2.9,0,6.2.2,9.6.4h.1a100.08,100.08,0,0,1,10.8.3,72.93,72.93,0,0,1,17.3,4.7c5.5,2.4,10,5.6,11.7,10.1,1.7,4.3.8,9.3-3.4,15.2l-.6.9c0,.1-.1.1-.2.2a3,3,0,0,0-.5.7,226.63,226.63,0,0,1-33.3,34.5,133.47,133.47,0,0,1-17.2,12.3c-5.3,3.1-10.2,5.2-14.1,5.8a.92.92,0,0,1-1.1-.7c-1.3-4.4-4.6-8.3-9.3-12.1a142.11,142.11,0,0,0-17.4-11.4c-1.5-.9-3-1.7-4.5-2.6-12.2-6.9-25.9-14.8-37.5-25.6-.3-.2-.5-.5-.8-.7l-.2-.1-.9-.9c-4.6-4.7-6.5-8.9-6.2-12.7.3-4.1,3.1-7.4,6.9-10,4.2-2.8,9.7-4.9,15.4-6.5,2.4-.6,4.8-1.2,7.1-1.6q2.85-.6,5.4-.9V386c-13.1,0-27.4.3-39.1,4.6-6,2.2-11.3,5.3-15.3,10s-7,10.9-8.2,19.3a16.4,16.4,0,0,0,.7,7.2l.3.9.4.9c2.2,5.3,6.6,10.8,12.9,16.1,10.1,8.5,24.9,16.3,42.2,21.5,13.9,4.2,24,7.8,31,11,6.6,2.9,10.6,5.5,12.7,7.9,16.4-1.8,40.9-5.9,60.8-15C341,461.3,356,447.4,354.5,426.1Zm-179.2-1a.37.37,0,0,0-.3.1A.37.37,0,0,0,175.3,425.1Z" fill="#9e8fc4"/><path d="M354.2,248.1c0-.6-.1-1.2-.1-1.8a3.4,3.4,0,0,0-.1-1,227.52,227.52,0,0,0-3.6-27.2,6.37,6.37,0,0,1-4.7-3.1,14,14,0,0,1-1.6-3.9,3.29,3.29,0,0,1-2.2-.5,6.65,6.65,0,0,1-2.3-2.4,19.18,19.18,0,0,1-1.9-4.8,8.23,8.23,0,0,1-6.2-.4,15,15,0,0,1-4.6-3.2,8.44,8.44,0,0,1-6.8-1.3,16.13,16.13,0,0,1-3.6-3.1,7.23,7.23,0,0,1-5.2,2.7,13.25,13.25,0,0,1-5.7-.5,2.36,2.36,0,0,1-.9.8,3.2,3.2,0,0,1-1.9.5,8.59,8.59,0,0,1-3.9-1.3,30.32,30.32,0,0,1-6.5-5.2,9.73,9.73,0,0,1-7.9,2.2,13.74,13.74,0,0,1-6-2.4,11.57,11.57,0,0,1-8.2,0,21,21,0,0,1-5.6-3,6.91,6.91,0,0,1-2.9,2,7.14,7.14,0,0,1-3.8.3,11.87,11.87,0,0,1-4.3-1.8,6.58,6.58,0,0,1-1.3,2.8,6,6,0,0,1-3.5,2.2,14.62,14.62,0,0,1-6.9,0c-1.7,2.1-4.5,2.5-7.1,2.2a24.39,24.39,0,0,1-6.6-1.9,5.17,5.17,0,0,1-2.3,1.8,16.22,16.22,0,0,1-4.7,1.1,46.26,46.26,0,0,1-9.2-.2,4.47,4.47,0,0,1-2.2,2.1,10.13,10.13,0,0,1-3.9.9,26.92,26.92,0,0,1-7.2-.8,11.29,11.29,0,0,1-7,4.2,8.18,8.18,0,0,1-4.3-.6,8.45,8.45,0,0,1-5.8,5.3,16.71,16.71,0,0,1-6.9.5,23.34,23.34,0,0,1-3.4,4.6,15.26,15.26,0,0,1-5.7,3.9,228.37,228.37,0,0,0-3.4,27,3.4,3.4,0,0,1-.1,1,20.9,20.9,0,0,0-.1,2.5,208.53,208.53,0,0,0,1.4,39.3l.6,3.9c.1.9.3,1.8.4,2.7a145,145,0,0,0,5.7,22.7c5.9,17.3,15.3,32.8,29.6,44a79.28,79.28,0,0,0,24.3,12.9c1.1.4,2.1.7,3.2,1s2.4.7,3.7,1a123,123,0,0,0,53.5.5,3.55,3.55,0,0,1,1-.2,4.4,4.4,0,0,1,1-.2,80.7,80.7,0,0,0,31-14.9c14.2-11.2,23.4-26.7,29.2-44a149.78,149.78,0,0,0,5.4-22.2c.1-.5.1-.9.2-1.4.1-.8.3-1.6.4-2.5A199.66,199.66,0,0,0,354.2,248.1Zm-151.1-11a1.27,1.27,0,0,1-1.8-1.8c3.8-3.8,9.1-5.8,13.9-6.8a43.75,43.75,0,0,1,12.4-.8,1.26,1.26,0,1,1-.3,2.5,41.25,41.25,0,0,0-11.6.7C211.1,231.9,206.4,233.7,203.1,237.1Zm30.1,25.8c-.8,5.7-4.1,10-7.4,9.5s-5.3-5.5-4.4-11.2,4.1-10,7.4-9.5S234,257.2,233.2,262.9ZM262,274.5a.89.89,0,0,1,1.1.5c1.2,3.3,2.6,6.7,4,9.6a27.46,27.46,0,0,0,4,6.6c2.6,2.7,4.3,5.5,3.7,8.6s-3.4,6.2-8.8,9.7a.87.87,0,0,1-.9-1.5c5.3-3.5,7.6-6.3,8-8.6s-.7-4.5-3.2-7.1a30.48,30.48,0,0,1-4.3-7c-1.4-3-2.8-6.5-4.1-9.8C261.3,275.2,261.6,274.7,262,274.5Zm24.9,47.9a41,41,0,0,1-9,11.9c-4.2,3.7-9.5,6.5-15.4,5.5a27,27,0,0,1-14.7-8c-3.8-3.9-6.3-8.6-6.7-12.8a1.23,1.23,0,0,1,.5-1,.9.9,0,0,1,1.1.1c3.9,3,11.8,5.7,20.3,6.6s17.1,0,22.4-3.7a1.05,1.05,0,0,1,1.2,0A1.27,1.27,0,0,1,286.9,322.4Zm7.4-49.3c-3.3.4-6.5-4-7.1-9.7s1.4-10.7,4.7-11.1,6.5,4,7.1,9.7S297.6,272.7,294.3,273.1Zm24.4-36.6a1.28,1.28,0,0,1-1.8.3,43.24,43.24,0,0,0-10.4-5.2c-4.5-1.5-9.5-2.2-14.1-1a1.15,1.15,0,0,1-1.5-.9,1.28,1.28,0,0,1,.9-1.6c5.2-1.4,10.8-.5,15.5,1.1a43.79,43.79,0,0,1,11.1,5.5A1.28,1.28,0,0,1,318.7,236.5Z" fill="#82443a" fill-rule="evenodd"/><path d="M294.4,273.2c-3.3.4-6.5-4-7.1-9.7s1.4-10.7,4.7-11.1,6.5,4,7.1,9.7S297.6,272.8,294.4,273.2Z"/><path d="M233.2,263c-.8,5.7-4.1,10-7.4,9.5s-5.3-5.5-4.4-11.2,4.1-10,7.4-9.5S234,257.3,233.2,263Z"/><path d="M274.8,300c-.6,3.1-3.4,6.2-8.8,9.7a.87.87,0,0,1-.9-1.5c5.3-3.5,7.6-6.3,8-8.6s-.7-4.5-3.2-7.1a30.48,30.48,0,0,1-4.3-7c-1.4-3-2.8-6.5-4.1-9.8a.85.85,0,1,1,1.6-.6c1.2,3.3,2.6,6.7,4,9.6a27.46,27.46,0,0,0,4,6.6C273.7,294,275.4,296.8,274.8,300Z" fill-rule="evenodd"/><path d="M228.8,229.1a1.24,1.24,0,0,1-1.4,1.1,41.25,41.25,0,0,0-11.6.7c-4.6,1-9.3,2.8-12.7,6.2a1.27,1.27,0,0,1-1.8-1.8c3.8-3.8,9.1-5.8,13.9-6.8a43.75,43.75,0,0,1,12.4-.8A1.48,1.48,0,0,1,228.8,229.1Z" fill-rule="evenodd"/><path d="M318.7,236.6a1.28,1.28,0,0,1-1.8.3,43.24,43.24,0,0,0-10.4-5.2c-4.5-1.5-9.5-2.2-14.1-1a1.15,1.15,0,0,1-1.5-.9,1.28,1.28,0,0,1,.9-1.6c5.2-1.4,10.8-.5,15.5,1.1a43.79,43.79,0,0,1,11.1,5.5A1.28,1.28,0,0,1,318.7,236.6Z" fill-rule="evenodd"/><path d="M286.7,321.3a1,1,0,0,0-1.2-.1c-5.3,3.7-13.9,4.6-22.4,3.7s-16.4-3.6-20.3-6.6a.9.9,0,0,0-1.1-.1,1,1,0,0,0-.5,1c.3,4.2,2.9,8.9,6.7,12.8a27,27,0,0,0,14.7,8c5.9,1,11.2-1.8,15.4-5.5a41,41,0,0,0,9-11.9A1.44,1.44,0,0,0,286.7,321.3Zm-10.1,11.6c-3.9,3.5-8.7,5.9-13.7,5.1a26.06,26.06,0,0,1-13.6-7.4,21.77,21.77,0,0,1-5.7-9.3c4.6,2.7,11.9,4.9,19.3,5.7,7.2.8,14.8.3,20.5-2.3A39,39,0,0,1,276.6,332.9Z" fill-rule="evenodd"/><path d="M283.4,324.7a39.38,39.38,0,0,1-6.8,8.3c-3.9,3.5-8.7,5.9-13.7,5.1a26.06,26.06,0,0,1-13.6-7.4,21.77,21.77,0,0,1-5.7-9.3c4.6,2.7,11.9,4.9,19.3,5.7C270,327.7,277.7,327.3,283.4,324.7Z" fill="#ae5646" fill-rule="evenodd"/><path d="M408.2,468.1c-.1-.3-.2-.7-.3-1a8.8,8.8,0,0,0-.5-1.5c-.1-.5-.3-1-.4-1.4s-.3-.9-.5-1.4-.3-1-.5-1.5-.3-.8-.4-1.2a12.2,12.2,0,0,0-.7-1.7c-.2-.4-.3-.8-.5-1.2a.35.35,0,0,0-.1-.2c-.2-.4-.3-.8-.5-1.2,0-.1-.1-.2-.1-.3l-.6-1.2a6.38,6.38,0,0,0-.8-1.4,10.91,10.91,0,0,0-.6-1.1,5.58,5.58,0,0,0-.5-.8c-.2-.3-.4-.7-.6-1a.1.1,0,0,0-.1-.1c-.1-.1-.1-.2-.2-.3l-.6-.9c-.2-.3-.4-.5-.6-.8s-.4-.5-.6-.8-.3-.4-.5-.6-.2-.3-.3-.4a5.72,5.72,0,0,0-.7-.8c0-.1-.1-.1-.1-.2a5,5,0,0,0-.7-.8c-.2-.2-.3-.4-.5-.5l-.6-.6-.9-.9a9,9,0,0,0-1-.9c-.2-.1-.3-.3-.5-.4-.6-.5-1.2-1-1.9-1.5-.3-.2-.5-.4-.8-.6a17,17,0,0,1-1.4-1c-1-.6-1.9-1.3-2.9-1.9a5.58,5.58,0,0,1-.8-.5l-2.7-1.5c-.5-.3-1-.5-1.5-.8-1.8-.9-3.8-1.8-5.7-2.6a3.55,3.55,0,0,1-.9-.4c-.5-.2-1-.4-1.6-.6a5.64,5.64,0,0,0-1.2-.4c-.3-.1-.7-.3-1-.4a20.94,20.94,0,0,0-2.3-.8c-.7-.2-1.4-.5-2.1-.7s-1.6-.5-2.4-.8a17.23,17.23,0,0,1-2.1-.7,23.35,23.35,0,0,0-2.5-.7c-.8-.2-1.7-.5-2.5-.7-1.9-18.6-14.2-29.6-28.7-35.6-14.1-5.8-30.4-6.9-41.8-5.6.2-1.9.3-3.8.5-5.4a83.17,83.17,0,0,0,32.5-15.4c14.6-11.5,24-27.4,29.8-44.9a148.48,148.48,0,0,0,5.5-22.8,19,19,0,0,0,10.6-4.7c4.2-3.7,7.7-9.9,8.2-19.7s-2.6-16.1-6.8-20a19.83,19.83,0,0,0-10.2-4.8,214.63,214.63,0,0,0-3.7-27.6,3.55,3.55,0,0,0,1.6-1.1,6.2,6.2,0,0,0,1.2-2.9,15.31,15.31,0,0,0-.3-5.7,10.52,10.52,0,0,0-2.7-11.9,10.31,10.31,0,0,0,.9-4.1,5.53,5.53,0,0,0-2.2-4.6,16.81,16.81,0,0,0,1.7-4.6,6.59,6.59,0,0,0-.3-3.1,3.27,3.27,0,0,0-1.1-1.5,4.47,4.47,0,0,0,1.3-2.2,3.39,3.39,0,0,0-.3-2.4,4.27,4.27,0,0,0-1.3-1.4,6,6,0,0,0,.8-3.8c-.3-1.8-1.8-3.2-4.5-4a4.79,4.79,0,0,0-.8-4.1c-1.2-1.5-3.4-2.3-6.8-2a7.74,7.74,0,0,0-.2-3A5.67,5.67,0,0,0,335,152a8.43,8.43,0,0,0-.8-4,4.81,4.81,0,0,0-2-2,5.08,5.08,0,0,0-2.5-.4,9.84,9.84,0,0,0-3.5-5.1,5.15,5.15,0,0,0-3.9-.7,6.32,6.32,0,0,0-3,1.6,6.7,6.7,0,0,0-.7-1.8,3.75,3.75,0,0,0-1.9-1.6,4.84,4.84,0,0,0-1.8-.3,11,11,0,0,0-2-7.3,7.11,7.11,0,0,0-4.4-2.7,15.2,15.2,0,0,0-6.2.4,7.71,7.71,0,0,0-2.7-4.3,5.68,5.68,0,0,0-3.5-1.2,8.24,8.24,0,0,0-3.7,1,11.3,11.3,0,0,0-1.1-2.2,7.27,7.27,0,0,0-2.8-2.7,5.07,5.07,0,0,0-4.2-.1,8.88,8.88,0,0,0-3.1,2.3v-.1a5.18,5.18,0,0,0-1.3-2.4,4,4,0,0,0-2.9-1.1,7.17,7.17,0,0,0-3.4,1,10.91,10.91,0,0,0-5.6-3,5.57,5.57,0,0,0-3.9.8,7,7,0,0,0-2.3,2.5c-.6-.6-1.2-1.3-1.9-1.9a7.41,7.41,0,0,0-3.8-2,4.71,4.71,0,0,0-4.3,1.2,9.08,9.08,0,0,0-2.2,3.3,7.63,7.63,0,0,0-.8-1.1A6,6,0,0,0,244,116a12.16,12.16,0,0,0-7.4,3.2,10,10,0,0,0-6-1.5,6.29,6.29,0,0,0-3.7,1.7,8.75,8.75,0,0,0-2,3.1c-.2-.2-.4-.3-.6-.5a5.51,5.51,0,0,0-2.5-1,3.19,3.19,0,0,0-2.7,1,5.73,5.73,0,0,0-1.4,2.7,7.43,7.43,0,0,0-4.5,1,5.09,5.09,0,0,0-2,2.7,5,5,0,0,0-.2,1.2,7.3,7.3,0,0,0-2.9-1.5,5.16,5.16,0,0,0-3.6.6,8.71,8.71,0,0,0-2.9,3.3,11.54,11.54,0,0,0-7.1,2c-2.3,1.7-3.9,4.6-3.4,9.1a9.09,9.09,0,0,0-6.2,1.6c-2.2,1.6-3.5,4.5-3.3,9a8.54,8.54,0,0,0-4.7-1.3,4.83,4.83,0,0,0-3.5,1.8,9.41,9.41,0,0,0-1.9,4.5,7.85,7.85,0,0,0-4.5,2.5,4.83,4.83,0,0,0-1.2,3.2,7.11,7.11,0,0,0,1.1,3.4,6.31,6.31,0,0,0-1.3,2.3,4.1,4.1,0,0,0,0,2.2,6.59,6.59,0,0,0-4.3.7c-2.3,1.4-3.6,4.6-3,10.1a10.47,10.47,0,0,0-1.2,4.7,6.14,6.14,0,0,0,2.3,4.8,9.1,9.1,0,0,0-1.3,2.8,7.37,7.37,0,0,0,.8,5.1,9.17,9.17,0,0,0-2.6,3.7,5,5,0,0,0,0,3.2,6.35,6.35,0,0,0,1.9,2.9,10,10,0,0,0,.5,5.1,4.8,4.8,0,0,0,2.1,2.4,5.4,5.4,0,0,0,2.9.5,223.84,223.84,0,0,0-3.3,26.7,19.16,19.16,0,0,0-10.2,5.2c-4,3.9-7.2,10.3-7.2,20.2s3.4,16.1,7.8,19.7a19.24,19.24,0,0,0,11.7,4.4,139.46,139.46,0,0,0,5.8,23.1c6,17.6,15.6,33.4,30.2,44.9a81.52,81.52,0,0,0,23.3,12.7c.2,2.4.4,5.5.6,8.8-13,0-27.6.3-39.7,4.7-6.2,2.3-11.8,5.6-16.1,10.6s-7.4,11.6-8.7,20.3a17.85,17.85,0,0,0,.8,8.2c-.1,0-.3.1-.4.1-1.3.4-2.6.9-3.9,1.4-.4.1-.7.3-1.1.4-.8.3-1.5.6-2.3.9-2.4,1-4.8,2-7.1,3.2l-1.8.9a.1.1,0,0,0-.1.1c-.1.1-.3.1-.4.2-.8.4-1.5.8-2.2,1.2a69.77,69.77,0,0,0-7.3,4.7c-.2.2-.4.3-.6.5-.4.3-.8.6-1.1.8s-.6.5-.9.7a17.41,17.41,0,0,0-1.4,1.2l-.6.6c-.3.3-.7.6-1,.9a6,6,0,0,0-.8.8l-1.2,1.2c-.5.5-1,1.1-1.6,1.7a5.5,5.5,0,0,0-.7.9c-.1.2-.3.3-.4.4s-.3.3-.4.4c-.2.3-.5.6-.7.9l-.9,1.2c-.6.8-1.1,1.6-1.6,2.4a7.46,7.46,0,0,0-.7,1.2c-.2.3-.4.7-.6,1a4.67,4.67,0,0,0-.5,1c-.1.2-.2.3-.3.5a3.55,3.55,0,0,0-.4.9c-.1.1-.1.3-.2.4s-.1.3-.2.4c-.1.3-.3.6-.4.9s-.2.5-.3.7-.1.2-.1.4c-.1.4-.3.7-.4,1.1s-.2.7-.3,1-.3.8-.4,1.3c-.2.7-.5,1.5-.8,2.3-.1.3-.2.7-.3,1.1,0,.1-.1.3-.1.4l-.3.9a1,1,0,0,0,.4,1.1c1.4.9,2.8,1.8,4.3,2.7,13.2,8.3,28.3,17.8,49,25.5.7.3,1.4.5,2.2.8l4.5,1.5c2.3.8,4.8,1.5,7.3,2.3,1.3.4,2.7.8,4.1,1.1l.9.3c.8.2,1.7.5,2.6.7,1.6.4,3.3.8,5,1.2.6.1,1.2.3,1.7.4,1.9.4,3.9.8,5.9,1.2a5.07,5.07,0,0,0,1.3.2c.7.1,1.3.3,2,.4.9.2,1.9.3,2.9.5.8.1,1.7.3,2.5.4s1.7.3,2.5.4c.4.1.8.1,1.3.2.9.1,1.8.3,2.7.4s2.1.3,3.1.4c.4.1.9.1,1.3.2l2.3.3c.6.1,1.2.1,1.8.2s1.2.1,1.9.2c2.7.3,5.5.5,8.3.7.5,0,1.1.1,1.6.1.8.1,1.7.1,2.5.2a22.6,22.6,0,0,0,2.6.1c1.1.1,2.2.1,3.3.2,1.3,0,2.5.1,3.8.1.8,0,1.6.1,2.4.1h10.2c41.9,0,78.8-11.6,105.2-23.1a278.32,278.32,0,0,0,31.1-15.9q2.7-1.65,4.8-3c.3-.2.7-.4,1-.6l1.8-1.2c.3-.2.5-.3.8-.5a8.79,8.79,0,0,0,1-.6c.5-.3.9-.6,1.2-.8a6.13,6.13,0,0,1,.6-.4c.1,0,.1-.1.2-.1C408.2,468.9,408.3,468.5,408.2,468.1Zm-8.3-17.5c-.5-.7-.9-1.3-1.4-1.9C399,449.3,399.4,450,399.9,450.6ZM356.2,247.7a17.37,17.37,0,0,1,8.7,4.3c3.7,3.4,6.6,9,6.1,18.4s-3.7,15-7.5,18.3a16.79,16.79,0,0,1-9,4.1A202.21,202.21,0,0,0,356.2,247.7ZM152.3,288.6c-3.9-3.2-7.1-8.8-7.1-18.2s3-15.3,6.6-18.8a18.23,18.23,0,0,1,8.6-4.6,218,218,0,0,0,2,45.4A16.37,16.37,0,0,1,152.3,288.6ZM199.9,361c-14.3-11.2-23.7-26.7-29.6-44a153.83,153.83,0,0,1-5.7-22.7c-.1-.9-.3-1.8-.4-2.7l-.6-3.9a217.57,217.57,0,0,1-1.4-39.3c0-.8.1-1.7.1-2.5a3.4,3.4,0,0,1,.1-1,251.41,251.41,0,0,1,3.4-27,14.5,14.5,0,0,0,5.7-3.9,23.34,23.34,0,0,0,3.4-4.6,15.18,15.18,0,0,0,6.9-.5,8.71,8.71,0,0,0,5.8-5.3,8.18,8.18,0,0,0,4.3.6,11.29,11.29,0,0,0,7-4.2,23.39,23.39,0,0,0,7.2.8,9.72,9.72,0,0,0,3.9-.9,5.56,5.56,0,0,0,2.2-2.1,46.26,46.26,0,0,0,9.2.2,16.22,16.22,0,0,0,4.7-1.1,5.17,5.17,0,0,0,2.3-1.8A24.39,24.39,0,0,0,235,197c2.5.3,5.4,0,7.1-2.2a13.43,13.43,0,0,0,6.9,0,7.22,7.22,0,0,0,3.5-2.2,8,8,0,0,0,1.3-2.8,11.17,11.17,0,0,0,4.3,1.8,7.14,7.14,0,0,0,3.8-.3,7.59,7.59,0,0,0,2.9-2,24.26,24.26,0,0,0,5.6,3,11.58,11.58,0,0,0,8.2,0,13.25,13.25,0,0,0,6,2.4,9.82,9.82,0,0,0,7.9-2.2,42.34,42.34,0,0,0,6.5,5.2,9,9,0,0,0,3.9,1.3,3.39,3.39,0,0,0,1.9-.5,6.47,6.47,0,0,0,.9-.8,17.33,17.33,0,0,0,5.7.5,7.42,7.42,0,0,0,5.2-2.7,15.81,15.81,0,0,0,3.6,3.1,8.84,8.84,0,0,0,6.8,1.3,15,15,0,0,0,4.6,3.2,8.23,8.23,0,0,0,6.2.4,17.8,17.8,0,0,0,1.9,4.8,6.62,6.62,0,0,0,2.3,2.4,3.42,3.42,0,0,0,2.2.5,14,14,0,0,0,1.6,3.9,6.56,6.56,0,0,0,4.7,3.1,230.3,230.3,0,0,1,3.6,27.2,3.4,3.4,0,0,0,.1,1c0,.6.1,1.2.1,1.8a211.85,211.85,0,0,1-1.4,42.7c-.1.8-.2,1.6-.4,2.5-.1.5-.1.9-.2,1.4a149.78,149.78,0,0,1-5.4,22.2c-5.7,17.3-15,32.8-29.2,44a81.41,81.41,0,0,1-31,14.9,19435628317503.83,19435628317503.83,0,0,1-2,.4,123,123,0,0,1-53.5-.5c-1.3-.3-2.5-.6-3.7-1a29.92,29.92,0,0,1-3.2-1A77.55,77.55,0,0,1,199.9,361Zm122.6,34.8c5.4,2.3,9.2,5.3,10.6,9s.7,8.2-3.7,14.1c-10.2-1.7-19.7-2.9-27.2-3.8l-2.5-.3c-3.4-.4-6.4-.8-8.6-1.1-1.4-.2-2.5-.4-3.4-.6a5.76,5.76,0,0,0-1-.2c-.3-.1-.3-.1-.4-.1a1.24,1.24,0,0,1-.2-.3c-.1-.2-.2-.5-.4-.9a19.38,19.38,0,0,1-.5-3.3A82.55,82.55,0,0,1,285,398c.1-2.7.2-5.6.4-8.4h0C296.6,389.6,312,391.3,322.5,395.8ZM202.9,420c1.4-.2,2.8-.5,4.1-.7,4.6-.8,8.5-1.5,11.4-2.2a21.19,21.19,0,0,0,3.6-1.3,3.41,3.41,0,0,0,2-1.9,31.68,31.68,0,0,0,1.1-7.6c.2-3.2.2-6.9.1-10.7,0-2-.1-4.1-.2-6.2v-1a3.4,3.4,0,0,0-.1-1c-.2-4.3-.5-8.4-.8-11.6a111.37,111.37,0,0,0,34.8,5.1,118.3,118.3,0,0,0,25.5-2.6c-.2,1.8-.4,3.7-.5,5.7a3.4,3.4,0,0,1-.1,1c-.1.8-.1,1.6-.2,2.4a3.4,3.4,0,0,1-.1,1,3.4,3.4,0,0,0-.1,1c-.2,2.8-.3,5.7-.4,8.3a86.41,86.41,0,0,0,.2,10.5,17.87,17.87,0,0,0,.6,3.7,3.92,3.92,0,0,0,.5,1.3,2.19,2.19,0,0,0,.9,1,3.55,3.55,0,0,0,.9.4,10.38,10.38,0,0,0,1.2.3c.9.2,2.1.4,3.5.6,2.3.3,5.3.7,8.7,1.1l2.5.3c7.3.9,16.3,2,26,3.6a217.34,217.34,0,0,1-32.4,33.3A137.68,137.68,0,0,1,278.7,466a41.89,41.89,0,0,1-12.5,5.4c-1.6-4.6-5.1-8.6-9.6-12.3a143.08,143.08,0,0,0-17.7-11.6c-1.5-.9-3-1.7-4.5-2.6-11.8-6.7-24.8-14.2-35.9-24.3A35.62,35.62,0,0,0,202.9,420Zm-6.4-.9c-5.2-4.9-6.9-8.9-6.6-12.2s2.5-6.1,6.1-8.5c7-4.7,18.4-7.5,27-8.6.1,2,.2,4,.2,6,.1,3.8.1,7.4-.1,10.5a30.18,30.18,0,0,1-1,7c0,.1-.2.4-1,.8a16.46,16.46,0,0,1-3.2,1.1c-2.8.7-6.6,1.4-11.2,2.2-1.3.2-2.7.4-4.1.7C200.7,418.4,198.6,418.7,196.5,419.1Zm-36.4.8c1.2-8.3,4.1-14.6,8.2-19.3a35.23,35.23,0,0,1,15.3-10c11.7-4.2,26-4.5,39.1-4.6v1.8c-1.7.2-3.6.5-5.4.9a65.26,65.26,0,0,0-7.1,1.6c-5.6,1.5-11.2,3.6-15.4,6.4-3.8,2.6-6.6,5.9-6.9,10-.3,3.8,1.6,8.1,6.2,12.7l.9.9.2.2c.3.2.5.5.8.7,11.6,10.8,25.3,18.7,37.5,25.6,1.5.9,3,1.7,4.5,2.6,6.7,3.9,12.8,7.6,17.4,11.4s7.9,7.8,9.3,12.1a.92.92,0,0,0,1.1.7c3.9-.5,8.8-2.6,14.1-5.8a152.48,152.48,0,0,0,17.2-12.3A222.11,222.11,0,0,0,330.4,421a3,3,0,0,0,.5-.7l.2-.2.6-.9c4.1-5.9,5.1-10.9,3.4-15.2-1.8-4.5-6.2-7.7-11.7-10.1a72.93,72.93,0,0,0-17.3-4.7c-3.7-.3-7.4-.3-10.8-.3h-.1c-3.4-.3-6.7-.4-9.6-.4a3.4,3.4,0,0,1,.1-1,14.92,14.92,0,0,1,.2-2.1c11.1-1.3,27.3-.3,41.2,5.4s25.3,16,27.4,33.2c0,.3.1.7.1,1v.3l.1.8c1.5,21.3-13.5,35.2-33.4,44.3s-44.4,13.2-60.8,15c-2.1-2.4-6.1-4.9-12.7-7.9a277.11,277.11,0,0,0-31-11c-17.3-5.3-32-13-42.2-21.5-6.3-5.3-10.8-10.8-12.9-16.1l-.4-.9-.3-.9A14.09,14.09,0,0,1,160.1,419.9Zm-.2,7.6.9-.3-.9.3c-.1,0-.1.1-.2.1S159.8,427.5,159.9,427.5Zm.3.9Zm-1,.3c.1,0,.3-.1.4-.1C159.5,428.6,159.4,428.7,159.2,428.7Zm-4.5,66.4c1.5.7,2.9,1.3,4.5,1.9C157.7,496.4,156.2,495.7,154.7,495.1ZM241.9,514l7.1.3Zm164-45.9a23.26,23.26,0,0,0-2.1,1.5c-1.9,1.3-4.7,3-8.3,5.2a292.65,292.65,0,0,1-30.9,15.8c-26.3,11.5-62.9,22.9-104.4,22.9-6.1,0-11.9-.1-17.5-.4-.6,0-1.2-.1-1.8-.1l-5.5-.3c-.8-.1-1.7-.1-2.5-.2l-3.2-.3c-1.4-.1-2.7-.2-4.1-.4-.7-.1-1.4-.1-2.1-.2s-1.2-.1-1.8-.2-1.2-.1-1.8-.2l-2.4-.3c-1.1-.1-2.3-.3-3.4-.4-2.5-.3-4.9-.7-7.2-1.1l-1.7-.3c-.8-.1-1.6-.3-2.4-.4-2.5-.5-4.9-.9-7.3-1.5l-1.5-.3c-1.2-.3-2.3-.5-3.5-.8-.5-.1-1.1-.3-1.6-.4-1-.2-1.9-.5-2.9-.7s-1.8-.5-2.7-.7a13.32,13.32,0,0,0-1.9-.5,20.16,20.16,0,0,1-2.3-.7,18.66,18.66,0,0,1-2.2-.7c-1.1-.3-2.2-.7-3.2-1-.5-.2-1.1-.3-1.6-.5s-1.1-.3-1.6-.5c-.1,0-.2-.1-.3-.1-1.4-.5-2.7-.9-4-1.4-1.8-.7-3.5-1.3-5.2-2-.6-.2-1.1-.5-1.7-.7-2-.8-3.9-1.7-5.8-2.5-.7-.3-1.3-.6-2-.9-.1,0-.2-.1-.3-.1-.7-.3-1.3-.6-2-.9l-1.8-.9-2.4-1.2c-.8-.4-1.6-.8-2.3-1.2s-1.3-.7-2-1c-.9-.5-1.7-.9-2.6-1.4a15.05,15.05,0,0,1-1.7-1c-1.8-1-3.6-2-5.3-3.1l-1.5-.9c-4.2-2.5-8.2-5-12-7.4-1.2-.8-2.4-1.5-3.6-2.3.5-1.5.9-2.8,1.3-3.9v-.1a5.64,5.64,0,0,1,.4-1.2c0-.1.1-.3.1-.4.1-.3.2-.7.3-1s.2-.7.3-1a6.12,6.12,0,0,1,.5-1.2,11.73,11.73,0,0,1,.5-1.1,11.73,11.73,0,0,1,.5-1.1c.3-.7.7-1.4,1.1-2.2.1-.3.3-.5.4-.8a2.09,2.09,0,0,1,.4-.6,2.19,2.19,0,0,1,.3-.5,1,1,0,0,1,.4-.5,14.63,14.63,0,0,1,.9-1.3c.3-.4.6-.9.9-1.3l1.2-1.5c.4-.4.7-.9,1.1-1.3,1-1.1,2-2.1,3.1-3.1a10,10,0,0,1,1.1-1,12.67,12.67,0,0,1,1.3-1.1l1.8-1.5c.5-.4,1-.7,1.5-1.1.3-.2.5-.4.8-.6.6-.4,1.3-.9,1.9-1.3a8.79,8.79,0,0,1,1-.6c.7-.4,1.3-.8,2-1.2.4-.2.8-.5,1.2-.7s.6-.3.9-.5h.1a5.9,5.9,0,0,1,.8-.4l.1-.1a124139240566417.69,124139240566417.69,0,0,0,2.2-1,3.7,3.7,0,0,1,1.1-.5l1.2-.6,1.2-.6,3.6-1.5c.4-.2.8-.3,1.2-.5h.1l1.5-.6a45.57,45.57,0,0,1,5.2-1.8c.2,0,.3-.1.5-.1-.2.1-.3.1-.5.2,2.3,5.7,7.1,11.6,13.6,17,10.4,8.7,25.4,16.6,42.9,21.9,13.9,4.2,23.9,7.8,30.8,10.9s10.7,5.7,12.3,7.7a1,1,0,0,0,.9.4c16.5-1.8,41.5-5.9,61.9-15.2,20-9.1,35.9-23.4,34.7-45.6-.1,0-.2-.1-.3-.1.1,0,.2.1.3.1l1.2.3c2.3.6,4.6,1.3,6.8,2.1,1.3.4,2.6.8,3.8,1.3.6.2,1.2.4,1.7.6a8.65,8.65,0,0,1,1.7.7l1.5.6c.3.1.5.2.8.3s.7.3,1.1.5.7.3,1.1.5a20,20,0,0,1,2.1,1c.3.1.5.3.8.4s.5.3.8.4c.1,0,.2.1.3.1.6.3,1.1.6,1.7.9s1,.5,1.4.8c.1,0,.1,0,.1.1.3.2.6.3.9.5a3.51,3.51,0,0,1,.8.5,6.73,6.73,0,0,1,1.1.7c.1,0,.1.1.2.1a6.07,6.07,0,0,1,1,.7l.9.6a3.51,3.51,0,0,0,.8.5,8.74,8.74,0,0,1,1,.8,5.5,5.5,0,0,1,.9.7,2.7,2.7,0,0,1,.8.7c.3.2.5.5.8.7a8707687833372.94,8707687833372.94,0,0,0,1.4,1.4,4.62,4.62,0,0,1,.7.7,11640779564376.93,11640779564376.93,0,0,0,1,1.2c.1.2.3.3.4.5s.4.5.6.8l.1.1c3.9,4.5,6.9,11.6,9.1,19.5C406,468,406,468,405.9,468.1Z"/></g></g></svg>