<svg xmlns="http://www.w3.org/2000/svg" viewBox="0 0 515.2 515.6"><title>Asset 9</title><g id="Layer_2" data-name="Layer 2"><g id="Слой_1" data-name="Слой 1"><path d="M348.7,406.5c-7.3-2.7-14.6-5-21.3-6.9v.1l-27.7-6v.5c.2,0,.4.1.6.1,6.4,1.3,15.3,3.2,25.4,5.9,17.9,4.9,39.3,12.5,56.2,23.3A199.61,199.61,0,0,0,348.7,406.5Zm-146.4-13c-8.8,1.3-17.4,3.1-23.5,4.5l-1,.2V398c-9.6,2.3-19.7,6.6-30,10.9l-3.6,1.5c24.8-10.2,39.4-14,58.2-16.8C202.3,393.7,202.3,393.6,202.3,393.5Zm-64.9,20c1.5-.7,3.1-1.4,4.6-2,.4-.2.9-.4,1.3-.6-.4.2-.9.4-1.3.6C140.5,412.1,139,412.7,137.4,413.5Zm-7,3.3c-1.6.8-3.1,1.6-4.7,2.5C127.3,418.5,128.9,417.6,130.4,416.8Zm-16.3,9.1-4.5,2.7Q111.7,427.25,114.1,425.9ZM257.7,0C115.4,0,0,115.4,0,257.7A256.81,256.81,0,0,0,81.9,446.1l.1-.1a16.81,16.81,0,0,1,1.9-1.9c.2-.1.3-.3.5-.4.5-.4,1-.9,1.6-1.3a10.63,10.63,0,0,1,1.1-.9c.2-.2.4-.3.6-.5s.4-.3.6-.5a17,17,0,0,1,1.4-1c.5-.4,1-.7,1.5-1.1a15.26,15.26,0,0,1,1.6-1.1c2.7-2,5.9-4.1,9.3-6.3.7-.4,1.4-.9,2.1-1.3a9.13,9.13,0,0,1,1.3-.8c1-.6,2-1.3,3-1.9,1.4-.9,2.8-1.7,4.3-2.6.8-.5,1.7-1,2.5-1.5,1.5-.9,3.1-1.8,4.7-2.7s3.3-1.8,4.9-2.7c.7-.4,1.5-.8,2.2-1.2l2.4-1.2c2.3-1.2,4.5-2.2,6.7-3.3.4-.2.7-.3,1.1-.5a11.11,11.11,0,0,1,1.6-.7c.8-.3,1.5-.7,2.3-1l5.7-2.4c10.7-4.5,21.2-9,31.3-11.3l1-.2v.2c6.4-1.5,15-3.2,23.8-4.5l1-.1v.3l4.2-.6c1.4-.2,3.1-.4,4.5-.7.7-.1,1.3-.2,1.7-.3a4.33,4.33,0,0,0,.5-.1h.2l.8-.2.2-.1c1.4-.9,2.6-2.8,3.4-5.6a26.26,26.26,0,0,0,.9-4.4c-44.5-12.6-69-50.7-72.8-82.6a227.06,227.06,0,0,1-.6-42.3,11.84,11.84,0,0,1-8.5-3.2c-2.9-2.8-4.8-7.6-3.8-15.2s4.2-11.8,8-13.6a13.88,13.88,0,0,1,8.9-.7,14.16,14.16,0,0,0,.4-2c0-.2-.1-.3,0-.5l1.4-8.6a1,1,0,0,1,1-.8h.2c3.8-13.6,8.9-25.8,15.3-35A49.26,49.26,0,0,1,181,137.3c10.6-12.5,29.7-22,62.2-20.8,40.6,1.4,61.6,12,75.3,23.2a137.61,137.61,0,0,1,13.3,12.8c1.1,1.2,2.2,2.3,3.2,3.4,4.7,4.8,9,8.6,14.5,10.5a.93.93,0,0,1,.6,1.2c-.4,1.8-2.6,5.5-7.8,8.3,2.5,8.4,5.5,20.5,8.2,34.3a1,1,0,0,1,.5.6l2.4,8.6a1,1,0,0,1-.2.9,1.23,1.23,0,0,1-.8.4c.1.6.2,1.1.3,1.7a12.45,12.45,0,0,1,8.9,1c3.4,1.9,6.1,5.8,6.7,13s-1.3,11.7-4,14.6a11.73,11.73,0,0,1-7.9,3.7c1,14.9.7,29.7-1.7,42.4-4.6,24.5-14,46.2-30.4,61.8-10.2,9.7-23.1,17-39.1,21.1a47.33,47.33,0,0,0,1.3,8.1,2.58,2.58,0,0,0,2.3,1.9l1.3.2h.1a1.09,1.09,0,0,1,.5.1q.75.15,2.1.3c1.1.2,2.6.5,4.4.8l-.1-.6,28.7,6.2v-.1l.9.2c21.9,5.2,43.5,16.2,56.8,24.9,1.9,1.3,3.7,2.5,5.2,3.6,7.5,5.6,16.6,12.4,23.8,17.8,3.6,2.7,6.7,5,9,6.7l3.6,2.7.2.1a257.07,257.07,0,0,0,89.9-195.6C515.4,115.4,400,0,257.7,0Z" fill="#f2f2f2"/><path d="M294.5,409.2a67.49,67.49,0,0,1-10.2,16.7,66.73,66.73,0,0,1-13.6,12.7c-4.7,3.2-9.1,5-12.8,5s-8.7-1.8-14.4-5A100.85,100.85,0,0,1,226,425.8,97.78,97.78,0,0,1,211,409c-3.7-5.4-6.1-10.7-6.9-15.5l4.2-.6c1.4-.2,3.2-.5,4.6-.7.7-.1,1.3-.2,1.7-.3a4.33,4.33,0,0,0,.5-.1h.2l.9-.2.6-.2.1-.1c2.1-1.3,3.5-3.8,4.4-6.8a28.51,28.51,0,0,0,.9-4.4,118.42,118.42,0,0,0,30,3.8,134.38,134.38,0,0,0,31-3.4,59.72,59.72,0,0,0,1.3,8.1,4.72,4.72,0,0,0,3.9,3.4l1.3.2h.2a1.09,1.09,0,0,1,.5.1c.5.1,1.2.2,2,.3,1.3.2,2.9.5,5,.9C297.9,398.5,296.7,403.8,294.5,409.2Z" fill="#b6794d" fill-rule="evenodd"/><path d="M332.7,190.6q-1.65-3.6-2.7-5.4a8.55,8.55,0,0,0-1.1-1.6c-6.8,3.1-23,6.9-39.7-.3-1.4-.6-2.9-1.3-4.5-2-22.1-9.8-59.1-26.1-99.2-7.3-4.1,8.3-12.2,24.4-17.1,34.7a120.06,120.06,0,0,1,29.7-6.2c14-1.1,29.7.4,43.3,7.7H262c11.7-5.7,43-13.3,77.5,0h.4C336.9,201.2,334.6,194.9,332.7,190.6Zm-107.7,0a37,37,0,0,0-11,.7,24.13,24.13,0,0,0-12,5.8,1.2,1.2,0,0,1-1.7-1.7c3.6-3.6,8.6-5.5,13.2-6.5a38.91,38.91,0,0,1,11.8-.7,1.29,1.29,0,0,1,1.1,1.3A1.3,1.3,0,0,1,225,190.6ZM321.1,201a1.25,1.25,0,0,1-1.7.3,41.12,41.12,0,0,0-9.9-4.9c-4.3-1.4-9-2.1-13.3-1a1.24,1.24,0,0,1-1.5-.8,1.22,1.22,0,0,1,.9-1.5c4.9-1.3,10.2-.5,14.7,1a41.41,41.41,0,0,1,10.6,5.3A1.12,1.12,0,0,1,321.1,201Z" fill="#b6794d"/><path d="M344.1,261.2c-1.9,15.8-7,29.6-15.6,36.8-2.2,1.8-3.9,2.8-5.4,3.1a6.12,6.12,0,0,1-4.2-.5,18.36,18.36,0,0,1-4.6-3.2,22.53,22.53,0,0,1-2.4-2.1l-.3-.3c-1-.9-2-1.8-3.1-2.7-9.1-7.6-23.7-17-54.3-17-1.5,0-3,0-4.5.1a5.62,5.62,0,0,1-1.8-2.1c-.8-1.7-.3-3.5,1.2-6a21.73,21.73,0,0,0,2-6.1,68.46,68.46,0,0,0,1.3-8.1c0-.4-.2-.7-.6-.7s-.7.2-.7.6c-.3,2.7-.8,5.6-1.3,8a19.72,19.72,0,0,1-1.9,5.7c-1.5,2.5-2.3,4.9-1.3,7.2a8.16,8.16,0,0,0,1.1,1.7,85.16,85.16,0,0,0-29.3,6.3,83.86,83.86,0,0,0-20.3,12.7c-.7.5-1.3,1.1-1.9,1.6-1.7,1.4-3.3,2.7-4.8,3.8a17.6,17.6,0,0,1-5.6,3.1,8.69,8.69,0,0,1-5.5-.2,19.2,19.2,0,0,1-6.9-4.8c-5.3-5-8.7-12-10.9-20a97.07,97.07,0,0,1-2.9-25.4,138,138,0,0,1,2.1-23.6,63.83,63.83,0,0,1,1.8-8.2c0,6.9.5,20.9,2,28,.1.5.2,1.1.3,1.7.8,3.9,1.6,7.6,5.7,10.3,2.3,1.5,5.7,2.6,10.6,3.4a129.48,129.48,0,0,0,20.1,1.2c6.9,0,12.6,0,17.3-.3a37.41,37.41,0,0,0,11.4-2.1,14,14,0,0,0,6.9-5.8c1.6-2.7,2.6-6.3,3.3-10.9.6-4.2,1.2-7.5,1.8-10.8,0-.2.1-.5.1-.7.6-3.3,1.2-6.6,1.8-10.8,3.7-1,5.7-1.5,7.7-1.4s4,.5,7.7,1.4a150.51,150.51,0,0,0,3.1,22.4l.1.3v.1a45.52,45.52,0,0,0,2.3,8.4,10.89,10.89,0,0,0,5.3,5.5,36.83,36.83,0,0,0,11.2,3c5.1.7,11.7,1.2,20.5,1.7,14.3.8,23.6-2.1,29.3-6.2s7.9-9.2,8.1-12.9l2.6-24A125.65,125.65,0,0,1,344.1,261.2Z" fill="#b6794d"/><path d="M295,306.3a6.44,6.44,0,0,0-2.1-1.2c-2.1-.7-5.3-.9-9.3-1s-8.6.1-13.7.3h-.1c-5.1.2-10.7.4-16.3.4s-11.5-.1-16.9-.3h-.9c-5.7-.1-11.1-.3-15.6-.2a55.71,55.71,0,0,0-10.8,1,6.43,6.43,0,0,0-2.6,1.1,1.29,1.29,0,0,0-.5,1.2c.2,2.1,2,4.1,5.3,5.9a53.84,53.84,0,0,0,12.6,4.6,176.37,176.37,0,0,0,29.4,4.4,117,117,0,0,0,26-3.3,37.39,37.39,0,0,0,11.2-4.7c2.9-2,4.6-4.2,4.8-6.9A1.79,1.79,0,0,0,295,306.3Zm-49.5,9.2a54.45,54.45,0,0,1-21.6-6.7l1-1.7a54.33,54.33,0,0,0,20.8,6.4c8.9.9,19-.4,28.2-6.4l1.1,1.7C265.3,315.2,254.7,316.5,245.5,315.5Z" fill="#b6794d"/><path d="M151.8,224.4l-4.3,24.4-.7,4.1a10,10,0,0,1-6.9-2.6c-2.3-2.2-4.1-6.3-3.2-13.5s3.9-10.6,6.9-12a11.23,11.23,0,0,1,7.6-.5A1.27,1.27,0,0,1,151.8,224.4Z" fill="#b6794d"/><path d="M362.9,249.7a10.18,10.18,0,0,1-6.2,3.1l-3.2-28.3a9.61,9.61,0,0,1,7.1.9c2.6,1.5,5.1,4.7,5.7,11.4S365.1,247.4,362.9,249.7Z" fill="#b6794d"/><path d="M350.9,218.1l-1.6-5.8H339a.76.76,0,0,1-.4-.1c-34.2-13.3-65.1-5.5-76.2,0a.6.6,0,0,1-.4.1H241a.9.9,0,0,1-.5-.1c-13.2-7.2-28.5-8.7-42.4-7.6a113.05,113.05,0,0,0-31.1,6.8,11.22,11.22,0,0,1-1.3.5c-.1,0-.2.1-.3.1s-.4.1-.6.2-.3.1-.4.1h-9.2l-1,6.6h10.2a1,1,0,0,1,1,1c0,6.5.4,21.3,2,28.6.1.6.3,1.2.4,1.7.8,3.9,1.4,6.8,4.8,9,2,1.3,5.1,2.3,9.8,3.1s11.1,1.1,19.8,1.1c6.9,0,12.6,0,17.2-.3s8.1-.8,10.7-1.9a11.61,11.61,0,0,0,5.9-5c1.4-2.4,2.4-5.7,3-10.2.6-4.2,1.2-7.6,1.8-10.8,0-.3.1-.5.1-.7.6-3.5,1.2-7,1.8-11.4a1.14,1.14,0,0,1,.7-.8c4.1-1.1,6.5-1.7,8.9-1.7s4.8.6,8.9,1.7a1.08,1.08,0,0,1,.8,1,139.19,139.19,0,0,0,3.1,22.8l.1.3c.4,1.7.7,3.2,1,4.5a16,16,0,0,0,1.2,3.5,9.32,9.32,0,0,0,4.4,4.6c2.3,1.2,5.6,2.1,10.6,2.8s11.6,1.2,20.3,1.7c14,.8,22.8-2.1,28.1-5.8s7.1-8.4,7.3-11.4v-.1l2.9-26.3a1.06,1.06,0,0,1,1-.9h9.1A6.37,6.37,0,0,0,350.9,218.1Zm-111.9,9a108.75,108.75,0,0,1-2.3,12.3,65.46,65.46,0,0,1-3.8,11.8,19.62,19.62,0,0,1-2.6,4.3,6.26,6.26,0,0,1-3.3,2.3c-4.1,1.1-17.1,2.8-29.4,2.5-6.2-.2-12.3-.8-17-2.3s-8.5-3.8-9.3-7.8c-1.4-6.7-2.9-14-3.6-20a61,61,0,0,1-.5-8,10.21,10.21,0,0,1,1.4-5.4l.3-.3c4.6-2.8,17.7-8.2,34.4-8.2,10.4,0,19.2,1.1,25.5,2.9a30.44,30.44,0,0,1,7.6,3.2c1.8,1.2,3.1,2.7,3.2,4.5A48.78,48.78,0,0,1,239,227.1Zm97.2,3.2c-.7,6-2.2,13.3-3.6,20-.8,3.9-4.6,6.3-9.3,7.8s-10.8,2.1-17,2.3c-12.3.3-25.3-1.4-29.4-2.5a6.26,6.26,0,0,1-3.3-2.3,21.23,21.23,0,0,1-2.6-4.3,65.46,65.46,0,0,1-3.8-11.8c-1-4.3-1.8-8.7-2.3-12.3a47.77,47.77,0,0,1-.6-8.1c.1-1.8,1.4-3.3,3.2-4.5a27.49,27.49,0,0,1,7.6-3.2c6.3-1.8,15.1-2.9,25.5-2.9,16.7,0,29.8,5.4,34.4,8.2l.3.3a10.21,10.21,0,0,1,1.4,5.4A61.64,61.64,0,0,1,336.2,230.3Z" fill="#304d5f"/><path d="M239.7,219c-.1-1.8-1.4-3.3-3.2-4.5a27.49,27.49,0,0,0-7.6-3.2c-6.3-1.8-15.2-2.9-25.5-2.9-16.7,0-29.8,5.4-34.4,8.2l-.3.3a10.21,10.21,0,0,0-1.4,5.4,46.9,46.9,0,0,0,.5,8c.7,6,2.2,13.3,3.6,20,.8,3.9,4.6,6.3,9.3,7.8s10.8,2.1,17,2.3c12.3.3,25.3-1.4,29.4-2.5a6.26,6.26,0,0,0,3.3-2.3,21.23,21.23,0,0,0,2.6-4.3,65.46,65.46,0,0,0,3.8-11.8c1-4.3,1.8-8.7,2.3-12.3A65.1,65.1,0,0,0,239.7,219Zm-2.6,7.8c-.5,3.6-1.2,7.9-2.2,12.1a66.41,66.41,0,0,1-3.7,11.4,14.64,14.64,0,0,1-2.3,3.8,4.68,4.68,0,0,1-2.3,1.7c-3.8,1-16.6,2.7-28.8,2.4-6.1-.2-12-.8-16.5-2.2s-7.3-3.5-7.9-6.3c-1.4-6.7-2.8-13.9-3.6-19.8a55.79,55.79,0,0,1-.4-7.7,8.52,8.52,0,0,1,.9-4.1c4.4-2.6,17.1-7.8,33.2-7.8,10.2,0,18.9,1.1,25,2.8a28.33,28.33,0,0,1,7,2.9c1.6,1.1,2.3,2.1,2.3,3C237.7,220.4,237.6,223.2,237.1,226.8Z"/><path d="M237.7,218.8c-.1-.9-.7-1.9-2.3-3a22.29,22.29,0,0,0-7-2.9c-6.1-1.7-14.7-2.8-25-2.8-16.1,0-28.7,5.2-33.2,7.8a8.52,8.52,0,0,0-.9,4.1,55.79,55.79,0,0,0,.4,7.7c.7,6,2.1,13.1,3.6,19.8.6,2.8,3.4,4.9,7.9,6.3s10.4,2,16.5,2.2c12.2.3,25-1.4,28.8-2.4a4.68,4.68,0,0,0,2.3-1.7,19.08,19.08,0,0,0,2.3-3.8,58.71,58.71,0,0,0,3.7-11.4c1-4.2,1.7-8.5,2.2-12.1A50.52,50.52,0,0,0,237.7,218.8ZM223.5,235c-.8,5.4-3.9,9.5-7,9s-5-5.2-4.2-10.6,3.9-9.5,7-9S224.3,229.6,223.5,235Z" fill="#b6794d"/><path d="M336.7,222.2a10.21,10.21,0,0,0-1.4-5.4l-.3-.3c-4.6-2.8-17.7-8.2-34.4-8.2-10.4,0-19.2,1.1-25.5,2.9a30.44,30.44,0,0,0-7.6,3.2c-1.8,1.2-3.1,2.7-3.2,4.5a48.39,48.39,0,0,0,.6,8.1,108.75,108.75,0,0,0,2.3,12.3,65.46,65.46,0,0,0,3.8,11.8,19.62,19.62,0,0,0,2.6,4.3,6.26,6.26,0,0,0,3.3,2.3c4.1,1.1,17.1,2.8,29.4,2.5,6.2-.2,12.3-.8,17-2.3s8.5-3.8,9.3-7.8c1.4-6.7,2.9-14,3.6-20A57.68,57.68,0,0,0,336.7,222.2Zm-2.5,7.8c-.7,6-2.1,13.1-3.6,19.8-.6,2.8-3.4,4.9-7.9,6.3s-10.4,2-16.5,2.2c-12.2.3-25-1.4-28.8-2.4a4.68,4.68,0,0,1-2.3-1.7,19.08,19.08,0,0,1-2.3-3.8,58.71,58.71,0,0,1-3.7-11.4c-1-4.2-1.7-8.5-2.2-12.1a45,45,0,0,1-.6-7.7c.1-.9.7-1.9,2.3-3a23.37,23.37,0,0,1,7-2.9c6.1-1.7,14.7-2.8,25-2.8,16.1,0,28.7,5.2,33.2,7.8a8.52,8.52,0,0,1,.9,4.1A57.46,57.46,0,0,1,334.2,230Z" fill-rule="evenodd"/><path d="M334.7,222.3a8.52,8.52,0,0,0-.9-4.1c-4.4-2.6-17.1-7.8-33.2-7.8-10.2,0-18.9,1.1-25,2.8a30.11,30.11,0,0,0-7,2.9c-1.6,1.1-2.3,2.1-2.3,3a46.31,46.31,0,0,0,.6,7.7c.5,3.6,1.2,7.9,2.2,12.1a66.41,66.41,0,0,0,3.7,11.4,14.64,14.64,0,0,0,2.3,3.8,4.68,4.68,0,0,0,2.3,1.7c3.8,1,16.6,2.7,28.8,2.4,6.1-.2,12-.8,16.5-2.2s7.3-3.5,7.9-6.3c1.4-6.7,2.8-13.9,3.6-19.8A43.11,43.11,0,0,0,334.7,222.3Zm-53.2,22.6c-3.1.4-6.1-3.8-6.8-9.2s1.4-10.2,4.5-10.5,6.1,3.8,6.8,9.2S284.6,244.6,281.5,244.9Z" fill="#b6794d" fill-rule="evenodd"/><path d="M275,308.8c-9.7,6.3-20.3,7.6-29.5,6.7a54.45,54.45,0,0,1-21.6-6.7l1-1.7a54.33,54.33,0,0,0,20.8,6.4c8.9.9,19-.4,28.2-6.4Z" fill-rule="evenodd"/><path d="M281.5,244.9c-3.1.4-6.1-3.8-6.8-9.2s1.4-10.2,4.5-10.5,6.1,3.8,6.8,9.2S284.6,244.6,281.5,244.9Z"/><path d="M223.5,235.3c-.8,5.4-3.9,9.5-7,9s-5-5.2-4.2-10.6,3.9-9.5,7-9S224.3,229.9,223.5,235.3Z"/><path d="M422.9,453.9c-.8.7-1.7,1.3-2.5,2-1.6,1.3-3.2,2.5-4.8,3.7-1,.8-2.1,1.6-3.1,2.3s-2.1,1.5-3.1,2.2c-.6.4-1.1.8-1.7,1.2-.9.6-1.7,1.2-2.6,1.8s-1.7,1.2-2.6,1.7c-1.1.8-2.2,1.5-3.3,2.2s-2.5,1.6-3.7,2.4-2.1,1.3-3.2,2a17.39,17.39,0,0,1-1.8,1.1c-1.1.7-2.3,1.4-3.4,2-.8.5-1.6.9-2.5,1.4-.7.4-1.4.8-2.2,1.2a9.5,9.5,0,0,0-1.7,1c-1.7.9-3.5,1.9-5.2,2.8-.9.5-1.8.9-2.7,1.4s-2,1-2.9,1.5-2,1-2.9,1.4a14.17,14.17,0,0,1-1.8.8c-.3.1-.6.3-.9.4s-.6.3-.9.4a10.84,10.84,0,0,1-1.9.8,20.29,20.29,0,0,1-2.6,1.1c-.9.4-1.7.7-2.6,1.1a1.42,1.42,0,0,1-.6.2,262.14,262.14,0,0,1-30.1,10.4c-1,.3-1.9.5-2.9.8l-2.3.6c-.1,0-.2.1-.4.1-.8.2-1.6.4-2.3.6s-1.3.3-2,.5-1.3.3-2,.5c-.3.1-.6.1-.8.2-.8.2-1.6.3-2.4.5-.2,0-.3.1-.4.1-1,.2-1.9.4-2.8.6-.3.1-.7.1-1,.2-1.2.2-2.4.4-3.5.6-.8.1-1.7.3-2.5.4h-.2l-2,.3h-.3l-2.3.3c-.2,0-.4.1-.6.1-1.4.2-2.8.4-4.3.5h-.1a11.08,11.08,0,0,1-1.9.2.75.75,0,0,0-.5.1l-2.5.3h-.1c-.6.1-1.2.1-1.7.2-3.7.4-7.4.6-11.1.8a6.15,6.15,0,0,0-1.4.1,26.2,26.2,0,0,1-2.8.1c-.9,0-1.9.1-2.8.1H254.4a24.37,24.37,0,0,1-2.7-.1h-.5c-.8,0-1.5-.1-2.2-.1s-1.6-.1-2.4-.1c-.6,0-1.1-.1-1.7-.1-1.7-.1-3.4-.2-5.1-.4l-3.8-.3c-1.1-.1-2.3-.2-3.4-.4h-.2a274.89,274.89,0,0,1-75.2-19.5l-.9-.4c-1.9-.8-3.7-1.6-5.5-2.4-3.7-1.6-7.2-3.3-10.7-5-1.7-.9-3.5-1.7-5.2-2.6s-3.4-1.8-5-2.7-3.3-1.8-4.9-2.8-3.2-1.9-4.8-2.8-3.1-1.9-4.6-2.9c-.9-.6-1.9-1.2-2.8-1.8-3.8-2.5-7.4-5-10.9-7.6-.5-.3-.9-.7-1.4-1s-.9-.7-1.4-1c-.8-.6-1.6-1.3-2.4-1.9-1-.8-1.9-1.5-2.8-2.3a21,21,0,0,0-1.7-1.4,20,20,0,0,1-1.6-1.4c-1.4-1.2-2.7-2.4-4-3.5a11.41,11.41,0,0,1-1.1-1.1,5.73,5.73,0,0,1-1.1-1.1,59.18,59.18,0,0,1,6.8-5.5c3.8-2.8,8.8-6.2,14.3-9.8,1.4-.9,2.8-1.8,4.3-2.7l4.5-2.7c1-.6,2-1.2,3.1-1.8,1.3-.7,2.6-1.5,3.8-2.2,1.6-.9,3.1-1.7,4.7-2.6s3.2-1.7,4.7-2.5,3.1-1.6,4.7-2.3c.8-.4,1.6-.7,2.3-1.1,1.5-.7,3.1-1.4,4.6-2,.4-.2.9-.4,1.3-.6s.5-.2.8-.3c24.8-10.2,39.4-14,58.2-16.8.8,5.2,3.5,10.8,7.2,16.3A97.79,97.79,0,0,0,225,427a106.53,106.53,0,0,0,17.8,13.1c5.8,3.2,11.2,5.3,15.4,5.3s9.1-2.1,13.9-5.3a71.1,71.1,0,0,0,14-13.1,68.5,68.5,0,0,0,10.5-17.2c2.2-5.3,3.5-10.8,3.2-15.8.2,0,.4.1.6.1,6.4,1.3,15.3,3.2,25.4,5.9,17.9,4.9,39.3,12.5,56.2,23.3.3.2.5.3.8.5.5.3,1,.7,1.5,1,.9.6,1.7,1.2,2.5,1.8a8.34,8.34,0,0,0,1.2.8c.9.7,1.9,1.4,2.9,2.2s2,1.5,3,2.2c6.1,4.5,12.5,9.3,17.9,13.3,3.6,2.7,6.7,5,9,6.7Z" fill="#f7c501"/><path d="M226.3,189.5a1.29,1.29,0,0,1-1.3,1.1,37,37,0,0,0-11,.7,24.13,24.13,0,0,0-12,5.8,1.2,1.2,0,0,1-1.7-1.7c3.6-3.6,8.6-5.5,13.2-6.5a38.91,38.91,0,0,1,11.8-.7A1.3,1.3,0,0,1,226.3,189.5Z" fill-rule="evenodd"/><path d="M321.1,201a1.25,1.25,0,0,1-1.7.3,41.12,41.12,0,0,0-9.9-4.9c-4.3-1.4-9-2.1-13.3-1a1.24,1.24,0,0,1-1.5-.8,1.22,1.22,0,0,1,.9-1.5c4.9-1.3,10.2-.5,14.7,1a41.41,41.41,0,0,1,10.6,5.3A1.12,1.12,0,0,1,321.1,201Z" fill-rule="evenodd"/><path d="M425.3,452.9l-.2-.1-3.6-2.6c-2.2-1.7-5.4-4-9-6.7-7.2-5.4-16.3-12.1-23.8-17.8a58.51,58.51,0,0,0-5.2-3.6c-13.2-8.8-34.8-19.8-56.8-24.9l-.9-.2v.1l-28.7-6.2.1.6c-1.8-.3-3.3-.6-4.4-.8a10.4,10.4,0,0,0-2.1-.3,4.33,4.33,0,0,1-.5-.1h-.1l-1.3-.2a2.84,2.84,0,0,1-2.3-1.9,47.33,47.33,0,0,1-1.3-8.1c16-4.1,28.9-11.4,39.1-21.1,16.4-15.6,25.8-37.3,30.4-61.8,2.4-12.7,2.7-27.5,1.7-42.4a13,13,0,0,0,7.9-3.7c2.7-2.8,4.6-7.5,4-14.6s-3.3-11.1-6.7-13a12.45,12.45,0,0,0-8.9-1c-.1-.6-.2-1.1-.3-1.7a.91.91,0,0,0,.8-.4,1,1,0,0,0,.2-.9l-2.4-8.6a1,1,0,0,0-.5-.6c-2.7-13.8-5.7-25.9-8.2-34.3,5.2-2.8,7.4-6.5,7.8-8.3a1.14,1.14,0,0,0-.6-1.2c-5.5-1.9-9.8-5.7-14.5-10.5-1-1.1-2.1-2.2-3.2-3.4a137.61,137.61,0,0,0-13.3-12.8c-13.7-11.3-34.7-21.8-75.3-23.2-32.5-1.2-51.6,8.3-62.2,20.8-10.4,12.3-12.4,27.5-11.1,37.8-6.4,9.2-11.5,21.4-15.3,35h-.2a1,1,0,0,0-1,.8l-1.4,8.6v.5c-.1.7-.3,1.3-.4,2a14,14,0,0,0-8.9.7c-3.8,1.8-7,5.9-8,13.6s.8,12.5,3.8,15.2a12.29,12.29,0,0,0,8.5,3.2,227.06,227.06,0,0,0,.6,42.3c3.8,31.9,28.3,70,72.8,82.6a28.51,28.51,0,0,1-.9,4.4c-.8,2.8-2,4.7-3.4,5.6l-.2.1-.8.2h-.2a1.09,1.09,0,0,0-.5.1c-.4.1-1,.2-1.7.3-1.4.2-3.1.5-4.5.7l-4.2.6v-.3l-1,.1c-8.7,1.2-17.4,3-23.8,4.5v-.2l-1,.2c-10.1,2.3-20.6,6.8-31.3,11.3l-5.7,2.4a22.88,22.88,0,0,0-2.3,1c-.5.2-1.1.5-1.6.7s-.7.3-1.1.5c-2.2,1-4.4,2.1-6.7,3.3l-2.4,1.2c-.7.4-1.5.8-2.2,1.2-1.7.9-3.3,1.8-4.9,2.7s-3.1,1.8-4.7,2.7c-.8.5-1.7,1-2.5,1.5-1.5.9-2.9,1.7-4.3,2.6-1,.6-2,1.3-3,1.9a9.13,9.13,0,0,1-1.3.8,23.92,23.92,0,0,1-2.1,1.3q-5.1,3.3-9.3,6.3a15.26,15.26,0,0,1-1.6,1.1c-.5.4-1,.7-1.5,1.1s-.9.7-1.4,1c-.2.2-.4.3-.6.5s-.4.3-.6.5a10.63,10.63,0,0,0-1.1.9c-.6.5-1.1.9-1.6,1.3a2.18,2.18,0,0,1-.5.4,16.62,16.62,0,0,0-1.9,1.9l-.1.1-.5.6.7.6c.6.6,1.2,1.1,1.8,1.7,1.1,1,2.1,2,3.3,3,3,2.6,6.2,5.3,9.5,7.9,1.3,1,2.7,2.1,4.1,3.1s2.6,1.9,3.9,2.8c.5.4,1.1.8,1.6,1.2l.9.6c1.9,1.3,3.8,2.6,5.8,3.9a6.07,6.07,0,0,1,1,.7c1.5,1,3.1,2,4.7,3l2.4,1.5,2.5,1.5c.8.5,1.7.9,2.5,1.4,1.7.9,3.4,1.9,5.1,2.8l2.6,1.4.4.2a256.35,256.35,0,0,0,123.5,31.5h1.6c2.4,0,4.8,0,7.2-.1l8.1-.3c1-.1,2-.1,3-.2a30.28,30.28,0,0,1,3.1-.2c.9-.1,1.7-.1,2.6-.2a21.12,21.12,0,0,1,2.6-.2,17.85,17.85,0,0,1,2.3-.2l2.8-.3c1.4-.2,2.7-.4,4.1-.5l2.4-.3c2-.3,4.1-.6,6.2-1l1.8-.3,1.5-.3c.8-.2,1.6-.3,2.4-.5,1.6-.3,3.2-.7,4.8-1a20.48,20.48,0,0,1,2.4-.5c3.2-.7,6.5-1.6,9.7-2.5.1,0,.2-.1.3-.1a191.27,191.27,0,0,0,29.5-10.1c6.7-2.8,13.4-5.9,20.2-9.4,1.1-.6,2.3-1.2,3.4-1.8.2-.1.3-.2.5-.3.7-.4,1.3-.7,2-1.1,1.1-.6,2.3-1.3,3.4-1.9s2.1-1.2,3.1-1.8,1.7-1,2.6-1.5l3-1.8c.9-.5,1.7-1.1,2.6-1.6s1.7-1.1,2.6-1.7c1.7-1.1,3.4-2.3,5.2-3.4.9-.6,1.7-1.2,2.6-1.8s1.7-1.2,2.6-1.8,1.7-1.2,2.6-1.8,1.7-1.3,2.6-1.9a14.63,14.63,0,0,1,1.3-.9l1.2-.9c.5-.3.9-.7,1.4-1,.7-.5,1.4-1.1,2.1-1.7l4.3-3.4,1-.8ZM360.6,225c2.6,1.5,5.1,4.7,5.7,11.4s-1.2,10.7-3.4,13a10.18,10.18,0,0,1-6.2,3.1l-3.2-28.3A10,10,0,0,1,360.6,225ZM147.5,248.5l-.7,4.1a10,10,0,0,1-6.9-2.6c-2.3-2.2-4.1-6.3-3.2-13.5s3.9-10.6,6.9-12a11.23,11.23,0,0,1,7.6-.5,1.42,1.42,0,0,1,.6.2Zm37.9-74.8c40.1-18.8,77.2-2.4,99.2,7.3,1.6.7,3.1,1.4,4.5,2,16.7,7.2,33,3.4,39.7.3a10.2,10.2,0,0,1,1.1,1.6q1.05,1.8,2.7,5.4a169.61,169.61,0,0,1,6.9,19.7h-.4c-34.5-13.3-65.8-5.7-77.5,0H241c-13.6-7.3-29.3-8.8-43.3-7.7a116.6,116.6,0,0,0-29.7,6.2C173.3,198.1,181.3,182,185.4,173.7ZM155.2,212h9.2a.6.6,0,0,0,.4-.1c.2-.1.4-.1.6-.2s.2-.1.3-.1c.4-.2.9-.3,1.3-.5a115.93,115.93,0,0,1,31.1-6.8c13.9-1.1,29.2.5,42.4,7.6a.9.9,0,0,0,.5.1h21a.6.6,0,0,0,.4-.1c11.1-5.5,42.1-13.2,76.2,0,.1,0,.2.1.4.1h10.3l1.6,5.8.2.8h-9.2a1.06,1.06,0,0,0-1,.9L338,245.8v.1c-.1,3-2,7.7-7.3,11.4s-14.1,6.6-28.1,5.8c-8.8-.5-15.4-1-20.3-1.7s-8.3-1.6-10.6-2.8a9.32,9.32,0,0,1-4.4-4.6,23.76,23.76,0,0,1-1.2-3.5c-.3-1.3-.7-2.8-1-4.5l-.1-.3a137.87,137.87,0,0,1-3.1-22.8,1,1,0,0,0-.8-1c-4.1-1.1-6.5-1.7-8.9-1.7s-4.8.6-8.9,1.7a.85.85,0,0,0-.7.8c-.6,4.4-1.2,7.9-1.8,11.4,0,.3-.1.5-.1.7-.6,3.3-1.2,6.6-1.8,10.8-.7,4.5-1.6,7.8-3,10.2a12.1,12.1,0,0,1-5.9,5c-2.7,1.1-6.1,1.6-10.7,1.9s-10.2.3-17.2.3a139.35,139.35,0,0,1-19.8-1.1c-4.8-.7-7.8-1.8-9.8-3.1-3.4-2.2-4-5.1-4.8-9a10.46,10.46,0,0,0-.4-1.7c-1.6-7.2-2-22-2-28.6a1,1,0,0,0-1-1H154.1Zm41,83.9c-1.7,1.4-3.3,2.7-4.8,3.8a17.6,17.6,0,0,1-5.6,3.1,8.69,8.69,0,0,1-5.5-.2,19.2,19.2,0,0,1-6.9-4.8c-5.3-5-8.7-12-10.9-20a97.07,97.07,0,0,1-2.9-25.4,138,138,0,0,1,2.1-23.6,63.83,63.83,0,0,1,1.8-8.2c0,6.9.5,20.9,2,28,.1.5.2,1.1.3,1.7.8,3.9,1.6,7.6,5.7,10.3,2.3,1.5,5.7,2.6,10.6,3.4a129.48,129.48,0,0,0,20.1,1.2c6.9,0,12.6,0,17.3-.3a37.41,37.41,0,0,0,11.4-2.1,14,14,0,0,0,6.9-5.8c1.6-2.7,2.6-6.3,3.3-10.9.6-4.2,1.2-7.5,1.8-10.8,0-.2.1-.5.1-.7.6-3.3,1.2-6.6,1.8-10.8,3.7-1,5.7-1.5,7.7-1.4s4,.5,7.7,1.4a150.51,150.51,0,0,0,3.1,22.4l.1.3v.1a45.52,45.52,0,0,0,2.3,8.4,10.89,10.89,0,0,0,5.3,5.5,36.83,36.83,0,0,0,11.2,3c5.1.7,11.7,1.2,20.5,1.7,14.3.8,23.6-2.1,29.3-6.2s7.9-9.2,8.1-12.9l2.6-24a127.17,127.17,0,0,1,1.4,39c-1.9,15.8-7,29.6-15.6,36.8-2.2,1.8-3.9,2.8-5.4,3.1a6.12,6.12,0,0,1-4.2-.5,18.36,18.36,0,0,1-4.6-3.2,22.53,22.53,0,0,1-2.4-2.1l-.3-.3c-1-.9-2-1.8-3.1-2.7-9.1-7.6-23.7-17-54.3-17-1.5,0-3,0-4.5.1a5.62,5.62,0,0,1-1.8-2.1c-.8-1.7-.3-3.5,1.2-6a21.73,21.73,0,0,0,2-6.1,68.46,68.46,0,0,0,1.3-8.1c0-.4-.2-.7-.6-.7s-.7.2-.7.6c-.3,2.7-.8,5.6-1.3,8a19.72,19.72,0,0,1-1.9,5.7c-1.5,2.5-2.3,4.9-1.3,7.2a8.16,8.16,0,0,0,1.1,1.7,85.16,85.16,0,0,0-29.3,6.3,83.86,83.86,0,0,0-20.3,12.7A8.47,8.47,0,0,0,196.2,295.9Zm15.2,17.5c-3.3-1.9-5.1-3.9-5.3-5.9a1.46,1.46,0,0,1,.5-1.2,6.43,6.43,0,0,1,2.6-1.1c2.5-.7,6.2-.9,10.8-1s9.9,0,15.6.2h.9c5.5.1,11.2.3,16.9.3s11.1-.2,16.3-.4h.1c5.1-.2,9.8-.4,13.7-.3s7.2.3,9.3,1a4.16,4.16,0,0,1,2.1,1.2,2,2,0,0,1,.5,1.5c-.3,2.7-2,4.9-4.8,6.9a40.16,40.16,0,0,1-11.2,4.7,106.89,106.89,0,0,1-26,3.3,166.53,166.53,0,0,1-29.4-4.4C219.1,316.8,214.6,315.3,211.4,313.4Zm-3,79.3c1.4-.2,3.2-.5,4.6-.7.7-.1,1.3-.2,1.7-.3a4.33,4.33,0,0,0,.5-.1h.2l.9-.2.6-.2.1-.1c2.1-1.3,3.5-3.8,4.4-6.8a28.51,28.51,0,0,0,.9-4.4,118.42,118.42,0,0,0,30,3.8,134.38,134.38,0,0,0,31-3.4,59.72,59.72,0,0,0,1.3,8.1,4.72,4.72,0,0,0,3.9,3.4l1.3.2h.2a1.09,1.09,0,0,1,.5.1c.5.1,1.2.2,2,.3,1.3.2,2.9.5,5,.9.4,4.8-.8,10.1-3,15.5a67.49,67.49,0,0,1-10.2,16.7,66.73,66.73,0,0,1-13.6,12.7c-4.7,3.2-9.1,5-12.8,5s-8.7-1.8-14.4-5A100.85,100.85,0,0,1,226,425.4a97.78,97.78,0,0,1-15-16.8c-3.7-5.4-6.1-10.7-6.9-15.5C205.5,393,206.9,392.9,208.4,392.7Zm212,62.9c-1.6,1.3-3.2,2.5-4.8,3.7-1,.8-2.1,1.6-3.1,2.3s-2.1,1.5-3.1,2.2c-.6.4-1.1.8-1.7,1.2-.9.6-1.7,1.2-2.6,1.8s-1.7,1.2-2.6,1.7c-1.1.8-2.2,1.5-3.3,2.2s-2.5,1.6-3.7,2.4-2.1,1.3-3.2,2a17.39,17.39,0,0,1-1.8,1.1c-1.1.7-2.3,1.4-3.4,2-.8.5-1.6.9-2.5,1.4-.7.4-1.4.8-2.2,1.2a9.5,9.5,0,0,0-1.7,1c-1.7.9-3.5,1.9-5.2,2.8-.9.5-1.8.9-2.7,1.4s-2,1-2.9,1.5-2,1-2.9,1.4a14.17,14.17,0,0,1-1.8.8c-.3.1-.6.3-.9.4s-.6.3-.9.4a10.84,10.84,0,0,1-1.9.8,20.29,20.29,0,0,1-2.6,1.1c-.9.4-1.7.7-2.6,1.1a1.42,1.42,0,0,1-.6.2,262.14,262.14,0,0,1-30.1,10.4c-1,.3-1.9.5-2.9.8l-2.3.6c-.1,0-.2.1-.4.1-.8.2-1.6.4-2.3.6s-1.3.3-2,.5-1.3.3-2,.5c-.3.1-.6.1-.8.2-.8.2-1.6.3-2.4.5-.2,0-.3.1-.4.1-1,.2-1.9.4-2.8.6-.3.1-.7.1-1,.2-1.2.2-2.4.4-3.5.6-.8.1-1.7.3-2.5.4h-.2l-2,.3h-.3l-2.3.3c-.2,0-.4.1-.6.1-1.4.2-2.8.4-4.3.5h-.1a11.08,11.08,0,0,1-1.9.2.75.75,0,0,0-.5.1l-2.5.3h-.1c-.6.1-1.2.1-1.7.2-3.7.4-7.4.6-11.1.8a6.15,6.15,0,0,0-1.4.1,26.2,26.2,0,0,1-2.8.1c-.9,0-1.9.1-2.8.1H254.4a24.37,24.37,0,0,1-2.7-.1h-.5c-.8,0-1.5-.1-2.2-.1s-1.6-.1-2.4-.1c-.6,0-1.1-.1-1.7-.1-1.7-.1-3.4-.2-5.1-.4l-3.8-.3c-1.1-.1-2.3-.2-3.4-.4h-.2A250.22,250.22,0,0,1,157.2,492l-.9-.4c-1.9-.8-3.7-1.6-5.5-2.4-3.7-1.6-7.2-3.3-10.7-5-1.7-.9-3.5-1.7-5.2-2.6s-3.4-1.8-5-2.7-3.3-1.8-4.9-2.8-3.2-1.9-4.8-2.8-3.1-1.9-4.6-2.9c-.9-.6-1.9-1.2-2.8-1.8-3.8-2.5-7.4-5-10.9-7.6-.5-.3-.9-.7-1.4-1s-.9-.7-1.4-1c-.8-.6-1.6-1.3-2.4-1.9-1-.8-1.9-1.5-2.8-2.3a21,21,0,0,0-1.7-1.4,20,20,0,0,1-1.6-1.4c-1.4-1.2-2.7-2.4-4-3.5a11.41,11.41,0,0,1-1.1-1.1,5.73,5.73,0,0,1-1.1-1.1,59.18,59.18,0,0,1,6.8-5.5c3.8-2.8,8.8-6.2,14.3-9.8,1.4-.9,2.8-1.8,4.3-2.7l4.5-2.7c1-.6,2-1.2,3.1-1.8,1.3-.7,2.6-1.5,3.8-2.2,1.6-.9,3.1-1.7,4.7-2.6s3.2-1.7,4.7-2.5,3.1-1.6,4.7-2.3c.8-.4,1.6-.7,2.3-1.1,1.5-.7,3.1-1.4,4.6-2,.4-.2.9-.4,1.3-.6s.5-.2.8-.3l3.6-1.5c10.3-4.4,20.4-8.6,30-11v.2l1-.2c6.2-1.4,14.8-3.2,23.5-4.5v.3c.8,5.2,3.5,10.8,7.2,16.3a97.79,97.79,0,0,0,15.3,17.1A106.53,106.53,0,0,0,242.7,440c5.8,3.2,11.2,5.3,15.4,5.3s9.1-2.1,13.9-5.3a71.1,71.1,0,0,0,14-13.1,68.5,68.5,0,0,0,10.5-17.2c2.2-5.3,3.5-10.8,3.2-15.8v-.5l27.7,6v-.1c6.8,1.9,14,4.2,21.3,6.9a197.94,197.94,0,0,1,33.1,17c.3.2.5.3.8.5.5.3,1,.7,1.5,1,.9.6,1.7,1.2,2.5,1.8a8.34,8.34,0,0,0,1.2.8c.9.7,1.9,1.4,2.9,2.2s2,1.5,3,2.2c6.1,4.5,12.5,9.3,17.9,13.3,3.6,2.7,6.7,5,9,6.7l2.5,1.9C422.1,454.3,421.2,455,420.4,455.6Z" fill-rule="evenodd"/></g></g></svg>