<svg xmlns="http://www.w3.org/2000/svg" viewBox="0 0 515.3 509.1"><title>Asset 15</title><g id="Layer_2" data-name="Layer 2"><g id="Слой_1" data-name="Слой 1"><path d="M515.3,257.8a255.33,255.33,0,0,1-92.2,196.9,4.35,4.35,0,0,0,.6-.7,1.14,1.14,0,0,0,.3-.8.75.75,0,0,0-.5-.7c-19.3-11.9-62.2-32.6-106.7-39.6-.1-.3-.4-.4-.7-.5a197.44,197.44,0,0,0-26.9-2.2V391.5c23.3-3.7,41.7-13.4,55-28.9,21.7-25.2,25.3-61,21.4-86.1,0-.2-.1-.5-.1-.8V212c.1-.3.3-.5.4-.8s.2-.3.2-.5.2-.5.3-.8c.1-.1.1-.3.2-.4v-.3c0-.1.1-.2.1-.3a.6.6,0,0,0,.1-.4v-.1c.2-.6.3-1.2.5-1.8.1-.3.1-.6.2-1s.1-.7.2-1.1c0-.2.1-.4.1-.6.1-.4.1-.8.2-1.2s.1-1,.2-1.5a4.87,4.87,0,0,0,.1-1.2c0-.3.1-.6.1-.9v-.3a3.75,3.75,0,0,1,.1-1V197a6.6,6.6,0,0,1,.1-1.4v-5.2a12.1,12.1,0,0,0-.1-1.9v-2.2c-.2-2.3-.4-4.6-.7-6.8-.1-.5-.1-1-.2-1.4l-.3-2.1c0-.2-.1-.5-.1-.7-.1-.5-.1-.9-.2-1.3,0-.2-.1-.5-.1-.7a.6.6,0,0,0-.1-.4c-.1-.5-.2-1.1-.3-1.6a13,13,0,0,0-.3-1.3c0-.1-.1-.3-.1-.4h.1c3.2,0,6.9-1,9-3.7s2.3-6.7.4-11.8c-2.7-7.5-15.1-23.9-37.9-38.5-18.9-12-50.7-26.2-94.9-25.5-38,.7-56.8,13-65.8,23.2-11.4,12.9-11.4,26.3-11,30.9-1,1-1.9,2-2.8,3-.2.3-.5.5-.7.8s-.4.5-.6.8c-.1.1-.2.3-.3.4s-.1.2-.2.3l-.1.1a65.35,65.35,0,0,0-8.4,16.5c-.2.5-.3,1-.5,1.5v.1c0,.1,0,.1-.1.2v.3a5.64,5.64,0,0,1-.4,1.2,21.72,21.72,0,0,0-.7,2.4c-.2.8-.5,1.6-.7,2.5-.1.5-.3,1.1-.4,1.6s-.3,1.1-.4,1.6-.3,1.2-.4,1.8-.3,1.2-.4,1.8c-.1.3-.1.6-.2.9s-.1.6-.2.9c-.1.6-.2,1.3-.3,1.9s-.2,1.3-.3,1.9l-.3,2.1v.1c-.1.8-.2,1.5-.3,2.3-.2,1.3-.3,2.5-.4,3.8v.5c0,.4-.1.8-.1,1.1-.2,1.7-.3,3.5-.4,5.3,0,.6-.1,1.2-.1,1.8a17.7,17.7,0,0,0-.1,2.3c0,.8-.1,1.5-.1,2.3a5.24,5.24,0,0,0-.2,1.7v96.4c.8,24.7,18.9,67.7,77.7,81.8V410c-7.3.5-15.5,1.4-23.8,2.6a1,1,0,0,0-.7.4c-37.4,5.3-87.9,17.4-108.9,39.4a.76.76,0,0,0-.2.4A255.67,255.67,0,0,1,0,257.6C0,115.3,115.3,0,257.7,0S515.3,115.5,515.3,257.8Z" fill="#f2f2f2"/><path d="M223.7,388.4v21.8h.1Zm92.6,26.3c-6.9,10.7-24,28.5-47.4,32.5l-4.4,25.5a1,1,0,0,1-1,.8,1.08,1.08,0,0,1-1-.8l-4-24.7c-27.7-.4-50.1-21.2-58.7-33-36.7,5.1-86.3,16.9-107.3,38.1,19,19,76.9,53.8,165.3,53.8,88.1,0,145-34.6,163.7-53.6C401.8,441.5,359.7,421.5,316.3,414.7Zm-70.8,46.4a4.5,4.5,0,1,1,4.5-4.5A4.48,4.48,0,0,1,245.5,461.1Zm33,0a4.5,4.5,0,1,1,4.5-4.5A4.48,4.48,0,0,1,278.5,461.1Zm-52.8-72.2v22.5c0-.1.1-.2.1-.3ZM368.7,192v0Zm-3.1,19.8a4.35,4.35,0,0,0,.4-.7c.1-.2.2-.3.2-.5s.2-.5.3-.8c.1-.1.1-.3.2-.4v-.3c0-.1.1-.2.1-.3a.6.6,0,0,0,.1-.4v-.1c.2-.6.3-1.2.5-1.8.1-.3.1-.6.2-1s.1-.7.2-1.1c0-.2.1-.4.1-.6.1-.4.1-.8.2-1.2s.1-1,.2-1.5a4.87,4.87,0,0,0,.1-1.2c0-.3.1-.6.1-.9v-.3a3.75,3.75,0,0,1,.1-1v-.8a6.6,6.6,0,0,1,.1-1.4v-1.7C368.7,200.7,367.9,207.2,365.6,211.8Zm2.2-32.4c-.1-.5-.1-1-.2-1.4l-.3-2.1c0-.2-.1-.5-.1-.7.2,1.4.4,2.9.6,4.6Zm-1-6.6c-.1-.5-.2-1.1-.3-1.6.1.5.2,1.1.3,1.6ZM161.9,149.1c-.1.1-.1.2-.2.3.2-.2.3-.4.5-.6Zm-6.9,18a83.75,83.75,0,0,1,4-9.6A83.75,83.75,0,0,0,155,167.1Zm-6.8,41.8v-.2c0-1,.1-1.9.1-2.8v-.5a16.2,16.2,0,0,0,.1-2.2c0-.6.1-1.2.1-1.7s.1-1,.1-1.6v-1C148.5,202.2,148.3,205.5,148.2,208.9Zm-.2,1.3v5.1c0-2.1.1-4.3.2-6.4A6.88,6.88,0,0,0,148,210.2Zm0,13.2v0Z" fill="#f2f2f2"/><path d="M225.7,388.9v22.2a.37.37,0,0,1-.1.3Z" fill="#fff"/><path d="M316.3,414.7c-6.9,10.7-24,28.5-47.4,32.5l-4.4,25.5a1,1,0,0,1-1,.8,1.08,1.08,0,0,1-1-.8l-4-24.7c-27.7-.4-50.1-21.2-58.7-33-36.7,5.1-86.3,16.9-107.3,38.1,19,19,76.9,53.8,165.3,53.8,88.1,0,145-34.6,163.7-53.6C401.8,441.5,359.7,421.5,316.3,414.7Zm-70.8,46.4a4.5,4.5,0,1,1,4.5-4.5A4.48,4.48,0,0,1,245.5,461.1Zm33,0a4.5,4.5,0,1,1,4.5-4.5A4.48,4.48,0,0,1,278.5,461.1Z" fill="#fff"/><path d="M223.7,388.4v21.8h.1Z"/><path d="M225.7,388.9v22.2a.37.37,0,0,1-.1.3Z" fill="#fdd29d"/><path d="M225.7,388.9v22.5c0-.1.1-.2.1-.3Z"/><path d="M148,223.4v0Zm0-13.2v5.1c0-2.1.1-4.3.2-6.4A6.88,6.88,0,0,0,148,210.2Zm.2-1.3v-.2c0-1,.1-1.9.1-2.8v-.5a16.2,16.2,0,0,0,.1-2.2c0-.6.1-1.2.1-1.7s.1-1,.1-1.6v-1C148.5,202.2,148.3,205.5,148.2,208.9Zm6.8-41.8a83.75,83.75,0,0,1,4-9.6A83.75,83.75,0,0,0,155,167.1Z" fill="#4c4c4c"/><path d="M148,223.4v0Zm.2-14.5v-.2c0-1,.1-1.9.1-2.8v-.5a16.2,16.2,0,0,0,.1-2.2c0-.6.1-1.2.1-1.7s.1-1,.1-1.6v-1C148.5,202.2,148.3,205.5,148.2,208.9Zm13.7-59.8c-.1.1-.1.2-.2.3.2-.2.3-.4.5-.6Zm204.9,23.7c-.1-.5-.2-1.1-.3-1.6.1.5.2,1.1.3,1.6Zm1,6.6c-.1-.5-.1-1-.2-1.4l-.3-2.1c0-.2-.1-.5-.1-.7.2,1.4.4,2.9.6,4.6Z"/><path d="M314.3,414c-.1.1-.1.2-.2.4-6.8,10-23.7,27.4-46.3,31-.4.1-.8.4-.8.8l-3.5,20.3-3.2-19.6a1,1,0,0,0-1-.8c-26.7,0-48.4-19.6-57.3-31.3-.1-.1-.2-.2-.2-.3,8.1-1.1,16-1.9,23-2.4a1,1,0,0,0,.9-.7c0-.1.1-.2.1-.3V388.9a182.92,182.92,0,0,0,40.6,4.2,150.41,150.41,0,0,0,20.6-1.4h.3v19.4a1,1,0,0,0,1,1A199.06,199.06,0,0,1,314.3,414Z" fill="#fdd29d"/><path d="M373.7,164.6c-1.9,2.5-5.9,3.1-8.6,2.9a1.14,1.14,0,0,0-.8.3,1,1,0,0,0-.2.9c.6,2.7,1.1,5.7,1.5,8.8.1,1,.3,2,.4,3.1.1.5.1,1,.2,1.6l.2,1.6c1.2,13.4.3,27.5-6,31.8-.1.1-.2.1-.3.2a4.18,4.18,0,0,1-1,.4,3.4,3.4,0,0,1-1,.1,7.84,7.84,0,0,1-1.4-.2c-10.1-3-24.9-32.6-31.4-47.8a.87.87,0,0,0-.8-.6,1,1,0,0,0-.9.4c-3.8,5.3-11.4,11.8-20.3,13-6.5.9-12.9-1.2-19-6.1a.91.91,0,0,0-1.2,0,1,1,0,0,0-.4,1.1c1.3,3.8,1.9,9.3-.5,12.6-1.4,1.9-3.7,2.9-6.9,2.9-5.7,0-13.5-2.9-22.5-6.4-12.4-4.7-27.7-10.5-43.4-10.5-21.2,0-42.6,69-51.5,101.3l-.9,3.3q-.45,1.8-.9,3.3c0,1.1.1,2.2.2,3.3s.1,2.2.2,3.3c4.2,63.1,32.2,69,59.3,74.8l1.4.3a47,47,0,0,0,9.7,1c17.3,0,30.7-9.9,36.6-16.8,6.3,11.8,26,15.5,36,15.8a46.62,46.62,0,0,0,34.4-14.5c20.2-20.7,26.7-59.6,26.2-86.6V217.9a9.14,9.14,0,0,0,1.4-.7,11.5,11.5,0,0,0,2.3-2.1v60.6a4.1,4.1,0,0,0,.1,1.1c3.8,24.6.3,59.8-20.9,84.5-13,15.1-30.9,24.5-53.5,28.2a.37.37,0,0,0-.3.1,1.48,1.48,0,0,1-.7.1h-.3c-.2,0-.4.1-.7.1h-.3a150.41,150.41,0,0,1-20.6,1.4,181.9,181.9,0,0,1-40.6-4.3h-.1c-.3-.1-.6-.1-.9-.2h-.1a2.92,2.92,0,0,0-.9-.2h-.1c-57.3-14-74.9-55.7-75.7-79.8V215.4c0-2.1.1-4.3.2-6.4v-.2c0-1,.1-1.9.1-2.8v-.5a16.2,16.2,0,0,0,.1-2.2c0-.6.1-1.2.1-1.7s.1-1,.1-1.6v-.3c.1-1,.2-1.9.3-2.9s.2-2.2.3-3.2c.1-.5.1-1.1.2-1.6s.1-1,.2-1.6.1-1,.2-1.5c.2-1,.3-2.1.5-3.1a23.25,23.25,0,0,1,.5-2.8v-.1l.3-1.8c.1-.7.3-1.3.4-2s.4-1.6.5-2.3l.3-1.2.6-2.4a15.46,15.46,0,0,1,.7-2.3l.3-1.2c.3-.8.5-1.6.8-2.3a83.75,83.75,0,0,1,4-9.6c.2-.4.4-.8.7-1.3s.6-1.1.9-1.6a14,14,0,0,1,1-1.6l.6-.9c.4-.6.8-1.1,1.2-1.7a5.55,5.55,0,0,1,.6-.8c.2-.3.4-.5.6-.8s.4-.5.6-.8a5,5,0,0,1,.7-.8l.3-.3c.2-.3.5-.5.7-.8l1.1-1.1a1.14,1.14,0,0,0,.3-.8c-.4-3.8-.8-17,10.5-29.8,8.7-9.9,27-21.8,64.3-22.5h3.4c79.5,0,122.4,48.6,127.4,62.6C375.5,159.1,375.4,162.4,373.7,164.6Z" fill="#4c4c4c"/><path d="M358,263.1v-45a6.28,6.28,0,0,1-1.9-.3c-10.4-3.1-24.7-30.5-32-47.3-4.4,5.5-11.8,11.2-20.6,12.4-6.3.8-12.3-.8-18.2-4.8.8,3.9.7,8.5-1.6,11.6-1.8,2.5-4.7,3.8-8.6,3.8-6.1,0-14-3-23.3-6.5-12.8-4.9-27.4-10.4-42.7-10.4-17.7,0-39.3,60.1-51.2,106,1.2,30.3,7.5,50.8,19.4,62.7C188,356,202.2,359,215.9,361.9l1.4.3c22.1,4.7,39.3-8.6,45.3-16.3a1.09,1.09,0,0,1,.9-.4.87.87,0,0,1,.8.6c5,12.1,25,15.8,34.8,16A44.59,44.59,0,0,0,332,348.2C352.2,328,358.5,289.7,358,263.1Zm-98.9,36.3a.88.88,0,0,1,1.3-.4,12.22,12.22,0,0,0,4.6,1.1c1.9,0,9.4-1,10.7-4.1.6-1.3-.1-2.9-2-4.9-6.7-7.1-9.3-19.5-9.8-25a1.17,1.17,0,0,1,.9-1.1,1.09,1.09,0,0,1,1.1.9c.4,5.3,2.9,17,9.2,23.8,2.5,2.6,3.2,5,2.3,7-2.1,4.9-12.5,5.3-12.6,5.3a13.19,13.19,0,0,1-5.5-1.4A1.12,1.12,0,0,1,259.1,299.4Zm-42-68.6c-4.9,1-9.8,3-13.4,6.5a1.34,1.34,0,1,1-1.9-1.9c4-4,8.4-7.3,13.5-8.4s11.3.1,14.3.4a1.36,1.36,0,0,1-.3,2.7A38.73,38.73,0,0,0,217.1,230.8Zm10.7,43.8c-3.5-.5-5.5-5.8-4.7-11.8s4.3-10.5,7.8-10,5.5,5.8,4.7,11.8S231.2,275.1,227.8,274.6Zm37.5,63.2a24.37,24.37,0,0,1-2.7.1,27.8,27.8,0,0,1-19.2-7.4c-5.7-5.3-8.3-11.9-8.3-16.1a.94.94,0,0,1,1-1H290a.91.91,0,0,1,.7.3,1.08,1.08,0,0,1,.3.7C290.7,321.8,284.9,336.2,265.3,337.8Zm34.8-62.5c-3.5.4-6.8-4.2-7.5-10.2s1.5-11.3,5-11.7,6.8,4.2,7.5,10.2S303.5,274.9,300.1,275.3Zm25.7-38.6a1.4,1.4,0,0,1-1.9.3,44.47,44.47,0,0,0-11-5.5c-4.7-1.6-10-2.3-14.8-1.1a1.3,1.3,0,1,1-.7-2.5c5.5-1.4,12.6-1.7,17.5-.1s8.1,5.3,10.5,7A1.33,1.33,0,0,1,325.8,236.7Z" fill="#fdd29d"/><path d="M290.8,313.7a1.08,1.08,0,0,0-.7-.3H236.2a.94.94,0,0,0-1,1c0,4.2,2.6,10.8,8.3,16.1a27.6,27.6,0,0,0,19.2,7.4,24.37,24.37,0,0,0,2.7-.1c19.6-1.6,25.4-15.9,25.7-23.3A1.14,1.14,0,0,0,290.8,313.7Zm-46,15.3c-4.8-4.4-7.2-9.9-7.6-13.6H289c-.8,7-6.5,18.9-23.8,20.3C255.3,336.6,248.6,332.6,244.8,329Z"/><path d="M237.2,315.4c.4,3.7,2.8,9.2,7.6,13.6a25.85,25.85,0,0,0,20.4,6.7c17.3-1.4,23-13.4,23.8-20.3Zm45.5,7c-3.6,1.4-31.9,1.4-38,0-4.8-1.1-5.5-4.6-5.2-6.8h47.1C286.6,317.8,285.5,321.4,282.7,322.4Z" fill="#ae5646"/><path d="M286.7,315.6c-.1,2.3-1.2,5.8-4,6.8-3.6,1.4-31.9,1.4-38,0-4.8-1.1-5.5-4.6-5.2-6.8Z" fill="#fff"/><path d="M300.1,275.3c-3.5.4-6.8-4.2-7.5-10.2s1.5-11.3,5-11.7,6.8,4.2,7.5,10.2S303.5,274.9,300.1,275.3Z"/><path d="M235.6,264.6c-.9,6-4.3,10.5-7.8,10.1s-5.5-5.8-4.7-11.8,4.3-10.5,7.8-10S236.4,258.5,235.6,264.6Z"/><path d="M230.9,228.8a1.36,1.36,0,0,1-1.5,1.2,43.08,43.08,0,0,0-12.3.8c-4.9,1-9.8,3-13.4,6.5a1.34,1.34,0,1,1-1.9-1.9c4-4,8.4-7.3,13.5-8.4s11.3.1,14.3.4A1.34,1.34,0,0,1,230.9,228.8Z" fill-rule="evenodd"/><path d="M325.8,236.7a1.4,1.4,0,0,1-1.9.3,44.47,44.47,0,0,0-11-5.5c-4.7-1.6-10-2.3-14.8-1.1a1.3,1.3,0,1,1-.7-2.5c5.5-1.4,12.6-1.7,17.5-.1s8.1,5.3,10.5,7A1.33,1.33,0,0,1,325.8,236.7Z" fill-rule="evenodd"/><path d="M277.7,296.8c-2.1,4.9-12.5,5.3-12.6,5.3a13.19,13.19,0,0,1-5.5-1.4,1,1,0,0,1,.9-1.7,12.22,12.22,0,0,0,4.6,1.1c1.9,0,9.4-1,10.7-4.1.6-1.3-.1-2.9-2-4.9-6.7-7.1-9.3-19.5-9.8-25a1.17,1.17,0,0,1,.9-1.1,1.09,1.09,0,0,1,1.1.9c.4,5.3,2.9,17,9.2,23.8C277.8,292.4,278.6,294.8,277.7,296.8Z"/><path d="M148.2,208.9c-.1,2.1-.1,4.3-.2,6.4v-5.1A6.88,6.88,0,0,1,148.2,208.9Z" fill="#4c4c4c"/><path d="M148.8,198.9v1c0,.5-.1,1.1-.1,1.6s-.1,1.2-.1,1.7c0,.7-.1,1.5-.1,2.2v.5a26.2,26.2,0,0,0-.1,2.8v.2A82.78,82.78,0,0,1,148.8,198.9Z" fill="#4c4c4c"/><path d="M159.1,157.6a69,69,0,0,0-4,9.6A52.17,52.17,0,0,1,159.1,157.6Z" fill="#4c4c4c"/><path d="M148,210.2v5.1c0-2.1.1-4.3.2-6.4A6.88,6.88,0,0,0,148,210.2Zm7-43.1a83.75,83.75,0,0,1,4-9.6A83.75,83.75,0,0,0,155,167.1Zm213.5,20v0Zm-2.9,24.7a4.35,4.35,0,0,0,.4-.7c.1-.2.2-.3.2-.5s.2-.5.3-.8c.1-.1.1-.3.2-.4v-.3c0-.1.1-.2.1-.3a.6.6,0,0,0,.1-.4v-.1c.2-.6.3-1.2.5-1.8.1-.3.1-.6.2-1s.1-.7.2-1.1c0-.2.1-.4.1-.6.1-.4.1-.8.2-1.2s.1-1,.2-1.5a4.87,4.87,0,0,0,.1-1.2c0-.3.1-.6.1-.9v-.3a3.75,3.75,0,0,1,.1-1v-.8a6.6,6.6,0,0,1,.1-1.4v-1.7C368.7,200.7,367.9,207.2,365.6,211.8Zm3.1-19.8v0Z"/><path d="M278.5,452.1a4.5,4.5,0,1,0,4.5,4.5A4.48,4.48,0,0,0,278.5,452.1Zm0,7a2.5,2.5,0,1,1,2.5-2.5A2.48,2.48,0,0,1,278.5,459.1Z"/><path d="M278.5,459.1a2.5,2.5,0,1,0-2.5-2.5A2.48,2.48,0,0,0,278.5,459.1Z" fill="#fdd29d"/><path d="M245.5,452.1a4.5,4.5,0,1,0,4.5,4.5A4.48,4.48,0,0,0,245.5,452.1Zm0,7a2.5,2.5,0,1,1,2.5-2.5A2.48,2.48,0,0,1,245.5,459.1Z"/><path d="M245.5,459.1a2.5,2.5,0,1,0-2.5-2.5A2.48,2.48,0,0,0,245.5,459.1Z" fill="#fdd29d"/><path d="M423.5,452.4c-19.3-11.9-62.2-32.6-106.7-39.6-.1-.3-.4-.4-.7-.5a197.44,197.44,0,0,0-26.9-2.2V391.4c23.3-3.7,41.7-13.4,55-28.9,21.7-25.2,25.3-61,21.4-86.1,0-.2-.1-.5-.1-.8V211.8c2.2-4.6,3.1-11.1,3.1-17.9v-3.5a12.1,12.1,0,0,0-.1-1.9v-2.2c0-.4-.1-.8-.1-1.2s-.1-1.1-.1-1.6c-.1-.9-.2-1.7-.3-2.5,0-.4-.1-.8-.1-1.1-.2-1.6-.4-3.2-.6-4.6-.1-.5-.1-.9-.2-1.3,0-.2-.1-.5-.1-.7a.37.37,0,0,0-.1-.3c-.1-.6-.2-1.2-.3-1.7a13,13,0,0,0-.3-1.3c0-.1-.1-.3-.1-.4h.1c3.2,0,6.9-1,9-3.7s2.3-6.7.4-11.8c-2.7-7.5-15.1-23.9-37.9-38.5-18.9-12-50.7-26.2-94.9-25.5-38,.7-56.8,13-65.8,23.2-11.4,12.9-11.4,26.3-11,30.9-1,1-1.9,2-2.8,3a5,5,0,0,1-.7.8c-.2.3-.4.5-.6.8s-.3.4-.5.6l-.1.1c-.2.3-.4.5-.6.8s-.6.9-.9,1.3c-.1.2-.3.4-.4.6s-.4.7-.6,1c-.1.1-.1.1-.1.2-.3.5-.6,1-.9,1.6a8,8,0,0,0-.8,1.6,16.27,16.27,0,0,0-1.1,2.3,6.12,6.12,0,0,0-.5,1.2c-.2.5-.4.9-.6,1.4-.7,1.5-1.3,3.1-1.9,4.7-.2.5-.3,1-.5,1.5v.1c0,.1,0,.1-.1.2v.3a5.64,5.64,0,0,1-.4,1.2c-.2.8-.5,1.6-.7,2.4s-.5,1.7-.7,2.5c-.1.5-.3,1.1-.4,1.6s-.3,1.1-.4,1.6-.3,1.2-.4,1.8-.3,1.2-.4,1.8c-.1.3-.1.6-.2.9s-.1.6-.2.9c-.1.6-.2,1.3-.3,1.9s-.2,1.3-.3,1.9l-.3,2.1v.1c-.1.8-.2,1.5-.3,2.3-.1,1.3-.3,2.5-.4,3.8v.5c0,.4-.1.8-.1,1.1-.2,1.7-.3,3.5-.4,5.3,0,.6-.1,1.2-.1,1.8a17.7,17.7,0,0,0-.1,2.3c0,.8-.1,1.5-.1,2.3a5.24,5.24,0,0,0-.2,1.7v96.4c.8,24.7,18.9,67.7,77.7,81.8h.1v21.8h-.1c-7.3.5-15.5,1.4-23.8,2.6a1,1,0,0,0-.7.4c-37.4,5.3-87.9,17.4-108.9,39.4a.76.76,0,0,0-.2.4,1.23,1.23,0,0,0,.2,1c7.3,7.5,20.8,17.6,40,27.2,29.6,14.7,72.8,28,127.5,28,56.5,0,100.3-14.2,129.5-29.4,16.9-8.8,29-18,35.8-25.1a4.35,4.35,0,0,0,.6-.7,1.14,1.14,0,0,0,.3-.8C424,452.8,423.8,452.6,423.5,452.4Zm-199.8-66c-57.3-14-74.9-55.7-75.7-79.8V210.3a5.85,5.85,0,0,1,.2-1.3c.1-3.4.3-6.7.6-10,.1-.8.1-1.5.2-2.3.1-1.1.2-2.2.3-3.2.1-.5.1-1.1.2-1.6s.1-1,.2-1.6.1-1,.2-1.5c.2-1,.3-2.1.5-3.1a23.25,23.25,0,0,1,.5-2.8v-.1l.3-1.8c.1-.7.3-1.3.4-2s.4-1.6.5-2.3l.3-1.2.6-2.4a15.46,15.46,0,0,1,.7-2.3l.3-1.2c.3-.8.5-1.6.8-2.3a71,71,0,0,1,4-9.6c.2-.4.4-.8.7-1.3s.6-1.1.9-1.6a14,14,0,0,1,1-1.6l.6-.9c.4-.6.8-1.1,1.2-1.7a5.55,5.55,0,0,1,.6-.8c.2-.3.4-.5.6-.8s.4-.5.6-.8a5,5,0,0,1,.7-.8l.3-.3c.2-.3.5-.5.7-.8l1.1-1.1a1.14,1.14,0,0,0,.3-.8c-.4-3.8-.8-17,10.5-29.8,8.7-9.9,27-21.8,64.3-22.5h3.4c79.5,0,122.4,48.6,127.4,62.6,1.6,4.3,1.5,7.7-.2,9.8-1.9,2.5-5.9,3.1-8.6,2.9a1.14,1.14,0,0,0-.8.3,1,1,0,0,0-.2.9c.6,2.7,1.1,5.7,1.5,8.8.1,1,.3,2,.4,3.1.1.5.1,1,.2,1.6l.2,1.6c1.2,13.4.3,27.5-6,31.8-.1.1-.2.1-.3.2a4.18,4.18,0,0,1-1,.4,3.4,3.4,0,0,1-1,.1,7.84,7.84,0,0,1-1.4-.2c-10.1-3-24.9-32.6-31.4-47.8a.87.87,0,0,0-.8-.6,1,1,0,0,0-.9.4c-3.8,5.3-11.4,11.8-20.3,13-6.5.9-12.9-1.2-19-6.1a.91.91,0,0,0-1.2,0,1,1,0,0,0-.4,1.1c1.3,3.8,1.9,9.3-.5,12.6-1.4,1.9-3.7,2.9-6.9,2.9-5.7,0-13.5-2.9-22.5-6.4-12.4-4.7-27.7-10.5-43.4-10.5-21.2,0-42.6,69-51.5,101.3l-.9,3.3q-.45,1.8-.9,3.3c0,1.1.1,2.2.2,3.3s.1,2.2.2,3.3c4.2,63.1,32.2,69,59.3,74.8l1.4.3a47,47,0,0,0,9.7,1c17.3,0,30.7-9.9,36.6-16.8,6.3,11.8,26,15.5,36,15.8a46.62,46.62,0,0,0,34.4-14.5c20.2-20.7,26.7-59.6,26.2-86.6V217.8a9.14,9.14,0,0,0,1.4-.7,11.5,11.5,0,0,0,2.3-2.1v60.6a4.1,4.1,0,0,0,.1,1.1c3.8,24.6.3,59.8-20.9,84.5-13,15.1-30.9,24.5-53.5,28.2a.37.37,0,0,0-.3.1,1.48,1.48,0,0,1-.7.1H288c-.2,0-.4.1-.7.1H287a150.41,150.41,0,0,1-20.6,1.4,181.9,181.9,0,0,1-40.6-4.3h-.1c-.3-.1-.6-.1-.9-.2h-.1A4.4,4.4,0,0,0,223.7,386.4ZM285.4,178c5.8,4,11.9,5.6,18.2,4.8,8.8-1.2,16.2-6.9,20.6-12.4,7.3,16.9,21.5,44.2,32,47.3a6.8,6.8,0,0,0,1.9.3v45c.6,26.7-5.8,64.9-25.6,85.2a44.59,44.59,0,0,1-32.9,13.9c-9.9-.3-29.8-3.9-34.8-16a.87.87,0,0,0-.8-.6,1.09,1.09,0,0,0-.9.4c-6,7.7-23.2,21-45.3,16.3l-1.4-.3c-13.7-2.9-27.9-5.9-38.6-16.6-11.9-12-18.3-32.5-19.4-62.7,11.9-45.9,33.6-106,51.2-106,15.3,0,29.8,5.5,42.7,10.4,9.2,3.5,17.2,6.5,23.3,6.5,3.9,0,6.8-1.3,8.6-3.8C286.1,186.4,286.2,181.9,285.4,178ZM224.8,412.1a1,1,0,0,0,.9-.7V388.9h.1a182.92,182.92,0,0,0,40.6,4.2,150.41,150.41,0,0,0,20.6-1.4h.3v19.4a1,1,0,0,0,1,1,184.43,184.43,0,0,1,26.1,1.9c-.1.1-.1.2-.2.4-6.8,10-23.7,27.4-46.3,31-.4.1-.8.4-.8.8l-3.5,20.3-3.2-19.6a1,1,0,0,0-1-.8c-26.7,0-48.4-19.6-57.3-31.3-.1-.1-.2-.2-.2-.3C209.9,413.4,217.8,412.6,224.8,412.1Zm32.9,95c-88.4,0-146.3-34.8-165.3-53.8,21.1-21.2,70.7-33,107.3-38.1,8.6,11.7,31,32.6,58.7,33l4,24.7a1,1,0,0,0,2,0l4.4-25.5c23.4-4,40.5-21.9,47.4-32.5,43.4,6.8,85.5,26.8,105.2,38.7C402.7,472.5,345.8,507.1,257.7,507.1Z"/></g></g></svg>