<svg xmlns="http://www.w3.org/2000/svg" viewBox="0 0 515.3 515.6"><title>Asset 14</title><g id="Layer_2" data-name="Layer 2"><g id="Слой_1" data-name="Слой 1"><path d="M339,403.6a4.88,4.88,0,0,0,.7.3Zm25.5,11.8a2.19,2.19,0,0,1,.5.3Zm0,0a2.19,2.19,0,0,1,.5.3ZM339,403.6a4.88,4.88,0,0,0,.7.3Zm0,0a4.88,4.88,0,0,0,.7.3Zm25.5,11.8a2.19,2.19,0,0,1,.5.3Zm-46.1,91.7c1.1-.3,2.2-.5,3.3-.8,4.4-1.3,8.6-2.7,12.6-4.1C329.1,504,323.8,505.7,318.4,507.1ZM257.7,0C115.4,0,0,115.4,0,257.7A255.51,255.51,0,0,0,102,462.5a.91.91,0,0,1,.3-.7l14-14c11.7-14.9,44-32.8,74.4-46.3a6.12,6.12,0,0,1,1.2-.5c13-5.8,25.6-10.7,36.1-14.3a9.31,9.31,0,0,0,6.4-8.7V352.7a1,1,0,0,1,.4-.8,57.62,57.62,0,0,1-30.5-16.8h-.7c-3.7,1.8-11.7,5-17.6,5-3.7,0-6.3-2.9-9.1-5.9-3.1-3.5-6.7-7.5-12.7-7.8-3.8-.2-7.6,1.3-11.7,2.9-7.7,3-16.4,6.5-25.4-3.2-9.4-10.2-5.8-18-2.8-24.3,1.3-2.8,2.5-5.4,2.5-7.9,0-9,0-22.6,12.1-32.6,5.3-4.4,5.2-8.6,5-14.3-.2-6.5-.4-14.5,6.5-26.4,6.7-11.5,5.9-17.9,5.2-24.2-.7-5.8-1.3-11.2,4.2-19.5,13.6-20.7,48.9-66.5,85.1-50.2a1.05,1.05,0,0,1,.9-.5,1,1,0,0,1,1,.8c11-6.8,37.2-15.6,65.4-4.4,38.1,15.1,66.2,47.1,66.8,76.1.6,27.9,4.6,34.3,8.8,41.1l.4.7c2.2,3.6,1.3,9.1.1,15.4-1.2,7-2.6,14.9-.1,22a109.32,109.32,0,0,0,5.3,11.6c4.7,9.3,9.6,18.8,6.4,29.7-2.3,8-8.7,15.2-17.1,19.3-6.9,3.4-14.2,4.1-20,1.8l-1.3-.5c-11.8-4.6-15-5.8-25.3.4-3.8,2.3-9.5,3.1-15.7,3.1a114.09,114.09,0,0,1-22-2.5,83.29,83.29,0,0,1-7.9,4v33.5a9.21,9.21,0,0,0,6.5,8.7c14.8,4.5,28.3,9.4,40.6,14.4a1.27,1.27,0,0,1,.6.1l3.4,1.6c8,3.4,15.5,6.9,22.3,10.4l2.3,1.1a1.38,1.38,0,0,1,.4.3c26.2,13.6,42.8,26.8,48,35a.1.1,0,0,0,.1.1l4.2,8.4c58.7-47,96.3-119,96.3-200.2C515.3,115.4,400,0,257.7,0Zm-17,513.7c.6.1,1.2.1,1.7.2s.7.1,1.1.1Zm123.8-98.3a2.19,2.19,0,0,1,.5.3ZM339,403.6a4.88,4.88,0,0,0,.7.3Zm0,0a4.88,4.88,0,0,0,.7.3Zm25.5,11.8a2.19,2.19,0,0,1,.5.3Zm0,0a2.19,2.19,0,0,1,.5.3ZM339,403.6a4.88,4.88,0,0,0,.7.3Zm0,0a4.88,4.88,0,0,0,.7.3Zm25.5,11.8a2.19,2.19,0,0,1,.5.3Zm0,0a2.19,2.19,0,0,1,.5.3ZM339,403.6a4.88,4.88,0,0,0,.7.3Z" fill="#f2f2f2"/><path d="M364.5,415.4a2.19,2.19,0,0,1,.5.3ZM339,403.6a4.88,4.88,0,0,0,.7.3Z" fill="#ffdbdb"/><path d="M364.5,415.4a2.19,2.19,0,0,1,.5.3ZM339,403.6a4.88,4.88,0,0,0,.7.3Z"/><path d="M417.3,458.8c-6.5,5.4-25.6,17.1-50.3,28.2V416.8c26.8,14.1,41.9,27.2,46.1,33.7Z" fill="#ffdbdb"/><path d="M164,416.6v77.3c-24.4-9-45.3-20.3-59.5-31.5l13.2-13.2.1-.1C125.8,438.9,143.7,427.3,164,416.6Z" fill="#ffdbdb"/><path d="M337,402.8V445a19,19,0,0,1-19,19H212a19,19,0,0,1-19-19V402.7c12.8-5.6,25.3-10.5,35.6-14a11.26,11.26,0,0,0,7.7-10.6V353.6l4.2-.8c2.1.2,4.2.3,6.4.3,16.5,0,30.3-2.9,41.8-7.7V378a11.26,11.26,0,0,0,7.9,10.6A391.09,391.09,0,0,1,337,402.8Z" fill="#ffdbdb"/><path d="M391.8,290.1a115,115,0,0,1-5.4-11.8c-2.8-7.6-1.3-15.8,0-23.1,1-5.9,1.9-11,.1-14l-.4-.7c-4.3-7-8.4-13.6-9.1-42.1-.3-13.7-7.2-28.8-19.4-42.5a122.92,122.92,0,0,0-46.2-31.8,73,73,0,0,0-27.2-5.2c-16.9,0-30.8,5.7-37.4,10.1v26.7a1,1,0,0,1-2,0V128.5c-35.1-16.6-69.9,28.7-83.3,49.1-5.1,7.7-4.5,12.6-3.9,18.2.7,6.3,1.5,13.3-5.5,25.4-6.6,11.4-6.4,19.1-6.2,25.3s.3,10.9-5.7,15.9c-11.3,9.4-11.3,22.5-11.3,31.1,0,3-1.3,5.8-2.7,8.8-3,6.3-6,12.9,2.5,22.1,8.1,8.7,15.4,5.8,23.2,2.7,4.1-1.6,8.3-3.3,12.6-3.1,6.9.4,10.9,4.9,14.1,8.5,2.5,2.8,4.7,5.3,7.6,5.3,5.5,0,13.1-3,16.6-4.8-28.5-31.6-31.4-91.4-28.9-118.6a1,1,0,0,1,.7-.9c15.9-4.7,26.9-14.4,38.5-24.6,9.7-8.6,19.8-17.5,33.5-24.1a1.07,1.07,0,0,1,1.1.1c9,7.5,30.5,23.1,47.7,28.9s35.8,31,43.5,44c5.8-.6,14.1.5,19.5,5.3,3.8,3.4,5.8,8.2,5.8,14.1,0,17.1-15.9,23.5-24.9,24.6-2.2,16.2-12.9,41.2-37.9,56.8,10.3,2,26.7,3.8,34.2-.7,11.1-6.7,15.1-5.2,27-.6l1.3.5c5.3,2.1,12,1.4,18.4-1.8,7.8-3.9,13.8-10.6,16-18.1C401,308.2,396.5,299.4,391.8,290.1ZM147.6,278.5c-2.1,1.4-8.8,7-5.6,22.5,2.2,10.8-1.1,16.7-3.4,18.4a1.42,1.42,0,0,1-.6.2.91.91,0,0,1-.8-.4,1,1,0,0,1,.2-1.4c1.5-1.1,4.8-6.2,2.7-16.5-3.4-16.7,4.1-23,6.5-24.5,3.1-2,4.7-10.3,4.9-15.3a1,1,0,0,1,1.1-.9.86.86,0,0,1,.9,1C153.4,262.2,152.7,275.3,147.6,278.5Zm29.8,36.9a.92.92,0,0,1,.4,1.3,1.05,1.05,0,0,1-.9.5.9.9,0,0,1-.5-.1c-10.5-5.6-18.1-23.8-14.6-34.7,2.3-7.2,1.5-10.5.2-16.1-.5-2.2-1.1-4.8-1.6-7.9-1.4-9,3.9-21.9,6.8-27.5a.92.92,0,0,1,1.3-.4,1.11,1.11,0,0,1,.4,1.4c-2.8,5.4-7.9,17.8-6.6,26.2.5,3.1,1.1,5.6,1.6,7.8,1.3,5.5,2.2,9.5-.3,17.2C160.6,293,167.8,310.3,177.4,315.4Zm18.5-132.8c-11.4,6.1-28.6,18.5-29.3,27.7-1.1,14.1-4.4,24.1-9.7,29.8a22.52,22.52,0,0,0-5.8,12.2,1.06,1.06,0,0,1-1,.9H150a.9.9,0,0,1-.9-1.1,24.93,24.93,0,0,1,6.3-13.3c4.9-5.2,8.1-15.1,9.1-28.6s29.2-28.7,30.4-29.3a1,1,0,0,1,1.4.4A1.13,1.13,0,0,1,195.9,182.6Zm40.2-30.2c-6.2,3.4-21.4,10.5-34.5,13.2-12.7,2.6-26,15.8-31.3,22.5a.91.91,0,0,1-.8.4,1.42,1.42,0,0,1-.6-.2,1.08,1.08,0,0,1-.2-1.4c5.4-6.8,19.1-20.5,32.5-23.2,12.9-2.6,27.8-9.6,33.9-13a1,1,0,0,1,1.4.4A.92.92,0,0,1,236.1,152.4ZM338.3,328a1,1,0,1,1,0-2c3.8,0,7.5-16.6,8.7-32.6a1,1,0,0,1,1.1-.9.9.9,0,0,1,.9,1.1C348.6,299.3,345.9,328,338.3,328ZM272.1,133c16.1-1.6,50,0,63.3,17.9a1.08,1.08,0,0,1-.2,1.4,1.42,1.42,0,0,1-.6.2.91.91,0,0,1-.8-.4C321,134.9,288,133.4,272.3,135a1,1,0,0,1-1.1-.9A1.17,1.17,0,0,1,272.1,133Zm50.5,55.4c-6.8,0-14.9-10.2-22-19.3-1.9-2.4-3.7-4.7-5.3-6.6-5.5-6.4-25.7-9.5-37.9-10a1,1,0,0,1,0-2c1.3,0,31.4,1.5,39.3,10.8,1.7,2,3.4,4.2,5.3,6.6,6.5,8.3,14.6,18.5,20.4,18.5a1,1,0,0,1,1,1A.77.77,0,0,1,322.6,188.4Zm26.1,47.4a1.42,1.42,0,0,1-.6.2.91.91,0,0,1-.8-.4c-8.6-10.8-10-17.2-10-28.1a1,1,0,1,1,2,0c0,11,1.4,16.7,9.5,26.9A1,1,0,0,1,348.7,235.8ZM366.9,328a1.08,1.08,0,0,1-1-1c0-1.8-1-7.6-4.6-16.7-3.8-9.5-1.7-25.6,0-32.8a1,1,0,0,1,2,.4c-1.6,7-3.7,22.5,0,31.6,3.8,9.4,4.8,15.6,4.8,17.5A1.52,1.52,0,0,1,366.9,328Zm6.4-59.7h-.2a1,1,0,0,1-.8-1.2c1.7-7.6,2.6-24.7-6.2-35-6.9-8.1-9.1-15.6-11.7-24.3a118.47,118.47,0,0,0-7.3-19.9c-7-14.6-24.1-26.7-32.1-31.1a1,1,0,1,1,1-1.8c8.2,4.5,25.7,16.9,33,32a125.29,125.29,0,0,1,7.4,20.2c2.5,8.4,4.6,15.7,11.3,23.5,9.3,10.9,8.4,28.8,6.6,36.8A1.15,1.15,0,0,1,373.3,268.3ZM385.9,319a1,1,0,0,1-.9.6.6.6,0,0,1-.4-.1c-8.2-3.6-9.6-29-9.7-30.1a1,1,0,0,1,1-1,1,1,0,0,1,1,.9c.5,10.1,3.2,26.1,8.5,28.3A1.15,1.15,0,0,1,385.9,319Z" fill="#fff"/><path d="M356.9,244.9c-5.1-4.5-13.2-5.4-18.6-4.7a1,1,0,0,1-1-.5c-7.4-12.6-25.8-37.9-42.8-43.6s-38.4-21.1-47.8-28.8c-13.1,6.4-23,15.1-32.5,23.5-11.6,10.3-22.6,20-38.6,24.9-2.4,27.3.6,85.9,28.7,116.7.3.3.5.6.8.9s.7.7,1,1.1a11.41,11.41,0,0,0,1.1,1.1A54.49,54.49,0,0,0,240.3,351l3.8.3c.9,0,1.8.1,2.7.1h2.3c15.3-.3,28.2-3.1,39-7.7a10.09,10.09,0,0,0,1.5-.7,4.67,4.67,0,0,0,1-.5c1.6-.7,3.1-1.5,4.6-2.3.6-.3,1.1-.6,1.6-.9s.9-.5,1.3-.7c26.2-15.3,36.9-41.1,38.9-57.2a1.06,1.06,0,0,1,.9-.9c8.3-.8,23.9-6.5,23.9-22.7C362,252.1,360.3,247.9,356.9,244.9Zm-120,31c4.6-5.3,7.2-15.3,8-19.9a1,1,0,1,1,1.9.3c-.8,4.8-3.5,15.3-8.4,20.9a4.92,4.92,0,0,0-1.4,4.4c.5,2.6,3.4,5.1,6.1,6.4a1,1,0,0,1,.5,1.3.87.87,0,0,1-.9.5c-.2,0-.3,0-.4-.1-1-.5-6.3-3.3-7.2-7.8C234.5,279.9,235.2,277.8,236.9,275.9Zm-33-51.5a1.93,1.93,0,0,1-2.8,0,1.93,1.93,0,0,1,0-2.8c11-11.1,25.6-8.7,31.7-5.9a2.1,2.1,0,0,1,1,2.7,2,2,0,0,1-2.7,1C225.9,216.9,213.4,214.9,203.9,224.4Zm20,17.3c-.8,5.6-4,9.7-7.2,9.2s-5.1-5.3-4.3-10.9,4.1-9.7,7.2-9.2C222.9,231.3,224.8,236.2,223.9,241.7Zm43.3,59.5c-.3.9-.6,1.8-1,2.8-2.4,7.2-6.1,18.1-18,19.1-.5,0-.9.1-1.4.1-11.8,0-16.9-12.1-19.9-19.4l-.6-1.3a.8.8,0,0,1,.3-1.1,1,1,0,0,1,1.2-.1c3.1,1.8,10.9,5.1,18.4,4.5s16.1-4,19.6-5.7a.91.91,0,0,1,1.1.2C267.2,300.4,267.3,300.8,267.2,301.2Zm12.5-57.9c-.8,5.6-3.9,9.7-7.1,9.3s-5.1-5.3-4.4-10.8,3.9-9.7,7.1-9.3S280.5,237.7,279.7,243.3Zm16.2-15.5a1.49,1.49,0,0,1-.9.2,2.23,2.23,0,0,1-1.8-1c-6.8-12.7-23-8.5-26.2-7.5a2,2,0,1,1-1.2-3.8c10.2-3.1,24.4-2.5,30.8,9.5A1.74,1.74,0,0,1,295.9,227.8Z" fill="#ffdbdb"/><path d="M364.5,415.4a2.19,2.19,0,0,1,.5.3ZM339,403.6a4.88,4.88,0,0,0,.7.3Z" fill="#f8654e"/><path d="M240.7,513.7c.6.1,1.2.1,1.7.2s.7.1,1.1.1ZM191.6,401.1l-.9.5a6.12,6.12,0,0,1,1.2-.5C191.8,401,191.7,401.1,191.6,401.1Z"/><path d="M365,415.7v72.2c-5.9,2.8-56.5,25.6-95.5,25.6a249.55,249.55,0,0,1-28.6-1.8c-31.4-3.7-60.8-12.2-74.9-17.4V415.6l25-12V445a21,21,0,0,0,21,21H318a21,21,0,0,0,21-21V403.6a4.88,4.88,0,0,0,.7.3l24.8,11.5C364.7,415.5,364.8,415.6,365,415.7Z" fill="#f8654e"/><path d="M385.9,319a1,1,0,0,1-.9.6.6.6,0,0,1-.4-.1c-8.2-3.6-9.6-29-9.7-30.1a1,1,0,0,1,1-1,1,1,0,0,1,1,.9c.5,10.1,3.2,26.1,8.5,28.3A1.15,1.15,0,0,1,385.9,319Z"/><path d="M367.9,327a1,1,0,0,1-2,0c0-1.8-1-7.6-4.6-16.7-3.8-9.5-1.7-25.6,0-32.8a1,1,0,0,1,2,.4c-1.6,7-3.7,22.5,0,31.6C366.9,319,367.9,325.1,367.9,327Z"/><path d="M349.1,293.5c-.5,5.8-3.1,34.5-10.7,34.5a1,1,0,0,1,0-2c3.8,0,7.5-16.6,8.7-32.6a1,1,0,0,1,1.1-.9A1,1,0,0,1,349.1,293.5Z"/><path d="M348.7,235.8a1.42,1.42,0,0,1-.6.2.91.91,0,0,1-.8-.4c-8.6-10.8-10-17.2-10-28.1a1,1,0,1,1,2,0c0,11,1.4,16.7,9.5,26.9A1,1,0,0,1,348.7,235.8Z"/><path d="M374.2,267.5a1,1,0,0,1-1,.8H373a1,1,0,0,1-.8-1.2c1.7-7.6,2.6-24.7-6.2-35-6.9-8.1-9.1-15.6-11.7-24.3a118.47,118.47,0,0,0-7.3-19.9c-7-14.6-24.1-26.7-32.1-31.1a1,1,0,1,1,1-1.8c8.2,4.5,25.7,16.9,33,32a125.29,125.29,0,0,1,7.4,20.2c2.5,8.4,4.6,15.7,11.3,23.5C376.9,241.6,376,259.5,374.2,267.5Z"/><path d="M335.3,152.3a1.42,1.42,0,0,1-.6.2.91.91,0,0,1-.8-.4c-12.8-17.2-45.8-18.7-61.5-17.1a1,1,0,0,1-1.1-.9.94.94,0,0,1,.9-1.1c16.1-1.6,50,0,63.3,17.9A1.08,1.08,0,0,1,335.3,152.3Z"/><path d="M323.6,187.4a1,1,0,0,1-1,1c-6.8,0-14.9-10.2-22-19.3-1.9-2.4-3.7-4.7-5.3-6.6-5.5-6.4-25.7-9.5-37.9-10a1,1,0,0,1,0-2c1.3,0,31.4,1.5,39.3,10.8,1.7,2,3.4,4.2,5.3,6.6,6.5,8.3,14.6,18.5,20.4,18.5C323.1,186.4,323.6,186.8,323.6,187.4Z"/><path d="M236.1,152.4c-6.2,3.4-21.4,10.5-34.5,13.2-12.7,2.6-26,15.8-31.3,22.5a.91.91,0,0,1-.8.4,1.42,1.42,0,0,1-.6-.2,1.08,1.08,0,0,1-.2-1.4c5.4-6.8,19.1-20.5,32.5-23.2,12.9-2.6,27.8-9.6,33.9-13a1,1,0,0,1,1.4.4A.92.92,0,0,1,236.1,152.4Z"/><path d="M195.9,182.6c-11.4,6.1-28.6,18.5-29.3,27.7-1.1,14.1-4.4,24.1-9.7,29.8a22.52,22.52,0,0,0-5.8,12.2,1.06,1.06,0,0,1-1,.9H150a.9.9,0,0,1-.9-1.1,24.93,24.93,0,0,1,6.3-13.3c4.9-5.2,8.1-15.1,9.1-28.6s29.2-28.7,30.4-29.3a1,1,0,0,1,1.4.4A1.13,1.13,0,0,1,195.9,182.6Z"/><path d="M177.8,316.7a1.05,1.05,0,0,1-.9.5.9.9,0,0,1-.5-.1c-10.5-5.6-18.1-23.8-14.6-34.7,2.3-7.2,1.5-10.5.2-16.1-.5-2.2-1.1-4.8-1.6-7.9-1.4-9,3.9-21.9,6.8-27.5a.92.92,0,0,1,1.3-.4,1.11,1.11,0,0,1,.4,1.4c-2.8,5.4-7.9,17.8-6.6,26.2.5,3.1,1.1,5.6,1.6,7.8,1.3,5.5,2.2,9.5-.3,17.2-3.2,10,4,27.3,13.6,32.4A.77.77,0,0,1,177.8,316.7Z"/><path d="M153.4,261.6c0,.5-.7,13.6-5.8,16.9-2.1,1.4-8.8,7-5.6,22.5,2.2,10.8-1.1,16.7-3.4,18.4a1.42,1.42,0,0,1-.6.2.91.91,0,0,1-.8-.4,1,1,0,0,1,.2-1.4c1.5-1.1,4.8-6.2,2.7-16.5-3.4-16.7,4.1-23,6.5-24.5,3.1-2,4.7-10.3,4.9-15.3a1,1,0,0,1,1.1-.9A.91.91,0,0,1,153.4,261.6Z"/><path d="M246.4,307.7c-.6,0-1.3.1-1.9.1a38.2,38.2,0,0,1-15.2-3.6c3,7.2,8.1,17.8,18.8,16.9s13.8-10.6,16.2-17.7c.1-.2.1-.4.2-.6C260.2,304.6,252.9,307.2,246.4,307.7Zm14.7,1.5c-2.8,2.8-8.9,4.3-13.9,4.7a25.52,25.52,0,0,1-12.7-2.7c-1.9-1-3.2-4.7-3.5-6.3a35.13,35.13,0,0,0,15.6,2.8,61.28,61.28,0,0,0,16.9-4.5C263.5,303.3,263.3,307,261.1,309.2Z" fill="#ae5646"/><path d="M263.5,303.3s-.2,3.8-2.4,6c-2.8,2.8-8.9,4.3-13.9,4.7a25.52,25.52,0,0,1-12.7-2.7c-1.9-1-3.2-4.7-3.5-6.3a35.13,35.13,0,0,0,15.6,2.8C252.5,307.3,259.2,305,263.5,303.3Z" fill="#fff"/><path d="M223.9,241.7c-.8,5.6-4,9.7-7.2,9.2s-5.1-5.3-4.3-10.9,4.1-9.7,7.2-9.2C222.9,231.3,224.8,236.2,223.9,241.7Z"/><path d="M279.7,243.3c-.8,5.6-3.9,9.7-7.1,9.3s-5.1-5.3-4.4-10.8,3.9-9.7,7.1-9.3S280.5,237.7,279.7,243.3Z"/><path d="M243.5,289.4a.87.87,0,0,1-.9.5c-.2,0-.3,0-.4-.1-1-.5-6.3-3.3-7.2-7.8a7,7,0,0,1,1.9-6.1c4.6-5.3,7.2-15.3,8-19.9a1,1,0,1,1,1.9.3c-.8,4.8-3.5,15.3-8.4,20.9a4.92,4.92,0,0,0-1.4,4.4c.5,2.6,3.4,5.1,6.1,6.4A1.24,1.24,0,0,1,243.5,289.4Z"/><path d="M233.8,218.3a2,2,0,0,1-2.7,1c-5.3-2.4-17.8-4.4-27.3,5.1a1.93,1.93,0,0,1-2.8,0,1.93,1.93,0,0,1,0-2.8c11-11.1,25.6-8.7,31.7-5.9A1.88,1.88,0,0,1,233.8,218.3Z"/><path d="M295.9,227.8a1.49,1.49,0,0,1-.9.2,2.23,2.23,0,0,1-1.8-1c-6.8-12.7-23-8.5-26.2-7.5a2,2,0,1,1-1.2-3.8c10.2-3.1,24.4-2.5,30.8,9.5A1.74,1.74,0,0,1,295.9,227.8Z"/><path d="M419.4,458.6l-.4-.7-4.2-8.4a.1.1,0,0,0-.1-.1c-5.2-8.2-21.9-21.4-48-35a1.38,1.38,0,0,0-.4-.3L364,413c-6.8-3.5-14.3-6.9-22.3-10.4l-3.4-1.6a1.27,1.27,0,0,0-.6-.1,413.36,413.36,0,0,0-40.6-14.4,9.31,9.31,0,0,1-6.5-8.7V344.3a83.29,83.29,0,0,0,7.9-4,107.56,107.56,0,0,0,22,2.5c6.2,0,12-.8,15.7-3.1,10.3-6.2,13.4-5,25.3-.4l1.3.5c5.8,2.3,13.1,1.6,20-1.8,8.3-4.1,14.7-11.3,17.1-19.3,3.2-10.8-1.7-20.4-6.4-29.7a100.89,100.89,0,0,1-5.3-11.6c-2.6-7.1-1.2-15,.1-22,1.1-6.3,2.1-11.8-.1-15.4l-.4-.7c-4.2-6.8-8.1-13.1-8.8-41.1-.7-29-28.8-61-66.8-76.1-28.2-11.2-54.4-2.3-65.4,4.4a1,1,0,0,0-1-.8,1.05,1.05,0,0,0-.9.5c-36.2-16.3-71.5,29.5-85.1,50.2-5.5,8.3-4.8,13.8-4.2,19.5.7,6.2,1.4,12.7-5.2,24.2-6.9,11.9-6.7,19.9-6.5,26.4.2,5.7.3,9.9-5,14.3-12.1,10-12.1,23.6-12.1,32.6,0,2.5-1.2,5.2-2.5,7.9-2.9,6.3-6.6,14.1,2.8,24.3,9,9.7,17.7,6.3,25.4,3.2,4.1-1.6,7.9-3.1,11.7-2.9,6,.3,9.6,4.3,12.7,7.8,2.7,3.1,5.3,5.9,9.1,5.9,5.9,0,13.9-3.2,17.6-5h.7a56.9,56.9,0,0,0,30.5,16.8.91.91,0,0,0-.4.8V378a9.31,9.31,0,0,1-6.4,8.7c-10.4,3.5-23.1,8.5-36.1,14.3-.4.2-.8.3-1.2.5-30.4,13.5-62.7,31.4-74.4,46.3l-14,14a.91.91,0,0,0-.3.7v.1a1,1,0,0,0,.4.7,182.75,182.75,0,0,0,31.5,19.8c28.9,14.6,67.2,26.8,106.8,30.7l2.8.3a4.1,4.1,0,0,1-1.1-.1,246.27,246.27,0,0,0,27.1,1.6c16.8,0,35.6-4.2,52.2-9.2-1.1.3,7.4-2.3,12.6-4.1a6.89,6.89,0,0,0,.8-.3c.6-.2,1.1-.4,1.7-.6a381.68,381.68,0,0,0,53.9-23.8c14.6-7.9,25-14.7,28.4-17.8A1,1,0,0,0,419.4,458.6ZM186,338c-2.8,0-5-2.4-7.6-5.3-3.2-3.6-7.3-8.1-14.1-8.5-4.3-.3-8.5,1.4-12.6,3.1-7.8,3.1-15.1,6-23.2-2.7-8.5-9.2-5.4-15.7-2.5-22.1,1.4-3,2.7-5.8,2.7-8.8,0-8.6,0-21.7,11.3-31.1,6-5,5.9-9.8,5.7-15.9s-.4-14,6.2-25.3c7-12,6.2-19.1,5.5-25.4-.6-5.6-1.2-10.5,3.9-18.2,13.4-20.4,48.2-65.7,83.3-49.1v27.2a1,1,0,0,0,2,0V129.2c6.6-4.4,20.4-10.1,37.4-10.1a72.63,72.63,0,0,1,27.2,5.2,124.52,124.52,0,0,1,46.2,31.8c12.2,13.7,19.1,28.8,19.4,42.5.7,28.5,4.7,35.1,9.1,42.1l.4.7c1.8,3,.9,8.1-.1,14-1.3,7.2-2.7,15.5,0,23.1a125.68,125.68,0,0,0,5.4,11.8c4.7,9.3,9.2,18.1,6.3,28.2-2.2,7.4-8.2,14.2-16,18.1-6.4,3.2-13.1,3.8-18.4,1.8l-1.3-.5c-11.9-4.6-15.9-6.2-27,.6-7.4,4.5-23.9,2.8-34.2.7,25-15.6,35.7-40.6,37.9-56.8,9.1-1.1,24.9-7.5,24.9-24.6,0-6-1.9-10.7-5.8-14.1-5.4-4.8-13.7-5.9-19.5-5.3-7.7-13-26.2-38.2-43.5-44-17.1-5.8-38.7-21.4-47.7-28.9a.9.9,0,0,0-1.1-.1c-13.7,6.6-23.8,15.5-33.5,24.1-11.6,10.3-22.6,20-38.5,24.6a1,1,0,0,0-.7.9c-2.5,27.3.3,87,28.9,118.6C199,335,191.4,338,186,338Zm21.3-2.8a11.41,11.41,0,0,1-1.1-1.1,10,10,0,0,1-1-1.1,6.47,6.47,0,0,1-.8-.9c-28.1-30.8-31-89.4-28.7-116.7,16-4.9,27-14.6,38.6-24.9,9.5-8.4,19.3-17,32.5-23.5,9.4,7.7,30.7,23.1,47.8,28.8s35.4,31,42.8,43.6a1.23,1.23,0,0,0,1,.5c5.4-.7,13.5.2,18.6,4.7,3.4,3,5.1,7.3,5.1,12.6,0,16.2-15.7,21.9-23.9,22.7-.5,0-.8.4-.9.9-2,16.1-12.8,41.9-38.9,57.2a5.39,5.39,0,0,1-1.3.7c-.6.3-1.1.6-1.6.9-1.5.8-3,1.5-4.6,2.3-.3.2-.7.3-1,.5a10.09,10.09,0,0,0-1.5.7c-10.8,4.5-23.7,7.4-39,7.7h-2.3a78,78,0,0,1-6.5-.4A52.56,52.56,0,0,1,207.3,335.2ZM193,402.7c12.8-5.6,25.3-10.5,35.6-14a11.26,11.26,0,0,0,7.7-10.6V353.6l4.2-.8c2.1.2,4.2.3,6.4.3,16.5,0,30.3-2.9,41.8-7.7V378a11.26,11.26,0,0,0,7.9,10.6,412.77,412.77,0,0,1,40.3,14.3V445a19,19,0,0,1-19,19h-106a19,19,0,0,1-19-19l.1-42.3Zm-29,91.2c-24.4-9-45.3-20.3-59.5-31.5l13.2-13.2.1-.1c8-10.2,25.9-21.8,46.2-32.5v77.3Zm201-6c-5.9,2.8-56.5,25.6-95.5,25.6a249.55,249.55,0,0,1-28.6-1.8c-31.4-3.7-60.8-12.2-74.9-17.4V415.6l25-12V445a21,21,0,0,0,21,21H318a21,21,0,0,0,21-21V403.6l.7.3,24.8,11.5.5.2Zm2-1V416.7c26.8,14.1,41.9,27.2,46.1,33.7l4.2,8.4C410.8,464.2,391.6,475.8,367,486.9Z"/><path d="M266.9,300.1a1.09,1.09,0,0,0-1.1-.2c-3.5,1.7-12.1,5.1-19.6,5.7s-15.3-2.7-18.4-4.5a1.06,1.06,0,0,0-1.2.1,1.19,1.19,0,0,0-.3,1.1l.6,1.3c3.1,7.3,8.1,19.4,19.9,19.4a6.6,6.6,0,0,0,1.4-.1c11.9-.9,15.5-11.8,18-19.1.3-1,.7-2,1-2.8A.91.91,0,0,0,266.9,300.1Zm-2.6,3.3c-2.4,7.1-5.6,16.9-16.2,17.7s-15.8-9.8-18.8-16.9a38.2,38.2,0,0,0,15.2,3.6,12.1,12.1,0,0,0,1.9-.1c6.5-.5,13.8-3.1,18.2-4.9Z"/></g></g></svg>