<svg xmlns="http://www.w3.org/2000/svg" viewBox="0 0 515.6 515.4"><title>Asset 6</title><g id="Layer_2" data-name="Layer 2"><g id="Слой_1" data-name="Слой 1"><path d="M316.7,197.3c.1.2.2.5.3.7l.3.3C317.1,198,316.9,197.6,316.7,197.3Zm-168,171.1a5.5,5.5,0,0,0,.9.7v-.7Zm.9.7a21.7,21.7,0,0,0,9,4.1A95.89,95.89,0,0,1,149.6,369.1ZM316.7,197.3c.1.2.2.5.3.7l.3.3C317.1,198,316.9,197.6,316.7,197.3ZM149.6,369.1a21.7,21.7,0,0,0,9,4.1A95.89,95.89,0,0,1,149.6,369.1Zm-.9-.7a5.5,5.5,0,0,0,.9.7v-.7Zm0,0a5.5,5.5,0,0,0,.9.7v-.7Zm.9.7a21.7,21.7,0,0,0,9,4.1A95.89,95.89,0,0,1,149.6,369.1ZM316.7,197.3c.1.2.2.5.3.7l.3.3C317.1,198,316.9,197.6,316.7,197.3ZM149.6,369.1a21.7,21.7,0,0,0,9,4.1A95.89,95.89,0,0,1,149.6,369.1Zm-.9-.7a5.5,5.5,0,0,0,.9.7v-.7Zm0,0a5.5,5.5,0,0,0,.9.7v-.7Zm.9.7a21.7,21.7,0,0,0,9,4.1A95.89,95.89,0,0,1,149.6,369.1ZM316.7,197.3c.1.2.2.5.3.7l.3.3C317.1,198,316.9,197.6,316.7,197.3Zm0,0c.1.2.2.5.3.7l.3.3C317.1,198,316.9,197.6,316.7,197.3ZM149.6,369.1a21.7,21.7,0,0,0,9,4.1A95.89,95.89,0,0,1,149.6,369.1Zm-.9-.7a5.5,5.5,0,0,0,.9.7v-.7Zm0,0a5.5,5.5,0,0,0,.9.7v-.7Zm.9.7a21.7,21.7,0,0,0,9,4.1A95.89,95.89,0,0,1,149.6,369.1ZM316.7,197.3c.1.2.2.5.3.7l.3.3C317.1,198,316.9,197.6,316.7,197.3ZM360.8,412a157.3,157.3,0,0,1,23.5,12.3A148.49,148.49,0,0,0,360.8,412Zm23.6,12.4a8.79,8.79,0,0,0,1,.6c.2.2.5.3.7.5C385.5,425.1,384.9,424.8,384.4,424.4Zm-235.7-56a5.5,5.5,0,0,0,.9.7v-.7Zm.9.7a21.7,21.7,0,0,0,9,4.1A95.89,95.89,0,0,1,149.6,369.1ZM316.7,197.3c.1.2.2.5.3.7l.3.3C317.1,198,316.9,197.6,316.7,197.3ZM360.8,412a157.3,157.3,0,0,1,23.5,12.3A148.49,148.49,0,0,0,360.8,412Zm23.6,12.4a8.79,8.79,0,0,0,1,.6c.2.2.5.3.7.5C385.5,425.1,384.9,424.8,384.4,424.4Zm-235.7-56a5.5,5.5,0,0,0,.9.7v-.7Zm.9.7a21.7,21.7,0,0,0,9,4.1A95.89,95.89,0,0,1,149.6,369.1ZM316.7,197.3c.1.2.2.5.3.7l.3.3C317.1,198,316.9,197.6,316.7,197.3ZM360.8,412a157.3,157.3,0,0,1,23.5,12.3A148.49,148.49,0,0,0,360.8,412Zm23.6,12.4a8.79,8.79,0,0,0,1,.6c.2.2.5.3.7.5C385.5,425.1,384.9,424.8,384.4,424.4ZM257.6,0C115.3,0,0,115.4,0,257.7A256.81,256.81,0,0,0,81.9,446.1l.2-.2.6-.6.3-.3a4.35,4.35,0,0,1,.7-.6c.1-.1.3-.2.4-.3.4-.3.8-.7,1.3-1.1a8.74,8.74,0,0,1,1-.8c.6-.5,1.2-1,1.9-1.5a17,17,0,0,1,1.4-1c3.8-2.9,8.8-6.3,14.4-9.9.5-.3,1-.7,1.6-1s1.1-.7,1.6-1l1.5-.9c2.1-1.3,4.3-2.6,6.5-3.9.7-.4,1.4-.8,2.2-1.3s1.6-.9,2.3-1.3c1.6-.9,3.2-1.8,4.8-2.6s3.2-1.7,4.8-2.5,3.2-1.6,4.7-2.3c.8-.4,1.6-.7,2.3-1.1s1.6-.7,2.3-1.1,1.5-.7,2.3-1,1.6-.7,2.4-1,1.5-.6,2.2-.9a19.45,19.45,0,0,1,2.2-.8c.4-.2.8-.3,1.2-.5s1.1-.4,1.6-.6a8.8,8.8,0,0,1,1.5-.5c.9-.3,1.7-.6,2.6-.9a9.83,9.83,0,0,1,1.6-.5c.9-.3,1.9-.6,2.8-.9s1.7-.5,2.5-.8c2.8-.9,5.7-1.7,8.5-2.4.9-.2,1.8-.5,2.7-.7,1.8-.5,3.6-.9,5.3-1.3l1-.2c14.8-3.3,28.6-5.1,41-6.7.2,0,.4-.1.7-.1-1.2-.1-2.3-.3-3.5-.4a5.26,5.26,0,0,1-2.8-1.8,16.07,16.07,0,0,1-1.9-3.1c-.5-1.1-.9-2.1-1.3-2.9v-.1c-.1.1-.3.2-.4.3-.9.6-2.2,1.3-3.5,2a38.62,38.62,0,0,1-4.1,2,8.24,8.24,0,0,1-1.9.6,5,5,0,0,1-1.7.1,3.29,3.29,0,0,1-1.3-.7,11,11,0,0,1-1-1.1c-.6-.9-1.2-1.9-1.8-2.9s-1-2-1.3-2.8c0-.1-.1-.1-.1-.2-.1.1-.2.1-.3.2-.8.5-2,1.1-3.2,1.7a19.31,19.31,0,0,1-4,1.5,7.14,7.14,0,0,1-3.8.3,3.26,3.26,0,0,1-2-1.8,18.61,18.61,0,0,1-1-2.5c-.3-.8-.5-1.5-.8-2.1a5.74,5.74,0,0,1-.4-.7,4.88,4.88,0,0,1-.7.3c-.7.3-1.6.8-2.7,1.2a17.26,17.26,0,0,1-3.2,1.1l-1.5.3a6.15,6.15,0,0,1-1.4-.1q-6-2.1-11.1-4.2a23.68,23.68,0,0,1-9.4-4.3.76.76,0,0,0-.4-.2l-.6-.3v-.3c-.2-.1-.3-.3-.5-.4l-.3-.3V369c-4.3-33-5.1-96.1,10.1-151,7.6-27.5,19.2-53,36.4-71.6s40-30.4,69.9-30.4a69.47,69.47,0,0,1,19.6,3.9c7.7,2.7,15.9,7,22.3,13.8,16.5-1.4,51.4,12.1,67.1,75.1,2.3,11,3.6,41.4,2.5,73.8-1.1,32.1-4.6,66.4-12.1,86-.1.4-.1.8-.2,1.2l-.1.6-.5.2a4.68,4.68,0,0,1-1.7.2,11.63,11.63,0,0,1-1.8-.4,21,21,0,0,1-3.7-1.8c-1.2-.7-2.4-1.4-3.2-1.9-.2.9-.4,2.2-.7,3.4a20.05,20.05,0,0,1-1.2,3.7,5.3,5.3,0,0,1-.8,1.5,2.68,2.68,0,0,1-1.3,1,4.08,4.08,0,0,1-1.9.1,19.45,19.45,0,0,1-2-.5,27.43,27.43,0,0,1-4.2-2.1,32.7,32.7,0,0,1-3.6-2.3c-.1-.1-.2-.2-.3-.2a.37.37,0,0,1-.1.3c-.3,1-.7,2.4-1.2,3.8a25.4,25.4,0,0,1-1.8,4.1,6.45,6.45,0,0,1-1.1,1.6,4,4,0,0,1-1.5,1,3.1,3.1,0,0,1-1.9-.1,15.39,15.39,0,0,1-1.9-.8,24.76,24.76,0,0,1-3.9-2.7c-1.3-1-2.4-2.1-3.3-2.8-.2-.1-.3-.3-.4-.4a5.94,5.94,0,0,0-.4.8c-.7,1.2-1.6,2.7-2.7,4.3a32.28,32.28,0,0,1-3.6,4.5,8.4,8.4,0,0,1-4,2.7,9.35,9.35,0,0,1-4.6-.5,28.64,28.64,0,0,1-4.8-2c-1.5-.8-2.9-1.5-3.9-2.1a9.22,9.22,0,0,0-.8-.5,4.23,4.23,0,0,0-.5.7c-.7.8-1.6,2-2.7,3.1a35.49,35.49,0,0,1-3.4,3.3,13.45,13.45,0,0,1-2.2,1.4h.4c2,.3,4.9.8,8.5,1.4,7.2,1.3,17.2,3.2,28.3,6,1.3.3,2.6.6,3.9,1l.9.2a216,216,0,0,1,34.6,11.5,5,5,0,0,0,1.3.5A163.28,163.28,0,0,1,386,424c1,.7,2,1.4,2.9,2.1s1.9,1.4,2.9,2.2c4.5,3.4,9.5,7.1,14.1,10.5.6.5,1.3.9,1.9,1.4,1.5,1.1,3,2.2,4.4,3.3a2.09,2.09,0,0,0,.6.4c1.8,1.3,3.5,2.6,5,3.7s2.8,2.1,4,2.9l3.5,2.6.2.2a257.12,257.12,0,0,0,90.1-195.7C515.3,115.4,399.9,0,257.6,0ZM420.2,452.2l-.9-.6a3.49,3.49,0,0,1,.9.6l2.5,1.9ZM362,413.7a154.35,154.35,0,0,1,22.7,12.2c.5.4,1.1.7,1.6,1.1A124.91,124.91,0,0,0,362,413.7ZM356.5,494c-.3.1-.6.3-.9.4s-.6.3-.9.4c-2.4,1-4.9,2-7.3,2.9s-4.9,1.8-7.3,2.6c-1.2.4-2.4.8-3.7,1.2s-2.4.8-3.7,1.2c-2.4.7-4.9,1.5-7.3,2.1a4.33,4.33,0,0,0-.5.1c-.2,0-.3.1-.5.1-.5.1-1,.3-1.5.4.9-.2,1.7-.5,2.6-.7.1,0,.2,0,.2-.1h.1a183.44,183.44,0,0,0,28.9-9.9c.3-.1.6-.3.9-.4l.9-.3c2.5-1,4.9-2.1,7.3-3.2C361.4,491.9,359,492.9,356.5,494Zm-27.3-91.7h0a294.24,294.24,0,0,1,31.2,10.6A204.05,204.05,0,0,0,329.2,402.3ZM223.7,510.9l-2-.3-4-.6-2.1-.3c-1.3-.2-2.6-.5-4-.7-3-.6-5.9-1.2-8.8-1.8-1-.2-1.9-.4-2.9-.7-.3-.1-.5-.1-.8-.2-1-.2-2-.5-3-.7-2.1-.5-4.2-1.1-6.3-1.7l-3.1-.9a14.16,14.16,0,0,1-2.2-.7,14.16,14.16,0,0,1-2.2-.7c-1.1-.4-2.3-.7-3.4-1.1a10.93,10.93,0,0,0-1.7-.5,10.93,10.93,0,0,0-1.7-.5,15.87,15.87,0,0,1-2-.7c-.1,0-.3-.1-.4-.1-1.2-.4-2.4-.8-3.6-1.3-.7-.2-1.3-.5-2-.7-1.1-.4-2.2-.8-3.2-1.2-1.7-.7-3.4-1.3-5.1-2-.8-.3-1.7-.7-2.5-1a248,248,0,0,0,74.7,19.4h.5C229.2,511.6,226.4,511.2,223.7,510.9Zm129.8-14.6c.5-.2.9-.4,1.4-.6.1,0,.1-.1.2-.1A7.74,7.74,0,0,1,353.5,496.3Zm30.9-71.9a8.79,8.79,0,0,0,1,.6c.2.2.5.3.7.5C385.5,425.1,384.9,424.8,384.4,424.4ZM360.8,412a157.3,157.3,0,0,1,23.5,12.3A148.49,148.49,0,0,0,360.8,412ZM316.7,197.3c.1.2.2.5.3.7l.3.3C317.1,198,316.9,197.6,316.7,197.3ZM149.6,369.1a21.7,21.7,0,0,0,9,4.1A95.89,95.89,0,0,1,149.6,369.1Zm-.9-.7a5.5,5.5,0,0,0,.9.7v-.7Zm235.7,56a8.79,8.79,0,0,0,1,.6c.2.2.5.3.7.5C385.5,425.1,384.9,424.8,384.4,424.4ZM360.8,412a157.3,157.3,0,0,1,23.5,12.3A148.49,148.49,0,0,0,360.8,412ZM316.7,197.3c.1.2.2.5.3.7l.3.3C317.1,198,316.9,197.6,316.7,197.3ZM149.6,369.1a21.7,21.7,0,0,0,9,4.1A95.89,95.89,0,0,1,149.6,369.1Zm-.9-.7a5.5,5.5,0,0,0,.9.7v-.7Zm235.7,56a8.79,8.79,0,0,0,1,.6c.2.2.5.3.7.5C385.5,425.1,384.9,424.8,384.4,424.4ZM360.8,412a157.3,157.3,0,0,1,23.5,12.3A148.49,148.49,0,0,0,360.8,412ZM316.7,197.3c.1.2.2.5.3.7l.3.3C317.1,198,316.9,197.6,316.7,197.3ZM149.6,369.1a21.7,21.7,0,0,0,9,4.1A95.89,95.89,0,0,1,149.6,369.1Zm-.9-.7a5.5,5.5,0,0,0,.9.7v-.7Zm0,0a5.5,5.5,0,0,0,.9.7v-.7Zm.9.7a21.7,21.7,0,0,0,9,4.1A95.89,95.89,0,0,1,149.6,369.1ZM316.7,197.3c.1.2.2.5.3.7l.3.3C317.1,198,316.9,197.6,316.7,197.3Zm0,0c.1.2.2.5.3.7l.3.3C317.1,198,316.9,197.6,316.7,197.3ZM149.6,369.1a21.7,21.7,0,0,0,9,4.1A95.89,95.89,0,0,1,149.6,369.1Zm-.9-.7a5.5,5.5,0,0,0,.9.7v-.7Zm0,0a5.5,5.5,0,0,0,.9.7v-.7Zm.9.7a21.7,21.7,0,0,0,9,4.1A95.89,95.89,0,0,1,149.6,369.1ZM316.7,197.3c.1.2.2.5.3.7l.3.3C317.1,198,316.9,197.6,316.7,197.3ZM149.6,369.1a21.7,21.7,0,0,0,9,4.1A95.89,95.89,0,0,1,149.6,369.1Zm-.9-.7a5.5,5.5,0,0,0,.9.7v-.7Zm168-171.1c.1.2.2.5.3.7l.3.3C317.1,198,316.9,197.6,316.7,197.3Z" fill="#f2f2f2"/><path d="M334.9,263.7c-.8.5-1.7,1-2.6,1.6.1-1.2.1-2.3.1-3.6a8.74,8.74,0,0,0,1,.8l.2.2a1.38,1.38,0,0,1,.4.3A2.18,2.18,0,0,1,334.9,263.7Z"/><path d="M232.8,374.3a47.24,47.24,0,0,1-1.4,10c-.8,2.7-1.9,4.6-3.3,5.5-3.6-.3-7.1-.7-10.6-1.2-.4,0-.9-.4-1.5-1.1a13.9,13.9,0,0,1-1.7-2.7c-.5-1-.9-2-1.2-2.7a9.2,9.2,0,0,1-.3-.9.1.1,0,0,0-.1-.1v-.2l-.4-1.3-1.1.7h-.1l-.1.1a.35.35,0,0,1-.2.1c-.3.2-.6.4-1.1.7-.9.5-2.1,1.3-3.4,2a26.69,26.69,0,0,1-3.9,1.8,14.24,14.24,0,0,1-1.6.5,2,2,0,0,1-.7.1h-.2s-.1,0-.3-.2-.4-.5-.7-.8a21.42,21.42,0,0,1-1.6-2.7c-.5-1-1-1.9-1.3-2.7-.2-.4-.3-.7-.4-.9s-.1-.1-.1-.2v-.2l-.5-1.1-1,.7h-.1c-.1,0-.2.1-.3.2a6.78,6.78,0,0,0-.9.6,22,22,0,0,1-3.1,1.6,20.45,20.45,0,0,1-3.6,1.4,7.26,7.26,0,0,1-2.7.3,2,2,0,0,1-.8-.8,10.23,10.23,0,0,1-.8-2.1l-.1-.1a15.71,15.71,0,0,0-.9-2.3,3.72,3.72,0,0,0-1.9-1.8l-.4-.1-.4.2h-.1c-.1,0-.1.1-.2.1a5.9,5.9,0,0,0-.8.4c-.7.3-1.6.8-2.6,1.2a20,20,0,0,1-2.9,1,5.16,5.16,0,0,1-1.1.2h-.6c-1.9-.7-3.8-1.3-5.6-2a4.13,4.13,0,0,0,1.1-.7,17.14,17.14,0,0,0,2.5-2.2,16.22,16.22,0,0,0,1.9-2.2c0-.1.1-.1.1-.2l.1.1a27.7,27.7,0,0,0,2.3,1.7,16.41,16.41,0,0,0,2.9,1.6,5,5,0,0,0,2.9.5,2.85,2.85,0,0,0,1.4-.8,4.73,4.73,0,0,0,1.1-1.3,16.54,16.54,0,0,0,1.8-3.2c.5-1.1.9-2.2,1.2-3,.7.5,1.6,1.1,2.6,1.8s2.1,1.2,3.1,1.7a8.8,8.8,0,0,0,1.5.5,2.57,2.57,0,0,0,1.5-.1,2.85,2.85,0,0,0,1.3-1.1,4.71,4.71,0,0,0,.6-1.5,22,22,0,0,0,.5-3.7c.1-1.3,0-2.5,0-3.4v-.2c.2,0,.4.1.6.1l4.3.8a64.82,64.82,0,0,0,8.8,1.1h1.4l-.4-1.3c-1.5-4.6-4.2-9.2-7.5-14.1-1.8-2.7-3.9-5.5-6-8.5-1.7-2.4-3.5-4.8-5.3-7.4-8.1-11.6-16.7-25.7-21.7-44.5a24.81,24.81,0,0,0-1.3-3.5,28,28,0,0,0,6.8,1.9c1.8,12,9.7,31.2,22.8,47.6,9.2,11.6,21.1,21.8,35.2,27.1A107.33,107.33,0,0,1,232.8,374.3Z" fill="#9b3c82"/><path d="M360.4,368.8a12.08,12.08,0,0,1-1.4-.3,34,34,0,0,1-3.4-1.6,35.39,35.39,0,0,1-3.1-1.9,3.74,3.74,0,0,0-1-.6c-.1-.1-.2-.1-.3-.2h-.1l-1.4-1-.2,1.7v.4a6.53,6.53,0,0,1-.2,1.1c-.1.9-.4,2.1-.6,3.3a23.15,23.15,0,0,1-1,3.4,5.42,5.42,0,0,1-.6,1.1,1.4,1.4,0,0,1-.4.4q-.15.15-.9,0a7.07,7.07,0,0,1-1.6-.5c-1.2-.5-2.6-1.2-3.9-1.9s-2.6-1.6-3.5-2.2a9,9,0,0,0-1.1-.7c-.1-.1-.2-.2-.3-.2l-.1-.1-1.2-.9-.3,1.5v.1c0,.1-.1.2-.1.3a10.38,10.38,0,0,0-.3,1.2c-.3,1-.7,2.3-1.1,3.7a21.59,21.59,0,0,1-1.6,3.7,6.23,6.23,0,0,1-.9,1.2,7.37,7.37,0,0,1-.6.5,3.22,3.22,0,0,1-.8-.1,7.72,7.72,0,0,1-1.5-.6,23.57,23.57,0,0,1-3.6-2.5c-1.2-1-2.3-2-3.2-2.8a7.3,7.3,0,0,0-1-.9l-.3-.3-.1-.1-1-1-.6,1.2-.1.1c-.1.1-.1.2-.2.4s-.4.8-.8,1.4c-.7,1.1-1.6,2.7-2.6,4.2a29.26,29.26,0,0,1-3.4,4.3,6.93,6.93,0,0,1-2.9,2.1,7.3,7.3,0,0,1-3.6-.5,25.29,25.29,0,0,1-4.5-1.9c-1.5-.7-2.8-1.5-3.8-2a7.17,7.17,0,0,1-1.1-.7c-.1-.1-.3-.1-.3-.2h-.1l-.8-.5-.5.8-.1.1c0,.1-.1.2-.2.3s-.4.6-.8,1c-.7.8-1.6,1.9-2.6,3a22.37,22.37,0,0,1-3.2,3,6,6,0,0,1-2.6,1.4c-1.3.1-2.5.3-3.7.4a3,3,0,0,1-.9-1.3c-1.6-6.1-1.8-14.2-1.4-22.1.1-2.8.4-5.6.6-8.3a81.26,81.26,0,0,0,29.4-20.6c12.5-13.5,19.9-29.2,21.3-38.9,4.8-.4,10.6-1.7,15.4-5.3a20.16,20.16,0,0,0,4.6-5c.7,2.2,1.4,4.5,2,6.9,2.8,10,2,20.5.5,28.6a80,80,0,0,1-2.5,9.8c-.4,1.2-.7,2.2-.9,2.8a2.39,2.39,0,0,1-.3.7c0,.1-.1.1-.1.2l-1.3,3.1,2.8-1.9a20,20,0,0,0,8.7-11.3c2.1,5.1,2.7,11.2,2.9,17.8.1,3,0,6.2,0,9.4v2.4C360.2,360.7,360.2,364.7,360.4,368.8Z" fill="#9b3c82"/><path d="M292.7,434.3a38.77,38.77,0,0,1-12.4,16.6c-5.7,4.2-13,6.8-22.6,6.8-19.1,0-32-10.4-40.5-23.6-8.3-12.9-12.2-28.2-13.3-38.8,5.6-.8,11.1-1.5,16.3-2.2,1.4-.2,3.2-.5,4.6-.7.7-.1,1.3-.2,1.7-.3a4.33,4.33,0,0,0,.5-.1h.2l.9-.2h.1l.4-.1.1-.1a5.5,5.5,0,0,0,.9-.7l.9-.9a15.85,15.85,0,0,0,2.6-5.2,46.56,46.56,0,0,0,1.5-10.5,114.9,114.9,0,0,0-.4-14.5,57.39,57.39,0,0,0,18.2,3,68.09,68.09,0,0,0,23-4c-.2,2.4-.4,4.9-.5,7.4-.4,8-.2,16.4,1.5,22.7a3,3,0,0,0,.4,1,3.11,3.11,0,0,0,.7.9,2.73,2.73,0,0,0,1.2.9,4.28,4.28,0,0,0,1.6.5l1.3.2h.7c.5.1,1.3.2,2.3.3,2,.3,4.9.8,8.5,1.4,1.3.2,2.6.5,4.1.7C298.6,405.7,298.2,421.3,292.7,434.3Z" fill="#fec2a9"/><path d="M335.7,264.4c-.3-.2-.5-.5-.8-.7-.8.5-1.7,1-2.6,1.6.1-1.2.1-2.3.1-3.6-.3-.3-.7-.6-1-.9-3.4-3.1-6.8-7.7-10.1-13.1A187,187,0,0,1,310,225.3a275.12,275.12,0,0,1-13.7-39.8c-2.5,6.1-8.3,14.7-18.5,23.8-12.4,11.1-31.3,23.1-59.2,32.9-17.4,6.1-29.3,11.3-37.4,15.9-6,3.4-9.9,6.4-12.3,9a12.09,12.09,0,0,1,7.8,8.9.91.91,0,0,1-.6,1.1,1,1,0,0,1-1.2-.3,4,4,0,0,0-4.2-1.4,1,1,0,1,1-.5-1.9,5.88,5.88,0,0,1,3.5.1,10.37,10.37,0,0,0-5.5-4.6,1,1,0,0,1-.5-.4,8.34,8.34,0,0,0-.8,1.2,9.52,9.52,0,0,0-1.1,8.5c.2.5.3,1,.5,1.5a33.89,33.89,0,0,0,8.9,2.7,1.06,1.06,0,0,1,.9.9c1.5,11.5,9.3,30.9,22.5,47.4,8.9,11.2,20.1,20.9,33.4,26.1.3.1.7.3,1,.4s.7.3,1,.4a56,56,0,0,0,18.4,3.2,67.46,67.46,0,0,0,23.3-4.2c.4-.1.7-.3,1.1-.4s.7-.3,1.1-.4a79.11,79.11,0,0,0,27.7-19.8c12.7-13.6,19.8-29.5,20.9-38.6,0-.5.4-.8.9-.9,4.8-.3,10.6-1.5,15.1-5a18.24,18.24,0,0,0,5-5.9C344.2,275.9,340.3,268.8,335.7,264.4Zm-79.5,35.9c4.8-1.3,7.1-2.8,8-4.4s.6-3.5-.6-6a20.8,20.8,0,0,1-1.5-6.2c-.3-2.5-.5-5.4-.6-8.2a.65.65,0,1,1,1.3-.1c.1,2.7.3,5.5.6,8a24.07,24.07,0,0,0,1.3,5.8c1.2,2.6,1.8,5.1.6,7.2s-4,3.7-8.8,5a.66.66,0,0,1-.8-.5A.49.49,0,0,1,256.2,300.3Zm-31.1-56.6a.82.82,0,0,1,.1-1.2,18.89,18.89,0,0,1,9.8-3.8,31.75,31.75,0,0,1,8.4.2.86.86,0,1,1-.3,1.7,27.8,27.8,0,0,0-7.9-.2,17.67,17.67,0,0,0-8.9,3.4A.91.91,0,0,1,225.1,243.7Zm14.1,17.1c-.9,4-3.4,6.9-5.7,6.4s-3.5-4.2-2.6-8.2,3.4-6.9,5.7-6.4S240.1,256.8,239.2,260.8Zm27.7,60.1a14.91,14.91,0,0,1-10.3,2.8,20.27,20.27,0,0,1-9.8-4.1c-2.5-2-4.3-4.4-4.6-6.8l-.3-2.7,2,1.9c2.6,2.5,7.4,4.4,12.6,4.8s10.8-.5,15-3.5l1.4,1.4A20.33,20.33,0,0,1,266.9,320.9Zm20.5-49.5c-2.3,0-4.3-3.3-4.4-7.4s1.7-7.5,4.1-7.6,4.3,3.3,4.4,7.4S289.7,271.3,287.4,271.4Zm13.8-21a.82.82,0,0,1-1.2.1,27.07,27.07,0,0,0-6.7-4.1,17,17,0,0,0-9.4-1.5.86.86,0,1,1-.3-1.7,19.25,19.25,0,0,1,10.4,1.6,25.71,25.71,0,0,1,7.1,4.4A.92.92,0,0,1,301.2,250.4Zm35.2,26.8a10.37,10.37,0,0,0-5.5,4.6,5.56,5.56,0,0,1,3.4-.1,1,1,0,0,1,.7,1.2,1,1,0,0,1-1.2.7,4,4,0,0,0-4.2,1.4,1,1,0,0,1-1.2.3,1.08,1.08,0,0,1-.6-1.1,12.06,12.06,0,0,1,8-8.9,1,1,0,0,1,1.2.7A.9.9,0,0,1,336.4,277.2Z" fill="#fec2a9"/><path d="M336.4,277.2a10.37,10.37,0,0,0-5.5,4.6,5.56,5.56,0,0,1,3.4-.1,1,1,0,0,1,.7,1.2,1,1,0,0,1-1.2.7,4,4,0,0,0-4.2,1.4,1,1,0,0,1-1.2.3,1.08,1.08,0,0,1-.6-1.1,12.06,12.06,0,0,1,8-8.9,1,1,0,0,1,1.2.7A.9.9,0,0,1,336.4,277.2Z" fill-rule="evenodd"/><path d="M370.3,209.2c-15.7-63.1-50.5-75.1-65.5-73.6l-.5.1-.3-.4c-6.1-6.7-14.2-11-21.8-13.7a65.37,65.37,0,0,0-19-3.8c-29.3,0-51.6,11.5-68.4,29.8s-28.4,43.5-36,70.8a332.32,332.32,0,0,0-9.3,47.3c-.1,1-.3,2.1-.4,3.2-.4,3-.7,6-1,9a19.42,19.42,0,0,0-.2,2.4c-2.9,31.2-2.2,60.5,0,81.2.2,2.1.4,4.1.7,6,0,.2.1.5.1.7h.9v.7h.1c2.7,1.3,5.7,2.7,9,4.1a27.61,27.61,0,0,0,4,.6,2.73,2.73,0,0,0,1.6-.7,18.62,18.62,0,0,0,2.2-1.9,26.82,26.82,0,0,0,1.8-2c.2-.3.4-.5.5-.7s.1-.2.2-.2l.6-.9.8.7h.1l.2.2c.2.1.4.3.7.5a25.65,25.65,0,0,0,2.2,1.6,16.54,16.54,0,0,0,2.5,1.5,2.63,2.63,0,0,0,1.7.4.91.91,0,0,0,.5-.3,8.18,8.18,0,0,0,.8-.9,25.17,25.17,0,0,0,1.6-2.9,30.21,30.21,0,0,0,1.2-2.9,9.2,9.2,0,0,0,.3-.9c0-.1.1-.2.1-.3v-.1l.4-1.4,1.1.9c.1,0,.1.1.2.2a8,8,0,0,1,.8.6c.7.5,1.5,1.1,2.5,1.7a15.48,15.48,0,0,0,2.8,1.5,2.61,2.61,0,0,0,1.1.3c.3.1.4,0,.4,0l.3-.3a5.13,5.13,0,0,0,.4-1,15.68,15.68,0,0,0,.4-3.3c.1-1.2,0-2.4,0-3.3v-1.5l-.1-1.3,1.3.3h.1a.76.76,0,0,1,.4.1,13,13,0,0,0,1.3.3l4.3.8c2.5.4,5.2.8,7.1,1a58.31,58.31,0,0,0-6.8-12.2c-1.8-2.7-3.8-5.5-5.9-8.4-1.7-2.4-3.5-4.8-5.3-7.5-8.2-11.7-16.9-26-22-45.1a19.63,19.63,0,0,0-1.4-3.5v-.1c-.2-.5-.5-1.1-.7-1.6a7.84,7.84,0,0,1-.5-1.4c-.1-.3-.2-.7-.3-1,0-.1-.1-.3-.1-.4a11.66,11.66,0,0,1,1.4-9.7c2.3-3.7,6.8-7.8,15.1-12.4s20.3-9.9,37.7-16c27.7-9.7,46.4-21.6,58.5-32.5s17.7-20.7,19.1-26.3h1.9c2,9.8,7.5,26.9,14.4,42.9a183.68,183.68,0,0,0,11.2,22.2,61.38,61.38,0,0,0,8.4,11.3,9.43,9.43,0,0,0,1,1c.3.3.7.6,1,.9a12.67,12.67,0,0,0,1.3,1.1l1.2.9c.3.2.5.5.8.7a6,6,0,0,1,.8.8c4.4,4.4,8,11,11.1,19.5.2.5.3.9.5,1.4a7.84,7.84,0,0,0,.5,1.4c.9,2.7,1.8,5.6,2.6,8.7,3,10.4,2.1,21.3.5,29.5-.8,4.1-1.8,7.6-2.5,10.1a1.85,1.85,0,0,0-.2.7,18.57,18.57,0,0,0,2.7-2.9,25.46,25.46,0,0,0,3.4-7.7l.7-2.3,1.1,2.1c3.2,6,4,13.3,4.2,20.9.1,3.1,0,6.3,0,9.5v9.2c0-.1,0-.1.1-.2.6-1.9,1.2-3.9,1.7-6,5.2-19.8,7.8-48,8.7-74.9C373.8,250.1,372.5,220,370.3,209.2Zm-4.8,100.9c0-1.5-.1-3.3-.3-5.5a152.43,152.43,0,0,0-4.7-26c-3.6-12.9-9.4-25.9-17.9-32.8-3.7-3-7.7-8.4-11.7-15.2a7.46,7.46,0,0,0-.7-1.2c-.6-1-1.2-2.1-1.8-3.1-.7-1.3-1.4-2.5-2.1-3.9-2.5-4.9-5.1-10.1-7.5-15.6-1.6-3.5-3.2-7.2-4.7-10.8-.4-1-.8-2-1.3-3a.37.37,0,0,1-.1-.3l-1.2-3-.3-.9a28.8,28.8,0,0,0-1.3-3.1c-3.7-9.4-7-18.3-9.4-25.3a93.62,93.62,0,0,1-8.2,10.2l-.1.1-.6.6c-.2.3-.5.5-.7.8-.6.6-1.2,1.3-1.8,1.9-1.1,1.1-2.3,2.3-3.4,3.5-2,1.9-4,3.9-6.1,5.8-10.1,9.3-22,18.7-31.9,24.4s-23.6,10.3-36.9,14.8l-7.8,2.7c-.8.3-1.7.6-2.5.9l-5.1,1.8c-2.1.8-4.2,1.6-6.2,2.4a105,105,0,0,0-10.6,4.8,45.25,45.25,0,0,0-4.9,2.9c-.4.2-.7.5-1.1.7l-1.1.8a18.62,18.62,0,0,0-5.4,6c-.4.7-.7,1.4-1.1,2.2s-.6,1.4-.9,2.2c-.1.2-.1.3-.2.5a10.37,10.37,0,0,0-.4,1c-.1.2-.1.4-.2.6s-.1.2-.1.4a63.82,63.82,0,0,0-2.9,23.8c0,.4.1.9.1,1.4a5.7,5.7,0,0,1,.1,1.3c1.1,10.6,4.6,22.5,11.2,35,11.9,22.6,19,32.9,21,35.1l-1.5,1.3c-2.2-2.4-9.5-12.9-21.3-35.5-7.1-13.5-10.7-26.2-11.5-37.6,0-.5-.1-1-.1-1.4s-.1-1-.1-1.5a62.88,62.88,0,0,1,2.1-19.3c.2-.7.4-1.4.6-2,0-.2.1-.3.1-.5a4.87,4.87,0,0,1,.4-1.1c.1-.2.1-.3.2-.5s.1-.3.2-.5c.8-2,1.6-3.9,2.5-5.7,1.5-2.9,4.1-5.4,7.5-7.8l1.1-.8c.4-.2.7-.5,1.1-.7,1.1-.7,2.4-1.4,3.6-2,6.2-3.3,13.9-6.2,22.1-9.1.8-.3,1.7-.6,2.5-.9,2.6-.9,5.3-1.8,7.9-2.7,1.7-.6,3.5-1.2,5.2-1.8l6.9-2.4c9.1-3.2,17.6-6.6,24.4-10.5,9.1-5.2,19.9-13.6,29.6-22.3.7-.6,1.4-1.2,2-1.8.8-.7,1.6-1.5,2.3-2.2,1.3-1.3,2.6-2.5,3.9-3.8,1.6-1.6,3.2-3.2,4.7-4.8.2-.3.5-.5.7-.8s.5-.5.7-.8c4.3-4.7,7.7-8.9,9.4-12a1.23,1.23,0,0,1,1-.5,1.07,1.07,0,0,1,.9.7c3,8.8,7.5,21.2,12.8,33.9.5,1.1.9,2.2,1.3,3.2l.9,2.1c.2.4.4.7.6,1.1l-.3-.3c.4.9.8,1.8,1.1,2.6.8,1.9,1.6,3.8,2.5,5.6,1.6,3.5,3.2,7,4.8,10.3l2.7,5.4c1.5,2.8,2.9,5.4,4.4,7.9,4,6.8,7.8,12,11.2,14.7,9.1,7.3,15,20.8,18.6,33.8,1,3.7,1.9,7.3,2.6,10.8.5,2.4.9,4.6,1.2,6.8.5,3.2.8,6.2,1.1,8.8.2,2.2.3,4.1.3,5.6h-2.1v.1Z" fill="#b8188e" fill-rule="evenodd"/><path d="M271.5,313.5c-4.2,2.9-9.7,3.9-15,3.5s-10-2.3-12.6-4.8l-2-1.9.3,2.7c.2,2.3,2.1,4.8,4.6,6.8a20.69,20.69,0,0,0,9.8,4.1,15.06,15.06,0,0,0,10.3-2.8A23.34,23.34,0,0,0,273,315Zm-5.8,5.8a13.14,13.14,0,0,1-8.9,2.5,18,18,0,0,1-8.8-3.7,16.28,16.28,0,0,1-2.3-2.2,29.18,29.18,0,0,0,10.6,3.1,27.09,27.09,0,0,0,11.6-1.4C267.3,318.1,266.5,318.7,265.7,319.3Z"/><path d="M267.9,317.5a18.39,18.39,0,0,1-2.2,1.7,13.14,13.14,0,0,1-8.9,2.5A18,18,0,0,1,248,318a16.28,16.28,0,0,1-2.3-2.2,29.18,29.18,0,0,0,10.6,3.1A27.09,27.09,0,0,0,267.9,317.5Z" fill="#ae5646" fill-rule="evenodd"/><path d="M291.5,263.8c.1,4.1-1.7,7.5-4.1,7.6s-4.3-3.3-4.4-7.4,1.7-7.5,4.1-7.6S291.4,259.7,291.5,263.8Z"/><path d="M239.2,260.8c-.9,4-3.4,6.9-5.7,6.4s-3.5-4.2-2.6-8.2,3.4-6.9,5.7-6.4S240.1,256.8,239.2,260.8Z"/><path d="M301.2,250.5a.82.82,0,0,1-1.2.1,27.07,27.07,0,0,0-6.7-4.1,17,17,0,0,0-9.4-1.5.86.86,0,0,1-.3-1.7,19.25,19.25,0,0,1,10.4,1.6,25.71,25.71,0,0,1,7.1,4.4A.91.91,0,0,1,301.2,250.5Z" fill-rule="evenodd"/><path d="M265.4,296.5c-1.2,2.1-4,3.7-8.8,5a.66.66,0,0,1-.8-.5.62.62,0,0,1,.5-.8c4.8-1.3,7.1-2.8,8-4.4s.6-3.5-.6-6a20.8,20.8,0,0,1-1.5-6.2c-.3-2.5-.5-5.4-.6-8.2a.65.65,0,1,1,1.3-.1c.1,2.7.3,5.5.6,8a24.07,24.07,0,0,0,1.3,5.8C266,291.9,266.6,294.4,265.4,296.5Z" fill-rule="evenodd"/><path d="M244,239.9a.82.82,0,0,1-1,.7,27.8,27.8,0,0,0-7.9-.2,17.67,17.67,0,0,0-8.9,3.4.85.85,0,1,1-1.1-1.3,18.89,18.89,0,0,1,9.8-3.8,31.75,31.75,0,0,1,8.4.2A.82.82,0,0,1,244,239.9Z" fill-rule="evenodd"/><path d="M167.1,451.8a244.44,244.44,0,0,1-12.2,39.8c-.1,0-.1,0-.1-.1l-2.7-1.2c-.9-.4-1.9-.8-2.8-1.3-.5-.2-1.1-.5-1.6-.7s-1.3-.6-1.9-.9-1.4-.7-2.1-1a18.65,18.65,0,0,1-2-1c-.7-.3-1.3-.6-1.9-.9l-1.8-.9-1.8-.9c-3.8-2-7.5-4-11.1-6.1-1.6-.9-3.2-1.9-4.8-2.9-1-.6-2.1-1.3-3.1-1.9a23.92,23.92,0,0,0-2.1-1.3l-2.7-1.8c-.7-.5-1.5-1-2.2-1.5s-1.5-1-2.2-1.5l-2.1-1.5a.1.1,0,0,1-.1-.1l-2.1-1.5c-.7-.5-1.4-1-2.1-1.6s-1.3-.9-1.9-1.4c-2-1.5-4-3.1-5.8-4.6-.7-.5-1.3-1.1-2-1.6s-1.4-1.1-2-1.7l-2-1.7c-.7-.6-1.3-1.2-1.9-1.7s-1.3-1.2-1.9-1.7a72.55,72.55,0,0,1,6.8-5.5c3.8-2.8,8.8-6.2,14.3-9.8,11.1-7.1,24.7-14.8,36.7-19.8.9-.4,1.8-.7,2.7-1.1s1.8-.7,2.7-1.1c2.7-1,5.3-2,8-2.9l1-.3c.8-.3,1.5-.5,2.3-.8s1.3-.4,2-.6c.9-.3,1.7-.5,2.6-.8s1.7-.5,2.6-.8a25,25,0,0,1,2.6-.7,19.45,19.45,0,0,1,2-.5C172.7,417.2,170.7,435.3,167.1,451.8Z" fill="#fd5e67"/><path d="M422.8,454c-1.5,1.2-3.1,2.5-4.7,3.7l-1.3,1c-.7.6-1.5,1.1-2.2,1.7s-1.5,1.1-2.2,1.6-1.6,1.2-2.4,1.7l-5.1,3.6c-.9.6-1.7,1.2-2.6,1.7-1.7,1.2-3.4,2.3-5.1,3.4-.6.4-1.3.8-1.9,1.2s-1.3.8-1.9,1.2c-1.1.7-2.1,1.3-3.2,2-.5.3-1.1.7-1.6,1a14,14,0,0,0-1.6,1c-1.7,1-3.4,2-5.1,2.9-2.3,1.3-4.6,2.5-6.9,3.7-.8.4-1.5.8-2.3,1.2l-3.6,1.8c-1.7.8-3.4,1.6-5.2,2.4-2.4,1.1-4.9,2.2-7.3,3.2-2.8-4-5.6-10.1-8.3-17.4-2.8-7.7-5.6-16.7-8.1-25.9-4.8-17.7-8.7-36.2-11-48.2A272.46,272.46,0,0,1,360.4,413c.5.2,1.1.5,1.6.7a154.35,154.35,0,0,1,22.7,12.2c.5.4,1.1.7,1.6,1.1a10.47,10.47,0,0,1,1.1.8c1.4,1.1,2.9,2.1,4.4,3.3,1,.7,2,1.5,3,2.3,1.5,1.1,3.1,2.3,4.6,3.5,1,.8,2.1,1.5,3.1,2.3,3.1,2.3,6,4.5,8.7,6.5,2.3,1.7,4.3,3.2,6.1,4.5a8.74,8.74,0,0,1,1,.8,3.59,3.59,0,0,0,1,.7,5.5,5.5,0,0,1,.9.7Z" fill="#fd5e67"/><path d="M354.7,494.7c-2.4,1-4.9,2-7.3,2.9s-4.9,1.8-7.3,2.6c-1.2.4-2.4.8-3.7,1.2s-2.4.8-3.7,1.2c-2.4.7-4.9,1.5-7.3,2.1a4.33,4.33,0,0,0-.5.1c-.2,0-.3.1-.5.1a271,271,0,0,1-92.2,6.9H232c-2.8-.3-5.5-.7-8.3-1l-2-.3-4-.6-2.1-.3c-1.3-.2-2.6-.5-4-.7-3-.6-5.9-1.2-8.8-1.8-1-.2-1.9-.4-2.9-.7-.3-.1-.5-.1-.8-.2-1-.2-2-.5-3-.7-2.1-.5-4.2-1.1-6.3-1.7l-3.1-.9a14.16,14.16,0,0,1-2.2-.7,14.16,14.16,0,0,1-2.2-.7c-1.1-.4-2.3-.7-3.4-1.1a97884579913326.9,97884579913326.9,0,0,1-3.4-1,15.87,15.87,0,0,1-2-.7c-.1,0-.3-.1-.4-.1-1.2-.4-2.4-.8-3.6-1.3-.7-.2-1.3-.5-2-.7-1.1-.4-2.2-.8-3.2-1.2-1.7-.7-3.4-1.3-5.1-2-.8-.3-1.7-.7-2.5-1A246.55,246.55,0,0,0,169,452.2c3.6-16.6,5.6-35,3-50.5,1.4-.4,3.2-.8,5.4-1.3a3,3,0,0,1,1-.2c.3-.1.6-.1,1-.2,6.1-1.4,14.2-3,22.5-4.3,1.2,10.8,5.2,26.4,13.6,39.5,8.7,13.6,22.2,24.5,42.2,24.5,10,0,17.8-2.7,23.8-7.2s10.2-10.7,13.1-17.5c5.4-13,6-28.5,4.8-39.2l25.7,5.6,1,.2,1,.2h.1c2.2,12,6.2,31.1,11.2,49.3,2.5,9.3,5.3,18.3,8.1,26.1C349.1,484.3,351.9,490.5,354.7,494.7Z" fill="#f7c501"/><path d="M367.5,310.1h-2c0-1.5-.1-3.3-.3-5.5a152.43,152.43,0,0,0-4.7-26c-3.6-12.9-9.4-25.9-17.9-32.8-3.7-3-7.7-8.4-11.7-15.2a7.46,7.46,0,0,0-.7-1.2c-.6-1-1.2-2.1-1.8-3.1-.7-1.3-1.4-2.5-2.1-3.9-2.5-4.9-5.1-10.1-7.5-15.6-1.6-3.5-3.2-7.2-4.7-10.8-.4-1-.8-2-1.3-3a.37.37,0,0,1-.1-.3l-1.2-3-.3-.9a28.8,28.8,0,0,0-1.3-3.1c-3.7-9.4-7-18.3-9.4-25.3a93.62,93.62,0,0,1-8.2,10.2l-.1.1-.6.6c-.2.3-.5.5-.7.8-.6.6-1.2,1.3-1.8,1.9-1.1,1.1-2.3,2.3-3.4,3.5-2,1.9-4,3.9-6.1,5.8-10.1,9.3-22,18.7-31.9,24.4s-23.6,10.3-36.9,14.8l-7.8,2.7c-.8.3-1.7.6-2.5.9l-5.1,1.8c-2.1.8-4.2,1.6-6.2,2.4a105,105,0,0,0-10.6,4.8,45.25,45.25,0,0,0-4.9,2.9c-.4.2-.7.5-1.1.7l-1.1.8a18.62,18.62,0,0,0-5.4,6c-.4.7-.7,1.4-1.1,2.2s-.6,1.4-.9,2.2c-.1.2-.1.3-.2.5a10.37,10.37,0,0,0-.4,1c-.1.2-.1.4-.2.6s-.1.2-.1.4a63.82,63.82,0,0,0-2.9,23.8c0,.4.1.9.1,1.4a5.7,5.7,0,0,1,.1,1.3c1.1,10.6,4.6,22.5,11.2,35,11.9,22.6,19,32.9,21,35.1l-1.5,1.3c-2.2-2.4-9.5-12.9-21.3-35.5-7.1-13.5-10.7-26.2-11.5-37.6,0-.5-.1-1-.1-1.4s-.1-1-.1-1.5a62.88,62.88,0,0,1,2.1-19.3c.2-.7.4-1.4.6-2,0-.2.1-.3.1-.5a4.87,4.87,0,0,1,.4-1.1c.1-.2.1-.3.2-.5s.1-.3.2-.5c.8-2,1.6-3.9,2.5-5.7,1.5-2.9,4.1-5.4,7.5-7.8l1.1-.8c.4-.2.7-.5,1.1-.7,1.1-.7,2.4-1.4,3.6-2,6.2-3.3,13.9-6.2,22.1-9.1.8-.3,1.7-.6,2.5-.9,2.6-.9,5.3-1.8,7.9-2.7,1.7-.6,3.5-1.2,5.2-1.8l6.9-2.4c9.1-3.2,17.6-6.6,24.4-10.5,9.1-5.2,19.9-13.6,29.6-22.3.7-.6,1.4-1.2,2-1.8.8-.7,1.6-1.5,2.3-2.2,1.3-1.3,2.6-2.5,3.9-3.8,1.6-1.6,3.2-3.2,4.7-4.8.2-.3.5-.5.7-.8s.5-.5.7-.8c4.3-4.7,7.7-8.9,9.4-12a1.23,1.23,0,0,1,1-.5,1.07,1.07,0,0,1,.9.7c3,8.8,7.5,21.2,12.8,33.9.5,1.1.9,2.2,1.3,3.2l.9,2.1c.1.2.2.5.3.7.4.9.8,1.8,1.1,2.6.8,1.9,1.6,3.8,2.5,5.6,1.6,3.5,3.2,7,4.8,10.3l2.7,5.4c1.5,2.8,2.9,5.4,4.4,7.9,4,6.8,7.8,12,11.2,14.7,9.1,7.3,15,20.8,18.6,33.8,1,3.7,1.9,7.3,2.6,10.8.5,2.4.9,4.6,1.2,6.8.5,3.2.8,6.2,1.1,8.8C367.4,306.7,367.5,308.6,367.5,310.1Z" fill="#9e0080" fill-rule="evenodd"/><path d="M425.6,453.6l-.4-.3-.2-.2-3.5-2.6c-1.1-.8-2.5-1.8-4-3s-3.2-2.4-5-3.7c-.2-.1-.4-.3-.6-.4-1.4-1-2.9-2.1-4.4-3.3-.6-.5-1.2-.9-1.9-1.4-4.6-3.5-9.6-7.1-14.1-10.5-1-.7-2-1.5-2.9-2.2s-1.9-1.4-2.9-2.1a149.05,149.05,0,0,0-23.3-12.4,5,5,0,0,0-1.3-.5,200.6,200.6,0,0,0-34.6-11.5l-.9-.2c-1.3-.4-2.6-.7-3.9-1-11.1-2.8-21.1-4.7-28.3-6-3.6-.6-6.5-1.1-8.5-1.4h-.4a7.44,7.44,0,0,0,2.2-1.4,21.17,21.17,0,0,0,3.4-3.3c1.1-1.2,2-2.3,2.7-3.1.2-.3.4-.5.5-.7a9.22,9.22,0,0,1,.8.5A43.62,43.62,0,0,0,298,385a28.64,28.64,0,0,0,4.8,2,9.35,9.35,0,0,0,4.6.5,8.4,8.4,0,0,0,4-2.7,39.43,39.43,0,0,0,3.6-4.5c1.1-1.6,2-3.2,2.7-4.3a3,3,0,0,0,.4-.8l.4.4a36.26,36.26,0,0,0,3.3,2.8,30.43,30.43,0,0,0,3.9,2.7,15.39,15.39,0,0,0,1.9.8,3.1,3.1,0,0,0,1.9.1,4,4,0,0,0,1.5-1,9.06,9.06,0,0,0,1.1-1.6,25.4,25.4,0,0,0,1.8-4.1c.5-1.4.9-2.8,1.2-3.8a.37.37,0,0,1,.1-.3c.1.1.2.1.3.2.9.6,2.2,1.5,3.6,2.3a27.43,27.43,0,0,0,4.2,2.1,5.34,5.34,0,0,0,2,.5,4.08,4.08,0,0,0,1.9-.1,2.68,2.68,0,0,0,1.3-1,7.14,7.14,0,0,0,.8-1.5,22.85,22.85,0,0,0,1.2-3.7c.3-1.3.5-2.5.7-3.4.8.5,2,1.3,3.2,1.9a31.4,31.4,0,0,0,3.7,1.8,5.84,5.84,0,0,0,1.8.4,2.6,2.6,0,0,0,1.7-.2l.5-.2.1-.6c.1-.4.1-.8.2-1.2,7.5-19.6,11-53.9,12.1-86,1.1-32.4-.2-62.8-2.5-73.8-15.7-63.1-50.6-76.5-67.1-75.1-6.3-6.8-14.6-11.1-22.3-13.8a69.47,69.47,0,0,0-19.6-3.9c-29.9,0-52.7,11.8-69.9,30.4s-28.8,44.1-36.4,71.6c-15.2,54.9-14.5,118-10.1,151v.4l.3.3c.2.1.3.3.5.4v.3l.6.3c.2.1.3.1.4.2a23.55,23.55,0,0,0,9.4,4.3q5.1,2.1,11.1,4.2a3.44,3.44,0,0,0,1.4.1,4,4,0,0,0,1.5-.3c1-.3,2.1-.7,3.2-1.1s2-.9,2.7-1.2a4.88,4.88,0,0,0,.7-.3,1.4,1.4,0,0,1,.4.7c.3.6.5,1.3.8,2.1a26,26,0,0,0,1,2.5,3.26,3.26,0,0,0,2,1.8,7.21,7.21,0,0,0,3.8-.3,32.52,32.52,0,0,0,4-1.5,29.64,29.64,0,0,0,3.2-1.7c.1-.1.2-.1.3-.2a.35.35,0,0,1,.1.2c.3.8.8,1.8,1.3,2.8a14.15,14.15,0,0,0,1.8,2.9,5.24,5.24,0,0,0,1,1.1,2.73,2.73,0,0,0,1.3.7,4.88,4.88,0,0,0,1.7-.1,8.24,8.24,0,0,0,1.9-.6,25.77,25.77,0,0,0,4.1-2c1.3-.8,2.6-1.5,3.5-2a1.38,1.38,0,0,0,.4-.3v.1a22.12,22.12,0,0,0,1.3,2.9,16.07,16.07,0,0,0,1.9,3.1,4.09,4.09,0,0,0,2.8,1.8c1.2.2,2.3.3,3.5.4-.2,0-.5.1-.7.1-12.4,1.6-26.3,3.4-41,6.7l-1,.2c-1.8.4-3.6.8-5.3,1.3-.9.2-1.8.5-2.7.7-2.8.7-5.6,1.5-8.5,2.4-.8.3-1.7.5-2.5.8s-1.9.6-2.8.9a9.83,9.83,0,0,1-1.6.5c-.9.3-1.7.6-2.6.9a8.8,8.8,0,0,1-1.5.5c-.5.2-1.1.4-1.6.6a6.12,6.12,0,0,0-1.2.5c-.7.3-1.4.5-2.2.8s-1.4.6-2.2.9a24.43,24.43,0,0,0-2.4,1,22.88,22.88,0,0,0-2.3,1c-.8.4-1.5.7-2.3,1.1a24,24,0,0,0-2.3,1.1c-1.6.7-3.1,1.5-4.7,2.3s-3.2,1.6-4.8,2.5-3.2,1.7-4.8,2.6c-.8.4-1.6.9-2.3,1.3s-1.4.8-2.2,1.3c-2.2,1.3-4.4,2.6-6.5,3.9l-1.5.9c-.6.3-1.1.7-1.6,1s-1.1.7-1.6,1c-5.6,3.6-10.6,7-14.4,9.9a12.13,12.13,0,0,1-1.4,1c-.7.5-1.3,1-1.9,1.5-.3.3-.7.5-1,.8a15,15,0,0,0-1.3,1.1c-.1.1-.3.2-.4.3a4.35,4.35,0,0,0-.7.6l-.3.3-.6.6-.2.2v.1l-.6.7.7.6c3.3,3.1,6.8,6.3,10.7,9.4,1.3,1,2.6,2.1,3.9,3.1.7.5,1.3,1,2,1.5,1.9,1.5,3.9,2.9,5.9,4.3.5.4,1,.7,1.5,1.1,2.5,1.7,5,3.5,7.7,5.2.6.4,1.2.7,1.7,1.1.9.5,1.7,1.1,2.6,1.6l3,1.8c.1,0,.1.1.2.1,1,.6,1.9,1.1,2.9,1.7.1,0,.1.1.2.1,1,.6,2,1.1,3,1.7s2.1,1.2,3.2,1.8c.7.4,1.5.8,2.2,1.2a16.18,16.18,0,0,1,1.8,1c1.5.8,2.9,1.5,4.5,2.3.8.4,1.6.8,2.5,1.2.4.2.9.4,1.3.6.1.1.3.1.4.2a.35.35,0,0,0,.2.1A255.63,255.63,0,0,0,246,515h.6c1.4.1,2.8.1,4.3.2.9,0,1.8.1,2.7.1s2.1,0,3.1.1h3.6c1.6,0,3.3,0,5-.1a20.9,20.9,0,0,0,2.5-.1c6.8-.2,13.6-.7,20.5-1.4.6-.1,1.3-.1,1.9-.2h.2a27,27,0,0,0,2.8-.4c4.2-.5,8.3-1.2,12.5-2l2.9-.6a17.42,17.42,0,0,0,2.2-.5c1.7-.3,3.4-.7,5.2-1.1l2.6-.6c1.7-.4,3.4-.9,5.2-1.3l2.2-.6c.1,0,.3-.1.4-.1a176.28,176.28,0,0,0,29.4-10.1c-.7.3-1.3.5-2,.8.7-.3,1.5-.6,2.2-.9.1,0,.1-.1.2-.1.5-.2.9-.4,1.4-.6,3.3-1.4,6.5-2.8,9.8-4.4a4.67,4.67,0,0,0,1-.5c.3-.2.7-.3,1-.5,1.3-.6,2.6-1.3,3.9-1.9s2.6-1.3,3.9-2l3.9-2.1c.9-.5,1.7-1,2.6-1.4l7.8-4.5c1.7-1,3.5-2.1,5.2-3.2,1.2-.8,2.4-1.5,3.6-2.3l2.7-1.8c.4-.3.9-.6,1.3-.9s.9-.6,1.3-.9c.9-.6,1.8-1.2,2.7-1.9s1.8-1.3,2.7-1.9c1.2-.8,2.4-1.7,3.6-2.6.6-.4,1.2-.9,1.8-1.3s1.2-.9,1.8-1.3c1.2-.9,2.4-1.8,3.5-2.7s2.3-1.9,3.5-2.8l1-.8ZM386,425.5c-.2-.2-.5-.3-.7-.5a8.79,8.79,0,0,0-1-.6A9.91,9.91,0,0,1,386,425.5Zm-1.7-1.2A157.3,157.3,0,0,0,360.8,412,144.26,144.26,0,0,1,384.3,424.3Zm-23.9-55.5a7.89,7.89,0,0,1-1.3-.3,34,34,0,0,1-3.4-1.6,35.39,35.39,0,0,1-3.1-1.9,3.74,3.74,0,0,0-1-.6c-.1-.1-.2-.1-.3-.2h-.1l-1.4-1-.2,1.7v.4a6.53,6.53,0,0,1-.2,1.1c-.1.9-.4,2.1-.6,3.3a23.15,23.15,0,0,1-1,3.4,5.42,5.42,0,0,1-.6,1.1,1.4,1.4,0,0,1-.4.4q-.15.15-.9,0a7.07,7.07,0,0,1-1.6-.5c-1.2-.5-2.6-1.2-3.9-1.9s-2.6-1.6-3.5-2.2a9,9,0,0,0-1.1-.7c-.1-.1-.2-.2-.3-.2l-.1-.1-1.2-.9-.3,1.5v.1c0,.1-.1.2-.1.3a10.38,10.38,0,0,0-.3,1.2c-.3,1-.7,2.3-1.1,3.7a21.59,21.59,0,0,1-1.6,3.7,6.23,6.23,0,0,1-.9,1.2,7.37,7.37,0,0,1-.6.5,3.22,3.22,0,0,1-.8-.1,7.72,7.72,0,0,1-1.5-.6,23.57,23.57,0,0,1-3.6-2.5c-1.2-1-2.3-2-3.2-2.8a7.3,7.3,0,0,0-1-.9l-.3-.3-.1-.1-1-1-.6,1.2-.1.1c-.1.1-.1.2-.2.4s-.4.8-.8,1.4c-.7,1.1-1.6,2.7-2.6,4.2a29.26,29.26,0,0,1-3.4,4.3,6.93,6.93,0,0,1-2.9,2.1,7.3,7.3,0,0,1-3.6-.5,25.29,25.29,0,0,1-4.5-1.9c-1.5-.7-2.8-1.5-3.8-2a7.17,7.17,0,0,1-1.1-.7c-.1-.1-.3-.1-.3-.2h-.1l-.8-.5-.5.8-.1.1c0,.1-.1.2-.2.3s-.4.6-.8,1c-.7.8-1.6,1.9-2.6,3a22.37,22.37,0,0,1-3.2,3,6,6,0,0,1-2.6,1.4c-1.3.1-2.5.3-3.7.4a3,3,0,0,1-.9-1.3c-1.6-6.1-1.8-14.2-1.4-22.1.1-2.8.4-5.6.6-8.3A81.26,81.26,0,0,0,307,337.6c12.5-13.5,19.9-29.2,21.3-38.9,4.8-.4,10.6-1.7,15.4-5.3a20.16,20.16,0,0,0,4.6-5c.7,2.2,1.4,4.5,2,6.9,2.8,10,2,20.5.5,28.6a80,80,0,0,1-2.5,9.8c-.4,1.2-.7,2.2-.9,2.8a2.39,2.39,0,0,1-.3.7c0,.1-.1.1-.1.2l-1.3,3.1,2.8-1.9a20,20,0,0,0,8.7-11.3c2.1,5.1,2.7,11.2,2.9,17.8.1,3,0,6.2,0,9.4v2.4C360.2,360.7,360.2,364.8,360.4,368.8Zm-190.8-94a1,1,0,0,0,1.2.7,4,4,0,0,1,4.2,1.4,1,1,0,0,0,1.2.3,1.08,1.08,0,0,0,.6-1.1,12.28,12.28,0,0,0-7.8-8.9c2.4-2.6,6.3-5.6,12.3-9,8.1-4.6,20.1-9.8,37.4-15.9,27.9-9.8,46.8-21.8,59.2-32.9,10.2-9.2,16-17.7,18.5-23.8a275.12,275.12,0,0,0,13.7,39.8,179.77,179.77,0,0,0,11.3,22.4c3.3,5.4,6.7,10,10.1,13.1.3.3.7.6,1,.9a8.74,8.74,0,0,0,1,.8l.2.2a1.38,1.38,0,0,1,.4.3,2.7,2.7,0,0,1,.8.7c.3.2.5.5.8.7,4.6,4.4,8.5,11.6,11.8,21.2a18.24,18.24,0,0,1-5,5.9c-4.6,3.5-10.3,4.7-15.1,5a.9.9,0,0,0-.9.9c-1.1,9.1-8.2,25-20.9,38.6a80.4,80.4,0,0,1-27.7,19.8c-.3.1-.7.3-1.1.4a3.58,3.58,0,0,1-1.1.4,64.8,64.8,0,0,1-23.3,4.2,53.1,53.1,0,0,1-18.4-3.2,4.18,4.18,0,0,1-1-.4c-.3-.1-.7-.3-1-.4-13.3-5.2-24.5-14.9-33.4-26.1-13.2-16.5-21-36-22.5-47.4a1.06,1.06,0,0,0-.9-.9,30.48,30.48,0,0,1-8.9-2.7,8.8,8.8,0,0,1-.5-1.5,10.23,10.23,0,0,1,1.1-8.5,8.34,8.34,0,0,1,.8-1.2,1,1,0,0,0,.5.4,10.37,10.37,0,0,1,5.5,4.6,5.88,5.88,0,0,0-3.5-.1A1.21,1.21,0,0,0,169.6,274.8Zm-11,98.4a22.29,22.29,0,0,1-9-4.1h-.1c-.3-.2-.6-.5-.9-.7,0-.2-.1-.5-.1-.7-.2-1.9-.5-3.9-.7-6a436.38,436.38,0,0,1,0-81.2c.1-.8.1-1.6.2-2.4.3-3,.6-6,1-9,.1-1,.3-2.1.4-3.2a329.6,329.6,0,0,1,9.3-47.3c7.6-27.3,19.1-52.4,36-70.8S233.9,118,263.1,118a66,66,0,0,1,19,3.8c7.6,2.7,15.7,7,21.8,13.7l.3.4.5-.1c15-1.6,49.8,10.5,65.5,73.6,2.2,10.7,3.6,40.9,2.5,73.3-.9,26.9-3.5,55.2-8.7,74.9-.5,2.1-1.1,4.1-1.7,6,0,.1,0,.1-.1.2q-.15-3.45,0-6.9V345.1c-.2-7.7-1-14.9-4.2-20.9l-1.1-2.1-.7,2.3a26.86,26.86,0,0,1-3.4,7.7,14.77,14.77,0,0,1-2.7,2.9c.1-.2.1-.5.2-.7a74.13,74.13,0,0,0,2.5-10.1c1.6-8.2,2.4-19.1-.5-29.5-.8-3.1-1.7-6-2.6-8.7-.2-.5-.3-.9-.5-1.4s-.3-.9-.5-1.4c-3.1-8.5-6.8-15.2-11.1-19.5l-.8-.8a5,5,0,0,0-.8-.7l-1.2-.9a12.67,12.67,0,0,1-1.3-1.1c-.3-.3-.7-.6-1-.9a9.43,9.43,0,0,1-1-1,69.09,69.09,0,0,1-8.4-11.3,199.5,199.5,0,0,1-11.2-22.2c-6.9-16-12.4-33.1-14.4-42.9h-1.9c-1.4,5.6-6.9,15.4-19.1,26.3S245.7,231,218,240.7c-17.4,6.1-29.5,11.4-37.7,16s-12.8,8.7-15.1,12.4a11.62,11.62,0,0,0-1.4,9.7c0,.1.1.3.1.4.1.3.2.7.3,1,.2.5.3.9.5,1.4s.5,1.1.7,1.6v.1a23.15,23.15,0,0,1,1.4,3.5c5.1,19.1,13.8,33.4,22,45.1,1.8,2.6,3.6,5.1,5.3,7.5,2.1,2.9,4.1,5.7,5.9,8.4a63.25,63.25,0,0,1,6.8,12.2c-1.8-.2-4.5-.6-7.1-1l-4.3-.8a8.57,8.57,0,0,1-1.3-.3c-.2,0-.3-.1-.4-.1h-.1l-1.3-.3.1,1.3v1.5c0,.9.1,2.1,0,3.3a15.68,15.68,0,0,1-.4,3.3,3.36,3.36,0,0,1-.4,1q-.15.3-.3.3h-.4a9.68,9.68,0,0,1-1.1-.3c-.8-.4-1.8-.9-2.8-1.5s-1.8-1.2-2.5-1.7a5.55,5.55,0,0,1-.8-.6c-.1-.1-.2-.1-.2-.2l-1.1-.9-.4,1.4v.1c0,.1-.1.1-.1.3a4.65,4.65,0,0,0-.3.9c-.3.8-.7,1.8-1.2,2.9a15.74,15.74,0,0,1-1.6,2.9,8.18,8.18,0,0,1-.8.9.91.91,0,0,1-.5.3c-.3.1-.8,0-1.7-.4a11,11,0,0,1-2.5-1.5c-.8-.6-1.6-1.2-2.2-1.6-.3-.2-.5-.4-.7-.5l-.2-.2h-.1l-.8-.7-.6.9-.2.2c-.1.2-.3.4-.5.7-.5.6-1.1,1.3-1.8,2a18.62,18.62,0,0,1-2.2,1.9,3.69,3.69,0,0,1-1.6.7A23.55,23.55,0,0,0,158.6,373.2Zm58.8,15.4c-.4,0-.9-.4-1.5-1.1a13.9,13.9,0,0,1-1.7-2.7c-.5-1-.9-2-1.2-2.7a9.2,9.2,0,0,1-.3-.9.1.1,0,0,0-.1-.1v-.2l-.4-1.3-1.1.7H211l-.1.1a.35.35,0,0,1-.2.1c-.3.2-.6.4-1.1.7-.9.5-2.1,1.3-3.4,2a26.69,26.69,0,0,1-3.9,1.8,14.24,14.24,0,0,1-1.6.5,2,2,0,0,1-.7.1h-.2s-.1,0-.3-.2-.4-.5-.7-.8a21.42,21.42,0,0,1-1.6-2.7c-.5-1-1-1.9-1.3-2.7-.2-.4-.3-.7-.4-.9s-.1-.1-.1-.2v-.2l-.5-1.1-1,.7h-.1c-.1,0-.2.1-.3.2a6.78,6.78,0,0,0-.9.6,22,22,0,0,1-3.1,1.6,20.45,20.45,0,0,1-3.6,1.4,7.26,7.26,0,0,1-2.7.3,2,2,0,0,1-.8-.8,10.23,10.23,0,0,1-.8-2.1l-.1-.1a15.71,15.71,0,0,0-.9-2.3,3.72,3.72,0,0,0-1.9-1.8l-.4-.1-.4.2h-.1c-.1,0-.1.1-.2.1a5.9,5.9,0,0,0-.8.4c-.7.3-1.6.8-2.6,1.2a20,20,0,0,1-2.9,1,5.16,5.16,0,0,1-1.1.2h-.6c-1.9-.7-3.8-1.3-5.6-2a4.13,4.13,0,0,0,1.1-.7,17.14,17.14,0,0,0,2.5-2.2,16.22,16.22,0,0,0,1.9-2.2c0-.1.1-.1.1-.2l.1.1A27.7,27.7,0,0,0,172,372a16.41,16.41,0,0,0,2.9,1.6,5,5,0,0,0,2.9.5,2.85,2.85,0,0,0,1.4-.8,4.73,4.73,0,0,0,1.1-1.3,16.54,16.54,0,0,0,1.8-3.2c.5-1.1.9-2.2,1.2-3,.7.5,1.6,1.1,2.6,1.8s2.1,1.2,3.1,1.7a8.8,8.8,0,0,0,1.5.5,2.57,2.57,0,0,0,1.5-.1,2.85,2.85,0,0,0,1.3-1.1,4.71,4.71,0,0,0,.6-1.5,22,22,0,0,0,.5-3.7c.1-1.3,0-2.5,0-3.4v-.2c.2,0,.4.1.6.1l4.3.8a64.82,64.82,0,0,0,8.8,1.1h1.4l-.4-1.3c-1.5-4.6-4.2-9.2-7.5-14.1-1.8-2.7-3.9-5.5-6-8.5-1.7-2.4-3.5-4.8-5.3-7.4-8.1-11.6-16.7-25.7-21.7-44.5a24.81,24.81,0,0,0-1.3-3.5,28,28,0,0,0,6.8,1.9c1.8,12,9.7,31.2,22.8,47.6,9.2,11.6,21.1,21.8,35.2,27.1a93.73,93.73,0,0,1,.5,15.1,47.24,47.24,0,0,1-1.4,10c-.8,2.7-1.9,4.6-3.3,5.5C224.4,389.4,220.9,389,217.4,388.6Zm2.8,4.5c1.4-.2,3.2-.5,4.6-.7.7-.1,1.3-.2,1.7-.3a4.33,4.33,0,0,0,.5-.1h.2l.9-.2h.1l.4-.1.1-.1a5.5,5.5,0,0,0,.9-.7l.9-.9a15.85,15.85,0,0,0,2.6-5.2,46.56,46.56,0,0,0,1.5-10.5,114.9,114.9,0,0,0-.4-14.5,57.39,57.39,0,0,0,18.2,3,68.09,68.09,0,0,0,23-4c-.2,2.4-.4,4.9-.5,7.4-.4,8-.2,16.4,1.5,22.7a3,3,0,0,0,.4,1,3.11,3.11,0,0,0,.7.9,2.73,2.73,0,0,0,1.2.9,4.28,4.28,0,0,0,1.6.5l1.3.2h.7c.5.1,1.3.2,2.3.3,2,.3,4.9.8,8.5,1.4,1.3.2,2.6.5,4.1.7,1.3,10.6.9,26.2-4.5,39.2a38.77,38.77,0,0,1-12.4,16.6c-5.7,4.2-13,6.8-22.6,6.8-19.1,0-32-10.4-40.5-23.6-8.3-12.9-12.2-28.2-13.3-38.8C209.6,394.5,215,393.8,220.2,393.1Zm-65.4,98.5-2.7-1.2c-.9-.4-1.9-.8-2.8-1.3-.5-.2-1.1-.5-1.6-.7s-1.3-.6-1.9-.9-1.4-.7-2.1-1a18.65,18.65,0,0,1-2-1c-.7-.3-1.3-.6-1.9-.9l-1.8-.9-1.8-.9c-3.8-2-7.5-4-11.1-6.1-1.6-.9-3.2-1.9-4.8-2.9-1-.6-2.1-1.3-3.1-1.9a23.92,23.92,0,0,0-2.1-1.3l-2.7-1.8c-.7-.5-1.5-1-2.2-1.5s-1.5-1-2.2-1.5l-2.1-1.5a.1.1,0,0,1-.1-.1l-2.1-1.5c-.7-.5-1.4-1-2.1-1.6s-1.3-.9-1.9-1.4c-2-1.5-4-3.1-5.8-4.6-.7-.5-1.3-1.1-2-1.6s-1.4-1.1-2-1.7l-2-1.7c-.7-.6-1.3-1.2-1.9-1.7s-1.3-1.2-1.9-1.7a72.55,72.55,0,0,1,6.8-5.5c3.8-2.8,8.8-6.2,14.3-9.8,11.1-7.1,24.7-14.8,36.7-19.8.9-.4,1.8-.7,2.7-1.1s1.8-.7,2.7-1.1c2.7-1,5.3-2,8-2.9.3-.1.7-.2,1-.3.8-.3,1.5-.5,2.3-.8l2-.6c.9-.3,1.7-.5,2.6-.8s1.7-.5,2.6-.8a25,25,0,0,1,2.6-.7,19.45,19.45,0,0,1,2-.5c2.5,15.2.6,33.3-3,49.8a244.44,244.44,0,0,1-12.2,39.8ZM355,495.7c-.5.2-.9.4-1.4.6a11.11,11.11,0,0,0,1.6-.7C355.1,495.6,355.1,495.7,355,495.7Zm63.1-38-1.3,1c-.7.6-1.5,1.1-2.2,1.7l-2.2,1.6c-.8.6-1.6,1.2-2.4,1.7l-5.1,3.6c-.9.6-1.7,1.2-2.6,1.7-1.7,1.2-3.4,2.3-5.1,3.4-.6.4-1.3.8-1.9,1.2s-1.3.8-1.9,1.2c-1.1.7-2.1,1.3-3.2,2-.5.3-1.1.7-1.6,1a14,14,0,0,0-1.6,1c-1.7,1-3.4,2-5.1,2.9-2.3,1.3-4.6,2.5-6.9,3.7-.8.4-1.5.8-2.3,1.2l-3.6,1.8c-1.7.8-3.4,1.7-5.2,2.4-2.4,1.1-4.9,2.2-7.3,3.2-.3.1-.6.3-.9.4s-.6.3-.9.4a187.13,187.13,0,0,1-28.9,9.9h-.1c-.1,0-.1,0-.2.1-.8.2-1.7.5-2.6.7.5-.1,1-.3,1.5-.4a271,271,0,0,1-92.2,6.9h-.7a248,248,0,0,1-74.7-19.4,246.55,246.55,0,0,0,12.3-40.2c3.6-16.6,5.6-35,3-50.5,1.4-.4,3.2-.8,5.4-1.3a3,3,0,0,1,1-.2c.3-.1.6-.1,1-.2,6.1-1.4,14.2-3,22.5-4.3,1.2,10.8,5.2,26.4,13.6,39.5,8.7,13.6,22.2,24.5,42.2,24.5,10,0,17.8-2.7,23.8-7.2s10.2-10.7,13.1-17.5c5.4-13,6-28.5,4.8-39.2l25.7,5.6,1,.2,1,.2h.1c2.2,12,6.2,31.1,11.2,49.3,2.5,9.3,5.3,18.3,8.1,26.1,2.6,7.2,5.4,13.3,8.3,17.5.3-.1.6-.3.9-.4s.6-.3.9-.4c-2.8-4-5.6-10.1-8.3-17.4-2.8-7.7-5.6-16.7-8.1-25.9-4.8-17.7-8.7-36.2-11-48.2v-.1a219.83,219.83,0,0,1,31.2,10.7c.5.2,1.1.5,1.6.7a127.9,127.9,0,0,1,24.3,13.3,10.47,10.47,0,0,1,1.1.8c1.4,1.1,2.9,2.1,4.4,3.3,1,.7,2,1.5,3,2.3,1.5,1.1,3.1,2.3,4.6,3.5,1,.8,2.1,1.5,3.1,2.3,3.1,2.3,6,4.5,8.7,6.5,2.3,1.7,4.3,3.2,6.1,4.5a8.74,8.74,0,0,1,1,.8,3.59,3.59,0,0,0,1,.7l.9.6,2.5,1.9A37.27,37.27,0,0,0,418.1,457.7Z"/></g></g></svg>