<svg xmlns="http://www.w3.org/2000/svg" viewBox="0 0 515.5 518.7"><title>Asset 5</title><g id="Layer_2" data-name="Layer 2"><g id="Слой_1" data-name="Слой 1"><path d="M242.8,309.2c-.1,0-.2-.1-.3-.1C242.6,309.1,242.7,309.2,242.8,309.2Z" fill="#f2f2f2"/><path d="M251.4,311.5a31.78,31.78,0,0,1-8.5-2.3A34,34,0,0,0,251.4,311.5Z" fill="#f2f2f2"/><path d="M257.4,311.8h-.8a3.4,3.4,0,0,0,1-.1A.31.31,0,0,1,257.4,311.8Z" fill="#f2f2f2"/><path d="M273.9,307.4c-.2.1-.3.1-.5.2A.76.76,0,0,0,273.9,307.4Z" fill="#f2f2f2"/><path d="M193.8,310.8Zm.1,2.6Zm0-1.3Zm0,.1c.1-.1,0-.1,0,0Zm-.1-1.4Zm.1,2.6Zm0-1.3Zm0,.1c.1-.1,0-.1,0,0Zm-.1-1.4Zm.1,2.6Zm0-1.3Zm0,.1c.1-.1,0-.1,0,0Zm-.1-1.4Zm.1,2.6Zm0-1.3Zm0,.1c.1-.1,0-.1,0,0Zm-.1-1.4Zm.1,2.6Zm0-1.3Zm0,.1c.1-.1,0-.1,0,0Zm-.1-1.4Zm.1,2.6Zm0-1.3Zm0,.1c.1-.1,0-.1,0,0Zm-.1-1.4Zm.1,2.6Zm0-1.3Zm0,.1c.1-.1,0-.1,0,0Zm-.1-1.4Zm.1,2.6Zm0-1.3Zm0,.1c.1-.1,0-.1,0,0Zm-.1-1.4Zm.1,2.6Zm0-1.3Zm0,.1c.1-.1,0-.1,0,0Zm-.1-1.4Zm.1,2.6Zm0-1.3Zm0,.1c.1-.1,0-.1,0,0Zm-.1-1.4ZM257.7,0C115.4,0,0,115.4,0,257.7A255.65,255.65,0,0,0,83.5,447.2c0-.1.1-.2.1-.3a38.64,38.64,0,0,1,3.8-5,9.55,9.55,0,0,0-5.3-.9c-5.6.3-10.1-7.5-11.1-15.2-.9-6.2.4-13.4,6.7-14.8,9.1-2,7.8-9.3,6.5-17.1-.2-1.1-.4-2.1-.5-3.2-1-7,1.3-8.2,5.7-10.4a47,47,0,0,0,5.7-3.3c2.2-1.5,3.4-3.1,3.7-4.9.8-4.4-3.6-10.3-8.2-16.6a14.14,14.14,0,0,1-2.5-12.8,17.85,17.85,0,0,1,10.1-11.1c1.9-.7,3.6-2.9,4.7-6.2a30.41,30.41,0,0,0-2.6-23.9c-3.9-6.4-4-15.2-.2-22.5,2.7-5.1,6.8-8.3,11.1-8.5a5.93,5.93,0,0,0,4.6-2.3c2.7-3.4,3.1-10.7,1.3-21-1.9-10.1,1.4-17.4,9.4-20.9,7.8-3.5,10.6-11.8,7.1-21.1-1.8-4.7-1.7-8.9,0-12.4a14.6,14.6,0,0,1,9.5-7.2c5.7-1.6,6-7.7,6.3-14.2,0-.7.1-1.5.1-2.2v-.7c.4-6.9.8-14,12.3-14a15.84,15.84,0,0,0,9.7-3.2,15.17,15.17,0,0,0,4.6-5.4,1.21,1.21,0,0,1,.5-.5,9.88,9.88,0,0,1,3.4-6c3.3-2.6,7.9-2,11.9-1.4,3.5.5,6.7.9,8.3-.7,1.7-1.9,2.2-4.9,2.6-8,.8-5.4,1.7-11.5,9.5-13.5,6-1.6,10.1-.4,13.5.5s6,1.7,9.5-.4a22.49,22.49,0,0,0,5.8-5.7c3.1-4,6.3-8.1,15-7,6.7.8,7.9,2.5,8.7,4.5.4,1.1.8,1.9,4.9,2.1a22.56,22.56,0,0,0,8.8-1.4c4.2-1.3,8.1-2.5,15.4,1.5a13.7,13.7,0,0,1,7.3,9.5,6.65,6.65,0,0,1,5.6-2.7c3,.1,4.9,2.5,6.9,4.9,2.3,2.8,4.6,5.6,8.9,6.1,9.5,1.1,9.5,10.2,9.5,18.2,0,7.6,7.2,12.9,18.1,18.5,5.1,2.6,8.9,7.7,10.7,14.4,1.6,5.9,1.3,12.5-.7,15.5l-.4.7c-2.9,4.5-4.3,6.5.3,11.3s2.1,15.6.5,20.1c4,2,6.4,6.6,7,13.7.9,11.4-3,19.4-8,24.9-2.8,7.6,2.3,11,8.1,14.9a38.77,38.77,0,0,1,3.3,2.3c3.1,2.3,3.6,5.5,4.1,8.9.5,4,1.2,8.7,6.5,13.2,6.9,5.9,5,9,1.9,14.3a49.68,49.68,0,0,0-6.2,14.2c-3.2,12.3.4,18,4.6,24.7a57.93,57.93,0,0,1,5.1,9.3c3,7.3-.6,12.5-3.3,16.4-2.3,3.2-3.4,5-1.9,6.8,3.6,4.4,5.6,15.6,3.9,22.6a12.51,12.51,0,0,1-1.1,3.1c11.8,2.7,35.4,8.9,51.9,15.1.2.1.4.1.5.2,2.9,1.1,5.6,2.1,7.9,3.1.1,0,.1.1.2.1a254.67,254.67,0,0,0,70.4-176.4C515.4,115.4,400,0,257.7,0ZM382.8,417.6v0ZM193.9,312.2c.1-.1,0-.1,0,0Zm0-.1Zm0,1.3Zm-.1-2.6Zm.1,2.6Zm0-1.3Zm0,.1c.1-.1,0-.1,0,0Zm-.1-1.4Zm.1,2.6Zm0-1.3Zm0,.1c.1-.1,0-.1,0,0Zm-.1-1.4Zm.1,2.6Zm0-1.3Zm0,.1c.1-.1,0-.1,0,0Zm-.1-1.4Zm.1,2.6Zm0-1.3Zm0,.1c.1-.1,0-.1,0,0Zm-.1-1.4Zm.1,2.6Zm0-1.3Zm0,.1c.1-.1,0-.1,0,0Zm-.1-1.4Zm.1,2.6Zm0-1.3Zm0,.1c.1-.1,0-.1,0,0Zm-.1-1.4Zm.1,2.6Zm0-1.3Zm0,.1c.1-.1,0-.1,0,0Zm-.1-1.4Zm.1,2.6Zm0-1.3Zm0,.1c.1-.1,0-.1,0,0Zm-.1-1.4Zm.1,2.6Zm0-1.3Zm0,.1c.1-.1,0-.1,0,0Z" fill="#f2f2f2"/><path d="M242.8,309.2c-.1,0-.2-.1-.3-.1C242.6,309.1,242.7,309.2,242.8,309.2Z" fill="#e73844"/><path d="M251.4,311.5a31.78,31.78,0,0,1-8.5-2.3A34,34,0,0,0,251.4,311.5Z" fill="#e73844"/><path d="M257.4,311.8h-.8a3.4,3.4,0,0,0,1-.1A.31.31,0,0,1,257.4,311.8Z" fill="#e73844"/><path d="M273.9,307.4c-.2.1-.3.1-.5.2A.76.76,0,0,0,273.9,307.4Z" fill="#e73844"/><path d="M176,149.7c-1,10.1-2.9,11.9-7.4,15.9a68.67,68.67,0,0,0-10.9,11.7c-6.6,8.7-3.3,13.7-.7,17.8s4.9,7.5-2.7,14.4c-9.2,8.3-7.3,17.3-5.7,25.2,1.3,6.4,2.5,12-2.4,16.2-11.9,10.3-13.1,21.5-9.3,27.5,3.3,5.1,2.9,15.8-3.5,24.1-7,9.2-4.7,20.8.1,25.1,1.7,1.5,2.5,2.7,2.3,3.7-.2,1.5-2.2,3.3-6.7,5.8-7.9,4.5-10.5,12.9-6.5,21,1.6,3.3,2,6.5.9,9.3-1.2,3-4.1,5.5-8.4,7-5.3,2-6.3,6.2-7.1,9.6s-1.3,5.2-4.6,5a6.79,6.79,0,0,0-5.4,2c-3,2.9-3.9,8.7-3.8,12.7a8,8,0,0,0,1.4,4.1c1,1.7,1.8,3.2.8,5.8-1.7,4.2.7,5.9,2.4,7.1a6.38,6.38,0,0,1,1.9,1.7,5.2,5.2,0,0,0,2.7,1.9,4.07,4.07,0,0,1,2.6,2.4,70.91,70.91,0,0,0-10,7.1,56.37,56.37,0,0,0-7.2,6.6A11.49,11.49,0,0,0,82,439c-4.3.3-8.1-6.8-9-13.4-.8-5.4.2-11.5,5.1-12.6,10.9-2.4,9.4-11.4,8-19.4-.2-1.1-.4-2.1-.5-3.1-.8-5.6.3-6.2,4.6-8.4a44.49,44.49,0,0,0,5.9-3.4c2.7-1.8,4.2-3.8,4.6-6.2.9-5.3-3.7-11.5-8.6-18.1a12.2,12.2,0,0,1-2.2-11.1,15.64,15.64,0,0,1,8.9-9.8c2.5-.9,4.6-3.5,5.9-7.4,2.2-6.5,2.3-17.3-2.8-25.6-4.3-7-2.7-15.5-.1-20.5,2.4-4.5,5.9-7.3,9.4-7.5a8,8,0,0,0,6-3c3.9-4.9,3-15,1.6-22.6-1.7-9.2,1.1-15.6,8.3-18.7,8.8-3.9,12-13.2,8.1-23.7-1.6-4.2-1.6-7.8-.1-10.8s4.4-5.1,8.3-6.2c7.1-2,7.5-9.5,7.8-16,0-.7.1-1.5.1-2.2v-.7c.2-3.5.4-6.5,1.7-8.7s3.8-3.4,8.6-3.4A18.34,18.34,0,0,0,176,149.7Z" fill="#e73844"/><path d="M193.9,313.4Zm0-1.3Zm0,.1c.1-.1,0-.1,0,0Zm-.1-1.4Z" fill="#e73844"/><path d="M238.8,364.4c0,16.3-.5,42.5-7.5,46.2-4,2.1-15.5,2.1-30.1,2.2-7.2,0-15.2.1-23.4.4a39.39,39.39,0,0,0-6-13.7c-2.2-2.8-3-5.4-2.5-7.8,1-4.8,7.4-8.6,12.8-11.4,4.9-2.6,7.6-5.2,8.5-8.4,1.2-4.2-.7-8.9-4.1-14.7-5.7-9.9-5.2-15.4,2.5-29.8,3-5.6,4.7-8.9,5.4-11.6,4.5,11.8,10.5,22.6,18.4,31.3A68.64,68.64,0,0,0,238.8,364.4Z" fill="#e73844"/><path d="M379.9,391.1c2.9,3.5,5.2,13.9,3.6,20.9a11.12,11.12,0,0,1-1.4,3.4c-29.6-6.4-62-10.3-84.9-6a3.11,3.11,0,0,1-2.6-.6,3,3,0,0,1-1.2-2.1l-5-44.7c9.8-5.1,19.1-13.1,27.3-23.7a129.77,129.77,0,0,0,25.6-62.5,42.31,42.31,0,0,0,15.3-8.2c-.9,6.9,4.5,10.5,9.8,13.9,1.1.7,2.2,1.5,3.3,2.2,2.5,1.8,2.8,4.3,3.3,7.5.6,4.2,1.3,9.4,7.2,14.5,5.6,4.8,4.5,6.5,1.5,11.7a55,55,0,0,0-6.4,14.7c-3.4,13.1.6,19.5,4.8,26.2a58.56,58.56,0,0,1,4.9,9c2.6,6.3-.4,10.6-3.1,14.5C379.5,385.1,377.4,388.1,379.9,391.1Z" fill="#e73844"/><path d="M382.8,417.6v.2c-.7,2.7-2.9,4.1-6,5.4-.5.2-.9.4-1.4.6s-.8.3-1.2.5h-.1c-6.1,2.4-13.6,5.3-15.7,15.6a22.79,22.79,0,0,1-12,15.9c-7.1,3.8-15.2,4-19.4,2.3-10.7-4.4-26.6-4.8-36.5,8.5a20.86,20.86,0,0,1-9.8,7.3,17.1,17.1,0,0,1-3,.9.6.6,0,0,0-.4.1c-.2,0-.5.1-.7.1h-.2c-.3,0-.6.1-.9.1a25.41,25.41,0,0,1-5.5.1,2.2,2.2,0,0,1-.8-.1c-.3,0-.6-.1-.9-.1s-.6-.1-.9-.1a18.73,18.73,0,0,1-3.4-.8,16.07,16.07,0,0,1-3.3-1.2,16.82,16.82,0,0,1-4.3-2.5c-10.9-9.1-24.1-10.5-40.4-4.3a48.81,48.81,0,0,1-6.6,2,23.34,23.34,0,0,1-3.5.6c-.4,0-.8.1-1.2.1h-.8c-.6,0-1.2.1-1.8.1h-1.2a16.56,16.56,0,0,1-3.3-.4c-.7-.1-1.3-.3-1.9-.4s-1.2-.3-1.7-.5c-.3-.1-.5-.2-.8-.3s-.3-.1-.5-.2a13,13,0,0,1-2.4-1.3l-.9-.6c-2.9-2.2-4-4.8-3.9-6.2a17.85,17.85,0,0,0-10.8-17.7,17.55,17.55,0,0,0-3.2-1.2c.4-1.9,1.3-3.2,3.2-3.6,1.4-.3,3.2-1.4,4.3-4.6,1.4-4.1,1.2-10.5-.2-16.9,8.1-.3,15.9-.3,23-.4,15.4-.1,26.6-.2,31-2.5,7.5-3.9,8.5-25,8.5-47.3a71.83,71.83,0,0,0,22.6,3.4,53.28,53.28,0,0,0,23.1-5.5l4.9,44a5.45,5.45,0,0,0,2,3.5,5.53,5.53,0,0,0,4.1,1c22.3-4.2,53.8-.5,82.7,5.6l1.4.3C382,417.4,382.4,417.5,382.8,417.6Z" fill="#fec2a9"/><path d="M209,509.8h0c-.8-.2-1.6-.3-2.4-.5,1.8.4,3.7.8,5.5,1.1C211.1,510.3,210,510,209,509.8ZM83.6,447.2v.4a.35.35,0,0,1,.1-.2A.35.35,0,0,0,83.6,447.2Z" fill="#fec2a9"/><path d="M209,509.8h0c-.8-.2-1.6-.3-2.4-.5,1.8.4,3.7.8,5.5,1.1C211.1,510.3,210,510,209,509.8Z" fill="#34a9e2"/><path d="M442.2,435.3c-3.7,4-8.2,8.4-13.4,13.1a.1.1,0,0,0-.1.1,289.67,289.67,0,0,1-28.2,22.2.1.1,0,0,0-.1.1c-6.4,4.5-13.3,8.9-20.6,13.1-.1,0-.1.1-.2.1-2.2,1.3-4.4,2.5-6.7,3.7a.1.1,0,0,0-.1.1c-32.4,17.6-71.6,30.9-112.9,28.9a296.83,296.83,0,0,1-46.6-5.9c-.4-.1-.8-.1-1.1-.2-1-.2-2.1-.5-3.1-.7H209a278.1,278.1,0,0,1-69.1-25.3.35.35,0,0,1-.2-.1,299.24,299.24,0,0,1-54-36.4c.1-.2.3-.4.4-.6a50,50,0,0,1,3.3-4.3,33018512216157.68,33018512216157.68,0,0,1,1.4-1.6,69.46,69.46,0,0,1,6.1-5.9.35.35,0,0,1,.2-.1,64.09,64.09,0,0,1,9.7-6.2c.4,4.9,2.9,5.5,5,6a4.4,4.4,0,0,1,2.3,1c1.7,1.4,3.9,1.8,6,2.2,3.9.7,7,1.2,7,6.8,0,2.7.6,4.6,1.9,5.9,1.8,1.8,4.5,1.8,7,1.7a12.41,12.41,0,0,1,4.5.5c1.9,1,4.2,1.1,6.4,1.2,4.3.2,6.5.5,6.5,3.9a7.63,7.63,0,0,0,.5,2.7,3.88,3.88,0,0,0,.6,1.1,10.63,10.63,0,0,0,.9,1.1,8.19,8.19,0,0,0,3.9,2.1,10.07,10.07,0,0,0,2.5.3,9.07,9.07,0,0,0,4.3-1,8.34,8.34,0,0,0,1.2-.8,6.47,6.47,0,0,0,.8-.9,2.19,2.19,0,0,0,.3-.5c2.9-5.4,2.8-11.3,2.8-16,0-1.7,0-3.1.1-4.4a17.88,17.88,0,0,1,8.8,5.6,15.56,15.56,0,0,1,3.6,11.1c-.2,2,.9,4.4,3,6.5a15.38,15.38,0,0,0,1.3,1.2l.3.3a8.51,8.51,0,0,0,1.4.9c3.3,2.1,9.8,4.6,19.9,2.4a26.81,26.81,0,0,0,2.7-.7c.8-.2,1.6-.5,2.4-.7a18,18,0,0,0,2.1-.8c23.1-8.8,34.6.8,38.4,3.9a3.59,3.59,0,0,0,1,.7c.5.4,1.2.7,1.8,1.1a13.35,13.35,0,0,0,2.4,1.1A32.77,32.77,0,0,0,276,477a21.64,21.64,0,0,0,5.3-1.2c.8-.3,1.5-.6,2.3-.9l1.8-.9a25,25,0,0,0,7.1-6.3c9.2-12.4,24.1-12,34.2-7.9,5.5,2.3,14.2,1.3,21.1-2.4a24.51,24.51,0,0,0,13-17.3c1.7-8.5,7.4-11.4,12.9-13.6.4-.2.8-.3,1.2-.5.2,0,.3-.1.5-.2s.5-.2.8-.3c4.3-1.7,8.3-3.4,9.2-7.7a444.87,444.87,0,0,1,51.1,14.6h.1A26.77,26.77,0,0,0,442.2,435.3Z" fill="#34a9e2"/><path d="M382.8,417.6v0ZM209,509.8h0c-.8-.2-1.6-.3-2.4-.5,1.8.4,3.7.8,5.5,1.1C211.1,510.3,210,510,209,509.8Z" fill="#34a9e2"/><path d="M242.8,309.2c-.1,0-.2-.1-.3-.1C242.6,309.1,242.7,309.2,242.8,309.2Z" fill="#fec2a9"/><path d="M251.4,311.5a31.78,31.78,0,0,1-8.5-2.3A34,34,0,0,0,251.4,311.5Z" fill="#fec2a9"/><path d="M257.4,311.8h-.8a3.4,3.4,0,0,0,1-.1A.31.31,0,0,1,257.4,311.8Z" fill="#fec2a9"/><path d="M273.9,307.4c-.2.1-.3.1-.5.2A.76.76,0,0,0,273.9,307.4Z" fill="#fec2a9"/><path d="M193.9,313.4Zm0-1.3Zm0,.1c.1-.1,0-.1,0,0Zm-.1-1.4Zm.1,2.6Zm0-1.3Zm0,.1c.1-.1,0-.1,0,0Zm-.1-1.4Zm.1,2.6Zm0-1.3Zm0,.1c.1-.1,0-.1,0,0Zm-.1-1.4Zm.1,2.6Zm0-1.3Zm0,.1c.1-.1,0-.1,0,0Zm-.1-1.4Z" fill="#fec2a9"/><path d="M365.3,240.3c-.5-6.4-2.5-10.5-6-12.2-.3-.1-.6-.3-.9-.4a18.44,18.44,0,0,0-3.9-.4c-5.5-.1-9.2,2.3-12.9,4.7l-.2.1a1.69,1.69,0,0,1-.5.2.9.9,0,0,1-.5-.1c-.1,0-.2-.1-.3-.2-1.4-1-4.2-3.8-9.9-10.3-5-5.7-3.2-11.1-1.7-15.9.9-2.8,1.8-5.5,1.4-8.2-.4-3.3-4.6-4.8-8.7-6.3-4.6-1.7-9.4-3.4-8.5-8,.8-4.1-.7-9.4-3.7-13a10.23,10.23,0,0,0-7.8-4h-.3c-6.7.2-10.1-3.4-11.3-5.9-3.2,2.2-10.9,2.8-24.9-1.2-9.4-2.7-15.7-3-19.3-.9-3.2,1.9-4.1,5.5-5,9.3l-.3,1a24.13,24.13,0,0,0-.6,5.9c0,1.5,0,2.7-.9,3.6s-2.7,1-5.6.8a22.62,22.62,0,0,0-3.7,0c-.5.1-1,.2-1.4.3a2.34,2.34,0,0,0-1,.5,1.76,1.76,0,0,0-.5.4c-1.3,1.3-1.7,3.9-1.5,9.3.5,10.1-8,15.6-15.4,17.2l-1.1.2c-4.2.9-8.1,1.7-9.8,4.4-1.1,1.7-1.2,4.1-.5,7.3a49.62,49.62,0,0,0,2.9,8c2.6,6,4.9,11.1-3.4,15.9l-.7.4c-9.8,5.6-10,5.7-5,16.2a17.52,17.52,0,0,0,6.2,7.3c3.5,2.5,4.3,4-.1,12.1a72.79,72.79,0,0,1-5.2,8.2c-2.8,3.9-3.2,4.4-.8,13.4.4,1.4.7,2.7,1,3.8a49.84,49.84,0,0,1,1.6,7c4.5,13.3,10.9,25.4,19.6,34.9a61.79,61.79,0,0,0,24.4,16.6c.3.1.7.3,1,.4a3.81,3.81,0,0,0,1,.3,71.83,71.83,0,0,0,22.6,3.5,50.39,50.39,0,0,0,20.6-4.5,20,20,0,0,0,2.1-1c.5-.3,1.1-.5,1.6-.8,9.4-5,18.3-12.7,26.3-23A126.68,126.68,0,0,0,339,275.1a1,1,0,0,1,.8-.9,38.18,38.18,0,0,0,17.3-9.9,9,9,0,0,0,.9-1,5,5,0,0,1,.7-.8C363.1,257.3,366.1,250.2,365.3,240.3ZM248.1,281c4.5-5.1,7-14.8,7.7-19.2a1,1,0,0,1,1.2-.8,1,1,0,0,1,.8,1.1c-.7,4.6-3.4,14.8-8.2,20.2a4.83,4.83,0,0,0-1.4,4.2c.5,2.5,3.3,4.9,5.9,6.2a1,1,0,0,1,.5,1.3,1.05,1.05,0,0,1-.9.5c-.2,0-.3,0-.4-.1-1-.5-6.1-3.2-7-7.6A6.6,6.6,0,0,1,248.1,281Zm-38.7-53.6a1.29,1.29,0,1,1-1.5-2.1c2.3-1.7,6.4-6.3,11.1-7.9s10.3-1.1,15.5.3c.7.2.9,1.5.7,2.2s-.7,1.4-1.4,1.2c-4.6-1.2-9.6-.5-14,1A44.69,44.69,0,0,0,209.4,227.4Zm26.3,20.5c-.8,5.4-3.9,9.4-7,8.9s-4.9-5.2-4.1-10.5,3.9-9.4,7-8.9S236.5,242.5,235.7,247.9Zm41.9,57.6q-.45,1.2-.9,2.7c-2.3,7-5.9,17.6-17.4,18.5H258c-11.5,0-16.6-12.2-19.4-18.8l-.5-1.3a.8.8,0,0,1,.3-1.1,1,1,0,0,1,1.2-.1c3,1.8,10.6,4.9,17.8,4.4a50.53,50.53,0,0,0,10.9-2.4,54.46,54.46,0,0,0,8-3.2.91.91,0,0,1,1.1.2A1.39,1.39,0,0,1,277.6,305.5Zm12-56.1c-.7,5.4-3.8,9.4-6.9,9s-5-5.1-4.2-10.5,3.8-9.4,6.9-9S290.4,244,289.6,249.4Zm19-19.5a1.49,1.49,0,0,1-.3.7c-.1,0-.1.1-.2.1a1.36,1.36,0,0,1-1.7-.1,21.27,21.27,0,0,0-7.9-4.8,28.51,28.51,0,0,0-5-1.4c-4.7-1-8.2,0-10.8.3-.7.1-2.2,0-2.4-2.1a1.32,1.32,0,0,1,1.2-1.4c1.6-.2,4.4-.9,7.5-1.4a7.72,7.72,0,0,1,1.5-.2,8.6,8.6,0,0,1,1.6-.1,15.17,15.17,0,0,1,4.3.2c4.9,1,7.9,5.4,11.8,9.3C308.5,229.1,308.6,229.5,308.6,229.9Z" fill="#fec2a9"/><path d="M193.8,310.8Zm.1,2.6Zm-.1-2.6Zm.1,2.6Zm-.1-2.6Zm.1,2.6Zm-.1-2.6Zm.1,2.6Zm-.1-2.6Zm.1,2.6Z" fill="#df2734"/><path d="M193.8,310.8Zm.1,2.6Zm0-1.3Zm0,.1c.1-.1,0-.1,0,0Zm-.1-1.4Zm.1,2.6Zm0-1.3Zm0,.1c.1-.1,0-.1,0,0Zm-.1-1.4Zm.1,2.6Zm0-1.3Zm0,.1c.1-.1,0-.1,0,0Zm-.1-1.4Zm.1,2.6Zm0-1.3Zm0,.1c.1-.1,0-.1,0,0Zm-.1-1.4Zm.1,2.6Zm0-1.3Zm0,.1c.1-.1,0-.1,0,0Zm-.1-1.4Zm.1,2.6Zm0-1.3Zm0,.1c.1-.1,0-.1,0,0Zm-.1-1.4Zm.1,2.6Zm0-1.3Zm0,.1c.1-.1,0-.1,0,0Zm-.1-1.4Zm.1,2.6Zm0-1.3Zm0,.1c.1-.1,0-.1,0,0Zm-.1-1.4Zm.1,2.6Zm0-1.3Zm0,.1c.1-.1,0-.1,0,0Zm-.1-1.4Zm.1,2.6Zm0-1.3Zm0,.1c.1-.1,0-.1,0,0Zm-.1-1.4Zm.1,1.4c.1-.1,0-.1,0,0Zm0-.1Zm0,1.3Zm-.1-2.6Zm.1,2.6Zm0-1.3Zm0,.1c.1-.1,0-.1,0,0Zm-.1-1.4Zm.1,2.6Zm0-1.3Zm0,.1c.1-.1,0-.1,0,0Zm-.1-1.4Zm.1,2.6Zm0-1.3Zm0,.1c.1-.1,0-.1,0,0Zm-.1-1.4Zm.1,2.6Zm0-1.3Zm0,.1c.1-.1,0-.1,0,0Zm-.1-1.4Zm.1,2.6Zm0-1.3Zm0,.1c.1-.1,0-.1,0,0Zm-.1-1.4Zm.1,2.6Zm0-1.3Zm0,.1c.1-.1,0-.1,0,0Zm-.1-1.4Zm.1,2.6Zm0-1.3Zm0,.1c.1-.1,0-.1,0,0Zm-.1-1.4Zm.1,2.6Zm0-1.3Zm0,.1c.1-.1,0-.1,0,0Zm-.1-1.4Zm.1,2.6Zm0-1.3Zm0,.1c.1-.1,0-.1,0,0Zm-.1-1.4Zm.1,2.6Zm0-1.3Zm0,.1c.1-.1,0-.1,0,0Z" fill="#df2734"/><path d="M299.3,122.4a13.61,13.61,0,0,0-.7,2.2c-3.7,2.9-9.2,10.5-10,22.5v2.1a45.43,45.43,0,0,0,.6,8.8c-.7.8-2.8,1.9-7.3,1.9-3.7,0-9-.7-16.5-2.9-10.1-2.9-16.7-3.1-20.8-.7-3.9,2.3-4.9,6.5-5.9,10.5l-.3,1a24.39,24.39,0,0,0-.7,6.4c0,1,0,1.9-.3,2.1-.5.5-3.2.3-4.1.3a13.44,13.44,0,0,0-6.1.6,9.29,9.29,0,0,0-1,.5,5.55,5.55,0,0,0-.8.6l-.1.1c-2.1,2.1-2.3,5.7-2,10.8.5,8.9-6.8,13.6-13.8,15.1l-1.1.2c-4.4.9-8.9,1.9-11.1,5.3-1.4,2.2-1.6,5.1-.7,8.8a46.61,46.61,0,0,0,3.1,8.3c2.6,5.9,4.2,9.4-2.6,13.3l-.7.4c-10.5,6-11.4,7-5.8,18.8a18.34,18.34,0,0,0,6.8,8c2.5,1.8,3.2,2.3-.7,9.5a67.64,67.64,0,0,1-5,7.9,23.27,23.27,0,0,0-2.3,3.6,8.56,8.56,0,0,0-.5,2.3c-.1,2,.4,4.6,1.6,9.1.4,1.4.7,2.7,1,3.9a48.22,48.22,0,0,1,1.6,6.8c.5,4-.9,6.8-5.5,15.3-7.5,14-8.9,20.6-2.5,31.8,3.6,6.4,4.8,10.2,3.9,13.2-.8,2.6-3.1,4.9-7.5,7.2-6.2,3.2-12.6,7.3-13.8,12.8-.6,3,.3,6.2,2.9,9.4a37.14,37.14,0,0,1,5.6,12.5c.1.3.2.7.3,1a3.55,3.55,0,0,1,.2,1c1.4,6.1,1.7,12.4.3,16.2-.6,1.9-1.6,3-2.9,3.3a5.94,5.94,0,0,0-4.6,5.1c-.1.3-.1.6-.2,1a3.4,3.4,0,0,0-.1,1c-.1,1.5-.1,3.2-.1,4.9,0,4.8,0,10.2-2.6,15.1a3.13,3.13,0,0,1-.9,1.1,6,6,0,0,1-1.6.8,7.42,7.42,0,0,1-4.2.1,9.81,9.81,0,0,1-2.1-.9,4.89,4.89,0,0,1-1.3-1.2,4.5,4.5,0,0,1-1-3c0-5.4-4.6-5.7-8.4-5.9-2-.1-4.1-.2-5.6-1a9.52,9.52,0,0,0-4.5-.8H136c-2.2,0-4.3,0-5.5-1.2-.9-.8-1.3-2.3-1.3-4.5,0-7.3-4.8-8.1-8.6-8.8a11,11,0,0,1-5.1-1.7,9,9,0,0,0-3.2-1.4c-2-.5-3.3-.8-3.5-4.5v-.6c0-.3-.1-.6-.1-.8v-.1a2.92,2.92,0,0,0-.2-.9c0-.1,0-.1-.1-.2-.1-.3-.2-.5-.3-.8a5.59,5.59,0,0,0-3.5-3.2,3.39,3.39,0,0,1-1.8-1.2,8.29,8.29,0,0,0-2.4-2.2c-1.8-1.3-2.8-2-1.7-4.7,1.5-3.5.2-5.7-.8-7.6a6.47,6.47,0,0,1-1.1-3.2c-.1-2.9.4-8.5,3.2-11.2a5,5,0,0,1,3.9-1.4c5.1.3,6-3.3,6.7-6.6s1.5-6.6,5.8-8.2c4.9-1.8,8.2-4.6,9.6-8.2,1.3-3.3,1-7-1-10.9-3.6-7.2-1.4-14.4,5.7-18.4,5.3-3,7.5-5,7.7-7.3s-1.5-4-3-5.4c-4.1-3.7-6.1-14.2.1-22.4,7-9.1,7.3-20.6,3.6-26.4-3.4-5.3-2.1-15.4,8.9-25,5.8-5,4.4-11.4,3-18.1-1.6-7.7-3.3-15.7,5.1-23.3,8.9-8.1,5.9-12.6,3.1-17-2.7-4.1-5.2-7.9.6-15.5a64.61,64.61,0,0,1,10.7-11.4c4.8-4.3,7.2-6.4,8.2-18.4v-.4c0-.4.1-.8.1-1.1s.1-.7.2-1.1a8.31,8.31,0,0,1,2.7-5.1c2.6-2.1,6.6-1.5,10.4-1,4,.6,7.8,1.1,10-1.3s2.6-5.8,3.1-9c.8-5.2,1.5-10.2,8-11.9a21.62,21.62,0,0,1,12.4.5c3.5,1,6.8,1.9,11-.6a23.27,23.27,0,0,0,6.3-6.2c3-3.9,5.6-7.2,13.2-6.3,6,.7,6.6,2.1,7,3.2.7,1.8,1.6,3.1,6.7,3.3a28,28,0,0,0,9.5-1.4c4.1-1.2,7.3-2.2,13.8,1.3C298,114.4,299.4,118.7,299.3,122.4Z" fill="#df2734"/><path d="M358.5,225.7a11.24,11.24,0,0,0-4.1-.4c-5.3-.1-9.2,2-12.5,4.1-.3.2-.7.4-1,.6-.3-.2-.6-.5-1-.8-1.9-1.8-5-5.3-8.3-8.9-4.2-4.8-2.8-9.3-1.3-13.9.9-2.9,1.9-5.9,1.5-9.1-.6-4.5-5.6-6.3-10-7.9-4.8-1.8-7.7-3-7.2-5.7a18.83,18.83,0,0,0-4.1-14.7,12.49,12.49,0,0,0-9.4-4.7h-.3c-6.3.2-9-3.4-9.6-5.3a4.33,4.33,0,0,1-.1-.5,56.59,56.59,0,0,1-.7-6.7v-4c.6-11.5,5.6-18.7,9.1-21.4a1.38,1.38,0,0,0,.4-.3,2.09,2.09,0,0,0,.4-.6,10.8,10.8,0,0,1,.8-2.6c.9-2.1,2.6-4.3,5.3-4.2,2.1.1,3.7,2,5.4,4.2,2.3,2.8,5.1,6.3,10.2,6.8,7.7.9,7.7,8.3,7.7,16.2,0,8.6,7.7,14.3,19.2,20.3,4.6,2.4,8,7,9.7,13.1,1.6,5.9,1,11.7-.5,13.9l-.4.7c-3,4.6-5.2,7.9.6,13.8C362,211.5,360.1,221,358.5,225.7Z" fill="#e73844"/><path d="M242.8,309.2c-.1,0-.2-.1-.3-.1C242.6,309.1,242.7,309.2,242.8,309.2Z" fill="#a74f51"/><path d="M251.4,311.5a31.78,31.78,0,0,1-8.5-2.3A34,34,0,0,0,251.4,311.5Z" fill="#a74f51"/><path d="M257.4,311.8h-.8a3.4,3.4,0,0,0,1-.1A.31.31,0,0,1,257.4,311.8Z" fill="#a74f51"/><path d="M273.9,307.4c-.2.1-.3.1-.5.2A.76.76,0,0,0,273.9,307.4Z" fill="#a74f51"/><path d="M242.5,309.1c.1,0,.2.1.3.1C242.7,309.2,242.6,309.1,242.5,309.1Zm12.3,2.7h0Zm1.7,0h0Zm16.9-4.2c.2-.1.3-.1.5-.2A.76.76,0,0,1,273.4,307.6Z" fill="#a74f51"/><path d="M277.3,304.4a1.09,1.09,0,0,0-1.1-.2,68.69,68.69,0,0,1-8,3.2,50.53,50.53,0,0,1-10.9,2.4c-7.2.5-14.8-2.6-17.8-4.4a1.06,1.06,0,0,0-1.2.1,1.13,1.13,0,0,0-.3,1.1l.5,1.3c2.8,6.7,7.9,18.8,19.4,18.8h1.3c11.6-.9,15.1-11.5,17.4-18.5q.45-1.5.9-2.7A.91.91,0,0,0,277.3,304.4Zm-2.5,3.1c-2.3,6.9-5.5,16.4-15.7,17.1s-15.2-9.3-18.1-16.3c.5.2,1,.5,1.6.7.1,0,.2.1.3.1h.1a45.43,45.43,0,0,0,8.5,2.3c.3,0,.5.1.8.1a21.12,21.12,0,0,0,2.6.2h1.8a3.4,3.4,0,0,0,1-.1,16.6,16.6,0,0,0,2.2-.3c.8-.1,1.6-.3,2.4-.4l1.2-.3,1.2-.3c1.3-.3,2.6-.7,3.9-1.1l1-.3a22.5,22.5,0,0,1,2.4-.8c.6-.2,1.1-.4,1.6-.6.2-.1.3-.1.5-.2a10.37,10.37,0,0,0,1-.4A1.55,1.55,0,0,0,274.8,307.5Z"/><path d="M274.9,307c-.1.2-.1.3-.2.5-2.3,6.9-5.5,16.4-15.7,17.1s-15.2-9.3-18.1-16.3c.5.2,1,.5,1.6.7.4,1.6,1.6,5.1,3.4,6.1a24,24,0,0,0,12.3,2.6c4.8-.4,10.7-1.9,13.4-4.6a9.49,9.49,0,0,0,2.3-5.8A1.69,1.69,0,0,0,274.9,307Z" fill="#a74f51"/><path d="M273.9,307.5c0,.2-.2,3.7-2.3,5.8-2.7,2.7-8.6,4.2-13.4,4.6a24.47,24.47,0,0,1-12.3-2.6c-1.9-1-3.1-4.5-3.4-6.1.1,0,.2.1.3.1h.1a32.85,32.85,0,0,0,8.5,2.3c.3,0,.5.1.8.1a21.12,21.12,0,0,0,2.6.2h2.8a16.6,16.6,0,0,0,2.2-.3c.8-.1,1.6-.3,2.4-.4l1.2-.3,1.2-.3c1.3-.3,2.6-.7,3.9-1.1l1-.3a22.5,22.5,0,0,1,2.4-.8c.6-.2,1.1-.4,1.6-.6A.54.54,0,0,1,273.9,307.5Z" fill="#fff"/><path d="M242.5,309.1c.1,0,.2.1.3.1C242.7,309.2,242.6,309.1,242.5,309.1Z" fill="#fff"/><path d="M256.5,311.8a3.4,3.4,0,0,0,1-.1h-.2A2,2,0,0,1,256.5,311.8Z" fill="#fff"/><path d="M273.9,307.4c-.2.1-.3.1-.5.2A.76.76,0,0,0,273.9,307.4Z" fill="#fff"/><path d="M235.7,247.9c-.8,5.4-3.9,9.4-7,8.9s-4.9-5.2-4.1-10.5,3.9-9.4,7-8.9S236.5,242.5,235.7,247.9Z"/><path d="M289.6,249.4c-.7,5.4-3.8,9.4-6.9,9s-5-5.1-4.2-10.5,3.8-9.4,6.9-9S290.4,244,289.6,249.4Z"/><path d="M308.6,229.9a1.49,1.49,0,0,1-.3.7c-.1,0-.1.1-.2.1a1.36,1.36,0,0,1-1.7-.1,21.27,21.27,0,0,0-7.9-4.8,28.51,28.51,0,0,0-5-1.4c-4.7-1-8.2,0-10.8.3-.7.1-2.2,0-2.4-2.1a1.32,1.32,0,0,1,1.2-1.4c1.6-.2,4.4-.9,7.5-1.4a7.72,7.72,0,0,1,1.5-.2,8.6,8.6,0,0,1,1.6-.1,15.17,15.17,0,0,1,4.3.2c4.9,1,7.9,5.4,11.8,9.3C308.5,229.1,308.6,229.5,308.6,229.9Z" fill="#e73844" fill-rule="evenodd"/><path d="M235.2,220c-.2.7-.7,1.4-1.4,1.2-4.6-1.2-9.6-.5-14,1a41.39,41.39,0,0,0-10.4,5.2,1.29,1.29,0,1,1-1.5-2.1c2.3-1.7,6.4-6.3,11.1-7.9s10.3-1.1,15.5.3C235.2,217.9,235.4,219.3,235.2,220Z" fill="#e73844" fill-rule="evenodd"/><path d="M254.6,294a1.05,1.05,0,0,1-.9.5c-.2,0-.3,0-.4-.1-1-.5-6.1-3.2-7-7.6a6.79,6.79,0,0,1,1.8-5.9c4.5-5.1,7-14.8,7.7-19.2a1,1,0,0,1,1.2-.8,1,1,0,0,1,.8,1.1c-.7,4.6-3.4,14.8-8.2,20.2a4.83,4.83,0,0,0-1.4,4.2c.5,2.5,3.3,4.9,5.9,6.2A1.05,1.05,0,0,1,254.6,294Z"/><path d="M445.3,434.7a.68.68,0,0,0-.4-.6c-.1,0-.1-.1-.2-.1-2.4-1-5-2-7.9-3.1-.2-.1-.4-.1-.5-.2-16.5-6.3-40.1-12.4-51.9-15.1a14.16,14.16,0,0,0,1.1-3.1c1.6-7-.3-18.2-3.9-22.6-1.5-1.8-.4-3.6,1.9-6.8,2.7-3.8,6.4-9,3.3-16.4a57.93,57.93,0,0,0-5.1-9.3c-4.2-6.7-7.8-12.4-4.6-24.7a49.68,49.68,0,0,1,6.2-14.2c3.1-5.2,5-8.4-1.9-14.3-5.3-4.6-6-9.2-6.5-13.2-.5-3.4-.9-6.6-4.1-8.9-1.1-.8-2.2-1.6-3.3-2.3-5.9-3.9-11-7.3-8.1-14.9,5.1-5.5,9-13.5,8-24.9-.6-7.1-2.9-11.7-7-13.7,1.6-4.5,4.1-15.2-.5-20.1s-3.3-6.9-.3-11.3l.4-.7c2-3.1,2.3-9.6.7-15.5-1.8-6.6-5.5-11.7-10.7-14.4-10.9-5.6-18.1-10.9-18.1-18.5,0-8,0-17.1-9.5-18.2-4.3-.5-6.6-3.4-8.9-6.1-2-2.5-3.9-4.8-6.9-4.9a6.92,6.92,0,0,0-5.6,2.7c-.6-3.5-2.6-7-7.3-9.5-7.3-4-11.2-2.8-15.4-1.5a24.58,24.58,0,0,1-8.8,1.4c-4.2-.2-4.5-1-4.9-2.1-.8-2-2-3.7-8.7-4.5-8.8-1.1-12,3.1-15,7a21,21,0,0,1-5.8,5.7c-3.5,2.1-6.1,1.3-9.5.4s-7.5-2.1-13.5-.5c-7.8,2-8.7,8.1-9.5,13.5-.5,3.1-.9,6.1-2.6,8-1.5,1.7-4.8,1.2-8.3.7-4.1-.6-8.7-1.2-11.9,1.4a11,11,0,0,0-3.4,6,1.21,1.21,0,0,0-.5.5,15.17,15.17,0,0,1-4.6,5.4,15.84,15.84,0,0,1-9.7,3.2c-11.5,0-11.9,7.1-12.3,14v.7c0,.7-.1,1.5-.1,2.2-.3,6.5-.6,12.6-6.3,14.2-4.4,1.3-7.8,3.8-9.5,7.2s-1.8,7.7,0,12.4c3.5,9.4.7,17.7-7.1,21.1-8,3.6-11.3,10.8-9.4,20.9,1.9,10.3,1.5,17.6-1.3,21a5.92,5.92,0,0,1-4.6,2.3c-4.2.2-8.4,3.4-11.1,8.5-3.8,7.3-3.8,16.1.2,22.5,4.8,7.8,4.7,17.9,2.6,23.9-1.1,3.3-2.8,5.5-4.7,6.2a17.59,17.59,0,0,0-10.1,11.1,14.14,14.14,0,0,0,2.5,12.8c4.6,6.2,9,12.1,8.2,16.6-.3,1.9-1.6,3.5-3.7,4.9a56.07,56.07,0,0,1-5.7,3.3c-4.3,2.2-6.7,3.4-5.7,10.4.1,1,.3,2.1.5,3.2,1.3,7.7,2.6,15-6.5,17.1-6.2,1.4-7.5,8.6-6.7,14.8,1.1,7.7,5.5,15.5,11.1,15.2a10.53,10.53,0,0,1,5.3.9,59.87,59.87,0,0,0-3.8,5,.37.37,0,0,0-.1.3.1.1,0,0,0,.1.1.31.31,0,0,0-.1.2c0,.1-.1.1-.1.2a1,1,0,0,0,.2,1.3c50.8,42.9,110.1,66.4,176.1,69.6,2.8.1,5.6.2,8.4.2,67.6,0,128.9-39.3,162.1-69.1a190.38,190.38,0,0,0,14.8-14.1A.59.59,0,0,0,445.3,434.7Zm-79-153.2c1.1.7,2.2,1.5,3.3,2.2,2.5,1.8,2.8,4.3,3.3,7.5.6,4.2,1.3,9.4,7.2,14.5,5.6,4.8,4.5,6.5,1.5,11.7a55,55,0,0,0-6.4,14.7c-3.4,13.1.6,19.5,4.8,26.2a58.56,58.56,0,0,1,4.9,9c2.6,6.3-.4,10.6-3.1,14.5-2.2,3.2-4.3,6.2-1.8,9.2,2.9,3.5,5.2,13.9,3.6,20.9a11.12,11.12,0,0,1-1.4,3.4c-29.6-6.4-62-10.3-84.9-6a3.11,3.11,0,0,1-2.6-.6,3,3,0,0,1-1.2-2.1l-5-44.7c9.8-5.1,19.1-13.1,27.3-23.7a129.77,129.77,0,0,0,25.6-62.5,42.31,42.31,0,0,0,15.3-8.2C355.6,274.5,361,278,366.3,281.5Zm-185.2,165a18.22,18.22,0,0,0-6.8-5.1,17.55,17.55,0,0,0-3.2-1.2c.4-1.9,1.3-3.2,3.2-3.6,1.4-.3,3.2-1.4,4.3-4.6,1.4-4.1,1.2-10.5-.2-16.9,8.1-.3,15.9-.3,23-.4,15.4-.1,26.6-.2,31-2.5,7.5-3.9,8.5-25,8.5-47.3a71.83,71.83,0,0,0,22.6,3.4,53.28,53.28,0,0,0,23.1-5.5l4.9,44a5.45,5.45,0,0,0,2,3.5,5.53,5.53,0,0,0,4.1,1c22.3-4.2,53.8-.5,82.7,5.6l1.4.3a4.25,4.25,0,0,0,1.1.2h.1l-.1.1c-.7,2.7-2.9,4.1-6,5.4-.5.2-.9.4-1.4.6s-.8.3-1.2.5h-.1c-6.1,2.4-13.6,5.3-15.7,15.6a22.79,22.79,0,0,1-12,15.9c-7.1,3.8-15.2,4-19.4,2.3-10.7-4.4-26.6-4.8-36.5,8.5a20.86,20.86,0,0,1-9.8,7.3,17.1,17.1,0,0,1-3,.9.6.6,0,0,0-.4.1c-.2,0-.5.1-.7.1h-.2c-.3,0-.6.1-.9.1a25.41,25.41,0,0,1-5.5.1,2.2,2.2,0,0,1-.8-.1c-.3,0-.6-.1-.9-.1s-.6-.1-.9-.1a18.73,18.73,0,0,1-3.4-.8,16.07,16.07,0,0,1-3.3-1.2,16.82,16.82,0,0,1-4.3-2.5c-10.9-9.1-24.1-10.5-40.4-4.3a48.81,48.81,0,0,1-6.6,2,23.34,23.34,0,0,1-3.5.6c-.4,0-.8.1-1.2.1h-.8c-.6,0-1.2.1-1.8.1h-1.2a16.56,16.56,0,0,1-3.3-.4c-.7-.1-1.3-.3-1.9-.4s-1.2-.3-1.7-.5c-.3-.1-.5-.2-.8-.3s-.3-.1-.5-.2a13,13,0,0,1-2.4-1.3l-.9-.6c-2.9-2.2-4-4.8-3.9-6.2A19.84,19.84,0,0,0,181.1,446.5Zm5.5-89.4c-5.7-9.9-5.2-15.4,2.5-29.8,3-5.6,4.7-8.9,5.4-11.6,4.5,11.8,10.5,22.6,18.4,31.3a63.57,63.57,0,0,0,25.8,17.4c0,16.3-.5,42.5-7.5,46.2-4,2.1-15.5,2.1-30.1,2.2-7.2,0-15.2.1-23.4.4a39.39,39.39,0,0,0-6-13.7c-2.2-2.8-3-5.4-2.5-7.8,1-4.8,7.4-8.6,12.8-11.4,4.9-2.6,7.6-5.2,8.5-8.4C191.9,367.7,189.9,363,186.6,357.1Zm7.2-46.3Zm.1,2.8Zm0-.1v0Zm0-1.4Zm171.4-71.8c.8,9.9-2.2,17.1-6.3,22.2a5,5,0,0,1-.7.8c-.3.3-.6.7-.9,1a38.18,38.18,0,0,1-17.3,9.9,1.08,1.08,0,0,0-.8.9,128.2,128.2,0,0,1-25.2,62.1c-8,10.3-16.9,18-26.3,23a11.94,11.94,0,0,1-1.6.8,20,20,0,0,1-2.1,1,50.74,50.74,0,0,1-20.6,4.5,71.38,71.38,0,0,1-22.6-3.5c-.3-.1-.7-.2-1-.3a4.18,4.18,0,0,1-1-.4,62.51,62.51,0,0,1-24.4-16.6c-8.7-9.5-15.1-21.6-19.6-34.9a49.84,49.84,0,0,0-1.6-7c-.3-1.1-.7-2.4-1-3.8-2.4-9.1-2-9.6.8-13.4a72.79,72.79,0,0,0,5.2-8.2c4.3-8.1,3.6-9.6.1-12.1a18.27,18.27,0,0,1-6.2-7.3c-5-10.5-4.8-10.6,5-16.2l.7-.4c8.3-4.8,6-9.9,3.4-15.9a46.35,46.35,0,0,1-2.9-8c-.8-3.2-.6-5.6.5-7.3,1.7-2.7,5.7-3.6,9.8-4.4l1.1-.2c7.4-1.6,16-7.1,15.4-17.2-.3-5.4.1-8,1.5-9.3a2.18,2.18,0,0,1,.5-.4,3.13,3.13,0,0,1,1-.5c.4-.1.8-.2,1.4-.3a22.62,22.62,0,0,1,3.7,0c2.8.2,4.6.1,5.6-.8s.9-2.1.9-3.6a23.72,23.72,0,0,1,.6-5.9l.3-1c.9-3.8,1.8-7.4,5-9.3,3.6-2.1,9.9-1.8,19.3.9,14,4,21.7,3.4,24.9,1.2,1.2,2.5,4.6,6.1,11.3,5.9h.3a9.94,9.94,0,0,1,7.8,4,16.65,16.65,0,0,1,3.7,13c-.9,4.6,3.9,6.3,8.5,8,4.1,1.5,8.3,3,8.7,6.3.3,2.7-.5,5.4-1.4,8.2-1.6,4.8-3.3,10.2,1.7,15.9,5.8,6.5,8.5,9.4,9.9,10.3.1.1.2.2.3.2a.9.9,0,0,0,.5.1.76.76,0,0,0,.5-.2l.2-.1c3.6-2.4,7.3-4.8,12.9-4.7a18.44,18.44,0,0,1,3.9.4,3.55,3.55,0,0,1,.9.4C362.8,229.7,364.8,233.8,365.3,240.3ZM300,126.1a2.09,2.09,0,0,0,.4-.6,10.8,10.8,0,0,1,.8-2.6c.9-2.1,2.6-4.3,5.3-4.2,2.1.1,3.7,2,5.4,4.2,2.3,2.8,5.1,6.3,10.2,6.8,7.7.9,7.7,8.3,7.7,16.2,0,8.6,7.7,14.3,19.2,20.3,4.6,2.4,8,7,9.7,13.1,1.6,5.9,1,11.7-.5,13.9l-.4.7c-3,4.6-5.2,7.9.6,13.8,3.7,3.8,1.8,13.4.1,18a11.24,11.24,0,0,0-4.1-.4c-5.3-.1-9.2,2-12.5,4.1-.3.2-.7.4-1,.6-.3-.2-.6-.5-1-.8-1.9-1.8-5-5.3-8.3-8.9-4.2-4.8-2.8-9.3-1.3-13.9.9-2.9,1.9-5.9,1.5-9.1-.6-4.5-5.6-6.3-10-7.9-4.8-1.8-7.7-3-7.2-5.7a18.83,18.83,0,0,0-4.1-14.7,12.49,12.49,0,0,0-9.4-4.7h-.3c-6.3.2-9-3.4-9.6-5.3a4.33,4.33,0,0,1-.1-.5,56.59,56.59,0,0,1-.7-6.7v-4c.6-11.5,5.6-18.7,9.1-21.4A1.07,1.07,0,0,0,300,126.1ZM178.2,148.6v-.4c0-.4.1-.8.1-1.1s.1-.7.2-1.1a8.31,8.31,0,0,1,2.7-5.1c2.6-2.1,6.6-1.5,10.4-1,4,.6,7.8,1.1,10-1.3s2.6-5.8,3.1-9c.8-5.2,1.5-10.2,8-11.9a21.62,21.62,0,0,1,12.4.5c3.5,1,6.8,1.9,11-.6a23.27,23.27,0,0,0,6.3-6.2c3-3.9,5.6-7.2,13.2-6.3,6,.7,6.6,2.1,7,3.2.7,1.8,1.6,3.1,6.7,3.3a28,28,0,0,0,9.5-1.4c4.1-1.2,7.3-2.2,13.8,1.3a11.34,11.34,0,0,1,6.4,10.9,13.61,13.61,0,0,0-.7,2.2c-3.7,2.9-9.2,10.5-10,22.5v2.1a45.43,45.43,0,0,0,.6,8.8c-.7.8-2.8,1.9-7.3,1.9-3.7,0-9-.7-16.5-2.9-10.1-2.9-16.7-3.1-20.8-.7-3.9,2.3-4.9,6.5-5.9,10.5l-.3,1a24.39,24.39,0,0,0-.7,6.4c0,1,0,1.9-.3,2.1-.5.5-3.2.3-4.1.3a13.44,13.44,0,0,0-6.1.6,9.29,9.29,0,0,0-1,.5,5.55,5.55,0,0,0-.8.6l-.1.1c-2.1,2.1-2.3,5.7-2,10.8.5,8.9-6.8,13.6-13.8,15.1l-1.1.2c-4.4.9-8.9,1.9-11.1,5.3-1.4,2.2-1.6,5.1-.7,8.8a46.61,46.61,0,0,0,3.1,8.3c2.6,5.9,4.2,9.4-2.6,13.3l-.7.4c-10.5,6-11.4,7-5.8,18.8a18.34,18.34,0,0,0,6.8,8c2.5,1.8,3.2,2.3-.7,9.5a67.64,67.64,0,0,1-5,7.9,23.27,23.27,0,0,0-2.3,3.6,8.56,8.56,0,0,0-.5,2.3c-.1,2,.4,4.6,1.6,9.1.4,1.4.7,2.7,1,3.9a48.22,48.22,0,0,1,1.6,6.8c.5,4-.9,6.8-5.5,15.3-7.5,14-8.9,20.6-2.5,31.8,3.6,6.4,4.8,10.2,3.9,13.2-.8,2.6-3.1,4.9-7.5,7.2-6.2,3.2-12.6,7.3-13.8,12.8-.6,3,.3,6.2,2.9,9.4a37.14,37.14,0,0,1,5.6,12.5c.1.3.2.7.3,1a3.55,3.55,0,0,1,.2,1c1.4,6.1,1.7,12.4.3,16.2-.6,1.9-1.6,3-2.9,3.3a5.94,5.94,0,0,0-4.6,5.1c-.1.3-.1.6-.2,1a3.4,3.4,0,0,0-.1,1c-.1,1.5-.1,3.2-.1,4.9,0,4.8,0,10.2-2.6,15.1a3.13,3.13,0,0,1-.9,1.1,6,6,0,0,1-1.6.8,7.42,7.42,0,0,1-4.2.1,9.81,9.81,0,0,1-2.1-.9,4.89,4.89,0,0,1-1.3-1.2,4.5,4.5,0,0,1-1-3c0-5.4-4.6-5.7-8.4-5.9-2-.1-4.1-.2-5.6-1a9.52,9.52,0,0,0-4.5-.8h-.9c-2.2,0-4.3,0-5.5-1.2-.9-.8-1.3-2.3-1.3-4.5,0-7.3-4.8-8.1-8.6-8.8a11,11,0,0,1-5.1-1.7,9,9,0,0,0-3.2-1.4c-2-.5-3.3-.8-3.5-4.5v-.6c0-.3-.1-.6-.1-.8v-.1a2.92,2.92,0,0,0-.2-.9c0-.1,0-.1-.1-.2-.1-.3-.2-.5-.3-.8a5.59,5.59,0,0,0-3.5-3.2,3.39,3.39,0,0,1-1.8-1.2,8.29,8.29,0,0,0-2.4-2.2c-1.8-1.3-2.8-2-1.7-4.7,1.5-3.5.2-5.7-.8-7.6a6.47,6.47,0,0,1-1.1-3.2c-.1-2.9.4-8.5,3.2-11.2a5,5,0,0,1,3.9-1.4c5.1.3,6-3.3,6.7-6.6s1.5-6.6,5.8-8.2c4.9-1.8,8.2-4.6,9.6-8.2,1.3-3.3,1-7-1-10.9-3.6-7.2-1.4-14.4,5.7-18.4,5.3-3,7.5-5,7.7-7.3s-1.5-4-3-5.4c-4.1-3.7-6.1-14.2.1-22.4,7-9.1,7.3-20.6,3.6-26.4-3.4-5.3-2.1-15.4,8.9-25,5.8-5,4.4-11.4,3-18.1-1.6-7.7-3.3-15.7,5.1-23.3,8.9-8.1,5.9-12.6,3.1-17-2.7-4.1-5.2-7.9.6-15.5a64.61,64.61,0,0,1,10.7-11.4C174.7,162.8,177.2,160.6,178.2,148.6ZM82.1,438.8c-4.3.3-8.1-6.8-9-13.4-.8-5.4.2-11.5,5.1-12.6,10.9-2.4,9.4-11.4,8-19.4-.2-1.1-.4-2.1-.5-3.1-.8-5.6.3-6.2,4.6-8.4a44.49,44.49,0,0,0,5.9-3.4c2.7-1.8,4.2-3.8,4.6-6.2.9-5.3-3.7-11.5-8.6-18.1A12.2,12.2,0,0,1,90,343.1a15.64,15.64,0,0,1,8.9-9.8c2.5-.9,4.6-3.5,5.9-7.4,2.2-6.5,2.3-17.3-2.8-25.6-4.3-7-2.7-15.5-.1-20.5,2.4-4.5,5.9-7.3,9.4-7.5a8,8,0,0,0,6-3c3.9-4.9,3-15,1.6-22.6-1.7-9.2,1.1-15.6,8.3-18.7,8.8-3.9,12-13.2,8.1-23.7-1.6-4.2-1.6-7.8-.1-10.8s4.4-5.1,8.3-6.2c7.1-2,7.5-9.5,7.8-16,0-.7.1-1.5.1-2.2v-.7c.2-3.5.4-6.5,1.7-8.7s3.8-3.4,8.6-3.4a18.09,18.09,0,0,0,14.2-6.8c-1,10.1-2.9,11.9-7.4,15.9a68.67,68.67,0,0,0-10.9,11.7c-6.6,8.7-3.3,13.7-.7,17.8s4.9,7.5-2.7,14.4c-9.2,8.3-7.3,17.3-5.7,25.2,1.3,6.4,2.5,12-2.4,16.2-11.9,10.3-13.1,21.5-9.3,27.5,3.3,5.1,2.9,15.8-3.5,24.1-7,9.2-4.7,20.8.1,25.1,1.7,1.5,2.5,2.7,2.3,3.7-.2,1.5-2.2,3.3-6.7,5.8-7.9,4.5-10.5,12.9-6.5,21,1.6,3.3,2,6.5.9,9.3-1.2,3-4.1,5.5-8.4,7-5.3,2-6.3,6.2-7.1,9.6s-1.3,5.2-4.6,5a6.79,6.79,0,0,0-5.4,2c-3,2.9-3.9,8.7-3.8,12.7a8,8,0,0,0,1.4,4.1c1,1.7,1.8,3.2.8,5.8-1.7,4.2.7,5.9,2.4,7.1a6.38,6.38,0,0,1,1.9,1.7,5.2,5.2,0,0,0,2.7,1.9,4.07,4.07,0,0,1,2.6,2.4,70.91,70.91,0,0,0-10,7.1,56.37,56.37,0,0,0-7.2,6.6A11.19,11.19,0,0,0,82.1,438.8Zm346.6,9.6a.1.1,0,0,0-.1.1,289.67,289.67,0,0,1-28.2,22.2.1.1,0,0,0-.1.1c-6.4,4.5-13.3,8.9-20.6,13.1-.1,0-.1.1-.2.1-2.2,1.3-4.4,2.5-6.7,3.7a.1.1,0,0,0-.1.1c-32.4,17.6-71.6,30.9-112.9,28.9a296.83,296.83,0,0,1-46.6-5.9c-.4-.1-.8-.1-1.1-.2-1.9-.3-3.7-.7-5.5-1.1.8.2,1.5.3,2.3.5a278.1,278.1,0,0,1-69.1-25.3.35.35,0,0,1-.2-.1,299.24,299.24,0,0,1-54-36.4c.1-.2.3-.4.4-.6a50,50,0,0,1,3.3-4.3,5,5,0,0,1,.7-.8,5,5,0,0,1,.7-.8,69.46,69.46,0,0,1,6.1-5.9.35.35,0,0,1,.2-.1,64.09,64.09,0,0,1,9.7-6.2c.4,4.9,2.9,5.5,5,6a4.4,4.4,0,0,1,2.3,1c1.7,1.4,3.9,1.8,6,2.2,3.9.7,7,1.2,7,6.8,0,2.7.6,4.6,1.9,5.9,1.8,1.8,4.5,1.8,7,1.7a12.41,12.41,0,0,1,4.5.5c1.9,1,4.2,1.1,6.4,1.2,4.3.2,6.5.5,6.5,3.9a7.63,7.63,0,0,0,.5,2.7,3.88,3.88,0,0,0,.6,1.1,10.63,10.63,0,0,0,.9,1.1,8.19,8.19,0,0,0,3.9,2.1,10.07,10.07,0,0,0,2.5.3,9.07,9.07,0,0,0,4.3-1,8.34,8.34,0,0,0,1.2-.8,6.47,6.47,0,0,0,.8-.9,2.19,2.19,0,0,0,.3-.5c2.9-5.4,2.8-11.3,2.8-16,0-1.7,0-3.1.1-4.4A17.88,17.88,0,0,1,180,448a15.56,15.56,0,0,1,3.6,11.1c-.2,2,.9,4.4,3,6.5a15.38,15.38,0,0,0,1.3,1.2l.3.3a8.51,8.51,0,0,0,1.4.9c3.3,2.1,9.8,4.6,19.9,2.4a26.81,26.81,0,0,0,2.7-.7c.8-.2,1.6-.5,2.4-.7a18,18,0,0,0,2.1-.8c23.1-8.8,34.6.8,38.4,3.9a3.59,3.59,0,0,0,1,.7c.5.4,1.2.7,1.8,1.1a13.35,13.35,0,0,0,2.4,1.1,32.77,32.77,0,0,0,15.6,2.1,21.64,21.64,0,0,0,5.3-1.2c.8-.3,1.5-.6,2.3-.9l1.8-.9a25,25,0,0,0,7.1-6.3c9.2-12.4,24.1-12,34.2-7.9,5.5,2.3,14.2,1.3,21.1-2.4a24.51,24.51,0,0,0,13-17.3c1.7-8.5,7.4-11.4,12.9-13.6.4-.2.8-.3,1.2-.5.2,0,.3-.1.5-.2s.5-.2.8-.3c4.3-1.7,8.3-3.4,9.2-7.7a444.87,444.87,0,0,1,51.1,14.6h.1c2.3.9,4.4,1.7,6.3,2.6C438.4,439.3,433.9,443.7,428.7,448.4Z"/></g></g></svg>