<svg xmlns="http://www.w3.org/2000/svg" viewBox="0 0 515.4 515.4"><title>Asset 21</title><g id="Layer_2" data-name="Layer 2"><g id="Слой_1" data-name="Слой 1"><path d="M148.9,300.9a1,1,0,0,1-.8,1.2h-.2a1,1,0,0,1-1-.8c-8.8-39.4-3.8-77.1,0-91.6a1.09,1.09,0,0,1,1.2-.7,1,1,0,0,1,.7,1.2C145.1,224.5,140.2,261.9,148.9,300.9Z" fill="#bd8540"/><path d="M319.4,288.8a1.7,1.7,0,0,1-.1.7,1.14,1.14,0,0,0,.3.8A7.72,7.72,0,0,0,319.4,288.8Z" fill="#f2f2f2"/><path d="M134.2,383.5c0,.5-.1,1.1-.1,1.6a1.42,1.42,0,0,0,.2-.6A3.75,3.75,0,0,0,134.2,383.5Zm0,0c0,.5-.1,1.1-.1,1.6a1.42,1.42,0,0,0,.2-.6A3.75,3.75,0,0,0,134.2,383.5ZM257.7,0C115.4,0,0,115.4,0,257.7A255.4,255.4,0,0,0,69.1,433a6.8,6.8,0,0,1-.3-1.9.91.91,0,0,1,.3-.7c1.9-1.9,45.3-44.8,63.1-46.6v-.1c-5-55.7-11.8-164.9-2-187.3,6.2-14.2,15.3-32.3,31.3-46.8,18.6-16.9,42.9-25.5,72.2-25.5,33,0,60,10.7,80.4,31.9,19.9,20.7,33,50.9,39.1,89.9l.6.9c.1,0,.1.1.2.2,14.2,23,17,46.1,16.6,56.3,17.3,16.2,50.3,55.6,54.3,92,1.7,2.1,3.7,4.5,5.9,7,7.9,9.2,16.8,19.7,18,27.6a254.84,254.84,0,0,0,66.6-172.3C515.3,115.4,400,0,257.7,0ZM134.2,383.5c0,.5-.1,1.1-.1,1.6a1.42,1.42,0,0,0,.2-.6A3.75,3.75,0,0,0,134.2,383.5Zm0,0c0,.5-.1,1.1-.1,1.6a1.42,1.42,0,0,0,.2-.6A3.75,3.75,0,0,0,134.2,383.5Zm0,0c0,.5-.1,1.1-.1,1.6a1.42,1.42,0,0,0,.2-.6A3.75,3.75,0,0,0,134.2,383.5Z" fill="#f2f2f2"/><path d="M448.7,430c-1.2-7.9-10.1-18.4-18-27.6-2.1-2.5-4.2-4.9-5.9-7-4-36.3-37-75.8-54.3-92,.5-10.2-2.4-33.4-16.6-56.3-.1-.1-.1-.2-.2-.2l-.6-.9c-6.1-39-19.2-69.3-39.1-89.9-20.3-21.1-47.4-31.9-80.4-31.9-29.3,0-53.6,8.6-72.2,25.5-16,14.5-25.1,32.6-31.3,46.8-9.8,22.4-3,131.7,2,187.3v.1c-17.8,1.8-61.2,44.7-63.1,46.6a1.08,1.08,0,0,0-.3.7,6.28,6.28,0,0,0,.3,1.9c2.8,9.7,23.6,24.4,40,34.7A256.06,256.06,0,0,0,199.7,508c15.6,4.3,32,7.4,47.1,7.4h2.1c8.1-.2,16-.7,23.7-1.4a257.73,257.73,0,0,0,155.7-64l.1-.1a202.63,202.63,0,0,0,20-18.1,1.14,1.14,0,0,0,.3-.8A1.7,1.7,0,0,0,448.7,430ZM368.4,303.7v.9c-1.6,28.9-15.2,65-26.4,89.2,17.1-52.6,16.4-111.1,12.8-140.9C360.9,264.7,368.7,284.7,368.4,303.7ZM249.1,514.3a143.16,143.16,0,0,1-28.7-2.6,284.21,284.21,0,0,0,30.8,2.6Zm145.8-43.4c-31,18.7-81.4,41.2-145.8,42.4-51.1,1-118.2-35.1-118.9-35.4-11.1-6.1-34.3-20.1-48.2-32.1a72.17,72.17,0,0,1-6.2-6c-2.9-3.2-4.7-6-5-8.4,4.1-4,45-43.8,61.3-45.7-.2,16.9,8.1,50.9,42.1,80.4a.84.84,0,0,0,.7.2,1.14,1.14,0,0,0,.8-.3,1,1,0,0,0-.1-1.4c-33.9-29.3-41.8-63.1-41.4-79.4a8.08,8.08,0,0,1,.1-1.6c0-.5.1-.9.1-1.3a1.14,1.14,0,0,0-.3-.8c-5-56.1-11.5-162.5-2-184.3,14.5-33.1,39.1-71,101.7-71,64.7,0,105.4,41.6,117.5,120.3,0,.1.1.3.1.4a14.8,14.8,0,0,1,.8,1.3c4.5,30.5,6.4,103.3-18.6,162.7a1,1,0,0,0,.5,1.3.6.6,0,0,0,.4.1,1.05,1.05,0,0,0,.9-.5c11.1-20.5,32.5-68.6,35-105.7,17.4,16.7,48.8,54.9,52.5,89.8a.76.76,0,0,0,.2.5c1.8,2.2,3.9,4.7,6.1,7.3,7.5,8.8,16.8,19.6,17.7,27C444.3,433.3,426.1,452.1,394.9,470.9Zm50.7-37.6c.8-.8,1.5-1.6,2.2-2.4v.1S447.1,431.8,445.6,433.3Z" fill="#bd8540"/><path d="M319.4,288.8a1.7,1.7,0,0,1-.1.7,1.14,1.14,0,0,0,.3.8A7.72,7.72,0,0,0,319.4,288.8Z" fill="#fac46e"/><path d="M447.8,430.9c-.7.8-1.5,1.6-2.2,2.4a17.26,17.26,0,0,0,2.2-2.4ZM134.2,383.5c0,.5-.1,1.1-.1,1.6a1.42,1.42,0,0,0,.2-.6A3.75,3.75,0,0,0,134.2,383.5Z" fill="#fac46e"/><path d="M447.8,430.9c-.7.8-1.5,1.6-2.2,2.4a17.26,17.26,0,0,0,2.2-2.4ZM134.2,383.5c0,.5-.1,1.1-.1,1.6a1.42,1.42,0,0,0,.2-.6A3.75,3.75,0,0,0,134.2,383.5Zm0,0c0,.5-.1,1.1-.1,1.6a1.42,1.42,0,0,0,.2-.6A3.75,3.75,0,0,0,134.2,383.5Z" fill="#bd8540"/><path d="M429.2,403.6c-2.2-2.6-4.4-5.1-6.1-7.3-.1-.2-.2-.3-.2-.5-3.7-35-35-73.1-52.5-89.8-2.5,37.1-23.9,85.2-35,105.7a1.05,1.05,0,0,1-.9.5.6.6,0,0,1-.4-.1,1,1,0,0,1-.5-1.3c25-59.4,23.1-132.1,18.6-162.7a14.8,14.8,0,0,0-.8-1.3c-.1-.1-.1-.2-.1-.4-12.1-78.7-52.8-120.3-117.5-120.3-62.6,0-87.2,38-101.7,71-9.5,21.8-3,128.2,2,184.3a1.14,1.14,0,0,1,.3.8c0,.4-.1.9-.1,1.3s.1.7.1,1,0,.5-.2.6c-.4,16.3,7.5,50,41.4,79.4a1,1,0,0,1,.1,1.4,1.14,1.14,0,0,1-.8.3,1.85,1.85,0,0,1-.7-.2c-34-29.5-42.3-63.4-42.1-80.4-16.3,1.9-57.3,41.7-61.3,45.7.3,2.3,2.1,5.2,5,8.4a72.17,72.17,0,0,0,6.2,6c13.9,12,37,26,48.2,32.1.7.4,67.7,36.4,118.9,35.4,64.5-1.3,114.9-23.8,145.8-42.4,31.2-18.8,49.4-37.6,51.9-40.2C446,423.3,436.7,412.4,429.2,403.6ZM148.1,302.1h-.2a1,1,0,0,1-1-.8c-8.8-39.4-3.8-77.1,0-91.6a1.09,1.09,0,0,1,1.2-.7,1,1,0,0,1,.7,1.2c-3.8,14.3-8.7,51.6,0,90.6A1,1,0,0,1,148.1,302.1Zm134.2,69.1c-29,14.7-41.7,31.2-43.7,40.9a1,1,0,0,1-2,0c-3.4-14.8-22.8-23.9-38.3-31.1-5-2.3-9.7-4.5-13.4-6.7a1,1,0,0,1-.3-1.4,1.11,1.11,0,0,1,1.4-.4c3.6,2.1,8.3,4.3,13.2,6.6,1.6.8,3.3,1.5,5,2.4-9.3-5.7-17.7-11-20.8-16.5.4.2.8.3,1.2.5-1.5-1.4-2.9-2.8-4.3-4.3-25.9-28.1-35.1-72.5-32.7-101.9,6.4-78.9,55.1-100.2,79.9-100.4,46.4,0,84.3,80,92.2,125.7,2.2-35.8-10.6-76.5-18-93.6a1,1,0,0,1,1.8-.8c7.8,18.1,21.6,62.3,17.8,99.5a.85.85,0,0,1-.7.8,78.82,78.82,0,0,1,.6,9.3c0,16.4-9.8,37.9-25,54.8A104.58,104.58,0,0,1,274,373.3c.2,0,.3-.1.5-.1,2.2-1.2,4.5-2.5,6.9-3.7a.88.88,0,0,1,1.3.4A.92.92,0,0,1,282.3,371.2Zm45.6,58.4c-5.8,10.6-22.4,35.5-43.1,53.8a.91.91,0,0,1-.7.3,1.33,1.33,0,0,1-.8-.3,1,1,0,0,1,.1-1.4c20.5-18.1,36.9-42.7,42.7-53.2a1,1,0,0,1,1.4-.4C328,428.5,328.1,429.1,327.9,429.6Z" fill="#fac46e"/><path d="M319.4,288.8a1.7,1.7,0,0,1-.1.7,1.14,1.14,0,0,0,.3.8A7.72,7.72,0,0,0,319.4,288.8Z" fill="#bd8540"/><path d="M321.3,289.7a.85.85,0,0,1-.7.8q-.3-2.85-.9-6c2.2-35.8-10.6-76.5-18-93.6a1,1,0,0,1,1.8-.8C311.4,208.3,325.2,252.4,321.3,289.7Z" fill="#bd8540"/><path d="M368.5,304v.6c-1.6,28.9-15.2,65-26.4,89.2,17.1-52.6,16.4-111.1,12.8-140.9,6.1,11.8,13.9,31.8,13.6,50.8C368.4,303.8,368.5,303.9,368.5,304Z" fill="#f9b95e"/><path d="M274.5,373.1c-22.1,12.5-33.3,25.7-36.9,35.3-4.8-12.3-19.7-20.4-33.4-26.9-9.3-5.7-17.7-11-20.8-16.5.4.2.8.3,1.2.5,13.9,13.2,30.2,19.9,48.6,19.9,14.1,0,28-4.2,40.9-12.1A.76.76,0,0,1,274.5,373.1Z" fill="#f2ad56"/><path d="M282.3,371.2c-29,14.7-41.7,31.2-43.7,40.9a1,1,0,0,1-2,0c-3.4-14.8-22.8-23.9-38.3-31.1-5-2.3-9.7-4.5-13.4-6.7a1,1,0,0,1-.3-1.4,1.11,1.11,0,0,1,1.4-.4c3.6,2.1,8.3,4.3,13.2,6.6,1.6.8,3.3,1.5,5,2.4,13.7,6.5,28.7,14.6,33.4,26.9,3.6-9.6,14.8-22.8,36.9-35.3,2.2-1.2,4.5-2.5,6.9-3.7a.88.88,0,0,1,1.3.4A1,1,0,0,1,282.3,371.2Z" fill="#bd8540"/><path d="M327.9,429.6c-5.8,10.6-22.4,35.5-43.1,53.8a.91.91,0,0,1-.7.3,1.33,1.33,0,0,1-.8-.3,1,1,0,0,1,.1-1.4c20.5-18.1,36.9-42.7,42.7-53.2a1,1,0,0,1,1.4-.4C328,428.5,328.1,429.1,327.9,429.6Z" fill="#bd8540"/><path d="M319.4,288.8a1.7,1.7,0,0,1-.1.7,1.14,1.14,0,0,0,.3.8A7.72,7.72,0,0,0,319.4,288.8Z" fill="#ffc1a8"/><path d="M319.4,288.8a1.7,1.7,0,0,1-.1.7,1.14,1.14,0,0,0,.3.8A7.72,7.72,0,0,0,319.4,288.8Z" fill="#aa5d2b"/><path d="M296.4,223c-8.5-4.8-24.9-15.8-31.6-25.9-3.3,6.8-14.9,21.6-34.9,26.5a21.29,21.29,0,0,0,3.7-10c-4.1,4-14.8,12.3-24.1,13.3s-14.1,2.3-15.4,2.9c1.1-2.2,5.1-7.4,12-10.4-5.8-.7-20.1,1.1-30.7,13.7l-7.5,9.1c-.3-4.6.8-15.5,7.5-22.8a43.92,43.92,0,0,0-24,24.2c-.8,5-1.5,10.2-2,15.7-.2,2.9-.4,6-.4,9.2,0,28.4,9.6,66.3,32.6,91.1a87.6,87.6,0,0,0,8.3,7.9A66,66,0,0,0,233,383.2a73.38,73.38,0,0,0,32.7-7.9c32.5-16.1,53.3-53.2,53.3-75.7C319.3,280.3,310,249.8,296.4,223ZM186,255.4a36.24,36.24,0,0,0-9.2,5.5,1.22,1.22,0,0,1-1.6-.1,1.12,1.12,0,0,1,.1-1.6,38.19,38.19,0,0,1,9.8-5.8,25.25,25.25,0,0,1,14.2-2,1.13,1.13,0,0,1,.9,1.3,1.18,1.18,0,0,1-1.4.9C194.6,252.8,190,253.8,186,255.4Zm13.8,33.1c-3.2.7-6.9-3.3-8.2-9s.3-10.9,3.6-11.6,6.9,3.3,8.2,9S203.1,287.8,199.8,288.5Zm24.6,12.8c3.8-6.3,4.6-17,4.6-21.8a1,1,0,0,1,1-1,.94.94,0,0,1,1,1c.1,5-.8,16.2-4.9,22.9a5.32,5.32,0,0,0-.7,4.8c1,2.6,4.5,4.6,7.4,5.5a1.09,1.09,0,0,1,.7,1.2,1,1,0,0,1-1,.7h-.3c-1.2-.3-7-2.3-8.7-6.7A7.25,7.25,0,0,1,224.4,301.3Zm21.9,40.9a24.21,24.21,0,0,1-13.6,6.8c-5.4.7-10.1-2-13.8-5.5a36,36,0,0,1-7.8-11.1.83.83,0,0,1,.3-1.1.78.78,0,0,1,1.1,0c4.7,3.5,12.5,4.6,20.2,4s15-2.8,18.6-5.4a1.18,1.18,0,0,1,1-.1,1.05,1.05,0,0,1,.5.9C252.3,334.5,249.8,338.8,246.3,342.2ZM262,282.9c-3.3.2-6.3-4.4-6.5-10.3s2.2-10.7,5.5-10.8,6.3,4.4,6.5,10.3C267.8,277.8,265.3,282.7,262,282.9Zm18.7-31.7a1.12,1.12,0,0,1-1.6.1c-3.3-2.8-7.7-4.2-12.1-4.8a37,37,0,0,0-10.7.1,1.17,1.17,0,0,1-.4-2.3,38.41,38.41,0,0,1,11.4-.1c4.5.6,9.5,2.1,13.3,5.3A1.15,1.15,0,0,1,280.7,251.2Z" fill="#ffc1a8"/><path d="M296.4,223c-8.5-4.8-24.9-15.8-31.6-25.9-3.3,6.8-14.9,21.6-34.9,26.5a21.29,21.29,0,0,0,3.7-10c-4.1,4-14.8,12.3-24.1,13.3s-14.1,2.3-15.4,2.9c1.1-2.2,5.1-7.4,12-10.4-5.8-.7-20.1,1.1-30.7,13.7l-7.5,9.1c-.3-4.6.8-15.5,7.5-22.8a43.92,43.92,0,0,0-24,24.2c11-64.6,53.6-82.6,76-82.8,29.7,0,53.2,34,64.6,54.3C293.6,217.8,295,220.4,296.4,223Z" fill="#2d140f"/><path d="M320.6,290.5q-.3-2.85-.9-6c-7.8-45.7-45.8-125.7-92.2-125.7-24.8.2-73.5,21.5-79.9,100.4-2.4,29.3,6.8,73.7,32.7,101.9,1.4,1.5,2.8,2.9,4.3,4.3,13.9,13.2,30.2,19.9,48.6,19.9,14.1,0,28-4.2,40.9-12.1a104.1,104.1,0,0,0,22.2-18.7c15.2-16.9,25-38.4,25-54.8A81.85,81.85,0,0,0,320.6,290.5Zm-54.7,85a73.38,73.38,0,0,1-32.7,7.9,66.18,66.18,0,0,1-43.1-15.7,101.57,101.57,0,0,1-8.3-7.9c-22.9-24.9-32.6-62.7-32.6-91.1a90.39,90.39,0,0,1,.4-9.2c.5-5.5,1.1-10.8,2-15.7,11-64.6,53.6-82.6,76-82.8,29.7,0,53.2,34,64.6,54.3l4.2,7.8c13.7,26.8,22.9,57.3,22.9,76.8C319.3,322.3,298.4,359.3,265.9,375.5Zm53.5-86a1.7,1.7,0,0,1,.1-.7c.1.5.1,1,.2,1.5A.67.67,0,0,1,319.4,289.5Z" fill="#aa5d2b"/><path d="M199.8,288.5c-3.2.7-6.9-3.3-8.2-9s.3-10.9,3.6-11.6,6.9,3.3,8.2,9S203.1,287.8,199.8,288.5Z"/><path d="M262,282.9c-3.3.2-6.3-4.4-6.5-10.3s2.2-10.7,5.5-10.8,6.3,4.4,6.5,10.3C267.8,277.8,265.3,282.7,262,282.9Z"/><path d="M280.7,251.2a1.12,1.12,0,0,1-1.6.1c-3.3-2.8-7.7-4.2-12.1-4.8a37,37,0,0,0-10.7.1,1.17,1.17,0,0,1-.4-2.3,38.41,38.41,0,0,1,11.4-.1c4.5.6,9.5,2.1,13.3,5.3A1.15,1.15,0,0,1,280.7,251.2Z" fill-rule="evenodd"/><path d="M200.2,252.6a1.18,1.18,0,0,1-1.4.9c-4.3-.8-8.8.2-12.8,1.9a36.24,36.24,0,0,0-9.2,5.5,1.22,1.22,0,0,1-1.6-.1,1.12,1.12,0,0,1,.1-1.6,38.19,38.19,0,0,1,9.8-5.8,25.25,25.25,0,0,1,14.2-2A1,1,0,0,1,200.2,252.6Z" fill-rule="evenodd"/><path d="M233.5,313.8a1,1,0,0,1-1,.7h-.3c-1.2-.3-7-2.3-8.7-6.7a7.25,7.25,0,0,1,.9-6.6c3.8-6.3,4.6-17,4.6-21.8a1,1,0,0,1,1-1,.94.94,0,0,1,1,1c.1,5-.8,16.2-4.9,22.9a5.32,5.32,0,0,0-.7,4.8c1,2.6,4.5,4.6,7.4,5.5A.92.92,0,0,1,233.5,313.8Z"/><path d="M252.3,329.9a.92.92,0,0,0-1,.1c-3.6,2.7-10.9,4.9-18.6,5.4s-15.5-.5-20.2-4a.9.9,0,0,0-1.1,0,1.13,1.13,0,0,0-.3,1.1,37.74,37.74,0,0,0,7.8,11.1c3.7,3.5,8.4,6.1,13.8,5.5a25.2,25.2,0,0,0,13.6-6.8c3.5-3.4,6-7.6,6.4-11.4A1.05,1.05,0,0,0,252.3,329.9Zm-32.1,12.4a37.45,37.45,0,0,1-6-7.7c5.1,2.5,12,3.1,18.6,2.6,6.8-.5,13.4-2.3,17.7-4.6a21.11,21.11,0,0,1-5.4,8.3,22.68,22.68,0,0,1-12.5,6.3C227.9,347.8,223.7,345.6,220.2,342.3Z" fill-rule="evenodd"/><path d="M250.5,332.6a21.11,21.11,0,0,1-5.4,8.3,22.68,22.68,0,0,1-12.5,6.3c-4.6.6-8.8-1.7-12.3-5a37.45,37.45,0,0,1-6-7.7c5.1,2.5,12,3.1,18.6,2.6S246.2,335,250.5,332.6Z" fill="#ae5646" fill-rule="evenodd"/></g></g></svg>