<svg xmlns="http://www.w3.org/2000/svg" viewBox="0 0 515 521.4"><title>Asset 20</title><g id="Layer_2" data-name="Layer 2"><g id="Слой_1" data-name="Слой 1"><path d="M95.9,452.9c.5-.7,1-1.4,1.6-2.3C96.9,451.5,96.4,452.3,95.9,452.9Zm2.5-3.6a.52.52,0,0,0-.2.4c.1-.2.1-.3.2-.4a4.23,4.23,0,0,0,.5-.7A4.23,4.23,0,0,0,98.4,449.3Zm10.4-14.8-1.5,2.1,1.5-2.1,1.5-2.1Zm2-2.7c1.3-1.8,2.6-3.6,4-5.4C113.4,428.2,112,430,110.8,431.8ZM257.7,0C115.4,0,0,115.4,0,257.7A257.09,257.09,0,0,0,92,455l.4-.6.1-.1c0-.1.1-.2.2-.3a.22.22,0,0,1,.2-.2c.2-.3.4-.6.7-1,.7-1.1,1.8-2.7,3.2-4.6.5-.7,1-1.5,1.6-2.3.4-.5.8-1.1,1.2-1.7,1-1.4,2-2.9,3.1-4.4.3-.4.5-.7.8-1.1l3-4.2c.3-.4.5-.7.8-1.1l1.5-2.1c.5-.7,1-1.4,1.6-2.2s1.1-1.4,1.6-2.2c1.1-1.4,2.2-2.9,3.2-4.3l3.3-4.2c.8-1,1.6-2.1,2.4-3.1.1-.1.1-.2.2-.3l1.4-1.7c.3-.4.7-.8,1-1.2s.7-.8,1-1.2.7-.8,1-1.2a83.75,83.75,0,0,1,6.2-6.6c3.9-3.7,9-5.5,14.9-6.5s12.4-1.1,19.4-1.2c1.3,0,2.5,0,3.8-.1h.3a22.6,22.6,0,0,0,2.6-.1c1,0,1.9-.1,2.9-.1h.1c.8,0,1.7-.1,2.6-.1,1.8-.1,3.6-.2,5.3-.4.7-.1,1.3-.1,2-.2.5-.1,1-.1,1.5-.2.3,0,.6-.1.9-.1.5-.1.9-.1,1.4-.2s.9-.1,1.4-.2.8-.1,1.3-.2l1.8-.3h.2c.6-.1,1.1-.3,1.7-.4a.37.37,0,0,0,.3-.1c.5-.1,1-.3,1.5-.4,2.8-.8,6.4-1.8,9.3-2.7,1.5-.4,2.7-.8,3.6-1.1.1,0,.2-.1.3-.1a.35.35,0,0,0,.2-.1c.2-.1.4-.1.5-.2l.4-.1.5-.2.2.1c15.1-5,22.1-10.2,23.9-17.9.7-3,1.4-7,2.1-11.5-20.4-10.3-39.7-28-52.9-47.4a11.41,11.41,0,0,1-6.3,5.5,14.63,14.63,0,0,1-8.1-.6,30.72,30.72,0,0,1-9.7-5.2,27.55,27.55,0,0,1-10.4-25c.9-9.3,4.6-14,9.2-15.8a14,14,0,0,1,6-.9,21,21,0,0,1-1.9-2.7,27.76,27.76,0,0,1-4.1-10.2,29.6,29.6,0,0,1-7.5-8.7,42.65,42.65,0,0,1-5.9-16.2.84.84,0,0,1,.2-.7,1.61,1.61,0,0,1,.7-.4h.4c.2,0,.6-.1,1-.1a28.5,28.5,0,0,0,3.2-.6c1.2-.3,2.5-.6,3.7-1l1.5-.6c-4.8-3.3-10.7-11.1-12.2-25.8a1,1,0,0,1,1.1-1.1,12,12,0,0,0,4.2.1,11.11,11.11,0,0,0,3.4-1.4,35.54,35.54,0,0,1-7-17.6,1.09,1.09,0,0,1,.4-.9,1.18,1.18,0,0,1,1-.1,8.05,8.05,0,0,0,4.6.3,13.39,13.39,0,0,0,2.6-.8,23.16,23.16,0,0,1-2.8-5.9,11.93,11.93,0,0,1,.6-9.4c1.4-2.6,1.9-6.3,1.9-9.9a52.18,52.18,0,0,0-.8-9.2.78.78,0,0,1,.2-.8,1.23,1.23,0,0,1,.8-.4,19.15,19.15,0,0,1,10.3,3.4,16.22,16.22,0,0,1,2.2-6.1,13.44,13.44,0,0,0,1.2-9.8.91.91,0,0,1,.3-1,1,1,0,0,1,1-.2,14.22,14.22,0,0,1,7.4,6.8,31.35,31.35,0,0,1,3.4-9.3c1.5-2.8,1.8-6.5,1.6-10.1a32.49,32.49,0,0,0-1.7-8.7,1,1,0,0,1,.2-.9.91.91,0,0,1,.8-.4,38.6,38.6,0,0,1,24.2,9.8,23.75,23.75,0,0,1,3.9-15.4,34.24,34.24,0,0,1,10.2-10.3.91.91,0,0,1,1,0,1,1,0,0,1,.5.8c0,1.9,1.1,4,2.7,6a30.13,30.13,0,0,0,3.4,3.6,60.39,60.39,0,0,1,8.9-14,79.37,79.37,0,0,1,5.5-5.8,18.53,18.53,0,0,1,4.7-3.3,1.1,1.1,0,0,1,.8,0,.82.82,0,0,1,.5.5c4.5,10.8,12.9,19.7,18.5,25.7.7.7,1.3,1.4,1.8,2a9,9,0,0,0,2.2-4.4,33.35,33.35,0,0,0,.7-10.1,1.49,1.49,0,0,1,.4-.9,1.18,1.18,0,0,1,1-.1c2.8,1.3,5,4.3,6.9,7.6a81.59,81.59,0,0,1,4.8,11.3c.3.9.7,1.9,1,2.8,1,2.8,1.9,5.3,2.7,7.2a13,13,0,0,0,1.6,2.8c.5.6.7.5.7.5,1.3-.3,2.1-1.5,2.4-3.3a13.63,13.63,0,0,0-.2-5,1,1,0,0,1,1.7-.8c7,8.2,10,19.6,11.8,29.4.7,3.8,1.1,7.4,1.5,10.5.1.9.2,1.8.3,2.6.2,1.8.5,3.3.7,4.6v.1c.4-1.5.8-3.3,1.2-5.3.5-2.2.9-4.4,1.3-6,.2-.8.3-1.5.4-2a1.27,1.27,0,0,0,.1-.6V149a1.28,1.28,0,0,1,.5-.7,1.39,1.39,0,0,1,.9,0,3.46,3.46,0,0,1,1.1,1,9.88,9.88,0,0,1,.9,1.5,25.13,25.13,0,0,1,1.7,4.5,90.51,90.51,0,0,1,2.9,12.8,69.69,69.69,0,0,1,.9,13.2,23.73,23.73,0,0,1-.8,5.1,10.37,10.37,0,0,1-.4,1,40.21,40.21,0,0,0,2.8-2.9c1.3-1.5,2.7-3.1,3.6-4.4.5-.6.9-1.2,1.2-1.5.1-.2.3-.3.3-.4l.1-.1a.91.91,0,0,1,.8-.4h.3a.85.85,0,0,1,.7.8,67.35,67.35,0,0,1-1.1,23.5,45.94,45.94,0,0,1-2.4,7.6,8.91,8.91,0,0,1-1.3,2.4,3.92,3.92,0,0,1-.8,1c.4,2.1.7,4,.9,5.8a14.89,14.89,0,0,1,8.5.8c4.6,2,8.6,7,10,16.8a28.72,28.72,0,0,1-6.7,23.5,36.22,36.22,0,0,1-7.2,6.5c1.3,49.7-20,89.7-42.7,98.6v2.7a63.1,63.1,0,0,0,.9,11.3,17.31,17.31,0,0,0,1.2,4,5,5,0,0,0,1.6,2.2c2.4,1.7,6.6,3.5,11.4,5.1h5.9c1,0,2.1.1,3.2.1a8.6,8.6,0,0,1,1.6.1c1.4,0,2.8.1,4.2.2h1.3c2.5.1,5.2.2,7.8.4,1.3.1,2.6.2,4,.2.7,0,1.3.1,2,.1l3.6.3,3.6.3a22.75,22.75,0,0,0,2.6.2c6.8.6,13.3,1.5,18.6,2.5s9.5,2.2,11.8,3.8c4.6,3,14.3,11,25.3,20.6l4.4,3.8c1.3,1.2,2.7,2.4,4.1,3.6,3.2,2.8,6.3,5.6,9.5,8.4.9.8,1.7,1.5,2.5,2.3,2.6,2.4,5.2,4.8,7.7,7,1,.9,2,1.8,2.9,2.7a17.38,17.38,0,0,0,1.5,1.3A257,257,0,0,0,515,257.1C515.4,115.4,400,0,257.7,0ZM110.8,431.8c1.3-1.8,2.6-3.6,4-5.4C113.4,428.2,112,430,110.8,431.8Zm-2,2.7-1.5,2.1,1.5-2.1,1.5-2.1ZM98.4,449.3a.52.52,0,0,0-.2.4c.1-.2.1-.3.2-.4a4.23,4.23,0,0,0,.5-.7A4.23,4.23,0,0,0,98.4,449.3Zm-2.5,3.6c.5-.7,1-1.4,1.6-2.3C96.9,451.5,96.4,452.3,95.9,452.9ZM136,484.7a6.07,6.07,0,0,1,1,.7h.1a.1.1,0,0,1,.1.1C136.8,485.2,136.4,485,136,484.7Zm-25.2-52.9c1.3-1.8,2.6-3.6,4-5.4C113.4,428.2,112,430,110.8,431.8Zm-2,2.7-1.5,2.1,1.5-2.1,1.5-2.1ZM98.4,449.3a.52.52,0,0,0-.2.4c.1-.2.1-.3.2-.4a4.23,4.23,0,0,0,.5-.7A4.23,4.23,0,0,0,98.4,449.3Zm-2.5,3.6c.5-.7,1-1.4,1.6-2.3C96.9,451.5,96.4,452.3,95.9,452.9Z" fill="#f2f2f2"/><path d="M301,392.4c-2.9,7.6-12.8,21.9-32.4,24.8-10.1,1.5-21.4-2.9-31.6-9.1a125.3,125.3,0,0,1-23-18.4c14.5-4.9,22.2-10.4,24.3-19,.7-2.9,1.4-6.8,2-11,13.9,6.7,28.3,9.8,41.6,7.4,1.1-.2,2.2-.5,3.4-.8v2a59.35,59.35,0,0,0,1,11.7,23,23,0,0,0,1.3,4.4,7.77,7.77,0,0,0,2.3,3A56.65,56.65,0,0,0,301,392.4Z" fill="#fec2a9"/><path d="M137.2,485.5a14.8,14.8,0,0,0-1.3-.8,6.07,6.07,0,0,1,1,.7h.1a6.73,6.73,0,0,1,1.1.7A7,7,0,0,0,137.2,485.5Zm-26.4-53.7c1.3-1.8,2.6-3.6,4-5.4C113.4,428.2,112,430,110.8,431.8Zm-2,2.7-1.5,2.1,1.5-2.1,1.5-2.1ZM98.4,449.3a.52.52,0,0,0-.2.4c.1-.2.1-.3.2-.4a4.23,4.23,0,0,0,.5-.7A4.23,4.23,0,0,0,98.4,449.3Zm-2.5,3.6c.5-.7,1-1.4,1.6-2.3C96.9,451.5,96.4,452.3,95.9,452.9Z" fill="#fec2a9"/><path d="M137.2,485.5a14.8,14.8,0,0,0-1.3-.8,6.07,6.07,0,0,1,1,.7h.1a6.73,6.73,0,0,1,1.1.7A7,7,0,0,0,137.2,485.5Zm-26.4-53.7c1.3-1.8,2.6-3.6,4-5.4C113.4,428.2,112,430,110.8,431.8Zm-2,2.7-1.5,2.1,1.5-2.1,1.5-2.1ZM98.4,449.3a.52.52,0,0,0-.2.4c.1-.2.1-.3.2-.4a4.23,4.23,0,0,0,.5-.7A4.23,4.23,0,0,0,98.4,449.3Zm-2.5,3.6c.5-.7,1-1.4,1.6-2.3C96.9,451.5,96.4,452.3,95.9,452.9Z" fill-rule="evenodd"/><path d="M137.2,485.5a14.8,14.8,0,0,0-1.3-.8,6.07,6.07,0,0,1,1,.7h.1a6.73,6.73,0,0,1,1.1.7A7,7,0,0,0,137.2,485.5Zm-26.4-53.7c1.3-1.8,2.6-3.6,4-5.4C113.4,428.2,112,430,110.8,431.8Zm-2,2.7-1.5,2.1,1.5-2.1,1.5-2.1ZM98.4,449.3a.52.52,0,0,0-.2.4c.1-.2.1-.3.2-.4a4.23,4.23,0,0,0,.5-.7A4.23,4.23,0,0,0,98.4,449.3Zm-2.5,3.6c.5-.7,1-1.4,1.6-2.3C96.9,451.5,96.4,452.3,95.9,452.9Z" fill="#00697a"/><path d="M210.3,388.5c.1,0,.2-.1.3-.1a.35.35,0,0,0,.2-.1C210.6,388.4,210.5,388.5,210.3,388.5ZM331.8,510.1c2-.6,4.1-1.2,6.3-1.9Z" fill-rule="evenodd"/><path d="M429.2,450.4a3.39,3.39,0,0,0-.6.6c-.9.8-2.3,2-3.9,3.5-3.4,2.9-8.1,7-13.5,11.5-10.9,8.9-24.7,19.3-36.2,25.6-19.7,10.6-52,19.2-56,20.2l-.6.2a1.42,1.42,0,0,0-.6.2c-.8.2-1.9.5-3.4.8-2.9.7-7.1,1.6-12.2,2.5a220.47,220.47,0,0,1-37.7,3.7c-20.9,0-41.1-3-49.9-4.4l-.7-.1v.1c-.2,0-.4-.1-.7-.1-1-.2-2.4-.5-4.1-.9-3.6-.8-8.7-2-15-3.9a274.49,274.49,0,0,1-47.2-18.7c-.7-.4-1.4-.7-2.1-1.1-2.1-1.1-4.3-2.4-6.5-3.7a8.79,8.79,0,0,0-1-.6,14.8,14.8,0,0,0-1.3-.8c-2-1.2-3.9-2.5-5.9-3.8-.8-.6-1.7-1.1-2.5-1.7-1.7-1.1-3.4-2.3-5-3.4-1.1-.7-2.1-1.5-3.1-2.2-.8-.5-1.5-1.1-2.2-1.6-1.8-1.3-3.5-2.5-5.1-3.7-5.2-3.9-9.8-7.4-13-9.9-1.6-1.3-2.9-2.3-3.8-3a3.81,3.81,0,0,1-.6-.5c.1-.1.2-.3.3-.4a1.76,1.76,0,0,1,.4-.5l.6-.9c.5-.7,1-1.4,1.6-2.3.1-.2.3-.4.5-.7.1-.1.2-.2.2-.3a1.38,1.38,0,0,0,.3-.4,1.61,1.61,0,0,0,.4-.7c.5-.7.9-1.3,1.4-2.1a14.63,14.63,0,0,0,.9-1.3c0-.1.1-.1.2-.2.3-.5.7-1,1.1-1.6,1.5-2.1,3.1-4.5,4.9-6.9l1.5-2.1,1.5-2.1a2.18,2.18,0,0,1,.4-.5c1.3-1.8,2.6-3.6,4-5.4,1.6-2.1,3.1-4.2,4.7-6.2.3-.4.6-.8,1-1.3,1.2-1.5,2.4-3,3.5-4.4.3-.3.5-.6.8-.9.8-.9,1.5-1.8,2.2-2.7.5-.6,1-1.1,1.4-1.6,1-1.2,2-2.2,3-3.2a2.65,2.65,0,0,0,.5-.6,10,10,0,0,1,1.1-1c3.5-3.3,8.2-5,13.8-5.9a138.57,138.57,0,0,1,19.1-1.2h.1c10.1-.2,21.2-.4,31.9-3.2,2.9-.8,6.5-1.8,9.4-2.7,1.5-.4,2.7-.8,3.7-1.1a4.65,4.65,0,0,0,.9-.3,123.34,123.34,0,0,0,24.2,19.6c10.3,6.3,22.2,11,33,9.4,20.8-3,31.2-18.4,34.1-26.4h2c1,0,2.1,0,3.2.1h1.1a17.7,17.7,0,0,1,2.3.1h1.3c1,0,2,.1,3.1.1h.4c.8,0,1.6.1,2.5.1s1.7.1,2.5.1c2.5.1,5,.3,7.5.4a21.05,21.05,0,0,1,2.5.2l4,.3,3.9.3a22.75,22.75,0,0,0,2.6.2c6.8.6,13.2,1.5,18.4,2.5s9.2,2.2,11.1,3.5c4.4,3,14,10.9,25.1,20.4,1.7,1.4,3.4,2.9,5.1,4.4,1,.9,2.1,1.8,3.1,2.7,2.1,1.8,4.2,3.7,6.3,5.6.7.6,1.4,1.2,2.1,1.9,5.5,5,11,9.9,15.9,14.5C429,450.3,429.1,450.3,429.2,450.4Z" fill="#00697a" fill-rule="evenodd"/><path d="M184.3,309.4c-1.3,2.6-3.1,4.7-5.6,5.4a13.49,13.49,0,0,1-6.9-.6,29.75,29.75,0,0,1-9.1-4.8c-5.9-4.7-10.6-12.3-9.6-23.3.8-8.8,4.3-12.6,8-14.1a12.48,12.48,0,0,1,6.9-.5.1.1,0,0,0,.1.1,1,1,0,0,0,.6.5,3.55,3.55,0,0,0,.2,1C170.8,284.8,176.3,297.4,184.3,309.4Z" fill="#fec2a9"/><path d="M335.6,259a35.94,35.94,0,0,1-5.7,5.4,174.85,174.85,0,0,0-2.4-22.2c-.4-2.3-.9-4.6-1.3-6.9a1.4,1.4,0,0,0,.3-.9,50.52,50.52,0,0,1-.8-8.8v-1c0-1.1-.1-2.3-.2-3.5a12.23,12.23,0,0,1,7.5.6c3.8,1.7,7.5,5.9,8.9,15.3A27.15,27.15,0,0,1,335.6,259Z" fill="#fec2a9"/><path d="M328,268.1v-2.4a172.36,172.36,0,0,0-2.4-23.2c-.5-2.9-1.1-5.7-1.7-8.5l-2.9-4.2-.8-1.2-.8-1.2-2.6-3.8c0-.1-.1-.1-.1-.2-10.1-26.2-27.2-37.7-45.1-41.6s-36.8-.2-50.3,4.1c-12.6,4-21.8,13.6-28.1,22.7a81.47,81.47,0,0,0-10,19.3v.3c0,16.4-3.4,27.3-6.8,34.1a35.54,35.54,0,0,1-4.7,7.3,2.65,2.65,0,0,0-.5.6,6,6,0,0,1-.8.8l-.3.3a1.76,1.76,0,0,1-.5.4.1.1,0,0,0-.1.1l1,.3c0,.2.1.4.1.6,1.9,11,7.1,22.9,14.5,34.4a31996259605786.06,31996259605786.06,0,0,1,1.4,2,152.19,152.19,0,0,0,25.6,29,131.48,131.48,0,0,0,26.6,18.3c.3.2.6.3.9.5a9.29,9.29,0,0,0,1,.5c13.8,6.7,28,9.8,41,7.5a17,17,0,0,0,3.7-1,4.18,4.18,0,0,0,1-.4c.3-.1.7-.3,1-.4A42.4,42.4,0,0,0,301,353c6.3-6.7,12-15.8,16.6-26.9C324.3,310.2,328.4,290.2,328,268.1ZM216.8,230.9c-3.2,3.5-5.9,7.7-6.6,12.3a1.22,1.22,0,0,1-1.4,1,1.31,1.31,0,0,1-1-1.4c.9-5.3,3.9-9.9,7.3-13.6a41.26,41.26,0,0,1,9.5-7.8,1.25,1.25,0,1,1,1.2,2.2A36.77,36.77,0,0,0,216.8,230.9Zm17.1,30.5c-3.2.7-6.9-3.5-8.1-9.2s-1-10.7,3.6-11.7,6.8,3.4,8.1,9.2S237.1,260.7,233.9,261.4Zm23.4-7.4a1,1,0,0,1,1.2.7c1.8,7.4,4.2,12.5,6.8,16.1a39.17,39.17,0,0,0,7,7.4l.1.1a5.21,5.21,0,0,1,2,4.4,7.17,7.17,0,0,1-2.2,4.3,15.86,15.86,0,0,1-11.1,4.4,1,1,0,0,1,0-2,13.64,13.64,0,0,0,9.6-3.8,5.18,5.18,0,0,0,1.6-3.1,3.17,3.17,0,0,0-1.3-2.7l-.1-.1a42.59,42.59,0,0,1-7.3-7.7c-2.7-3.8-5.3-9.1-7.1-16.8A1,1,0,0,1,257.3,254Zm15-20.9c3.9-.8,5.6,2.8,6.7,7.6s-.3,9.1-3,9.7-5.6-2.8-6.6-7.6S268.4,233.9,272.3,233.1Zm14.9,69c-.1.7-.1,1.4-.2,2.1a37.08,37.08,0,0,1-1.3,8,16.18,16.18,0,0,1-3.7,7.1,14,14,0,0,1-8,4.1c-7.1,1.2-13.1-1.5-17.9-5.2a50.17,50.17,0,0,1-10.6-11.8.75.75,0,0,1,0-.9.67.67,0,0,1,.8-.3c4,.8,13.9,2.2,22,.8s15.4-6.9,18.1-9.5a.74.74,0,0,1,.9-.1.68.68,0,0,1,.4.8C287.5,298.6,287.4,300.3,287.2,302.1Zm2.9-80.3a1.28,1.28,0,0,1-1.8.3,38.5,38.5,0,0,0-10.4-5.1c-4.4-1.5-9.4-2.2-13.9-1a1.15,1.15,0,0,1-1.5-.9,1.18,1.18,0,0,1,.9-1.5c5.2-1.4,10.7-.5,15.4,1a39.87,39.87,0,0,1,11,5.5A1.15,1.15,0,0,1,290.1,221.8Z" fill="#fec2a9"/><path d="M274.3,282.7a7.17,7.17,0,0,1-2.2,4.3,15.86,15.86,0,0,1-11.1,4.4,1,1,0,0,1,0-2,13.64,13.64,0,0,0,9.6-3.8,5.18,5.18,0,0,0,1.6-3.1,3.17,3.17,0,0,0-1.3-2.7l-.1-.1a42.59,42.59,0,0,1-7.3-7.7c-2.7-3.8-5.3-9.1-7.1-16.8a1,1,0,1,1,1.9-.5c1.8,7.4,4.2,12.5,6.8,16.1a39.17,39.17,0,0,0,7,7.4l.1.1A5,5,0,0,1,274.3,282.7Z" fill-rule="evenodd"/><path d="M326.9,201.9a38.33,38.33,0,0,1-2.3,7.2,19,19,0,0,1-1.1,2.1c-.3.5-.6.8-.7.8-.4.2-.5.6-.5,1.1a57.42,57.42,0,0,1,1,6.5c0,.3.1.7.1,1s.1.7.1,1a24.37,24.37,0,0,1,.1,2.7v1.3c.1,1.6.1,3.2.3,4.8l-1.3-1.8-1.1-1.6-.8-1.2-.8-1.2-1.4-2.1c-10.4-26.8-28-38.6-46.5-42.7s-37.7-.2-51.3,4.1c-13.2,4.2-22.7,14.2-29.1,23.5a91.86,91.86,0,0,0-10.3,19.7,3.55,3.55,0,0,0-.2,1c0,16.1-3.4,26.7-6.6,33.2a31.85,31.85,0,0,1-4.4,6.9l-.1.2c-.4.4-.7.8-1,1.1a5.5,5.5,0,0,0-.7-.9.35.35,0,0,1-.1-.2c-.1-.1-.2-.3-.3-.4-.6-.8-1.2-1.6-1.9-2.7a24.65,24.65,0,0,1-3.9-9.9,1.16,1.16,0,0,0-.5-.7c-1.9-1.2-4.7-4.1-7.2-8.3A40.38,40.38,0,0,1,149,232a.6.6,0,0,0,.4-.1,29.7,29.7,0,0,0,3.3-.6c1.3-.3,2.7-.7,3.9-1.1a10.42,10.42,0,0,0,3.3-1.8.76.76,0,0,0,.3-.9,1,1,0,0,0-.5-.8c-4.1-2.1-10.5-9-12.4-23.8a14.34,14.34,0,0,0,3.6-.1,12.93,12.93,0,0,0,5-2.3,1,1,0,0,0,.4-.7,1.08,1.08,0,0,0-.2-.8,34.51,34.51,0,0,1-7.1-15.9,12.41,12.41,0,0,0,4.3,0,13.15,13.15,0,0,0,4.2-1.6,1.79,1.79,0,0,0,.5-.7,1.08,1.08,0,0,0-.2-.8,20.13,20.13,0,0,1-3.2-6.1,9.9,9.9,0,0,1,.5-7.9c1.6-3,2.1-7.1,2.2-10.9a63.07,63.07,0,0,0-.6-8.3c5.3.6,8.6,3.2,9.5,4.3a1,1,0,0,0,1.3.2,1.15,1.15,0,0,0,.5-1.2c-.2-.6-.5-3.3,1.8-7.2a15.26,15.26,0,0,0,1.8-9.3,13.53,13.53,0,0,1,6,8.9,1.09,1.09,0,0,0,1.1.9,1,1,0,0,0,.9-1,28.74,28.74,0,0,1,3.6-13,21.06,21.06,0,0,0,1.8-11.1,45,45,0,0,0-1.3-7.8,36.48,36.48,0,0,1,23.6,11.4,1,1,0,0,0,1.2.3,1,1,0,0,0,.5-1.1,21.89,21.89,0,0,1,3.1-17,32.21,32.21,0,0,1,8.3-8.8,14.58,14.58,0,0,0,2.9,5.5,23,23,0,0,0,4.8,4.7,1,1,0,0,0,.9.2,1.34,1.34,0,0,0,.7-.6,60.29,60.29,0,0,1,9.1-14.8,48.43,48.43,0,0,1,5.3-5.6,19.06,19.06,0,0,1,3.3-2.5c4.8,10.7,13.1,19.6,18.5,25.4.9,1,1.7,1.8,2.4,2.6a1.06,1.06,0,0,0,1.3.2,10.31,10.31,0,0,0,3.7-6.1,32.57,32.57,0,0,0,.8-8.8,20.13,20.13,0,0,1,4.5,5.8,84.6,84.6,0,0,1,4.7,11c.3.9.6,1.8,1,2.7,1,2.8,1.9,5.4,2.8,7.4a14.36,14.36,0,0,0,1.9,3.3,2.63,2.63,0,0,0,2.7,1.2c2.5-.6,3.5-2.8,3.9-4.8a16.35,16.35,0,0,0,.2-2.2c5.2,7.5,7.7,17.1,9.2,25.7.6,3.8,1.1,7.3,1.5,10.4.1.9.2,1.8.3,2.6.2,1.8.5,3.4.7,4.7a15.21,15.21,0,0,0,1,3.2.91.91,0,0,0,1,.5,1.2,1.2,0,0,0,.8-.4,2.51,2.51,0,0,0,.4-.7,10.78,10.78,0,0,0,.6-1.9c.4-1.5.9-3.7,1.4-5.9s.9-4.4,1.3-6c0-.2.1-.4.1-.6,0,.1.1.1.1.2a31.29,31.29,0,0,1,1.6,4.2,85,85,0,0,1,2.8,12.4,65.71,65.71,0,0,1,.9,12.8,18.58,18.58,0,0,1-.7,4.6,3.83,3.83,0,0,1-1.5,2.3,1,1,0,0,0-.4,1.1,1.7,1.7,0,0,0,.6,1,1.75,1.75,0,0,0,1.2.4,3.26,3.26,0,0,0,1.9-.8,23.08,23.08,0,0,0,4-3.8c1.4-1.5,2.7-3.2,3.7-4.5,0-.1.1-.1.1-.2A71.59,71.59,0,0,1,326.9,201.9Z" fill="#f85750" fill-rule="evenodd"/><path d="M275.9,250.3c-2.7.6-5.6-2.8-6.6-7.6s-.9-8.8,3-9.7,5.6,2.8,6.7,7.6S278.6,249.8,275.9,250.3Z"/><path d="M233.9,261.4c-3.2.7-6.9-3.5-8.1-9.2s-1-10.7,3.6-11.7,6.8,3.4,8.1,9.2S237.1,260.7,233.9,261.4Z"/><path d="M287.3,296.4a.74.74,0,0,0-.9.1c-2.7,2.6-10.1,8.2-18.1,9.5s-18,0-22-.8a.83.83,0,0,0-.8.3.75.75,0,0,0,0,.9,54.41,54.41,0,0,0,10.6,11.8c4.8,3.7,10.8,6.4,17.9,5.2a14,14,0,0,0,8-4.1,16.18,16.18,0,0,0,3.7-7.1,55.53,55.53,0,0,0,1.3-8c.1-.7.1-1.4.2-2.1.1-1.8.3-3.5.5-4.9A.63.63,0,0,0,287.3,296.4Zm-1.6,5.6c-.1.7-.1,1.3-.2,2a38.66,38.66,0,0,1-1.2,7.7,15,15,0,0,1-3.4,6.5,12.6,12.6,0,0,1-7.2,3.6c-6.5,1.1-12.2-1.3-16.7-4.9a48.92,48.92,0,0,1-9.2-9.9c.7.1,1.5.3,2.4.4,4.9.7,12.1,1.2,18.3.1,6-1,11.7-4.3,15.4-7a15.75,15.75,0,0,0,1.9-1.5A15.31,15.31,0,0,1,285.7,302Z" fill-rule="evenodd"/><path d="M284,300.5c-.1,2-.5,5.2-2,6.5a27.49,27.49,0,0,1-12.5,6.1c-5.3.9-12,.9-15.6-1.3a9.85,9.85,0,0,1-3.6-4.4c4.9.7,12.1,1.2,18.3.1A36.59,36.59,0,0,0,284,300.5Z" fill="#f2f2f2" fill-rule="evenodd"/><path d="M286,299l-.3,3c-.1.7-.1,1.3-.2,2a38.66,38.66,0,0,1-1.2,7.7,15,15,0,0,1-3.4,6.5,12.6,12.6,0,0,1-7.2,3.6c-6.5,1.1-12.2-1.3-16.7-4.9a48.92,48.92,0,0,1-9.2-9.9c.7.1,1.5.3,2.4.4a9.85,9.85,0,0,0,3.6,4.4c3.6,2.2,10.3,2.2,15.6,1.3a27.49,27.49,0,0,0,12.5-6.1c1.5-1.3,1.9-4.5,2-6.5A23.7,23.7,0,0,0,286,299Z" fill="#ae5646" fill-rule="evenodd"/><path d="M225.7,223.6a41.42,41.42,0,0,0-8.9,7.3c-3.2,3.5-5.9,7.7-6.6,12.3a1.22,1.22,0,0,1-1.4,1,1.31,1.31,0,0,1-1-1.4c.9-5.3,3.9-9.9,7.3-13.6a41.26,41.26,0,0,1,9.5-7.8,1.28,1.28,0,0,1,1.7.5A1.47,1.47,0,0,1,225.7,223.6Z" fill-rule="evenodd"/><path d="M290.1,221.8a1.28,1.28,0,0,1-1.8.3,38.5,38.5,0,0,0-10.4-5.1c-4.4-1.5-9.4-2.2-13.9-1a1.15,1.15,0,0,1-1.5-.9,1.18,1.18,0,0,1,.9-1.5c5.2-1.4,10.7-.5,15.4,1a39.87,39.87,0,0,1,11,5.5A1.15,1.15,0,0,1,290.1,221.8Z" fill-rule="evenodd"/><path d="M431.3,449.4c-.3-.3-.6-.5-.9-.8-.5-.4-1-.9-1.5-1.3-1-.9-1.9-1.8-2.9-2.7-2.5-2.3-5.1-4.7-7.7-7-.8-.8-1.7-1.5-2.5-2.3-3.1-2.8-6.3-5.7-9.5-8.4-1.4-1.2-2.7-2.4-4.1-3.6l-4.4-3.8c-11-9.5-20.7-17.5-25.3-20.6-2.3-1.6-6.6-2.8-11.8-3.8s-11.8-1.8-18.6-2.5a22.75,22.75,0,0,0-2.6-.2l-3.6-.3-3.6-.3c-.7,0-1.3-.1-2-.1-1.3-.1-2.7-.2-4-.2-2.6-.1-5.3-.3-7.8-.4h-1.3c-1.4-.1-2.8-.1-4.2-.2a8.6,8.6,0,0,1-1.6-.1c-1.1,0-2.1-.1-3.2-.1h-5.9c-4.8-1.6-9-3.4-11.4-5.1a5.69,5.69,0,0,1-1.6-2.2,17.31,17.31,0,0,1-1.2-4,61.55,61.55,0,0,1-.9-11.3v-2.7c22.7-9,44-48.9,42.7-98.6a36.22,36.22,0,0,0,7.2-6.5,29.07,29.07,0,0,0,6.7-23.5c-1.5-9.8-5.4-14.8-10-16.8a14.08,14.08,0,0,0-8.5-.8,43.21,43.21,0,0,0-.9-5.8,8.74,8.74,0,0,0,.8-1,13,13,0,0,0,1.3-2.4,38.06,38.06,0,0,0,2.4-7.6,67.5,67.5,0,0,0,1.1-23.5.85.85,0,0,0-.7-.8H329a1.23,1.23,0,0,0-.8.4l-.1.1c-.1.1-.2.3-.3.4q-.45.6-1.2,1.5c-1,1.3-2.3,2.9-3.6,4.4-1,1.1-2,2.1-2.8,2.9a4.18,4.18,0,0,0,.4-1,19.47,19.47,0,0,0,.8-5.1,68.66,68.66,0,0,0-.9-13.2,93.83,93.83,0,0,0-2.9-12.8c-.6-1.8-1.2-3.3-1.7-4.5a9.88,9.88,0,0,0-.9-1.5,2.66,2.66,0,0,0-1.1-1,1,1,0,0,0-.9,0,.75.75,0,0,0-.5.7v.2a3.54,3.54,0,0,0-.1.6c-.1.5-.2,1.2-.4,2-.3,1.6-.8,3.8-1.3,6-.4,1.9-.9,3.8-1.2,5.3v-.1a37.86,37.86,0,0,1-.7-4.6c-.1-.8-.2-1.7-.3-2.6-.4-3.1-.9-6.7-1.5-10.5-1.7-9.8-4.8-21.2-11.8-29.4a1.1,1.1,0,0,0-1.2-.3,1,1,0,0,0-.5,1.1,13.63,13.63,0,0,1,.2,5q-.45,2.7-2.4,3.3s-.2.1-.7-.5a13,13,0,0,1-1.6-2.8c-.9-1.9-1.7-4.4-2.7-7.2-.3-.9-.6-1.8-1-2.8a81.59,81.59,0,0,0-4.8-11.3c-1.8-3.4-4.1-6.3-6.9-7.6a1.18,1.18,0,0,0-1,.1.81.81,0,0,0-.4.9,33.35,33.35,0,0,1-.7,10.1,9,9,0,0,1-2.2,4.4c-.6-.6-1.2-1.3-1.8-2-5.6-6-14-14.9-18.5-25.7a.82.82,0,0,0-.5-.5,1.1,1.1,0,0,0-.8,0,19.4,19.4,0,0,0-4.7,3.3,79.37,79.37,0,0,0-5.5,5.8,62.57,62.57,0,0,0-8.9,14,24,24,0,0,1-3.4-3.6,11.17,11.17,0,0,1-2.7-6,.89.89,0,0,0-.5-.8.91.91,0,0,0-1,0,31.11,31.11,0,0,0-10.2,10.3,25,25,0,0,0-3.9,15.4,38.06,38.06,0,0,0-24.2-9.8,1.23,1.23,0,0,0-.8.4,1,1,0,0,0-.2.9,37,37,0,0,1,1.7,8.7c.2,3.6-.1,7.2-1.6,10.1a39.75,39.75,0,0,0-3.4,9.3,14.21,14.21,0,0,0-7.4-6.8c-.4-.1-.8-.1-1,.2a1,1,0,0,0-.3,1,14,14,0,0,1-1.2,9.8,16.22,16.22,0,0,0-2.2,6.1,19.15,19.15,0,0,0-10.3-3.4.91.91,0,0,0-.8.4.78.78,0,0,0-.2.8,53.14,53.14,0,0,1,.8,9.2c0,3.7-.5,7.4-1.9,9.9a11.93,11.93,0,0,0-.6,9.4,23.16,23.16,0,0,0,2.8,5.9,13.39,13.39,0,0,1-2.6.8,8,8,0,0,1-4.6-.3,1.18,1.18,0,0,0-1,.1,1,1,0,0,0-.4.9,34.89,34.89,0,0,0,7,17.6,10.2,10.2,0,0,1-3.4,1.4,12,12,0,0,1-4.2-.1.83.83,0,0,0-.8.3,1.14,1.14,0,0,0-.3.8c1.6,14.6,7.5,22.5,12.2,25.8a11.64,11.64,0,0,1-1.5.6,22.38,22.38,0,0,1-3.7,1,24.89,24.89,0,0,1-3.2.6,4.14,4.14,0,0,1-1,.1h-.4a1,1,0,0,0-.7.4,1,1,0,0,0-.2.7,40.47,40.47,0,0,0,5.9,16.2,29.6,29.6,0,0,0,7.5,8.7,27.76,27.76,0,0,0,4.1,10.2c.7,1,1.4,1.9,1.9,2.7a14,14,0,0,0-6,.9c-4.6,1.8-8.3,6.5-9.2,15.8-1.1,11.7,4,20,10.4,25a30.72,30.72,0,0,0,9.7,5.2c3.1.9,6,1.2,8.1.6a11.75,11.75,0,0,0,6.3-5.5c13.2,19.3,32.5,37.1,52.9,47.4-.6,4.5-1.4,8.5-2.1,11.5-1.9,7.7-8.8,12.9-23.9,17.9l-.2-.1-.5.2-.4.1c-.1.1-.3.1-.5.2s-.1.1-.2.1-.2.1-.3.1c-.9.3-2.2.7-3.6,1.1-2.9.9-6.5,1.9-9.3,2.7-.5.1-1,.3-1.5.4-.1,0-.2.1-.3.1-.5.1-1.1.3-1.7.4h-.2l-1.8.3a5.07,5.07,0,0,1-1.3.2,621977702395471.9,621977702395471.9,0,0,0-2.8.4c-.3,0-.6.1-.9.1-.5.1-1,.1-1.5.2-.7.1-1.3.1-2,.2-1.8.2-3.6.3-5.3.4a22.6,22.6,0,0,1-2.6.1h-.1c-1,0-1.9.1-2.9.1s-1.7.1-2.6.1h-.3c-1.3,0-2.6,0-3.8.1-6.9.1-13.5.2-19.4,1.2s-11,2.8-14.9,6.5c-1.8,1.7-3.9,4-6.2,6.6-.3.4-.7.8-1,1.2s-.7.8-1,1.2-.7.8-1,1.2l-1.4,1.7c-.1.1-.1.2-.2.3-.8,1-1.6,2-2.4,3.1l-3.3,4.2c-1.1,1.4-2.2,2.9-3.2,4.3-.5.7-1.1,1.4-1.6,2.2s-1,1.4-1.6,2.2l-1.5,2.1c-.3.4-.5.7-.8,1.1-1,1.4-2,2.9-3,4.2-.3.4-.5.7-.8,1.1-1.1,1.5-2.1,3-3.1,4.4-.4.6-.8,1.1-1.2,1.7-.6.8-1.1,1.6-1.6,2.3-1.3,1.9-2.4,3.5-3.2,4.6-.3.4-.5.8-.7,1s-.1.2-.2.2a1.44,1.44,0,0,0-.2.3l-.1.1-.4.6-.1.2.7.6.1.1a.35.35,0,0,0,.2.1l.1.1a11.49,11.49,0,0,0,1,.8c.9.7,2.2,1.8,3.8,3,3.2,2.6,7.8,6.1,13,10,10.5,7.8,23.8,17,35,22.8A271.11,271.11,0,0,0,193.6,512c6.3,1.8,11.5,3.1,15.1,3.9q2.7.6,4.2.9a6.53,6.53,0,0,0,1.1.2.37.37,0,0,1,.3.1h.1l.7.1.1-.1a325.25,325.25,0,0,0,49.5,4.3,213.45,213.45,0,0,0,38-3.7c5.1-.9,9.3-1.9,12.3-2.6,1.5-.3,2.6-.6,3.4-.8a5.07,5.07,0,0,1,.9-.2c.1,0,.1,0,.2-.1h.2l.6-.2.7-.2.7-.2,10.3-2.9,6.3-1.9,4.9-1.6c1.1-.4,2.2-.7,3.3-1.1l.9-.3,1.8-.6c.3-.1.5-.2.8-.3,1.9-.7,3.9-1.4,5.8-2.1s4.1-1.6,6.1-2.4c.5-.2.9-.4,1.4-.6,1.8-.7,3.5-1.5,5.3-2.3.6-.3,1.2-.6,1.9-.9s1.3-.6,1.9-.9,1.3-.6,1.9-.9a16.18,16.18,0,0,0,1.8-1c11.7-6.3,25.5-16.8,36.5-25.8,5.5-4.5,10.2-8.6,13.6-11.5,1.7-1.5,3-2.7,4-3.5a12,12,0,0,0,1.1-1l.3-.3.1-.1.8-.7ZM333,221.5c3.8,1.7,7.5,5.9,8.9,15.3a27.12,27.12,0,0,1-6.2,21.9,35.94,35.94,0,0,1-5.7,5.4,174.85,174.85,0,0,0-2.4-22.2c-.4-2.3-.9-4.6-1.3-6.9a1.4,1.4,0,0,0,.3-.9,50.52,50.52,0,0,1-.8-8.8v-1c0-1.1-.1-2.3-.2-3.5A12.82,12.82,0,0,1,333,221.5ZM166,265.3a24.65,24.65,0,0,1-3.9-9.9,1.16,1.16,0,0,0-.5-.7c-1.9-1.2-4.7-4.1-7.2-8.3A40.38,40.38,0,0,1,149,232a.6.6,0,0,0,.4-.1,29.7,29.7,0,0,0,3.3-.6c1.3-.3,2.7-.7,3.9-1.1a10.42,10.42,0,0,0,3.3-1.8.76.76,0,0,0,.3-.9,1,1,0,0,0-.5-.8c-4.1-2.1-10.5-9-12.4-23.8a14.34,14.34,0,0,0,3.6-.1,12.93,12.93,0,0,0,5-2.3,1,1,0,0,0,.4-.7,1.08,1.08,0,0,0-.2-.8,34.51,34.51,0,0,1-7.1-15.9,12.41,12.41,0,0,0,4.3,0,13.15,13.15,0,0,0,4.2-1.6,1.79,1.79,0,0,0,.5-.7,1.08,1.08,0,0,0-.2-.8,20.13,20.13,0,0,1-3.2-6.1,9.9,9.9,0,0,1,.5-7.9c1.6-3,2.1-7.1,2.2-10.9a63.07,63.07,0,0,0-.6-8.3c5.3.6,8.6,3.2,9.5,4.3a1,1,0,0,0,1.3.2,1.15,1.15,0,0,0,.5-1.2c-.2-.6-.5-3.3,1.8-7.2a15.26,15.26,0,0,0,1.8-9.3,13.53,13.53,0,0,1,6,8.9,1.09,1.09,0,0,0,1.1.9,1,1,0,0,0,.9-1,28.74,28.74,0,0,1,3.6-13,21.06,21.06,0,0,0,1.8-11.1,45,45,0,0,0-1.3-7.8,36.48,36.48,0,0,1,23.6,11.4,1,1,0,0,0,1.2.3,1,1,0,0,0,.5-1.1,21.89,21.89,0,0,1,3.1-17,32.21,32.21,0,0,1,8.3-8.8,14.58,14.58,0,0,0,2.9,5.5,23,23,0,0,0,4.8,4.7,1,1,0,0,0,.9.2,1.34,1.34,0,0,0,.7-.6,60.29,60.29,0,0,1,9.1-14.8,48.43,48.43,0,0,1,5.3-5.6,19.06,19.06,0,0,1,3.3-2.5c4.8,10.7,13.1,19.6,18.5,25.4.9,1,1.7,1.8,2.4,2.6a1.06,1.06,0,0,0,1.3.2,10.31,10.31,0,0,0,3.7-6.1,32.57,32.57,0,0,0,.8-8.8,20.13,20.13,0,0,1,4.5,5.8,84.6,84.6,0,0,1,4.7,11c.3.9.6,1.8,1,2.7,1,2.8,1.9,5.4,2.8,7.4a14.36,14.36,0,0,0,1.9,3.3,2.63,2.63,0,0,0,2.7,1.2c2.5-.6,3.5-2.8,3.9-4.8a16.35,16.35,0,0,0,.2-2.2c5.2,7.5,7.7,17.1,9.2,25.7.6,3.8,1.1,7.3,1.5,10.4.1.9.2,1.8.3,2.6.2,1.8.5,3.4.7,4.7a15.21,15.21,0,0,0,1,3.2.91.91,0,0,0,1,.5,1.2,1.2,0,0,0,.8-.4,2.51,2.51,0,0,0,.4-.7,10.78,10.78,0,0,0,.6-1.9c.4-1.5.9-3.7,1.4-5.9s.9-4.4,1.3-6c0-.2.1-.4.1-.6,0,.1.1.1.1.2a31.29,31.29,0,0,1,1.6,4.2,85,85,0,0,1,2.8,12.4,65.71,65.71,0,0,1,.9,12.8,18.58,18.58,0,0,1-.7,4.6,3.83,3.83,0,0,1-1.5,2.3,1,1,0,0,0-.4,1.1,1.7,1.7,0,0,0,.6,1,1.75,1.75,0,0,0,1.2.4,3.26,3.26,0,0,0,1.9-.8,23.08,23.08,0,0,0,4-3.8c1.4-1.5,2.7-3.2,3.7-4.5,0-.1.1-.1.1-.2a67.65,67.65,0,0,1-1.3,20.4,38.33,38.33,0,0,1-2.3,7.2,19,19,0,0,1-1.1,2.1c-.3.5-.6.8-.7.8-.4.2-.5.6-.5,1.1a57.42,57.42,0,0,1,1,6.5c0,.3.1.7.1,1s.1.7.1,1a24.37,24.37,0,0,1,.1,2.7v1.3c.1,1.6.1,3.2.3,4.8l-1.3-1.8-1.1-1.6-.8-1.2-.8-1.2-1.4-2.1c-10.4-26.8-28-38.6-46.5-42.7s-37.7-.2-51.3,4.1c-13.2,4.2-22.7,14.2-29.1,23.5a91.86,91.86,0,0,0-10.3,19.7,3.55,3.55,0,0,0-.2,1c0,16.1-3.4,26.7-6.6,33.2a31.85,31.85,0,0,1-4.4,6.9l-.1.2c-.4.4-.7.8-1,1.1a5.5,5.5,0,0,0-.7-.9.35.35,0,0,1-.1-.2c-.1-.1-.2-.3-.3-.4A10.28,10.28,0,0,1,166,265.3Zm12.7,49.2a13.49,13.49,0,0,1-6.9-.6,29.75,29.75,0,0,1-9.1-4.8c-5.9-4.7-10.6-12.3-9.6-23.3.8-8.8,4.3-12.6,8-14.1a12.48,12.48,0,0,1,6.9-.5.1.1,0,0,0,.1.1,1,1,0,0,0,.6.5,3.55,3.55,0,0,0,.2,1c2,11.6,7.6,24.2,15.5,36.2C183,311.7,181.1,313.8,178.7,314.5ZM212.2,338a148.83,148.83,0,0,1-25.6-29,6.07,6.07,0,0,0-.7-1c-.2-.3-.5-.7-.7-1-7.4-11.5-12.6-23.4-14.5-34.4,0-.2-.1-.4-.1-.6-.3-.1-.7-.2-1-.3l.1-.1c.1-.1.3-.2.5-.4l.3-.3.8-.8a2.65,2.65,0,0,1,.5-.6,35.54,35.54,0,0,0,4.7-7.3c3.4-6.8,6.8-17.7,6.8-34.1v-.3a93.33,93.33,0,0,1,10-19.3c6.3-9.1,15.5-18.7,28.1-22.7,13.5-4.3,32.4-8,50.3-4.1s34.9,15.4,45.1,41.6c0,.1.1.1.1.2l2.6,3.8.8,1.2.8,1.2,2.9,4.2c.6,2.8,1.2,5.6,1.7,8.5a157.52,157.52,0,0,1,2.4,23.2V268c.4,22.1-3.7,42.1-10.3,58.2-4.6,11.1-10.3,20.2-16.6,26.9a42.4,42.4,0,0,1-13.7,10.1,4.18,4.18,0,0,1-1,.4c-.3.1-.7.3-1,.4a29.33,29.33,0,0,1-3.7,1c-13,2.3-27.2-.8-41-7.5a9.29,9.29,0,0,0-1-.5c-.3-.2-.6-.3-.9-.5A135.79,135.79,0,0,1,212.2,338Zm26.1,32.3c.7-2.9,1.4-6.8,2-11,13.9,6.7,28.3,9.8,41.6,7.4,1.1-.2,2.2-.5,3.4-.8v2a59.35,59.35,0,0,0,1,11.7,23,23,0,0,0,1.3,4.4,7.77,7.77,0,0,0,2.3,3,44.64,44.64,0,0,0,11.1,5.1c-2.9,7.6-12.8,21.9-32.4,24.8-10.1,1.5-21.4-2.9-31.6-9.1a125.3,125.3,0,0,1-23-18.4C228.5,384.4,236.2,379,238.3,370.3Zm190.3,80.3c-.9.8-2.3,2-3.9,3.5-3.4,2.9-8.1,7-13.5,11.5-10.9,8.9-24.7,19.3-36.2,25.6-19.7,10.6-52,19.2-56,20.2l-.6.2a1.42,1.42,0,0,0-.6.2c-.8.2-1.9.5-3.4.8-2.9.7-7.1,1.6-12.2,2.5a220.47,220.47,0,0,1-37.7,3.7c-20.9,0-41.1-3-49.9-4.4l-.7-.1v.1c-.2,0-.4-.1-.7-.1-1-.2-2.4-.5-4.1-.9-3.6-.8-8.7-2-15-3.9a274.49,274.49,0,0,1-47.2-18.7c-.7-.4-1.4-.7-2.1-1.1-2.1-1.1-4.3-2.4-6.5-3.7a6.73,6.73,0,0,1-1.1-.7h-.1a6.07,6.07,0,0,1-1-.7c-2-1.2-3.9-2.5-5.9-3.8-.8-.6-1.7-1.1-2.5-1.7-1.7-1.1-3.3-2.3-5-3.4-1.1-.7-2.1-1.5-3.1-2.2-.8-.5-1.5-1.1-2.2-1.6-1.8-1.3-3.5-2.5-5.1-3.7-5.2-3.9-9.8-7.4-13-9.9-1.6-1.3-2.9-2.3-3.8-3a3.81,3.81,0,0,1-.6-.5c.1-.1.2-.3.3-.4a1.76,1.76,0,0,1,.4-.5l.6-.9c.5-.7,1-1.4,1.6-2.3.1-.2.3-.4.5-.7.1-.1.2-.2.2-.3a.52.52,0,0,0,.2-.4,4.23,4.23,0,0,0,.5-.7c.5-.7.9-1.3,1.4-2.1a14.63,14.63,0,0,0,.9-1.3c0-.1.1-.1.2-.2.3-.5.7-1,1.1-1.6,1.5-2.1,3.1-4.5,4.9-6.9l1.5-2.1,1.5-2.1a2.18,2.18,0,0,1,.4-.5c1.3-1.8,2.6-3.6,4-5.4,1.6-2.1,3.1-4.2,4.7-6.2.3-.4.6-.8,1-1.3,1.2-1.5,2.4-3,3.5-4.4.3-.3.5-.6.8-.9.8-.9,1.5-1.8,2.2-2.7.5-.6,1-1.1,1.4-1.6,1-1.2,2-2.2,3-3.2a2.65,2.65,0,0,0,.5-.6,10,10,0,0,1,1.1-1c3.5-3.3,8.2-5,13.8-5.9a138.57,138.57,0,0,1,19.1-1.2h.1c10.1-.2,21.2-.4,31.9-3.2,2.9-.8,6.5-1.8,9.4-2.7,1.5-.4,2.7-.8,3.7-1.1a4.65,4.65,0,0,0,.9-.3,123.34,123.34,0,0,0,24.2,19.6c10.3,6.3,22.2,11,33,9.4,20.8-3,31.2-18.4,34.1-26.4h2c1,0,2.1,0,3.2.1h1.1a17.7,17.7,0,0,1,2.3.1h1.3c1,0,2,.1,3.1.1h.4c.8,0,1.6.1,2.5.1s1.7.1,2.5.1c2.5.1,5,.3,7.5.4a21.05,21.05,0,0,1,2.5.2l4,.3,3.9.3a22.75,22.75,0,0,0,2.6.2c6.8.6,13.2,1.5,18.4,2.5s9.2,2.2,11.1,3.5c4.4,3,14,10.9,25.1,20.4,1.7,1.4,3.4,2.9,5.1,4.4,1,.9,2.1,1.8,3.1,2.7,2.1,1.8,4.2,3.7,6.3,5.6.7.6,1.4,1.2,2.1,1.9,5.5,5,11,9.9,15.9,14.5l.2.2C429,450.2,428.8,450.4,428.6,450.6Z"/></g></g></svg>