<svg xmlns="http://www.w3.org/2000/svg" viewBox="0 0 515.3 514.9"><title>Asset 17</title><g id="Layer_2" data-name="Layer 2"><g id="Слой_1" data-name="Слой 1"><path d="M515.3,257.7a255.56,255.56,0,0,1-102,204.6c-21.2-16.6-65.5-28.3-104.9-35.9a13.94,13.94,0,0,0-2.5-2.3,18.2,18.2,0,0,0-14.8-2.4c-1.6-9.8-3.4-29.1.2-43.1,36.6-11.6,53.8-43.3,61.8-71.1,4.3.5,15.4.8,23.4-6.2q8.1-7.05,8.1-20.7c0-9.8-2.6-17.3-7.8-22.3a23,23,0,0,0-14.7-6.2c3.3-16.7,7-41.6,5.7-57.7-1.2-14.8,1.1-23.1,3.2-30.3,1.3-4.7,2.6-9.2,2.6-14.7,0-7.6-8.3-22.4-23.6-35.1C336.5,103.2,313.1,90,278,90c-45.7,0-57.8,13.8-66.7,23.8-3.6,4.1-6.7,7.6-11.3,9.3a52.32,52.32,0,0,1-8.5,1.9c-10.9,1.8-27.3,4.5-37.7,20.5-12.8,19.6-13.4,54.9-1.8,105-6.9,1.1-20.3,6.1-20.3,28.2,0,9,2.7,15.9,8.1,20.6,7.9,7,18.9,6.7,23.2,6.2,7.3,22.3,18.1,40.3,32.2,53.3a87.47,87.47,0,0,0,34.3,19.7c1.7,22.1,2,40.8.6,43.8-6.1-2.5-17.2-3.9-22.6.1a7.11,7.11,0,0,0-2.7,4.1c-47,7.5-81.8,19.3-103.9,35A254.89,254.89,0,0,1,0,257.7C0,115.4,115.4,0,257.7,0S515.3,115.4,515.3,257.7Z" fill="#f2f2f2"/><path d="M229.3,423.3Zm1.9,1a6.37,6.37,0,0,0-.2.7v.1C231.1,424.8,231.1,424.6,231.2,424.3Z" fill="#f2f2f2"/><path d="M231.2,424.3a6.37,6.37,0,0,0-.2.7v.1C231.1,424.8,231.1,424.6,231.2,424.3Z" fill="#ffdbdb"/><path d="M289.3,422.4c-.1,0-.2.1-.3.1a1,1,0,0,0-.5.6c-3.7,10.8-18.8,20.3-26.3,23.9a1.06,1.06,0,0,0-.6.7L259,460.9l-3.4-13.2a1.06,1.06,0,0,0-.6-.7c-16.4-6.4-22.6-16.3-24-21.9,0-.3.1-.5.1-.8.9-.7,2-3.6,1.6-18.3-.2-10.4-1-21.6-1.4-26.6a105.9,105.9,0,0,0,28.7,3.8,103.29,103.29,0,0,0,29-3.9C285.8,393.7,287.6,413,289.3,422.4Z" fill="#ffdbdb"/><path d="M231.2,424.3a6.37,6.37,0,0,0-.2.7v.1C231.1,424.8,231.1,424.6,231.2,424.3Zm-1.9-1Z"/><path d="M413.1,464.6c-12.9,11.2-37.5,24.7-68.2,34.6C319.7,507.3,290.4,513,260,513c-38.5,0-76.4-9-106.6-20.5-23.5-8.9-42.4-19.3-53.2-28,.8-.6,1.6-1.1,2.4-1.7,21.8-15.3,56-26.8,102.1-34.2v.4c.2,2.3,2,4.6,5.1,7.1,5.6,4.2,14.9,8.1,23.5,10.4l1.3.3,1.3.3c5.6,1.4,10.7,2,14,1.7l7.5,21.1.6,1.7.3.7a1.09,1.09,0,0,0,1,.7.76.76,0,0,0,.5-.2,1,1,0,0,0,.4-.5l.3-.9,7.1-22.5c3.7.2,9-.5,14.6-1.7l1.3-.3,1.3-.3c12.3-3,25.2-8.4,25.8-14a9.08,9.08,0,0,0-.6-4c38.4,7.5,81.1,18.9,101.7,34.8A7.47,7.47,0,0,0,413.1,464.6Z" fill="#7a62b6"/><path d="M375.4,259.9a21.54,21.54,0,0,0-13.7-5.7c-.6,3.1-1.2,5.9-1.8,8.2H358c-10.2-37.8-31.4-94.1-47.8-94.1-9.5,0-12.9,4.9-16.8,10.6-5.4,7.8-11.5,16.7-34,16.7-20.3,0-26.3-6.7-32.1-13.2-5.3-6-10.3-11.6-27-11.6-27.1,0-40.4,59.8-43.6,91.4l-2,.1c-.8-3.3-1.6-6.5-2.4-9.7-6.3,1-18.8,5.5-18.8,26.3,0,8.4,2.5,14.8,7.4,19.1,7.9,6.9,19.2,6.1,22.5,5.7l.8-.1.3.8c9.1,28.3,27.6,60.9,65.3,72.5l1.1.3,1.1.3a106.2,106.2,0,0,0,28.1,3.7,101.12,101.12,0,0,0,28.7-3.9c.4-.1.7-.2,1-.3l1-.3c36-11.5,52.8-43.1,60.6-70.4l.2-.8.9.1c3.3.4,14.7,1.3,22.6-5.6,4.9-4.3,7.4-10.7,7.4-19.1C382.6,271.5,380.2,264.5,375.4,259.9Zm-83.8-35.8c4.9-1.9,10.1-.7,14.5,1.4a36.91,36.91,0,0,1,10.5,7.5,2.3,2.3,0,0,1,.3,2.4c-.4.8-1.1,1-1.7.4a35.39,35.39,0,0,0-9.8-7c-4.2-2-8.9-3-13.2-1.4-.6.2-1.3-.3-1.4-1.2A1.92,1.92,0,0,1,291.6,224.1Zm.2,19.1c3.1-.4,6.1,3.7,6.7,9.1s-1.4,10.1-4.4,10.4-6.1-3.7-6.7-9.1S288.7,243.6,291.8,243.2Zm-35.1,43.2a48.68,48.68,0,0,0,7.9,0,3.54,3.54,0,0,0,3.3-2.5c.7-2,.2-5.6-3.6-9.3-4.9-4.6-5.3-16.1-4.9-21.6l1,.1c-.4,5.3,0,16.4,4.6,20.8,4.1,4,4.7,7.9,3.9,10.3a4.9,4.9,0,0,1-4.2,3.2c-1.6.1-3,.2-4.3.2a29.22,29.22,0,0,1-3.8-.2Zm-20.1-33.2c-.8,5.4-3.9,9.4-6.9,9s-4.9-5.2-4.2-10.5,3.9-9.4,6.9-9S237.3,247.8,236.6,253.2Zm-30-19.4a24.51,24.51,0,0,1,13.1-9.3,30.16,30.16,0,0,1,11.7-1.1c.6.1,1.1.9,1.1,1.9s-.7,1.6-1.3,1.5a26,26,0,0,0-10.9,1,21.77,21.77,0,0,0-11.9,8.3,1,1,0,0,1-1.7,0A1.8,1.8,0,0,1,206.6,233.8ZM282.9,320a38.43,38.43,0,0,1-7.9,10.5c-3.7,3.3-8.3,5.7-13.5,4.9a23.42,23.42,0,0,1-12.9-7c-3.3-3.4-5.6-7.6-5.9-11.2a.89.89,0,0,1,.5-.8.92.92,0,0,1,1,.1c3.4,2.7,10.4,5,17.9,5.9s15,0,19.7-3.3a.91.91,0,0,1,1.1.1A1.86,1.86,0,0,1,282.9,320Zm40.3-10.7c-4.8,3.3-17.1,9-29.7,7-8.8-1.4-15.3-5.6-20.5-8.9-4.1-2.7-7.4-4.7-10.5-4.7-2.6,0-4.1,1.3-6.5,3.2-3.9,3.2-9.7,7.9-24.9,10.4a64.78,64.78,0,0,1-10.4.8c-14,0-23.9-4.8-27.7-7.9a1.13,1.13,0,0,1-.3-1.1,1.07,1.07,0,0,1,.9-.7c12.7,0,20.9-5.5,28.7-10.8,6.5-4.4,12.7-8.5,20.5-8.5,11.8,0,15.4,3,18.5,5.7.4.3.7.6,1.1.9a38.74,38.74,0,0,1,22.3-6.6c6.1,0,10,3,15,6.9,5.2,4,11.6,9,23.2,12.5a1,1,0,0,1,.7.8A1,1,0,0,1,323.2,309.3Z" fill="#ffdbdb"/><path d="M323.6,308.3a1,1,0,0,0-.7-.8c-11.5-3.5-18-8.5-23.2-12.5-5-3.9-8.9-6.9-15-6.9-11.6,0-18.3,4.2-22.3,6.6-.4-.3-.7-.6-1.1-.9-3.2-2.7-6.8-5.7-18.5-5.7-7.9,0-14,4.2-20.5,8.5-7.9,5.3-16,10.8-28.7,10.8a1,1,0,0,0-.9.7,1.13,1.13,0,0,0,.3,1.1c3.8,3.1,13.6,7.9,27.7,7.9a76.31,76.31,0,0,0,10.4-.8c15.2-2.5,21-7.3,24.9-10.4,2.3-1.9,3.9-3.2,6.5-3.2,3.1,0,6.4,2.1,10.5,4.7,5.2,3.3,11.7,7.4,20.5,8.9,12.6,2,25-3.7,29.7-7A1,1,0,0,0,323.6,308.3Zm-29.8,6c-8.4-1.3-14.7-5.4-19.7-8.6-4.3-2.7-7.9-5.1-11.6-5.1-3.3,0-5.3,1.6-7.7,3.6-3.9,3.2-9.3,7.6-23.9,10-16.2,2.6-28.2-1.4-34.1-4.9,11.7-.8,19.7-6.2,26.8-11,6.5-4.4,12.1-8.2,19.4-8.2,11,0,14.2,2.7,17.3,5.3l1.7,1.4a.91.91,0,0,0,1.1.1l.6-.4a36.69,36.69,0,0,1,21.2-6.3c5.4,0,8.9,2.7,13.7,6.5,5,3.9,11.1,8.6,21.7,12.2C314.9,311.9,304.4,316,293.8,314.3Z"/><path d="M320.3,308.8c-5.4,3.1-15.8,7.2-26.5,5.5-8.4-1.3-14.7-5.4-19.7-8.6-4.3-2.7-7.9-5.1-11.6-5.1-3.3,0-5.3,1.6-7.7,3.6-3.9,3.2-9.3,7.6-23.9,10-16.2,2.6-28.2-1.4-34.1-4.9,11.7-.8,19.7-6.2,26.8-11,6.5-4.4,12.1-8.2,19.4-8.2,11,0,14.2,2.7,17.3,5.3l1.7,1.4a.91.91,0,0,0,1.1.1l.6-.4a36.69,36.69,0,0,1,21.2-6.3c5.4,0,8.9,2.7,13.7,6.5S309.7,305.2,320.3,308.8Z" fill="#82443a"/><path d="M268.8,284.3a4.9,4.9,0,0,1-4.2,3.2c-1.6.1-3,.2-4.3.2a29.22,29.22,0,0,1-3.8-.2l.1-1a48.68,48.68,0,0,0,7.9,0,3.54,3.54,0,0,0,3.3-2.5c.7-2,.2-5.6-3.6-9.3-4.9-4.6-5.3-16.1-4.9-21.6l1,.1c-.4,5.3,0,16.4,4.6,20.8C269,277.9,269.6,281.9,268.8,284.3Z"/><path d="M250,447a11.48,11.48,0,0,1-1.9.1,56.62,56.62,0,0,1-13.5-2.2c-.4-.1-.8-.2-1.3-.3a5.64,5.64,0,0,1-1.2-.4c-7.9-2.3-16.2-5.8-21.1-9.6-2.7-2-4.2-4-4.3-5.7v-.5a4.1,4.1,0,0,1,.1-1.1,1.69,1.69,0,0,1,.3-1,4.82,4.82,0,0,1,1.7-2.1c2-1.5,5.2-2.1,8.8-2.1a35,35,0,0,1,9.7,1.4c.6.2,1.2.4,1.7.6v.2c0,.2.1.4.1.7a15.26,15.26,0,0,0,.7,2.4c.1.1.1.3.2.4.2.6.5,1.1.8,1.8a4.88,4.88,0,0,1,.3.7,35.09,35.09,0,0,0,9.7,11.1,38.69,38.69,0,0,0,6.7,4.3c.1,0,.1.1.2.1A12,12,0,0,0,250,447Z" fill="#f3d16f"/><path d="M266,447.4a.37.37,0,0,0-.1.3l-.1.4-.4,1.4-.8,2.5-2.8,8.9-2.1,6.6-.5,1.4-.8-2.2L252,448.8l-.4-1.2c.8.3,1.5.7,2.3,1l4.3,17a1.08,1.08,0,0,0,1,.8h.1a1.06,1.06,0,0,0,.9-.8l3.4-17C264.3,448.3,265.1,447.8,266,447.4Z" fill="#f3d16f"/><path d="M308.6,432.4c-.4,4.1-11.3,8.9-22.4,11.8l-1.3.3-1.3.3a75.29,75.29,0,0,1-14.1,2.1h-2.8c7.7-4.3,18.7-12.2,22.9-21.2.2-.5.4-.9.6-1.4,0-.1.1-.1.1-.2h.1a.35.35,0,0,1,.2-.1,10.37,10.37,0,0,1,1-.4,6.89,6.89,0,0,0,.8-.3,16.18,16.18,0,0,1,12.3,2.2c.1,0,.1.1.2.1a13.06,13.06,0,0,1,1.5,1.2,12,12,0,0,1,1.1,1.2A8.23,8.23,0,0,1,308.6,432.4Z" fill="#f3d16f"/><path d="M294,262.7c-3.1.4-6.1-3.7-6.7-9.1s1.4-10,4.4-10.4,6.1,3.7,6.7,9.1S297.1,262.4,294,262.7Z"/><path d="M236.6,253.2c-.8,5.4-3.9,9.4-6.9,9s-4.9-5.2-4.2-10.5,3.9-9.4,6.9-9S237.3,247.8,236.6,253.2Z"/><path d="M232.4,225.4c-.1.9-.7,1.6-1.3,1.5a26,26,0,0,0-10.9,1,21.77,21.77,0,0,0-11.9,8.3,1,1,0,0,1-1.7,0,2.11,2.11,0,0,1,0-2.4,24.51,24.51,0,0,1,13.1-9.3,30.16,30.16,0,0,1,11.7-1.1A1.85,1.85,0,0,1,232.4,225.4Z" fill-rule="evenodd"/><path d="M316.9,235.5c-.4.8-1.1,1-1.7.4a35.39,35.39,0,0,0-9.8-7c-4.2-2-8.9-3-13.2-1.4-.6.2-1.3-.3-1.4-1.2a1.86,1.86,0,0,1,.8-2.1c4.9-1.9,10.1-.7,14.5,1.4a36.91,36.91,0,0,1,10.5,7.5A2.08,2.08,0,0,1,316.9,235.5Z" fill-rule="evenodd"/><path d="M369.1,163.7c-2.1,7.4-4.5,15.8-3.2,31,1.3,15.4-2.2,39.1-5.4,55.7-.2.9-.4,1.9-.5,2.7-.1.3-.1.7-.2,1-.3,1.4-.5,2.7-.8,3.9-5.2-18.1-27.5-91.7-48.7-91.7-10.6,0-14.4,5.6-18.5,11.5-5.1,7.4-10.9,15.9-32.3,15.9-19.5,0-25.1-6.4-30.6-12.5s-10.9-12.3-28.5-12.3c-27,0-40.8,54.6-45,87.8-.3-1.4-.7-2.8-1-4.1-.1-.3-.1-.7-.2-1-.3-1.1-.5-2.3-.8-3.4-10.9-48.4-10.2-82.4,2.1-101.3,10-15.3,25.2-17.8,36.4-19.6a47.65,47.65,0,0,0,8.9-2c5.1-1.9,8.4-5.6,12.1-9.9,8.6-9.8,20.4-23.2,65.2-23.2,34.5,0,57.5,13,70.7,23.8,15.8,13,22.9,27.5,22.9,33.5C371.6,154.7,370.4,158.9,369.1,163.7Z" fill="#82443a"/><path d="M282.6,318.9a.91.91,0,0,0-1.1-.1c-4.6,3.3-12.2,4.1-19.7,3.3s-14.4-3.2-17.9-5.9a.92.92,0,0,0-1-.1,1,1,0,0,0-.5.8c.3,3.7,2.5,7.8,5.9,11.2a23.77,23.77,0,0,0,12.9,7c5.2.8,9.9-1.6,13.5-4.9a34.74,34.74,0,0,0,7.9-10.5C283,319.6,282.9,319.2,282.6,318.9Zm-8.8,10.3c-3.5,3.1-7.6,5.1-12.1,4.4a22.88,22.88,0,0,1-12-6.5,19.57,19.57,0,0,1-5-8.2c4.1,2.4,10.5,4.3,17,5,6.3.7,13,.3,18.1-2A39.31,39.31,0,0,1,273.8,329.2Z" fill-rule="evenodd"/><path d="M279.8,321.9a36.31,36.31,0,0,1-6,7.3c-3.5,3.1-7.6,5.1-12.1,4.4a22.88,22.88,0,0,1-12-6.5,19.57,19.57,0,0,1-5-8.2c4.1,2.4,10.5,4.3,17,5C268,324.6,274.7,324.2,279.8,321.9Z" fill="#ae5646" fill-rule="evenodd"/><path d="M415.3,463.9l-1.9-1.6c-21.2-16.6-65.5-28.3-104.9-35.9a13.94,13.94,0,0,0-2.5-2.3,18.2,18.2,0,0,0-14.8-2.4c-1.6-9.8-3.4-29.1.2-43.1,36.6-11.6,53.8-43.3,61.8-71.1,4.3.5,15.4.8,23.4-6.2q8.1-7.05,8.1-20.7c0-9.8-2.6-17.3-7.8-22.3a23,23,0,0,0-14.7-6.2c3.3-16.7,7-41.6,5.7-57.7-1.2-14.8,1.1-23.1,3.2-30.3,1.3-4.7,2.6-9.2,2.6-14.7,0-7.6-8.3-22.4-23.6-35.1-13.5-11.1-36.9-24.3-72-24.3-45.7,0-57.8,13.8-66.7,23.8-3.6,4.1-6.7,7.6-11.3,9.3a52.32,52.32,0,0,1-8.5,1.9c-10.9,1.8-27.3,4.5-37.7,20.5-12.8,19.6-13.4,54.9-1.8,105-6.9,1.1-20.3,6.1-20.3,28.2,0,9,2.7,15.9,8.1,20.6,7.9,7,18.9,6.7,23.2,6.2,7.3,22.3,18.1,40.3,32.2,53.3a87.47,87.47,0,0,0,34.3,19.7c1.7,22.1,2,40.8.6,43.8-6.1-2.5-17.2-3.9-22.6.1a7.11,7.11,0,0,0-2.7,4.1c-47,7.5-81.8,19.3-103.9,35-1,.7-2,1.4-2.9,2.1l-1,.8,1,.8c24,20,92.1,49.7,162,49.7,68.9,0,132.3-29.1,155.3-49.7l.8-.8ZM290.2,424.4c0-.1.1-.1.1-.2h.1a.35.35,0,0,1,.2-.1,10.37,10.37,0,0,1,1-.4,6.89,6.89,0,0,0,.8-.3,16.18,16.18,0,0,1,12.3,2.2c.1,0,.1.1.2.1a13.06,13.06,0,0,1,1.5,1.2,12,12,0,0,1,1.1,1.2,6.1,6.1,0,0,1,1.2,4.3c-.4,4.1-11.3,8.9-22.4,11.8l-1.3.3-1.3.3a75.29,75.29,0,0,1-14.1,2.1h-2.8c7.7-4.3,18.7-12.2,22.9-21.2A6.94,6.94,0,0,1,290.2,424.4Zm-.9-2c-.1,0-.2.1-.3.1a1,1,0,0,0-.5.6c-3.7,10.8-18.8,20.3-26.3,23.9a1.06,1.06,0,0,0-.6.7L259,460.9l-3.4-13.2a1.06,1.06,0,0,0-.6-.7c-16.4-6.4-22.6-16.3-24-21.9V425a1.85,1.85,0,0,1,.2-.7c.9-.7,2-3.6,1.6-18.3-.2-10.4-1-21.6-1.4-26.6a105.9,105.9,0,0,0,28.7,3.8,103.29,103.29,0,0,0,29-3.9C285.8,393.7,287.6,413,289.3,422.4Zm-23.3,25a.37.37,0,0,0-.1.3l-.1.4-.4,1.4-.8,2.5-2.8,8.9-2.1,6.6-.5,1.4-.8-2.2L252,448.8l-.4-1.2c.8.3,1.5.7,2.3,1l4.3,17a1.08,1.08,0,0,0,1,.8h.1a1.06,1.06,0,0,0,.9-.8l3.4-17C264.3,448.3,265.1,447.8,266,447.4ZM155.4,146.8c10-15.3,25.2-17.8,36.4-19.6a47.65,47.65,0,0,0,8.9-2c5.1-1.9,8.4-5.6,12.1-9.9,8.6-9.8,20.4-23.2,65.2-23.2,34.5,0,57.5,13,70.7,23.8,15.8,13,22.9,27.5,22.9,33.5,0,5.3-1.2,9.4-2.5,14.2-2.1,7.4-4.5,15.8-3.2,31,1.3,15.4-2.2,39.1-5.4,55.7-.2.9-.4,1.9-.5,2.7-.1.3-.1.7-.2,1-.3,1.4-.5,2.7-.8,3.9-5.2-18.1-27.5-91.7-48.7-91.7-10.6,0-14.4,5.6-18.5,11.5-5.1,7.4-10.9,15.9-32.3,15.9-19.5,0-25.1-6.4-30.6-12.5s-10.9-12.3-28.5-12.3c-27,0-40.8,54.6-45,87.8-.3-1.4-.7-2.8-1-4.1-.1-.3-.1-.7-.2-1-.3-1.1-.5-2.3-.8-3.4C142.4,199.6,143.1,165.6,155.4,146.8Zm74.4,230c-37.7-11.5-56.2-44.2-65.3-72.5l-.3-.8-.8.1c-3.3.4-14.6,1.3-22.5-5.7-4.9-4.3-7.4-10.7-7.4-19.1,0-20.8,12.5-25.3,18.8-26.3.8,3.2,1.5,6.4,2.4,9.7l2-.1c3.3-31.6,16.6-91.4,43.6-91.4,16.7,0,21.7,5.7,27,11.6,5.8,6.5,11.8,13.2,32.1,13.2,22.4,0,28.6-8.9,34-16.7,3.9-5.7,7.3-10.6,16.8-10.6,16.4,0,37.6,56.3,47.8,94.1h1.9c.5-2.3,1.1-5.1,1.8-8.2a21.54,21.54,0,0,1,13.7,5.7c4.8,4.6,7.2,11.6,7.2,20.8,0,8.4-2.5,14.9-7.4,19.1-8,6.9-19.3,6-22.6,5.6l-.9-.1-.2.8c-7.8,27.3-24.5,58.9-60.6,70.4-.3.1-.7.2-1,.3s-.7.2-1,.3a108,108,0,0,1-56.8.2l-1.1-.3A2.36,2.36,0,0,1,229.8,376.8Zm-.4,46.4h0C229.3,423.3,229.3,423.2,229.4,423.2Zm-22.7,4.2a1.69,1.69,0,0,1,.3-1,4.82,4.82,0,0,1,1.7-2.1c2-1.5,5.2-2.1,8.8-2.1a35,35,0,0,1,9.7,1.4c.6.2,1.2.4,1.7.6v.2c0,.2.1.4.1.7a15.26,15.26,0,0,0,.7,2.4c.1.1.1.3.2.4.2.6.5,1.1.8,1.8a4.88,4.88,0,0,1,.3.7,35.09,35.09,0,0,0,9.7,11.1,38.69,38.69,0,0,0,6.7,4.3c.1,0,.1.1.2.1.8.5,1.7.9,2.5,1.3a11.48,11.48,0,0,1-1.9.1,56.62,56.62,0,0,1-13.5-2.2c-.4-.1-.8-.2-1.3-.3a5.64,5.64,0,0,1-1.2-.4c-7.9-2.3-16.2-5.8-21.1-9.6-2.7-2-4.2-4-4.3-5.7v-.5A1.75,1.75,0,0,1,206.7,427.4Zm138.2,71.9c-25.2,8.1-54.5,13.8-84.9,13.8-38.5,0-76.4-9-106.6-20.5-23.5-8.9-42.4-19.3-53.2-28,.8-.6,1.6-1.1,2.4-1.7,21.8-15.3,56-26.8,102.1-34.2v.4c.2,2.3,2,4.6,5.1,7.1,5.6,4.2,14.9,8.1,23.5,10.4l1.3.3,1.3.3c5.6,1.4,10.7,2,14,1.7l7.5,21.1.6,1.7.3.7a1.09,1.09,0,0,0,1,.7.76.76,0,0,0,.5-.2,1,1,0,0,0,.4-.5l.3-.9,7.1-22.5c3.7.2,9-.5,14.6-1.7l1.3-.3,1.3-.3c12.3-3,25.2-8.4,25.8-14a9.08,9.08,0,0,0-.6-4c38.4,7.5,81.1,18.9,101.7,34.8l1.4,1.1C400.2,475.8,375.6,489.4,344.9,499.3Z"/></g></g></svg>