<svg xmlns="http://www.w3.org/2000/svg" viewBox="0 0 515.1 516.3"><title>Asset 11</title><g id="Layer_2" data-name="Layer 2"><g id="Слой_1" data-name="Слой 1"><path d="M515.1,257.6a257.34,257.34,0,0,1-106,208.3l-.3-.3-.3-.3-.7-.7a4.35,4.35,0,0,0-.7-.6c-.6-.5-1.2-1.1-1.9-1.7a10.47,10.47,0,0,0-1.1-.8.35.35,0,0,0-.2-.1c-.3-.2-.6-.5-.9-.7l-1.2-.9c-.5-.3-.9-.7-1.4-1-.1,0-.1-.1-.2-.1a.35.35,0,0,1-.2-.1l-.2-.2c-.4-.3-.9-.6-1.3-.9-3.6-2.4-8-5-13.1-7.7-.3-.2-.7-.3-1-.5-.5-.2-.9-.5-1.4-.7-.1,0-.1,0-.1-.1-.3-.1-.5-.3-.8-.4-.1-.1-.3-.1-.4-.2s-.3-.1-.4-.2c-.5-.3-1.1-.5-1.6-.8s-1.1-.5-1.7-.8c-.1-.1-.3-.1-.4-.2a11.11,11.11,0,0,0-1.6-.7c-.1-.1-.2-.1-.4-.2s-.2-.1-.3-.1a14.17,14.17,0,0,0-1.8-.8c-.1,0-.2-.1-.3-.1-.8-.4-1.6-.7-2.5-1.1a4.67,4.67,0,0,1-1-.5c-.4-.2-.8-.3-1.2-.5-.1,0-.2-.1-.3-.1a.31.31,0,0,1-.2-.1c-.8-.3-1.6-.7-2.5-1,22.4-78.6,17.8-205.2-22.8-257.8-.6-.8-1.2-1.5-1.8-2.3s-1.2-1.5-1.9-2.2-1.3-1.4-1.9-2.1-1.3-1.3-1.9-2c-11.9-11.6-25.8-17.2-41.4-16.5-5-5.1-20.1-14.2-43.7-14.2-16,0-42.1,9.5-64.3,30.6-.9.9-1.8,1.7-2.7,2.7a141.27,141.27,0,0,0-29.5,44.7c-.7,1.7-1.4,3.5-2.1,5.2-1.4,3.6-2.6,7.3-3.8,11.3-.2.6-.4,1.3-.6,2-.6,2-1.1,4-1.6,6.1-.2.7-.3,1.4-.5,2.1-.3,1.4-.7,2.8-1,4.3a17,17,0,0,0-.4,2.2c-.4,2.2-.8,4.4-1.2,6.7-.3,1.5-.5,3.1-.7,4.6l-.3,2.4c-.1,1.2-.3,2.4-.4,3.6-.2,1.8-.4,3.6-.5,5.5s-.3,3.8-.4,5.7c-.3,4.9-.5,9.5-.6,14-.2.6-.5,1.2-.7,1.8l-.6,1.8c-.1.4-.3.8-.4,1.2s-.3,1.1-.5,1.7-.4,1.5-.6,2.2c-.3,1.1-.5,2.3-.7,3.4a57,57,0,0,0-.6,5.8,58.13,58.13,0,0,0,4.4,25.8c1.8,29,6.6,43.8,9.7,53.3,2.3,7,3.7,11.3,2.3,16.3-.2.7-.4,1.4-.6,2-.6,2-1.3,3.9-2,5.7-.3.6-.5,1.2-.8,1.8s-.5,1.2-.8,1.7c-.6,1.1-1.1,2.2-1.8,3.3a13.73,13.73,0,0,1-1.3,2c-.4.7-.9,1.3-1.3,1.9l-.9,1.2a22,22,0,0,1-2,2.3c-.3.4-.7.7-1,1.1-.5.5-1,1-1.6,1.5s-1.1.9-1.6,1.4a24.76,24.76,0,0,1-2.6,1.9c-.9.6-1.8,1.1-2.7,1.6-15.5,8.3-32.9,2.9-33,2.8a1.16,1.16,0,0,0-1,.2c-.1,0-.1.1-.2.2a.92.92,0,0,0,.1,1.2l.1.1a17.47,17.47,0,0,0,1.8,2c.3.4.7.7,1.1,1.2a9,9,0,0,1,.9,1l.5.5a116,116,0,0,0,11.8,10.2c-.2.2-.4.3-.6.5l-.5.5-1,1a4.62,4.62,0,0,1-.7.7,9.43,9.43,0,0,0-1,1,40.31,40.31,0,0,0-2.6,3.2A257.25,257.25,0,0,1,0,257.7C0,115.4,115.4,0,257.7,0S515.1,115.3,515.1,257.6Z" fill="#f2f2f2"/><path d="M153.3,410.9c-4.1,14.8-11.5,25.1-22,30.8-12.3,6.6-25.4,5-31.3,3.8,6,1.3,19,2.8,31.3-3.8,10.5-5.6,17.9-16,22-30.8l.3-1.2C153.5,410.2,153.4,410.5,153.3,410.9Zm17.4,19.2a1,1,0,0,1-1,.8h-.2a1.09,1.09,0,0,1-.8-.8,1,1,0,0,0,.8.8h.2a1,1,0,0,0,1-.8c.1-.4.2-.9.3-1.3A5,5,0,0,1,170.7,430.1Zm.7-2.6c.4-1.7.8-3.5,1.1-5.2C172.1,424,171.8,425.8,171.4,427.5Zm-19-67a62.33,62.33,0,0,1-10.6-14.7,60.36,60.36,0,0,0,10.6,14.7A216.63,216.63,0,0,1,174,387.1,207.74,207.74,0,0,0,152.4,360.5ZM176,390c1.4,2.2,2.8,4.4,4.1,6.5C178.8,394.4,177.4,392.2,176,390Zm16.9-34c-14-15.4-27-32.8-24.7-48,1.2-7.9,6.5-14.5,16.1-20.1v-.1c-9.6,5.6-14.9,12.3-16.2,20.2-2.3,15.2,10.8,32.6,24.8,48Zm1.6,65.7c-.5,1-.9,2-1.3,2.9a1,1,0,0,1-.9.6h-.2a1.09,1.09,0,0,1-.8-.8,1.09,1.09,0,0,0,.8.8h.2a.87.87,0,0,0,.9-.6c.4-.8.8-1.8,1.3-2.9,2.7-6,6.4-14.1,8.6-22.8C200.9,407.6,197.2,415.7,194.5,421.7ZM205,408a1,1,0,0,1-.8-.3,1,1,0,0,0,.8.3.79.79,0,0,0,.8-.5A.89.89,0,0,1,205,408Zm-7.3-68.1a72.35,72.35,0,0,1-7-15.8,72.35,72.35,0,0,0,7,15.8,142.26,142.26,0,0,0,20.6,27A145.53,145.53,0,0,1,197.7,339.9Zm83.6-153c-.1-.1-.1-.2-.2-.3s.1-.2.1-.3v-.2c-.1.2-.1.3-.2.5a1.76,1.76,0,0,0,.4.5ZM286.6,378v27.8l.1-.8-.1-27a45.3,45.3,0,0,0,4.6-3v-.1C289.7,376,288.1,377.1,286.6,378Zm30.3,86.1-.3-.9h-.1a3.55,3.55,0,0,0,.4.9,2.92,2.92,0,0,0,.2.9v.1h.1C317.1,464.7,317,464.4,316.9,464.1Zm2.2-114.6v.2l.2-.2c2.1-2.3,4-4.5,5.6-6.4v-.2C323.2,344.8,321.2,347.1,319.1,349.5Zm23.3-166.7c-.6-.8-1.2-1.5-1.8-2.3.6.8,1.2,1.6,1.8,2.3,40.6,52.5,45.2,179.1,22.8,257.8C387.6,362,383,235.4,342.4,182.8Z"/><path d="M193,356.1c-14.1-15.5-27.2-32.9-24.9-48.1,1.2-7.9,6.5-14.6,16.2-20.2v.1c.1.6.1,1.2.2,1.8a234.84,234.84,0,0,0,3.8,25.3,222.09,222.09,0,0,0,4.7,41.1Z" fill="#f3ba63"/><path d="M291.2,374.9h0L286.7,405l-.1.8V378C288.1,377.1,289.7,376,291.2,374.9Z" fill="#f3ba63"/><path d="M324.8,342.8v.2c-3.1,18.5-7.3,36.5-10.6,50.9-1.7,7.2-3.1,13.5-4.2,18.8a65.75,65.75,0,0,0-1.2,11.9c-.2,0-.4-.1-.6-.1l8-58.4c1.1-5.6,2.1-11.1,2.9-16.4v-.2C321.2,347.1,323.2,344.8,324.8,342.8Z" fill="#f3ba63"/><path d="M222.5,423.2c-4.7,1.1-10.9,2.3-17,3.5-11.2,2.2-25.3,4.8-39.3,8.6H166c-23.9,6.3-40.9,13.8-51.8,22.7a105.84,105.84,0,0,1-14.1-12.4c6,1.3,19,2.8,31.3-3.8,10.5-5.7,17.9-16,22-30.8l.3-1.2a20,20,0,0,0-.1-7.7c-.1-.3-.1-.6-.2-1a19.45,19.45,0,0,0-.5-2c-.1-.3-.2-.7-.3-1-.2-.5-.3-1.1-.5-1.6a8.45,8.45,0,0,1-.5-1.7c-.1-.2-.1-.4-.2-.6s-.1-.4-.2-.6c-.3-.8-.5-1.7-.8-2.6a1.85,1.85,0,0,1-.2-.7c-.1-.5-.3-.9-.4-1.4-.1-.3-.1-.5-.2-.8L149,386c-.3-.9-.5-1.8-.8-2.8q-.6-2.25-1.2-4.8t-1.2-5.4a220.88,220.88,0,0,1-3.7-27,65.3,65.3,0,0,0,10.6,14.7,216.63,216.63,0,0,1,21.6,26.6,178.94,178.94,0,0,1-3.3,34.2c-.3,1.4-.6,2.8-.9,4.1a16,16,0,0,1-.5,2.1c-.2.7-.3,1.4-.5,2.1v.4a1.09,1.09,0,0,0,.8.8h.2a1.05,1.05,0,0,0,1-.8c.1-.4.2-.9.3-1.3s.2-.9.3-1.3c.4-1.8.8-3.5,1.1-5.2a176.06,176.06,0,0,0,3.5-32.3c1.5,2.2,2.8,4.4,4.1,6.5a23.92,23.92,0,0,0,1.3,2.1c.7,1.1,1.3,2.3,1.9,3.4.9,1.7,1.8,3.3,2.5,4.8.5,1,1,2.1,1.4,3.1a10.09,10.09,0,0,0,.7,1.5,13.36,13.36,0,0,1,.7,1.8l.3.9c.2.6.4,1.1.6,1.7a32.49,32.49,0,0,1,1.3,4.6,19,19,0,0,1,.5,3.9v.2a1.09,1.09,0,0,0,.8.8h.2a.87.87,0,0,0,.9-.6c.4-.9.8-1.9,1.3-2.9,2.7-6,6.4-14.1,8.6-22.9a74,74,0,0,1,.8,8.1v.2a.31.31,0,0,0,.1.2.22.22,0,0,0,.2.2,1.14,1.14,0,0,0,.8.3h.1a1,1,0,0,0,.8-.5.37.37,0,0,0,.1-.3v-.3a115,115,0,0,0-1.7-13.3,46.88,46.88,0,0,0,.2-17.9c-.2-1.1-.5-2.2-.8-3.3a37.46,37.46,0,0,0-1.6-4.3c-.2-.4-.3-.7-.5-1.1a24.79,24.79,0,0,0-1.8-3.1,5.67,5.67,0,0,1-.8-1.3,22,22,0,0,0-1.4-1.8c-.5-.6-1-1.2-1.6-1.8l-.1-.1c-.1-.6-.3-1.2-.4-1.9-.3-1.3-.5-2.5-.8-3.8a215,215,0,0,1-3.8-29.2,71.82,71.82,0,0,0,7,15.8,138.23,138.23,0,0,0,20.6,26.9v.1Z" fill="#f3ba63"/><path d="M231.1,377.4c0,7.9-.4,19.5-.6,28.9-.2,6.6-.4,11.8-.4,14.1-.3.7-2.5,1.5-5.8,2.3l-4-53.9A70.18,70.18,0,0,0,231.1,377.4Z" fill="#f3ba63"/><path d="M316.7,352.2c-.7,4.5-1.5,9-2.4,13.7l-8,58.4c-6.3-1.1-12.8-2-19.7-2.6v-2.3l6.9-46a174.71,174.71,0,0,0,23-21Z" fill="#f3ba63"/><path d="M363.4,439.9c-3.9-1.5-7.9-3-12.2-4.5h-.1c-6.3-2.1-13.4-4.3-21.2-6.2,2.4-11.2,5.6-21.8,10.1-29.5,8.9-15.5,17.4-48.1,21.7-78.9,0-.3.1-.6.1-.9-.3,45.1-6.4,87.3-11.3,109.8a1,1,0,0,0,.6,1.1h.1a1,1,0,0,0,1.2-.8c5.4-25.2,12.4-74.9,11.1-125.9,1.2-12.6,1.5-24.3.7-33.3-.8-8.6-3.5-19.1-7.4-29.9,0-.2-.1-.4-.1-.6-8.7-41.1-25.5-58.6-38-66.1-14.6-8.7-27.4-6.5-31.8-5.3-8.3-11.1-31.5-25.4-62.8-3.4-43.7,30.7-65.4,66.6-64.7,106.9-2,1.7-4.3,3.5-6.9,5.6a47.51,47.51,0,0,0-11.3,14.1c.1-3,.3-6,.5-9.2,3.2-56.5,26.3-89.6,45.1-107.5,21.8-20.7,47.3-30,62.9-30,23.5,0,38.1,9.1,42.6,13.9a1.14,1.14,0,0,0,.8.3c18.6-1,34.6,7.2,47.7,24.2C381,236.1,385.6,361.7,363.4,439.9Z" fill="#f3ba63"/><path d="M351.7,228.3c-11.5-25.6-28.9-49.4-44.4-51-12.7-1.3-19.9,1.8-23.6,5.4a17.38,17.38,0,0,0-1.3,1.5,10.59,10.59,0,0,0-1.2,2c-1.3-7.3-4.8-15.7-11.6-18.1-32.4-11.5-45.7,2.1-55.4,21.5q-8.85,12.3-14.4,32.1c-1.7,3.3-3.5,6.5-5.5,9.6-17.2,26.5-20.9,30-32.9,39.8-.1-39,21.4-73.8,63.9-103.6,30.6-21.5,52.9-7.1,60.5,3.5a1.19,1.19,0,0,0,1.1.4c3.5-1.1,16.2-3.9,30.9,4.9C328.6,182.6,342.7,196.8,351.7,228.3Z" fill="#f3ba63"/><path d="M349.2,436.9a46.25,46.25,0,0,1-6.1,8.1l-.9.9-.9.9a75.33,75.33,0,0,1-15.8,11.7c.4-4.1.9-8.5,1.5-13,0-.3.1-.7.1-1s.1-.7.1-1c.6-4.1,1.3-8.3,2.2-12.5h.1c4.4,1.1,8.6,2.3,12.6,3.5.6.2,1.3.4,1.9.6l2.7.9C347.6,436.4,348.4,436.6,349.2,436.9Z" fill="#fdd29d"/><path d="M316.6,463.1c0,.1-.1.1,0,0-13.9,6.1-32,10.5-55,10.5-34.3,0-59.3-9.7-75.4-20.2l-.9-.6c-.3-.2-.6-.4-1-.7-7.8-5.3-13.3-10.8-16.5-15.2,13.6-3.5,27.1-6.1,38-8.2,7.3-1.4,12.8-2.5,16.8-3.4.7-.2,1.4-.3,2-.5,5.5-1.4,7.7-2.6,7.7-4.3,0-2.2.2-7.7.4-14.1.3-9,.6-19.9.6-27.8a54,54,0,0,0,28.3,8c7.6,0,15.5-2.9,23.1-7.4v43.3a1,1,0,0,0,.9,1,1.09,1.09,0,0,1,.5.1q10.35,1,20.1,2.7l2,.3c.3,0,.5.1.8.1h.1a97,97,0,0,0,1.7,15.1c.1.3.1.7.2,1s.1.7.2,1A119.5,119.5,0,0,0,316.6,463.1Z" fill="#fdd29d"/><path d="M407.1,466.9c-1.4,1.1-2.9,2.4-4.5,3.6-12.3,9.4-33.3,21.5-60.6,30.6-.1,0-.2.1-.3.1a256.38,256.38,0,0,1-80.1,13c-71.8,0-131.1-30.7-153.2-47.4.5-.7,1.1-1.4,1.7-2.1.3-.3.6-.7.9-1l1-1a11,11,0,0,1,1.1-1c.3-.3.7-.6,1-.9.1-.1.1-.1.2-.1.2-.2.5-.4.7-.6l.2-.2a4.23,4.23,0,0,1,.7-.5c10.5-8.5,27-15.7,49.9-21.8,3.1,4.4,8.6,10.1,16.6,15.7a5.5,5.5,0,0,1,.9.7l.9.6c16.3,10.9,42,21.2,77.4,21.2,23.2,0,41.6-4.5,55.6-10.6h.1a129.43,129.43,0,0,0,5.4,12.2,1,1,0,0,0,.6.5c.1,0,.2.1.3.1h.2a1.08,1.08,0,0,0,.8-1c.1-4.2.4-9.7.9-15.8a81.7,81.7,0,0,0,18.6-13.9l.9-.9.9-.9a44.46,44.46,0,0,0,5.6-7.7c4,1.4,7.9,2.8,11.5,4.2a3.55,3.55,0,0,1,.9.4c.3.1.6.3.9.4,19.2,7.8,32.7,16,39.5,21.7.5.4.9.8,1.3,1.1A6.1,6.1,0,0,1,407.1,466.9Z" fill="#7a62b6"/><path d="M362.8,285.3v1.3c-.1,5.5-.5,11.4-1.1,17.6,0,.3-.1.7-.1,1-3.3,34.2-13.1,75.5-23.4,93.4-4.5,7.9-7.8,18.7-10.3,30-.1.3-.1.6-.2,1s-.1.7-.2,1c-.9,4.2-1.6,8.5-2.2,12.8-.1.3-.1.7-.2,1s-.1.7-.1,1c-.7,5-1.2,9.9-1.6,14.4,0,.4-.1.8-.1,1.2s-.1.8-.1,1.1c-.3,3.9-.5,7.4-.6,10.6a.35.35,0,0,0-.1-.2c-1.1-2.4-2.3-5.2-3.4-8.3l-.3-.9-.3-.9a140,140,0,0,1-5.3-18.2c-.1-.3-.1-.7-.2-1s-.1-.7-.2-1a94.52,94.52,0,0,1-1.8-15v-2a58.56,58.56,0,0,1,1.1-11.9c1.1-5.3,2.5-11.5,4.2-18.8,3.6-15.4,8.1-34.9,11.3-54.8a46.81,46.81,0,0,0,4-6.9c.1,0,.2-.1.4-.1a4.87,4.87,0,0,0,1.1-.4c1-.4,1.9-.7,2.8-1.1q2-.9,3.6-1.8c10.4-5.9,15.5-15.6,15.5-29.2,0-8.4-3.3-15.2-8.3-16.8a7.08,7.08,0,0,0-5.5.5,11.53,11.53,0,0,0-2.6,1.9l-.1.1a37.37,37.37,0,0,0-4-9.6c-2.2-3.7-3.9-9.6-5.6-16.7-.9-4-1.8-8.4-2.7-13.1-2.8-14.2-5.9-29.5-11.2-41.2,0-.1,0-.1-.1-.2-3.4-7.4-7.7-13.4-13.5-16.6-.3-.2-.6-.3-.9-.5a20,20,0,0,0-9.8-2.6,17.22,17.22,0,0,0-3.9.4,17.42,17.42,0,0,0-2.2.5,6.47,6.47,0,0,0-1.3.4,6.73,6.73,0,0,1,.7-1.1,8.7,8.7,0,0,1,1.3-1.5c2.7-2.7,7.8-5.1,16.4-5.1,1.7,0,3.6.1,5.6.3,10.4,1.1,23.1,13.6,34.9,34.3a189.81,189.81,0,0,1,12.6,27.1,1.45,1.45,0,0,1,.2.7c1.8,4.8,3.3,9.6,4.5,14.1.1.4.2.7.3,1.1a97.05,97.05,0,0,1,2.6,14.5C362.7,275.4,362.9,280.2,362.8,285.3Z" fill="#f3ba63"/><path d="M352.3,294.4h0c-1.2-5.2-3.8-8.3-6.3-9.2a5.23,5.23,0,0,0-4.2.5,11.32,11.32,0,0,0-1.3,1,15.38,15.38,0,0,0-1.2,1.3c-.2.2-.3.4-.5.6a1,1,0,0,1-.7.4h-.3a1.09,1.09,0,0,1-.8-.8,34,34,0,0,0-4.3-10.9,33,33,0,0,1-2.5-5.3c-.5-1.4-1-2.9-1.5-4.6-.7-2.3-1.3-4.8-1.9-7.4q-1.35-6.15-2.7-13.2c-2.9-14.6-6.3-31.6-12.5-43.5a.35.35,0,0,0-.1-.2c-3-5.7-6.7-10.3-11.2-12.8-.3-.1-.5-.3-.8-.4a18.23,18.23,0,0,0-10.9-1.8,22.31,22.31,0,0,0-2.3.4,46.09,46.09,0,0,0-4.6,1.3c.1,1,.1,2,.1,2.9a1.2,1.2,0,0,1-.7,1,1,1,0,0,1-1.1-.4c-3.2-4.2-11.1-11.3-18.1-7.7-8,4.1-14.5,11-20.3,19.5-.8,1.1-1.5,2.3-2.3,3.5-2.7,4.7-5.4,9.7-8.2,14.8-.9,1.7-1.9,3.4-2.8,5.1s-1.7,3.4-2.6,5.2c-2,4-4.1,8.1-6.2,12.1,4.6-1.3,9.8-.8,14.8.5.7.2.9,1.5.7,2.2s-.7,1.4-1.4,1.2c-4.5-1.2-9.6-.5-14,1-1.2.4-2.4.9-3.5,1.3l-1,1.7c-.4.7-.9,1.5-1.3,2.2-6.3,10.6-13.3,20.2-22.3,27.1-.7.6-1.4,1.1-2.1,1.6-1,.7-2.1,1.4-3.1,2,.1.9.2,1.9.3,2.8.5,4.6,1.1,9.4,1.8,14.2.5,3.7,1.2,7.5,2,11.1,1.9,8.5,4.6,16.8,9,24.1A144,144,0,0,0,218,363.7a22.84,22.84,0,0,0,2.2,2.2,82.57,82.57,0,0,0,8.6,7.4c1,.7,1.9,1.4,2.9,2a14.63,14.63,0,0,1,1.3.9c.6.3,1.1.7,1.6,1a52.25,52.25,0,0,0,26.8,7.5c7.4,0,15.2-3,22.8-7.5.5-.3.9-.6,1.4-.9l.9-.6c1.7-1.1,3.5-2.3,5.2-3.5.8-.5,1.5-1.1,2.3-1.7a183.89,183.89,0,0,0,23.3-21.9l2.4-2.7c2-2.3,3.8-4.4,5.3-6.2.2-.3.4-.5.6-.8.4-.6.9-1.3,1.3-2s.9-1.4,1.3-2.2c.6-1,1.1-2,1.7-3.2a1,1,0,0,1,.6-.5c.6-.2,1.2-.4,1.7-.6s.7-.3,1.1-.4.7-.3,1.1-.5a35.36,35.36,0,0,0,3.9-1.9,30.25,30.25,0,0,0,3.5-2.3,28.3,28.3,0,0,0,4-3.7c4-4.5,6.3-10.3,7-17.3.1-.9.1-1.9.2-2.8v-1.4A31.72,31.72,0,0,0,352.3,294.4Zm-95.5-4.9a1,1,0,0,1,.8,1.1c-.8,4.6-3.4,14.8-8.2,20.2A4.83,4.83,0,0,0,248,315c.5,2.5,3.3,4.9,5.9,6.2a1,1,0,0,1,.5,1.3,1,1,0,0,1-.9.6H253c-1-.5-6.1-3.2-7-7.6a6.87,6.87,0,0,1,1.8-5.9c4.5-5.1,7-14.8,7.7-19.2a1.1,1.1,0,0,1,1.3-.9Zm-21.4-13.1c-.8,5.4-3.9,9.3-7,8.9h-.1a.6.6,0,0,1-.4-.1c-2.8-.8-4.4-5.3-3.6-10.4.8-5.4,3.9-9.3,7-8.9a.37.37,0,0,1,.3.1h.1c.1,0,.3.1.4.1C234.7,267.2,236.2,271.6,235.4,276.4Zm42,57.6q-.45,1.2-.9,2.7c-2.3,7-5.9,17.6-17.4,18.5h-1.3a16.55,16.55,0,0,1-3.2-.3,8.45,8.45,0,0,1-1.7-.5c-8-2.8-11.9-12-14.4-18l-.6-1.3a1,1,0,0,1,1.1-1.3.37.37,0,0,1,.3.1,36.62,36.62,0,0,0,7.1,3l1.1.3c.3.1.7.2,1.1.3l1.4.3c.3.1.7.1,1,.2s.8.1,1.2.2a4.87,4.87,0,0,0,1.2.1,22.85,22.85,0,0,0,3.7,0,50.13,50.13,0,0,0,11-2.4,54.46,54.46,0,0,0,8-3.2,1.27,1.27,0,0,1,.6-.1h.1a.52.52,0,0,1,.4.2A1.72,1.72,0,0,1,277.4,334Zm12-56.1c-.7,5.4-3.8,9.4-6.9,9h-.1a.6.6,0,0,1-.4-.1c-2.8-.9-4.4-5.3-3.7-10.4.7-5.4,3.8-9.4,6.9-9a.6.6,0,0,1,.4.1C288.4,268.3,290.1,272.8,289.4,277.9ZM308,259.2a1.27,1.27,0,0,1-1.8,0c-3.4-3.4-8.2-5.3-12.9-6.2a2.2,2.2,0,0,0-.8-.1,20.76,20.76,0,0,0-4.2-.3c-2.3.1-4.2.5-5.8.7-.7.1-2.2,0-2.4-2.1a1.24,1.24,0,0,1,1.1-1.4c2.9-.3,10-2.6,14.9-1.6a10,10,0,0,1,4.3,2,16.22,16.22,0,0,1,2.8,2.5c1.5,1.5,3,3.3,4.6,4.9A.94.94,0,0,1,308,259.2Zm35.1,43.5a50.58,50.58,0,0,0-5.9,7.2l-.1.1v.1a9.15,9.15,0,0,1,4-1.9h.4a1.09,1.09,0,0,1,.8.8.9.9,0,0,1-.9,1.1c-1.4.1-3.1,1.4-4.7,2.8l-1.2,1.2a12,12,0,0,0-1.1,1.2l-.1.1a1.42,1.42,0,0,1-.6.2h-.5a1,1,0,0,1-.5-1.1,17.53,17.53,0,0,1,2.5-5.2,20.28,20.28,0,0,1,1.3-1.8c.4-.6.8-1.1,1.2-1.6,2-2.5,3.8-4.3,3.9-4.5a1.4,1.4,0,0,1,.9-.3h.1a.52.52,0,0,1,.4.2A.9.9,0,0,1,343.1,302.7Z" fill="#fdd29d"/><path d="M337,309.9h0a8.9,8.9,0,0,1,4-1.8.94.94,0,0,1,1.1.9,1,1,0,0,1-.9,1.1c-1.4.1-3.1,1.4-4.7,2.8l-1.2,1.2a12,12,0,0,0-1.1,1.2l-.1.1a1.42,1.42,0,0,1-.6.2.6.6,0,0,1-.4-.1,1,1,0,0,1-.5-1.1,16.45,16.45,0,0,1,2.5-5.2,20.28,20.28,0,0,1,1.3-1.8c.4-.6.8-1.1,1.2-1.6,2-2.5,3.8-4.3,3.9-4.5a1,1,0,0,1,1.4,1.4A51.77,51.77,0,0,0,337,309.9Z"/><path d="M277,332.9a1.09,1.09,0,0,0-1.1-.2,68.69,68.69,0,0,1-8,3.2,44.85,44.85,0,0,1-11,2.3c-7.2.5-14.8-2.6-17.8-4.3a1.06,1.06,0,0,0-1.2.1,1.19,1.19,0,0,0-.3,1.1l.6,1.3c3,7.1,7.9,18.8,19.3,18.8h1.3c11.6-.9,15.1-11.5,17.4-18.5q.45-1.5.9-2.7A.78.78,0,0,0,277,332.9Zm-2.6,3.2c-2.3,6.9-5.4,16.3-15.7,17.1s-15.2-9.4-18.1-16.3c.5.2,1,.4,1.6.7.1,0,.1,0,.2.1a.35.35,0,0,1,.2.1,42,42,0,0,0,9,2.4h.1c.4,0,.8.1,1.2.1s1,.1,1.5.1h3.2a12.25,12.25,0,0,0,1.9-.2c.4-.1.8-.1,1.2-.2,1.2-.2,2.4-.5,3.6-.8l1.2-.3,1.2-.3a6.89,6.89,0,0,0,.8-.3q2.4-.75,4.5-1.5l.9-.3c.3-.1.5-.2.8-.3a10.37,10.37,0,0,0,1-.4C274.5,335.7,274.5,335.9,274.4,336.1Z"/><path d="M274.6,335.5c-.1.2-.1.3-.2.5-2.3,6.9-5.4,16.3-15.7,17.1s-15.2-9.4-18.1-16.3c.5.2,1,.4,1.6.7.4,1.6,1.6,5.1,3.4,6.1a24.21,24.21,0,0,0,12.3,2.6c4.8-.4,10.7-1.9,13.4-4.6a9.49,9.49,0,0,0,2.3-5.8A1.93,1.93,0,0,0,274.6,335.5Z" fill="#ae5646"/><path d="M273.6,335.9c0,.2-.2,3.7-2.3,5.8-2.7,2.7-8.6,4.2-13.4,4.6a24.47,24.47,0,0,1-12.3-2.6c-1.9-1-3.1-4.5-3.4-6.1.1,0,.1,0,.2.1a.35.35,0,0,1,.2.1,40.44,40.44,0,0,0,9,2.4h.1c.4,0,.8.1,1.2.1s1,.1,1.5.1h3.2a12.25,12.25,0,0,0,1.9-.2c.4-.1.8-.1,1.2-.2,1.2-.2,2.4-.5,3.6-.8l1.2-.3,1.2-.3a6.89,6.89,0,0,0,.8-.3q2.4-.75,4.5-1.5l.9-.3A1.34,1.34,0,0,1,273.6,335.9Z" fill="#f2f2f2"/><path d="M235.3,276.4c-.8,5.4-3.9,9.4-7,8.9s-4.9-5.2-4.1-10.5,3.9-9.3,7-8.9S236.1,271,235.3,276.4Z"/><path d="M289.3,277.9c-.7,5.4-3.8,9.4-6.9,9s-5-5.1-4.2-10.5,3.8-9.4,6.9-9S290,272.5,289.3,277.9Z"/><path d="M308,259.2a1.27,1.27,0,0,1-1.8,0c-3.4-3.4-8.2-5.3-12.9-6.2a2.2,2.2,0,0,0-.8-.1,20.76,20.76,0,0,0-4.2-.3c-2.3.1-4.2.5-5.8.7-.7.1-2.2,0-2.4-2.1a1.24,1.24,0,0,1,1.1-1.4c2.9-.3,10-2.6,14.9-1.6a10,10,0,0,1,4.3,2,21.8,21.8,0,0,1,2.8,2.5c1.5,1.5,3,3.3,4.6,4.9A.94.94,0,0,1,308,259.2Z" fill-rule="evenodd"/><path d="M254.3,322.5a1,1,0,0,1-.9.6.6.6,0,0,1-.4-.1c-1-.5-6.1-3.2-7-7.6a6.87,6.87,0,0,1,1.8-5.9c4.5-5.1,7-14.8,7.7-19.2a1,1,0,0,1,1.1-.8,1,1,0,0,1,.8,1.2c-.8,4.6-3.4,14.8-8.2,20.2a4.83,4.83,0,0,0-1.4,4.2c.5,2.5,3.3,4.9,5.9,6.2A.84.84,0,0,1,254.3,322.5Z"/><path d="M279.7,189.8c-3.3-3.5-8.3-7.2-13.6-7.2a11.89,11.89,0,0,0-5.1,1.2,44.62,44.62,0,0,0-12.1,9.2c-1.5,1.5-2.9,3.1-4.3,4.8a97,97,0,0,0-6.8,9.6v.1c-4,6.3-7.6,13.2-11.3,20.3v.1c-.8,1.6-1.7,3.3-2.5,4.9-2.4,4.7-4.8,9.5-7.3,14.2-.5,1-1.1,2-1.6,2.9v.1c-.7,1.2-1.3,2.4-2,3.6-6,10.3-12.7,19.8-21.1,26.7l-.1.1c-.2.1-.3.3-.5.4s-.3.2-.4.3a7.63,7.63,0,0,1-1.1.8c-1.2.9-2.4,1.7-3.6,2.5l-.9.6a4.05,4.05,0,0,1-.9.5c-10.5,6-16.6,13.4-17.9,22.1a12.25,12.25,0,0,0-.2,1.9,32.35,32.35,0,0,0,2.7,15c4.7,12,15,24.3,25.2,35.4.2.2.3.4.5.5a31.12,31.12,0,0,1,2.3,2.8c5.5,7.4,6.9,15.9,6.2,24.4a39.8,39.8,0,0,1-.8,5.9c-1.9,10.2-6.2,19.9-9.4,26.9-1.6-8.6-7.9-21.1-16.9-34.1-.7-1-1.3-2-2-2.9a217.66,217.66,0,0,0-20.1-24.3,63.63,63.63,0,0,1-12.5-18.8c-.4-1-.8-2-1.2-3.1l-1.2-3.6a54.84,54.84,0,0,1-2-18.5,52.36,52.36,0,0,1,1.8-11.2c.3-1.2.7-2.4,1.1-3.6.3-1,.7-1.9,1.1-2.9a46,46,0,0,1,12.7-17.7c2.1-1.7,4-3.3,5.7-4.7l1.5-1.2a1.76,1.76,0,0,0,.5-.4c13.3-10.8,16.7-13.6,34.6-41.2a26.06,26.06,0,0,0,1.7-2.8c1.4-2.4,2.8-4.8,4-7.3,2.8-5.4,5.1-11.1,7.5-16.6,2.1-4.9,4.2-9.8,6.4-14.3a83.21,83.21,0,0,1,5.5-9.8c6.3-9.4,14.4-15.7,27.3-15.7,5.8,0,12.6,1.3,20.6,4.1,3.4,1.2,5.9,4.3,7.7,8.1l.9,2.1a29.07,29.07,0,0,1,1.2,3.9,10.62,10.62,0,0,1,.4,1.9,13.8,13.8,0,0,1,.3,2A13.35,13.35,0,0,0,279.7,189.8Z" fill="#f3ba63"/><path d="M218.3,366.8l2,2,4,54-1.8.5Z"/><path d="M409,466.3l-.3-.3-.3-.3-.3-.3-.7-.7a4.35,4.35,0,0,0-.7-.6c-.6-.5-1.2-1.1-1.9-1.7a10.47,10.47,0,0,0-1.1-.8.35.35,0,0,0-.2-.1c-.3-.2-.6-.5-.9-.7l-1.2-.9c-.5-.3-.9-.7-1.4-1-.1,0-.1-.1-.2-.1a.35.35,0,0,1-.2-.1l-.2-.2c-.4-.3-.9-.6-1.3-.9-3.6-2.4-8-5-13.1-7.7-.3-.2-.7-.3-1-.5-.5-.2-.9-.5-1.4-.7-.1,0-.1,0-.1-.1-.3-.1-.5-.3-.8-.4-.1-.1-.3-.1-.4-.2s-.3-.1-.4-.2c-.5-.3-1.1-.5-1.6-.8s-1.1-.5-1.7-.8c-.1-.1-.3-.1-.4-.2a11.11,11.11,0,0,0-1.6-.7c-.1-.1-.2-.1-.4-.2s-.2-.1-.3-.1a14.17,14.17,0,0,0-1.8-.8c-.1,0-.2-.1-.3-.1-.8-.4-1.6-.7-2.5-1.1a4.67,4.67,0,0,1-1-.5c-.4-.2-.8-.3-1.2-.5-.1,0-.2-.1-.3-.1a.31.31,0,0,1-.2-.1c-.8-.3-1.6-.7-2.5-1,22.4-78.6,17.8-205.2-22.8-257.8-.6-.8-1.2-1.5-1.8-2.3s-1.2-1.5-1.9-2.2-1.3-1.4-1.9-2.1-1.3-1.3-1.9-2c-11.9-11.6-25.8-17.2-41.4-16.5-5-5.1-20.1-14.2-43.7-14.2-16,0-42.1,9.5-64.3,30.6-.9.9-1.8,1.7-2.7,2.7a141.27,141.27,0,0,0-29.5,44.7c-.7,1.7-1.4,3.5-2.1,5.2-1.4,3.6-2.6,7.3-3.8,11.3-.2.6-.4,1.3-.6,2-.6,2-1.1,4-1.6,6.1-.2.7-.3,1.4-.5,2.1-.3,1.4-.6,2.8-1,4.3a17,17,0,0,0-.4,2.2c-.4,2.2-.8,4.4-1.2,6.7-.2,1.5-.5,3.1-.7,4.6l-.3,2.4c-.1,1.2-.3,2.4-.4,3.6-.2,1.8-.4,3.6-.5,5.5s-.3,3.8-.4,5.7c-.3,4.9-.5,9.5-.6,14-.2.6-.5,1.2-.7,1.8l-.6,1.8c-.1.4-.3.8-.4,1.2s-.3,1.1-.5,1.7-.4,1.5-.6,2.2c-.3,1.1-.5,2.3-.7,3.4a57,57,0,0,0-.6,5.8,58.13,58.13,0,0,0,4.4,25.8c1.8,29,6.6,43.8,9.7,53.3,2.3,7,3.7,11.3,2.3,16.3-.2.7-.4,1.4-.6,2-.6,2-1.3,3.9-2,5.7-.3.6-.5,1.2-.8,1.8s-.5,1.2-.8,1.7a26.85,26.85,0,0,1-1.8,3.3,13.73,13.73,0,0,1-1.3,2c-.4.7-.9,1.3-1.3,1.9l-.9,1.2a22,22,0,0,1-2,2.3c-.3.4-.7.7-1,1.1-.5.5-1,1-1.6,1.5s-1.1.9-1.6,1.4a24.76,24.76,0,0,1-2.6,1.9c-.9.6-1.8,1.1-2.7,1.6-15.5,8.3-32.9,2.9-33,2.8a1.16,1.16,0,0,0-1,.2l-.2.2a.92.92,0,0,0,.1,1.2l.1.1a17.47,17.47,0,0,0,1.8,2c.3.4.7.7,1.1,1.2a9,9,0,0,1,.9,1l.5.5a116,116,0,0,0,11.8,10.2c-.4.3-.7.7-1.1,1l-1,1a4.62,4.62,0,0,1-.7.7l-1,1a40.31,40.31,0,0,0-2.6,3.2l-.1.1a1.09,1.09,0,0,0,.2,1.4c13.3,10.3,41.1,26.1,77.5,36.9.7.2,1.4.4,2.2.6s1.9.5,2.8.8l2.1.6a16,16,0,0,0,2.1.5,272.2,272.2,0,0,0,68.5,9c73.2,0,128.6-31.7,147.7-48.5a.91.91,0,0,0,.3-.7A2,2,0,0,0,409,466.3Zm-269.1-129c-.4-1.2-.8-2.4-1.2-3.7a54.84,54.84,0,0,1-2-18.5,52.36,52.36,0,0,1,1.8-11.2c.3-1.2.7-2.4,1.1-3.6.3-1,.7-1.9,1.1-2.9a46,46,0,0,1,12.7-17.7c2.1-1.7,4-3.3,5.7-4.7l1.5-1.2a1.76,1.76,0,0,0,.5-.4c13.3-10.8,16.7-13.6,34.6-41.2a26.06,26.06,0,0,0,1.7-2.8c1.4-2.4,2.8-4.8,4-7.3,2.8-5.4,5.1-11.1,7.5-16.6,2.1-4.9,4.2-9.8,6.4-14.3a83.21,83.21,0,0,1,5.5-9.8c6.3-9.4,14.4-15.7,27.3-15.7,5.8,0,12.6,1.3,20.6,4.1,3.4,1.2,5.9,4.3,7.7,8.1l.9,2.1a29.07,29.07,0,0,1,1.2,3.9,10.62,10.62,0,0,1,.4,1.9,13.8,13.8,0,0,1,.3,2,12.25,12.25,0,0,1,.2,1.9c-3.3-3.5-8.3-7.2-13.6-7.2a11.89,11.89,0,0,0-5.1,1.2,44.62,44.62,0,0,0-12.1,9.2c-1.5,1.5-2.9,3.1-4.3,4.8a4.05,4.05,0,0,0-.5.9,5.58,5.58,0,0,1,.5-.8,97,97,0,0,0-6.8,9.6v.1c-4,6.3-7.6,13.2-11.3,20.3v.1c-.8,1.6-1.7,3.3-2.5,4.9-2.4,4.7-4.8,9.5-7.3,14.2.1,0,.1-.1.2-.1l-1.8,3v.1c-.7,1.2-1.3,2.4-2,3.6-6,10.3-12.7,19.8-21.1,26.7v.2c-.3.2-.7.4-1,.6a7.63,7.63,0,0,1-1.1.8c-1.2.9-2.4,1.7-3.6,2.5l-.9.6a4.05,4.05,0,0,1-.9.5c-10.5,6-16.6,13.4-17.9,22.1a12.25,12.25,0,0,0-.2,1.9,32.35,32.35,0,0,0,2.7,15c4.7,12,15,24.3,25.2,35.4.2.2.3.4.5.5a31.12,31.12,0,0,1,2.3,2.8c5.5,7.4,6.9,15.9,6.2,24.4a39.8,39.8,0,0,1-.8,5.9c-1.9,10.2-6.2,19.9-9.4,26.9-1.6-8.6-7.9-21.1-16.9-34.1-.7-1-1.3-2-2-2.9a217.66,217.66,0,0,0-20.1-24.3,63.63,63.63,0,0,1-12.5-18.8A16.39,16.39,0,0,1,139.9,337.3Zm52.8,18.8c-14.1-15.5-27.2-32.9-24.9-48.1,1.2-7.9,6.5-14.6,16.2-20.2v.1a.1.1,0,0,0,.1-.1c.1.6.1,1.3.2,1.9a234.84,234.84,0,0,0,3.8,25.3,230.85,230.85,0,0,0,4.6,41.1.31.31,0,0,0-.1-.2A.35.35,0,0,0,192.7,356.1ZM169,323.4c-.4-1-.7-2-1-3C168.3,321.4,168.6,322.4,169,323.4Zm7-31.1a1.38,1.38,0,0,1,.4-.3,1.38,1.38,0,0,1,.4-.3A5.55,5.55,0,0,0,176,292.3Zm7.2-5.2c.1,0,.1-.1.2-.1A.31.31,0,0,1,183.2,287.1Zm4.9,16.5c-.7-4.8-1.3-9.6-1.8-14.2-.1-.9-.2-1.9-.3-2.8a32.84,32.84,0,0,0,3.1-2c.7-.5,1.4-1,2.1-1.6,9-6.9,16.1-16.5,22.3-27.1.4-.7.9-1.5,1.3-2.2l1-1.7a20.94,20.94,0,0,1,3.5-1.3c4.5-1.5,9.5-2.2,14-1,.7.2,1.2-.5,1.4-1.2s-.1-2-.7-2.2c-5-1.3-10.2-1.8-14.8-.5,2.1-4,4.2-8.1,6.2-12.1.9-1.7,1.8-3.4,2.6-5.2s1.9-3.4,2.8-5.1c2.8-5.1,5.6-10.1,8.2-14.8.8-1.2,1.5-2.3,2.3-3.5,5.8-8.4,12.2-15.3,20.3-19.5,7-3.6,14.9,3.5,18.1,7.7a1.19,1.19,0,0,0,1.1.4,1,1,0,0,0,.7-1c0-.9,0-1.9-.1-2.9a29.15,29.15,0,0,1,4.6-1.3,18.46,18.46,0,0,1,2.3-.4,18.23,18.23,0,0,1,10.9,1.8c.3.1.5.3.8.4,4.6,2.6,8.2,7.1,11.2,12.8a.35.35,0,0,0,.1.2c6.2,12,9.6,29,12.5,43.5q1.35,7,2.7,13.2c.6,2.7,1.2,5.1,1.9,7.4.5,1.6,1,3.2,1.5,4.6a37.64,37.64,0,0,0,2.5,5.3,37.6,37.6,0,0,1,4.3,10.9,1.09,1.09,0,0,0,.8.8h.3a1,1,0,0,0,.7-.4c.2-.2.3-.4.5-.6a15.38,15.38,0,0,1,1.2-1.3,11.32,11.32,0,0,1,1.3-1,4.86,4.86,0,0,1,4.2-.5c2.5.8,5.2,3.9,6.3,9.1v.1a25.22,25.22,0,0,1,.6,5.8v1.4a24.58,24.58,0,0,1-.2,2.8c-.6,7.1-2.9,12.8-7,17.3a28.3,28.3,0,0,1-4,3.7c-1.1.8-2.3,1.6-3.5,2.3a35.36,35.36,0,0,1-3.9,1.9c-.4.2-.7.3-1.1.5s-.7.3-1.1.4-1.1.4-1.7.6a1,1,0,0,0-.6.5,32.39,32.39,0,0,1-1.7,3.2c-.4.8-.9,1.5-1.3,2.2s-.9,1.4-1.3,2c-.2.3-.4.5-.6.8-1.5,1.8-3.3,3.9-5.3,6.2l-2.4,2.7a183.89,183.89,0,0,1-23.3,21.9c-.8.6-1.5,1.2-2.3,1.7a59.1,59.1,0,0,1-5.2,3.5l-.9.6c-.5.3-.9.6-1.4.9-7.6,4.5-15.4,7.5-22.8,7.5a52.25,52.25,0,0,1-26.8-7.5c-.5-.3-1.1-.7-1.6-1s-.9-.6-1.3-.9c-1-.6-1.9-1.3-2.9-2a82.57,82.57,0,0,1-8.6-7.4l-2.2-2.2A144,144,0,0,1,199,338.9a77.79,77.79,0,0,1-9-24.1C189.3,311.1,188.6,307.4,188.1,303.6ZM286.3,378c1.6-1,3.1-2,4.7-3.1v.1l-4.5,30-.1.8-.1-27.8Zm.1,40.5,6.8-45a.1.1,0,0,0,.1-.1,174.71,174.71,0,0,0,23-21c0-.1.1-.1.1-.2-.7,4.5-1.5,9-2.4,13.7l-8,58.4c-6.3-1.1-12.8-2-19.7-2.6l.1-3.2Zm29.5-52.4c1.1-5.6,2.1-11.1,2.9-16.4v-.2c2.2-2.4,4.1-4.7,5.8-6.6v.2c-3.1,18.5-7.3,36.5-10.6,50.9-1.7,7.2-3.1,13.5-4.2,18.8a65.75,65.75,0,0,0-1.2,11.9c-.2,0-.4-.1-.6-.1Zm-4.3,47.1c1.1-5.3,2.5-11.5,4.2-18.8,3.5-15.4,8-34.7,11.2-54.5l.2-.2a46.81,46.81,0,0,0,4-6.9c.1,0,.2-.1.4-.1a4.87,4.87,0,0,0,1.1-.4c1-.4,1.9-.7,2.8-1.1q2-.9,3.6-1.8c10.4-5.9,15.5-15.6,15.5-29.2,0-8.4-3.3-15.2-8.3-16.8a7.08,7.08,0,0,0-5.5.5,11.53,11.53,0,0,0-2.6,1.9l-.1.1a37.37,37.37,0,0,0-4-9.6c-2.2-3.7-3.9-9.6-5.6-16.7-.9-4-1.8-8.4-2.7-13.1-2.8-14.2-5.9-29.5-11.2-41.2,0-.1,0-.1-.1-.2-3.4-7.4-7.7-13.4-13.5-16.6-.3-.2-.6-.3-.9-.5a20,20,0,0,0-9.8-2.6,17.22,17.22,0,0,0-3.9.4,17.42,17.42,0,0,0-2.2.5,6.47,6.47,0,0,0-1.3.4,6.73,6.73,0,0,1,.7-1.1,8.7,8.7,0,0,1,1.3-1.5c2.7-2.7,7.8-5.1,16.4-5.1,1.7,0,3.6.1,5.6.3,10.4,1.1,23.1,13.6,34.9,34.3a189.81,189.81,0,0,1,12.6,27.1,1.45,1.45,0,0,1,.2.7c1.8,4.8,3.3,9.6,4.5,14.1.1.4.2.7.3,1.1a97.05,97.05,0,0,1,2.6,14.5c.4,4.2.5,9,.5,14.2v1.3c-.1,5.5-.5,11.4-1.1,17.6,0,.3-.1.7-.1,1-3.3,34.2-13.1,75.5-23.4,93.4-4.5,7.9-7.8,18.7-10.3,30-.1.3-.1.6-.2,1s-.1.7-.2,1c-.9,4.2-1.6,8.5-2.2,12.8-.1.3-.1.7-.2,1s-.1.7-.1,1c-.7,5-1.2,9.9-1.6,14.4,0,.4-.1.8-.1,1.2s-.1.8-.1,1.1c-.3,3.9-.5,7.4-.6,10.6a.35.35,0,0,0-.1-.2v.2c-1.1-2.5-2.4-5.3-3.6-8.5l-.3-.9a3.55,3.55,0,0,0-.4-.9,140,140,0,0,1-5.3-18.2c-.1-.3-.1-.7-.2-1s-.1-.7-.2-1a94.52,94.52,0,0,1-1.8-15v-2A66,66,0,0,1,311.6,413.2ZM307,177.3c-12.7-1.3-19.9,1.8-23.6,5.4a17.38,17.38,0,0,0-1.3,1.5,10.59,10.59,0,0,0-1.2,2c.1.3.1.6.2.9,0-.1-.1-.1-.2-.2v.2a1.76,1.76,0,0,0-.4-.5c.1-.2.1-.3.2-.5v.2c0-.1,0-.1.1-.2-1.3-7.3-4.8-15.7-11.6-18.1-32.4-11.5-45.7,2.1-55.4,21.5q-8.85,12.3-14.4,32.1c-1.7,3.3-3.5,6.5-5.5,9.6-17.2,26.5-20.9,30-32.9,39.8-.1-39,21.4-73.8,63.9-103.6,30.6-21.5,52.9-7.1,60.5,3.5a1.19,1.19,0,0,0,1.1.4c3.5-1.1,16.2-3.9,30.9,4.9,10.9,6.4,25,20.7,34,52.2C339.9,202.7,322.6,178.9,307,177.3ZM167.3,317.4c-.2-1-.4-2-.5-2.9A29.31,29.31,0,0,0,167.3,317.4Zm-.7-5.8a13.2,13.2,0,0,0,.2,2.8A24.58,24.58,0,0,1,166.6,311.6Zm-66.9,134c6,1.2,19,2.8,31.3-3.8,10.5-5.7,17.9-16,22-30.8l.3-1.2a20,20,0,0,0-.1-7.7c-.1-.3-.1-.6-.2-1a19.45,19.45,0,0,0-.5-2c-.1-.3-.2-.7-.3-1-.2-.5-.3-1.1-.5-1.6a8.45,8.45,0,0,1-.5-1.7c-.1-.2-.1-.4-.2-.6s-.1-.4-.2-.6a19.75,19.75,0,0,1-.8-2.6,1.85,1.85,0,0,1-.2-.7c-.1-.5-.3-.9-.4-1.4-.1-.3-.1-.5-.2-.8l-.6-2.1c-.3-.9-.5-1.8-.8-2.8q-.6-2.25-1.2-4.8t-1.2-5.4a220.88,220.88,0,0,1-3.7-27,65.3,65.3,0,0,0,10.6,14.7,216.63,216.63,0,0,1,21.6,26.6,178.94,178.94,0,0,1-3.3,34.2c-.3,1.4-.6,2.8-.9,4.1a16,16,0,0,1-.5,2.1c-.2.7-.3,1.4-.5,2.1v.4a1.09,1.09,0,0,0,.8.8h.2a1.05,1.05,0,0,0,1-.8c.1-.4.2-.9.3-1.3s.2-.9.3-1.3c.4-1.8.8-3.5,1.1-5.2a176.06,176.06,0,0,0,3.5-32.3c1.5,2.2,2.8,4.4,4.1,6.5a23.92,23.92,0,0,0,1.3,2.1c.7,1.1,1.3,2.3,1.9,3.4.9,1.7,1.8,3.3,2.5,4.8.5,1,1,2.1,1.4,3.1a10.09,10.09,0,0,0,.7,1.5,13.36,13.36,0,0,1,.7,1.8l.3.9c.2.6.4,1.1.6,1.7a32.49,32.49,0,0,1,1.3,4.6,19,19,0,0,1,.5,3.9v.2a1.09,1.09,0,0,0,.8.8h.2a.87.87,0,0,0,.9-.6c.4-.9.8-1.9,1.3-2.9,2.7-6,6.4-14.1,8.6-22.9a74,74,0,0,1,.8,8.1v.2a.31.31,0,0,0,.1.2.22.22,0,0,0,.2.2,1.14,1.14,0,0,0,.8.3h.1a1,1,0,0,0,.8-.5.37.37,0,0,0,.1-.3v-.3a115,115,0,0,0-1.7-13.3,46.88,46.88,0,0,0,.2-17.9c-.2-1.1-.5-2.2-.8-3.3a37.46,37.46,0,0,0-1.6-4.3c-.2-.4-.3-.7-.5-1.1a24.79,24.79,0,0,0-1.8-3.1,5.67,5.67,0,0,1-.8-1.3c-.5-.6-.9-1.2-1.4-1.8s-1-1.2-1.6-1.8a.35.35,0,0,1-.1-.2c-.1-.6-.3-1.3-.4-1.9-.3-1.3-.5-2.5-.8-3.8a215,215,0,0,1-3.8-29.2,71.82,71.82,0,0,0,7,15.8,138.23,138.23,0,0,0,20.6,26.9c.7.7,1.4,1.4,2.2,2.1a75.89,75.89,0,0,0,10.8,8.5c0,7.9-.4,19.5-.6,28.9-.2,6.6-.4,11.8-.4,14.1-.3.7-2.5,1.5-5.8,2.3-.6.2-1.3.3-2,.5-4.7,1.1-10.9,2.3-17,3.5-11.2,2.2-25.3,4.9-39.3,8.6h-.2c-23.9,6.3-40.9,13.8-51.8,22.7A80.86,80.86,0,0,1,99.7,445.6Zm15.1,13h0c-.1.1-.1.1-.2.1a.31.31,0,0,0,.2-.1Zm287.5,11.9C390,479.9,369,492,341.7,501.1c-.1,0-.2.1-.3.1a256.38,256.38,0,0,1-80.1,13c-71.8,0-131.1-30.7-153.2-47.4.5-.7,1.1-1.4,1.7-2.1.3-.3.6-.7.9-1a9.43,9.43,0,0,1,1-1,11,11,0,0,1,1.1-1c.3-.3.7-.6,1-.9.1-.1.1-.1.2-.1.2-.2.5-.4.7-.6l.2-.2a2.65,2.65,0,0,1,.6-.5c10.5-8.5,27-15.7,49.9-21.8,3.1,4.4,8.6,10.1,16.6,15.7a5.5,5.5,0,0,1,.9.7l.9.6c16.3,10.9,42,21.2,77.4,21.2,23.2,0,41.6-4.5,55.6-10.6v-.1l-.3-.9-.3-.9c-13.8,6.1-31.9,10.5-54.9,10.5-34.3,0-59.3-9.7-75.4-20.2l-.9-.6c-.3-.2-.6-.4-1-.7-7.8-5.3-13.3-10.8-16.5-15.2,13.6-3.5,27.1-6.1,38-8.2,7.3-1.4,12.8-2.5,16.8-3.4.7-.2,1.4-.3,2-.5,5.5-1.4,7.7-2.6,7.7-4.3,0-2.2.2-7.7.4-14.1.3-9,.6-19.9.6-27.8a54,54,0,0,0,28.3,8c7.6,0,15.5-2.9,23.1-7.4v43.3a1,1,0,0,0,.9,1,1.09,1.09,0,0,1,.5.1q10.35,1.05,20.1,2.7l2,.3c.3,0,.5.1.8.1h.1a97,97,0,0,0,1.7,15.1c.1.3.1.7.2,1s.1.7.2,1a137.77,137.77,0,0,0,5.5,19.3l.3.9.3.9a129.43,129.43,0,0,0,5.4,12.2,1,1,0,0,0,.6.5h.4a1.08,1.08,0,0,0,.8-1c.1-4.2.3-9.7.9-15.8,0-.4.1-.8.1-1.2s.1-.8.1-1.2c.4-4.1.9-8.5,1.5-13,0-.3.1-.7.1-1s.1-.7.1-1c.6-4.1,1.3-8.3,2.2-12.5.1-.3.1-.7.2-1s.1-.7.2-1c2.4-11.2,5.6-21.8,10.1-29.5,9-15.6,17.5-48.8,21.9-79.8v.9c0-.3.1-.6.1-.9-.3,45.1-6.4,87.3-11.3,109.8a1,1,0,0,0,.6,1.1h.1a1,1,0,0,0,1.2-.8c5.4-25.2,12.4-74.9,11.1-125.9,1.2-12.6,1.5-24.3.7-33.3-.8-8.6-3.5-19.1-7.4-29.9,0-.2-.1-.4-.1-.6-8.7-41.1-25.5-58.6-38-66.1-14.6-8.7-27.4-6.5-31.8-5.3-8.3-11.1-31.5-25.4-62.8-3.4-43.7,30.7-65.4,66.6-64.7,106.9-2,1.7-4.3,3.5-6.9,5.6A47.51,47.51,0,0,0,141.1,292c.1-3,.3-6,.5-9.2,3.2-56.5,26.3-89.6,45.1-107.5,21.8-20.7,47.3-30,62.9-30,23.5,0,38.1,9.1,42.6,13.9a1.14,1.14,0,0,0,.8.3c18.6-1,34.6,7.2,47.7,24.2,40.2,52,44.8,177.6,22.5,255.8-3.9-1.5-7.9-3-12.2-4.5h-.1c-6.3-2.1-13.4-4.3-21.2-6.2-.1.3-.1.7-.2,1s-.1.7-.2,1c4.4,1.1,8.6,2.3,12.6,3.5.6.2,1.3.4,1.9.6l2.7.9c.9.3,1.7.6,2.6.9a42.73,42.73,0,0,1-6.2,8.1l-.9.9-.9.9a75.33,75.33,0,0,1-15.8,11.7c0,.4-.1.8-.1,1.2s-.1.8-.1,1.2a81.7,81.7,0,0,0,18.6-13.9l.9-.9.9-.9a44.46,44.46,0,0,0,5.6-7.7c4,1.4,7.9,2.8,11.5,4.2a3.55,3.55,0,0,1,.9.4c.3.1.6.3.9.4,19.2,7.8,32.7,16,39.5,21.7.5.4.9.8,1.3,1.1a11.72,11.72,0,0,1,1.6,1.5A28.68,28.68,0,0,1,402.3,470.5Z"/></g></g></svg>