<svg xmlns="http://www.w3.org/2000/svg" viewBox="0 0 515.5 514.3"><title>Asset 16</title><g id="Layer_2" data-name="Layer 2"><g id="Слой_1" data-name="Слой 1"><path d="M515.5,257.7a255.73,255.73,0,0,1-91,195.9c-.1-.1-.1-.1-.2-.1-18-11.1-56.6-29.9-97.8-38a2.09,2.09,0,0,0-.6-.4l-8.5-1.4a.71.71,0,0,0-.6-.3c-2-.3-4-.6-5.9-.8l-2.4-.4a.75.75,0,0,0-.5.1c-6.2-.7-12.3-1-18.1-1.1V369.9c56.8-15.8,73.9-71.4,74.7-104.7,8.5-.4,23-5.6,23-23.8,0-6.9-2.1-12.4-6.3-16.3-4.9-4.5-11.6-5.9-16.7-5.8V189.5c.3-19.1-6.7-46.9-27.3-67.7-19.3-19.6-46.6-29.5-81.1-29.5-86.8,0-111.6,63.6-112.7,97.2v29.8c-7.8.4-21,5.8-21,23.8,0,7.3,2.2,13,6.4,16.9a21,21,0,0,0,14.1,5.2h.6c2.1,33.6,21.8,90,80.5,105.2v40.9c-4.5.3-9.4.8-14.5,1.4a1.23,1.23,0,0,0-1-.5l-17.3,2.9c-.3.1-.6.2-.7.5-36.1,5.9-80.5,17.8-99.8,38A255.56,255.56,0,0,1,0,257.7C0,115.4,115.4,0,257.7,0S515.5,115.4,515.5,257.7Z" fill="#f2f2f2"/><path d="M233.8,247.8c-.8,5.4-3.9,9.4-6.9,8.9s-4.9-5.1-4.2-10.5,3.8-9.3,6.9-8.9S234.6,242.4,233.8,247.8Z" fill="#f2f2f2"/><path d="M239.9,171c.1.2.3.3.4.5C240.1,171.3,240,171.1,239.9,171Z" fill="#f2f2f2"/><path d="M396.8,441.1l-86.9-1a71.18,71.18,0,0,1-22.6,14H421.6A269.15,269.15,0,0,0,396.8,441.1Zm-283.2,29a197.88,197.88,0,0,0,21.9,12H380.7a181.6,181.6,0,0,0,21.5-12Zm62.2,27q12.3,3.45,26.1,6H314.8c9.2-1.7,17.8-3.7,25.9-6Zm82.6,13c-48.1,0-87.3-10.3-116.2-22.8a260,260,0,0,0,224.5,3C338.9,501.5,302.5,510.1,258.4,510.1ZM309,414.2h0a5.9,5.9,0,0,0,1.4.2Zm-99.9,26.5L109.8,442a74.65,74.65,0,0,0-16.6,12H231.4A73.75,73.75,0,0,1,209.1,440.7Zm-17.8-23.2a357.91,357.91,0,0,0-46.9,10.6h53.2A51.44,51.44,0,0,1,191.3,417.5Zm135-.1a58.51,58.51,0,0,1-5.9,10.7h44.7A279.92,279.92,0,0,0,326.3,417.4Z" fill="#f2f2f2"/><path d="M396.8,441.1l-86.9-1a71.18,71.18,0,0,1-22.6,14H421.6A269.15,269.15,0,0,0,396.8,441.1Zm-283.2,29a197.88,197.88,0,0,0,21.9,12H380.7a181.6,181.6,0,0,0,21.5-12Zm62.2,27q12.3,3.45,26.1,6H314.8c9.2-1.7,17.8-3.7,25.9-6ZM309,414.2h0a5.9,5.9,0,0,0,1.4.2Zm-99.9,26.5L109.8,442a74.65,74.65,0,0,0-16.6,12H231.4A73.75,73.75,0,0,1,209.1,440.7Zm-17.8-23.2a357.91,357.91,0,0,0-46.9,10.6h53.2A51.44,51.44,0,0,1,191.3,417.5Zm135-.1a58.51,58.51,0,0,1-5.9,10.7h44.7A279.92,279.92,0,0,0,326.3,417.4Z" fill="#fff"/><path d="M309,414.2h0a5.9,5.9,0,0,0,1.4.2Z"/><path d="M306.9,414.1c0,.1-.1.2-.2.3-4.8,10.6-19.8,28.2-47.4,28.2-27.3,0-43-17.1-48.5-27.8,0-.1-.1-.2-.1-.3,5.2-.6,10.1-1.1,14.7-1.4a1,1,0,0,0,.9-.7V370.7a135.62,135.62,0,0,0,61.2-.4c.1,0,.2-.1.3-.1V412a1,1,0,0,0,1,1C294.7,413.1,300.8,413.4,306.9,414.1Z" fill="#ffc1a8"/><path d="M309,414.2h0a5.9,5.9,0,0,0,1.4.2Z" fill="#ffc1a8"/><path d="M309,414.2h0a5.9,5.9,0,0,0,1.4.2Z"/><path d="M385.7,241.3c0,16.6-13.2,21.4-21,21.8v-42c4.7-.2,10.9,1.1,15.3,5.3C383.8,229.9,385.7,234.9,385.7,241.3Z" fill="#ffc1a8"/><path d="M143.7,221.1v42a18.72,18.72,0,0,1-13.2-4.7c-3.8-3.5-5.8-8.7-5.8-15.5C124.7,226.5,136.6,221.6,143.7,221.1Z" fill="#ffc1a8"/><path d="M233.8,247.8c-.8,5.4-3.9,9.4-6.9,8.9s-4.9-5.1-4.2-10.5,3.8-9.3,6.9-8.9S234.6,242.4,233.8,247.8Z" fill="#f3ba63"/><path d="M239.9,171c.1.2.3.3.4.5C240.1,171.3,240,171.1,239.9,171Z" fill="#f3ba63"/><path d="M336,123c-18.9-19.2-45.7-28.9-79.7-28.9-85.3,0-109.7,62.3-110.7,95.2v73.2c1.3,32.6,20,90.4,79.1,105.7,1.1.3,2.2.6,3.3.8,1.6.4,3.3.7,4.9,1a135.56,135.56,0,0,0,46.4,0c1.7-.3,3.3-.6,4.9-1,1.4-.3,2.7-.6,4-1,57.9-15.6,74.3-73,74.3-105.6V189.2C363,170.6,356.1,143.4,336,123ZM261.9,328.1a22.6,22.6,0,0,1-2.6.1,26.28,26.28,0,0,1-18.2-7c-5.4-5-7.9-11.3-7.9-15.3a1,1,0,0,1,1-1h51.1a.91.91,0,0,1,.7.3,1.08,1.08,0,0,1,.3.7C286,312.9,280.5,326.6,261.9,328.1ZM314.6,307a1.05,1.05,0,0,1-.9-.5c-4.9-8.3-22.4-23.9-53.7-23.9-31.5,0-57.5,15.8-66.9,24.2-.2.2-.4.2-.6.3-1.1.1-2.3.1-3.6.1-9.1,0-20.9-2.4-28.4-9.4-5.2-4.8-7.8-11.2-7.8-19,0-12.3.7-44,7.6-71.8,8.1-33,21.8-49.8,40.8-49.8,3.5,0,6.2,2.5,20.3,18.9,13.2,15.4,25.3,13.3,29.8,11.8-4-2.6-7.4-8.5-9.8-12.5a33.86,33.86,0,0,0-1.9-3.2c-.1-.2-.3-.3-.4-.5a1.07,1.07,0,0,1,.1-1.4,1.2,1.2,0,0,1,1.4,0,3.81,3.81,0,0,1,.5.6c10.4,12.4,26.6,16.5,38.2,15.2-2.5-3-7.9-10.1-7.6-15.6a6.2,6.2,0,0,1,2.1-4.5,1,1,0,0,1,.9-.2,1.06,1.06,0,0,1,.7.6c4.2,10.3,10,15.7,20.5,19.2,1-5.6,6-28.4,22.6-28.4h.2c2.5,0,9.1,0,16.4,7.2,10.8,10.8,23.8,39.4,23.8,114.4C358.7,288.5,349.5,307,314.6,307Z" fill="#f3ba63"/><path d="M233.8,247.8c-.8,5.4-3.9,9.4-6.9,8.9s-4.9-5.1-4.2-10.5,3.8-9.3,6.9-8.9S234.6,242.4,233.8,247.8Z" fill="#ffc1a8"/><path d="M240.3,171.5c-.1-.2-.3-.3-.4-.5C240,171.1,240.1,171.3,240.3,171.5Z" fill="#ffc1a8"/><path d="M239.9,171c.1.2.3.3.4.5C240.1,171.3,240,171.1,239.9,171Z"/><path d="M333.5,165.7c-6.6-6.6-12.6-6.6-14.9-6.6h-.2c-16.7,0-20.8,27.6-20.8,27.8a.84.84,0,0,1-.4.7.8.8,0,0,1-.8.1c-11.2-3.4-17.7-9-22.2-19.1a4.14,4.14,0,0,0-.5,1.9c-.3,6.1,8.2,15.5,8.3,15.6a1,1,0,0,1,.2,1,1,1,0,0,1-.8.7c-10.3,1.7-24.9-.9-36.2-10.1,2.4,3.8,5.5,8.1,8.7,9.2a1.11,1.11,0,0,1,.7.9,1.23,1.23,0,0,1-.5,1c-.2.1-16.6,9.1-34.2-11.4-13.2-15.3-16.1-18.2-18.8-18.2-44.2,0-46.4,99.6-46.4,119.6,0,7.2,2.4,13.2,7.2,17.6,8,7.4,21.2,9.3,30.2,8.7,9.4-8.3,34.5-23.4,65-24.4a8.42,8.42,0,0,1-1.8-.7,1,1,0,0,1-.4-1.4.92.92,0,0,1,1.3-.4,8.74,8.74,0,0,0,3.7,1c2,0,7.6-1,8.7-3.3.5-1-.1-2.4-1.6-4.1-5.5-6.1-7.7-16.7-8.1-21.5a1,1,0,0,1,2-.2c.3,4.5,2.4,14.6,7.6,20.3,2.1,2.3,2.7,4.4,1.9,6.3-1.1,2.4-4.3,3.5-6.9,4.1,29.5,1.1,46.5,15.9,51.7,24.3,32.8-.2,41.5-17.2,41.5-26.3C356.7,204.4,344.1,176.2,333.5,165.7ZM205.6,223.5a1.2,1.2,0,0,1-1.7-1.7c3.6-3.6,7.4-6.5,12-7.5s10,.1,12.7.3a1.2,1.2,0,1,1-.2,2.4,36.5,36.5,0,0,0-10.9.7C213.1,218.7,208.7,220.4,205.6,223.5Zm28.2,24.3c-.8,5.4-3.9,9.4-6.9,8.9s-4.9-5.1-4.2-10.5,3.8-9.3,6.9-8.9S234.6,242.4,233.8,247.8Zm57.2,9.5c-3.1.4-6.1-3.7-6.7-9.1s1.4-10,4.4-10.4,6,3.7,6.7,9.1S294.1,256.9,291,257.3ZM313.8,223a1.25,1.25,0,0,1-1.6.3,37.08,37.08,0,0,0-9.8-4.8c-4.2-1.4-8.9-2.1-13.2-1a1.14,1.14,0,1,1-.6-2.2c4.9-1.3,11.1-1.5,15.6-.1s7.2,4.7,9.3,6.2A1.13,1.13,0,0,1,313.8,223Z" fill="#ffc1a8"/><path d="M324.3,416.8c0,.1-.1.1-.1.2-4.9,11.6-18.7,30-43.3,37.1a75.65,75.65,0,0,1-21.6,3,76.89,76.89,0,0,1-21.7-3c-24.6-7.1-39.1-25.3-44.4-36.9-.1-.1-.1-.3-.2-.4l7-1.2,1.1-.2,7.2-1.2c.1.2.2.3.3.5s.1.2.1.3c5.4,11,21.9,29.6,50.7,29.6,29.1,0,44.7-19,49.5-30a.37.37,0,0,0,.1-.3,5.9,5.9,0,0,1,1.4.2l4.5.8,1.1.2,1.1.2Z" fill="#fff"/><path d="M286.1,305.2a1.08,1.08,0,0,0-.7-.3H234.3a1,1,0,0,0-1,1c0,4,2.4,10.3,7.9,15.3a26.28,26.28,0,0,0,18.2,7,23.48,23.48,0,0,0,2.6-.1c18.6-1.5,24.1-15.1,24.4-22.1A1.14,1.14,0,0,0,286.1,305.2Zm-24.3,20.9a24.79,24.79,0,0,1-19.3-6.4c-4.5-4.2-6.8-9.3-7.1-12.8h48.9C283.5,313.5,278.1,324.8,261.8,326.1Z"/><path d="M235.4,306.9c.4,3.5,2.6,8.6,7.1,12.8a24.65,24.65,0,0,0,19.3,6.4c16.3-1.3,21.7-12.6,22.5-19.2Zm43,6.5c-3.4,1.3-30.2,1.3-36,0-4.5-1-5.2-4.3-4.9-6.5h44.6C282.1,309.1,281,312.4,278.4,313.4Z" fill="#ae5646"/><path d="M282.2,307c-.1,2.2-1.2,5.5-3.8,6.5-3.4,1.3-30.2,1.3-36,0-4.5-1-5.2-4.3-4.9-6.5Z" fill="#fff"/><path d="M310.4,414.5c-.5-.1-1-.1-1.4-.2v-.1Z" fill="#fff"/><path d="M291,257.3c-3.1.4-6.1-3.7-6.7-9.1s1.4-10,4.4-10.4,6,3.7,6.7,9.1S294.1,256.9,291,257.3Z"/><path d="M233.8,247.8c-.8,5.4-3.9,9.4-6.9,8.9s-4.9-5.1-4.2-10.5,3.8-9.3,6.9-8.9S234.6,242.4,233.8,247.8Z"/><path d="M229.6,216a1.22,1.22,0,0,1-1.3,1.1,36.5,36.5,0,0,0-10.9.7,24.21,24.21,0,0,0-11.9,5.8,1.2,1.2,0,0,1-1.7-1.7c3.6-3.6,7.4-6.5,12-7.5s10,.1,12.7.3A1.21,1.21,0,0,1,229.6,216Z" fill-rule="evenodd"/><path d="M313.8,223a1.25,1.25,0,0,1-1.6.3,37.08,37.08,0,0,0-9.8-4.8c-4.2-1.4-8.9-2.1-13.2-1a1.14,1.14,0,1,1-.6-2.2c4.9-1.3,11.1-1.5,15.6-.1s7.2,4.7,9.3,6.2A1.13,1.13,0,0,1,313.8,223Z" fill-rule="evenodd"/><path d="M334.9,164.3c-7.2-7.2-13.9-7.2-16.4-7.2h-.2c-16.6,0-21.6,22.8-22.6,28.4-10.5-3.5-16.3-8.9-20.5-19.2a1.06,1.06,0,0,0-.7-.6,1,1,0,0,0-.9.2,6.38,6.38,0,0,0-2.1,4.5c-.3,5.5,5.1,12.6,7.6,15.6-11.5,1.3-27.7-2.8-38.2-15.2-.2-.2-.3-.4-.5-.6a1,1,0,0,0-1.4,0,1.07,1.07,0,0,0-.1,1.4c.1.2.3.3.4.5a33.86,33.86,0,0,1,1.9,3.2c2.4,4.1,5.7,9.9,9.8,12.5-4.5,1.6-16.6,3.7-29.8-11.8-14.1-16.5-16.8-18.9-20.3-18.9-19,0-32.7,16.7-40.8,49.8-6.8,27.9-7.6,59.5-7.6,71.8,0,7.8,2.6,14.2,7.8,19,7.5,7,19.3,9.4,28.4,9.4,1.3,0,2.5-.1,3.6-.1a.86.86,0,0,0,.6-.3c9.3-8.3,35.3-24.2,66.9-24.2,31.4,0,48.9,15.6,53.7,23.9a1.05,1.05,0,0,0,.9.5c34.9,0,44.1-18.5,44.1-28.3C358.7,203.7,345.8,175.1,334.9,164.3Zm-95,6.7a2.18,2.18,0,0,1,.4.5C240.2,171.3,240,171.2,239.9,171Zm75.3,134c-5.3-8.4-22.2-23.3-51.7-24.3,2.6-.5,5.9-1.7,6.9-4.1.8-1.8.2-3.9-1.9-6.3-5.2-5.7-7.2-15.8-7.6-20.3a1,1,0,0,0-2,.2c.4,4.8,2.5,15.4,8.1,21.5,1.5,1.7,2,3,1.6,4.1-1,2.3-6.7,3.3-8.7,3.3a8.74,8.74,0,0,1-3.7-1,.88.88,0,0,0-1.3.4,1,1,0,0,0,.4,1.4,8.42,8.42,0,0,0,1.8.7c-30.5.9-55.5,16.1-65,24.4-9,.6-22.2-1.3-30.2-8.7-4.8-4.4-7.2-10.3-7.2-17.6,0-20,2.2-119.6,46.4-119.6,2.6,0,5.6,2.9,18.8,18.2,17.6,20.5,34,11.5,34.2,11.4a1,1,0,0,0,.5-1,1.07,1.07,0,0,0-.7-.9c-3.2-1.1-6.3-5.4-8.7-9.2,11.2,9.1,25.8,11.8,36.2,10.1a1,1,0,0,0,.8-.7,1.23,1.23,0,0,0-.2-1c-.1-.1-8.6-9.4-8.3-15.6a3.83,3.83,0,0,1,.5-1.9c4.5,10.1,11,15.7,22.2,19.1a1.06,1.06,0,0,0,.8-.1,1,1,0,0,0,.4-.7c0-.3,4.1-27.8,20.8-27.8h.2c2.3,0,8.3,0,14.9,6.6,10.6,10.5,23.2,38.7,23.2,113C356.7,287.7,348,304.8,315.2,305Z"/><path d="M424.4,453.6c-.1-.1-.1-.1-.2-.1-18-11.1-56.6-29.9-97.8-38a2.09,2.09,0,0,0-.6-.4l-8.5-1.4a.71.71,0,0,0-.6-.3c-2-.3-4-.6-5.9-.8l-2.4-.4a.75.75,0,0,0-.5.1c-6.2-.7-12.3-1-18.1-1.1V369.9c56.8-15.8,73.9-71.4,74.7-104.7,8.5-.4,23-5.6,23-23.8,0-6.9-2.1-12.4-6.3-16.3-4.9-4.5-11.6-5.9-16.7-5.8V189.5c.3-19.1-6.7-46.9-27.3-67.7-19.3-19.6-46.6-29.5-81.1-29.5-86.8,0-111.6,63.6-112.7,97.2v29.8c-7.8.4-21,5.8-21,23.8,0,7.3,2.2,13,6.4,16.9a21,21,0,0,0,14.1,5.2h.6c2.1,33.6,21.8,90,80.5,105.2v40.9c-4.5.3-9.4.8-14.5,1.4a1.23,1.23,0,0,0-1-.5l-17.3,2.9c-.3.1-.6.2-.7.5-36.1,5.9-80.5,17.8-99.8,38a1,1,0,0,0,0,1.4c8.6,8.9,26,21.5,51.2,32.4,28.9,12.5,68.1,22.8,116.2,22.8,44.1,0,80.5-8.6,108.3-19.7,29-11.5,48.6-25.7,57.8-35.5a1.14,1.14,0,0,0,.3-.8C424.7,453.9,424.6,453.7,424.4,453.6ZM364.7,221.1c4.7-.2,10.9,1.1,15.3,5.3,3.8,3.5,5.7,8.5,5.7,14.9,0,16.6-13.2,21.4-21,21.8Zm-221,42a18.72,18.72,0,0,1-13.2-4.7c-3.8-3.5-5.8-8.7-5.8-15.5,0-16.5,11.9-21.4,19-21.8ZM326.3,417.4a294.59,294.59,0,0,1,38.8,10.7H320.4A74.55,74.55,0,0,0,326.3,417.4ZM145.7,262.5V189.3c1-32.9,25.4-95.2,110.7-95.2,34,0,60.8,9.7,79.7,28.9,20.1,20.4,26.9,47.6,26.7,66.3v73.2c0,32.5-16.4,90-74.3,105.6-1.3.4-2.7.7-4,1-1.6.4-3.2.7-4.9,1a135.56,135.56,0,0,1-46.4,0c-1.7-.3-3.3-.6-4.9-1-1.1-.3-2.2-.5-3.3-.8C165.7,353,147,295.2,145.7,262.5Zm143,106.6Zm-63.2,44a1,1,0,0,0,.9-.7V370.7a135.62,135.62,0,0,0,61.2-.4c.1,0,.2-.1.3-.1V412a1,1,0,0,0,1,1q8.7,0,18,.9c0,.1-.1.2-.2.3-4.8,10.6-19.8,28.2-47.4,28.2-27.3,0-43-17.1-48.5-27.8,0-.1-.1-.2-.1-.3C215.9,413.9,220.9,413.4,225.5,413.1Zm-25.4,2.5,1.1-.2,7.2-1.2c.1.2.2.3.3.5s.1.2.1.3c5.4,11,21.9,29.6,50.7,29.6,29.1,0,44.7-19,49.5-30a.37.37,0,0,0,.1-.3v-.1l1.4.2,4.5.8,1.1.2,1.1.2,7.3,1.2c0,.1-.1.1-.1.2-4.9,11.6-18.7,30-43.3,37.1a75.65,75.65,0,0,1-21.6,3,76.89,76.89,0,0,1-21.7-3c-24.6-7.1-39.1-25.3-44.4-36.9-.1-.1-.1-.3-.2-.4Zm-8.8,1.9a65.15,65.15,0,0,0,6.2,10.6H144.3A363,363,0,0,1,191.3,417.5Zm-81.4,24.6,99.3-1.3a76,76,0,0,0,22.3,13.4H93.3A69.76,69.76,0,0,1,109.9,442.1Zm204.9,61H201.9q-13.8-2.55-26.1-6H340.7C332.6,499.4,324,501.4,314.8,503.1Zm65.9-21H135.5a197.88,197.88,0,0,1-21.9-12H402.3A191.92,191.92,0,0,1,380.7,482.1Zm-93.4-28a73,73,0,0,0,22.6-14l86.9,1c10,4.7,18.5,9.2,24.8,13Z"/></g></g></svg>