<svg xmlns="http://www.w3.org/2000/svg" viewBox="0 0 515.3 517.5"><title>Asset 2</title><g id="Layer_2" data-name="Layer 2"><g id="Слой_1" data-name="Слой 1"><path d="M170.8,269.5c-1.4-1.6-3.2-6.2-4.1-8.9a1,1,0,0,0-1.9.7c.1.2,1.3,3.7,2.7,6.6l-2.5-1.2a1,1,0,0,0-.8,1.8l5.5,2.5a.6.6,0,0,0,.4.1.91.91,0,0,0,.8-.4A.92.92,0,0,0,170.8,269.5Zm163.4-4.3a1,1,0,0,0-1.4-.1l-2.9,2.3,2.3-8.5a1,1,0,0,0-.7-1.2,1,1,0,0,0-1.2.7l-3.1,11.5a1.11,1.11,0,0,0,.4,1.1,1.69,1.69,0,0,0,.5.2,1.07,1.07,0,0,0,.6-.2l5.3-4.3A1.1,1.1,0,0,0,334.2,265.2Zm0,0a1,1,0,0,0-1.4-.1l-2.9,2.3,2.3-8.5a1,1,0,0,0-.7-1.2,1,1,0,0,0-1.2.7l-3.1,11.5a1.11,1.11,0,0,0,.4,1.1,1.69,1.69,0,0,0,.5.2,1.07,1.07,0,0,0,.6-.2l5.3-4.3A1.1,1.1,0,0,0,334.2,265.2Zm-163.4,4.3c-1.4-1.6-3.2-6.2-4.1-8.9a1,1,0,0,0-1.9.7c.1.2,1.3,3.7,2.7,6.6l-2.5-1.2a1,1,0,0,0-.8,1.8l5.5,2.5a.6.6,0,0,0,.4.1.91.91,0,0,0,.8-.4A.92.92,0,0,0,170.8,269.5Zm0,0c-1.4-1.6-3.2-6.2-4.1-8.9a1,1,0,0,0-1.9.7c.1.2,1.3,3.7,2.7,6.6l-2.5-1.2a1,1,0,0,0-.8,1.8l5.5,2.5a.6.6,0,0,0,.4.1.91.91,0,0,0,.8-.4A.92.92,0,0,0,170.8,269.5Zm163.4-4.3a1,1,0,0,0-1.4-.1l-2.9,2.3,2.3-8.5a1,1,0,0,0-.7-1.2,1,1,0,0,0-1.2.7l-3.1,11.5a1.11,1.11,0,0,0,.4,1.1,1.69,1.69,0,0,0,.5.2,1.07,1.07,0,0,0,.6-.2l5.3-4.3A1.1,1.1,0,0,0,334.2,265.2Zm0,0a1,1,0,0,0-1.4-.1l-2.9,2.3,2.3-8.5a1,1,0,0,0-.7-1.2,1,1,0,0,0-1.2.7l-3.1,11.5a1.11,1.11,0,0,0,.4,1.1,1.69,1.69,0,0,0,.5.2,1.07,1.07,0,0,0,.6-.2l5.3-4.3A1.1,1.1,0,0,0,334.2,265.2Zm-163.4,4.3c-1.4-1.6-3.2-6.2-4.1-8.9a1,1,0,0,0-1.9.7c.1.2,1.3,3.7,2.7,6.6l-2.5-1.2a1,1,0,0,0-.8,1.8l5.5,2.5a.6.6,0,0,0,.4.1.91.91,0,0,0,.8-.4A.92.92,0,0,0,170.8,269.5Zm0,0c-1.4-1.6-3.2-6.2-4.1-8.9a1,1,0,0,0-1.9.7c.1.2,1.3,3.7,2.7,6.6l-2.5-1.2a1,1,0,0,0-.8,1.8l5.5,2.5a.6.6,0,0,0,.4.1.91.91,0,0,0,.8-.4A.92.92,0,0,0,170.8,269.5Zm163.4-4.3a1,1,0,0,0-1.4-.1l-2.9,2.3,2.3-8.5a1,1,0,0,0-.7-1.2,1,1,0,0,0-1.2.7l-3.1,11.5a1.11,1.11,0,0,0,.4,1.1,1.69,1.69,0,0,0,.5.2,1.07,1.07,0,0,0,.6-.2l5.3-4.3A1.1,1.1,0,0,0,334.2,265.2Zm0,0a1,1,0,0,0-1.4-.1l-2.9,2.3,2.3-8.5a1,1,0,0,0-.7-1.2,1,1,0,0,0-1.2.7l-3.1,11.5a1.11,1.11,0,0,0,.4,1.1,1.69,1.69,0,0,0,.5.2,1.07,1.07,0,0,0,.6-.2l5.3-4.3A1.1,1.1,0,0,0,334.2,265.2Zm-163.4,4.3c-1.4-1.6-3.2-6.2-4.1-8.9a1,1,0,0,0-1.9.7c.1.2,1.3,3.7,2.7,6.6l-2.5-1.2a1,1,0,0,0-.8,1.8l5.5,2.5a.6.6,0,0,0,.4.1.91.91,0,0,0,.8-.4A.92.92,0,0,0,170.8,269.5Zm0,0c-1.4-1.6-3.2-6.2-4.1-8.9a1,1,0,0,0-1.9.7c.1.2,1.3,3.7,2.7,6.6l-2.5-1.2a1,1,0,0,0-.8,1.8l5.5,2.5a.6.6,0,0,0,.4.1.91.91,0,0,0,.8-.4A.92.92,0,0,0,170.8,269.5Zm163.4-4.3a1,1,0,0,0-1.4-.1l-2.9,2.3,2.3-8.5a1,1,0,0,0-.7-1.2,1,1,0,0,0-1.2.7l-3.1,11.5a1.11,1.11,0,0,0,.4,1.1,1.69,1.69,0,0,0,.5.2,1.07,1.07,0,0,0,.6-.2l5.3-4.3A1.1,1.1,0,0,0,334.2,265.2Zm0,0a1,1,0,0,0-1.4-.1l-2.9,2.3,2.3-8.5a1,1,0,0,0-.7-1.2,1,1,0,0,0-1.2.7l-3.1,11.5a1.11,1.11,0,0,0,.4,1.1,1.69,1.69,0,0,0,.5.2,1.07,1.07,0,0,0,.6-.2l5.3-4.3A1.1,1.1,0,0,0,334.2,265.2Zm-163.4,4.3c-1.4-1.6-3.2-6.2-4.1-8.9a1,1,0,0,0-1.9.7c.1.2,1.3,3.7,2.7,6.6l-2.5-1.2a1,1,0,0,0-.8,1.8l5.5,2.5a.6.6,0,0,0,.4.1.91.91,0,0,0,.8-.4A.92.92,0,0,0,170.8,269.5Zm0,0c-1.4-1.6-3.2-6.2-4.1-8.9a1,1,0,0,0-1.9.7c.1.2,1.3,3.7,2.7,6.6l-2.5-1.2a1,1,0,0,0-.8,1.8l5.5,2.5a.6.6,0,0,0,.4.1.91.91,0,0,0,.8-.4A.92.92,0,0,0,170.8,269.5Zm163.4-4.3a1,1,0,0,0-1.4-.1l-2.9,2.3,2.3-8.5a1,1,0,0,0-.7-1.2,1,1,0,0,0-1.2.7l-3.1,11.5a1.11,1.11,0,0,0,.4,1.1,1.69,1.69,0,0,0,.5.2,1.07,1.07,0,0,0,.6-.2l5.3-4.3A1.1,1.1,0,0,0,334.2,265.2Zm0,0a1,1,0,0,0-1.4-.1l-2.9,2.3,2.3-8.5a1,1,0,0,0-.7-1.2,1,1,0,0,0-1.2.7l-3.1,11.5a1.11,1.11,0,0,0,.4,1.1,1.69,1.69,0,0,0,.5.2,1.07,1.07,0,0,0,.6-.2l5.3-4.3A1.1,1.1,0,0,0,334.2,265.2Zm-163.4,4.3c-1.4-1.6-3.2-6.2-4.1-8.9a1,1,0,0,0-1.9.7c.1.2,1.3,3.7,2.7,6.6l-2.5-1.2a1,1,0,0,0-.8,1.8l5.5,2.5a.6.6,0,0,0,.4.1.91.91,0,0,0,.8-.4A.92.92,0,0,0,170.8,269.5Zm0,0c-1.4-1.6-3.2-6.2-4.1-8.9a1,1,0,0,0-1.9.7c.1.2,1.3,3.7,2.7,6.6l-2.5-1.2a1,1,0,0,0-.8,1.8l5.5,2.5a.6.6,0,0,0,.4.1.91.91,0,0,0,.8-.4A.92.92,0,0,0,170.8,269.5Zm163.4-4.3a1,1,0,0,0-1.4-.1l-2.9,2.3,2.3-8.5a1,1,0,0,0-.7-1.2,1,1,0,0,0-1.2.7l-3.1,11.5a1.11,1.11,0,0,0,.4,1.1,1.69,1.69,0,0,0,.5.2,1.07,1.07,0,0,0,.6-.2l5.3-4.3A1.1,1.1,0,0,0,334.2,265.2Zm0,0a1,1,0,0,0-1.4-.1l-2.9,2.3,2.3-8.5a1,1,0,0,0-.7-1.2,1,1,0,0,0-1.2.7l-3.1,11.5a1.11,1.11,0,0,0,.4,1.1,1.69,1.69,0,0,0,.5.2,1.07,1.07,0,0,0,.6-.2l5.3-4.3A1.1,1.1,0,0,0,334.2,265.2Zm-163.4,4.3c-1.4-1.6-3.2-6.2-4.1-8.9a1,1,0,0,0-1.9.7c.1.2,1.3,3.7,2.7,6.6l-2.5-1.2a1,1,0,0,0-.8,1.8l5.5,2.5a.6.6,0,0,0,.4.1.91.91,0,0,0,.8-.4A.92.92,0,0,0,170.8,269.5Zm0,0c-1.4-1.6-3.2-6.2-4.1-8.9a1,1,0,0,0-1.9.7c.1.2,1.3,3.7,2.7,6.6l-2.5-1.2a1,1,0,0,0-.8,1.8l5.5,2.5a.6.6,0,0,0,.4.1.91.91,0,0,0,.8-.4A.92.92,0,0,0,170.8,269.5Zm163.4-4.3a1,1,0,0,0-1.4-.1l-2.9,2.3,2.3-8.5a1,1,0,0,0-.7-1.2,1,1,0,0,0-1.2.7l-3.1,11.5a1.11,1.11,0,0,0,.4,1.1,1.69,1.69,0,0,0,.5.2,1.07,1.07,0,0,0,.6-.2l5.3-4.3A1.1,1.1,0,0,0,334.2,265.2Zm0,0a1,1,0,0,0-1.4-.1l-2.9,2.3,2.3-8.5a1,1,0,0,0-.7-1.2,1,1,0,0,0-1.2.7l-3.1,11.5a1.11,1.11,0,0,0,.4,1.1,1.69,1.69,0,0,0,.5.2,1.07,1.07,0,0,0,.6-.2l5.3-4.3A1.1,1.1,0,0,0,334.2,265.2Zm-163.4,4.3c-1.4-1.6-3.2-6.2-4.1-8.9a1,1,0,0,0-1.9.7c.1.2,1.3,3.7,2.7,6.6l-2.5-1.2a1,1,0,0,0-.8,1.8l5.5,2.5a.6.6,0,0,0,.4.1.91.91,0,0,0,.8-.4A.92.92,0,0,0,170.8,269.5Zm0,0c-1.4-1.6-3.2-6.2-4.1-8.9a1,1,0,0,0-1.9.7c.1.2,1.3,3.7,2.7,6.6l-2.5-1.2a1,1,0,0,0-.8,1.8l5.5,2.5a.6.6,0,0,0,.4.1.91.91,0,0,0,.8-.4A.92.92,0,0,0,170.8,269.5Zm12.8,111.4c-.2-.3-.3-.7-.5-1a9.29,9.29,0,0,1-.5-1,3,3,0,0,0-.4-.8,2.61,2.61,0,0,1-.3-.8c.1.3.2.5.3.8,0,.1.1.1.1.2l.3.6v.1c0,.1.1.2.2.3.1.3.3.6.4.9.1.1.1.2.2.4s.2.2.2.3a.35.35,0,0,0,.1.2c0,.1.1.1.1.2v.1c.2.3.3.6.5.9a6.73,6.73,0,0,0,.7,1.1c0,.1.1.1.1.2.2.3.4.6.7,1a2.19,2.19,0,0,1,.3.5c.1.2.2.3.3.5s.1.2.2.3a4.35,4.35,0,0,0,.6.7c.1.2.3.3.4.5A53,53,0,0,1,183.6,380.9Zm-.1-5.1c1.7,5,5.9,11.5,13.2,17.5C189.5,387.3,185.3,380.8,183.5,375.8Zm5,12.2c.1.1.2.3.3.4s.1.1.2.2C188.8,388.4,188.7,388.2,188.5,388Zm.6.7c.1.1.2.2.2.3l.3.3c.1.1.1.2.2.2A5,5,0,0,0,189.1,388.7Zm3.4,3.5c.8.7,1.6,1.5,2.5,2.2A29.92,29.92,0,0,1,192.5,392.2Zm2.4,2.1a25.6,25.6,0,0,0,2.6,2A25.6,25.6,0,0,1,194.9,394.3Zm7,5.1c10.7,6.7,25.8,11.8,46.6,12C227.7,411,212.5,406,201.9,399.4Zm44.4,9.9a9.15,9.15,0,0,1-1.6-.1c-1,0-2.1-.1-3.1-.2-.6,0-1.1-.1-1.7-.1h-.1c-.4,0-.9-.1-1.3-.1-.6-.1-1.2-.1-1.8-.2-.3,0-.7-.1-1-.1s-.5-.1-.7-.1-.5-.1-.7-.1a5,5,0,0,1-1.2-.2c-.5-.1-.9-.1-1.4-.2-.2,0-.5-.1-.7-.1s-.5-.1-.7-.1-.3-.1-.5-.1a2.35,2.35,0,0,1-.8-.2c-.2,0-.4-.1-.7-.1s-.7-.1-1-.2-.7-.1-1-.2h-.1l-2.6-.6h-.1c-.6-.2-1.2-.3-1.8-.5-.3-.1-.6-.2-1-.3l-.9-.3a3.58,3.58,0,0,1-1.1-.4,71.12,71.12,0,0,1-9.6-3.8c-.3-.1-.6-.3-.9-.4,9.9,5,23.2,8.6,40.4,8.8A17,17,0,0,1,246.3,409.3Zm72.3-28.6a5.74,5.74,0,0,1,.4-.7c.1-.2.2-.5.3-.7A9.14,9.14,0,0,0,318.6,380.7Zm15.6-115.5a1,1,0,0,0-1.4-.1l-2.9,2.3,2.3-8.5a1,1,0,0,0-.7-1.2,1,1,0,0,0-1.2.7l-3.1,11.5a1.11,1.11,0,0,0,.4,1.1,1.69,1.69,0,0,0,.5.2,1.07,1.07,0,0,0,.6-.2l5.3-4.3A1.1,1.1,0,0,0,334.2,265.2ZM442.8,436.3a254.9,254.9,0,0,0,72.5-178.6C515.3,115.4,399.9,0,257.6,0S0,115.4,0,257.7a255.48,255.48,0,0,0,66.1,172,.6.6,0,0,1,.1-.4c3.4-7.4,16.8-23.6,42.6-32.5,25.6-8.8,58.9-18.8,73-22.8h.2c8.2-.4,21.9-2.6,26-7.2,2.2-2.4,3.5-6.8,4.3-11.4-31.5-15.4-41.2-48.1-41.4-68.2-8.2-3.9-21.1-16.2-14.8-37.3a49.76,49.76,0,0,1,2-5.6c-2.9-25.9-7.6-78.8-4.2-94.2,1.7-7.8,6-15.1,10.8-21a74.67,74.67,0,0,1,13.3-13,.92.92,0,0,1,1-.1,1.05,1.05,0,0,1,.5.9v13c7.6-13.2,25.7-34.1,51-37.7a.88.88,0,0,1,1,.5,1.08,1.08,0,0,1,0,1.1c-1.8,2.8-4.1,7.8-4.3,11.8,6.9-6.5,21.8-17.4,38.4-20.6a1,1,0,0,1,1.1.5,1.06,1.06,0,0,1-.2,1.2c-1.6,1.6-5,6.1-4.2,9.8,4.4-6.7,16.4-17.1,37.5-17.6a1.05,1.05,0,0,1,.9.5.9.9,0,0,1-.1,1c-3.5,4.8-8.3,12.8-8.4,17,3.3-.9,7.8-2.6,9.2-4.8a2.43,2.43,0,0,1,2.9-1c3.4,1.3,7.3,10.3,6.4,19.5,3.7-1.4,8.1-4,8.1-7a1,1,0,0,1,.6-.9.92.92,0,0,1,1,.1c9.6,7,26.1,44.3,20.1,135.3,2.3,3.6,3.8,9,4.3,11.2v.2c.6,21-10.5,33.1-17,36.9,1.2,15.9-2.8,38.5-17.9,55a62.62,62.62,0,0,1-22.2,15.5c.8,4.5,2,8.1,3.4,9.1,3.2,2.3,19.1,5.6,28.9,7.3.2,0,.3.1.5.2,23.6,6.5,69.5,20.3,78.8,27,3.9,2.8,12,7.1,20.6,11.6,11.7,6.1,23.8,12.5,27.2,16.3a1,1,0,0,1,.1,1.2A48.38,48.38,0,0,1,442.8,436.3Zm-272-166.8c-1.4-1.6-3.2-6.2-4.1-8.9a1,1,0,0,0-1.9.7c.1.2,1.3,3.7,2.7,6.6l-2.5-1.2a1,1,0,0,0-.8,1.8l5.5,2.5a.6.6,0,0,0,.4.1.91.91,0,0,0,.8-.4A.92.92,0,0,0,170.8,269.5Zm163.4-4.3a1,1,0,0,0-1.4-.1l-2.9,2.3,2.3-8.5a1,1,0,0,0-.7-1.2,1,1,0,0,0-1.2.7l-3.1,11.5a1.11,1.11,0,0,0,.4,1.1,1.69,1.69,0,0,0,.5.2,1.07,1.07,0,0,0,.6-.2l5.3-4.3A1.1,1.1,0,0,0,334.2,265.2Zm0,0a1,1,0,0,0-1.4-.1l-2.9,2.3,2.3-8.5a1,1,0,0,0-.7-1.2,1,1,0,0,0-1.2.7l-3.1,11.5a1.11,1.11,0,0,0,.4,1.1,1.69,1.69,0,0,0,.5.2,1.07,1.07,0,0,0,.6-.2l5.3-4.3A1.1,1.1,0,0,0,334.2,265.2Zm-163.4,4.3c-1.4-1.6-3.2-6.2-4.1-8.9a1,1,0,0,0-1.9.7c.1.2,1.3,3.7,2.7,6.6l-2.5-1.2a1,1,0,0,0-.8,1.8l5.5,2.5a.6.6,0,0,0,.4.1.91.91,0,0,0,.8-.4A.92.92,0,0,0,170.8,269.5Zm0,0c-1.4-1.6-3.2-6.2-4.1-8.9a1,1,0,0,0-1.9.7c.1.2,1.3,3.7,2.7,6.6l-2.5-1.2a1,1,0,0,0-.8,1.8l5.5,2.5a.6.6,0,0,0,.4.1.91.91,0,0,0,.8-.4A.92.92,0,0,0,170.8,269.5Zm163.4-4.3a1,1,0,0,0-1.4-.1l-2.9,2.3,2.3-8.5a1,1,0,0,0-.7-1.2,1,1,0,0,0-1.2.7l-3.1,11.5a1.11,1.11,0,0,0,.4,1.1,1.69,1.69,0,0,0,.5.2,1.07,1.07,0,0,0,.6-.2l5.3-4.3A1.1,1.1,0,0,0,334.2,265.2Zm0,0a1,1,0,0,0-1.4-.1l-2.9,2.3,2.3-8.5a1,1,0,0,0-.7-1.2,1,1,0,0,0-1.2.7l-3.1,11.5a1.11,1.11,0,0,0,.4,1.1,1.69,1.69,0,0,0,.5.2,1.07,1.07,0,0,0,.6-.2l5.3-4.3A1.1,1.1,0,0,0,334.2,265.2Zm-163.4,4.3c-1.4-1.6-3.2-6.2-4.1-8.9a1,1,0,0,0-1.9.7c.1.2,1.3,3.7,2.7,6.6l-2.5-1.2a1,1,0,0,0-.8,1.8l5.5,2.5a.6.6,0,0,0,.4.1.91.91,0,0,0,.8-.4A.92.92,0,0,0,170.8,269.5Zm0,0c-1.4-1.6-3.2-6.2-4.1-8.9a1,1,0,0,0-1.9.7c.1.2,1.3,3.7,2.7,6.6l-2.5-1.2a1,1,0,0,0-.8,1.8l5.5,2.5a.6.6,0,0,0,.4.1.91.91,0,0,0,.8-.4A.92.92,0,0,0,170.8,269.5Zm163.4-4.3a1,1,0,0,0-1.4-.1l-2.9,2.3,2.3-8.5a1,1,0,0,0-.7-1.2,1,1,0,0,0-1.2.7l-3.1,11.5a1.11,1.11,0,0,0,.4,1.1,1.69,1.69,0,0,0,.5.2,1.07,1.07,0,0,0,.6-.2l5.3-4.3A1.1,1.1,0,0,0,334.2,265.2Zm0,0a1,1,0,0,0-1.4-.1l-2.9,2.3,2.3-8.5a1,1,0,0,0-.7-1.2,1,1,0,0,0-1.2.7l-3.1,11.5a1.11,1.11,0,0,0,.4,1.1,1.69,1.69,0,0,0,.5.2,1.07,1.07,0,0,0,.6-.2l5.3-4.3A1.1,1.1,0,0,0,334.2,265.2Zm-163.4,4.3c-1.4-1.6-3.2-6.2-4.1-8.9a1,1,0,0,0-1.9.7c.1.2,1.3,3.7,2.7,6.6l-2.5-1.2a1,1,0,0,0-.8,1.8l5.5,2.5a.6.6,0,0,0,.4.1.91.91,0,0,0,.8-.4A.92.92,0,0,0,170.8,269.5Zm0,0c-1.4-1.6-3.2-6.2-4.1-8.9a1,1,0,0,0-1.9.7c.1.2,1.3,3.7,2.7,6.6l-2.5-1.2a1,1,0,0,0-.8,1.8l5.5,2.5a.6.6,0,0,0,.4.1.91.91,0,0,0,.8-.4A.92.92,0,0,0,170.8,269.5Zm163.4-4.3a1,1,0,0,0-1.4-.1l-2.9,2.3,2.3-8.5a1,1,0,0,0-.7-1.2,1,1,0,0,0-1.2.7l-3.1,11.5a1.11,1.11,0,0,0,.4,1.1,1.69,1.69,0,0,0,.5.2,1.07,1.07,0,0,0,.6-.2l5.3-4.3A1.1,1.1,0,0,0,334.2,265.2Zm0,0a1,1,0,0,0-1.4-.1l-2.9,2.3,2.3-8.5a1,1,0,0,0-.7-1.2,1,1,0,0,0-1.2.7l-3.1,11.5a1.11,1.11,0,0,0,.4,1.1,1.69,1.69,0,0,0,.5.2,1.07,1.07,0,0,0,.6-.2l5.3-4.3A1.1,1.1,0,0,0,334.2,265.2Zm-163.4,4.3c-1.4-1.6-3.2-6.2-4.1-8.9a1,1,0,0,0-1.9.7c.1.2,1.3,3.7,2.7,6.6l-2.5-1.2a1,1,0,0,0-.8,1.8l5.5,2.5a.6.6,0,0,0,.4.1.91.91,0,0,0,.8-.4A.92.92,0,0,0,170.8,269.5Zm0,0c-1.4-1.6-3.2-6.2-4.1-8.9a1,1,0,0,0-1.9.7c.1.2,1.3,3.7,2.7,6.6l-2.5-1.2a1,1,0,0,0-.8,1.8l5.5,2.5a.6.6,0,0,0,.4.1.91.91,0,0,0,.8-.4A.92.92,0,0,0,170.8,269.5Zm163.4-4.3a1,1,0,0,0-1.4-.1l-2.9,2.3,2.3-8.5a1,1,0,0,0-.7-1.2,1,1,0,0,0-1.2.7l-3.1,11.5a1.11,1.11,0,0,0,.4,1.1,1.69,1.69,0,0,0,.5.2,1.07,1.07,0,0,0,.6-.2l5.3-4.3A1.1,1.1,0,0,0,334.2,265.2Zm0,0a1,1,0,0,0-1.4-.1l-2.9,2.3,2.3-8.5a1,1,0,0,0-.7-1.2,1,1,0,0,0-1.2.7l-3.1,11.5a1.11,1.11,0,0,0,.4,1.1,1.69,1.69,0,0,0,.5.2,1.07,1.07,0,0,0,.6-.2l5.3-4.3A1.1,1.1,0,0,0,334.2,265.2Zm-163.4,4.3c-1.4-1.6-3.2-6.2-4.1-8.9a1,1,0,0,0-1.9.7c.1.2,1.3,3.7,2.7,6.6l-2.5-1.2a1,1,0,0,0-.8,1.8l5.5,2.5a.6.6,0,0,0,.4.1.91.91,0,0,0,.8-.4A.92.92,0,0,0,170.8,269.5Zm0,0c-1.4-1.6-3.2-6.2-4.1-8.9a1,1,0,0,0-1.9.7c.1.2,1.3,3.7,2.7,6.6l-2.5-1.2a1,1,0,0,0-.8,1.8l5.5,2.5a.6.6,0,0,0,.4.1.91.91,0,0,0,.8-.4A.92.92,0,0,0,170.8,269.5Zm163.4-4.3a1,1,0,0,0-1.4-.1l-2.9,2.3,2.3-8.5a1,1,0,0,0-.7-1.2,1,1,0,0,0-1.2.7l-3.1,11.5a1.11,1.11,0,0,0,.4,1.1,1.69,1.69,0,0,0,.5.2,1.07,1.07,0,0,0,.6-.2l5.3-4.3A1.1,1.1,0,0,0,334.2,265.2Zm0,0a1,1,0,0,0-1.4-.1l-2.9,2.3,2.3-8.5a1,1,0,0,0-.7-1.2,1,1,0,0,0-1.2.7l-3.1,11.5a1.11,1.11,0,0,0,.4,1.1,1.69,1.69,0,0,0,.5.2,1.07,1.07,0,0,0,.6-.2l5.3-4.3A1.1,1.1,0,0,0,334.2,265.2Zm-163.4,4.3c-1.4-1.6-3.2-6.2-4.1-8.9a1,1,0,0,0-1.9.7c.1.2,1.3,3.7,2.7,6.6l-2.5-1.2a1,1,0,0,0-.8,1.8l5.5,2.5a.6.6,0,0,0,.4.1.91.91,0,0,0,.8-.4A.92.92,0,0,0,170.8,269.5Zm0,0c-1.4-1.6-3.2-6.2-4.1-8.9a1,1,0,0,0-1.9.7c.1.2,1.3,3.7,2.7,6.6l-2.5-1.2a1,1,0,0,0-.8,1.8l5.5,2.5a.6.6,0,0,0,.4.1.91.91,0,0,0,.8-.4A.92.92,0,0,0,170.8,269.5Zm163.4-4.3a1,1,0,0,0-1.4-.1l-2.9,2.3,2.3-8.5a1,1,0,0,0-.7-1.2,1,1,0,0,0-1.2.7l-3.1,11.5a1.11,1.11,0,0,0,.4,1.1,1.69,1.69,0,0,0,.5.2,1.07,1.07,0,0,0,.6-.2l5.3-4.3A1.1,1.1,0,0,0,334.2,265.2Zm0,0a1,1,0,0,0-1.4-.1l-2.9,2.3,2.3-8.5a1,1,0,0,0-.7-1.2,1,1,0,0,0-1.2.7l-3.1,11.5a1.11,1.11,0,0,0,.4,1.1,1.69,1.69,0,0,0,.5.2,1.07,1.07,0,0,0,.6-.2l5.3-4.3A1.1,1.1,0,0,0,334.2,265.2Zm-163.4,4.3c-1.4-1.6-3.2-6.2-4.1-8.9a1,1,0,0,0-1.9.7c.1.2,1.3,3.7,2.7,6.6l-2.5-1.2a1,1,0,0,0-.8,1.8l5.5,2.5a.6.6,0,0,0,.4.1.91.91,0,0,0,.8-.4A.92.92,0,0,0,170.8,269.5Zm0,0c-1.4-1.6-3.2-6.2-4.1-8.9a1,1,0,0,0-1.9.7c.1.2,1.3,3.7,2.7,6.6l-2.5-1.2a1,1,0,0,0-.8,1.8l5.5,2.5a.6.6,0,0,0,.4.1.91.91,0,0,0,.8-.4A.92.92,0,0,0,170.8,269.5Zm163.4-4.3a1,1,0,0,0-1.4-.1l-2.9,2.3,2.3-8.5a1,1,0,0,0-.7-1.2,1,1,0,0,0-1.2.7l-3.1,11.5a1.11,1.11,0,0,0,.4,1.1,1.69,1.69,0,0,0,.5.2,1.07,1.07,0,0,0,.6-.2l5.3-4.3A1.1,1.1,0,0,0,334.2,265.2Zm0,0a1,1,0,0,0-1.4-.1l-2.9,2.3,2.3-8.5a1,1,0,0,0-.7-1.2,1,1,0,0,0-1.2.7l-3.1,11.5a1.11,1.11,0,0,0,.4,1.1,1.69,1.69,0,0,0,.5.2,1.07,1.07,0,0,0,.6-.2l5.3-4.3A1.1,1.1,0,0,0,334.2,265.2Zm-163.4,4.3c-1.4-1.6-3.2-6.2-4.1-8.9a1,1,0,0,0-1.9.7c.1.2,1.3,3.7,2.7,6.6l-2.5-1.2a1,1,0,0,0-.8,1.8l5.5,2.5a.6.6,0,0,0,.4.1.91.91,0,0,0,.8-.4A.92.92,0,0,0,170.8,269.5Z" fill="#f2f2f2"/><path d="M338.8,236.4a5.21,5.21,0,0,0-3-1.4h-.1c-2.9,0-5.5,3.2-8,9.8-1.2-19.1-6.4-83.3-24.4-83.9-2.2-.1-5.2-.2-8.8-.4-50.9-2.4-103.6-3.4-108.5,7.7-4.4,10-10.9,55.2-14.3,81.8-1.5-5-4.2-11.2-7.8-11.3a5,5,0,0,0-4,2.5c-2.2-19.9-5.1-52.4-5.1-73.8,0-7.3.3-13.2,1.1-17,3-13.9,14.7-26.1,21.7-31.6v15a1,1,0,0,0,.8,1,1,1,0,0,0,1.1-.5c5.8-11.9,23.5-35.1,49.3-39.8-1.6,2.9-4.2,8.8-3.3,13.4a1,1,0,0,0,1.7.5c5.5-5.7,19.7-16.9,36-20.9-2.3,3.2-4.3,7.9-1.8,11.7a1.05,1.05,0,0,0,.9.5.79.79,0,0,0,.8-.5c3-5.9,14-17.1,34.7-18.2-2.6,3.8-8.5,13.3-7.5,17.9a1.1,1.1,0,0,0,1.2.8c.4-.1,8.9-2,11.5-5.9.2-.3.3-.3.5-.2,2.2.9,6.4,9.7,5,18.9a1.4,1.4,0,0,0,.3.9,1,1,0,0,0,.9.2c3.6-1,9.2-3.7,10.7-7.6C329.8,115,344,151.7,338.8,236.4Z" fill="#f3ba63"/><path d="M256.3,411.3h-1.4c-.7,0-1.5.1-2.2.1,1.7,0,3.3-.1,4.9-.1Zm-54.4-11.9c10.7,6.7,25.8,11.8,46.6,12C227.7,411,212.5,406,201.9,399.4Zm-7-5.1a25.6,25.6,0,0,0,2.6,2A25.6,25.6,0,0,1,194.9,394.3Zm-2.4-2.1c.8.7,1.6,1.5,2.5,2.2A29.92,29.92,0,0,1,192.5,392.2Zm-4-4.2c.1.1.2.3.3.4s.1.1.2.2C188.8,388.4,188.7,388.2,188.5,388Zm1.3,1.5c-.2-.3-.5-.5-.7-.8.1.1.2.2.2.3l.3.3c.2.2.3.4.5.6A1.38,1.38,0,0,0,189.8,389.5Zm-6.2-8.6a.35.35,0,0,0,.1.2c0,.1.1.1.1.2v.1c.2.3.3.6.5.9a6.73,6.73,0,0,0,.7,1.1c0,.1.1.1.1.2.2.3.4.6.7,1a2.19,2.19,0,0,1,.3.5c.1.2.2.3.3.5s.1.2.2.3a4.35,4.35,0,0,0,.6.7c.1.2.3.3.4.5A53,53,0,0,1,183.6,380.9Zm-.5-1c.1.1.1.3.2.4s.1.2.2.4a.35.35,0,0,0,.1.2A9.25,9.25,0,0,1,183.1,379.9Zm-.5-1h0c0,.1,0,.1.1.2s.1.2.2.3.2.3.2.5A4.67,4.67,0,0,1,182.6,378.9Zm-.4-.8c0,.1,0,.1.1.2l.3.6A3,3,0,0,0,182.2,378.1Zm-.3-.8c.1.3.2.5.3.8A6.89,6.89,0,0,1,181.9,377.3Z" fill="#fd5e67"/><path d="M183.5,375.8c1.7,5,5.9,11.5,13.2,17.5C189.5,387.3,185.3,380.8,183.5,375.8Zm18.4,23.6c10.7,6.7,25.8,11.8,46.6,12C227.7,411,212.5,406,201.9,399.4Zm0,0c10.7,6.7,25.8,11.8,46.6,12C227.7,411,212.5,406,201.9,399.4Z"/><path d="M182.2,378.1c0,.1,0,.1.1.2C182.3,378.2,182.3,378.2,182.2,378.1Z"/><path d="M183.1,379.9c.1.1.1.3.2.4a3.55,3.55,0,0,1-.4-.9C182.9,379.6,183,379.7,183.1,379.9Z"/><path d="M183.6,380.9a.35.35,0,0,1-.1-.2A.31.31,0,0,0,183.6,380.9Z"/><path d="M319.3,379.3a4.88,4.88,0,0,0-.3.7,5.74,5.74,0,0,1-.4.7A9.14,9.14,0,0,1,319.3,379.3Z"/><path d="M246.3,409.3a9.15,9.15,0,0,1-1.6-.1c-1,0-2.1-.1-3.1-.2-.6,0-1.1-.1-1.7-.1h-.1c-.4,0-.9-.1-1.3-.1-.6-.1-1.2-.1-1.8-.2-.3,0-.7-.1-1-.1s-.5-.1-.7-.1-.5-.1-.7-.1a5,5,0,0,1-1.2-.2c-.5-.1-.9-.1-1.4-.2-.2,0-.5-.1-.7-.1s-.5-.1-.7-.1-.3-.1-.5-.1a2.35,2.35,0,0,1-.8-.2c-.2,0-.4-.1-.7-.1s-.7-.1-1-.2-.7-.1-1-.2h-.1l-2.6-.6h-.1c-.6-.2-1.2-.3-1.8-.5-.3-.1-.6-.2-1-.3l-.9-.3a3.58,3.58,0,0,1-1.1-.4,71.12,71.12,0,0,1-9.6-3.8,17.38,17.38,0,0,1-1.9-1,4.67,4.67,0,0,0,1,.5c9.9,5,23.2,8.6,40.4,8.8A8.84,8.84,0,0,1,246.3,409.3Zm-62.8-33.5c1.7,5,5.9,11.5,13.2,17.5C189.5,387.3,185.3,380.8,183.5,375.8Z" fill="#fec2a9"/><path d="M183.6,380.9c-.2-.3-.3-.7-.5-1a9.29,9.29,0,0,1-.5-1,3,3,0,0,0-.4-.8,2.61,2.61,0,0,1-.3-.8c.1.3.2.5.3.8,0,.1.1.1.1.2l.3.6v.1c0,.1.1.2.2.3.1.3.3.6.4.9.1.1.1.2.2.4s.2.2.2.3a.35.35,0,0,0,.1.2c0,.1.1.1.1.2v.1c.2.3.3.6.5.9a6.73,6.73,0,0,0,.7,1.1c0,.1.1.1.1.2.2.3.4.6.7,1a2.19,2.19,0,0,1,.3.5c.1.2.2.3.3.5s.1.2.2.3a4.35,4.35,0,0,0,.6.7c.1.2.3.3.4.5A53,53,0,0,1,183.6,380.9Zm4.9,7.1c.1.1.2.3.3.4s.1.1.2.2C188.8,388.4,188.7,388.2,188.5,388Zm.6.7c.1.1.2.2.2.3l.3.3c.1.1.1.2.2.2A5,5,0,0,0,189.1,388.7Zm3.4,3.5c.8.7,1.6,1.5,2.5,2.2A29.92,29.92,0,0,1,192.5,392.2Zm2.4,2.1a25.6,25.6,0,0,0,2.6,2A25.6,25.6,0,0,1,194.9,394.3Zm51.4,15a9.15,9.15,0,0,1-1.6-.1c-1,0-2.1-.1-3.1-.2-.6,0-1.1-.1-1.7-.1h-.1c-.4,0-.9-.1-1.3-.1-.6-.1-1.2-.1-1.8-.2-.3,0-.7-.1-1-.1s-.5-.1-.7-.1-.5-.1-.7-.1a5,5,0,0,1-1.2-.2c-.5-.1-.9-.1-1.4-.2-.2,0-.5-.1-.7-.1s-.5-.1-.7-.1-.3-.1-.5-.1a2.35,2.35,0,0,1-.8-.2c-.2,0-.4-.1-.7-.1s-.7-.1-1-.2-.7-.1-1-.2h-.1l-2.6-.6h-.1c-.6-.2-1.2-.3-1.8-.5-.3-.1-.6-.2-1-.3l-.9-.3a3.58,3.58,0,0,1-1.1-.4,71.12,71.12,0,0,1-9.6-3.8,17.38,17.38,0,0,1-1.9-1,4.67,4.67,0,0,0,1,.5c9.9,5,23.2,8.6,40.4,8.8A8.84,8.84,0,0,1,246.3,409.3Zm72.3-28.6a5.74,5.74,0,0,1,.4-.7c.1-.2.2-.5.3-.7A9.14,9.14,0,0,0,318.6,380.7Z"/><path d="M445.2,429.8c-8.4,12.7-31,34-67.6,53.1-22,11.5-54.1,24.7-92.8,30h-.1a254.47,254.47,0,0,1-34.4,2.4c-80.5,0-139.3-39.5-168.6-69.9l-.1-.1a146.93,146.93,0,0,1-13.3-15.7c1.8-3.7,6-9.3,12.8-15a86.53,86.53,0,0,1,28.4-15.9c25-8.6,57.4-18.3,72-22.5.1.2.1.4.2.6a1.42,1.42,0,0,1,.2.6c.1.3.2.5.3.8,0,.1.1.1.1.2l.3.6v.1c0,.1.1.2.2.3.1.3.3.6.4.9.1.1.1.2.2.4s.1.2.2.3v.1c0,.1.1.1.1.2v.1c.2.3.3.6.5.9a6.73,6.73,0,0,0,.7,1.1c0,.1.1.1.1.2.2.3.4.6.7,1a2.19,2.19,0,0,1,.3.5c.1.2.2.3.3.5s.1.2.2.3a4.35,4.35,0,0,0,.6.7c.1.2.3.3.4.5l.1.1v.1c.2.2.3.4.5.6s.1.2.2.2.2.3.3.4.1.1.2.2a414651801552.21,414651801552.21,0,0,0,.2.2c.1.1.2.2.2.3l.3.3c.2.2.3.4.5.6l.3.3.1.1.8.8.5.5.1.1a2.65,2.65,0,0,0,.6.5c.8.7,1.6,1.5,2.5,2.2a25.6,25.6,0,0,0,2.6,2l.9.6.9.6,2.7,1.8c10.7,6.7,25.8,11.8,46.6,12h4.1c1.7,0,3.3-.1,4.9-.1a4.87,4.87,0,0,0,1.2-.1c.7,0,1.3-.1,2-.1a11,11,0,0,0,1.8-.2,1.27,1.27,0,0,0,.6-.1c.5,0,1-.1,1.4-.1h.1c.2,0,.5-.1.7-.1s.5-.1.8-.1h.4c.3,0,.5-.1.8-.1s.6-.1.9-.1l1.8-.3h.1c.6-.1,1.1-.2,1.6-.3s1.2-.2,1.7-.3l1.7-.3,1.5-.3h.2a8.33,8.33,0,0,0,1.5-.4l1.3-.3a12330855011927.53,12330855011927.53,0,0,0,1.6-.4,4.33,4.33,0,0,1,.5-.1,5.64,5.64,0,0,0,1.2-.4c.5-.2,1-.3,1.5-.5l1-.3h.1c.1,0,.1,0,.2-.1h.1c.2-.1.4-.1.6-.2s.1,0,.2-.1c.3-.1.5-.2.8-.3s.8-.3,1.3-.5c.2-.1.3-.1.5-.2s.2-.1.3-.1.1-.1.2-.1.2-.1.4-.1c1-.4,2-.9,2.9-1.3.4-.2.7-.3,1.1-.5s.7-.3,1-.5.7-.3,1-.5l.6-.3c.5-.3.9-.5,1.4-.8.1-.1.2-.1.3-.2h.1c.1,0,.2-.1.3-.1.6-.3,1.2-.7,1.7-1a.76.76,0,0,1,.4-.2c1.5-.9,2.8-1.9,4.1-2.8.2-.2.5-.3.7-.5a10.59,10.59,0,0,0,1.2-1,10.59,10.59,0,0,0,1.2-1c.2-.2.4-.3.6-.5.1,0,.1-.1.2-.1.3-.2.5-.5.8-.7s.5-.5.8-.7a4.62,4.62,0,0,0,.7-.7l.6-.6.6-.6.2-.2.7-.7c.2-.2.3-.4.5-.6s.3-.3.4-.5.1-.2.2-.2a.1.1,0,0,0,.1-.1v-.1l.1-.1a17.68,17.68,0,0,0,1.6-2.2c.3-.4.6-.9.9-1.3a3.51,3.51,0,0,0,.5-.8,4.35,4.35,0,0,0,.4-.7c.1-.2.3-.4.4-.6v-.1l.3-.6a5.74,5.74,0,0,1,.4-.7c.1-.2.2-.5.3-.7.2-.4.4-.9.6-1.3l.3-.6a6181264102382.18,6181264102382.18,0,0,0,.4-1.2c23.6,6.5,68.6,20,77.6,26.5,4.1,2.9,12.2,7.2,20.8,11.7C429.5,420,441.3,426.1,445.2,429.8Z" fill="#fd5e67"/><path d="M318.6,375.7c-4.2,12.1-22.8,33.2-66.1,33.7h-4a17.7,17.7,0,0,1-2.3-.1,9.15,9.15,0,0,1-1.6-.1c-1,0-2.1-.1-3.1-.2-.6,0-1.1-.1-1.7-.1h-.1c-.4,0-.9-.1-1.3-.1-.6-.1-1.2-.1-1.8-.2-.3,0-.7-.1-1-.1s-.5-.1-.7-.1-.5-.1-.7-.1a5,5,0,0,1-1.2-.2c-.5-.1-.9-.1-1.4-.2-.2,0-.5-.1-.7-.1s-.5-.1-.7-.1-.3-.1-.5-.1a2.35,2.35,0,0,1-.8-.2c-.2,0-.4-.1-.7-.1s-.7-.1-1-.2-.7-.1-1-.2h-.1l-2.6-.6h-.1c-.6-.2-1.2-.3-1.8-.5-.3-.1-.6-.2-1-.3l-.9-.3a3.58,3.58,0,0,1-1.1-.4A71.12,71.12,0,0,1,209,401a17.38,17.38,0,0,1-1.9-1,19.83,19.83,0,0,1-2-1.1c-.7-.4-1.3-.8-2-1.2-.3-.2-.7-.4-1-.6-.7-.5-1.4-.9-2.1-1.4a23.07,23.07,0,0,1-1.9-1.4l-1.5-1.2c-7.3-6-11.5-12.5-13.2-17.5a90.24,90.24,0,0,0,12.8-1.8c5.3-1.2,10.6-3,13.3-6,2.5-2.8,3.9-7.4,4.7-11.9,10.4,4.7,23.1,7.6,38.5,7.6,12.5,0,23.5-1.9,33.1-5.6.8,4.4,2.1,8.5,4.2,10,4.1,2.9,22.8,6.4,28.3,7.4C318.4,375.7,318.5,375.7,318.6,375.7Z" fill="#fec2a9"/><path d="M170.8,269.5a1.05,1.05,0,0,1,0,1.3.91.91,0,0,1-.8.4.6.6,0,0,1-.4-.1l-5.5-2.5a1,1,0,0,1,.8-1.8l2.5,1.2c-1.4-2.9-2.6-6.4-2.7-6.6a1,1,0,1,1,1.9-.7C167.6,263.3,169.5,267.9,170.8,269.5Z" fill="#fec2a9"/><path d="M334.2,265.2a1,1,0,0,1-.2,1.4l-5.3,4.3a.73.73,0,0,1-.6.2.76.76,0,0,1-.5-.2,1,1,0,0,1-.4-1.1l3.1-11.5a1,1,0,0,1,1.9.5l-2.3,8.5,2.9-2.3A1.08,1.08,0,0,1,334.2,265.2Z" fill="#fec2a9"/><path d="M342.9,250.3a42.31,42.31,0,0,0-3.2-9.2c-.2-.3-.4-.7-.6-1l-.6-.9c-1-1.3-1.9-2.1-2.8-2.1-1.4,0-4.3,1.6-7.9,13.4a.92.92,0,0,1-1.1.7,1.06,1.06,0,0,1-.9-.9c-1.5-34.8-8.8-86.7-22.8-87.3-2.2-.1-5.2-.2-8.8-.4-15.1-.7-40.5-1.9-62.9-1.5-33.5.7-42.2,4.7-43.7,7.9-4.6,10.5-11.7,61.1-14.8,86.4a.76.76,0,0,1-.2.5,1,1,0,0,1-.7.4,1.85,1.85,0,0,1-.7-.2.55.55,0,0,1-.3-.5l-.3-1.2c-1.9-7.9-4.7-13.5-6.9-13.6-.6,0-1.8.5-3.3,3.5a9.29,9.29,0,0,0-.5,1,4.18,4.18,0,0,0-.4,1,34.15,34.15,0,0,0-1.4,4.2c-6,20.2,6.7,31.8,14.3,35.1a1,1,0,0,1,.6.9c0,19.3,9.2,51.5,39.7,66.7.3.2.6.3.9.5a10.37,10.37,0,0,0,1,.4c10.3,4.8,22.8,7.7,38.2,7.7,12.4,0,23.3-1.9,32.8-5.6a10.37,10.37,0,0,1,1-.4c.3-.1.6-.3.9-.4a59.32,59.32,0,0,0,21-14.8c14.9-16.2,18.7-38.6,17.4-54.1a1.23,1.23,0,0,1,.5-1C332.4,282.4,343.5,270.8,342.9,250.3Zm-172,20.5a.91.91,0,0,1-.8.4.6.6,0,0,1-.4-.1l-5.5-2.5a1,1,0,0,1,.8-1.8l2.5,1.2c-1.4-2.9-2.6-6.4-2.7-6.6a1,1,0,0,1,1.9-.7c.9,2.7,2.8,7.3,4.1,8.9A.91.91,0,0,1,170.9,270.8Zm39.8-49.3c-4.1.9-8.2,2.5-11.1,5.4a1.13,1.13,0,0,1-1.6-1.6c3.4-3.3,8-5.1,12.3-6a40,40,0,0,1,10.9-.7,1.19,1.19,0,0,1,1,1.2,1.11,1.11,0,0,1-1.2,1A39.54,39.54,0,0,0,210.7,221.5ZM226,249.7c-.7,5-3.6,8.8-6.5,8.4s-4.6-4.8-3.9-9.8,3.6-8.8,6.5-8.4S226.7,244.7,226,249.7Zm25.4,10.2a1,1,0,0,1,1,.4c1.1,2.9,2.3,5.9,3.5,8.5a24.86,24.86,0,0,0,3.5,5.8,11.23,11.23,0,0,1,3.3,5.7,1.7,1.7,0,0,1,0,1,2.77,2.77,0,0,1-.1.9v.1c-.6,2.7-3,5.4-7.7,8.4a.78.78,0,0,1-1-.2.75.75,0,0,1,.2-1c4.3-2.8,6.3-5,6.9-7,.1-.2.1-.4.2-.6a.6.6,0,0,1,.1-.4v-1c-.2-1.5-1.2-3.1-2.9-4.8a22.93,22.93,0,0,1-3.8-6.2c-1.3-2.6-2.5-5.7-3.6-8.6A.68.68,0,0,1,251.4,259.9ZM273.3,302a38.43,38.43,0,0,1-7.9,10.5c-3.7,3.3-8.3,5.7-13.5,4.9a23.77,23.77,0,0,1-12.9-7c-3.3-3.4-5.6-7.6-5.8-11.2a.75.75,0,0,1,.5-.8.92.92,0,0,1,1,.1c3.4,2.7,10.4,5,17.9,5.8s15,0,19.7-3.3a1.08,1.08,0,0,1,1.1,0A4.14,4.14,0,0,1,273.3,302Zm6.5-43.4c-2.9.3-5.7-3.5-6.3-8.5s1.3-9.4,4.1-9.8,5.7,3.5,6.3,8.5S282.7,258.3,279.8,258.6Zm21.4-32.2a1.25,1.25,0,0,1-1.6.3,33.87,33.87,0,0,0-9.2-4.6,22.82,22.82,0,0,0-12.4-.9,1.07,1.07,0,0,1-1.3-.8,1.14,1.14,0,0,1,.8-1.4c4.6-1.2,9.5-.4,13.6.9a38.49,38.49,0,0,1,9.8,4.9A1.07,1.07,0,0,1,301.2,226.4Zm32.9,40.3-5.3,4.3a.73.73,0,0,1-.6.2.76.76,0,0,1-.5-.2,1,1,0,0,1-.4-1.1l3.1-11.5a1,1,0,1,1,1.9.5l-2.3,8.5,2.9-2.3a1,1,0,0,1,1.4.1A1.37,1.37,0,0,1,334.1,266.7Z" fill="#fec2a9"/><path d="M334.2,265.2a1,1,0,0,0-1.4-.1l-2.9,2.3,2.3-8.5a1,1,0,0,0-.7-1.2,1,1,0,0,0-1.2.7l-3.1,11.5a1.11,1.11,0,0,0,.4,1.1,1.69,1.69,0,0,0,.5.2,1.07,1.07,0,0,0,.6-.2l5.3-4.3A1.1,1.1,0,0,0,334.2,265.2Zm-163.4,4.3c-1.4-1.6-3.2-6.2-4.1-8.9a1,1,0,0,0-1.9.7c.1.2,1.3,3.7,2.7,6.6l-2.5-1.2a1,1,0,0,0-.8,1.8l5.5,2.5a.6.6,0,0,0,.4.1.91.91,0,0,0,.8-.4A.92.92,0,0,0,170.8,269.5Z"/><path d="M279.8,258.6c-2.9.3-5.7-3.5-6.3-8.5s1.3-9.4,4.1-9.8,5.7,3.5,6.3,8.5S282.7,258.3,279.8,258.6Z"/><path d="M262.7,281.3a2.77,2.77,0,0,1-.1.9v.1c-.6,2.7-3,5.4-7.7,8.4a.78.78,0,0,1-1-.2.75.75,0,0,1,.2-1c4.3-2.8,6.3-5,6.9-7,.1-.2.1-.4.2-.6a.6.6,0,0,1,.1-.4v-1c-.2-1.5-1.2-3.1-2.9-4.8a22.93,22.93,0,0,1-3.8-6.2c-1.3-2.6-2.5-5.7-3.6-8.6a.88.88,0,0,1,.5-1,1,1,0,0,1,1,.4c1.1,2.9,2.3,5.9,3.5,8.5a24.86,24.86,0,0,0,3.5,5.8,11.23,11.23,0,0,1,3.3,5.7A3.08,3.08,0,0,0,262.7,281.3Z" fill-rule="evenodd"/><path d="M222.1,219.9a1.11,1.11,0,0,1-1.2,1,38.26,38.26,0,0,0-10.2.6c-4.1.9-8.2,2.5-11.1,5.4a1.13,1.13,0,0,1-1.6-1.6c3.4-3.3,8-5.1,12.3-6a40,40,0,0,1,10.9-.7A1.22,1.22,0,0,1,222.1,219.9Z" fill-rule="evenodd"/><path d="M301.2,226.4a1.25,1.25,0,0,1-1.6.3,33.87,33.87,0,0,0-9.2-4.6,22.82,22.82,0,0,0-12.4-.9,1.07,1.07,0,0,1-1.3-.8,1.14,1.14,0,0,1,.8-1.4c4.6-1.2,9.5-.4,13.6.9a38.49,38.49,0,0,1,9.8,4.9A1.07,1.07,0,0,1,301.2,226.4Z" fill-rule="evenodd"/><path d="M270.2,303.9a33.21,33.21,0,0,1-6,7.3c-3.5,3.1-7.6,5.2-12.1,4.4a22.21,22.21,0,0,1-12-6.5,19.57,19.57,0,0,1-5-8.2c4.1,2.4,10.5,4.3,17,5C258.4,306.6,265.1,306.2,270.2,303.9Z" fill="#ae5646" fill-rule="evenodd"/><path d="M447.2,429c-3.4-3.8-15.5-10.2-27.2-16.3-8.6-4.5-16.7-8.7-20.6-11.6-9.3-6.7-55.2-20.5-78.8-27a.76.76,0,0,0-.5-.2c-9.9-1.7-25.7-5-28.9-7.3-1.4-1-2.6-4.6-3.4-9.1A63.14,63.14,0,0,0,310,342c15.1-16.5,19.2-39.1,17.9-55,6.4-3.8,17.6-15.9,17-36.9v-.2c-.5-2.2-1.9-7.6-4.3-11.2,5.9-91.1-10.5-128.3-20.1-135.3a.92.92,0,0,0-1-.1,1.15,1.15,0,0,0-.6.9c0,3-4.4,5.7-8.1,7,.9-9.2-3.1-18.2-6.4-19.5a2.31,2.31,0,0,0-2.9,1c-1.4,2.2-5.9,3.9-9.2,4.8.1-4.1,4.9-12.2,8.4-17a.92.92,0,0,0,.1-1,1.05,1.05,0,0,0-.9-.5c-21.1.4-33.1,10.8-37.5,17.6-.8-3.7,2.6-8.2,4.2-9.8a1.06,1.06,0,0,0,.2-1.2,1,1,0,0,0-1.1-.5c-16.6,3.1-31.5,14.1-38.4,20.6.2-4,2.5-9,4.3-11.8a1.08,1.08,0,0,0,0-1.1,1.23,1.23,0,0,0-1-.5c-25.4,3.6-43.4,24.5-51,37.7V117a1.05,1.05,0,0,0-.5-.9.77.77,0,0,0-1,.1,71.29,71.29,0,0,0-13.3,13c-4.7,5.9-9,13.2-10.8,21-3.4,15.5,1.3,68.3,4.2,94.2a35.6,35.6,0,0,0-2,5.6c-6.3,21,6.6,33.4,14.8,37.3.2,20.1,9.9,52.8,41.4,68.2-.7,4.6-2.1,9-4.3,11.4-4.1,4.5-17.8,6.8-26,7.2h-.2c-14.1,4.1-47.4,14-73,22.8-25.8,8.9-39.2,25.1-42.6,32.5a.6.6,0,0,0-.1.4,1.42,1.42,0,0,0,.2.6c21.2,30.1,86.9,87.1,183.9,87.1,54.5,0,99.8-17.7,128.3-32.6,32.1-16.8,53.6-35.3,64.3-48.4,1.8-2.2,3.3-4.3,4.5-6.1A1.58,1.58,0,0,0,447.2,429ZM154.7,167.4c0-7.3.3-13.2,1.1-17,3-13.9,14.7-26.1,21.7-31.6v15a1,1,0,0,0,.8,1,1,1,0,0,0,1.1-.5c5.8-11.9,23.5-35.1,49.3-39.8-1.6,2.9-4.2,8.8-3.3,13.4a1,1,0,0,0,1.7.5c5.5-5.7,19.7-16.9,36-20.9-2.3,3.2-4.3,7.9-1.8,11.7a1.05,1.05,0,0,0,.9.5.79.79,0,0,0,.8-.5c3-5.9,14-17.1,34.7-18.2-2.6,3.8-8.5,13.3-7.5,17.9a1.1,1.1,0,0,0,1.2.8c.4-.1,8.9-2,11.5-5.9.2-.3.3-.3.5-.2,2.2.9,6.4,9.7,5,18.9a1.4,1.4,0,0,0,.3.9,1,1,0,0,0,.9.2c3.6-1,9.2-3.7,10.7-7.6,9.3,8.9,23.5,45.6,18.2,130.4a5.21,5.21,0,0,0-3-1.4h-.1c-2.9,0-5.5,3.2-8,9.8-1.2-19.1-6.4-83.3-24.4-83.9-2.2-.1-5.2-.2-8.8-.4-50.9-2.4-103.6-3.4-108.5,7.7-4.4,10-10.9,55.2-14.3,81.8-1.5-5-4.2-11.2-7.8-11.3a5,5,0,0,0-4,2.5C157.6,221.4,154.7,188.8,154.7,167.4ZM173,286.5a.87.87,0,0,0-.6-.9c-7.6-3.3-20.4-14.9-14.3-35.1.5-1.7,1-3,1.4-4.2a10.37,10.37,0,0,1,.4-1,3.13,3.13,0,0,1,.5-1c1.5-3,2.7-3.5,3.3-3.5,2.2.1,5.1,5.7,6.9,13.6l.3,1.2a.85.85,0,0,0,.3.5,1.45,1.45,0,0,0,.7.2.67.67,0,0,0,.7-.4.76.76,0,0,0,.2-.5c3.1-25.3,10.1-76,14.8-86.4,1.4-3.2,10.2-7.3,43.7-7.9,22.4-.5,47.8.7,62.9,1.5,3.6.2,6.7.3,8.8.4,14,.5,21.3,52.5,22.8,87.3a.9.9,0,0,0,.9.9,1.08,1.08,0,0,0,1.1-.7c3.5-11.7,6.4-13.4,7.9-13.4.9,0,1.9.8,2.8,2.1l.6.9a8.79,8.79,0,0,1,.6,1,37.6,37.6,0,0,1,3.2,9.2c.5,20.6-10.6,32.1-16.5,35.3a1.23,1.23,0,0,0-.5,1c1.4,15.5-2.5,37.9-17.4,54.1a61.56,61.56,0,0,1-21,14.8c-.3.1-.6.3-.9.4a10.37,10.37,0,0,1-1,.4c-9.5,3.7-20.4,5.6-32.8,5.6-15.3,0-27.9-2.9-38.2-7.7-.3-.1-.7-.3-1-.4s-.6-.3-.9-.5C182.1,337.9,173,305.8,173,286.5Zm10.5,89.3a90.24,90.24,0,0,0,12.8-1.8c5.3-1.2,10.6-3,13.3-6,2.5-2.8,3.9-7.4,4.7-11.9,10.4,4.7,23.1,7.6,38.5,7.6,12.5,0,23.5-1.9,33.1-5.6.8,4.4,2.1,8.5,4.2,10,4.1,2.9,22.8,6.4,28.3,7.4a.37.37,0,0,1,.3.1c-4.2,12.1-22.8,33.2-66.1,33.7h-4c-17.2-.2-30.4-3.8-40.4-8.8a9.29,9.29,0,0,1-1-.5,19.83,19.83,0,0,1-2-1.1c-.7-.4-1.3-.8-2-1.2-.3-.2-.7-.4-1-.6-.7-.5-1.4-.9-2.1-1.4a23.07,23.07,0,0,1-1.9-1.4l-1.5-1.2C189.4,387.3,185.2,380.8,183.5,375.8ZM377.6,482.9c-22,11.5-54.1,24.7-92.8,30h-.1a254.47,254.47,0,0,1-34.4,2.4c-80.5,0-139.3-39.5-168.6-69.9l-.1-.1a146.93,146.93,0,0,1-13.3-15.7c1.8-3.7,6-9.3,12.8-15a86.53,86.53,0,0,1,28.4-15.9c25-8.6,57.4-18.3,72-22.5.1.2.1.4.2.6a1.42,1.42,0,0,1,.2.6c.1.3.2.5.3.8a3,3,0,0,0,.4.8,9.25,9.25,0,0,0,.5,1c.2.3.3.7.5,1a38.33,38.33,0,0,0,4.1,6.1l.1.1v.1c.2.2.3.4.5.6s.1.2.2.2l.5.5a621977702328.17,621977702328.17,0,0,1,.2.2c.2.3.5.5.7.8l.3.3.3.3.1.1.8.8.5.5.1.1a2.65,2.65,0,0,0,.6.5c.8.7,1.6,1.5,2.5,2.2a25.6,25.6,0,0,0,2.6,2l.9.6.9.6,2.7,1.8c10.7,6.6,25.8,11.7,46.6,12h4.1a16.2,16.2,0,0,0,2.2-.1h2.6a4.87,4.87,0,0,0,1.2-.1c.7,0,1.3-.1,2-.1a11,11,0,0,0,1.8-.2,1.27,1.27,0,0,0,.6-.1c.5,0,1-.1,1.4-.1h.1c.2,0,.5-.1.7-.1s.5-.1.8-.1h.4c.3,0,.5-.1.8-.1s.6-.1.9-.1l1.8-.3h.1c.6-.1,1.1-.2,1.6-.3s1.2-.2,1.7-.3l1.7-.3,1.5-.3h.2a8.33,8.33,0,0,0,1.5-.4l1.3-.3a15413568764836.2,15413568764836.2,0,0,1,1.6-.4,4.33,4.33,0,0,1,.5-.1,5.64,5.64,0,0,0,1.2-.4c.5-.2,1-.3,1.5-.5l1-.3h.1c.1,0,.1,0,.2-.1h.1c.2-.1.4-.1.6-.2s.1,0,.2-.1c.3-.1.5-.2.8-.3s.8-.3,1.3-.5c.2-.1.3-.1.5-.2s.2-.1.3-.1.1-.1.2-.1.2-.1.4-.1c1-.4,2-.9,2.9-1.3.4-.2.7-.3,1.1-.5s.7-.3,1-.5.7-.3,1-.5l.6-.3c.5-.3.9-.5,1.4-.8.1-.1.2-.1.3-.2h.1c.1,0,.2-.1.3-.1.6-.3,1.2-.7,1.7-1a.76.76,0,0,1,.4-.2c1.5-.9,2.8-1.9,4.1-2.8.2-.2.5-.3.7-.5a67050890291724.31,67050890291724.31,0,0,0,2.4-2c.2-.2.4-.3.6-.5.1,0,.1-.1.2-.1.3-.2.5-.5.8-.7s.5-.5.8-.7a4.62,4.62,0,0,0,.7-.7l.6-.6.6-.6.2-.2.7-.7c.2-.2.3-.4.5-.6s.3-.3.4-.5.1-.2.2-.2a.1.1,0,0,0,.1-.1v-.1l.1-.1a17.68,17.68,0,0,0,1.6-2.2c.3-.4.6-.9.9-1.3a3.51,3.51,0,0,0,.5-.8,4.35,4.35,0,0,0,.4-.7c.1-.2.3-.4.4-.6v-.1l.3-.6c.2-.4.5-.9.7-1.3s.4-.9.6-1.3l.3-.6a1.42,1.42,0,0,0,.2-.6,1.42,1.42,0,0,0,.2-.6c23.6,6.5,68.6,20,77.6,26.5,4.1,2.9,12.2,7.2,20.8,11.7,10.5,5.5,22.3,11.7,26.1,15.3C436.8,442.5,414.2,463.8,377.6,482.9Z"/><path d="M226,249.7c-.7,5-3.6,8.8-6.5,8.4s-4.6-4.8-3.9-9.8,3.6-8.8,6.5-8.4S226.7,244.7,226,249.7Z"/><path d="M273.3,301a.78.78,0,0,0-1.1,0c-4.6,3.3-12.2,4.1-19.7,3.3s-14.4-3.2-17.9-5.8a.9.9,0,0,0-1-.1,1,1,0,0,0-.5.8c.3,3.6,2.5,7.8,5.8,11.2a24.12,24.12,0,0,0,12.9,7c5.2.8,9.9-1.6,13.5-4.9a34.74,34.74,0,0,0,7.9-10.5C273.7,301.7,273.7,301.3,273.3,301Zm-8.8,10.2c-3.5,3.1-7.6,5.2-12.1,4.4a22.21,22.21,0,0,1-12-6.5,19.57,19.57,0,0,1-5-8.2c4.1,2.4,10.5,4.3,17,5,6.3.7,13,.3,18.1-2A33.74,33.74,0,0,1,264.5,311.2Z"/></g></g></svg>