<svg xmlns="http://www.w3.org/2000/svg" viewBox="0 0 515.5 517.2"><title>Asset 19</title><g id="Layer_2" data-name="Layer 2"><g id="Слой_1" data-name="Слой 1"><path d="M515.5,257.7a255,255,0,0,1-55.3,159c-25.3-3.4-114.6-23-129.1-34.5a67.74,67.74,0,0,1-14.8-16.3c-3.5-5.1-6-8.6-12.3-9.1-1.4-3.9-4.4-9-9.5-10v-7.1a35.89,35.89,0,0,0,2.5-5.3c4.5-5.7,9.1-11.5,15.6-16.8,17.5-14.2,19.8-28.2,18.4-34.1,16.3-8.9,18.2-18.7,15.9-31.5-1.3-7.2-6-10.9-9.6-11.9a7.38,7.38,0,0,0-5.5.3c5.4-29.1,3.1-69.7-19.2-96.5-15.6-18.7-38.7-28.2-68.8-28.2-30.4,0-53.5,9.5-68.6,28.3-21.4,26.5-22.3,67.3-16.6,94.1,0,.2.2.4.3.6l.5.4a10.61,10.61,0,0,0-4.7.2c-2.3.7-6.3,2.7-7.5,9.1-2.9,15.7,2.7,27.6,16.6,35.2-1.3,5.8.9,19.8,18.4,34.1,6.6,5.4,11.3,11.4,15.9,17.2a46.83,46.83,0,0,0,3.2,6.3v5.7a7.16,7.16,0,0,0-5.7,1.8c-1.5,1.3-3.2,3.7-3.9,8.1h-.6l-.1.1c-2.6,1.5-7.5,6.5-7.2,15.1.2,6.8-67.2,26.9-107.6,38.9-7.6,2.3-14.8,4.4-20.8,6.2A255.19,255.19,0,0,1,0,257.7C0,115.4,115.4,0,257.7,0S515.5,115.4,515.5,257.7Z" fill="#f2f2f2"/><path d="M331.2,241.5l.2-.1c.1-.1.2-.1.2-.2S331.4,241.4,331.2,241.5ZM191.9,356.7a9329101592432.65,9329101592432.65,0,0,1-.2,1h1a9329101592432.64,9329101592432.64,0,0,0,.2-1Zm101.6-19.4a.1.1,0,0,0,.1-.1Zm-91.7.4c0,.1.1.1.1.2v-.1A.1.1,0,0,0,201.8,337.7Z" fill="#f2f2f2"/><path d="M460.4,416.7h0c-25.4-3.4-114.6-23-129.2-34.5a67.74,67.74,0,0,1-14.8-16.3c-3.5-5.1-6-8.6-12.3-9.1h-1c.1.2.1.3.2.5s.1.3.2.5a19.45,19.45,0,0,1,.5,2c4.1,19.3-10,78.7-20.3,122.1-.9,3.7-1.7,7.3-2.5,10.6L262.3,438c3-2.7,8-11.4,7.4-26.6-.2-6.6-2.2-11.6-5.9-15a15.23,15.23,0,0,0-10.8-3.8c-3.6-.6-8.8,0-12.4,3.1q-4.2,3.6-4.2,10.5c0,12.3,5.4,26,8.4,31.6l-4.5,55.6c-4.2-10.9-9-23.3-13.9-36-7.8-20.1-16.1-41.4-22.5-58.9s-10.9-31.1-11.1-35.7a28.22,28.22,0,0,1,.2-5.2h-1c-.1,1.1-.2,2.4-.2,3.8v1.4c.3,9.3,17.3,52.8,33.6,94.9,5.3,13.6,10.4,26.6,14.7,38l-1.5,17.8-.1,1.2a233.94,233.94,0,0,1-43.3-8.1c-65.1-18.4-111-60.5-134.3-83.5,1.2,1.5,2.5,2.9,3.8,4.3,1.6,1.8,3.2,3.6,4.9,5.4a256.43,256.43,0,0,0,94.3,63.8,244,244,0,0,0,74.6,19v.2l.5.1a186.82,186.82,0,0,0,21,1.3c9.8,0,18.4-1,28.5-2.3l.6-.1v-.1c28.4-3.6,56.2-12.7,83.2-27.1a258,258,0,0,0,79.5-60.8c3.7-3.8,6.8-7,9.1-9.5l.7-.7ZM265.6,516.2c-4,.1-8,.1-12.3,0h-.6c-4.1-.2-8.5-.5-13.3-1.1v-.2l.1-1.2,1.3-15.7.1-1.2.1-1.1,4.7-57.9v-.1l-.1-.1c-2.9-5.5-8.3-19.1-8.3-31.3,0-4.3,1.3-7.6,3.9-9.8,3.4-2.9,8.2-3.4,11.6-2.8h.1a14.29,14.29,0,0,1,10.1,3.5c3.5,3.1,5.4,7.9,5.6,14.3.6,15.2-4.6,23.6-7.3,26l-.3.2,19.6,56.6.3.9.3.9,5.8,16.7.5,1.4v.1C279.7,515.2,272.9,515.9,265.6,516.2Zm78.8-16.7A228.07,228.07,0,0,1,288.5,514l-.5-1.4-6.4-18.4c.9-3.9,1.9-7.9,2.9-12.2,10.3-43.5,24.5-103,20.3-122.5a13.64,13.64,0,0,0-.4-1.7c5.5.5,7.7,3.7,11.1,8.6a70.94,70.94,0,0,0,15,16.5c14.5,11.5,102.2,30.9,128.7,34.6C422.9,456.2,384.5,483.6,344.4,499.5Z"/><path d="M191.8,357.2a.9.9,0,0,1-.1.5h1a.9.9,0,0,1,.1-.5Z"/><path d="M239.9,495.8l-1.5,17.8-.1,1.2a233.94,233.94,0,0,1-43.3-8.1c-65.1-18.4-111-60.5-134.3-83.5q-2.85-2.7-5.1-5.1c.3-.1.5-.1.8-.2,5.8-1.8,12.9-3.9,20.4-6.1,57.2-17.1,108.5-33,108.3-39.9-.3-8,4.1-12.7,6.6-14.2h.2c-.1,1.1-.2,2.4-.2,3.8v1.4c.3,9.3,17.3,52.8,33.6,94.9C230.5,471.4,235.6,484.5,239.9,495.8Z" fill="#103a4d"/><path d="M459.3,417.5c-36.4,38.7-74.8,66.1-114.8,82A226.92,226.92,0,0,1,288.6,514l-.5-1.4-6.4-18.4c.9-3.9,1.9-7.9,2.9-12.2,10.3-43.5,24.5-103,20.3-122.5a13.64,13.64,0,0,0-.4-1.7c5.5.5,7.7,3.7,11.1,8.6a70.94,70.94,0,0,0,15,16.5C345,394.4,432.8,413.9,459.3,417.5Z" fill="#103a4d"/><path d="M191.9,356.7a9329101592432.65,9329101592432.65,0,0,1-.2,1h1a9329101592432.64,9329101592432.64,0,0,0,.2-1Zm68.2,159.6c-2.3,0-4.6,0-6.8-.1,4.3.2,8.3.2,12.2,0C263.7,516.3,261.9,516.3,260.1,516.3Z"/><path d="M191.9,356.7a9329101592432.65,9329101592432.65,0,0,1-.2,1h-.2c-2.5,1.4-6.9,6.1-6.6,14.2.2,7-51.1,22.9-108.3,39.9-7.5,2.2-14.5,4.3-20.4,6.1a2.35,2.35,0,0,1-.8.2l5.1,5.1c1.2,1.5,2.5,2.9,3.8,4.3,1.6,1.8,3.2,3.6,4.9,5.4C63,427.1,57.9,422,54.1,418.2l-.6-.6.8-.3a5.64,5.64,0,0,0,1.2-.4c5.9-1.8,13.1-4,20.8-6.2,40.3-12,107.8-32.2,107.6-38.9-.3-8.7,4.6-13.7,7.2-15.1l.1-.1.7.1Z"/><path d="M293.5,337.3a.1.1,0,0,0,.1-.1Zm37.7-95.8.2-.1c.1-.1.2-.1.2-.2S331.4,241.4,331.2,241.5ZM201.8,337.7c0,.1.1.1.1.2v-.1A.1.1,0,0,0,201.8,337.7Z" fill="#aa5d2b"/><path d="M318.9,228.5v-.2c0-18.1-4.9-30.7-8.9-38.1-11.5-20.8-32.6-31.4-62.8-31.4-30.5,0-52.3,10.6-64.7,31.6-9.6,16.2-10.3,33.3-10.3,38.1a35.53,35.53,0,0,1-.9,8.2l1.8,1.6a10.29,10.29,0,0,1,8.7-8.2c9.6-1.2,24.6-.9,35.5-.8,3.2,0,5.9.1,8,.1,5.3,0,8.5.9,10.3,2.7,1.4,1.5,1.7,3.5,1.7,5.6h19.5c0-2.1.3-4.1,1.7-5.6,1.8-1.9,5-2.7,10.3-2.7,2.1,0,4.9,0,8-.1,11-.2,26-.4,35.5.8a9.64,9.64,0,0,1,7.2,4.6A42,42,0,0,1,318.9,228.5Zm-89.8-6.6a1.89,1.89,0,0,1-1.8,1.1,2.92,2.92,0,0,1-.9-.2c-8.3-4.2-26.2-9.8-34.9-.4a1.94,1.94,0,0,1-2.8.1,2,2,0,0,1-.1-2.8c10.3-11.1,30.4-5.1,39.6-.4A1.87,1.87,0,0,1,229.1,221.9Zm78.4-1.7a2,2,0,0,1-2.8.2c-7.1-6-23.5-3.1-32.8.4a1.7,1.7,0,0,1-.7.1,2.05,2.05,0,0,1-1.9-1.3,2.08,2.08,0,0,1,1.2-2.6c1-.4,25.6-9.3,36.8.4A2,2,0,0,1,307.5,220.2Z" fill="#aa5d2b"/><path d="M330.4,282.8c16.1-8.7,18-18.1,15.7-30.6-1.2-6.7-5.6-10.2-8.9-11.2-2.5-.7-4.8-.2-6.2,1.3-.1.2-.4.2-.6.1s-.3-.2-.3-.4l-5.7,3.3a.9.9,0,0,1-.5.1h-.1l-2.2,2.9v2.4c0,6.1-3.1,10.5-8.1,11.5-5.9,1.2-14.3,1.8-24.1,1.8-28.8,0-31.9-18.1-32.2-22.5H237.3c-.3,4.4-3.4,22.5-32.2,22.5-9.8,0-18.2-.6-24.1-1.8-5-1-8.1-5.4-8.1-11.5v-2l-3.7-4.2c-.1.1-.1.2-.2.3a1.06,1.06,0,0,1-.7.6,1,1,0,0,1-.9-.2l-5.8-4.8a10,10,0,0,0-6.4-.4c-2.1.6-5.7,2.5-6.8,8.3-2.8,15.4,2.7,26.9,16.4,34.3a.48.48,0,0,1,.2.6c-1.4,5.3.5,19.2,18,33.4a89.82,89.82,0,0,1,14.2,15,11.2,11.2,0,0,1-.6-2.3V295.2c.4-5.6,14.1-12.1,51.7-12.1h2.1c1.8-.9,3.4-2,3.9-3.4.3-1.1,0-2.4-1.1-4-4.5-6.3-6.2-17.5-6.5-22.4a1.17,1.17,0,0,1,.9-1.1,1.09,1.09,0,0,1,1.1.9c.3,4.8,1.9,15.4,6.2,21.4,1.5,2.1,1.9,4,1.4,5.7a6.07,6.07,0,0,1-2.1,2.9c33.2.6,45.2,6.8,45.2,12.1V327a35.92,35.92,0,0,1-1.1,4.1,90.07,90.07,0,0,1,13.9-14.6c17.5-14.2,19.5-28.1,18-33.4C330.1,283.2,330.2,282.9,330.4,282.8ZM166,267.6a.75.75,0,0,1-.5.1,1.07,1.07,0,0,1-.6-.2l-6.1-5.3a1,1,0,1,1,1.3-1.5l4,3.4a52.75,52.75,0,0,0-5.5-11.7,1,1,0,0,1,.3-1.4,1.08,1.08,0,0,1,1.4.3c2,3.3,5.9,10.6,6.3,15.3A1.33,1.33,0,0,1,166,267.6Zm163,1.7a.73.73,0,0,1-.6.2.9.9,0,0,1-.5-.1.88.88,0,0,1-.5-1c.4-4.7,4.3-12.1,6.3-15.3a1,1,0,0,1,1.7,1.1,57.63,57.63,0,0,0-5.5,11.7l4-3.4a1,1,0,0,1,1.3,1.5Z" fill="#aa5d2b"/><path d="M201.8,337.7c0,.1.1.1.1.2v-.1A.1.1,0,0,0,201.8,337.7Zm129.4-96.2.2-.1c.1-.1.2-.1.2-.2S331.4,241.4,331.2,241.5Zm-37.7,95.8a.1.1,0,0,0,.1-.1Z" fill="#aa5d2b"/><path d="M288.8,295.3c-6.7-6.4-38.3-5.4-39.6-5.4-4.2-.2-40.9-1.8-43.9,8v.3c0,11,2.3,29.1,10,37.9.1.2.3.3.4.5l.5.5a12.79,12.79,0,0,0,9.2,4c6.5,0,10-1.9,12.2-4.4.1-.2.3-.3.4-.5s.3-.3.4-.5a20.3,20.3,0,0,0,2.4-4.6c1.6-3.7,2.9-6.6,8.3-6.6,6.1,0,7.8,3.6,9.9,7.8.5,1,1,2,1.5,2.9.1.2.2.3.3.5s.2.3.3.5a10.23,10.23,0,0,0,9.3,4.9c3.5,0,6.5-2.1,9-5.3.1-.2.3-.3.4-.5a1.76,1.76,0,0,1,.4-.5c7.2-10.5,10-30.9,10-36.5A3.86,3.86,0,0,0,288.8,295.3Zm-11,39.5c-.1.2-.3.3-.4.5s-.3.3-.5.5c-1.9,2-4,3.3-6.3,3.3a8.21,8.21,0,0,1-6.9-3c-.1-.2-.3-.3-.4-.5s-.2-.3-.3-.5a19.45,19.45,0,0,1-2-3.8c-2-4.2-4.3-9-11.7-9-6.7,0-8.5,4-10.1,7.8a16.47,16.47,0,0,1-3.3,5.5l-.5.5a4.23,4.23,0,0,1-.7.5c-1.9,1.4-4.8,2.3-9.2,2.3a10.51,10.51,0,0,1-6.3-2c-.2-.2-.4-.3-.6-.5s-.4-.3-.6-.5c-8.2-7.3-10.6-26.4-10.6-37.6,2-5.5,23-7.4,41.9-6.5,15.5-.5,34,.8,38.2,4.8a2.24,2.24,0,0,1,.8,1.5C288.2,304.7,284.9,325.7,277.8,334.8Z" fill="#aa5d2b"/><path d="M331.2,241.5l.2-.1c.1-.1.2-.1.2-.2S331.4,241.4,331.2,241.5Z"/><path d="M322.2,237.2l-.8.7-.4.3a10,10,0,0,0-1.5-3.5,32.72,32.72,0,0,1-.7-6.2v-.2c0-18.1-4.9-30.7-8.9-38.1-11.5-20.8-32.6-31.4-62.8-31.4-30.5,0-52.3,10.6-64.7,31.6-9.6,16.2-10.3,33.3-10.3,38.1a35.53,35.53,0,0,1-.9,8.2l-.9-.8-.9-.8a35.53,35.53,0,0,0,.6-6.7c0-5,.8-22.6,10.6-39.2,12.8-21.6,35.1-32.6,66.4-32.6,31,0,52.7,10.9,64.5,32.4,4.2,7.6,9.2,20.6,9.2,39.1v.2A48.6,48.6,0,0,0,322.2,237.2Z"/><path d="M167.5,242.9l-2.6-2.1-.5-.4-.5-.4-3.3-2.7c-.2-.9-.4-1.9-.6-2.8l3.7,4.3.5.6.5.6Z" fill="#2d140f"/><path d="M330.4,236.9a6.15,6.15,0,0,1-.1,1.3c-.1.6-.2,1.2-.3,1.7l-3.4,2Z" fill="#2d140f"/><path d="M331.7,228.1c0,.4-.1.7-.1,1.1l-.4.4-.5.4-8.4,7.2a31.58,31.58,0,0,1-1.3-8.7v-.2c0-18.5-5-31.5-9.2-39.1-11.8-21.5-33.5-32.4-64.5-32.4-31.3,0-53.6,11-66.4,32.6-9.8,16.6-10.6,34.2-10.6,39.2a36.3,36.3,0,0,1-.6,6.7l-5.2-4.6-.5-.5-.5-.5-4.7-4.2c-3-25.5.2-58.1,18.2-80.3,14.8-18.3,37.3-27.5,67.1-27.5,29.5,0,52.1,9.3,67.3,27.5C330.2,168,334.4,201,331.7,228.1Z" fill="#2d140f"/><path d="M307.5,220.2a2,2,0,0,1-2.8.2c-7.1-6-23.5-3.1-32.8.4a1.7,1.7,0,0,1-.7.1,2.05,2.05,0,0,1-1.9-1.3,2.08,2.08,0,0,1,1.2-2.6c1-.4,25.6-9.3,36.8.4A2,2,0,0,1,307.5,220.2Z" fill="#2d140f"/><path d="M229.1,221.9a1.89,1.89,0,0,1-1.8,1.1,2.92,2.92,0,0,1-.9-.2c-8.3-4.2-26.2-9.8-34.9-.4a1.94,1.94,0,0,1-2.8.1,2,2,0,0,1-.1-2.8c10.3-11.1,30.4-5.1,39.6-.4A1.87,1.87,0,0,1,229.1,221.9Z" fill="#2d140f"/><path d="M234.3,233.6c-1.3-1.4-4.2-2.1-8.8-2.1-2.1,0-4.9,0-8.1-.1-4.3-.1-9.2-.2-14.1-.2a189.83,189.83,0,0,0-21.1.9c-5.4.7-7.4,5.6-7.4,10v8.7c0,5.2,2.4,8.8,6.5,9.6s11.4,1.8,23.7,1.8c27.1,0,30-16,30.2-21a4.87,4.87,0,0,1,.1-1.2C235.5,237.2,235.6,235.1,234.3,233.6Zm-14.7,21.2c-2.2,0-4-3-4.1-6.7s1.6-6.9,3.7-6.9,4,3,4.1,6.8S221.8,254.8,219.6,254.8Z" fill="#8e564b"/><path d="M312.2,232.2a189.83,189.83,0,0,0-21.1-.9c-5,0-9.9.1-14.1.2-3.2,0-5.9.1-8.1.1-4.6,0-7.5.7-8.8,2.1s-1.2,3.6-1,6.4a4.87,4.87,0,0,0,.1,1.2c.2,4.9,3.1,21,30.2,21,12.3,0,19.7-1,23.7-1.8s6.5-4.4,6.5-9.6v-8.7C319.5,237.8,317.6,232.8,312.2,232.2Zm-30.8,16.3c-.5,3.4-2.5,6-4.4,5.7s-3.1-3.3-2.6-6.7,2.5-5.9,4.4-5.7S281.9,245.1,281.4,248.5Z" fill="#8e564b"/><path d="M192.4,356.7a9329101592432.13,9329101592432.13,0,0,1-.2,1h.5a9329101592432.64,9329101592432.64,0,0,0,.2-1Z" fill="#d9d9d9"/><path d="M283.6,481.8c-.9,3.7-1.7,7.3-2.5,10.6l-18.9-54.5c3-2.7,8-11.4,7.4-26.6-.2-6.6-2.2-11.6-5.9-15a15.23,15.23,0,0,0-10.8-3.8c-3.6-.6-8.8,0-12.4,3.1q-4.2,3.6-4.2,10.5c0,12.3,5.4,26,8.4,31.6l-4.5,55.6c-4.2-10.9-9-23.3-13.9-36-7.8-20.1-16.1-41.4-22.5-58.9s-10.9-31.1-11.1-35.7a28.22,28.22,0,0,1,.2-5.2.9.9,0,0,1,.1-.5.9.9,0,0,1,.1-.5c.7-4,2.2-6.2,3.5-7.4a6.6,6.6,0,0,1,5-1.6v13l.2.1c11,10.1,35,29.1,47.2,29.1s35.2-19,45.6-29.1l.2-.1V347.6c4.4,1,7.2,5.3,8.5,8.9.1.2.1.3.2.5s.1.3.2.5a19.45,19.45,0,0,1,.5,2C308,379,293.9,438.4,283.6,481.8Z" fill="#d9d9d9"/><path d="M191.9,356.7a9329101592432.65,9329101592432.65,0,0,1-.2,1h1a9329101592432.64,9329101592432.64,0,0,0,.2-1Z"/><path d="M331.7,229.1l-.5.5-.5.4-8.4,7.2-.8.7-.4.3a10,10,0,0,0-1.5-3.5,9.92,9.92,0,0,0-7.2-4.6c-9.6-1.2-24.6-.9-35.5-.8-3.2,0-5.9.1-8,.1-5.3,0-8.5.9-10.3,2.7-1.4,1.5-1.7,3.5-1.7,5.6H237.4c0-2.1-.3-4.1-1.7-5.6-1.8-1.9-5-2.7-10.3-2.7-2.1,0-4.9,0-8-.1-11-.2-26-.4-35.5.8-4.4.5-7.5,3.6-8.7,8.2l-1.8-1.6-.9-.8-.9-.8-5.2-4.6-.5-.5-.5-.5-4.7-4.2-.5-.4,1,8.4.8.9,3.7,4.3.5.6.5.6,2.7,3,.8.9.7.8,3.7,4.2v2c0,6.1,3.1,10.5,8.1,11.5,5.9,1.2,14.3,1.8,24.1,1.8,28.8,0,31.9-18.1,32.2-22.5h19.9c.3,4.4,3.4,22.5,32.2,22.5,9.8,0,18.2-.6,24.1-1.8,5-1,8.1-5.4,8.1-11.5v-2.4l2.2-2.9,1.2-1.6,1.6-2.1,3.8-5,.2-.2.3-.4.1-.5.6-3.4.7-3.7Zm-96.4,11a4.87,4.87,0,0,1-.1,1.2c-.3,4.9-3.2,21-30.2,21-12.3,0-19.7-1-23.7-1.8s-6.5-4.4-6.5-9.6v-8.7c0-4.4,1.9-9.4,7.4-10a189.83,189.83,0,0,1,21.1-.9c5,0,9.9.1,14.1.2,3.2,0,5.9.1,8.1.1,4.6,0,7.5.7,8.8,2.1S235.5,237.2,235.3,240.1Zm84.2,10.8c0,5.2-2.4,8.8-6.5,9.6s-11.4,1.8-23.7,1.8c-27.1,0-30-16-30.2-21a4.87,4.87,0,0,0-.1-1.2c-.2-2.8-.3-5,1-6.4s4.2-2.1,8.8-2.1c2.1,0,4.9,0,8.1-.1,4.3-.1,9.2-.2,14.1-.2a189.83,189.83,0,0,1,21.1.9c5.4.7,7.4,5.6,7.4,10v8.7Z"/><path d="M293.5,341.4v18.9c-10.4,10-32.8,28.7-44.7,28.7s-35.4-18.7-46.4-28.7V342.6a29.44,29.44,0,0,0,3.1,4.1c.1.2.3.3.4.5s.3.3.4.5a49.55,49.55,0,0,0,10.5,9c.3.2.5.3.8.5a5.58,5.58,0,0,1,.8.5c7.6,4.4,17.4,7.4,29.8,7.4,12,0,21.5-3,28.9-7.4.3-.2.5-.3.8-.5s.5-.3.8-.5a50.22,50.22,0,0,0,10.5-9.3c.1-.2.3-.3.4-.5s.3-.3.4-.5A41,41,0,0,0,293.5,341.4Z" fill="#aa5d2b"/><path d="M293.5,337.3a.1.1,0,0,0,.1-.1Z" fill="#aa5d2b"/><path d="M201.8,337.7c0,.1.1.1.1.2v-.1A.1.1,0,0,0,201.8,337.7Zm91.7-.4a.1.1,0,0,0,.1-.1Z"/><path d="M287.5,514.2c-7.8,1-14.7,1.8-22,2.1h-.1c-1.8,0-3.6.1-5.4.1-2.3,0-4.6,0-6.8-.1h-.6c-4.1-.2-8.5-.5-13.3-1.1V515l.1-1.2,1.3-15.7.1-1.2.1-1.1,4.7-57.9v-.1l-.1-.1c-2.9-5.5-8.3-19.1-8.3-31.3,0-4.3,1.3-7.6,3.9-9.8,3.4-2.9,8.2-3.4,11.6-2.8h.1a14.29,14.29,0,0,1,10.1,3.5c3.5,3.1,5.4,7.9,5.6,14.3.6,15.2-4.6,23.6-7.3,26l-.3.2,19.6,56.6.3.9.3.9,5.8,16.7Z" fill="#f85750"/><path d="M201.8,337.7c0,.1.1.1.1.2v-.1A.1.1,0,0,0,201.8,337.7Zm91.7-.4a.1.1,0,0,0,.1-.1Z" fill="#2d140f"/><path d="M250.8,285.3h-4.2c-38.5.2-47.8,7.5-48,10.2v33.7a34.44,34.44,0,0,0,2.9,7.8,4.35,4.35,0,0,0,.4.7l.1.1v.1c.2.3.3.6.5.9l.9,1.5a27.14,27.14,0,0,0,2.4,3.5c.7,1,1.5,1.9,2.3,2.9a1.76,1.76,0,0,1,.4.5l.5.5a46.68,46.68,0,0,0,11.8,9.1,9.29,9.29,0,0,0,1,.5c.3.2.7.3,1,.5,6.8,3.3,15.2,5.4,25.5,5.4a54.37,54.37,0,0,0,24.7-5.4,9.29,9.29,0,0,1,1-.5c.3-.2.6-.3.9-.5a48.86,48.86,0,0,0,11.8-9.4,1.76,1.76,0,0,0,.4-.5c.1-.2.3-.3.4-.5a32.69,32.69,0,0,0,2.8-3.7c.7-1,1.4-2.1,2-3.1.4-.8.8-1.5,1.2-2.3v-.1l.1-.1a5.94,5.94,0,0,1,.4-.8c.2-.3.3-.7.5-1a31.9,31.9,0,0,0,2.7-8.3V295.5C297.3,292.9,288.7,285.6,250.8,285.3Zm29.5,49.4c-.1.2-.3.3-.4.5s-.3.3-.4.5c-2.5,3.2-5.4,5.3-9,5.3a10.23,10.23,0,0,1-9.3-4.9c-.1-.2-.2-.3-.3-.5s-.2-.3-.3-.5c-.6-1-1-2-1.5-2.9-2-4.2-3.8-7.8-9.9-7.8-5.4,0-6.7,2.9-8.3,6.6a33.77,33.77,0,0,1-2.4,4.6c-.1.2-.3.3-.4.5s-.3.3-.4.5c-2.2,2.5-5.7,4.4-12.2,4.4a12.62,12.62,0,0,1-9.2-4l-.5-.5a1.76,1.76,0,0,1-.4-.5c-7.7-8.7-10-26.9-10-37.9v-.3c3-9.8,39.7-8.2,43.9-8,1.3,0,33-1,39.6,5.4a4.19,4.19,0,0,1,1.4,2.9C290.2,303.8,287.5,324.2,280.3,334.7Z" fill="#2d140f"/><path d="M287.5,296.7c-4.2-4.1-22.8-5.4-38.2-4.8-19-1-39.9,1-41.9,6.5,0,11.3,2.4,30.3,10.6,37.6.2.2.4.3.6.5s.4.3.6.5a10.51,10.51,0,0,0,6.3,2c4.4,0,7.3-.9,9.2-2.3.2-.2.5-.3.7-.5s.4-.3.5-.5a20.63,20.63,0,0,0,3.3-5.5c1.7-3.9,3.4-7.8,10.1-7.8,7.3,0,9.6,4.8,11.7,9,.7,1.4,1.3,2.6,2,3.8.1.2.2.3.3.5s.3.3.4.5a8.48,8.48,0,0,0,13.2-.3l.5-.5c.1-.2.3-.3.4-.5,7.2-9.1,10.5-30,10.5-36.5A2.72,2.72,0,0,0,287.5,296.7ZM274.3,307c-10.1,6.2-21,7.5-30.5,6.6a59.75,59.75,0,0,1-22.1-6.6,1,1,0,0,1-.4-1.4,1.19,1.19,0,0,1,.9-.5.75.75,0,0,1,.5.1,58,58,0,0,0,21.2,6.3c9.2.9,19.5-.3,29.2-6.2a1.1,1.1,0,0,1,1.5.3,1.42,1.42,0,0,1,.2.6A.82.82,0,0,1,274.3,307Z" fill="#aa5d2b"/><path d="M281.4,248.5c-.5,3.4-2.5,6-4.4,5.7s-3.1-3.3-2.6-6.7,2.5-5.9,4.4-5.7S281.9,245.1,281.4,248.5Z"/><path d="M223.4,247.9c.1,3.8-1.6,6.9-3.7,6.9s-4-3-4.1-6.7,1.6-6.9,3.7-6.9S223.3,244.1,223.4,247.9Z"/><path d="M274.8,306.1a1.05,1.05,0,0,1-.5.9c-10.1,6.2-21,7.5-30.5,6.6a59.75,59.75,0,0,1-22.1-6.6,1,1,0,0,1-.4-1.4,1.19,1.19,0,0,1,.9-.5.75.75,0,0,1,.5.1,58,58,0,0,0,21.2,6.3c9.2.9,19.5-.3,29.2-6.2a1.1,1.1,0,0,1,1.5.3C274.8,305.7,274.8,305.9,274.8,306.1Z" fill-rule="evenodd"/><path d="M166.5,266.6a1.23,1.23,0,0,1-.5,1,.75.75,0,0,1-.5.1,1.07,1.07,0,0,1-.6-.2l-6.1-5.3a1,1,0,1,1,1.3-1.5l4,3.4a52.75,52.75,0,0,0-5.5-11.7,1,1,0,0,1,.3-1.4,1.08,1.08,0,0,1,1.4.3C162.3,254.5,166.2,261.9,166.5,266.6Z"/><path d="M335.1,264l-6.1,5.3a.73.73,0,0,1-.6.2.9.9,0,0,1-.5-.1.88.88,0,0,1-.5-1c.4-4.7,4.3-12.1,6.3-15.3a1,1,0,0,1,1.7,1.1,57.63,57.63,0,0,0-5.5,11.7l4-3.4a1,1,0,0,1,1.4.1A1.08,1.08,0,0,1,335.1,264Z" fill="#2d140f"/><path d="M347,252c-1.3-7.2-6-10.9-9.6-11.9a7.38,7.38,0,0,0-5.5.3c5.4-29.1,3.1-69.7-19.2-96.5-15.6-18.7-38.7-28.2-68.8-28.2-30.4,0-53.5,9.5-68.6,28.3-21.4,26.5-22.3,67.3-16.6,94.1,0,.2.2.4.3.6l.5.4a10.61,10.61,0,0,0-4.7.2c-2.3.7-6.3,2.7-7.5,9.1-2.9,15.7,2.7,27.6,16.6,35.2-1.3,5.8.9,19.8,18.4,34.1,6.6,5.4,11.3,11.4,15.9,17.2a46.83,46.83,0,0,0,3.2,6.3v5.7a7.16,7.16,0,0,0-5.7,1.8c-1.5,1.3-3.2,3.7-3.9,8.1h1c.7-4,2.2-6.2,3.5-7.4a6.6,6.6,0,0,1,5-1.6v13l.2.1c11,10.1,35,29.1,47.2,29.1s35.2-19,45.6-29.1l.2-.1V347.9c4.4,1,7.2,5.3,8.5,8.9h1c-1.4-3.9-4.4-9-9.5-10v-7.1a35.89,35.89,0,0,0,2.5-5.3c4.5-5.7,9.1-11.5,15.6-16.8,17.5-14.2,19.8-28.2,18.4-34.1C347.5,274.6,349.4,264.8,347,252ZM293.5,360.3c-10.4,10-32.8,28.7-44.7,28.7s-35.4-18.7-46.4-28.7V342.6a29.44,29.44,0,0,0,3.1,4.1c.1.2.3.3.4.5s.3.3.4.5a49.55,49.55,0,0,0,10.5,9c.3.2.5.3.8.5a5.58,5.58,0,0,1,.8.5c7.6,4.4,17.4,7.4,29.8,7.4,12,0,21.5-3,28.9-7.4.3-.2.5-.3.8-.5s.5-.3.8-.5a50.22,50.22,0,0,0,10.5-9.3c.1-.2.3-.3.4-.5s.3-.3.4-.5c1.3-1.7,2.5-3.4,3.5-5v18.9Zm3.8-33.3a44,44,0,0,1-2.7,8.3c-.2.3-.3.7-.5,1a5.94,5.94,0,0,1-.4.8c0,.1-.1.1-.1.2-.4.8-.8,1.5-1.2,2.3-.6,1-1.3,2.1-2,3.1-.9,1.2-1.8,2.5-2.8,3.7-.1.2-.3.3-.4.5s-.3.3-.4.5a43.3,43.3,0,0,1-11.8,9.4c-.3.2-.6.3-.9.5a9.29,9.29,0,0,1-1,.5,54.68,54.68,0,0,1-24.7,5.4c-10.3,0-18.7-2.1-25.5-5.4-.3-.2-.7-.3-1-.5a9.29,9.29,0,0,0-1-.5,44.51,44.51,0,0,1-11.8-9.1l-.5-.5c-.1-.2-.3-.3-.4-.5a32.53,32.53,0,0,1-2.3-2.9c-.9-1.2-1.7-2.4-2.4-3.5l-.9-1.5c-.2-.3-.3-.6-.5-.9,0-.1-.1-.1-.1-.2a4.35,4.35,0,0,0-.4-.7,34.44,34.44,0,0,1-2.9-7.8V295.5c.2-2.6,9.5-10,48-10.2h4.2c37.9.3,46.5,7.6,46.5,10.1V327Zm33.1-44.2a.48.48,0,0,0-.2.6c1.4,5.3-.5,19.2-18,33.4a86,86,0,0,0-13.9,14.6,42.44,42.44,0,0,0,1.1-4.1V295.5c0-5.3-12-11.5-45.2-12.1a6.58,6.58,0,0,0,2.1-2.9,6.44,6.44,0,0,0-1.4-5.7c-4.2-6-5.9-16.6-6.2-21.4a1,1,0,0,0-2,.2c.3,5,2,16.1,6.5,22.4,1.1,1.5,1.5,2.9,1.1,4-.5,1.5-2.1,2.6-3.9,3.4h-2.1c-37.6,0-51.4,6.5-51.7,12.1v34.1c.2.7.4,1.5.6,2.3a90.08,90.08,0,0,0-14.2-15c-17.5-14.2-19.4-28.1-18-33.4a.48.48,0,0,0-.2-.6c-13.7-7.4-19.2-18.9-16.4-34.3,1.1-5.9,4.7-7.7,6.8-8.3a9.94,9.94,0,0,1,6.4.4l5.8,4.8a1,1,0,0,0,.9.2,1.34,1.34,0,0,0,.7-.6c0-.1.1-.2.2-.3l-.7-.8-.8-.9-2.6-2.1-.5-.4-.5-.4-3.3-2.7c-.2-.9-.4-1.9-.6-2.8l-.8-.9-1-8.4.5.4c-3-25.5.2-58.1,18.2-80.3,14.8-18.3,37.3-27.5,67.1-27.5,29.5,0,52.1,9.3,67.3,27.5,19,22.8,23.1,55.9,20.5,82.9,0,.4-.1.7-.1,1.1l.1-.1.6-.5-.7,3.7-.6,3.4-.1.5-.3.4-.2.2a6.15,6.15,0,0,1-.1,1.3c-.1.6-.2,1.2-.3,1.7l-3.4,2-1.9,1.8-1.2,1.6h.1a.9.9,0,0,0,.5-.1l5.7-3.3c0,.2.1.3.3.4a.66.66,0,0,0,.6-.1c1.4-1.5,3.7-2,6.2-1.3,3.3,1,7.7,4.5,8.9,11.2C348.3,264.7,346.5,274.1,330.4,282.8Zm1.3-41.6-.2.2-.2.1C331.4,241.4,331.5,241.2,331.7,241.2Z"/></g></g></svg>