<svg xmlns="http://www.w3.org/2000/svg" viewBox="0 0 515.4 515"><title>Asset 13</title><g id="Layer_2" data-name="Layer 2"><g id="Слой_1" data-name="Слой 1"><path d="M515.4,257.7c0,90.9-47.1,170.4-118.3,216,1-.9,1.9-1.8,2.7-2.6a1,1,0,0,0,.1-1.3c-10.4-13.6-35-40.7-55.1-46.5.1-.1.1-.2.2-.3a1,1,0,0,0,.1-.9,1.06,1.06,0,0,0-.7-.6c-6.9-1.5-20.8-6.9-25.3-16.3a1,1,0,0,0-.3-1,124.28,124.28,0,0,0-13.5-11.9,34.13,34.13,0,0,0-7.7-4.4,8.72,8.72,0,0,0-6.7-.3h-.8v-16c18.8-9.6,31.2-26.8,38.5-42.6,13-3.3,15.4-15.8,14.9-23.3,6.3-3.6,12.6-9.9,12.6-19.6a18.27,18.27,0,0,0-7.7-15.2c11.8-12.9,5.3-31.9.1-40.4-1.6-45.4-34.8-71.3-53.4-79.3,3.4-3.6,14-15.3,12.5-21.3-1.2-4.8-5.4-6.1-8.5-6.1.4-3.5-2.2-10.8-7.5-20.8-8.1-15.3-23.4-13.9-31.3-10.7-1.5-3.6-8.2-8.4-26.3-8.4-7.6,0-13.7,2.3-18,6.9-4.9,5.2-6.5,12.4-6.4,17.8-6.3.5-17.3,5.3-20.4,21.2a19.24,19.24,0,0,0,2.9,15.1c3.8,5.5,10.3,8.9,15.7,10.5-39,20.8-46.4,55.8-44.8,72.3-3.7,3.4-10,12-10,22.5s6.3,20.6,10,25a26.83,26.83,0,0,0-2,10.9c0,9.8,4,15.8,8.8,19.1-1.1,15.8,12.2,24.9,19.9,27.7,7.4,14.7,19.2,29.9,36.4,38.6v16c-6.3-.8-18.1,3-21,17.2v.5a77.37,77.37,0,0,1-29.3,16.3,1.06,1.06,0,0,0-.7.6,1,1,0,0,0,.1.9c.1.1.1.2.2.3-14.7,4.5-44.8,19.5-59.3,46.6a1.09,1.09,0,0,0,.3,1.3c20.3,16,70.5,37.8,126.6,42.8C107.4,506.6,0,395.2,0,257.7.1,115.4,115.5,0,257.8,0S515.4,115.4,515.4,257.7Z" fill="#f2f2f2"/><path d="M259.9,475h0Zm-4.7-150.7a77.93,77.93,0,0,0,11.8-.2A93.58,93.58,0,0,1,255.2,324.3Z" fill="#f2f2f2"/><path d="M288.1,372.5v17.2A85.66,85.66,0,0,1,273.4,404a17,17,0,0,0-1.4,1c-.5.3-1,.7-1.5,1-3.7,2.3-7.7,3.9-11.5,4h.1c3.8-.1,7.8-1.7,11.5-4,.5-.3,1-.7,1.5-1a17,17,0,0,0,1.4-1,82,82,0,0,0,14.7-14.3V372.4A.1.1,0,0,1,288.1,372.5Zm-59.9,0a64.74,64.74,0,0,0,20.7,6A70.27,70.27,0,0,1,228.2,372.5Z"/><path d="M397.8,470.2c-4.2,4.3-10.6,9.2-18.9,14.1-16.5,9.8-40.4,19.6-69.4,24.9h-.1a243.1,243.1,0,0,1-43,3.8c-64,0-124.6-25-148-43,14.5-26.4,44.3-40.9,58.3-45,13.3,18.1,45.5,48.8,83.1,50h2.1c38.6,0,69.4-31.6,81.6-50h.1C363.1,430.3,387.2,456.5,397.8,470.2Z" fill="#00697a"/><path d="M342.3,423c-7.2-1.9-19.4-7.1-24.4-15.8a46.56,46.56,0,0,1-6.3,7.1c-2.9,2.8-6.4,5.7-10.2,8.8a14.7,14.7,0,0,1-1.3,1,14.7,14.7,0,0,0-1.3,1l-.2.2c-9.7,7.5-20.6,15-27.7,19.7a1.08,1.08,0,0,1-1.1,0,1.23,1.23,0,0,1-.5-1c.9-6.4-.7-13-3-18.7,0-.1,0-.1-.1-.2-.1-.3-.3-.7-.4-1s-.3-.7-.4-1l-.2-.4-.3-.7-.2-.4c-1.4-3-3.6-7.7-3.7-7.9V473h.9c37,0,66.7-29.8,79.2-48,.2-.3.5-.7.7-1l.6-.9C342.4,423,342.4,423,342.3,423Zm-73.7,44a5,5,0,1,1,4.5-5A4.74,4.74,0,0,1,268.6,467Z" fill="#f2f2f2"/><path d="M259.1,414v59c-35.7-1.5-66.4-30.2-79.9-47.9-.3-.3-.5-.7-.8-1a6.07,6.07,0,0,1-.7-1A79.09,79.09,0,0,0,206.3,407a131.13,131.13,0,0,0,15.5,16.2,11,11,0,0,1,1.1,1,12.7,12.7,0,0,0,1.2,1A188.92,188.92,0,0,0,252,445.1a.9.9,0,0,0,1.1-.1,1,1,0,0,0,.4-1,42.16,42.16,0,0,1-.5-14.3,35.83,35.83,0,0,1,.9-4.5c.1-.3.2-.7.3-1s.2-.7.3-1A27.43,27.43,0,0,1,259.1,414Z" fill="#f2f2f2"/><path d="M258.1,412a30.51,30.51,0,0,0-5.7,11c-.1.3-.2.7-.3,1s-.2.7-.3,1a31,31,0,0,0-.8,4.2,44.89,44.89,0,0,0,.1,12.8,192.92,192.92,0,0,1-23.9-17c-.4-.3-.8-.7-1.2-1s-.8-.7-1.2-1a139.52,139.52,0,0,1-16.7-17c-.3-.3-.5-.7-.8-1-.1-.1-.2-.3-.3-.4s.1-.4.1-.6c3-12.4,13.6-15.3,18.8-14.5v.6a1.07,1.07,0,0,0,.2.6A87.48,87.48,0,0,0,239.6,404l1.3,1c.5.3.9.7,1.4,1C247.4,409.3,252.8,411.8,258.1,412Z" fill="#f2f2f2"/><path d="M316.9,405a8.79,8.79,0,0,0-.6,1,47.82,47.82,0,0,1-6.1,6.8A136.87,136.87,0,0,1,298.1,423c-.3.2-.5.4-.8.6a2.18,2.18,0,0,0-.5.4l-1.3,1c-8.4,6.4-17.4,12.7-24,17a39.92,39.92,0,0,0-3.1-17,1.42,1.42,0,0,1-.2-.6c-.1-.2-.1-.3-.2-.4l-1.7-3.6c-.1-.3-3-6.9-4.1-8.8,4.1-.8,8.1-3,11.8-5.6.5-.3.9-.7,1.4-1l1.3-1a80.76,80.76,0,0,0,13.1-13.3,1.42,1.42,0,0,0,.2-.6v-.5h1.1a.9.9,0,0,0,.5-.1c1.2-.6,3-.5,5.3.3a35.36,35.36,0,0,1,7.3,4.2,112.29,112.29,0,0,1,11.7,10.1C316.2,404.3,316.5,404.7,316.9,405Z" fill="#f2f2f2"/><path d="M288.2,372.5v17.3a85.66,85.66,0,0,1-14.7,14.3,17,17,0,0,0-1.4,1c-.5.3-1,.7-1.5,1-3.7,2.3-7.7,3.9-11.5,4h-1.9a26.25,26.25,0,0,1-10.7-3.9c-.5-.3-1.1-.7-1.6-1s-1-.7-1.5-1a84,84,0,0,1-15.2-14.3V372.6a70.27,70.27,0,0,0,20.7,6l3.3.3c.6,0,1.2.1,1.8.1,1.4.1,2.8.1,4.2.1s2.7,0,4.1-.1c.6,0,1.2-.1,1.8-.1l3.3-.3a67.32,67.32,0,0,0,20.7-5.9C288.1,372.5,288.2,372.5,288.2,372.5Z" fill="#ffc1a8"/><path d="M188.4,330.1c-7-3.2-16.9-11-16.6-23.8a22.52,22.52,0,0,0,9.3,2.7A98.52,98.52,0,0,0,188.4,330.1Z" fill="#9a705e"/><path d="M329.7,326.5a92.94,92.94,0,0,0,5.8-17.7,41.78,41.78,0,0,0,6.1-2.2C341.8,313.2,339.5,323.2,329.7,326.5Z" fill="#9a705e"/><path d="M267,324.2a77.72,77.72,0,0,1-11.8.2C259.1,324.5,262.9,324.4,267,324.2Z" fill="#9a705e"/><path d="M346.7,231.3c-.1-.1-.1-.3-.2-.5-1.5-45.7-35.6-71.2-53.5-78.3-.1,0-.1-.1-.2-.1a.37.37,0,0,1-.3.1c-8.7.4-17.5,1-26,1.7-14.2,1-28.7,2.1-43.3,2.1-3.8,0-7.6-.1-11.5-.2a.37.37,0,0,1-.3-.1.35.35,0,0,1-.2.1c-40.5,20.3-47.9,56-46.1,72a1.61,1.61,0,0,1-.3.9c-3.4,2.9-9.7,11.1-9.7,21.3,0,9.4,5.5,18.6,9,23a16,16,0,0,1,3.6-4.3,14.81,14.81,0,0,1,10.6-3.4c4.9-4.8,12.1-17.6,13.6-32.1,1.6-15.2,21.6-31.7,31.9-38.3a1,1,0,0,1,1.4.3c29.8,44,60.2,51.5,73.9,49.2-4.4-4.3-5.4-9.1-5.3-11.1a.84.84,0,0,1,.4-.7.78.78,0,0,1,.8-.2c25.3,5.9,37.3,23.8,40.4,33.1a28.57,28.57,0,0,1,11.3,4C358.2,257.5,351.7,239.2,346.7,231.3ZM212.6,195c-12,5.3-35.7,24.1-39.5,57.5a1,1,0,0,1-1,.9H172c-.5-.1-1-.6-.9-1.1,3.9-34.4,28.3-53.7,40.7-59.1a1,1,0,1,1,.8,1.8Zm12.2-2.8c-.1,0-.2.1-.3.1a1,1,0,0,1-.9-.6c-3.4-9.1-1.5-25,0-32.1a1,1,0,1,1,2,.4c-1.4,6.9-3.3,22.3,0,31A1.41,1.41,0,0,1,224.8,192.2Zm66.6,46.1a1,1,0,0,1-.9.6.76.76,0,0,1-.4-.1c-25.1-9.8-46-41.7-53.6-57.2a1,1,0,0,1,.5-1.3.92.92,0,0,1,1.3.5c7.4,15.3,28,46.6,52.5,56.2A1,1,0,0,1,291.4,238.3Zm-14.8-75.4a1,1,0,1,1,.4-2c17.1,3.9,51.7,18.4,60.2,44.8a1,1,0,0,1-.6,1.3h-.3a1,1,0,0,1-.9-.7C327.1,180.8,293.3,166.7,276.6,162.9ZM344.2,257a1.09,1.09,0,0,1-1.1-.9c-2-24.8-22.8-43-33.4-49.2a1.11,1.11,0,0,1-.4-1.4,1,1,0,0,1,1.4-.4c11,6.3,32.4,25.1,34.4,50.7C345.1,256.5,344.7,257,344.2,257ZM305.7,130.4c-1.1-4.4-5.7-4.8-7.9-4.5a1,1,0,0,1-1.1-.7.88.88,0,0,1,.5-1.2,3.55,3.55,0,0,0,.1-1c0-1.9-.9-7-7.3-19.1-7.9-14.7-22.9-12.5-29.8-9.3a1.39,1.39,0,0,1-.9,0,1,1,0,0,1-.5-.8c-.2-2.2-4.9-7.8-24.6-7.8q-10.65,0-16.5,6.3c-4.8,5.1-6.1,12.3-5.8,17.3a1.14,1.14,0,0,1-.3.8,1.08,1.08,0,0,1-.7.3c-5.4,0-16.5,4.1-19.4,19.6a17.65,17.65,0,0,0,2.5,13.6c4.1,6,11.8,9.3,17.1,10.3h.2c.1-.1.2-.1.4-.2,23.2-6.3,59.6-9.7,81.2-3.5a.35.35,0,0,1,.2.1C298.5,144.9,306.8,134.6,305.7,130.4Zm-76.1,14.8a1,1,0,0,1-1,.7h-.3c-9.6-3.2-15.4-17.3-17.1-24.2a1,1,0,0,1,1.9-.5c1.6,6.6,7,19.9,15.8,22.8A.86.86,0,0,1,229.6,145.2Zm63.9-15c-6.1,10-19,14.6-24.9,15.6h-.2a1.05,1.05,0,0,1-.9-.5,1.09,1.09,0,0,1,.2-1.2c10.8-11.5,12.1-26.6,11.4-33a1,1,0,0,1,.9-1.1.94.94,0,0,1,1.1.9c.8,6.3-.5,20.7-9.9,32.3,6.2-1.7,15.8-6,20.6-14a1,1,0,0,1,1.4-.3A.86.86,0,0,1,293.5,130.2Z" fill="#9a705e"/><path d="M347.1,272.3c-.3-.2-.5-.4-.8-.6a4.05,4.05,0,0,0-.9-.5,26.28,26.28,0,0,0-10.9-3.6,1,1,0,0,1-.9-.7c-2.6-8.5-13.8-25.9-37.9-32,.3,2.3,1.8,6.2,6,9.6a.91.91,0,0,1,.3,1c0,.1,0,.1-.1.2.9.2,1.8.4,2.6.6,4.4,1.4,7.1,4.6,9.3,6.2a1.15,1.15,0,0,1-1.3,1.9,39.46,39.46,0,0,0-9.7-4.8,23.16,23.16,0,0,0-13-.9,1.1,1.1,0,0,1-1.4-.8,1.31,1.31,0,0,1,.3-1.2c-16.1-2.2-40.8-14.1-64.8-49.2-10.3,6.7-28.7,22.2-30.2,36.3-1.7,16.2-9.8,29.2-14.6,33.7a1.4,1.4,0,0,1-.9.3,6.62,6.62,0,0,0-1.5-.1,13.37,13.37,0,0,0-8.1,3,13.91,13.91,0,0,0-3.5,4.4,9.29,9.29,0,0,0-.5,1,3.58,3.58,0,0,0-.4,1.1,25.72,25.72,0,0,0-1.5,9.2c0,8.3,3.1,13.6,7,16.8a5.5,5.5,0,0,0,.9.7l.9.6a18.73,18.73,0,0,0,9.9,2.9,1,1,0,0,1,1,.8,98.09,98.09,0,0,0,8.2,23.1c.2.3.3.7.5,1s.3.7.5,1c7.1,13.8,18.2,27.8,34.1,36.3a4.67,4.67,0,0,0,1,.5c.3.2.7.3,1,.5a70,70,0,0,0,60,.1c.3-.2.7-.3,1-.5s.7-.3,1-.5c17.4-9.2,29.1-25.2,36.2-40.1.2-.3.3-.7.5-1a9.29,9.29,0,0,1,.5-1,95.21,95.21,0,0,0,6.5-19.3,1.09,1.09,0,0,1,.8-.8,27.17,27.17,0,0,0,6.9-2.6c.3-.2.6-.3.9-.5s.6-.3.9-.5c5.6-3.4,10.9-9,10.9-17.5A15.79,15.79,0,0,0,347.1,272.3Zm-91.6,36.2a1.06,1.06,0,0,1,1.3-.5,10.44,10.44,0,0,0,4,1c2.2,0,8.3-1.1,9.4-3.5.5-1.1-.1-2.5-1.7-4.2-5.9-6.3-8.3-17.3-8.7-22.2a1.17,1.17,0,0,1,.9-1.1,1.09,1.09,0,0,1,1.1.9c.4,4.7,2.6,15.1,8.1,21,2.2,2.3,2.9,4.5,2.1,6.4-1.9,4.4-11.1,4.7-11.2,4.7a12.9,12.9,0,0,1-4.9-1.2A1.13,1.13,0,0,1,255.5,308.5Zm-48.3-53.9a1.15,1.15,0,0,1-1.7,0,1.35,1.35,0,0,1,0-1.7c3.6-3.5,7.3-6.4,11.9-7.4s9.9.1,12.5.3a1.16,1.16,0,1,1-.3,2.3,39.5,39.5,0,0,0-10.8.7C214.7,249.8,210.3,251.5,207.2,254.6Zm21.1,31.8c-3-.4-4.9-5.1-4.1-10.4s3.8-9.2,6.8-8.8,4.9,5.1,4.1,10.4S231.3,286.8,228.3,286.4Zm53.9,42c-.2.3-.3.7-.5,1s-.3.7-.5,1c-3.1,5.4-9.2,10.6-19.9,11.5a19.27,19.27,0,0,1-2.4.1,24.56,24.56,0,0,1-16.9-6.5,23.81,23.81,0,0,1-3.4-3.8c-.2-.3-.5-.7-.7-1s-.4-.7-.6-1a17.45,17.45,0,0,1-2.6-8.4,1.14,1.14,0,0,1,.3-.8.78.78,0,0,1,.8-.2c18.2,2.8,28.3,2.8,47,0a.83.83,0,0,1,.8.3,1.14,1.14,0,0,1,.3.8A17.3,17.3,0,0,1,282.2,328.4Zm9.5-41.4c-3,.3-6-3.7-6.6-9s1.3-9.9,4.4-10.3,6,3.7,6.6,9S294.8,286.6,291.7,287Z" fill="#ffc1a8"/><path d="M255.2,324.3a77.93,77.93,0,0,0,11.8-.2A93.58,93.58,0,0,1,255.2,324.3Z" fill="#ffc1a8"/><path d="M268.6,467a5,5,0,1,0-4.5-5A4.74,4.74,0,0,0,268.6,467Z"/><path d="M345.1,255.9a1.17,1.17,0,0,1-.9,1.1h-.1a1.06,1.06,0,0,1-1-.9c-2-24.8-22.8-43-33.4-49.2a1.11,1.11,0,0,1-.4-1.4,1,1,0,0,1,1.4-.4C321.7,211.5,343,230.3,345.1,255.9Z"/><path d="M224.8,192.2c-.1,0-.2.1-.3.1a1,1,0,0,1-.9-.6c-3.4-9.1-1.5-25,0-32.1a1,1,0,1,1,2,.4c-1.4,6.9-3.3,22.3,0,31A1.41,1.41,0,0,1,224.8,192.2Z"/><path d="M291.4,238.3a1,1,0,0,1-.9.6.76.76,0,0,1-.4-.1c-25.1-9.8-46-41.7-53.6-57.2a1,1,0,0,1,.5-1.3.92.92,0,0,1,1.3.5c7.4,15.3,28,46.6,52.5,56.2A1,1,0,0,1,291.4,238.3Z"/><path d="M336.7,207h-.3a1,1,0,0,1-.9-.7c-8.3-25.6-42.1-39.6-58.8-43.5a1,1,0,1,1,.4-2c17.1,3.9,51.7,18.4,60.2,44.8A1.07,1.07,0,0,1,336.7,207Z"/><path d="M293.5,130.2c-6.1,10-19,14.6-24.9,15.6h-.2a1.05,1.05,0,0,1-.9-.5,1.09,1.09,0,0,1,.2-1.2c10.8-11.5,12.1-26.6,11.4-33a1,1,0,0,1,.9-1.1.94.94,0,0,1,1.1.9c.8,6.3-.5,20.7-9.9,32.3,6.2-1.7,15.8-6,20.6-14a1,1,0,0,1,1.4-.3A.86.86,0,0,1,293.5,130.2Z"/><path d="M229.6,145.2a1,1,0,0,1-1,.7h-.3c-9.6-3.2-15.4-17.3-17.1-24.2a1,1,0,0,1,1.9-.5c1.6,6.6,7,19.9,15.8,22.8A.86.86,0,0,1,229.6,145.2Z"/><path d="M212.6,195c-12,5.3-35.7,24.1-39.5,57.5a1,1,0,0,1-1,.9H172c-.5-.1-1-.6-.9-1.1,3.9-34.4,28.3-53.7,40.7-59.1a1,1,0,1,1,.8,1.8Z"/><path d="M255.2,324.3a77.93,77.93,0,0,0,11.8-.2A93.58,93.58,0,0,1,255.2,324.3Z" fill="#ae5646"/><path d="M283.6,320.5a1.14,1.14,0,0,0-.8-.3c-18.8,2.8-28.8,2.8-47,0a1.08,1.08,0,0,0-.8.2,1.14,1.14,0,0,0-.3.8,17.45,17.45,0,0,0,2.6,8.4c.2.3.4.7.6,1a6.07,6.07,0,0,0,.7,1,23.81,23.81,0,0,0,3.4,3.8,24.11,24.11,0,0,0,16.9,6.5,19.27,19.27,0,0,0,2.4-.1c10.7-.9,16.8-6.1,19.9-11.5a4.67,4.67,0,0,0,.5-1c.2-.3.3-.7.5-1a19.49,19.49,0,0,0,1.8-7.1C284,321,283.9,320.8,283.6,320.5Zm-3.7,8a4.67,4.67,0,0,0-.5,1c-.2.3-.4.7-.6,1-3,4.5-8.5,8.7-17.6,9.4a22.73,22.73,0,0,1-17.8-5.9,17.94,17.94,0,0,1-2.3-2.5,6.07,6.07,0,0,1-.7-1c-.2-.3-.5-.7-.7-1a17.76,17.76,0,0,1-2.9-7.1l1.9.3a150.71,150.71,0,0,0,16.4,1.6h.2a117.13,117.13,0,0,0,11.8-.2c4-.3,8.2-.7,12.9-1.4l1.9-.3A21.62,21.62,0,0,1,279.9,328.5Z"/><path d="M281.9,322.5a17.27,17.27,0,0,1-1.9,6,4.67,4.67,0,0,0-.5,1c-.2.3-.4.7-.6,1-3,4.5-8.5,8.7-17.6,9.4a22.73,22.73,0,0,1-17.8-5.9,17.94,17.94,0,0,1-2.3-2.5,6.07,6.07,0,0,1-.7-1c-.2-.3-.5-.7-.7-1a17.76,17.76,0,0,1-2.9-7.1l1.9.3c0,1.8,1.1,3.6,4.6,5.5a15.08,15.08,0,0,0,3.7,1.1,58,58,0,0,0,6.8.8h.1a96.72,96.72,0,0,0,18.2-.5,16.49,16.49,0,0,0,4.1-1.1,1.38,1.38,0,0,0,.4-.3c1.8-1.6,3.2-3.7,3.4-5.5A14.05,14.05,0,0,0,281.9,322.5Z" fill="#ae5646"/><path d="M280,322.8a10.19,10.19,0,0,1-3.4,5.5c-.1.1-.3.2-.4.3a13,13,0,0,1-4.1,1.1,96.72,96.72,0,0,1-18.2.5h-.1a55.48,55.48,0,0,1-6.8-.8,15.08,15.08,0,0,1-3.7-1.1c-3.5-1.9-4.6-3.7-4.6-5.5a150.71,150.71,0,0,0,16.4,1.6h.2a77.93,77.93,0,0,0,11.8-.2C271,323.9,275.2,323.4,280,322.8Z" fill="#f2f2f2"/><path d="M291.7,287c-3,.3-6-3.7-6.6-9s1.3-9.9,4.4-10.3,6,3.7,6.6,9S294.8,286.6,291.7,287Z"/><path d="M235.1,277.5c-.8,5.3-3.8,9.3-6.8,8.8s-4.9-5.1-4.1-10.4,3.8-9.2,6.8-8.8S235.9,272.2,235.1,277.5Z"/><path d="M231,247.2a1.15,1.15,0,0,1-1.3,1,39.5,39.5,0,0,0-10.8.7c-4.3.9-8.6,2.6-11.7,5.7a1.15,1.15,0,0,1-1.7,0,1.35,1.35,0,0,1,0-1.7c3.6-3.5,7.3-6.4,11.9-7.4s9.9.1,12.5.3A1.24,1.24,0,0,1,231,247.2Z" fill-rule="evenodd"/><path d="M272.1,306.3c-1.9,4.4-11.1,4.7-11.2,4.7a12.9,12.9,0,0,1-4.9-1.2,1,1,0,0,1-.5-1.3,1.06,1.06,0,0,1,1.3-.5,10.44,10.44,0,0,0,4,1c2.2,0,8.3-1.1,9.4-3.5.5-1.1-.1-2.5-1.7-4.2-5.9-6.3-8.3-17.3-8.7-22.2a1.17,1.17,0,0,1,.9-1.1,1.09,1.09,0,0,1,1.1.9c.4,4.7,2.6,15.1,8.1,21C272.2,302.3,272.9,304.4,272.1,306.3Z"/><path d="M285.2,150.8c-6.3.4-12.7.8-18.8,1.3-15.4,1.1-31.3,2.3-47.2,2.1C239.4,149.7,266.1,147.4,285.2,150.8Z" fill="#00697a"/><path d="M399.9,469.7c-10.4-13.6-35-40.7-55.1-46.5.1-.1.1-.2.2-.3a1,1,0,0,0,.1-.9,1.06,1.06,0,0,0-.7-.6c-6.9-1.5-20.8-6.9-25.3-16.3a1,1,0,0,0-.3-1,124.28,124.28,0,0,0-13.5-11.9,34.13,34.13,0,0,0-7.7-4.4,8.72,8.72,0,0,0-6.7-.3h-.8v-16c18.8-9.6,31.2-26.8,38.5-42.6,13-3.3,15.4-15.8,14.9-23.3,6.3-3.6,12.6-9.9,12.6-19.6a18.27,18.27,0,0,0-7.7-15.2c11.8-12.9,5.3-31.9.1-40.4-1.6-45.4-34.8-71.3-53.4-79.3,3.4-3.6,14-15.3,12.5-21.3-1.2-4.8-5.4-6.1-8.5-6.1.4-3.5-2.2-10.8-7.5-20.8-8.1-15.3-23.4-13.9-31.3-10.7-1.5-3.6-8.2-8.4-26.3-8.4-7.6,0-13.7,2.3-18,6.9-4.9,5.2-6.5,12.4-6.4,17.8-6.3.5-17.3,5.3-20.4,21.2a19.24,19.24,0,0,0,2.9,15.1c3.8,5.5,10.3,8.9,15.7,10.5-39,20.8-46.4,55.8-44.8,72.3-3.7,3.4-10,12-10,22.5s6.3,20.6,10,25a26.83,26.83,0,0,0-2,10.9c0,9.8,4,15.8,8.8,19.1-1.1,15.8,12.2,24.9,19.9,27.7,7.4,14.7,19.2,29.9,36.4,38.6v16c-6.3-.8-18.1,3-21,17.2v.5a77.37,77.37,0,0,1-29.3,16.3,1.06,1.06,0,0,0-.7.6,1,1,0,0,0,.1.9c.1.1.1.2.2.3-14.7,4.5-44.8,19.5-59.3,46.6a1.09,1.09,0,0,0,.3,1.3c20.3,16,70.5,37.8,126.6,42.8,7.7.7,15.4,1.1,23.3,1.1,63.3,0,112.1-24.4,130.8-41.4,1-.9,1.9-1.8,2.7-2.6A.94.94,0,0,0,399.9,469.7ZM342.3,423c.1,0,.2,0,.2.1l-.6.9a6.07,6.07,0,0,1-.7,1c-12.4,18.2-42.2,48-79.2,48h-.9V413.6c.1.2,2.3,4.9,3.7,7.9l.2.4.3.7.2.4c.1.3.3.7.4,1a4.18,4.18,0,0,1,.4,1c0,.1.1.1.1.2,2.3,5.7,3.9,12.3,3,18.7a.88.88,0,0,0,.5,1,1.08,1.08,0,0,0,1.1,0c7.1-4.6,18-12.2,27.7-19.7l.2-.2,1.3-1a14.7,14.7,0,0,1,1.3-1c3.8-3,7.3-6,10.2-8.8a46.56,46.56,0,0,0,6.3-7.1C322.9,415.9,335,421.1,342.3,423Zm-83.2-13h-1.9a25.74,25.74,0,0,1-10.8-3.9c-.5-.3-1.1-.7-1.6-1s-1-.7-1.5-1a84,84,0,0,1-15.2-14.3V372.5h.1a65.78,65.78,0,0,0,19.3,5.8c.5.1,1,.1,1.4.2l3.3.3c.6,0,1.2.1,1.8.1,1.4.1,2.8.1,4.2.1s2.7,0,4.1-.1c.6,0,1.2-.1,1.8-.1l3.3-.3c.5-.1,1-.1,1.4-.2a66.7,66.7,0,0,0,19.3-5.8v.1a.1.1,0,0,0,.1-.1v17.3a85.66,85.66,0,0,1-14.7,14.3,17,17,0,0,0-1.4,1c-.5.3-1,.7-1.5,1C266.8,408.3,262.9,409.9,259.1,410Zm32.1-20.5a.9.9,0,0,0,.5-.1c1.2-.6,3-.5,5.3.3a35.36,35.36,0,0,1,7.3,4.2A112.29,112.29,0,0,1,316,404a9.43,9.43,0,0,1,1,1h.1a8.79,8.79,0,0,0-.6,1,47.82,47.82,0,0,1-6.1,6.8A136.87,136.87,0,0,1,298.3,423c-.3.2-.5.4-.8.6a2.18,2.18,0,0,0-.5.4l-1.3,1c-8.4,6.4-17.4,12.7-24,17a39.92,39.92,0,0,0-3.1-17,1.42,1.42,0,0,1-.2-.6c-.1-.2-.1-.3-.2-.4l-1.7-3.6c-.1-.3-3-6.9-4.1-8.8,4.1-.8,8.1-3,11.8-5.6.5-.3.9-.7,1.4-1l1.3-1A80.76,80.76,0,0,0,290,390.7a1.42,1.42,0,0,0,.2-.6v-.5h1Zm38.5-63a92.94,92.94,0,0,0,5.8-17.7,41.78,41.78,0,0,0,6.1-2.2C341.8,313.2,339.5,323.2,329.7,326.5ZM193.9,143.9a17.57,17.57,0,0,1-2.5-13.6c2.9-15.5,14-19.6,19.4-19.6a.91.91,0,0,0,.7-.3,1.14,1.14,0,0,0,.3-.8c-.3-5,1-12.2,5.8-17.3,3.9-4.2,9.5-6.3,16.5-6.3,19.7,0,24.4,5.7,24.6,7.8a1,1,0,0,0,.5.8.75.75,0,0,0,.9,0c6.9-3.2,22-5.4,29.8,9.3,6.4,12.1,7.3,17.2,7.3,19.1a3.55,3.55,0,0,1-.1,1,1.15,1.15,0,0,0-.5,1.2,1.08,1.08,0,0,0,1.1.7c2.3-.4,6.8,0,7.9,4.5,1.1,4.3-7.2,14.6-12.8,20.2a.35.35,0,0,1-.2-.1c-21.6-6.2-58-2.8-81.2,3.5a.76.76,0,0,0-.4.2h-.2C205.6,153.1,198,149.8,193.9,143.9Zm91.3,6.9c-6.3.4-12.7.8-18.8,1.3-15.4,1.1-31.3,2.3-47.2,2.1C239.4,149.7,266.1,147.4,285.2,150.8ZM155.1,250.2c0-10.2,6.3-18.4,9.7-21.3a.76.76,0,0,0,.3-.9c-1.8-16,5.6-51.7,46.1-72,.1,0,.1-.1.2-.1s.2.1.3.1c3.8.2,7.6.2,11.5.2,14.6,0,29.1-1.1,43.3-2.1,8.5-.6,17.3-1.3,26-1.7a.37.37,0,0,0,.3-.1c.1.1.1.1.2.1,17.8,7.1,52,32.6,53.5,78.3,0,.2.1.3.2.5,5,8,11.5,26.3.1,38.4a28.57,28.57,0,0,0-11.3-4c-3.1-9.3-15.2-27.2-40.4-33.1a.78.78,0,0,0-.8.2,1,1,0,0,0-.4.7c-.1,2.1.9,6.8,5.3,11.1-13.7,2.3-44.1-5.2-73.9-49.2a1,1,0,0,0-1.4-.3c-10.3,6.6-30.3,23.1-31.9,38.3-1.5,14.4-8.7,27.2-13.6,32.1a14.25,14.25,0,0,0-10.6,3.4,16,16,0,0,0-3.6,4.3C160.6,268.8,155.1,259.7,155.1,250.2Zm16.7,56.2a22.52,22.52,0,0,0,9.3,2.7,99.34,99.34,0,0,0,7.4,21.1C181.4,327,171.5,319.1,171.8,306.4ZM192,333c-.2-.3-.3-.7-.5-1a9.29,9.29,0,0,1-.5-1,104.57,104.57,0,0,1-8.2-23.1,1,1,0,0,0-1-.8,19.69,19.69,0,0,1-9.9-2.9l-.9-.6c-.3-.2-.6-.5-.9-.7-3.9-3.2-7-8.4-7-16.8a25.72,25.72,0,0,1,1.5-9.2c.1-.4.3-.7.4-1.1a4.67,4.67,0,0,1,.5-1,13.91,13.91,0,0,1,3.5-4.4,13.37,13.37,0,0,1,8.1-3,7.57,7.57,0,0,1,1.5.1.86.86,0,0,0,.9-.3c4.8-4.4,12.9-17.5,14.6-33.7,1.5-14.1,19.9-29.6,30.2-36.3,24,35.1,48.7,47,64.8,49.2a1.05,1.05,0,0,0-.3,1.2,1.14,1.14,0,0,0,1.4.8c4.2-1.1,8.9-.4,13,.9a39.46,39.46,0,0,1,9.7,4.8,1.15,1.15,0,1,0,1.3-1.9c-2.1-1.5-4.9-4.7-9.3-6.2a11,11,0,0,0-2.6-.6c0-.1.1-.1.1-.2a1.11,1.11,0,0,0-.3-1c-4.2-3.4-5.7-7.3-6-9.6,24.1,6.1,35.3,23.5,37.9,32a1,1,0,0,0,.9.7,28.35,28.35,0,0,1,10.9,3.6c.3.2.6.3.9.5a5.55,5.55,0,0,1,.8.6,16.47,16.47,0,0,1,7,13.7c0,8.5-5.3,14.1-10.9,17.5-.3.2-.6.3-.9.5s-.6.3-.9.5a33.6,33.6,0,0,1-6.9,2.6,1.09,1.09,0,0,0-.8.8,97.3,97.3,0,0,1-6.5,19.3c-.2.3-.3.7-.5,1s-.3.7-.5,1c-7.1,14.9-18.8,30.9-36.2,40.1a4.67,4.67,0,0,1-1,.5c-.3.2-.7.3-1,.5a67.64,67.64,0,0,1-30,6.7,66.32,66.32,0,0,1-30-6.8c-.3-.2-.7-.3-1-.5s-.7-.3-1-.5C210.3,360.8,199.2,346.7,192,333Zm15.3,71c3-12.4,13.6-15.3,18.8-14.5v.6a1.07,1.07,0,0,0,.2.6A87.48,87.48,0,0,0,239.8,404l1.3,1c.5.3.9.7,1.4,1,4.8,3.3,10.2,5.8,15.5,6a30.51,30.51,0,0,0-5.7,11c-.1.3-.2.7-.3,1s-.2.7-.3,1a31,31,0,0,0-.8,4.2A44.89,44.89,0,0,0,251,442a192.92,192.92,0,0,1-23.9-17c-.4-.3-.8-.7-1.2-1s-.8-.7-1.2-1A139.52,139.52,0,0,1,208,406c-.3-.3-.5-.7-.8-1-.1-.1-.2-.3-.3-.4A.72.72,0,0,0,207.3,404Zm-1,2.8A131.13,131.13,0,0,0,221.8,423a11,11,0,0,1,1.1,1,12.7,12.7,0,0,0,1.2,1A188.92,188.92,0,0,0,252,444.9a.9.9,0,0,0,1.1-.1,1,1,0,0,0,.4-1,42.16,42.16,0,0,1-.5-14.3,35.83,35.83,0,0,1,.9-4.5c.1-.3.2-.7.3-1s.2-.7.3-1a28.79,28.79,0,0,1,4.7-9v59c-35.7-1.5-66.4-30.2-79.9-47.9-.3-.3-.5-.7-.8-1a6.07,6.07,0,0,1-.7-1A79.24,79.24,0,0,0,206.3,406.8Zm172.6,77.5c-16.5,9.8-40.4,19.6-69.4,24.9h-.1a243.1,243.1,0,0,1-43,3.8c-64,0-124.6-25-148-43,14.5-26.4,44.3-40.9,58.3-45,13.3,18.1,45.5,48.8,83.1,50h2.1c38.6,0,69.4-31.6,81.6-50h.1c19.3,5.3,43.5,31.5,54,45.2C393.5,474.5,387.2,479.4,378.9,484.3Z"/></g></g></svg>