<svg xmlns="http://www.w3.org/2000/svg" viewBox="0 0 515.4 515.5"><title>Asset 7</title><g id="Layer_2" data-name="Layer 2"><g id="Слой_1" data-name="Слой 1"><path d="M198,199.4c-4.4-.9-6.5,3.3-7.6,8.7s.4,10.4,3.4,11.1,6.5-3.3,7.6-8.7S202.5,200.3,198,199.4Zm0,0c-4.4-.9-6.5,3.3-7.6,8.7s.4,10.4,3.4,11.1,6.5-3.3,7.6-8.7S202.5,200.3,198,199.4Zm0,0c-4.4-.9-6.5,3.3-7.6,8.7s.4,10.4,3.4,11.1,6.5-3.3,7.6-8.7S202.5,200.3,198,199.4Zm0,0c-4.4-.9-6.5,3.3-7.6,8.7s.4,10.4,3.4,11.1,6.5-3.3,7.6-8.7S202.5,200.3,198,199.4Zm0,0c-4.4-.9-6.5,3.3-7.6,8.7s.4,10.4,3.4,11.1,6.5-3.3,7.6-8.7S202.5,200.3,198,199.4ZM78,442.4a257.21,257.21,0,0,0,32.8,27C96.1,458.4,82.6,446.4,78,442.4Zm120-243c-4.4-.9-6.5,3.3-7.6,8.7s.4,10.4,3.4,11.1,6.5-3.3,7.6-8.7S202.5,200.3,198,199.4ZM257.6,0C115.3,0,0,115.4,0,257.6A256.71,256.71,0,0,0,76.2,440.5c20.7-19.4,52.3-46.9,62-53.4,8.3-5.5,42.5-7.6,56.3-8.2-4.8-.8-8.6-2-10.1-3.2-36.2,6.2-50.8-1.2-53.6-5.6,21.7-7.3,30.1-46.8,30.1-46.8s-18.5,9.1-26,20.8c0,0-8.2-28.2,13.9-43.6,16.6-11.6,6.5-18.1,6.5-46.5s10-28,11.2-46c2-30.3-17.6-34.4-2.4-77.5,0,0,6.4,14.6,18.7,12.8C159.5,123.2,164.1,88,164.1,88c8.2,11.7,13.3,17.9,27.4,23.8-17.1-21.5-20.8-36.5-3.6-58,21.5,32.9,42.6,43.9,54.4,45.2-28.5-11.3-28.9-21-35.6-42,58.5,27.4,69.1,19.2,106.9,31.1,29.9,9.4,44.7,54,43.7,60.6,19,9.3,57.1,36.3,57.1,70.1,0,42.2-37.2,69.5-35,86s36.9,30,36.9,30-20.3,10.2-34.1,11c7.4,5.7,12,6.8,20.6,7.9-13.9,17-37.4,26.6-60,29.4,5.2.4,10.3.4,15.3.5,15.1.3,28.1.5,36.1,8,12.2,11.5,36,46.3,40.7,53.3a256.89,256.89,0,0,0,80.5-187.1C515.3,115.4,399.9,0,257.6,0Zm64.5,507.1a254.87,254.87,0,0,0,37.5-12.8A279,279,0,0,1,322.1,507.1Zm1.6-126.7a.9.9,0,0,0,.5.1ZM198,199.4c-4.4-.9-6.5,3.3-7.6,8.7s.4,10.4,3.4,11.1,6.5-3.3,7.6-8.7S202.5,200.3,198,199.4Zm0,0c-4.4-.9-6.5,3.3-7.6,8.7s.4,10.4,3.4,11.1,6.5-3.3,7.6-8.7S202.5,200.3,198,199.4Zm0,0c-4.4-.9-6.5,3.3-7.6,8.7s.4,10.4,3.4,11.1,6.5-3.3,7.6-8.7S202.5,200.3,198,199.4Zm0,0c-4.4-.9-6.5,3.3-7.6,8.7s.4,10.4,3.4,11.1,6.5-3.3,7.6-8.7S202.5,200.3,198,199.4Zm0,0c-4.4-.9-6.5,3.3-7.6,8.7s.4,10.4,3.4,11.1,6.5-3.3,7.6-8.7S202.5,200.3,198,199.4Z" fill="#f2f2f2"/><path d="M261.5,515.3c-2.8.1-5.7.2-8.6.2-26.6,0-52.2-6.3-57.3-7.6a258,258,0,0,0,62,7.5C258.9,515.3,260.2,515.3,261.5,515.3Z"/><path d="M198,199.4c-4.4-.9-6.5,3.3-7.6,8.7s.4,10.4,3.4,11.1,6.5-3.3,7.6-8.7S202.5,200.3,198,199.4Zm125.7,181a.9.9,0,0,0,.5.1Z"/><path d="M323.7,380.4a.9.9,0,0,0,.5.1Z" fill-rule="evenodd"/><path d="M198,199.4c-4.4-.9-6.5,3.3-7.6,8.7s.4,10.4,3.4,11.1,6.5-3.3,7.6-8.7S202.5,200.3,198,199.4Z" fill="#fdd29d"/><path d="M78,442.4c-.5-.5-.9-.8-1.2-1.1A12,12,0,0,1,78,442.4Z" fill="#f4b000"/><path d="M110.8,469.4a257.21,257.21,0,0,1-32.8-27C82.6,446.4,96.1,458.4,110.8,469.4Z" fill="#f4b000"/><path d="M162.4,497.1a193.41,193.41,0,0,1-27.2-11.6,203.55,203.55,0,0,1-24.3-16.1A252.42,252.42,0,0,0,162.4,497.1Z" fill="#f4b000"/><path d="M434.5,446.1c-1.2,1-5.2,4.2-10.8,8.5,3.5-3,7-6.1,10.4-9.2Z" fill="#f4b000"/><path d="M78,442.4a257.21,257.21,0,0,0,32.8,27C96.1,458.4,82.6,446.4,78,442.4Z"/><path d="M215.1,379.4a.1.1,0,0,1-.1.1c0,.1-.1.2-.1.3l-.1.2v.1c0,.1-.1.1-.1.2l-.2.3c-.1.1-.1.3-.2.4q-2,3.3-4.2,7.8c0,.1-.1.1-.1.2-2.9,5.7-5.6,11.5-8,17,0,.1-.1.2-.1.3s-.2.3-.2.5-.1.2-.1.3l-.2.4-.1.3c-4.9,11.7-7.7,21-8.4,27.6-1.5,15.6-1.5,44.3,1.5,70.1.1.5.1,1.1.2,1.6h-.1c-.4-.1-1-.3-1.7-.5a.37.37,0,0,1-.3-.1l-.5-.1c-.3-.1-.5-.1-.9-.2-.1,0-.2-.1-.3-.1-1.3-.4-2.9-.8-4.6-1.3-1-.3-2.2-.6-3.3-1l-2.7-.8a.31.31,0,0,1-.2-.1c-5.2-1.6-11.3-3.5-17.5-5.7A255.07,255.07,0,0,1,111,469.5c-14.7-11-28.3-23-32.8-27a12,12,0,0,0-1.2-1.1c20.7-19.4,52.2-46.9,61.9-53.3,8.7-5.8,46.8-7.7,58.3-8.1,1.1,0,2.1-.1,3.2-.1,5.1-.2,9.9-.3,14.2-.3h.5v-.2Z" fill="#f4b000"/><path d="M434.1,445.4c-3.4,3.2-6.8,6.3-10.4,9.2l-.1.1c-11.7,9-30.2,22.6-45.1,30.2-5.7,2.9-11.7,5.8-17.9,8.4-.4.2-.7.3-1.1.5l-.1.1A284.18,284.18,0,0,1,322,506.7l-2.1.5c-.3.1-.5.1-.8.2-2.8.7-5.5,1.3-7.9,1.9h-.3c-2.2.5-3.7.8-4.3.9-15.9-32.4-22.7-66.1-18.6-92.7v-.4a.9.9,0,0,1,.1-.5.6.6,0,0,1,.1-.4c0-.2.1-.3.1-.5a.6.6,0,0,1,.1-.4,72.55,72.55,0,0,1,8.3-23.6.35.35,0,0,1,.1-.2,59.88,59.88,0,0,1,7.9-10.8l.2-.2c1.1-1.1,2.1-2.2,3.2-3.2l.2-.2c.1-.1.3-.2.4-.3l.2-.2c4.3,1.5,9.2,2.9,14.8,4.4h.7a92.94,92.94,0,0,0,13.1,2.4l2.6.3c6.1.5,12.2.6,18,.7,14.9.3,27.8.5,35.4,7.7C405.6,403.6,429.4,438.5,434.1,445.4Z" fill="#f4b000"/><path d="M307.2,376.8q-1.65,1.5-3.3,3.3c0,.1-.1.1-.2.2a63.24,63.24,0,0,0-8,11c0,.1-.1.1-.1.2a73.92,73.92,0,0,0-8.3,24.1.6.6,0,0,1-.1.4,159,159,0,0,1-23.3,11c-9.4,3.5-18.4,5.6-25.7,5.6-14.5,0-26-11.4-33.9-23.1-.6-.9-1.2-1.8-1.7-2.6,0-.1.1-.2.1-.3,2.4-5.6,5.2-11.6,8.2-17.4,0-.1.1-.1.1-.2,1.6-3,3-5.7,4.3-8l.1-.2c.1-.1.1-.2.2-.3l.9-.3c.7-.2,1.3-.5,1.9-.7a43.79,43.79,0,0,0,9.2-4.5,7.77,7.77,0,0,0,2.3-3,19.14,19.14,0,0,0,1.4-4.6,65.12,65.12,0,0,0,1-12.3,172.15,172.15,0,0,0-1.9-25.7v-5.5h1.5a122.09,122.09,0,0,0,45.5-9.3c1,12.1,3.2,32.9,5.7,42.9,1.4,5.7,5.1,10.2,11.7,14A88.58,88.58,0,0,0,307.2,376.8Z" fill="#fdd29d"/><path d="M369.9,227c-6.9-4.1-16.1-4.9-25.1,1.3l-.3.2c-3.7,5.1-11.6,14.8-16.9,16.8-6.8,2.6-26.2,1-18.4-21.5,3.5-9.9-.4-24.3-5-38-.3-.5-.7-.9-1-1.4-1.9-2.7-3.8-5.4-5.7-8-7.6-10.6-15.2-20.7-23.4-28.2s-16.6-12.2-25.8-12.3-21.8.5-33.8,6.4c-11.6,5.7-22.8,16.3-29.8,36.1a25.32,25.32,0,0,1,13-4.2c5.9-.2,11.7,2.1,14.2,7.7a1.21,1.21,0,0,1-2.2,1c-2-4.4-6.7-6.4-12-6.3a22.82,22.82,0,0,0-14.5,6c-7,20.7-12.5,30.1-16.6,36.9-.7,1.2-1.4,2.4-2.1,3.5a38.94,38.94,0,0,0-4.7,12.3c-1.1,5.1-1.6,11.9-1.6,22.4,0,11.9,7.2,28.1,20,41.3,12.3,12.6,29.6,22.5,50.6,23.4h2.9c15.6,0,31-3.6,45.3-9.3a4.88,4.88,0,0,1,.7-.3c.2-.1.5-.2.7-.3a150.07,150.07,0,0,0,16.6-8.1c18.9-10.7,34.5-24.7,44.2-37.9l.3-.4.5.2a78.54,78.54,0,0,0,22.1,3.4,17,17,0,0,0,13.9-7.1c3.3-4.4,5.3-10.5,5.3-17.5C381.6,238.4,376.9,231.1,369.9,227Zm-163.2-1.2a19.11,19.11,0,0,0,3.5-3.7,30.3,30.3,0,0,0,2.8-7.6c.4-1.4.6-2.7.8-3.7a6.88,6.88,0,0,0,.2-1.3v-.6c0-.4.2-.7.6-.7s.7.2.7.6v.9a9.32,9.32,0,0,1-.2,1.4c-.2,1.1-.5,2.4-.8,3.8a32.54,32.54,0,0,1-3,8,19.81,19.81,0,0,1-3.8,4c-.8.7-1.8,1.5-2.7,2.3s-1.6,1.3-2.4,2a37.77,37.77,0,0,0-4.5,4.4,6.45,6.45,0,0,0-1.8,3.9,6.12,6.12,0,0,0,1.7,3.8,13.61,13.61,0,0,0,4.6,3.3c3.7,1.8,8.3,2.4,11.9.5a.67.67,0,1,1,.6,1.2c-4.1,2.2-9.2,1.4-13.1-.5a17.36,17.36,0,0,1-5-3.6,7,7,0,0,1-2.1-4.6,8,8,0,0,1,2.1-4.7,32.82,32.82,0,0,1,4.6-4.5c.8-.7,1.6-1.4,2.4-2C205,227.3,205.9,226.5,206.7,225.8Zm-16.3-17.7c1.2-5.5,3.2-9.7,7.6-8.7s4.6,5.6,3.4,11.1-4.6,9.4-7.6,8.7S189.2,213.6,190.4,208.1Zm43.1,61.3a48.21,48.21,0,0,1-8,12.7c-3.9,4.3-9.1,7.7-15.9,7.7a13.13,13.13,0,0,1-8.2-2.5,15.44,15.44,0,0,1-4.6-6.1,39,39,0,0,1-2.4-7.3c-.2-.7-.3-1.3-.5-1.9q-.6-2.55-1.2-4.5a.67.67,0,0,1,.3-.8.6.6,0,0,1,.8,0c2.9,2,10.7,6.1,18.4,6.1s16.9-2.8,20.4-4.3a.78.78,0,0,1,.8.2C233.6,268.8,233.6,269.1,233.5,269.4Zm24.9-47.3c-1.4,6.7-5.6,11.4-9.3,10.6s-5.6-6.8-4.2-13.5,3.9-11.8,9.3-10.6S259.8,215.4,258.4,222.1Zm28.2-18.6a1.25,1.25,0,0,1-1.7-.2c-11.4-15.2-21.1-20.7-28.3-21.7a15.48,15.48,0,0,0-14.8,6.1,1.22,1.22,0,1,1-2-1.4,17.63,17.63,0,0,1,17-7.1c8.2,1.1,18.3,7.2,29.9,22.6A1,1,0,0,1,286.6,203.5Z" fill="#fdd29d"/><path d="M286.6,203.5a1.25,1.25,0,0,1-1.7-.2c-11.4-15.2-21.1-20.7-28.3-21.7a15.48,15.48,0,0,0-14.8,6.1,1.22,1.22,0,1,1-2-1.4,17.63,17.63,0,0,1,17-7.1c8.2,1.1,18.3,7.2,29.9,22.6A1,1,0,0,1,286.6,203.5Z"/><path d="M258.4,222.1c-1.4,6.7-5.6,11.4-9.3,10.6s-5.6-6.8-4.2-13.5,3.9-11.8,9.3-10.6S259.8,215.4,258.4,222.1Z"/><path d="M215.1,248.1c-4.1,2.2-9.2,1.4-13.1-.5a17.36,17.36,0,0,1-5-3.6,7,7,0,0,1-2.1-4.6,8,8,0,0,1,2.1-4.7,32.82,32.82,0,0,1,4.6-4.5c.8-.7,1.6-1.4,2.4-2,.9-.8,1.8-1.5,2.7-2.2a19.11,19.11,0,0,0,3.5-3.7,30.3,30.3,0,0,0,2.8-7.6c.4-1.4.6-2.7.8-3.7a6.88,6.88,0,0,0,.2-1.3v-.6c0-.4.2-.7.6-.7s.7.2.7.6v.9a9.32,9.32,0,0,1-.2,1.4c-.2,1.1-.5,2.4-.8,3.8a32.54,32.54,0,0,1-3,8,19.81,19.81,0,0,1-3.8,4c-.8.7-1.8,1.5-2.7,2.3s-1.6,1.3-2.4,2a37.77,37.77,0,0,0-4.5,4.4,6.45,6.45,0,0,0-1.8,3.9,6.12,6.12,0,0,0,1.7,3.8,13.61,13.61,0,0,0,4.6,3.3c3.7,1.8,8.3,2.4,11.9.5a.69.69,0,0,1,.9.3C215.5,247.5,215.4,247.9,215.1,248.1Z"/><path d="M323.7,380.4a.9.9,0,0,0,.5.1Z"/><path d="M323.7,380.4a.9.9,0,0,0,.5.1Zm-1.6,126.7a254.87,254.87,0,0,0,37.5-12.8A279,279,0,0,1,322.1,507.1Z"/><path d="M233.4,268.6a.78.78,0,0,0-.8-.2c-3.6,1.4-12.7,4.3-20.4,4.3s-15.5-4-18.4-6.1a.6.6,0,0,0-.8,0,.83.83,0,0,0-.3.8q.6,2,1.2,4.5c.2.6.3,1.3.5,1.9a41.52,41.52,0,0,0,2.4,7.3,16.18,16.18,0,0,0,4.6,6.1,12.93,12.93,0,0,0,8.2,2.5c6.8,0,12.1-3.5,15.9-7.7a46.67,46.67,0,0,0,8-12.7A.62.62,0,0,0,233.4,268.6Zm-9,12.5c-3.7,4.1-8.6,7.3-14.9,7.3a12.18,12.18,0,0,1-7.3-2.2,15.51,15.51,0,0,1-4.2-5.5,44.08,44.08,0,0,1-2.3-7c-.2-.6-.3-1.3-.5-1.9-.2-1-.5-1.9-.7-2.8.6.4,1.3.7,2,1.1,3.9,2,9.8,4.2,15.6,4.2a61.47,61.47,0,0,0,17.1-3c.8-.3,1.5-.5,2.2-.7A44.48,44.48,0,0,1,224.4,281.1Z" fill-rule="evenodd"/><path d="M231.4,270.4a47.62,47.62,0,0,1-7,10.7c-3.7,4.1-8.6,7.3-14.9,7.3a12.18,12.18,0,0,1-7.3-2.2,15.51,15.51,0,0,1-4.2-5.5,44.08,44.08,0,0,1-2.3-7c-.2-.6-.3-1.3-.5-1.9-.2-1-.5-1.9-.7-2.8.6.4,1.3.7,2,1.1.4,1.9,1.3,4.8,2.9,5.8a25.8,25.8,0,0,0,12.6,3.7c5.1,0,11.4-1.1,14.4-3.7a9.24,9.24,0,0,0,2.7-4.7C230.1,270.9,230.8,270.6,231.4,270.4Z" fill="#ae5646" fill-rule="evenodd"/><path d="M229.3,271.1a9.65,9.65,0,0,1-2.7,4.7c-3,2.6-9.3,3.7-14.4,3.7a25.8,25.8,0,0,1-12.6-3.7c-1.6-1-2.5-3.9-2.9-5.8,3.9,2,9.8,4.2,15.6,4.2A59.09,59.09,0,0,0,229.3,271.1Z" fill="#fff" fill-rule="evenodd"/><path d="M201.5,210.5c-1.2,5.5-4.6,9.4-7.6,8.7s-4.6-5.6-3.4-11.1,3.2-9.7,7.6-8.7S202.6,205,201.5,210.5Z"/><path d="M434.3,444.7c-4.8-7.1-28.6-41.9-40.8-53.4-8-7.5-21-7.7-36.1-8-5-.1-10.1-.2-15.3-.5,22.6-2.8,46.1-12.4,60-29.4-8.5-1-13.1-2.2-20.6-7.9,13.8-.8,34.1-11,34.1-11s-34.8-13.5-36.9-30,35-43.8,35-86c0-33.8-38-60.8-57.1-70.1,1-6.6-13.8-51.2-43.7-60.6C275.1,75.9,264.5,84.2,206,56.7c6.7,21.1,7.2,30.7,35.6,42-11.7-1.3-32.8-12.3-54.4-45.2-17.1,21.5-13.4,36.6,3.6,58-14.1-5.9-19.2-12-27.4-23.8,0,0-4.6,35.2,18.7,55.3-12.3,1.9-18.7-12.8-18.7-12.8-15,43.3,4.7,47.3,2.7,77.7-1.2,18-11.2,17.6-11.2,46s10.2,34.9-6.5,46.5c-22.1,15.4-13.9,43.6-13.9,43.6,7.5-11.7,26-20.8,26-20.8s-8.4,39.5-30.1,46.8c2.8,4.5,17.4,11.8,53.6,5.6,1.5,1.2,5.3,2.4,10.1,3.2-13.8.6-48,2.7-56.3,8.2-9.7,6.5-41.3,34.1-62,53.4l-.3.3-.5.5.4.4c.3.3,34.5,31.5,58.9,44.7,13.3,7.2,31.7,13.4,44.9,17.4.1,0,.2.1.3.1l2.6.8c1.2.3,2.3.7,3.4,1,1.8.5,9.8,2.2,9.8,2.2a258,258,0,0,0,62,7.5h3.9c15.1-.2,46.6-4.3,49.6-5h.2c2.4-.5,5.2-1.2,8-1.9.3-.1.5-.1.8-.2l2.1-.5a285.56,285.56,0,0,0,37.5-12.8h.1c.4-.2.7-.3,1.1-.5,6.2-2.6,12.3-5.5,18-8.4,23.5-12.1,56.2-39,56.5-39.3l.4-.3ZM178.1,299c-12.8-13.2-20-29.4-20-41.3,0-10.5.5-17.3,1.6-22.4a38.94,38.94,0,0,1,4.7-12.3c.6-1.1,1.3-2.3,2.1-3.5,4-6.9,9.6-16.2,16.6-36.9a23.14,23.14,0,0,1,14.5-6c5.3-.1,10,1.9,12,6.3a1.21,1.21,0,1,0,2.2-1c-2.6-5.5-8.3-7.9-14.2-7.7a25,25,0,0,0-13,4.2c7-19.8,18.2-30.4,29.8-36.1,12-5.9,24.6-6.5,33.8-6.4s17.6,4.9,25.8,12.3,15.8,17.6,23.4,28.2c1.9,2.7,3.8,5.3,5.7,8,.3.5.7.9,1,1.4,4.6,13.7,8.4,28,5,38-7.9,22.6,11.5,24.1,18.4,21.5,5.3-2,13.2-11.7,16.9-16.8l.3-.2c9-6.1,18.1-5.3,25.1-1.3s11.7,11.4,11.7,18.1c0,6.9-1.9,13.1-5.3,17.5a17,17,0,0,1-13.9,7.1,79.23,79.23,0,0,1-22.1-3.4l-.5-.2-.3.4c-9.6,13.2-25.3,27.2-44.2,37.9a159.26,159.26,0,0,1-16.6,8.1c-.2.1-.5.2-.7.3a4.88,4.88,0,0,1-.7.3,121.47,121.47,0,0,1-45.3,9.3H229C207.7,321.5,190.3,311.6,178.1,299Zm145.6,81.4c-.2,0-.3-.1-.5-.1ZM201.4,406.1c-.1.2-.2.3-.2.5s-.1.2-.1.3l-.2.4-.1.3c-4.9,11.7-7.7,21-8.4,27.6-1.5,15.6-1.5,44.3,1.5,70.1.1.5.1,1.1.2,1.6H194c-.4-.1-1-.3-1.7-.5a.37.37,0,0,1-.3-.1l-.5-.1c-.3-.1-.5-.1-.9-.2-.1,0-.2-.1-.3-.1-1.3-.4-2.9-.8-4.6-1.3-1-.3-2.2-.6-3.3-1l-2.7-.8a.31.31,0,0,1-.2-.1c-5.2-1.6-11.3-3.5-17.5-5.7a193.41,193.41,0,0,1-27.2-11.6,203.55,203.55,0,0,1-24.3-16.1,257.21,257.21,0,0,1-32.8-27c-.5-.5-.9-.8-1.2-1.1,20.7-19.4,52.2-46.9,61.9-53.3,8.7-5.8,46.8-7.7,58.3-8.1,1.1,0,2.1-.1,3.2-.1,5.1-.2,9.9-.3,14.2-.3h.7a.1.1,0,0,1-.1.1c0,.1-.1.2-.1.3l-.1.2v.1c0,.1-.1.1-.1.2l-.2.3c-.1.1-.1.3-.2.4q-2,3.3-4.2,7.8c0,.1-.1.1-.1.2-2.9,5.7-5.6,11.5-8,17C201.4,405.9,201.4,406,201.4,406.1Zm36.3,26.4c-14.5,0-26-11.4-33.9-23.1-.6-.9-1.2-1.8-1.7-2.6,0-.1.1-.2.1-.3,2.4-5.6,5.2-11.6,8.2-17.4,0-.1.1-.1.1-.2,1.6-3,3-5.7,4.3-8l.1-.2c.1-.1.1-.2.2-.3l.9-.3c.7-.2,1.3-.5,1.9-.7a43.79,43.79,0,0,0,9.2-4.5,7.77,7.77,0,0,0,2.3-3,19.14,19.14,0,0,0,1.4-4.6,65.12,65.12,0,0,0,1-12.3,172.15,172.15,0,0,0-1.9-25.7v-5.5h1.5a122.09,122.09,0,0,0,45.5-9.3c1,12.1,3.2,32.9,5.7,42.9,1.4,5.7,5.1,10.2,11.7,14a80.92,80.92,0,0,0,12.3,5.5q-1.65,1.5-3.3,3.3c0,.1-.1.1-.2.2a63.24,63.24,0,0,0-8,11c0,.1-.1.1-.1.2a73.92,73.92,0,0,0-8.3,24.1.6.6,0,0,1-.1.4,159,159,0,0,1-23.3,11C254,430.4,245,432.5,237.7,432.5ZM321.6,507a294,294,0,0,0,37.5-12.8A230.16,230.16,0,0,1,321.6,507Zm101.6-52.4-.1.1c-11.7,9-30.2,22.6-45.1,30.2-5.7,2.9-11.7,5.8-17.9,8.4-.4.2-.7.3-1.1.5l-.1.1a284.18,284.18,0,0,1-37.4,12.8l-2.1.5c-.3.1-.5.1-.8.2-2.8.7-5.5,1.3-7.9,1.9h-.3c-2.2.5-3.7.8-4.3.9-15.9-32.4-22.7-66.1-18.6-92.7v-.4a.9.9,0,0,1,.1-.5.6.6,0,0,1,.1-.4c0-.2.1-.3.1-.5a.6.6,0,0,1,.1-.4,72.55,72.55,0,0,1,8.3-23.6.35.35,0,0,1,.1-.2,59.88,59.88,0,0,1,7.9-10.8l.2-.2c1.1-1.1,2.1-2.2,3.2-3.2l.2-.2c.1-.1.3-.2.4-.3l.2-.2c4.3,1.5,9.2,2.9,14.8,4.4h.7a92.94,92.94,0,0,0,13.1,2.4l2.6.3c6.1.5,12.2.6,18,.7,14.9.3,27.8.5,35.4,7.7,12.2,11.5,36,46.3,40.6,53.2v.1l.5.7C432.9,447,428.8,450.2,423.2,454.6Z"/></g></g></svg>