<svg xmlns="http://www.w3.org/2000/svg" viewBox="0 0 515.3 514.61"><title>Asset 4</title><g id="Layer_2" data-name="Layer 2"><g id="Слой_1" data-name="Слой 1"><path d="M357.1,250.6a1,1,0,0,0-1.3-.6c-3.9,1.5-11.5,6.9-12,16.4a1.09,1.09,0,0,0,.7,1h.3a.89.89,0,0,0,.8-.5c1.5-2.3,4.9-6,8.5-6.4a1.07,1.07,0,0,0,.9-1.1c0-.5-.6-.9-1.1-.9-2.9.3-5.6,2.2-7.5,4.2,1.8-6.1,7.1-9.7,10-10.9A.84.84,0,0,0,357.1,250.6ZM243,315.6a22.5,22.5,0,0,0,5.7,2.1A27.76,27.76,0,0,1,243,315.6Zm-2.5-1.6v.3c.8.5,1.6.9,2.4,1.3A14.31,14.31,0,0,1,240.5,314Zm.1.3h0c-.1,0-.1.1,0,0Zm21.7-24.9c-5.4,0-10.8-1.3-11.4-3.2s.1-3.7,1.9-6.1a21.86,21.86,0,0,0,2.8-6.1c.8-2.6,1.6-5.5,2.3-8.3.1-.4-.1-.8-.5-.8s-.8.1-.8.5a65.41,65.41,0,0,1-2.3,8.2,19.18,19.18,0,0,1-2.6,5.7c-1.8,2.4-2.9,4.9-2.1,7.4s6.6,4.3,12.1,4a.66.66,0,0,0,.9-.3A.91.91,0,0,0,262.3,289.4Zm94.8-38.8a1,1,0,0,0-1.3-.6c-3.9,1.5-11.5,6.9-12,16.4a1.09,1.09,0,0,0,.7,1h.3a.89.89,0,0,0,.8-.5c1.5-2.3,4.9-6,8.5-6.4a1.07,1.07,0,0,0,.9-1.1c0-.5-.6-.9-1.1-.9-2.9.3-5.6,2.2-7.5,4.2,1.8-6.1,7.1-9.7,10-10.9A.84.84,0,0,0,357.1,250.6ZM243,315.6a22.5,22.5,0,0,0,5.7,2.1A27.76,27.76,0,0,1,243,315.6Zm-2.5-1.6v.3c.8.5,1.6.9,2.4,1.3A14.31,14.31,0,0,1,240.5,314Zm.1.3h0c-.1,0-.1.1,0,0Zm21.7-24.9c-5.4,0-10.8-1.3-11.4-3.2s.1-3.7,1.9-6.1a21.86,21.86,0,0,0,2.8-6.1c.8-2.6,1.6-5.5,2.3-8.3.1-.4-.1-.8-.5-.8s-.8.1-.8.5a65.41,65.41,0,0,1-2.3,8.2,19.18,19.18,0,0,1-2.6,5.7c-1.8,2.4-2.9,4.9-2.1,7.4s6.6,4.3,12.1,4a.66.66,0,0,0,.9-.3A.91.91,0,0,0,262.3,289.4Zm94.8-38.8a1,1,0,0,0-1.3-.6c-3.9,1.5-11.5,6.9-12,16.4a1.09,1.09,0,0,0,.7,1h.3a.89.89,0,0,0,.8-.5c1.5-2.3,4.9-6,8.5-6.4a1.07,1.07,0,0,0,.9-1.1c0-.5-.6-.9-1.1-.9-2.9.3-5.6,2.2-7.5,4.2,1.8-6.1,7.1-9.7,10-10.9A.84.84,0,0,0,357.1,250.6ZM243,315.6a22.5,22.5,0,0,0,5.7,2.1A27.76,27.76,0,0,1,243,315.6Zm-2.5-1.6v.3c.8.5,1.6.9,2.4,1.3A14.31,14.31,0,0,1,240.5,314Zm.1.3h0c-.1,0-.1.1,0,0Zm21.7-24.9c-5.4,0-10.8-1.3-11.4-3.2s.1-3.7,1.9-6.1a21.86,21.86,0,0,0,2.8-6.1c.8-2.6,1.6-5.5,2.3-8.3.1-.4-.1-.8-.5-.8s-.8.1-.8.5a65.41,65.41,0,0,1-2.3,8.2,19.18,19.18,0,0,1-2.6,5.7c-1.8,2.4-2.9,4.9-2.1,7.4s6.6,4.3,12.1,4a.66.66,0,0,0,.9-.3A.91.91,0,0,0,262.3,289.4Zm94.8-38.8a1,1,0,0,0-1.3-.6c-3.9,1.5-11.5,6.9-12,16.4a1.09,1.09,0,0,0,.7,1h.3a.89.89,0,0,0,.8-.5c1.5-2.3,4.9-6,8.5-6.4a1.07,1.07,0,0,0,.9-1.1c0-.5-.6-.9-1.1-.9-2.9.3-5.6,2.2-7.5,4.2,1.8-6.1,7.1-9.7,10-10.9A.84.84,0,0,0,357.1,250.6ZM243,315.6a22.5,22.5,0,0,0,5.7,2.1A27.76,27.76,0,0,1,243,315.6Zm-2.5-1.6v.3c.8.5,1.6.9,2.4,1.3A14.31,14.31,0,0,1,240.5,314Zm.1.3h0c-.1,0-.1.1,0,0Zm21.7-24.9c-5.4,0-10.8-1.3-11.4-3.2s.1-3.7,1.9-6.1a21.86,21.86,0,0,0,2.8-6.1c.8-2.6,1.6-5.5,2.3-8.3.1-.4-.1-.8-.5-.8s-.8.1-.8.5a65.41,65.41,0,0,1-2.3,8.2,19.18,19.18,0,0,1-2.6,5.7c-1.8,2.4-2.9,4.9-2.1,7.4s6.6,4.3,12.1,4a.66.66,0,0,0,.9-.3A.91.91,0,0,0,262.3,289.4Zm94.8-38.8a1,1,0,0,0-1.3-.6c-3.9,1.5-11.5,6.9-12,16.4a1.09,1.09,0,0,0,.7,1h.3a.89.89,0,0,0,.8-.5c1.5-2.3,4.9-6,8.5-6.4a1.07,1.07,0,0,0,.9-1.1c0-.5-.6-.9-1.1-.9-2.9.3-5.6,2.2-7.5,4.2,1.8-6.1,7.1-9.7,10-10.9A.84.84,0,0,0,357.1,250.6ZM243,315.6a22.5,22.5,0,0,0,5.7,2.1A27.76,27.76,0,0,1,243,315.6Zm-2.5-1.6v.3c.8.5,1.6.9,2.4,1.3A14.31,14.31,0,0,1,240.5,314Zm.1.3h0c-.1,0-.1.1,0,0Zm21.7-24.9c-5.4,0-10.8-1.3-11.4-3.2s.1-3.7,1.9-6.1a21.86,21.86,0,0,0,2.8-6.1c.8-2.6,1.6-5.5,2.3-8.3.1-.4-.1-.8-.5-.8s-.8.1-.8.5a65.41,65.41,0,0,1-2.3,8.2,19.18,19.18,0,0,1-2.6,5.7c-1.8,2.4-2.9,4.9-2.1,7.4s6.6,4.3,12.1,4a.66.66,0,0,0,.9-.3A.91.91,0,0,0,262.3,289.4ZM257.7,0C115.4,0,0,115.3,0,257.6A255.32,255.32,0,0,0,81.4,445.1l.3-.3c2.5-3,14.1-11.5,28.3-20.2a25.56,25.56,0,0,0-5.9-1.4.89.89,0,0,1-.8-.5.91.91,0,0,1,0-1c6.1-10.6,11.4-18.8,22-24.7-12.7-1.7-25.5-11.7-35-19.2-2.7-2.1-5.3-4.1-7.5-5.6a.91.91,0,0,1-.4-.8,1,1,0,0,1,.5-.8c3-2,6.9-4,11.5-6.4,18.5-9.5,46.4-23.9,42-56.3-1.3-9.7-3.1-18.4-4.8-26.1-5.1-24-8.7-41.4,9.7-58.3,24.8-22.7,31.6-43.2,34.9-60.1,9-45.3,51.8-61.5,89-61.5,26.8,0,47.4,18.4,54.9,28.5,50,.2,52.6,24.2,55.6,52,1.7,15.6,3.4,31.8,13.2,46.4,19.3,29,17.1,53,15.4,72.3-.8,8.7-1.5,16.2-.1,22.7l.9,4.2c3.3,15.5,6.4,30.2,19.5,32.4.3.1.6.2.7.5a.75.75,0,0,1,0,.9c-3.6,8.8-21.9,17.8-29.3,18.4,5.8,11.6,26.6,24,34.7,26.9a.86.86,0,0,1,.6.7c0,.3,0,.7-.3.9-7,7.3-21.8,7.6-44.1.7,2.1,10.8,27,26.8,37.8,31.5a1,1,0,0,1,.6.9.87.87,0,0,1-.6.9,63.7,63.7,0,0,1-8.2,2.9c5,3.7,8.3,6.2,8.3,6.2l.7.5a255.63,255.63,0,0,0,89.8-194.8C515.3,115.3,400,0,257.7,0ZM214.3,427.8c0,.1,0,.2.1.2Zm.7,1.5h-.1l.3.8.1.1c.1,0,.2,0,.2-.1A5.58,5.58,0,0,1,215,429.3Zm81.2-8c-.1.3-.1.7-.2,1s-.1.6-.2.9h.3V423l.1-.8.2-1A.31.31,0,0,1,296.2,421.3Zm.5-2.7v.3C296.6,418.8,296.7,418.7,296.7,418.6ZM327,400.4l-3-.7c1,.3,2,.5,3.1.8A.1.1,0,0,1,327,400.4Zm-125.1-6.2c-6.2.9-12.3,2.1-17.6,3.2,6.1-1.2,11.9-2.2,17.6-3.1Zm175.5,90.7c4-2.1,8-4.3,11.9-6.6C385.3,480.6,381.4,482.8,377.4,484.9ZM357.1,250.6a1,1,0,0,0-1.3-.6c-3.9,1.5-11.5,6.9-12,16.4a1.09,1.09,0,0,0,.7,1h.3a.89.89,0,0,0,.8-.5c1.5-2.3,4.9-6,8.5-6.4a1.07,1.07,0,0,0,.9-1.1c0-.5-.6-.9-1.1-.9-2.9.3-5.6,2.2-7.5,4.2,1.8-6.1,7.1-9.7,10-10.9A.84.84,0,0,0,357.1,250.6ZM243,315.6a22.5,22.5,0,0,0,5.7,2.1A27.76,27.76,0,0,1,243,315.6Zm-2.5-1.6v.3c.8.5,1.6.9,2.4,1.3A14.31,14.31,0,0,1,240.5,314Zm.1.3h0c-.1,0-.1.1,0,0Zm21.7-24.9c-5.4,0-10.8-1.3-11.4-3.2s.1-3.7,1.9-6.1a21.86,21.86,0,0,0,2.8-6.1c.8-2.6,1.6-5.5,2.3-8.3.1-.4-.1-.8-.5-.8s-.8.1-.8.5a65.41,65.41,0,0,1-2.3,8.2,19.18,19.18,0,0,1-2.6,5.7c-1.8,2.4-2.9,4.9-2.1,7.4s6.6,4.3,12.1,4a.66.66,0,0,0,.9-.3A.91.91,0,0,0,262.3,289.4Zm94.8-38.8a1,1,0,0,0-1.3-.6c-3.9,1.5-11.5,6.9-12,16.4a1.09,1.09,0,0,0,.7,1h.3a.89.89,0,0,0,.8-.5c1.5-2.3,4.9-6,8.5-6.4a1.07,1.07,0,0,0,.9-1.1c0-.5-.6-.9-1.1-.9-2.9.3-5.6,2.2-7.5,4.2,1.8-6.1,7.1-9.7,10-10.9A.84.84,0,0,0,357.1,250.6ZM243,315.6a22.5,22.5,0,0,0,5.7,2.1A27.76,27.76,0,0,1,243,315.6Zm-2.5-1.6v.3c.8.5,1.6.9,2.4,1.3A14.31,14.31,0,0,1,240.5,314Zm.1.3h0c-.1,0-.1.1,0,0Zm21.7-24.9c-5.4,0-10.8-1.3-11.4-3.2s.1-3.7,1.9-6.1a21.86,21.86,0,0,0,2.8-6.1c.8-2.6,1.6-5.5,2.3-8.3.1-.4-.1-.8-.5-.8s-.8.1-.8.5a65.41,65.41,0,0,1-2.3,8.2,19.18,19.18,0,0,1-2.6,5.7c-1.8,2.4-2.9,4.9-2.1,7.4s6.6,4.3,12.1,4a.66.66,0,0,0,.9-.3A.91.91,0,0,0,262.3,289.4Zm94.8-38.8a1,1,0,0,0-1.3-.6c-3.9,1.5-11.5,6.9-12,16.4a1.09,1.09,0,0,0,.7,1h.3a.89.89,0,0,0,.8-.5c1.5-2.3,4.9-6,8.5-6.4a1.07,1.07,0,0,0,.9-1.1c0-.5-.6-.9-1.1-.9-2.9.3-5.6,2.2-7.5,4.2,1.8-6.1,7.1-9.7,10-10.9A.84.84,0,0,0,357.1,250.6ZM243,315.6a22.5,22.5,0,0,0,5.7,2.1A27.76,27.76,0,0,1,243,315.6Zm-2.5-1.6v.3c.8.5,1.6.9,2.4,1.3A14.31,14.31,0,0,1,240.5,314Zm.1.3h0c-.1,0-.1.1,0,0Zm21.7-24.9c-5.4,0-10.8-1.3-11.4-3.2s.1-3.7,1.9-6.1a21.86,21.86,0,0,0,2.8-6.1c.8-2.6,1.6-5.5,2.3-8.3.1-.4-.1-.8-.5-.8s-.8.1-.8.5a65.41,65.41,0,0,1-2.3,8.2,19.18,19.18,0,0,1-2.6,5.7c-1.8,2.4-2.9,4.9-2.1,7.4s6.6,4.3,12.1,4a.66.66,0,0,0,.9-.3A.91.91,0,0,0,262.3,289.4Z" fill="#f2f2f2"/><path d="M262.3,289.4c-5.4,0-10.8-1.3-11.4-3.2s.1-3.7,1.9-6.1a21.86,21.86,0,0,0,2.8-6.1c.8-2.6,1.6-5.5,2.3-8.3.1-.4-.1-.8-.5-.8s-.8.1-.8.5a65.41,65.41,0,0,1-2.3,8.2,19.18,19.18,0,0,1-2.6,5.7c-1.8,2.4-2.9,4.9-2.1,7.4s6.6,4.3,12.1,4a.66.66,0,0,0,.9-.3A.91.91,0,0,0,262.3,289.4ZM243,315.6a22.5,22.5,0,0,0,5.7,2.1A27.76,27.76,0,0,1,243,315.6Zm-2.5-1.6v.3c.8.5,1.6.9,2.4,1.3A14.31,14.31,0,0,1,240.5,314Zm.1.3h0c-.1,0-.1.1,0,0Zm116.5-63.7a1,1,0,0,0-1.3-.6c-3.9,1.5-11.5,6.9-12,16.4a1.09,1.09,0,0,0,.7,1h.3a.89.89,0,0,0,.8-.5c1.5-2.3,4.9-6,8.5-6.4a1.07,1.07,0,0,0,.9-1.1c0-.5-.6-.9-1.1-.9-2.9.3-5.6,2.2-7.5,4.2,1.8-6.1,7.1-9.7,10-10.9A.84.84,0,0,0,357.1,250.6Zm-94.8,38.8c-5.4,0-10.8-1.3-11.4-3.2s.1-3.7,1.9-6.1a21.86,21.86,0,0,0,2.8-6.1c.8-2.6,1.6-5.5,2.3-8.3.1-.4-.1-.8-.5-.8s-.8.1-.8.5a65.41,65.41,0,0,1-2.3,8.2,19.18,19.18,0,0,1-2.6,5.7c-1.8,2.4-2.9,4.9-2.1,7.4s6.6,4.3,12.1,4a.66.66,0,0,0,.9-.3A.91.91,0,0,0,262.3,289.4ZM243,315.6a22.5,22.5,0,0,0,5.7,2.1A27.76,27.76,0,0,1,243,315.6Zm-2.5-1.6v.3c.8.5,1.6.9,2.4,1.3A14.31,14.31,0,0,1,240.5,314Zm.1.3h0c-.1,0-.1.1,0,0Zm116.5-63.7a1,1,0,0,0-1.3-.6c-3.9,1.5-11.5,6.9-12,16.4a1.09,1.09,0,0,0,.7,1h.3a.89.89,0,0,0,.8-.5c1.5-2.3,4.9-6,8.5-6.4a1.07,1.07,0,0,0,.9-1.1c0-.5-.6-.9-1.1-.9-2.9.3-5.6,2.2-7.5,4.2,1.8-6.1,7.1-9.7,10-10.9A.84.84,0,0,0,357.1,250.6ZM201.9,394.2c-6.2.9-12.3,2.1-17.6,3.2,6.1-1.2,11.9-2.2,17.6-3.1ZM327,400.4l-3-.7c1,.3,2,.5,3,.7Zm-30.3,18.2v.3C296.6,418.8,296.7,418.7,296.7,418.6Zm-.5,2.7c-.1.3-.1.7-.2,1h.2l.2-1Zm-81.9,6.5c0,.1,0,.2.1.2Zm48-138.4c-5.4,0-10.8-1.3-11.4-3.2s.1-3.7,1.9-6.1a21.86,21.86,0,0,0,2.8-6.1c.8-2.6,1.6-5.5,2.3-8.3.1-.4-.1-.8-.5-.8s-.8.1-.8.5a65.41,65.41,0,0,1-2.3,8.2,19.18,19.18,0,0,1-2.6,5.7c-1.8,2.4-2.9,4.9-2.1,7.4s6.6,4.3,12.1,4a.66.66,0,0,0,.9-.3A.91.91,0,0,0,262.3,289.4ZM243,315.6a22.5,22.5,0,0,0,5.7,2.1A27.76,27.76,0,0,1,243,315.6Zm-2.5-1.6v.3c.8.5,1.6.9,2.4,1.3A14.31,14.31,0,0,1,240.5,314Zm.1.3h0c-.1,0-.1.1,0,0Zm116.5-63.7a1,1,0,0,0-1.3-.6c-3.9,1.5-11.5,6.9-12,16.4a1.09,1.09,0,0,0,.7,1h.3a.89.89,0,0,0,.8-.5c1.5-2.3,4.9-6,8.5-6.4a1.07,1.07,0,0,0,.9-1.1c0-.5-.6-.9-1.1-.9-2.9.3-5.6,2.2-7.5,4.2,1.8-6.1,7.1-9.7,10-10.9A.84.84,0,0,0,357.1,250.6Zm-94.8,38.8c-5.4,0-10.8-1.3-11.4-3.2s.1-3.7,1.9-6.1a21.86,21.86,0,0,0,2.8-6.1c.8-2.6,1.6-5.5,2.3-8.3.1-.4-.1-.8-.5-.8s-.8.1-.8.5a65.41,65.41,0,0,1-2.3,8.2,19.18,19.18,0,0,1-2.6,5.7c-1.8,2.4-2.9,4.9-2.1,7.4s6.6,4.3,12.1,4a.66.66,0,0,0,.9-.3A.91.91,0,0,0,262.3,289.4ZM243,315.6a22.5,22.5,0,0,0,5.7,2.1A27.76,27.76,0,0,1,243,315.6Zm-2.5-1.6v.3c.8.5,1.6.9,2.4,1.3A14.31,14.31,0,0,1,240.5,314Zm.1.3h0c-.1,0-.1.1,0,0Zm116.5-63.7a1,1,0,0,0-1.3-.6c-3.9,1.5-11.5,6.9-12,16.4a1.09,1.09,0,0,0,.7,1h.3a.89.89,0,0,0,.8-.5c1.5-2.3,4.9-6,8.5-6.4a1.07,1.07,0,0,0,.9-1.1c0-.5-.6-.9-1.1-.9-2.9.3-5.6,2.2-7.5,4.2,1.8-6.1,7.1-9.7,10-10.9A.84.84,0,0,0,357.1,250.6Zm-94.8,38.8c-5.4,0-10.8-1.3-11.4-3.2s.1-3.7,1.9-6.1a21.86,21.86,0,0,0,2.8-6.1c.8-2.6,1.6-5.5,2.3-8.3.1-.4-.1-.8-.5-.8s-.8.1-.8.5a65.41,65.41,0,0,1-2.3,8.2,19.18,19.18,0,0,1-2.6,5.7c-1.8,2.4-2.9,4.9-2.1,7.4s6.6,4.3,12.1,4a.66.66,0,0,0,.9-.3A.91.91,0,0,0,262.3,289.4ZM243,315.6a22.5,22.5,0,0,0,5.7,2.1A27.76,27.76,0,0,1,243,315.6Zm-2.5-1.6v.3c.8.5,1.6.9,2.4,1.3A14.31,14.31,0,0,1,240.5,314Zm.1.3h0c-.1,0-.1.1,0,0Zm116.5-63.7a1,1,0,0,0-1.3-.6c-3.9,1.5-11.5,6.9-12,16.4a1.09,1.09,0,0,0,.7,1h.3a.89.89,0,0,0,.8-.5c1.5-2.3,4.9-6,8.5-6.4a1.07,1.07,0,0,0,.9-1.1c0-.5-.6-.9-1.1-.9-2.9.3-5.6,2.2-7.5,4.2,1.8-6.1,7.1-9.7,10-10.9A.84.84,0,0,0,357.1,250.6Z" fill="#c93e14"/><path d="M296.2,421.3c-.1.3-.1.7-.2,1h.2l.2-1Zm0,0c-.1.3-.1.7-.2,1s-.1.6-.2.9h.3V423l.1-.8.2-1A.31.31,0,0,1,296.2,421.3Zm-81.2,8h0l.2.8.1.1c.1,0,.2,0,.2-.1A5.58,5.58,0,0,1,215,429.3Z"/><path d="M214.3,427.8l.1.2C214.3,428,214.3,427.9,214.3,427.8Z" fill="#fec2a9"/><path d="M215,429.3c.2.3.3.6.5.9a.35.35,0,0,0-.2.1l-.1-.1-.2-.9Z" fill="#fec2a9"/><path d="M296.2,421.3h.1l-.2,1-.1.8v.2h-.3a2.92,2.92,0,0,0,.2-.9C296,422,296.1,421.7,296.2,421.3Z" fill="#fec2a9"/><path d="M201.9,394.3c-5.7.9-11.5,1.9-17.6,3.1,5.2-1.1,11.4-2.3,17.6-3.2Z" fill="#fec2a9"/><path d="M327.1,400.5c-1-.3-2-.5-3.1-.8l3,.7A.1.1,0,0,0,327.1,400.5Z" fill="#fec2a9"/><path d="M201.9,394.2c-6.2.9-12.3,2.1-17.6,3.2,6.1-1.2,11.9-2.2,17.6-3.1Zm0,0c-6.2.9-12.3,2.1-17.6,3.2,6.1-1.2,11.9-2.2,17.6-3.1ZM327,400.4l-3-.7c1,.3,2,.5,3,.7Zm-125.1-6.2c-6.2.9-12.3,2.1-17.6,3.2,6.1-1.2,11.9-2.2,17.6-3.1Z"/><path d="M214.3,428.1l.1.4C214.5,428.3,214.4,428.2,214.3,428.1Zm81.9-6.8h.1l.1-.8.2-1.6C296.5,419.7,296.3,420.5,296.2,421.3Z"/><path d="M262.6,290.4a.61.61,0,0,1-.9.3c-5.5.3-11.3-1.5-12.1-4s.3-4.9,2.1-7.4a19.18,19.18,0,0,0,2.6-5.7c.8-2.5,1.6-5.4,2.3-8.2a.67.67,0,1,1,1.3.3c-.7,2.8-1.4,5.8-2.3,8.3a21.86,21.86,0,0,1-2.8,6.1c-1.8,2.4-2.5,4.3-1.9,6.1s6,3.2,11.4,3.2A.91.91,0,0,1,262.6,290.4Z" fill="#fec2a9"/><path d="M243,315.6a22.5,22.5,0,0,0,5.7,2.1A27.76,27.76,0,0,1,243,315.6Zm-2.5-1.6v.3c.8.5,1.6.9,2.4,1.3A14.31,14.31,0,0,1,240.5,314Zm.1.4a.1.1,0,0,0-.1-.1A.1.1,0,0,0,240.6,314.4Z" fill="#fec2a9"/><path d="M356.5,251.9a17.56,17.56,0,0,0-10,10.9,13.1,13.1,0,0,1,7.5-4.2,1,1,0,0,1,1.1.9.94.94,0,0,1-.9,1.1c-3.6.4-7,4-8.5,6.4a1,1,0,0,1-.8.5h-.3a1.09,1.09,0,0,1-.7-1c.5-9.5,8-14.8,12-16.4a1,1,0,1,1,.6,1.8Z" fill="#fec2a9"/><path d="M356.5,251.9a17.56,17.56,0,0,0-10,10.9,13.1,13.1,0,0,1,7.5-4.2,1,1,0,0,1,1.1.9.94.94,0,0,1-.9,1.1c-3.6.4-7,4-8.5,6.4a1,1,0,0,1-.8.5h-.3a1.09,1.09,0,0,1-.7-1c.5-9.5,8-14.8,12-16.4a1,1,0,1,1,.6,1.8Z"/><path d="M201.9,394.3c-5.7.9-11.5,1.9-17.6,3.1,5.2-1.1,11.4-2.3,17.6-3.2Z" fill="#34a9e2"/><path d="M327.1,400.5c-1-.3-2-.5-3.1-.8l3,.7A.1.1,0,0,0,327.1,400.5Z" fill="#34a9e2"/><path d="M384.9,408.1a1.23,1.23,0,0,1,.4-.8,1,1,0,0,1,.9-.1c25.7,8.1,37.2,5.5,42.4,1.3-9.6-4-30.4-17-35-28.9a1,1,0,0,1,.2-1,.91.91,0,0,1,1-.3c4.9,1,23.6-7.7,28.3-16-13.4-3.2-16.7-18.7-19.9-33.7l-.9-4.2c-1.5-6.8-.8-14.5,0-23.3,1.7-19,3.9-42.6-15-71-10-15.1-11.9-32.2-13.5-47.3-3-28.1-5.4-50.3-54.1-50.3a1.23,1.23,0,0,1-.8-.4c-7-9.7-27.2-28.1-53.6-28.1-36.3,0-78.3,15.7-87,59.9-3.2,16.3-10.2,37.9-35.5,61.2-17.6,16.2-14.3,32.2-9.1,56.4,1.6,7.7,3.5,16.5,4.8,26.2,4.6,33.8-24.1,48.5-43.1,58.3-3.9,2-7.3,3.8-10.1,5.5,1.9,1.4,4.1,3.1,6.4,4.8,10.3,8,24.3,19,37.5,19a1,1,0,0,1,1,.8.91.91,0,0,1-.6,1.1c-11.9,5.5-17.3,13.2-23.7,24.2a36.55,36.55,0,0,1,6.4,1.9A223.5,223.5,0,0,1,141,408.5a227.48,227.48,0,0,1,42.6-12.9,3.59,3.59,0,0,1,1.1-.2c5.4-1.1,11.8-2.3,18.2-3.3l1-.1v.1c5.7-.8,11.1-1.5,16.2-2.2,2.8-.4,6.8-1,6.9-1l1-.2c6.1-3.9,5.6-23.4,3.7-36-16.4-8.7-27.5-26.3-34.6-41.7a198.93,198.93,0,0,1-11.7-33.8c-4.8-2.5-12.3-9.8-15-18.5a22.68,22.68,0,0,1-.9-6.2c0-4.5,1.4-8.6,4.1-11.1a6.77,6.77,0,0,1,6-2,15.48,15.48,0,0,0-.1-2.2c0-25.8,27.7-30.2,54.4-34.4,6.2-1,12.7-2,18.6-3.3,20.6-4.3,40.3-23.9,50.8-34.4l1.8-1.7a2.77,2.77,0,0,1,3.2-.6,3.15,3.15,0,0,1,1.9,2.9c-1.1,33.9,23.3,64.3,36.5,72.8,6.5-3.6,11.7-2.2,14.9-.3,6.4,3.7,9.9,11.5,9.9,15.6-.3,9-3.1,16.1-8.5,21.2a29.32,29.32,0,0,1-19.7,7.6c-8.7,17.6-28.9,57.9-65.1,71.2-1.3,10.6-1.9,24.2.5,33.4a2.58,2.58,0,0,0,2.3,1.9l1.3.2a379.08,379.08,0,0,1,42.3,8.4h.1l4.5,1v.2c20.7,5.6,43.8,14,59.8,25.9,8.3,6.2,18.6,13.8,26.1,19.4a69.56,69.56,0,0,0,7.3-2.4C411.5,436.7,384.9,420.4,384.9,408.1ZM210.4,352.6h2v26.5h-2Zm84.5,27.1-1.6-1.2c4.1-5.8,1.7-16.2-.1-20.9l1.9-.7C297,361.9,299.5,373.2,294.9,379.7ZM194,329.2h2c0,15-5.3,47.5-25.3,63.2l-1.2-1.6C188.9,375.6,194,343.8,194,329.2ZM171,283c3,27.2.6,85.6-30,112.5l-1.3-1.5c29.9-26.3,32.3-83.9,29.3-110.7ZM278.9,170.4c-18.4,9.2-43.7,21.9-60.5,26l-.5-1.9c16.5-4,41.7-16.6,60-25.8,9.2-4.6,17.1-8.6,22-10.5l.7,1.9C296,161.9,288,165.8,278.9,170.4Zm27.5-19.7c-27-4.6-86.1-.2-116,48.7l-1.7-1.1c30.5-49.8,90.6-54.3,118.1-49.6ZM348.2,227c-19.5-13.8-24.6-50.5-24.6-67.9h2c0,17.1,5,52.9,23.8,66.3Zm18.3,11.3-27.3-60.1,1.8-.8,27.3,60.1Zm4-13.6c-8.9-19.8-18-40.2-21.2-57.7-4.2-22.7-24.6-25.7-34.8-24.2a.88.88,0,0,1-1-.5c-5-9-24.4-24-62.1-16.7-38.3,7.4-56.7,41.2-68.8,63.6-3.2,5.8-5.9,10.9-8.6,14.8a137.8,137.8,0,0,1-9.5,12.2c-12.3,14.9-24.9,30.2-17.7,58,7.2,27.6,7,67.5-7.4,87.1-5.4,7.4-12.4,11.3-20.8,11.7l-.1-2c7.8-.4,14.3-4,19.3-10.9,13.6-18.5,14.3-57.9,7.1-85.4-7.5-28.8,5.5-44.5,18.1-59.8,3.4-4.1,6.6-8,9.4-12.1,2.6-3.8,5.3-8.8,8.5-14.6,12.3-22.7,31-57,70.2-64.6,38-7.4,58.2,7.6,63.9,17.1,11.1-1.4,32,2.2,36.4,25.9,3.2,17.3,12.3,37.6,21.1,57.3,6.4,14.3,12.5,27.8,16.3,40.2,4.4,14,2.9,30.9,1.3,47.2-1.7,18.5-3.3,36,4,47l-1.7,1.1c-7.7-11.6-6.1-29.4-4.3-48.3,1.5-16.1,3-32.8-1.3-46.4C382.9,252.5,376.9,239,370.5,224.7Zm-4,50.5,2,.2c-1.4,14.8-1.9,48.2,5.4,69l-1.9.7C364.5,323.9,365.1,290.2,366.5,275.2ZM328.8,395.6c-14-7-17.2-41.9-16.9-59.4h2c-.3,17.1,2.7,51,15.8,57.6Zm33.4,10c-25-20-33.1-67.4-33.9-89.7l2-.1c.8,22,8.8,68.7,33.2,88.2ZM347.7,288.4l2,.3c-4,27.8-.6,85.6,40.8,105.1l-.9,1.8C347.2,375.6,343.7,316.8,347.7,288.4Z" fill="#c93e14"/><path d="M184.5,274.3a27.25,27.25,0,0,1-5.6-5,30.94,30.94,0,0,1-6.8-11.4c-2.1-6.8-.1-12.7,2.6-15.2a5,5,0,0,1,3.5-1.5,4.1,4.1,0,0,1,1.1.1l.1.3A208.85,208.85,0,0,0,184.5,274.3Z" fill="#fec2a9"/><path d="M360.3,239.7c-4.2-2.4-8.7-2.2-13.4.6a.91.91,0,0,1-1,0c-13.8-8.6-39.1-39.3-37.9-74.9a1.13,1.13,0,0,0-.7-1.1c-.1,0-.2-.1-.4-.1a.86.86,0,0,0-.6.3l-1.8,1.7c-10.7,10.7-30.6,30.5-51.8,35-6,1.3-12.5,2.3-18.8,3.3-27.1,4.3-52.7,8.3-52.7,32.4,0,1.4.1,2.8.2,4.3.2,2.6.4,5.4.7,8.3a199.71,199.71,0,0,0,5,27.2c.1.4.2.7.3,1.1,7.6,29.4,22.3,60.4,44.8,72.7.3.2.6.3.9.5s.6.3.9.5a43.65,43.65,0,0,0,19.4,4.6,68.82,68.82,0,0,0,22.7-3.8,10.37,10.37,0,0,0,1-.4c.4-.1.7-.3,1.1-.4,35.3-13.6,55-53.5,63.3-70.4a1,1,0,0,1,.9-.6,26.94,26.94,0,0,0,18.9-7.1c5-4.7,7.7-11.4,7.9-19.8C369.2,250.1,366,243,360.3,239.7Zm-147.7-7.3a1.73,1.73,0,0,1-1.9-2.9c3.3-2.2,9.1-6.2,15.7-8.1a38.44,38.44,0,0,1,21.5.4,1.81,1.81,0,0,1,1.2,2.2,1.91,1.91,0,0,1-2.2,1.2c-6.3-1.9-13.2-1.2-19.5.6A58.18,58.18,0,0,0,212.6,232.4Zm19.1,17.3c1.2-5.5,4.7-9.4,7.9-8.7s4.7,5.7,3.5,11.2-4.7,9.4-7.9,8.7S230.5,255.2,231.7,249.7ZM273.5,313l-.6,1.9c-.8,2.8-3.7,5.3-7.2,7.1a24.7,24.7,0,0,1-12.9,2.5,18.6,18.6,0,0,1-11.8-5.9,32.05,32.05,0,0,1-5.6-8.1,1,1,0,0,1,.4-1.2l.7-.4a1.06,1.06,0,0,1,1.3.1c4.4,4.2,10.6,6.5,16.8,7.2,6.5.7,12.7-.4,16.5-2.8l1.7-1.1A.63.63,0,0,1,273.5,313Zm13.7-45.2c-3.2.1-5.9-4.5-6-10.1s2.4-10.2,5.6-10.3,5.9,4.5,6,10.1S290.4,267.8,287.2,267.8Zm30-28a1.89,1.89,0,0,1-2.6-.3c-4.3-5.3-10.8-8.8-17.3-10.9a58.84,58.84,0,0,0-16.7-2.9,1.82,1.82,0,0,1-1.8-1.9,1.73,1.73,0,0,1,1.8-1.8c4.2,0,10.9-.2,17.8,2.1a41.65,41.65,0,0,1,19,13.1A1.79,1.79,0,0,1,317.2,239.8Zm39.3,12.1a17.56,17.56,0,0,0-10,10.9,13.1,13.1,0,0,1,7.5-4.2,1,1,0,0,1,1.1.9.94.94,0,0,1-.9,1.1c-3.6.4-7,4-8.5,6.4a1,1,0,0,1-.8.5h-.3a1.09,1.09,0,0,1-.7-1c.5-9.5,8-14.8,12-16.4a1,1,0,1,1,.6,1.8ZM251.6,279.4a19.18,19.18,0,0,0,2.6-5.7c.8-2.5,1.6-5.4,2.3-8.2a.67.67,0,1,1,1.3.3c-.7,2.8-1.4,5.8-2.3,8.3a21.86,21.86,0,0,1-2.8,6.1c-1.8,2.4-2.5,4.3-1.9,6.1s6,3.2,11.4,3.2a.69.69,0,0,1,.3.9.61.61,0,0,1-.9.3c-5.5.3-11.3-1.5-12.1-4S249.8,281.8,251.6,279.4Z" fill="#fec2a9"/><path d="M317.2,239.8a1.89,1.89,0,0,1-2.6-.3c-4.3-5.3-10.8-8.8-17.3-10.9a58.84,58.84,0,0,0-16.7-2.9,1.82,1.82,0,0,1-1.8-1.9,1.73,1.73,0,0,1,1.8-1.8c4.2,0,10.9-.2,17.8,2.1a41.65,41.65,0,0,1,19,13.1A1.79,1.79,0,0,1,317.2,239.8Z" fill="#c93e14"/><path d="M249.1,224a1.91,1.91,0,0,1-2.2,1.2c-6.3-1.9-13.2-1.2-19.5.6a58.18,58.18,0,0,0-14.8,6.6,1.73,1.73,0,0,1-1.9-2.9c3.3-2.2,9.1-6.2,15.7-8.1a38.44,38.44,0,0,1,21.5.4A1.81,1.81,0,0,1,249.1,224Z" fill="#c93e14"/><path d="M243.1,252.2c-1.2,5.5-4.7,9.4-7.9,8.7s-4.7-5.7-3.5-11.2,4.7-9.4,7.9-8.7S244.3,246.7,243.1,252.2Z"/><path d="M292.8,257.6c.1,5.6-2.4,10.2-5.6,10.3s-5.9-4.5-6-10.1,2.4-10.2,5.6-10.3S292.7,252,292.8,257.6Z"/><path d="M422.7,452.7a275,275,0,0,1-66.5,40c-2.7-4-5.4-10-8-17.2-2.8-7.7-5.6-16.8-8.1-26.1-1.9-7.1-3.7-14.4-5.3-21.3-.1-.3-.1-.7-.2-1s-.2-.7-.3-1.1c-2.1-9.5-3.9-18.2-5.2-25,20.2,5.6,42.7,13.8,58.1,25.3,7.9,5.9,17.4,13,24.8,18.4a8.74,8.74,0,0,1,1,.8,8.74,8.74,0,0,1,1,.8C418.1,449.3,421.2,451.6,422.7,452.7Z" fill="#fec2a9"/><path d="M296.7,418.6v.3c-.1.8-.3,1.6-.4,2.4-.1.3-.1.7-.2,1s-.1.6-.2.9h.3c-3.4,15.6-12.8,34.1-38.2,34.1-22.4,0-35.5-14.7-42.5-27.1.1,0,.2,0,.2-.1a4.05,4.05,0,0,1-.5-.9h-.1l-.4-.9c-.1-.1-.1-.2-.2-.4l-.1-.2A98.38,98.38,0,0,1,204,393.8c5.7-.8,11.1-1.5,16.3-2.2,2.8-.4,6.9-1,7-1.1l.9-.2.5-.1.2-.1c8.3-5,5.8-29.5,4.9-36.7a45.57,45.57,0,0,0,19.7,4.4,71.21,71.21,0,0,0,22.5-3.6c-1.2,10.6-1.8,24,.6,33.2a4.74,4.74,0,0,0,3.9,3.4l1.3.2c.2,0,6.3.8,15.6,2.5A102.54,102.54,0,0,1,296.7,418.6Z" fill="#fec2a9"/><path d="M354.3,493.5a249.53,249.53,0,0,1-128.9,16.3,271.53,271.53,0,0,1-68.6-18.7,254.32,254.32,0,0,0,12.2-40l.6-3c.1-.3.1-.7.2-1s.1-.7.2-1c2.9-15.3,4.3-31.7,2-45.8,2.2-.6,5.6-1.4,9.6-2.3.3-.1.5-.1.8-.2s.6-.1.9-.2.6-.1,1-.2c6.1-1.2,11.9-2.2,17.6-3.1A99.53,99.53,0,0,0,212.6,429l.4.9.4.9v.2c7.2,12.9,20.8,28.4,44.3,28.4,26.8,0,36.7-19.5,40.3-35.9v-.1l.1-.9.2-1,.1-.7.2-1.5a92.29,92.29,0,0,0,.7-24.9l24.6,5.4h.1c1,.3,2,.5,3.1.8,1.2,6.7,3,15.5,5.2,25.1.1.4.2.7.3,1.1s.1.6.2,1c1.6,7.2,3.5,14.8,5.5,22.3,2.5,9.3,5.3,18.4,8.1,26.3A95.66,95.66,0,0,0,354.3,493.5Z" fill="#34a9e2"/><path d="M168,445.6c-.1.3-.1.7-.2,1s-.1.7-.2,1l-.6,3a250.59,250.59,0,0,1-12.1,39.7c-30.5-12.9-55.1-29.8-71.1-45,3.5-3.4,15-11.7,28.6-19.9a6.73,6.73,0,0,0,1.1-.7,6.73,6.73,0,0,0,1.1-.7,231.09,231.09,0,0,1,27-13.9,233.14,233.14,0,0,1,28.5-9.6C172.3,414.4,170.9,430.5,168,445.6Z" fill="#fec2a9"/><path d="M214.3,428.1c0-.1-.1-.1-.1-.2Z"/><path d="M296.2,421.3c-.1.3-.1.7-.2,1h.2l.2-1Z" fill-rule="evenodd"/><path d="M243,315.6c-.8-.4-1.6-.8-2.4-1.3V314A9.1,9.1,0,0,0,243,315.6Z" fill="#ae5646"/><path d="M240.5,314v.3c.8.5,1.6.9,2.4,1.3A14.31,14.31,0,0,1,240.5,314Z" fill-rule="evenodd"/><path d="M272.7,312.4l-1.7,1.1c-3.8,2.4-10,3.5-16.5,2.8-6.2-.7-12.4-3-16.8-7.2a1.06,1.06,0,0,0-1.3-.1l-.7.4a1,1,0,0,0-.4,1.2,26.34,26.34,0,0,0,5.6,8.1,18.6,18.6,0,0,0,11.8,5.9,25.73,25.73,0,0,0,12.9-2.5c3.5-1.8,6.4-4.3,7.2-7.1l.6-1.9A.53.53,0,0,0,272.7,312.4Zm-32.1,2h0c0-.2-.1-.3-.1-.4a12,12,0,0,0,2.5,1.6,27.76,27.76,0,0,0,5.7,2.1,35.34,35.34,0,0,0,5.5,1,34,34,0,0,0,13.7-1.2,17.2,17.2,0,0,1-3.3,2.2A23,23,0,0,1,253,322c-4.1-.3-7.5-2.5-10.2-5.2A12.56,12.56,0,0,1,240.6,314.4Z" fill-rule="evenodd"/><path d="M267.9,317.6a17.2,17.2,0,0,1-3.3,2.2,23,23,0,0,1-11.6,2.3c-4.1-.3-7.5-2.5-10.2-5.2a23.21,23.21,0,0,1-2.1-2.5v-.1c.8.5,1.6.9,2.4,1.3a22.5,22.5,0,0,0,5.7,2.1,35.34,35.34,0,0,0,5.5,1A32,32,0,0,0,267.9,317.6Z" fill="#ae5646" fill-rule="evenodd"/><path d="M394,358.3l-1.7,1.1c-7.7-11.6-6.1-29.4-4.3-48.3,1.5-16.1,3-32.8-1.3-46.4-3.9-12.2-9.9-25.7-16.3-40-8.9-19.8-18-40.2-21.2-57.7-4.2-22.7-24.6-25.7-34.8-24.2a.88.88,0,0,1-1-.5c-5-9-24.4-24-62.1-16.7-38.3,7.4-56.7,41.2-68.8,63.6-3.2,5.8-5.9,10.9-8.6,14.8a137.8,137.8,0,0,1-9.5,12.2c-12.3,14.9-24.9,30.2-17.7,58,7.2,27.6,7,67.5-7.4,87.1-5.4,7.4-12.4,11.3-20.8,11.7l-.1-2c7.8-.4,14.3-4,19.3-10.9,13.6-18.5,14.3-57.9,7.1-85.4-7.5-28.8,5.5-44.5,18.1-59.8,3.4-4.1,6.6-8,9.4-12.1,2.6-3.8,5.3-8.8,8.5-14.6,12.3-22.7,31-57,70.2-64.6,38-7.4,58.2,7.6,63.9,17.1,11.1-1.4,32,2.2,36.4,25.9,3.2,17.3,12.3,37.6,21.1,57.3,6.4,14.3,12.5,27.8,16.3,40.2,4.4,14,2.9,30.9,1.3,47.2C388.3,329.8,386.7,347.3,394,358.3Z" fill="#bc2c00"/><path d="M373.9,344.4l-1.9.7c-7.5-21.2-6.9-55-5.5-69.9l2,.2C367.1,290.2,366.5,323.6,373.9,344.4Z" fill="#bc2c00"/><path d="M390.5,393.8l-.9,1.8c-42.5-20-46-78.8-41.9-107.2l2,.3C345.7,316.6,349.1,374.3,390.5,393.8Z" fill="#bc2c00"/><path d="M363.4,404.1l-1.3,1.6c-25-20-33.1-67.4-33.9-89.7l2-.1C331,337.8,339,384.6,363.4,404.1Z" fill="#bc2c00"/><path d="M329.7,393.8l-.9,1.8c-14-7-17.2-41.9-16.9-59.4h2C313.6,353.3,316.5,387.2,329.7,393.8Z" fill="#bc2c00"/><path d="M294.9,379.7l-1.6-1.2c4.1-5.8,1.7-16.2-.1-20.9l1.9-.7C297,361.9,299.5,373.2,294.9,379.7Z" fill="#bc2c00"/><path d="M141,395.5l-1.3-1.5c29.9-26.3,32.3-83.9,29.3-110.7l2-.2C174,310.2,171.6,368.7,141,395.5Z" fill="#bc2c00"/><path d="M196,329.2c0,15-5.3,47.5-25.3,63.2l-1.2-1.6c19.4-15.2,24.6-47,24.6-61.6Z" fill="#bc2c00"/><path d="M212.4,352.6h-2v26.5h2Z" fill="#bc2c00"/><path d="M368.4,237.4l-1.9.9-27.3-60.1,1.9-.8Z" fill="#bc2c00"/><path d="M349.3,225.3l-1.2,1.6c-19.5-13.8-24.6-50.5-24.6-67.9h2C325.5,176.1,330.5,212,349.3,225.3Z" fill="#bc2c00"/><path d="M300.7,160c-4.8,1.9-12.7,5.8-21.8,10.4-18.4,9.2-43.7,21.9-60.5,26l-.5-1.9c16.5-4,41.7-16.6,60-25.8,9.2-4.6,17.1-8.6,22-10.5Z" fill="#bc2c00"/><path d="M306.8,148.7l-.3,2c-27-4.6-86.1-.2-116,48.7l-1.7-1.1C219.2,148.5,279.3,144.1,306.8,148.7Z" fill="#bc2c00"/><path d="M431.4,408.8a1.61,1.61,0,0,0,.3-.9.86.86,0,0,0-.6-.7c-8.1-2.9-28.9-15.3-34.7-26.9,7.4-.6,25.7-9.6,29.3-18.4a1.39,1.39,0,0,0,0-.9.75.75,0,0,0-.7-.5c-13.2-2.2-16.3-16.9-19.5-32.4l-.9-4.2c-1.4-6.5-.7-14,.1-22.7,1.8-19.3,4-43.3-15.4-72.3-9.8-14.7-11.5-30.8-13.2-46.4-3-27.8-5.6-51.9-55.6-52C313,120.4,292.4,102,265.6,102c-37.1,0-80,16.2-89,61.5-3.4,17-10.1,37.4-34.9,60.1-18.5,16.9-14.8,34.3-9.7,58.3,1.6,7.7,3.5,16.4,4.8,26.1,4.4,32.4-23.5,46.8-42,56.3-4.6,2.4-8.5,4.4-11.5,6.4a1.37,1.37,0,0,0-.5.8,1.23,1.23,0,0,0,.4.8c2.2,1.5,4.7,3.5,7.5,5.6,9.6,7.5,22.4,17.5,35,19.2-10.7,5.9-15.9,14.1-22,24.7a.91.91,0,0,0,0,1,1,1,0,0,0,.8.5,25.56,25.56,0,0,1,5.9,1.4c-14.2,8.6-25.8,17.2-28.3,20.2l-.3.3-.3.4.7.7a216.45,216.45,0,0,0,37.4,28.2,257.86,257.86,0,0,0,55.8,26.6c.4.1.9.3,1.3.4,77.2,26,151,7.6,180.3-6.1l1.1-.5-.2-.3c3-1.3,6-2.6,9-4,.6-.3,1.3-.6,1.9-.9s1.2-.5,1.8-.8c.9-.4,1.8-.9,2.7-1.3,1.6-.8,3.1-1.6,4.7-2.4,4-2.1,7.9-4.3,11.9-6.6.8-.5,1.6-.9,2.4-1.4,1.6-.9,3.1-1.9,4.7-2.9a312,312,0,0,0,28.6-20.5l1-.8-.4-.3-.7-.5s-3.3-2.5-8.3-6.2a63.7,63.7,0,0,0,8.2-2.9,1,1,0,0,0,.6-.9.87.87,0,0,0-.6-.9c-10.9-4.8-35.7-20.7-37.8-31.5C409.6,416.3,424.5,416.1,431.4,408.8ZM84.1,445.4c3.5-3.4,15-11.7,28.6-19.9a159157499326468.72,159157499326468.72,0,0,1,2.2-1.4,231.09,231.09,0,0,1,27-13.9,233.14,233.14,0,0,1,28.5-9.6c2.3,13.7.9,29.8-2,44.9-.1.3-.1.7-.2,1s-.1.7-.2,1l-.6,3a250.59,250.59,0,0,1-12.1,39.7C124.8,477.4,100.2,460.6,84.1,445.4Zm141.7,64.4a271.53,271.53,0,0,1-68.6-18.7,254.32,254.32,0,0,0,12.2-40l.6-3c.1-.3.1-.7.2-1s.1-.7.2-1c2.9-15.3,4.3-31.7,2-45.8,2.2-.6,5.6-1.4,9.6-2.3.3-.1.5-.1.8-.2s.6-.1.9-.2.6-.1,1-.2c5.2-1.1,11.4-2.3,17.6-3.2v.1A99.53,99.53,0,0,0,213,429l.4.9.4.9v.2c7.2,12.9,20.8,28.4,44.3,28.4,26.8,0,36.7-19.5,40.3-35.9v-.1l.1-.9.2-1,.1-.7.2-1.5a92.29,92.29,0,0,0,.7-24.9l24.6,5.4h.1l3,.7v.1c1.2,6.7,3,15.5,5.2,25.1.1.4.2.7.3,1.1s.1.6.2,1c1.6,7.2,3.5,14.8,5.5,22.3,2.5,9.3,5.3,18.4,8.1,26.3a98.28,98.28,0,0,0,8,17.3A251.49,251.49,0,0,1,225.8,509.8ZM182.4,249.5c-.3-2.9-.5-5.6-.7-8.3-.1-1.5-.1-2.9-.2-4.3,0-24.1,25.6-28.1,52.7-32.4,6.3-1,12.7-2,18.8-3.3,21.2-4.5,41.1-24.3,51.8-35l1.8-1.7a.86.86,0,0,1,.6-.3c.2,0,.3.1.4.1a1.16,1.16,0,0,1,.7,1.1c-1.1,35.6,24.1,66.3,37.9,74.9a.91.91,0,0,0,1,0c4.8-2.8,9.3-3,13.4-.6,5.7,3.3,8.9,10.3,8.9,13.9-.2,8.4-2.9,15.1-7.9,19.8a27.4,27.4,0,0,1-18.9,7.1.87.87,0,0,0-.9.6c-8.3,16.9-28.1,56.8-63.3,70.4-.3.1-.7.3-1.1.4s-.7.3-1,.4a69.27,69.27,0,0,1-22.7,3.8,42.35,42.35,0,0,1-19.4-4.6c-.3-.2-.6-.3-.9-.5a4.05,4.05,0,0,1-.9-.5c-22.5-12.3-37.2-43.3-44.8-72.7-.1-.4-.2-.7-.3-1.1A199.71,199.71,0,0,1,182.4,249.5Zm2.4,24.8a27.25,27.25,0,0,1-5.6-5,30.94,30.94,0,0,1-6.8-11.4c-2.1-6.8-.1-12.7,2.6-15.2a5,5,0,0,1,3.5-1.5,4.1,4.1,0,0,1,1.1.1l.1.3A208.85,208.85,0,0,0,184.8,274.3Zm49.1,79.3a45.57,45.57,0,0,0,19.7,4.4,71.21,71.21,0,0,0,22.5-3.6c-1.2,10.6-1.8,24,.6,33.2a4.74,4.74,0,0,0,3.9,3.4l1.3.2c.2,0,6.3.8,15.6,2.5a91.27,91.27,0,0,1-.6,24.8v.3l-.2,1.6-.1.8-.2,1-.1.8v.2c-3.4,15.6-12.8,34.1-38.2,34.1-22.4,0-35.5-14.7-42.5-27.1l-.1-.1-.3-.8-.4-.9-.1-.4c0-.1-.1-.1-.1-.2a98.38,98.38,0,0,1-10.4-33.9c5.7-.8,11.1-1.5,16.3-2.2,2.8-.4,6.9-1,7-1.1l.9-.2.5-.1.2-.1C237.4,385.3,234.9,360.8,233.9,353.6ZM423,452.7a275,275,0,0,1-66.5,40c-2.7-4-5.4-10-8-17.2-2.8-7.7-5.6-16.8-8.1-26.1-1.9-7.1-3.7-14.4-5.3-21.3-.1-.3-.1-.7-.2-1s-.2-.7-.3-1.1c-2.1-9.5-3.9-18.2-5.2-25,20.2,5.6,42.7,13.8,58.1,25.3,7.9,5.9,17.4,13,24.8,18.4a8.74,8.74,0,0,1,1,.8,8.74,8.74,0,0,1,1,.8C418.4,449.3,421.5,451.6,423,452.7Zm-36.5-45.6a1.41,1.41,0,0,0-.9.1.91.91,0,0,0-.4.8c0,12.3,26.7,28.6,37.1,33.8-2.1.8-4.6,1.6-7.3,2.4-7.5-5.6-17.7-13.2-26.1-19.4-15.9-11.9-39.1-20.3-59.8-25.9v-.2l-4.5-1h-.1a383.91,383.91,0,0,0-42.3-8.4l-1.3-.2a2.84,2.84,0,0,1-2.3-1.9c-2.4-9.2-1.7-22.9-.5-33.4,36.2-13.3,56.4-53.6,65.1-71.2a29.82,29.82,0,0,0,19.7-7.6c5.4-5.1,8.3-12.2,8.5-21.2,0-4.2-3.4-12-9.9-15.6-3.2-1.9-8.4-3.3-14.9.3-13.1-8.5-37.6-38.9-36.5-72.8a3,3,0,0,0-1.9-2.9,2.74,2.74,0,0,0-3.2.6l-1.8,1.7c-10.5,10.5-30.2,30.1-50.8,34.4-6,1.3-12.4,2.3-18.6,3.3-26.7,4.2-54.4,8.5-54.4,34.4a17,17,0,0,0,.1,2.2,6.77,6.77,0,0,0-6,2c-2.6,2.5-4.1,6.6-4.1,11.1a22.14,22.14,0,0,0,.9,6.2c2.7,8.8,10.2,16.1,15,18.5A190.58,190.58,0,0,0,197,311c7.1,15.4,18.3,33,34.6,41.7,1.9,12.6,2.4,32.1-3.7,36l-1,.2s-4.1.7-6.9,1c-5.1.7-10.5,1.4-16.2,2.2V392l-1,.1c-6.4.9-12.7,2.1-18.2,3.3a4.25,4.25,0,0,1-1.1.2,227.48,227.48,0,0,0-42.6,12.9,237,237,0,0,0-28.7,14.8,39.23,39.23,0,0,0-6.4-1.9c6.3-11,11.7-18.7,23.7-24.2a1.08,1.08,0,0,0,.6-1.1,1,1,0,0,0-1-.8c-13.2,0-27.3-11-37.5-19-2.3-1.8-4.4-3.5-6.4-4.8,2.7-1.7,6.2-3.5,10.1-5.5,19-9.8,47.7-24.6,43.1-58.3-1.3-9.7-3.2-18.5-4.8-26.2-5.1-24.3-8.5-40.3,9.1-56.4,25.4-23.3,32.3-44.9,35.5-61.2,8.7-44.1,50.7-59.9,87-59.9,26.4,0,46.6,18.4,53.6,28.1a.91.91,0,0,0,.8.4c48.7,0,51.1,22.2,54.1,50.3,1.6,15.1,3.5,32.2,13.5,47.3,18.9,28.4,16.8,52,15,71-.8,8.9-1.5,16.5,0,23.3l.9,4.2c3.2,15,6.5,30.5,19.9,33.7-4.7,8.4-23.4,17-28.3,16a1.21,1.21,0,0,0-1,.3,1.23,1.23,0,0,0-.2,1c4.6,11.9,25.4,24.9,35,28.9C423.7,412.6,412.2,415.2,386.5,407.1Z"/><path d="M262.6,290.4a.61.61,0,0,1-.9.3c-5.5.3-11.3-1.5-12.1-4s.3-4.9,2.1-7.4a19.18,19.18,0,0,0,2.6-5.7c.8-2.5,1.6-5.4,2.3-8.2a.67.67,0,1,1,1.3.3c-.7,2.8-1.4,5.8-2.3,8.3a21.86,21.86,0,0,1-2.8,6.1c-1.8,2.4-2.5,4.3-1.9,6.1s6,3.2,11.4,3.2A.91.91,0,0,1,262.6,290.4Z" fill-rule="evenodd"/></g></g></svg>